<svg width="523" height="337" fill="none" xmlns="http://www.w3.org/2000/svg"><rect width="523" height="336.214" rx="15" fill="#3DB562"/><rect x="11.955" y="10.958" width="499.091" height="313.8" rx="15" fill="#fff"/><path stroke="#E9E9E9" stroke-width=".75" d="M323.139 325.029V11.207"/><rect x="36.363" y="171.845" width="121.5" height="58.771" rx="7" fill="#fff" stroke="#C81926"/><path d="M60.165 199.954c2.604 0 4.859-.934 6.701-2.776 1.842-1.843 2.776-4.097 2.776-6.701 0-2.604-.934-4.858-2.776-6.701-1.843-1.842-4.097-2.776-6.701-2.776-2.604 0-4.859.934-6.7 2.776-1.843 1.843-2.778 4.097-2.778 6.701 0 2.604.935 4.859 2.777 6.701 1.843 1.842 4.098 2.776 6.7 2.776ZM76.749 211.257a23.408 23.408 0 0 0-.319-2.486c-.16-.89-.365-1.731-.611-2.5-.255-.795-.6-1.579-1.028-2.331a8.785 8.785 0 0 0-1.55-2.02c-.611-.585-1.36-1.055-2.226-1.399-.862-.341-1.819-.514-2.841-.514-.402 0-.79.165-1.54.653-.462.301-1.002.65-1.605 1.035-.516.328-1.214.636-2.076.915a8.253 8.253 0 0 1-2.54.41 8.26 8.26 0 0 1-2.54-.41c-.861-.279-1.56-.586-2.074-.915a211.93 211.93 0 0 1-1.606-1.035c-.75-.488-1.138-.653-1.54-.653-1.023 0-1.979.173-2.841.515a6.83 6.83 0 0 0-2.227 1.398 8.796 8.796 0 0 0-1.549 2.02 12.373 12.373 0 0 0-1.027 2.331c-.246.769-.452 1.61-.611 2.5a23.3 23.3 0 0 0-.32 2.487 33.673 33.673 0 0 0-.078 2.323c0 2.054.653 3.717 1.94 4.944 1.272 1.21 2.955 1.824 5.001 1.824h18.947c2.046 0 3.728-.614 5-1.824 1.288-1.226 1.94-2.889 1.94-4.944 0-.793-.026-1.575-.079-2.324Z" fill="#F1A616"/><path fill="#C4C4C4" d="M92.883 181.18h33.791v7.72H92.883zM92.883 192.245h33.791v3.86H92.883zM92.883 211.552h46.684v3.86H92.883zM92.883 206.148h46.684v3.86H92.883zM92.883 216.441h46.684v3.86H92.883z"/><path d="M146.757 209.74c-.339 0-.628-.102-.865-.305a1.288 1.288 0 0 1-.305-.865v-24.827c0-.339.102-.611.305-.814.237-.238.526-.356.865-.356h2.391c.339 0 .611.118.814.356.237.203.356.475.356.814v24.827c0 .339-.119.627-.356.865-.203.203-.475.305-.814.305h-2.391Zm-.458 8.445c-.339 0-.627-.102-.865-.305a1.288 1.288 0 0 1-.305-.865v-3.205c0-.339.102-.628.305-.865.238-.238.526-.356.865-.356h3.256c.339 0 .611.118.814.356.237.237.356.526.356.865v3.205c0 .339-.119.627-.356.865-.203.203-.475.305-.814.305h-3.256Z" fill="#C81926"/><path fill="#C4C4C4" d="M423.217 45.589h72.885v7.659h-72.885zM423.217 57.078h72.885v3.83h-72.885zM423.217 101.501h72.885v6.127h-72.885zM423.217 88.481h72.885v6.127h-72.885zM423.217 114.522h72.885v6.127h-72.885z"/><g filter="url(#a)"><rect x="35.863" y="34.867" width="121.784" height="59.024" rx="7.5" fill="#fff"/></g><path d="M60.165 63.954c2.604 0 4.859-.934 6.701-2.776 1.842-1.843 2.776-4.097 2.776-6.701 0-2.603-.934-4.858-2.776-6.701C65.023 45.934 62.769 45 60.165 45c-2.604 0-4.859.934-6.7 2.776-1.843 1.843-2.778 4.097-2.778 6.7 0 2.605.935 4.86 2.777 6.702 1.843 1.842 4.098 2.776 6.7 2.776ZM76.749 75.257a23.43 23.43 0 0 0-.319-2.486c-.16-.89-.365-1.731-.611-2.5a12.35 12.35 0 0 0-1.028-2.332 8.799 8.799 0 0 0-1.55-2.019 6.832 6.832 0 0 0-2.226-1.399c-.862-.34-1.819-.514-2.841-.514-.402 0-.79.165-1.54.653-.462.302-1.002.65-1.605 1.035-.516.328-1.214.636-2.076.915a8.244 8.244 0 0 1-2.54.41 8.252 8.252 0 0 1-2.54-.41c-.861-.279-1.56-.586-2.074-.915-.597-.381-1.138-.73-1.606-1.035-.75-.488-1.138-.653-1.54-.653-1.023 0-1.979.173-2.841.515a6.828 6.828 0 0 0-2.227 1.398 8.8 8.8 0 0 0-1.549 2.02 12.373 12.373 0 0 0-1.027 2.331c-.246.769-.452 1.61-.611 2.5a23.32 23.32 0 0 0-.32 2.487A33.682 33.682 0 0 0 44 77.582c0 2.053.653 3.716 1.94 4.943 1.272 1.21 2.955 1.824 5.001 1.824h18.947c2.046 0 3.728-.614 5-1.824 1.288-1.226 1.94-2.889 1.94-4.944a33.6 33.6 0 0 0-.079-2.324Z" fill="#F1A616"/><path fill="#C4C4C4" d="M94.891 45.327h38.388v7.623H94.891zM94.891 56.253h38.388v3.812H94.891zM94.891 75.319h53.036v3.812H94.891zM94.891 69.982h53.036v3.812H94.891zM94.891 80.147h53.036v3.812H94.891z"/><g filter="url(#b)"><rect x="35.863" y="100.867" width="121.784" height="59.024" rx="7.5" fill="#fff"/></g><path d="M60.165 129.954c2.604 0 4.859-.934 6.701-2.776 1.842-1.843 2.776-4.097 2.776-6.701 0-2.604-.934-4.858-2.776-6.701-1.843-1.842-4.097-2.776-6.701-2.776-2.604 0-4.859.934-6.7 2.776-1.843 1.843-2.778 4.097-2.778 6.701 0 2.604.935 4.859 2.777 6.701 1.843 1.842 4.098 2.776 6.7 2.776ZM76.749 141.257a23.408 23.408 0 0 0-.319-2.486c-.16-.89-.365-1.731-.611-2.5-.255-.795-.6-1.579-1.028-2.331a8.785 8.785 0 0 0-1.55-2.02c-.611-.585-1.36-1.055-2.226-1.399-.862-.341-1.819-.514-2.841-.514-.402 0-.79.165-1.54.653-.462.301-1.002.65-1.605 1.035-.516.328-1.214.636-2.076.915a8.253 8.253 0 0 1-2.54.41 8.26 8.26 0 0 1-2.54-.41c-.861-.279-1.56-.586-2.074-.915a211.93 211.93 0 0 1-1.606-1.035c-.75-.488-1.138-.653-1.54-.653-1.023 0-1.979.173-2.841.515a6.83 6.83 0 0 0-2.227 1.398 8.796 8.796 0 0 0-1.549 2.02 12.373 12.373 0 0 0-1.027 2.331c-.246.769-.452 1.61-.611 2.5a23.3 23.3 0 0 0-.32 2.487 33.673 33.673 0 0 0-.078 2.323c0 2.054.653 3.717 1.94 4.944 1.272 1.21 2.955 1.824 5.001 1.824h18.947c2.046 0 3.728-.614 5-1.824 1.288-1.226 1.94-2.889 1.94-4.944 0-.793-.026-1.575-.079-2.324Z" fill="#F1A616"/><path fill="#C4C4C4" d="M94.891 111.075h38.388v7.623H94.891zM94.891 122.002h38.388v3.812H94.891zM94.891 141.067h53.036v3.812H94.891zM94.891 135.731h53.036v3.812H94.891zM94.891 145.895h53.036v3.812H94.891z"/><g filter="url(#c)"><rect x="35.863" y="241.867" width="121.784" height="59.024" rx="7.5" fill="#fff"/></g><path d="M60.165 271.954c2.604 0 4.859-.934 6.701-2.776 1.842-1.843 2.776-4.097 2.776-6.701 0-2.604-.934-4.858-2.776-6.701-1.843-1.842-4.097-2.776-6.701-2.776-2.604 0-4.859.934-6.7 2.776-1.843 1.843-2.778 4.097-2.778 6.701 0 2.604.935 4.859 2.777 6.701 1.843 1.842 4.098 2.776 6.7 2.776ZM76.749 283.257a23.408 23.408 0 0 0-.319-2.486c-.16-.89-.365-1.731-.611-2.5-.255-.795-.6-1.579-1.028-2.331a8.785 8.785 0 0 0-1.55-2.02c-.611-.585-1.36-1.055-2.226-1.399-.862-.341-1.819-.514-2.841-.514-.402 0-.79.165-1.54.653-.462.301-1.002.65-1.605 1.035-.516.328-1.214.636-2.076.915a8.253 8.253 0 0 1-2.54.41 8.26 8.26 0 0 1-2.54-.41c-.861-.279-1.56-.586-2.074-.915a211.93 211.93 0 0 1-1.606-1.035c-.75-.488-1.138-.653-1.54-.653-1.023 0-1.979.173-2.841.515a6.83 6.83 0 0 0-2.227 1.398 8.796 8.796 0 0 0-1.549 2.02 12.373 12.373 0 0 0-1.027 2.331c-.246.769-.452 1.61-.611 2.5a23.3 23.3 0 0 0-.32 2.487 33.673 33.673 0 0 0-.078 2.323c0 2.054.653 3.717 1.94 4.944 1.272 1.21 2.955 1.824 5.001 1.824h18.947c2.046 0 3.728-.614 5-1.824 1.288-1.226 1.94-2.889 1.94-4.944 0-.793-.026-1.575-.079-2.324Z" fill="#F1A616"/><path fill="#C4C4C4" d="M94.891 252.49h38.388v7.591H94.891zM94.891 263.371h38.388v3.795H94.891zM94.891 282.356h53.036v3.795H94.891zM94.891 277.042h53.036v3.795H94.891zM94.891 287.163h53.036v3.795H94.891z"/><g filter="url(#d)"><rect x="176.863" y="34.867" width="121.784" height="59.024" rx="7.5" fill="#fff"/></g><path d="M201.165 63.954c2.604 0 4.859-.934 6.701-2.776 1.842-1.843 2.776-4.097 2.776-6.701 0-2.603-.934-4.858-2.776-6.701-1.843-1.842-4.097-2.776-6.701-2.776-2.604 0-4.859.934-6.701 2.776-1.842 1.843-2.776 4.097-2.776 6.7 0 2.605.934 4.86 2.776 6.702 1.843 1.842 4.098 2.776 6.701 2.776ZM217.749 75.257a23.431 23.431 0 0 0-.319-2.486c-.16-.89-.365-1.731-.611-2.5-.255-.795-.6-1.58-1.028-2.332a8.803 8.803 0 0 0-1.55-2.019c-.611-.585-1.36-1.055-2.226-1.399-.862-.34-1.819-.514-2.841-.514-.402 0-.791.165-1.541.653-.461.302-1.002.65-1.604 1.035-.516.328-1.214.636-2.077.915a8.238 8.238 0 0 1-2.539.41 8.247 8.247 0 0 1-2.539-.41c-.862-.279-1.56-.586-2.075-.915a210.83 210.83 0 0 1-1.606-1.035c-.749-.488-1.138-.653-1.54-.653-1.023 0-1.979.173-2.841.515a6.82 6.82 0 0 0-2.227 1.398 8.81 8.81 0 0 0-1.549 2.02 12.345 12.345 0 0 0-1.027 2.331 19.66 19.66 0 0 0-.612 2.5 23.333 23.333 0 0 0-.318 2.487 33.245 33.245 0 0 0-.079 2.324c0 2.053.653 3.716 1.941 4.943 1.271 1.21 2.954 1.824 5 1.824h18.946c2.047 0 3.729-.614 5.001-1.824 1.288-1.226 1.941-2.889 1.941-4.944a34.362 34.362 0 0 0-.08-2.324Z" fill="#F1A616"/><path fill="#C4C4C4" d="M236.346 45.327h38.388v7.623h-38.388zM236.346 56.253h38.388v3.812h-38.388zM236.346 75.319h53.036v3.812h-53.036zM236.346 69.982h53.036v3.812h-53.036zM236.346 80.147h53.036v3.812h-53.036z"/><g filter="url(#e)"><rect x="176.863" y="100.867" width="121.784" height="59.024" rx="7.5" fill="#fff"/></g><path d="M201.165 129.954c2.604 0 4.859-.934 6.701-2.776 1.842-1.843 2.776-4.097 2.776-6.701 0-2.604-.934-4.858-2.776-6.701-1.843-1.842-4.097-2.776-6.701-2.776-2.604 0-4.859.934-6.701 2.776-1.842 1.843-2.776 4.097-2.776 6.701 0 2.604.934 4.859 2.776 6.701 1.843 1.842 4.098 2.776 6.701 2.776ZM217.749 141.257a23.41 23.41 0 0 0-.319-2.486 19.67 19.67 0 0 0-.611-2.5 12.35 12.35 0 0 0-1.028-2.331 8.789 8.789 0 0 0-1.55-2.02c-.611-.585-1.36-1.055-2.226-1.399-.862-.341-1.819-.514-2.841-.514-.402 0-.791.165-1.541.653-.461.301-1.002.65-1.604 1.035-.516.328-1.214.636-2.077.915a8.246 8.246 0 0 1-2.539.41 8.255 8.255 0 0 1-2.539-.41c-.862-.279-1.56-.586-2.075-.915-.597-.381-1.138-.73-1.606-1.035-.749-.488-1.138-.653-1.54-.653-1.023 0-1.979.173-2.841.515a6.821 6.821 0 0 0-2.227 1.398 8.807 8.807 0 0 0-1.549 2.02 12.345 12.345 0 0 0-1.027 2.331c-.246.769-.452 1.61-.612 2.5a23.313 23.313 0 0 0-.318 2.487 33.237 33.237 0 0 0-.079 2.323c0 2.054.653 3.717 1.941 4.944 1.271 1.21 2.954 1.824 5 1.824h18.946c2.047 0 3.729-.614 5.001-1.824 1.288-1.226 1.941-2.889 1.941-4.944a34.347 34.347 0 0 0-.08-2.324Z" fill="#F1A616"/><path fill="#C4C4C4" d="M236.346 111.075h38.388v7.623h-38.388zM236.346 122.002h38.388v3.812h-38.388zM236.346 141.067h53.036v3.812h-53.036zM236.346 135.731h53.036v3.812h-53.036zM236.346 145.895h53.036v3.812h-53.036z"/><g filter="url(#f)"><rect x="177.322" y="241.576" width="121.784" height="59.024" rx="7.5" fill="#fff"/></g><path d="M201.165 199.954c2.604 0 4.859-.934 6.701-2.776 1.842-1.843 2.776-4.097 2.776-6.701 0-2.604-.934-4.858-2.776-6.701-1.843-1.842-4.097-2.776-6.701-2.776-2.604 0-4.859.934-6.701 2.776-1.842 1.843-2.776 4.097-2.776 6.701 0 2.604.934 4.859 2.776 6.701 1.843 1.842 4.098 2.776 6.701 2.776ZM217.749 211.257a23.41 23.41 0 0 0-.319-2.486 19.67 19.67 0 0 0-.611-2.5 12.35 12.35 0 0 0-1.028-2.331 8.789 8.789 0 0 0-1.55-2.02c-.611-.585-1.36-1.055-2.226-1.399-.862-.341-1.819-.514-2.841-.514-.402 0-.791.165-1.541.653-.461.301-1.002.65-1.604 1.035-.516.328-1.214.636-2.077.915a8.246 8.246 0 0 1-2.539.41 8.255 8.255 0 0 1-2.539-.41c-.862-.279-1.56-.586-2.075-.915-.597-.381-1.138-.73-1.606-1.035-.749-.488-1.138-.653-1.54-.653-1.023 0-1.979.173-2.841.515a6.821 6.821 0 0 0-2.227 1.398 8.807 8.807 0 0 0-1.549 2.02 12.345 12.345 0 0 0-1.027 2.331c-.246.769-.452 1.61-.612 2.5a23.313 23.313 0 0 0-.318 2.487 33.237 33.237 0 0 0-.079 2.323c0 2.054.653 3.717 1.941 4.944 1.271 1.21 2.954 1.824 5 1.824h18.946c2.047 0 3.729-.614 5.001-1.824 1.288-1.226 1.941-2.889 1.941-4.944a34.347 34.347 0 0 0-.08-2.324ZM201.165 271.954c2.604 0 4.859-.934 6.701-2.776 1.842-1.843 2.776-4.097 2.776-6.701 0-2.604-.934-4.858-2.776-6.701-1.843-1.842-4.097-2.776-6.701-2.776-2.604 0-4.859.934-6.701 2.776-1.842 1.843-2.776 4.097-2.776 6.701 0 2.604.934 4.859 2.776 6.701 1.843 1.842 4.098 2.776 6.701 2.776ZM217.749 283.257a23.41 23.41 0 0 0-.319-2.486 19.67 19.67 0 0 0-.611-2.5 12.35 12.35 0 0 0-1.028-2.331 8.789 8.789 0 0 0-1.55-2.02c-.611-.585-1.36-1.055-2.226-1.399-.862-.341-1.819-.514-2.841-.514-.402 0-.791.165-1.541.653-.461.301-1.002.65-1.604 1.035-.516.328-1.214.636-2.077.915a8.246 8.246 0 0 1-2.539.41 8.255 8.255 0 0 1-2.539-.41c-.862-.279-1.56-.586-2.075-.915-.597-.381-1.138-.73-1.606-1.035-.749-.488-1.138-.653-1.54-.653-1.023 0-1.979.173-2.841.515a6.821 6.821 0 0 0-2.227 1.398 8.807 8.807 0 0 0-1.549 2.02 12.345 12.345 0 0 0-1.027 2.331c-.246.769-.452 1.61-.612 2.5a23.313 23.313 0 0 0-.318 2.487 33.237 33.237 0 0 0-.079 2.323c0 2.054.653 3.717 1.941 4.944 1.271 1.21 2.954 1.824 5 1.824h18.946c2.047 0 3.729-.614 5.001-1.824 1.288-1.226 1.941-2.889 1.941-4.944a34.347 34.347 0 0 0-.08-2.324Z" fill="#F1A616"/><path fill="#C4C4C4" d="M236.346 252.49h38.388v7.591h-38.388zM236.346 263.371h38.388v3.795h-38.388zM236.346 282.356h53.036v3.795h-53.036zM236.346 277.042h53.036v3.795h-53.036zM236.346 287.163h53.036v3.795h-53.036z"/><g filter="url(#g)"><rect x="176.863" y="170.867" width="121.784" height="59.024" rx="7.5" fill="#fff"/></g><path d="M201.165 199.954c2.604 0 4.859-.934 6.701-2.776 1.842-1.843 2.776-4.097 2.776-6.701 0-2.604-.934-4.858-2.776-6.701-1.843-1.842-4.097-2.776-6.701-2.776-2.604 0-4.859.934-6.701 2.776-1.842 1.843-2.776 4.097-2.776 6.701 0 2.604.934 4.859 2.776 6.701 1.843 1.842 4.098 2.776 6.701 2.776ZM217.749 211.257a23.41 23.41 0 0 0-.319-2.486 19.67 19.67 0 0 0-.611-2.5 12.35 12.35 0 0 0-1.028-2.331 8.789 8.789 0 0 0-1.55-2.02c-.611-.585-1.36-1.055-2.226-1.399-.862-.341-1.819-.514-2.841-.514-.402 0-.791.165-1.541.653-.461.301-1.002.65-1.604 1.035-.516.328-1.214.636-2.077.915a8.246 8.246 0 0 1-2.539.41 8.255 8.255 0 0 1-2.539-.41c-.862-.279-1.56-.586-2.075-.915-.597-.381-1.138-.73-1.606-1.035-.749-.488-1.138-.653-1.54-.653-1.023 0-1.979.173-2.841.515a6.821 6.821 0 0 0-2.227 1.398 8.807 8.807 0 0 0-1.549 2.02 12.345 12.345 0 0 0-1.027 2.331c-.246.769-.452 1.61-.612 2.5a23.313 23.313 0 0 0-.318 2.487 33.237 33.237 0 0 0-.079 2.323c0 2.054.653 3.717 1.941 4.944 1.271 1.21 2.954 1.824 5 1.824h18.946c2.047 0 3.729-.614 5.001-1.824 1.288-1.226 1.941-2.889 1.941-4.944a34.347 34.347 0 0 0-.08-2.324Z" fill="#F1A616"/><path fill="#C4C4C4" d="M236.346 181.937h38.388v7.72h-38.388zM236.346 193.002h38.388v3.86h-38.388zM236.346 212.309h53.036v3.86h-53.036zM236.346 206.905h53.036v3.86h-53.036zM236.346 217.198h53.036v3.86h-53.036z"/><g filter="url(#h)"><rect x="338.705" y="141.459" width="157.848" height="84.394" rx="7.844" fill="#fff"/><rect x="362.148" y="173.888" width="17.191" height="41.025" rx="3.922" fill="#E9181E"/><rect x="385.59" y="151.618" width="17.191" height="63.295" rx="3.922" fill="#FECB4B"/><rect x="409.029" y="173.888" width="17.191" height="41.025" rx="3.922" fill="#E9181E"/><rect x="432.479" y="182.875" width="17.191" height="32.038" rx="3.922" fill="#E9181E"/><rect x="455.922" y="165.683" width="17.191" height="49.23" rx="3.922" fill="#E9181E"/></g><path d="m346.928 248.3 4.109 12.702 10.086-2.989 7.845 12.328 17.932-2.615 11.954 14.569h25.029l17.932 11.581h46.696" stroke="#F03B36"/><path stroke="#FECB4B" stroke-linecap="round" d="M339.205 242.823v58.024M339.205 300.847h149.176"/><path d="M372.828 80.754c5.625 0 10.496-2.018 14.476-5.998 3.98-3.98 5.997-8.85 5.997-14.475 0-5.624-2.017-10.494-5.998-14.475-3.98-3.98-8.85-5.997-14.475-5.997s-10.495 2.018-14.475 5.998c-3.979 3.98-5.998 8.85-5.998 14.474 0 5.625 2.019 10.496 5.999 14.476 3.98 3.979 8.851 5.997 14.474 5.997ZM408.652 105.17a50.562 50.562 0 0 0-.689-5.371 42.278 42.278 0 0 0-1.321-5.4 26.623 26.623 0 0 0-2.22-5.037c-.958-1.686-2.084-3.154-3.347-4.362-1.321-1.264-2.939-2.28-4.809-3.021-1.864-.738-3.929-1.111-6.138-1.111-.868 0-1.707.356-3.328 1.411-.997.65-2.164 1.403-3.466 2.235-1.114.71-2.622 1.374-4.485 1.976a17.809 17.809 0 0 1-5.485.886 17.82 17.82 0 0 1-5.486-.886c-1.861-.602-3.37-1.266-4.482-1.976a467.84 467.84 0 0 1-3.469-2.236c-1.619-1.055-2.459-1.41-3.327-1.41-2.21 0-4.274.373-6.138 1.111-1.869.74-3.487 1.757-4.809 3.022-1.262 1.209-2.389 2.676-3.346 4.361a26.718 26.718 0 0 0-2.22 5.037 42.438 42.438 0 0 0-1.32 5.4 50.383 50.383 0 0 0-.689 5.372 72.777 72.777 0 0 0-.17 5.02c0 4.437 1.411 8.029 4.192 10.678 2.747 2.614 6.382 3.94 10.802 3.94h40.928c4.42 0 8.053-1.325 10.801-3.94 2.782-2.647 4.193-6.24 4.193-10.679a73.042 73.042 0 0 0-.172-5.02Z" fill="#F1A616"/><defs><filter id="a" x="29.863" y="28.867" width="133.785" height="71.024" filterUnits="userSpaceOnUse" color-interpolation-filters="sRGB"><feFlood flood-opacity="0" result="BackgroundImageFix"/><feColorMatrix in="SourceAlpha" values="0 0 0 0 0 0 0 0 0 0 0 0 0 0 0 0 0 0 127 0" result="hardAlpha"/><feMorphology radius="1" operator="dilate" in="SourceAlpha" result="effect1_dropShadow_321:49"/><feOffset/><feGaussianBlur stdDeviation="2.5"/><feColorMatrix values="0 0 0 0 0.239216 0 0 0 0 0.709804 0 0 0 0 0.384314 0 0 0 0.15 0"/><feBlend in2="BackgroundImageFix" result="effect1_dropShadow_321:49"/><feBlend in="SourceGraphic" in2="effect1_dropShadow_321:49" result="shape"/></filter><filter id="b" x="29.863" y="94.867" width="133.785" height="71.024" filterUnits="userSpaceOnUse" color-interpolation-filters="sRGB"><feFlood flood-opacity="0" result="BackgroundImageFix"/><feColorMatrix in="SourceAlpha" values="0 0 0 0 0 0 0 0 0 0 0 0 0 0 0 0 0 0 127 0" result="hardAlpha"/><feMorphology radius="1" operator="dilate" in="SourceAlpha" result="effect1_dropShadow_321:49"/><feOffset/><feGaussianBlur stdDeviation="2.5"/><feColorMatrix values="0 0 0 0 0.239216 0 0 0 0 0.709804 0 0 0 0 0.384314 0 0 0 0.15 0"/><feBlend in2="BackgroundImageFix" result="effect1_dropShadow_321:49"/><feBlend in="SourceGraphic" in2="effect1_dropShadow_321:49" result="shape"/></filter><filter id="c" x="29.863" y="235.867" width="133.785" height="71.024" filterUnits="userSpaceOnUse" color-interpolation-filters="sRGB"><feFlood flood-opacity="0" result="BackgroundImageFix"/><feColorMatrix in="SourceAlpha" values="0 0 0 0 0 0 0 0 0 0 0 0 0 0 0 0 0 0 127 0" result="hardAlpha"/><feMorphology radius="1" operator="dilate" in="SourceAlpha" result="effect1_dropShadow_321:49"/><feOffset/><feGaussianBlur stdDeviation="2.5"/><feColorMatrix values="0 0 0 0 0.239216 0 0 0 0 0.709804 0 0 0 0 0.384314 0 0 0 0.15 0"/><feBlend in2="BackgroundImageFix" result="effect1_dropShadow_321:49"/><feBlend in="SourceGraphic" in2="effect1_dropShadow_321:49" result="shape"/></filter><filter id="d" x="170.863" y="28.867" width="133.785" height="71.024" filterUnits="userSpaceOnUse" color-interpolation-filters="sRGB"><feFlood flood-opacity="0" result="BackgroundImageFix"/><feColorMatrix in="SourceAlpha" values="0 0 0 0 0 0 0 0 0 0 0 0 0 0 0 0 0 0 127 0" result="hardAlpha"/><feMorphology radius="1" operator="dilate" in="SourceAlpha" result="effect1_dropShadow_321:49"/><feOffset/><feGaussianBlur stdDeviation="2.5"/><feColorMatrix values="0 0 0 0 0.239216 0 0 0 0 0.709804 0 0 0 0 0.384314 0 0 0 0.15 0"/><feBlend in2="BackgroundImageFix" result="effect1_dropShadow_321:49"/><feBlend in="SourceGraphic" in2="effect1_dropShadow_321:49" result="shape"/></filter><filter id="e" x="170.863" y="94.867" width="133.785" height="71.024" filterUnits="userSpaceOnUse" color-interpolation-filters="sRGB"><feFlood flood-opacity="0" result="BackgroundImageFix"/><feColorMatrix in="SourceAlpha" values="0 0 0 0 0 0 0 0 0 0 0 0 0 0 0 0 0 0 127 0" result="hardAlpha"/><feMorphology radius="1" operator="dilate" in="SourceAlpha" result="effect1_dropShadow_321:49"/><feOffset/><feGaussianBlur stdDeviation="2.5"/><feColorMatrix values="0 0 0 0 0.239216 0 0 0 0 0.709804 0 0 0 0 0.384314 0 0 0 0.15 0"/><feBlend in2="BackgroundImageFix" result="effect1_dropShadow_321:49"/><feBlend in="SourceGraphic" in2="effect1_dropShadow_321:49" result="shape"/></filter><filter id="f" x="171.322" y="235.576" width="133.785" height="71.024" filterUnits="userSpaceOnUse" color-interpolation-filters="sRGB"><feFlood flood-opacity="0" result="BackgroundImageFix"/><feColorMatrix in="SourceAlpha" values="0 0 0 0 0 0 0 0 0 0 0 0 0 0 0 0 0 0 127 0" result="hardAlpha"/><feMorphology radius="1" operator="dilate" in="SourceAlpha" result="effect1_dropShadow_321:49"/><feOffset/><feGaussianBlur stdDeviation="2.5"/><feColorMatrix values="0 0 0 0 0.239216 0 0 0 0 0.709804 0 0 0 0 0.384314 0 0 0 0.15 0"/><feBlend in2="BackgroundImageFix" result="effect1_dropShadow_321:49"/><feBlend in="SourceGraphic" in2="effect1_dropShadow_321:49" result="shape"/></filter><filter id="g" x="170.863" y="164.867" width="133.785" height="71.024" filterUnits="userSpaceOnUse" color-interpolation-filters="sRGB"><feFlood flood-opacity="0" result="BackgroundImageFix"/><feColorMatrix in="SourceAlpha" values="0 0 0 0 0 0 0 0 0 0 0 0 0 0 0 0 0 0 127 0" result="hardAlpha"/><feMorphology radius="1" operator="dilate" in="SourceAlpha" result="effect1_dropShadow_321:49"/><feOffset/><feGaussianBlur stdDeviation="2.5"/><feColorMatrix values="0 0 0 0 0.239216 0 0 0 0 0.709804 0 0 0 0 0.384314 0 0 0 0.15 0"/><feBlend in2="BackgroundImageFix" result="effect1_dropShadow_321:49"/><feBlend in="SourceGraphic" in2="effect1_dropShadow_321:49" result="shape"/></filter><filter id="h" x="323.705" y="126.459" width="187.848" height="114.394" filterUnits="userSpaceOnUse" color-interpolation-filters="sRGB"><feFlood flood-opacity="0" result="BackgroundImageFix"/><feColorMatrix in="SourceAlpha" values="0 0 0 0 0 0 0 0 0 0 0 0 0 0 0 0 0 0 127 0" result="hardAlpha"/><feOffset/><feGaussianBlur stdDeviation="7.5"/><feComposite in2="hardAlpha" operator="out"/><feColorMatrix values="0 0 0 0 0 0 0 0 0 0 0 0 0 0 0 0 0 0 0.15 0"/><feBlend in2="BackgroundImageFix" result="effect1_dropShadow_321:49"/><feBlend in="SourceGraphic" in2="effect1_dropShadow_321:49" result="shape"/></filter></defs></svg>