<svg width="70" height="70" fill="none" xmlns="http://www.w3.org/2000/svg"><path d="M67.349 4.927h-5.552v2.05h4.702l1.45 1.45v37.605H11.28v2.051h56.67v2.652l-1.45 1.45H3.501l-1.45-1.45v-2.652h7.177v-2.05H2.051V8.427l1.45-1.45h56.245V4.927H2.652L0 7.578v44.006l2.652 2.651h26.637l-1.344 2.882H17.804l-3.524 4.51v3.446h9.228v-2.051H16.33v-.69l2.474-3.164h32.393l2.473 3.165v.689H25.56v2.05H55.72v-3.446l-3.524-4.509H42.055l-1.344-2.881H67.35L70 51.584V7.578l-2.651-2.651Zm-27.557 52.19h-9.584l1.344-2.882h6.897l1.343 2.882Z" fill="#3DB562"/><path d="M49.894 40.476c1.344 0 2.539-.65 3.287-1.652l3.679 1.652h3.91v-2.051H57.3l-3.343-1.501a4.106 4.106 0 0 0-4.064-4.651c-.71 0-1.38.181-1.963.5l-7.94-10.846c.218-.5.339-1.05.339-1.628a4.106 4.106 0 0 0-4.102-4.102 4.106 4.106 0 0 0-3.733 2.407l-10.226-3.057a4.108 4.108 0 0 0-4.025-3.315 4.11 4.11 0 0 0-3.972 3.076h-3.206v2.05h3.206a4.11 4.11 0 0 0 3.972 3.077 4.108 4.108 0 0 0 3.885-2.79l10.013 2.993a4.106 4.106 0 0 0 4.086 3.762c.914 0 1.759-.3 2.441-.808l7.757 10.597a4.076 4.076 0 0 0-.633 2.185 4.106 4.106 0 0 0 4.102 4.102Zm2.05-4.102c0 1.13-.92 2.05-2.05 2.05-1.131 0-2.051-.92-2.051-2.05s.92-2.05 2.05-2.05c1.131 0 2.051.92 2.051 2.05Zm-33.7-17.99c-1.132 0-2.052-.92-2.052-2.05 0-1.131.92-2.051 2.051-2.051 1.131 0 2.05.92 2.05 2.05 0 1.131-.919 2.051-2.05 2.051Zm17.983 3.965c-1.13 0-2.05-.92-2.05-2.05 0-1.131.92-2.051 2.05-2.051s2.05.92 2.05 2.05c0 1.132-.919 2.052-2.05 2.052ZM24.908 38.425h2.051v2.051h-2.05v-2.05ZM29.01 38.425h7.178v2.051h-7.177v-2.05ZM29.01 34.324h7.178v2.05h-7.177v-2.05ZM24.908 34.324h2.051v2.05h-2.05v-2.05ZM24.908 30.222h2.051v2.051h-2.05v-2.05Z" fill="#3DB562"/><path d="M29.01 30.222h7.178v2.051h-7.177v-2.05ZM48.698 16.334h7.178v2.05h-7.178v-2.05ZM48.698 20.435h7.178v2.05h-7.178v-2.05ZM4.102 14.155h2.05v2.051h-2.05v-2.05ZM4.102 10.054h2.05v2.05h-2.05v-2.05Z" fill="#3DB562"/></svg>