<svg width="70" height="70" fill="none" xmlns="http://www.w3.org/2000/svg"><g clip-path="url(#a)" fill="#3DB562"><path d="M31.147 23.909a13.244 13.244 0 0 0 8.043 6.277 13.256 13.256 0 0 0 10.126-1.248 13.242 13.242 0 0 0 6.277-8.042c.95-3.432.507-7.028-1.248-10.127a13.243 13.243 0 0 0-8.043-6.277A13.245 13.245 0 0 0 36.176 5.74c-6.395 3.623-8.652 11.773-5.03 18.169Zm6.04-16.385a11.207 11.207 0 0 1 8.568-1.056c2.904.804 5.321 2.69 6.806 5.312a11.207 11.207 0 0 1 1.056 8.569 11.206 11.206 0 0 1-5.312 6.805 11.205 11.205 0 0 1-8.568 1.056 11.206 11.206 0 0 1-6.806-5.312c-3.066-5.412-1.156-12.309 4.256-15.374Z"/><path d="M48.994 13.8c.078.139.152.278.218.415l1.845-.893a9.183 9.183 0 0 0-4.123-4.207l-.928 1.828a7.14 7.14 0 0 1 2.988 2.856ZM49.835 18.465l2.024.324a9.185 9.185 0 0 0-.066-3.285l-2.009.407c.17.842.188 1.7.051 2.554Z"/><path d="m58.507 34.814-1.26.715-2.97-5.244a17.213 17.213 0 0 0 5.172-8.322 17.217 17.217 0 0 0-1.622-13.166A17.218 17.218 0 0 0 47.37.637a17.217 17.217 0 0 0-13.166 1.621 17.226 17.226 0 0 0-6.43 6.358 22.15 22.15 0 0 0-4.015-.368c-4.507 0-8.84 1.353-12.53 3.913a21.977 21.977 0 0 0-7.954 10.04l1.907.75a20.314 20.314 0 0 1 1.454-2.959c1.502 1.066 3.288 1.972 5.277 2.693a37.078 37.078 0 0 0-.741 6.542H3.834c.076-1.504.317-2.99.725-4.428l-1.972-.56a22.04 22.04 0 0 0-.832 6.013c0 10.957 8.05 20.068 18.548 21.731v7.767H7.704l-3.502 4.79V70h8.397v-2.05H6.252v-2.74l2.493-3.41h11.558v2.245h-2.05v2.05h10.25v-2.05h-2.05V61.8h11.558l2.493 3.41v2.74H14.65V70h27.905v-5.46l-3.503-4.79H26.453v-7.661a21.992 21.992 0 0 0 11.664-5.163 22.022 22.022 0 0 0 7.239-12.454c.86-.13 1.716-.327 2.562-.59l2.972 5.247-1.26.714 9.737 17.191 3.905 1.081 3.891-2.203 1.082-3.906-9.738-17.192ZM35.215 4.042a15.179 15.179 0 0 1 11.608-1.43 15.182 15.182 0 0 1 9.22 7.196 15.181 15.181 0 0 1 1.43 11.608 15.181 15.181 0 0 1-7.196 9.22c-7.332 4.153-16.675 1.567-20.828-5.765-4.153-7.332-1.566-16.676 5.766-20.83ZM24.784 50.075V39.954h-2.05v10.123c-2.326-.438-4.52-2.355-6.263-5.51-.882-1.595-1.595-3.417-2.129-5.391 2.853-.824 6.074-1.272 9.417-1.272 3.295 0 6.526.44 9.414 1.275-.592 2.19-1.402 4.185-2.407 5.88-1.695 2.855-3.788 4.6-5.982 5.016ZM13.222 31.277h9.512v4.592c-3.123.082-6.136.539-8.86 1.316a35.11 35.11 0 0 1-.652-5.908Zm-1.31 6.54c-1.983.72-3.766 1.624-5.266 2.686a19.817 19.817 0 0 1-2.815-9.226h7.34c.06 2.262.311 4.462.741 6.54Zm21.73-.637c-2.744-.783-5.767-1.23-8.858-1.31v-4.593h7.664c.576.424 1.175.812 1.795 1.16a34.727 34.727 0 0 1-.602 4.743Zm-8.858-26.752c.61.115 1.215.334 1.807.654a17.354 17.354 0 0 0-.387 11.434 37.06 37.06 0 0 1-1.42.068V10.428Zm-2.05-.001v12.157c-2.975-.082-5.832-.517-8.392-1.256.534-1.975 1.247-3.797 2.129-5.392 1.743-3.155 3.937-5.072 6.263-5.51Zm2.05 14.209a38.74 38.74 0 0 0 2.186-.12 17.315 17.315 0 0 0 3.16 4.712h-5.346v-4.593ZM7.77 18.285a19.764 19.764 0 0 1 9.479-6.912c-.934.976-1.8 2.17-2.573 3.57-.944 1.708-1.71 3.645-2.285 5.74-1.746-.652-3.31-1.457-4.621-2.397Zm6.103 5.032c2.724.777 5.737 1.234 8.86 1.316v4.593h-9.512a35.11 35.11 0 0 1 .652-5.909ZM7.79 42.203c1.307-.934 2.865-1.735 4.602-2.384.575 2.095 1.341 4.033 2.284 5.74.769 1.39 1.626 2.577 2.553 3.548a20.042 20.042 0 0 1-9.44-6.904Zm16.613 10.05v11.792h-2.05V52.252h1.143c.088.002.175.004.263.004.1 0 .198-.002.297-.004h.347ZM40.899 40.52c-.9-.64-1.911-1.229-3.018-1.757l-.883 1.85a18.155 18.155 0 0 1 2.761 1.613 19.804 19.804 0 0 1-9.505 6.911c.816-.848 1.58-1.862 2.275-3.034 2.016-3.398 3.31-7.867 3.701-12.712a17.456 17.456 0 0 0 6.994 1.269 19.952 19.952 0 0 1-2.325 5.86Zm8.957-7.377a17.45 17.45 0 0 0 2.79-1.578l2.816 4.973-2.788 1.58-2.818-4.974Zm15.558 21.403L63 55.913l-2.27-.628-8.308-14.669 5.31-3.007 8.309 14.669-.628 2.269Z"/><path d="m61.017 51.748 1.783-1.009 1.007 1.782-1.783 1.008-1.007-1.781ZM56.855 44.358l1.783-1.01 3.205 5.656-1.783 1.011-3.206-5.657ZM35.679 63.85h2.05v2.05h-2.05v-2.05Z"/></g><defs><clipPath id="a"><path fill="#fff" d="M0 0h70v70H0z"/></clipPath></defs></svg>