<svg width="70" height="70" fill="none" xmlns="http://www.w3.org/2000/svg"><g clip-path="url(#a)" fill="#3DB562"><path d="M51.543 60.635h2.05v2.05h-2.05v-2.05Z"/><path d="M66.924 7.314h-24.61a3.08 3.08 0 0 0-3.076 3.076v11.28h-7.026l-6.153-6.152H3.076A3.08 3.08 0 0 0 0 18.594v41.015a3.08 3.08 0 0 0 3.076 3.076h46.416v-2.05H3.076c-.565 0-1.025-.46-1.025-1.026V29.873h4.101v-2.05H2.051v-9.23c0-.565.46-1.025 1.025-1.025H25.21l5.127 5.127-5.127 5.127H8.203v2.05H26.06l6.152-6.151h7.027V35a3.08 3.08 0 0 0 3.076 3.076h19.483v21.533c0 .566-.46 1.026-1.025 1.026h-5.127v2.05h5.127a3.08 3.08 0 0 0 3.076-3.076V38.076h3.076A3.08 3.08 0 0 0 70 35V10.39a3.08 3.08 0 0 0-3.076-3.076ZM67.949 35c0 .565-.46 1.025-1.025 1.025h-24.61c-.565 0-1.025-.46-1.025-1.025V10.39c0-.565.46-1.025 1.026-1.025h24.609c.565 0 1.025.46 1.025 1.025V35Z"/><path d="M63.848 11.416h2.05v2.05h-2.05v-2.05ZM57.695 40.127h2.051v2.05h-2.05v-2.05ZM53.168 21.245l-2.9-2.9-4.35 4.35 7.25 7.25 10.151-10.15-4.35-4.35-5.8 5.8Zm0 5.8-4.35-4.35 1.45-1.45 2.9 2.9 5.8-5.8 1.451 1.45-7.25 7.25ZM5.127 55.508h53.594v2.05H5.127v-2.05Z"/></g><defs><clipPath id="a"><path fill="#fff" d="M0 0h70v70H0z"/></clipPath></defs></svg>