<svg width="70" height="70" fill="none" xmlns="http://www.w3.org/2000/svg"><path d="M66.924 5.264H3.076A3.08 3.08 0 0 0 0 8.34v3.076h2.05V8.34c0-.565.46-1.025 1.026-1.025h63.848c.565 0 1.025.46 1.025 1.025v33.838H65.9v-28.71H4.102v28.71H2.05v-28.71H0v35.888a3.08 3.08 0 0 0 3.076 3.076h27.822v2.688l-3.06 3.464H16.543a3.08 3.08 0 0 0-3.076 3.076v3.076h30.761v-2.05h-28.71V61.66c0-.565.46-1.025 1.025-1.025h36.914c.565 0 1.026.46 1.026 1.025v1.026H50.38v2.05h6.152V61.66a3.08 3.08 0 0 0-3.076-3.076H42.162l-3.06-3.464v-2.688h27.822A3.08 3.08 0 0 0 70 49.356V8.34a3.08 3.08 0 0 0-3.076-3.076ZM52.615 42.178V25.772h11.233v16.406H52.615Zm11.232-18.457H52.615v-8.203h11.232v8.203Zm-53.104 3.03h-4.59V22.16h4.59v4.59Zm0 2.05v4.59h-4.59v-4.59h4.59Zm0-13.283v4.59h-4.59v-4.59h4.59Zm-4.59 19.925h6.641V15.518h37.77v26.66H6.153v-6.735Zm33.272 23.141h-8.85l2.374-2.688v-3.464h4.102v3.464l2.374 2.688Zm27.499-8.203H3.076c-.565 0-1.025-.46-1.025-1.025v-5.127h65.898v5.127c0 .565-.46 1.025-1.025 1.025Z" fill="#3DB562"/><path d="M46.28 62.685h2.05v2.051h-2.05v-2.05ZM33.975 46.28h2.05v2.05h-2.05v-2.05ZM59.746 9.366h2.05v2.05h-2.05v-2.05ZM63.848 9.366h2.05v2.05h-2.05v-2.05ZM14.355 9.366h3.077v2.05h-3.076v-2.05ZM9.229 9.366h3.076v2.05H9.229v-2.05ZM4.102 9.366h3.076v2.05H4.102v-2.05Z" fill="#3DB562"/></svg>