<svg width="70" height="70" fill="none" xmlns="http://www.w3.org/2000/svg"><g clip-path="url(#a)" fill="#3DB562"><path d="M5.72 6.999c-.877 0-1.592.714-1.592 1.592v38.958c0 .878.715 1.592 1.592 1.592h58.285c.879 0 1.593-.715 1.593-1.592V8.591c0-.878-.715-1.592-1.593-1.592H5.72Zm.459 2.05h4.106v3.02H6.18V9.05Zm6.157 0h51.211v3.02H12.336V9.05ZM6.179 47.09V14.12h57.368v32.97H6.18Z"/><path d="M57.646 24.49h-45.29a1.91 1.91 0 0 0-1.908 1.909v14.855a1.91 1.91 0 0 0 1.908 1.909h45.29a1.91 1.91 0 0 0 1.908-1.909V26.4a1.91 1.91 0 0 0-1.908-1.908Zm-.143 5.63H24.818v-3.579h32.685v3.58Zm0 5.362H24.818v-3.311h32.685v3.311ZM12.5 41.112v-14.57h10.267v14.57H12.5Zm12.318 0v-3.579h32.685v3.579H24.818ZM23.305 20.855h23.392a1.026 1.026 0 0 0 0-2.052H23.305a1.026 1.026 0 0 0 0 2.052Z"/><path d="M19.441 30.621h-3.46a1.026 1.026 0 0 0 0 2.051h3.46a1.025 1.025 0 0 0 0-2.05ZM19.441 34.981h-3.46a1.025 1.025 0 1 0 0 2.051h3.46a1.025 1.025 0 1 0 0-2.05Z"/><path d="M64.898 2.734H4.829A4.971 4.971 0 0 0-.137 7.7v40.741a4.971 4.971 0 0 0 4.966 4.966h22.646v2.992a3.218 3.218 0 0 1-1.539 2.757l-3.258 2.01h-1.373a2.396 2.396 0 0 0-2.392 2.392v1.53a2.396 2.396 0 0 0 2.392 2.394h11.166a1.026 1.026 0 0 0 0-2.052H21.305a.342.342 0 0 1-.341-.342v-1.53c0-.189.153-.342.341-.342h27.117c.188 0 .34.153.34.342v1.53a.342.342 0 0 1-.34.342H37.255a1.025 1.025 0 1 0 0 2.051h11.166a2.395 2.395 0 0 0 2.392-2.393v-1.53a2.395 2.395 0 0 0-2.392-2.393h-1.373l-3.258-2.01a3.218 3.218 0 0 1-1.539-2.756v-2.992h22.646a4.971 4.971 0 0 0 4.965-4.966V32.235a1.025 1.025 0 1 0-2.05 0v16.206a2.918 2.918 0 0 1-2.915 2.915H4.829a2.918 2.918 0 0 1-2.915-2.915V7.7A2.918 2.918 0 0 1 4.83 4.785h60.069A2.918 2.918 0 0 1 67.813 7.7v19.75a1.025 1.025 0 1 0 2.05 0V7.7a4.971 4.971 0 0 0-4.965-4.966ZM40.2 53.407v2.992c0 1.849.94 3.532 2.513 4.502l.428.264H26.584l.43-.264a5.255 5.255 0 0 0 2.512-4.502v-2.992h10.675Z"/></g><defs><clipPath id="a"><path fill="#fff" d="M0 0h70v70H0z"/></clipPath></defs></svg>