<svg width="573" height="374" fill="none" xmlns="http://www.w3.org/2000/svg"><g filter="url(#a)"><rect x="19" y="12" width="541.204" height="347.917" rx="15.463" fill="#3DB562"/></g><rect x="31.367" y="21.278" width="516.463" height="324.722" rx="15.463" fill="#fff"/><path stroke="#3DB562" stroke-width="1.031" d="M328.774 21.278V346"/><path fill="#C4C4C4" d="M56.115 289.96h237.099v7.216H56.115zM56.115 273.466h237.099v8.247H56.115zM56.115 306.454h237.099v7.216H56.115z"/><g filter="url(#b)"><path fill="#fff" d="M56.116 217.142h237.099v29.895H56.116z"/></g><g filter="url(#c)"><path fill="#3DB562" d="M56.116 217.142h119.58v29.895H56.116z"/></g><path d="M67.089 235.482c-.644 0-1.204-.103-1.683-.309-.47-.215-.833-.491-1.088-.829a1.954 1.954 0 0 1-.396-1.089.254.254 0 0 1 .26-.247h.247c.148 0 .24.082.272.247.058.396.285.743.68 1.04.397.296.966.445 1.708.445.783 0 1.365-.14 1.744-.421.388-.288.581-.688.581-1.2 0-.313-.094-.569-.284-.767-.182-.206-.45-.383-.804-.532-.355-.156-.89-.35-1.608-.581-.635-.206-1.134-.408-1.497-.606-.355-.198-.619-.441-.792-.73-.173-.289-.26-.656-.26-1.101 0-.42.112-.8.334-1.138.231-.338.561-.602.99-.792.429-.198.94-.297 1.534-.297.61 0 1.134.112 1.57.334.438.215.768.491.99.829.223.33.343.664.36 1.002a.236.236 0 0 1-.075.173c-.041.05-.103.075-.186.075h-.247a.347.347 0 0 1-.173-.05c-.058-.041-.09-.107-.1-.198-.048-.412-.271-.75-.667-1.014-.388-.272-.878-.408-1.472-.408-.635 0-1.142.123-1.522.371-.37.247-.556.618-.556 1.113 0 .322.082.59.247.804.173.206.429.388.767.544.338.149.837.33 1.497.545.676.214 1.204.42 1.583.618.38.198.664.437.854.718.198.28.297.643.297 1.088 0 .743-.277 1.324-.83 1.745-.552.412-1.31.618-2.275.618Zm7.168 0c-.858 0-1.522-.247-1.992-.742-.47-.503-.717-1.204-.742-2.103l-.012-.495.012-.495c.025-.899.272-1.595.742-2.09.47-.503 1.134-.755 1.992-.755.544 0 1.006.099 1.385.297.388.19.677.437.866.742.19.297.293.606.31.928a.234.234 0 0 1-.075.198.298.298 0 0 1-.197.074h-.174c-.082 0-.144-.016-.185-.049a.96.96 0 0 1-.112-.211c-.165-.453-.395-.775-.692-.965-.297-.197-.672-.296-1.126-.296-.594 0-1.068.181-1.423.544-.346.354-.532.903-.556 1.645l-.013.433.013.433c.024.742.21 1.295.556 1.658.355.354.83.532 1.423.532.453 0 .829-.095 1.126-.285.297-.198.528-.524.692-.977a.662.662 0 0 1 .112-.198c.041-.041.103-.062.185-.062h.174c.074 0 .14.029.197.087a.2.2 0 0 1 .075.185c-.017.322-.12.635-.31.94-.19.297-.478.545-.866.743-.379.189-.84.284-1.385.284Zm6.644 0c-.857 0-1.525-.26-2.004-.779-.47-.528-.717-1.208-.742-2.041l-.012-.52.012-.519c.025-.833.272-1.51.742-2.029.479-.528 1.147-.792 2.004-.792.858 0 1.522.264 1.992.792.478.519.73 1.196.755 2.029.008.082.012.255.012.519s-.004.437-.012.52c-.025.833-.277 1.513-.755 2.041-.47.519-1.134.779-1.992.779Zm0-.717c.586 0 1.056-.186 1.41-.557.364-.379.557-.915.582-1.608a5.49 5.49 0 0 0 .013-.458 5.49 5.49 0 0 0-.013-.458c-.025-.692-.218-1.224-.581-1.595-.355-.38-.825-.569-1.41-.569-.586 0-1.06.189-1.423.569-.355.371-.544.903-.57 1.595l-.012.458.013.458c.025.693.214 1.229.569 1.608.363.371.837.557 1.422.557Zm4.721.593a.265.265 0 0 1-.198-.074.266.266 0 0 1-.074-.198v-5.876a.27.27 0 0 1 .074-.198.25.25 0 0 1 .198-.086h.198a.25.25 0 0 1 .198.086.25.25 0 0 1 .087.198v.569c.297-.569.857-.853 1.682-.853h.458a.27.27 0 0 1 .198.074c.05.05.074.115.074.198v.173a.266.266 0 0 1-.074.198.265.265 0 0 1-.198.074h-.532c-.495 0-.887.145-1.175.433-.289.289-.433.681-.433 1.175v3.835a.246.246 0 0 1-.087.198.265.265 0 0 1-.198.074h-.198Zm4.165-7.756a.27.27 0 0 1-.198-.074.27.27 0 0 1-.074-.198v-.47c0-.083.024-.148.074-.198a.247.247 0 0 1 .198-.087h.47c.082 0 .148.029.198.087.058.05.086.115.086.198v.47a.25.25 0 0 1-.086.198.27.27 0 0 1-.198.074h-.47Zm.136 7.756a.265.265 0 0 1-.198-.074.266.266 0 0 1-.074-.198v-5.888c0-.083.025-.148.074-.198a.27.27 0 0 1 .198-.074h.21a.27.27 0 0 1 .198.074c.05.05.074.115.074.198v5.888a.266.266 0 0 1-.074.198.265.265 0 0 1-.198.074h-.21Zm2.754 0a.265.265 0 0 1-.198-.074.266.266 0 0 1-.074-.198v-5.888c0-.083.025-.148.074-.198a.27.27 0 0 1 .198-.074h.21c.083 0 .149.025.198.074.05.05.075.115.075.198v.581a2.58 2.58 0 0 1 .84-.729c.323-.165.735-.248 1.238-.248.808 0 1.43.26 1.868.779.437.512.655 1.176.655 1.992v3.513a.266.266 0 0 1-.074.198.265.265 0 0 1-.198.074h-.21a.265.265 0 0 1-.198-.074.266.266 0 0 1-.074-.198v-3.451c0-.668-.165-1.188-.495-1.559-.322-.371-.787-.556-1.398-.556-.594 0-1.068.189-1.422.569-.355.371-.532.886-.532 1.546v3.451a.266.266 0 0 1-.075.198.265.265 0 0 1-.197.074h-.21Zm9.425 2.722c-.644 0-1.159-.111-1.547-.334-.387-.223-.66-.478-.816-.767-.149-.28-.223-.528-.223-.742 0-.075.025-.136.074-.186a.298.298 0 0 1 .198-.074h.173c.075 0 .132.016.174.049.049.042.09.112.123.211.256.75.85 1.125 1.782 1.125.709 0 1.233-.148 1.571-.445.338-.289.507-.808.507-1.559v-.853c-.478.651-1.171.977-2.078.977-.891 0-1.551-.289-1.98-.866-.42-.585-.643-1.295-.668-2.128l-.012-.346.012-.346c.025-.833.248-1.538.668-2.116.429-.585 1.089-.878 1.98-.878.899 0 1.591.326 2.078.977v-.569c0-.082.025-.148.074-.198a.25.25 0 0 1 .198-.086h.198a.25.25 0 0 1 .198.086c.058.05.086.116.086.198v6.025c0 .882-.206 1.575-.618 2.078-.412.511-1.13.767-2.152.767Zm.012-3.315c.651 0 1.142-.215 1.472-.644a2.67 2.67 0 0 0 .532-1.534 5.42 5.42 0 0 0 .012-.445c0-.214-.004-.363-.012-.445-.025-.586-.202-1.093-.532-1.522-.33-.437-.821-.655-1.472-.655-.668 0-1.159.214-1.472.643-.305.42-.47.965-.495 1.633l-.012.346.012.346c.025.668.19 1.217.495 1.646.313.42.804.631 1.472.631Zm10.426.717c-.577 0-1.08-.107-1.509-.322a2.613 2.613 0 0 1-.977-.853 2.199 2.199 0 0 1-.359-1.113v-.025c0-.066.021-.116.062-.149a.282.282 0 0 1 .186-.061h.235c.082 0 .148.02.198.061.049.033.086.108.111.223.124.503.375.878.755 1.126.379.247.812.371 1.298.371.635 0 1.159-.19 1.571-.569.421-.38.631-.907.631-1.584 0-.412-.099-.771-.297-1.076a1.876 1.876 0 0 0-.791-.705 2.504 2.504 0 0 0-1.114-.247c-.329 0-.597.045-.804.136-.198.082-.4.198-.606.346a2.216 2.216 0 0 1-.309.198.503.503 0 0 1-.247.062h-.223a.299.299 0 0 1-.198-.074.233.233 0 0 1-.074-.198l.371-4.045a.378.378 0 0 1 .074-.211.271.271 0 0 1 .198-.074h4.033c.082 0 .148.025.198.074.049.05.074.116.074.198v.198a.268.268 0 0 1-.074.198.267.267 0 0 1-.198.074h-3.551l-.259 2.796c.437-.28.969-.421 1.595-.421.561 0 1.064.108 1.51.322.453.215.812.532 1.076.953.264.412.396.911.396 1.496 0 .619-.132 1.147-.396 1.584a2.541 2.541 0 0 1-1.076.989 3.432 3.432 0 0 1-1.51.322Zm4.531-.124a.267.267 0 0 1-.198-.074.268.268 0 0 1-.074-.198v-.185c0-.165.103-.338.309-.52l3.204-3.204c.454-.42.759-.775.916-1.064.156-.288.235-.631.235-1.026 0-.553-.161-.986-.483-1.299-.313-.314-.763-.47-1.348-.47-.553 0-.994.16-1.324.482-.33.322-.527.755-.593 1.299a.282.282 0 0 1-.112.21.265.265 0 0 1-.173.075h-.247a.299.299 0 0 1-.198-.062.262.262 0 0 1-.062-.174 2.93 2.93 0 0 1 .321-1.199c.198-.396.499-.722.904-.978.404-.264.898-.396 1.484-.396.882 0 1.538.24 1.967.718.429.478.643 1.076.643 1.794 0 .494-.107.94-.322 1.336-.214.395-.556.812-1.026 1.249l-2.895 2.944h4.144c.091 0 .161.025.21.074.05.05.075.12.075.211v.185a.246.246 0 0 1-.087.198.264.264 0 0 1-.198.074h-5.072Zm8.407-4.329c-.528 0-.944-.14-1.25-.421-.296-.288-.457-.684-.482-1.187a9.686 9.686 0 0 1-.012-.532c0-.231.004-.421.012-.569.025-.52.181-.928.47-1.225.289-.305.709-.458 1.262-.458.552 0 .973.153 1.262.458.288.297.445.705.47 1.225.016.297.024.486.024.569 0 .074-.008.251-.024.532-.025.503-.19.899-.495 1.187-.297.281-.709.421-1.237.421Zm-1.064 4.329a.283.283 0 0 1-.186-.061.283.283 0 0 1-.061-.186c0-.049.016-.095.049-.136l6.099-8.041a.752.752 0 0 1 .173-.185.474.474 0 0 1 .235-.05h.21c.074 0 .132.025.173.074.05.042.075.099.075.174a.216.216 0 0 1-.05.136l-6.098 8.04a.954.954 0 0 1-.186.186.408.408 0 0 1-.223.049h-.21Zm1.064-4.96c.338 0 .585-.099.742-.297.157-.198.247-.437.272-.717.017-.314.025-.487.025-.52 0-.058-.008-.227-.025-.507a1.211 1.211 0 0 0-.272-.73c-.157-.198-.404-.297-.742-.297-.338 0-.59.099-.755.297a1.268 1.268 0 0 0-.26.73 10.274 10.274 0 0 0 0 1.027c.025.28.116.519.273.717.156.198.404.297.742.297Zm4.367 5.035c-.528 0-.945-.149-1.25-.446-.297-.305-.458-.713-.482-1.224a8.666 8.666 0 0 1-.013-.532c0-.231.004-.421.013-.569.024-.52.181-.928.47-1.225.288-.305.709-.458 1.262-.458.552 0 .973.153 1.261.458.289.297.446.705.47 1.225.017.297.025.486.025.569 0 .074-.008.251-.025.532-.024.511-.189.919-.494 1.224-.297.297-.71.446-1.237.446Zm0-.693c.338 0 .585-.099.742-.297a1.32 1.32 0 0 0 .272-.717c.016-.314.025-.487.025-.52 0-.058-.009-.227-.025-.507a1.218 1.218 0 0 0-.272-.73c-.157-.198-.404-.297-.742-.297-.339 0-.59.099-.755.297a1.261 1.261 0 0 0-.26.73 10.274 10.274 0 0 0 0 1.027c.025.28.116.519.272.717.157.198.404.297.743.297Z" fill="#fff"/><path fill="#C4C4C4" d="M436.501 55.275h92.326v7.752h-92.326zM436.501 38.802h92.326v7.752h-92.326zM436.501 71.747h92.326v7.752h-92.326z"/><rect x="336.509" y="28.494" width="92.778" height="61.852" rx="4.14" fill="#FCD056"/><rect x="344.779" y="48.522" width="13.592" height="35.344" rx="2.07" fill="#E9181E"/><rect x="363.101" y="59.125" width="13.592" height="24.741" rx="2.07" fill="#E9181E"/><g filter="url(#d)"><rect x="381.422" y="38.508" width="13.592" height="45.358" rx="2.07" fill="#3DB562"/></g><rect x="402.7" y="52.057" width="13.592" height="31.809" rx="2.07" fill="#E9181E"/><path fill="#C4C4C4" d="M436.501 131.559h92.326v7.752h-92.326zM436.501 115.086h92.326v7.752h-92.326zM436.501 148.032h92.326v7.752h-92.326z"/><path d="M407.197 135.704c0 19.926-15.824 36.08-35.344 36.08-19.52 0-35.344-16.154-35.344-36.08 0-19.927 15.824-36.08 35.344-36.08 19.52 0 35.344 16.153 35.344 36.08Zm-58.159 0c0 12.862 10.215 23.29 22.815 23.29 12.6 0 22.814-10.428 22.814-23.29 0-12.863-10.214-23.29-22.814-23.29s-22.815 10.427-22.815 23.29Z" fill="#3DB562"/><g filter="url(#e)"><path d="M408.667 135.704c0-4.738-.914-9.43-2.69-13.808a36.148 36.148 0 0 0-7.662-11.705 35.306 35.306 0 0 0-11.466-7.821 34.722 34.722 0 0 0-13.526-2.746v14.768c2.742 0 5.457.552 7.989 1.623a20.844 20.844 0 0 1 6.773 4.619 21.346 21.346 0 0 1 4.526 6.914 21.703 21.703 0 0 1 1.589 8.156h14.467Z" fill="#FCD056"/></g><path fill="#C4C4C4" d="M436.5 284.127h92.326v7.752H436.5zM436.5 267.654h92.326v7.752H436.5zM436.5 300.6h92.326v7.752H436.5z"/><circle cx="372.588" cy="288.272" r="36.08" fill="#FCD056"/><g filter="url(#f)"><path d="M408.376 283.685a36.087 36.087 0 0 0-20.747-28.209 36.082 36.082 0 0 0-47.03 16.108 36.077 36.077 0 0 0 .904 35.005 36.08 36.08 0 0 0 12.794 12.783l18.291-31.1 35.788-4.587Z" fill="#3DB562"/></g><path fill="#C4C4C4" d="M436.501 207.843h92.326v7.752h-92.326zM436.501 191.37h92.326v7.752h-92.326zM436.501 224.315h92.326v7.752h-92.326z"/><rect x="336.509" y="181.062" width="92.778" height="61.852" rx="4.14" fill="#FCD056"/><path d="m338.58 237.906 9.333-9.594a.415.415 0 0 1 .297-.126h8.534c.1 0 .197-.036.272-.102l6.766-5.901a.414.414 0 0 1 .457-.058l11.768 5.865a.413.413 0 0 0 .565-.208l3.9-9.163a.413.413 0 0 1 .217-.218l21.293-9.178a.413.413 0 0 1 .558.254l7.481 23.476a.414.414 0 0 0 .781.023l15.533-40.428" stroke="#E9181E" stroke-width="1.656"/><path d="m343.309 239.674 10.775-3.194a.414.414 0 0 0 .24-.188l4.002-6.839a.408.408 0 0 1 .138-.142l9.291-5.789a.41.41 0 0 0 .128-.124l10.464-15.936a.414.414 0 0 1 .346-.187h9.041a.415.415 0 0 0 .315-.145l11.866-13.848a.415.415 0 0 1 .314-.145h12.388a.407.407 0 0 0 .232-.071l13.782-9.354" stroke="#3DB562" stroke-width="1.656"/><g filter="url(#g)"><rect x="56.116" y="46.019" width="237.241" height="146.383" rx="12.619" fill="#fff"/></g><path fill="#C4C4C4" d="M182.101 78.14h92.326v9.69h-92.326zM182.101 92.674h92.326v4.845h-92.326zM182.101 148.875h92.326v7.752h-92.326zM182.101 132.402h92.326v7.752h-92.326zM182.101 165.347h92.326v7.752h-92.326z"/><path d="M111.771 118.3c6.903 0 12.881-2.428 17.765-7.219 4.885-4.791 7.36-10.652 7.36-17.424 0-6.77-2.475-12.631-7.36-17.423-4.886-4.79-10.862-7.218-17.765-7.218-6.904 0-12.88 2.428-17.764 7.218-4.885 4.79-7.362 10.653-7.362 17.423 0 6.772 2.477 12.634 7.362 17.424 4.885 4.79 10.862 7.219 17.764 7.219ZM155.049 148.661c-.139-2.003-.421-4.188-.835-6.496-.419-2.325-.957-4.523-1.602-6.531a32.26 32.26 0 0 0-2.693-6.092c-1.162-2.039-2.527-3.815-4.059-5.277-1.603-1.528-3.564-2.757-5.832-3.654-2.261-.892-4.766-1.344-7.445-1.344-1.053 0-2.07.431-4.036 1.707a504.557 504.557 0 0 1-4.204 2.703c-1.35.858-3.179 1.662-5.439 2.39a21.637 21.637 0 0 1-6.652 1.072 21.66 21.66 0 0 1-6.654-1.072c-2.257-.727-4.087-1.531-5.435-2.389a560.665 560.665 0 0 1-4.208-2.705c-1.963-1.276-2.982-1.706-4.034-1.706-2.68 0-5.185.452-7.444 1.345-2.267.895-4.23 2.124-5.833 3.654-1.531 1.462-2.897 3.237-4.058 5.276a32.3 32.3 0 0 0-2.692 6.092 51.203 51.203 0 0 0-1.602 6.531c-.414 2.305-.696 4.491-.835 6.499a87.907 87.907 0 0 0-.206 6.071c0 5.367 1.71 9.711 5.084 12.916 3.332 3.162 7.74 4.766 13.1 4.766h49.638c5.361 0 9.767-1.604 13.1-4.766 3.374-3.202 5.084-7.548 5.084-12.917 0-2.071-.07-4.115-.208-6.073Z" fill="#F1A616"/><defs><filter id="a" x="7" y="0" width="565.204" height="373.917" filterUnits="userSpaceOnUse" color-interpolation-filters="sRGB"><feFlood flood-opacity="0" result="BackgroundImageFix"/><feColorMatrix in="SourceAlpha" values="0 0 0 0 0 0 0 0 0 0 0 0 0 0 0 0 0 0 127 0" result="hardAlpha"/><feMorphology radius="2" operator="dilate" in="SourceAlpha" result="effect1_dropShadow_341:70"/><feOffset dy="2"/><feGaussianBlur stdDeviation="5"/><feColorMatrix values="0 0 0 0 0 0 0 0 0 0 0 0 0 0 0 0 0 0 0.1 0"/><feBlend in2="BackgroundImageFix" result="effect1_dropShadow_341:70"/><feColorMatrix in="SourceAlpha" values="0 0 0 0 0 0 0 0 0 0 0 0 0 0 0 0 0 0 127 0" result="hardAlpha"/><feOffset dy="-2"/><feGaussianBlur stdDeviation="5"/><feColorMatrix values="0 0 0 0 0 0 0 0 0 0 0 0 0 0 0 0 0 0 0.1 0"/><feBlend in2="effect1_dropShadow_341:70" result="effect2_dropShadow_341:70"/><feBlend in="SourceGraphic" in2="effect2_dropShadow_341:70" result="shape"/></filter><filter id="b" x=".45" y="180.031" width="348.432" height="141.228" filterUnits="userSpaceOnUse" color-interpolation-filters="sRGB"><feFlood flood-opacity="0" result="BackgroundImageFix"/><feColorMatrix in="SourceAlpha" values="0 0 0 0 0 0 0 0 0 0 0 0 0 0 0 0 0 0 127 0" result="hardAlpha"/><feOffset dy="18.556"/><feGaussianBlur stdDeviation="27.833"/><feComposite in2="hardAlpha" operator="out"/><feColorMatrix values="0 0 0 0 0 0 0 0 0 0 0 0 0 0 0 0 0 0 0.18 0"/><feBlend in2="BackgroundImageFix" result="effect1_dropShadow_341:70"/><feBlend in="SourceGraphic" in2="effect1_dropShadow_341:70" result="shape"/></filter><filter id="c" x=".45" y="180.031" width="230.913" height="141.228" filterUnits="userSpaceOnUse" color-interpolation-filters="sRGB"><feFlood flood-opacity="0" result="BackgroundImageFix"/><feColorMatrix in="SourceAlpha" values="0 0 0 0 0 0 0 0 0 0 0 0 0 0 0 0 0 0 127 0" result="hardAlpha"/><feOffset dy="18.556"/><feGaussianBlur stdDeviation="27.833"/><feComposite in2="hardAlpha" operator="out"/><feColorMatrix values="0 0 0 0 0 0 0 0 0 0 0 0 0 0 0 0 0 0 0.18 0"/><feBlend in2="BackgroundImageFix" result="effect1_dropShadow_341:70"/><feBlend in="SourceGraphic" in2="effect1_dropShadow_341:70" result="shape"/></filter><filter id="d" x="377.281" y="36.024" width="21.872" height="53.639" filterUnits="userSpaceOnUse" color-interpolation-filters="sRGB"><feFlood flood-opacity="0" result="BackgroundImageFix"/><feColorMatrix in="SourceAlpha" values="0 0 0 0 0 0 0 0 0 0 0 0 0 0 0 0 0 0 127 0" result="hardAlpha"/><feOffset dy="1.656"/><feGaussianBlur stdDeviation="2.07"/><feComposite in2="hardAlpha" operator="out"/><feColorMatrix values="0 0 0 0 0 0 0 0 0 0 0 0 0 0 0 0 0 0 0.25 0"/><feBlend in2="BackgroundImageFix" result="effect1_dropShadow_341:70"/><feBlend in="SourceGraphic" in2="effect1_dropShadow_341:70" result="shape"/></filter><filter id="e" x="369.183" y="97.139" width="43.624" height="44.361" filterUnits="userSpaceOnUse" color-interpolation-filters="sRGB"><feFlood flood-opacity="0" result="BackgroundImageFix"/><feColorMatrix in="SourceAlpha" values="0 0 0 0 0 0 0 0 0 0 0 0 0 0 0 0 0 0 127 0" result="hardAlpha"/><feOffset dy="1.656"/><feGaussianBlur stdDeviation="2.07"/><feComposite in2="hardAlpha" operator="out"/><feColorMatrix values="0 0 0 0 0 0 0 0 0 0 0 0 0 0 0 0 0 0 0.25 0"/><feBlend in2="BackgroundImageFix" result="effect1_dropShadow_341:70"/><feBlend in="SourceGraphic" in2="effect1_dropShadow_341:70" result="shape"/></filter><filter id="f" x="332.367" y="249.707" width="80.149" height="75.461" filterUnits="userSpaceOnUse" color-interpolation-filters="sRGB"><feFlood flood-opacity="0" result="BackgroundImageFix"/><feColorMatrix in="SourceAlpha" values="0 0 0 0 0 0 0 0 0 0 0 0 0 0 0 0 0 0 127 0" result="hardAlpha"/><feOffset dy="1.656"/><feGaussianBlur stdDeviation="2.07"/><feComposite in2="hardAlpha" operator="out"/><feColorMatrix values="0 0 0 0 0 0 0 0 0 0 0 0 0 0 0 0 0 0 0.25 0"/><feBlend in2="BackgroundImageFix" result="effect1_dropShadow_341:70"/><feBlend in="SourceGraphic" in2="effect1_dropShadow_341:70" result="shape"/></filter><filter id="g" x="40.973" y="30.875" width="267.527" height="179.193" filterUnits="userSpaceOnUse" color-interpolation-filters="sRGB"><feFlood flood-opacity="0" result="BackgroundImageFix"/><feColorMatrix in="SourceAlpha" values="0 0 0 0 0 0 0 0 0 0 0 0 0 0 0 0 0 0 127 0" result="hardAlpha"/><feMorphology radius="2.524" operator="dilate" in="SourceAlpha" result="effect1_dropShadow_341:70"/><feOffset dy="2.524"/><feGaussianBlur stdDeviation="6.31"/><feColorMatrix values="0 0 0 0 0 0 0 0 0 0 0 0 0 0 0 0 0 0 0.1 0"/><feBlend in2="BackgroundImageFix" result="effect1_dropShadow_341:70"/><feColorMatrix in="SourceAlpha" values="0 0 0 0 0 0 0 0 0 0 0 0 0 0 0 0 0 0 127 0" result="hardAlpha"/><feOffset dy="-2.524"/><feGaussianBlur stdDeviation="6.31"/><feColorMatrix values="0 0 0 0 0 0 0 0 0 0 0 0 0 0 0 0 0 0 0.1 0"/><feBlend in2="effect1_dropShadow_341:70" result="effect2_dropShadow_341:70"/><feBlend in="SourceGraphic" in2="effect2_dropShadow_341:70" result="shape"/></filter></defs></svg>