<svg width="70" height="70" fill="none" xmlns="http://www.w3.org/2000/svg"><path d="M60.659 8.203V4.102h-4.102V0H5.238v6.152H7.29V2.051h47.218v57.695H7.288V8.203H5.24v53.594h4.1v4.101h4.102V70h39.015v-2.05H15.492v-2.052H60.66V10.254h2.05v57.695h-4.1V70h6.151V8.203H60.66Zm-2.05 55.645H11.39v-2.051h45.166V6.152h2.051v57.696Z" fill="#3DB562"/><path d="M54.506 67.95h2.05V70h-2.05v-2.05ZM30.898 6.152a5.136 5.136 0 0 0-5.024 4.102H11.391v2.05h14.483a5.136 5.136 0 0 0 5.024 4.102 5.135 5.135 0 0 0 5.024-4.101h14.483v-2.051H35.922a5.136 5.136 0 0 0-5.024-4.102Zm0 8.203a3.08 3.08 0 0 1-3.076-3.076 3.08 3.08 0 0 1 3.076-3.076 3.08 3.08 0 0 1 3.076 3.076 3.08 3.08 0 0 1-3.076 3.076ZM11.39 25.634h39.015v2.051H11.391v-2.05ZM11.39 35.888h39.015v2.051H11.391v-2.05ZM29.371 43.066H49.93v2.05H29.37v-2.05ZM11.39 30.761h39.015v2.051H11.391v-2.05ZM15.492 20.508h30.812v2.05H15.492v-2.05ZM36.024 50.974l-1.45 1.45 3.626 3.625 6.525-6.526-1.45-1.45L38.2 53.15l-2.176-2.175ZM46.304 4.102h2.05v2.05h-2.05v-2.05ZM50.405 4.102h2.051v2.05h-2.05v-2.05Z" fill="#3DB562"/></svg>