<svg width="481" height="632" viewBox="0 0 481 632" fill="none" xmlns="http://www.w3.org/2000/svg">
<path d="M103.094 145.78H120.925V170.96H103.094V205H71.8631V170.96H7.34841L5.94356 151.292L71.5389 47.6577H103.094V145.78ZM37.0662 145.78H71.8631V90.2352L69.8099 93.8013L37.0662 145.78Z" fill="white"/>
<path d="M103.094 145.78H102.581V146.294H103.094V145.78ZM120.925 145.78H121.438V145.267H120.925V145.78ZM120.925 170.96V171.473H121.438V170.96H120.925ZM103.094 170.96V170.447H102.581V170.96H103.094ZM103.094 205V205.513H103.607V205H103.094ZM71.8631 205H71.35V205.513H71.8631V205ZM71.8631 170.96H72.3761V170.447H71.8631V170.96ZM7.34841 170.96L6.83666 170.996L6.8707 171.473H7.34841V170.96ZM5.94356 151.292L5.51006 151.017L5.4198 151.16L5.43182 151.328L5.94356 151.292ZM71.5389 47.6577V47.1446H71.2564L71.1054 47.3833L71.5389 47.6577ZM103.094 47.6577H103.607V47.1446H103.094V47.6577ZM37.0662 145.78L36.6321 145.507L36.1367 146.294H37.0662V145.78ZM71.8631 145.78V146.294H72.3761V145.78H71.8631ZM71.8631 90.2352H72.3761V88.3159L71.4185 89.9792L71.8631 90.2352ZM69.8099 93.8013L70.244 94.0748L70.2494 94.0662L70.2545 94.0573L69.8099 93.8013ZM103.094 146.294H120.925V145.267H103.094V146.294ZM120.411 145.78V170.96H121.438V145.78H120.411ZM120.925 170.447H103.094V171.473H120.925V170.447ZM102.581 170.96V205H103.607V170.96H102.581ZM103.094 204.487H71.8631V205.513H103.094V204.487ZM72.3761 205V170.96H71.35V205H72.3761ZM71.8631 170.447H7.34841V171.473H71.8631V170.447ZM7.86015 170.923L6.45531 151.255L5.43182 151.328L6.83666 170.996L7.86015 170.923ZM6.37707 151.566L71.9724 47.932L71.1054 47.3833L5.51006 151.017L6.37707 151.566ZM71.5389 48.1707H103.094V47.1446H71.5389V48.1707ZM102.581 47.6577V145.78H103.607V47.6577H102.581ZM37.0662 146.294H71.8631V145.267H37.0662V146.294ZM72.3761 145.78V90.2352H71.35V145.78H72.3761ZM71.4185 89.9792L69.3652 93.5453L70.2545 94.0573L72.3077 90.4912L71.4185 89.9792ZM69.3758 93.5279L36.6321 145.507L37.5003 146.054L70.244 94.0748L69.3758 93.5279Z" fill="white"/>
<path d="M293.807 284.111C293.807 305.869 289.304 322.511 280.299 334.037C271.293 345.564 258.11 351.328 240.747 351.328C223.601 351.328 210.489 345.672 201.412 334.362C192.334 323.051 187.687 306.841 187.471 285.732V256.771C187.471 234.798 192.01 218.12 201.087 206.737C210.237 195.354 223.385 189.663 240.531 189.663C257.677 189.663 270.789 195.318 279.867 206.629C288.944 217.868 293.591 234.041 293.807 255.15V284.111ZM262.576 252.34C262.576 239.301 260.775 229.827 257.173 223.919C253.643 217.94 248.096 214.95 240.531 214.95C233.183 214.95 227.743 217.796 224.213 223.487C220.755 229.107 218.918 237.932 218.702 249.963V288.218C218.702 301.042 220.431 310.587 223.889 316.855C227.419 323.051 233.039 326.149 240.747 326.149C248.384 326.149 253.895 323.159 257.281 317.179C260.667 311.2 262.432 302.05 262.576 289.731V252.34Z" fill="white"/>
<path d="M280.299 334.037L280.703 334.353L280.299 334.037ZM187.471 285.732H186.958L186.958 285.738L187.471 285.732ZM201.087 206.737L200.688 206.416L200.686 206.417L201.087 206.737ZM279.867 206.629L279.467 206.95L279.468 206.951L279.867 206.629ZM293.807 255.15H294.32L294.32 255.145L293.807 255.15ZM257.173 223.919L256.731 224.18L256.735 224.187L257.173 223.919ZM224.213 223.487L223.777 223.217L223.776 223.218L224.213 223.487ZM218.702 249.963L218.189 249.954V249.963H218.702ZM223.889 316.855L223.44 317.103L223.443 317.109L223.889 316.855ZM262.576 289.731L263.089 289.737V289.731H262.576ZM293.294 284.111C293.294 305.808 288.802 322.319 279.895 333.722L280.703 334.353C289.806 322.702 294.32 305.93 294.32 284.111H293.294ZM279.895 333.722C271.005 345.1 257.985 350.815 240.747 350.815V351.841C258.234 351.841 271.582 346.029 280.703 334.353L279.895 333.722ZM240.747 350.815C223.725 350.815 210.774 345.207 201.812 334.041L201.011 334.683C210.205 346.138 223.477 351.841 240.747 351.841V350.815ZM201.812 334.041C192.833 322.852 188.2 306.772 187.984 285.727L186.958 285.738C187.175 306.911 191.836 323.249 201.011 334.683L201.812 334.041ZM187.984 285.732V256.771H186.958V285.732H187.984ZM187.984 256.771C187.984 234.858 192.512 218.313 201.489 207.057L200.686 206.417C191.508 217.927 186.958 234.738 186.958 256.771H187.984ZM201.487 207.059C210.522 195.819 223.51 190.176 240.531 190.176V189.15C223.26 189.15 209.952 194.89 200.688 206.416L201.487 207.059ZM240.531 190.176C257.553 190.176 270.505 195.783 279.467 206.95L280.267 206.308C271.074 194.853 257.801 189.15 240.531 189.15V190.176ZM279.468 206.951C288.446 218.067 293.078 234.111 293.294 255.155L294.32 255.145C294.103 233.972 289.443 217.668 280.266 206.307L279.468 206.951ZM293.294 255.15V284.111H294.32V255.15H293.294ZM263.089 252.34C263.089 239.277 261.289 229.684 257.611 223.652L256.735 224.187C260.261 229.97 262.063 239.325 262.063 252.34H263.089ZM257.615 223.659C253.983 217.506 248.257 214.437 240.531 214.437V215.463C247.934 215.463 253.303 218.373 256.731 224.18L257.615 223.659ZM240.531 214.437C233.026 214.437 227.411 217.358 223.777 223.217L224.649 223.758C228.075 218.234 233.34 215.463 240.531 215.463V214.437ZM223.776 223.218C220.245 228.957 218.406 237.895 218.189 249.954L219.215 249.972C219.431 237.968 221.265 229.256 224.65 223.756L223.776 223.218ZM218.189 249.963V288.218H219.215V249.963H218.189ZM218.189 288.218C218.189 301.07 219.919 310.721 223.44 317.103L224.338 316.607C220.943 310.454 219.215 301.014 219.215 288.218H218.189ZM223.443 317.109C227.073 323.48 232.872 326.662 240.747 326.662V325.636C233.205 325.636 227.765 322.621 224.335 316.601L223.443 317.109ZM240.747 326.662C248.544 326.662 254.239 323.593 257.728 317.432L256.835 316.927C253.551 322.725 248.224 325.636 240.747 325.636V326.662ZM257.728 317.432C261.178 311.339 262.945 302.084 263.089 289.737L262.063 289.725C261.919 302.016 260.156 311.061 256.835 316.927L257.728 317.432ZM263.089 289.731V252.34H262.063V289.731H263.089Z" fill="white"/>
<path d="M457.506 145.78H475.337V170.96H457.506V205H426.275V170.96H361.761L360.356 151.292L425.951 47.6577H457.506V145.78ZM391.478 145.78H426.275V90.2352L424.222 93.8013L391.478 145.78Z" fill="white"/>
<path d="M457.506 145.78H456.993V146.294H457.506V145.78ZM475.337 145.78H475.85V145.267H475.337V145.78ZM475.337 170.96V171.473H475.85V170.96H475.337ZM457.506 170.96V170.447H456.993V170.96H457.506ZM457.506 205V205.513H458.019V205H457.506ZM426.275 205H425.762V205.513H426.275V205ZM426.275 170.96H426.788V170.447H426.275V170.96ZM361.761 170.96L361.249 170.996L361.283 171.473H361.761V170.96ZM360.356 151.292L359.922 151.017L359.832 151.16L359.844 151.328L360.356 151.292ZM425.951 47.6577V47.1446H425.669L425.517 47.3833L425.951 47.6577ZM457.506 47.6577H458.019V47.1446H457.506V47.6577ZM391.478 145.78L391.044 145.507L390.549 146.294H391.478V145.78ZM426.275 145.78V146.294H426.788V145.78H426.275ZM426.275 90.2352H426.788V88.3159L425.831 89.9792L426.275 90.2352ZM424.222 93.8013L424.656 94.0748L424.661 94.0662L424.667 94.0573L424.222 93.8013ZM457.506 146.294H475.337V145.267H457.506V146.294ZM474.824 145.78V170.96H475.85V145.78H474.824ZM475.337 170.447H457.506V171.473H475.337V170.447ZM456.993 170.96V205H458.019V170.96H456.993ZM457.506 204.487H426.275V205.513H457.506V204.487ZM426.788 205V170.96H425.762V205H426.788ZM426.275 170.447H361.761V171.473H426.275V170.447ZM362.272 170.923L360.867 151.255L359.844 151.328L361.249 170.996L362.272 170.923ZM360.789 151.566L426.385 47.932L425.517 47.3833L359.922 151.017L360.789 151.566ZM425.951 48.1707H457.506V47.1446H425.951V48.1707ZM456.993 47.6577V145.78H458.019V47.6577H456.993ZM391.478 146.294H426.275V145.267H391.478V146.294ZM426.788 145.78V90.2352H425.762V145.78H426.788ZM425.831 89.9792L423.777 93.5453L424.667 94.0573L426.72 90.4912L425.831 89.9792ZM423.788 93.5279L391.044 145.507L391.912 146.054L424.656 94.0748L423.788 93.5279Z" fill="white"/>
<path d="M353.974 517.761C353.974 487.462 341.994 458.405 320.669 436.981C299.344 415.557 270.421 403.521 240.263 403.521C210.104 403.521 181.181 415.557 159.856 436.981C138.531 458.405 126.551 487.462 126.551 517.761H142.744C142.744 491.777 153.018 466.858 171.307 448.485C189.595 430.112 214.399 419.79 240.263 419.79C266.126 419.79 290.93 430.112 309.219 448.485C327.507 466.858 337.781 491.777 337.781 517.761H353.974Z" fill="white"/>
</svg>
