<svg width="20" height="13" viewBox="0 0 20 13" fill="none" xmlns="http://www.w3.org/2000/svg">
<path d="M8.22817 5.62405C8.64321 5.41626 8.95698 5.18483 9.172 4.93473C9.55453 4.48431 9.7433 3.88706 9.7433 3.14673C9.7433 2.4263 9.55453 1.8104 9.177 1.29403C8.54695 0.45291 7.48061 0.0223967 5.97299 0H0V12.1353H5.5692C6.19676 12.1353 6.77805 12.0817 7.3156 11.9723C7.85314 11.8615 8.31818 11.6587 8.71196 11.3626C9.06199 11.105 9.35452 10.7852 9.58703 10.4082C9.95456 9.83835 10.1383 9.19258 10.1383 8.4734C10.1383 7.77662 9.97707 7.1831 9.65704 6.69535C9.33326 6.20761 8.85822 5.8505 8.22817 5.62405ZM2.46395 2.10777H5.15417C5.74547 2.10777 6.23301 2.17123 6.61554 2.2969C7.05808 2.47981 7.27935 2.85184 7.27935 3.41922C7.27935 3.92812 7.11058 4.28398 6.7768 4.48431C6.44053 4.68463 6.00424 4.78542 5.4692 4.78542H2.46395V2.10777ZM6.71805 9.81596C6.42052 9.95905 6.00174 10.03 5.46545 10.03H2.46395V6.79365H5.5067C6.03674 6.79738 6.44928 6.86706 6.7443 6.99771C7.26934 7.23412 7.53062 7.66712 7.53062 8.30045C7.53062 9.047 7.26059 9.54968 6.71805 9.81596Z" fill="white"/>
<path d="M18.0779 0.566406H12.7812V2.07715H18.0779V0.566406Z" fill="white"/>
<path d="M19.9181 6.52701C19.8081 5.82405 19.5655 5.20568 19.188 4.67192C18.7742 4.06725 18.2492 3.62432 17.6104 3.34437C16.9741 3.06319 16.2578 2.92259 15.4602 2.92384C14.1214 2.92384 13.0338 3.34064 12.1924 4.16803C11.3536 4.9979 10.9336 6.19108 10.9336 7.74632C10.9336 9.40482 11.3974 10.603 12.33 11.3383C13.2588 12.0749 14.3314 12.4419 15.549 12.4419C17.0228 12.4419 18.1692 12.0052 18.988 11.1342C19.5118 10.5843 19.8081 10.0431 19.8731 9.51183H17.4329C17.2916 9.77435 17.1278 9.97964 16.9403 10.1289C16.6003 10.4027 16.1578 10.5395 15.6152 10.5395C15.0989 10.5395 14.6614 10.4263 14.2964 10.2011C13.6938 9.84029 13.3788 9.20824 13.3388 8.30869H19.9981C20.0081 7.53356 19.9831 6.9376 19.9181 6.52701ZM13.3988 6.75968C13.4863 6.17615 13.6988 5.71331 14.0363 5.37116C14.3739 5.03025 14.8514 4.85855 15.4627 4.85731C16.0265 4.85731 16.4978 5.01781 16.8816 5.34005C17.2604 5.66479 17.4741 6.13634 17.5179 6.75968H13.3988Z" fill="white"/>
</svg>
