<svg width="25" height="25" viewBox="0 0 25 25" fill="none" xmlns="http://www.w3.org/2000/svg">
<path d="M15.3685 16.6352L17.0472 14.9448C17.2733 14.7199 17.5594 14.566 17.8707 14.5017C18.182 14.4374 18.5051 14.4655 18.8009 14.5826L20.8468 15.4051C21.1457 15.5273 21.4019 15.7358 21.5833 16.0044C21.7647 16.273 21.863 16.5896 21.866 16.9144V20.6876C21.8643 20.9085 21.8181 21.1268 21.7304 21.3293C21.6427 21.5319 21.5151 21.7144 21.3555 21.866C21.1959 22.0176 21.0074 22.1351 20.8015 22.2114C20.5956 22.2877 20.3765 22.3213 20.1573 22.31C5.82091 21.412 2.92815 9.18691 2.38107 4.50816C2.35568 4.2784 2.37888 4.04583 2.44916 3.82575C2.51943 3.60567 2.63519 3.40306 2.78881 3.23127C2.94243 3.05947 3.13043 2.92237 3.34045 2.82899C3.55047 2.73561 3.77774 2.68807 4.00732 2.68948H7.62701C7.95002 2.69045 8.26536 2.78869 8.53246 2.97159C8.79957 3.15448 9.00622 3.41366 9.12585 3.71579L9.94272 5.77595C10.0628 6.07257 10.0935 6.39826 10.0308 6.71231C9.96817 7.02637 9.81502 7.31488 9.5905 7.5418L7.91179 9.23219C7.91179 9.23219 8.87855 15.8202 15.3685 16.6352Z" fill="white"/>
</svg>
