<svg width="95" height="65" viewBox="0 0 95 65" fill="none" xmlns="http://www.w3.org/2000/svg">
<path d="M39.7577 11.7271L36.1894 26.774H33.0296L31.6968 20.1964L29.8697 26.774H26.8173L23.3135 11.7271H26.6668L28.4295 22.7973L30.2136 15.8113H33.137L34.7062 22.7973L36.5549 11.7271H39.7577Z" fill="white"/>
<path d="M48.7012 54.0577V39.0107H53.4303C55.1069 39.0107 56.3608 39.3475 57.192 40.021C58.0232 40.6802 58.4388 41.626 58.4388 42.8584C58.4388 43.6896 58.2023 44.3775 57.7294 44.922C57.2708 45.4666 56.6403 45.7962 55.8378 45.9108C56.8552 46.0828 57.6434 46.4912 58.2023 47.1361C58.7612 47.781 59.0406 48.5835 59.0406 49.5436C59.0406 50.905 58.5319 52.0013 57.5144 52.8325C56.497 53.6493 55.0854 54.0577 53.2798 54.0577H48.7012ZM51.6676 51.5857H53.7957C54.4835 51.5857 55.0353 51.4066 55.4509 51.0483C55.8664 50.6757 56.0742 50.1813 56.0742 49.5651C56.0742 48.9346 55.8378 48.39 55.3649 47.9314C54.9063 47.4585 54.2328 47.2221 53.3443 47.2221H51.6676V51.5857ZM53.5377 41.4827H51.6676V44.7716H53.3228C53.8817 44.7716 54.3761 44.5996 54.806 44.2557C55.2502 43.9117 55.4723 43.4675 55.4723 42.9229C55.4723 42.0344 54.8275 41.5544 53.5377 41.4827Z" fill="white"/>
<path d="M46.9169 40.1373H37.9531V25.0903H46.9169V27.5623H41.07V30.7222H46.3795V33.2372H41.07V37.6653H46.9169V40.1373Z" fill="white"/>
<path d="M12.224 33.7869C12.224 36.9109 10.9987 38.4729 8.54824 38.4729C7.64542 38.4729 6.78559 38.3941 5.96875 38.2365V35.8075C6.04041 35.8075 6.27686 35.8433 6.67811 35.9149C7.0937 35.9723 7.49495 36.0009 7.88187 36.0009C8.69871 36.0009 9.10713 35.1411 9.10713 33.4214V25.6185H6.63512V23.2754H12.224V33.7869ZM15.2715 27.5746H18.109V34.1523C18.109 34.7398 18.2236 35.2199 18.4529 35.5925C18.6822 35.9508 19.0619 36.1299 19.5922 36.1299C20.1224 36.1299 20.7816 35.8003 21.5698 35.1411V27.5746H24.3857V38.3225H22.0212L21.5698 37.2907C20.9536 37.7492 20.4162 38.0574 19.9576 38.215C19.5133 38.3726 18.9903 38.4514 18.3884 38.4514C17.4283 38.4514 16.6687 38.1362 16.1099 37.5056C15.551 36.8751 15.2715 35.9364 15.2715 34.6897V27.5746ZM36.1046 27.5746L32.6868 38.3225H29.5484L26.1521 27.5746H29.054L31.1391 35.528L33.2457 27.5746H36.1046ZM57.7259 38.3225H54.8885V31.8952C54.8885 31.3077 54.7739 30.8348 54.5446 30.4765C54.3153 30.1039 53.9355 29.9176 53.4053 29.9176C52.8751 29.9176 52.2159 30.2472 51.4277 30.9064V38.3225H48.6117V27.5746H50.9763L51.4277 28.5419C52.0439 28.0833 52.5741 27.7752 53.0184 27.6176C53.4769 27.4456 54.0072 27.3596 54.6091 27.3596C55.5692 27.3596 56.3287 27.6821 56.8876 28.3269C57.4465 28.9575 57.7259 29.8961 57.7259 31.1429V38.3225ZM61.0994 36.0009V29.9391H60.0031V27.5746H61.1209V24.5007H63.8939V27.5746H66.1509V29.9391H63.8724V34.6252C63.8724 35.5853 64.1662 36.0654 64.7537 36.0654C65.0833 36.0654 65.4344 36.0224 65.807 35.9364L66.2584 38.172C65.5992 38.3583 64.897 38.4514 64.1518 38.4514C63.421 38.4514 62.7259 38.2651 62.0667 37.8926C61.4219 37.5056 61.0994 36.8751 61.0994 36.0009ZM68.4231 27.5746H71.2605V34.1523C71.2605 34.7398 71.3752 35.2199 71.6045 35.5925C71.8337 35.9508 72.2135 36.1299 72.7437 36.1299C73.274 36.1299 73.9332 35.8003 74.7213 35.1411V27.5746H77.5373V38.3225H75.1728L74.7213 37.2907C74.1051 37.7492 73.5677 38.0574 73.1092 38.215C72.6649 38.3726 72.1419 38.4514 71.54 38.4514C70.5798 38.4514 69.8203 38.1362 69.2614 37.5056C68.7025 36.8751 68.4231 35.9364 68.4231 34.6897V27.5746ZM89.1702 38.3225H87.0636L86.6337 37.0972C85.4299 38 84.3336 38.4514 83.3448 38.4514C82.3704 38.4514 81.5607 37.9929 80.9158 37.0757C80.2853 36.1442 79.97 34.7757 79.97 32.97C79.97 31.1501 80.3283 29.76 81.0448 28.7999C81.7756 27.8397 82.7286 27.3596 83.9037 27.3596C84.6776 27.3596 85.5087 27.7179 86.3972 28.4344V23.2754H89.1702V38.3225ZM86.3757 35.0121V30.7345C85.6162 30.1039 84.9785 29.7887 84.4626 29.7887C83.9467 29.7887 83.5311 30.0538 83.2159 30.584C82.9149 31.1142 82.7644 31.9024 82.7644 32.9485C82.7644 34.9548 83.309 35.9579 84.3981 35.9579C84.957 35.9579 85.6162 35.6427 86.3757 35.0121Z" fill="#FFFF00"/>
<path d="M94.2684 32.5C94.2684 41.4399 89.0087 49.5425 80.4866 55.4136C71.9649 61.2843 60.1878 64.9181 47.1753 64.9181C34.1627 64.9181 22.3856 61.2843 13.8639 55.4136C5.3418 49.5425 0.0820312 41.4399 0.0820312 32.5C0.0820312 23.5601 5.3418 15.4577 13.8639 9.58659C22.3856 3.71581 34.1627 0.0820312 47.1753 0.0820312C60.1878 0.0820312 71.9649 3.71581 80.4866 9.58659C89.0087 15.4577 94.2684 23.5601 94.2684 32.5Z" stroke="#B0652E" stroke-width="0.163961"/>
</svg>
