<svg width="50" height="50" viewBox="0 0 58 58" fill="none" xmlns="http://www.w3.org/2000/svg">
<path d="M26.583 26.583V16.9163H31.4163V26.583H41.083V31.4163H31.4163V41.083H26.583V31.4163H16.9163V26.583H26.583ZM28.9997 53.1663C15.6524 53.1663 4.83301 42.3469 4.83301 28.9997C4.83301 15.6524 15.6524 4.83301 28.9997 4.83301C42.3469 4.83301 53.1663 15.6524 53.1663 28.9997C53.1663 42.3469 42.3469 53.1663 28.9997 53.1663ZM28.9997 48.333C34.1272 48.333 39.0447 46.2961 42.6704 42.6704C46.2961 39.0447 48.333 34.1272 48.333 28.9997C48.333 23.8722 46.2961 18.9546 42.6704 15.3289C39.0447 11.7032 34.1272 9.66634 28.9997 9.66634C23.8722 9.66634 18.9546 11.7032 15.3289 15.3289C11.7032 18.9546 9.66634 23.8722 9.66634 28.9997C9.66634 34.1272 11.7032 39.0447 15.3289 42.6704C18.9546 46.2961 23.8722 48.333 28.9997 48.333Z" fill="#ffff00"/>
</svg>
