<svg width="85" height="85" fill="none" xmlns="http://www.w3.org/2000/svg"><g clip-path="url(#a)" fill="#3DB562"><path d="M11.942 37.374c-.52.163-.874.644-.874 1.188v7.875c0 .545.354 1.026.874 1.189l7.523 2.35a24.122 24.122 0 0 0 1.46 3.525l-3.657 6.982a1.245 1.245 0 0 0 .222 1.458l5.569 5.569c.384.385.975.475 1.458.222l6.982-3.657a24.13 24.13 0 0 0 3.524 1.46l2.351 7.523c.163.52.644.873 1.188.873h7.875c.545 0 1.026-.353 1.189-.873l2.35-7.524a24.121 24.121 0 0 0 3.525-1.46l6.982 3.658a1.245 1.245 0 0 0 1.458-.222l5.569-5.569c.385-.385.475-.975.222-1.458l-3.657-6.982a24.121 24.121 0 0 0 1.46-3.524l7.523-2.351c.52-.163.873-.644.873-1.189v-7.874c0-.545-.353-1.026-.873-1.189l-7.524-2.351a24.13 24.13 0 0 0-1.46-3.524l3.658-6.982a1.245 1.245 0 0 0-.222-1.459L61.94 17.49a1.245 1.245 0 0 0-1.458-.222l-6.982 3.657a24.122 24.122 0 0 0-3.524-1.46l-2.351-7.523a1.245 1.245 0 0 0-1.189-.874h-7.874c-.545 0-1.026.354-1.189.874l-2.351 7.523c-1.211.393-2.392.882-3.524 1.46l-6.982-3.657a1.245 1.245 0 0 0-1.459.222L17.49 23.06a1.245 1.245 0 0 0-.222 1.458l3.657 6.982a24.131 24.131 0 0 0-1.46 3.524l-7.523 2.351Zm9.714-1.007a21.638 21.638 0 0 1 1.769-4.268c.2-.365.203-.806.01-1.175l-3.537-6.752 4.274-4.274 6.752 3.537c.368.193.81.19 1.175-.01a21.626 21.626 0 0 1 4.268-1.769c.4-.117.713-.426.838-.823l2.273-7.274h6.044l2.273 7.274c.124.397.438.706.837.823 1.481.435 2.917 1.03 4.269 1.769.365.2.806.203 1.174.01l6.752-3.537 4.274 4.274-3.537 6.752c-.193.369-.189.81.01 1.175a21.627 21.627 0 0 1 1.77 4.268c.116.4.425.713.822.838l7.275 2.273v6.044l-7.275 2.273a1.245 1.245 0 0 0-.823.837 21.632 21.632 0 0 1-1.768 4.269c-.2.365-.204.806-.01 1.174l3.536 6.752-4.274 4.274-6.752-3.537a1.245 1.245 0 0 0-1.174.01 21.626 21.626 0 0 1-4.269 1.77c-.399.116-.713.425-.837.822l-2.273 7.275h-6.044l-2.273-7.275a1.245 1.245 0 0 0-.838-.823 21.633 21.633 0 0 1-4.268-1.768 1.244 1.244 0 0 0-1.175-.01L24.172 65.1l-4.274-4.274 3.537-6.752c.193-.368.19-.809-.01-1.174a21.626 21.626 0 0 1-1.769-4.269 1.246 1.246 0 0 0-.823-.837l-7.274-2.273v-6.044l7.274-2.273c.397-.125.706-.439.823-.838Z"/><path d="M35.681 46.961a1.245 1.245 0 0 0 .62-1.648 6.813 6.813 0 0 1 6.2-9.617 6.813 6.813 0 0 1 6.803 6.805 6.813 6.813 0 0 1-9.576 6.217 1.245 1.245 0 1 0-1.015 2.274 9.232 9.232 0 0 0 3.786.803c5.126 0 9.295-4.17 9.295-9.295s-4.17-9.295-9.295-9.295-9.295 4.17-9.295 9.295c0 1.339.279 2.631.829 3.842a1.245 1.245 0 0 0 1.648.62Z"/><path d="M42.5 58.839c9.01 0 16.339-7.33 16.339-16.338 0-9.01-7.33-16.339-16.338-16.339-9.01 0-16.339 7.33-16.339 16.339 0 9.009 7.33 16.338 16.339 16.338Zm0-30.187c7.636 0 13.849 6.212 13.849 13.849 0 7.636-6.213 13.848-13.848 13.848-7.636 0-13.849-6.213-13.849-13.848 0-7.636 6.213-13.849 13.849-13.849Z"/><path d="M77.553 18.46a1.245 1.245 0 0 0-2.053 1.41 39.835 39.835 0 0 1 6.987 21.295c0 .009.001.033-.024.059a.098.098 0 0 1-.073.03h-2.684c-.053 0-.094-.043-.096-.103-.334-9.398-4.189-18.243-10.853-24.907a36.946 36.946 0 0 0-12.047-8.05 36.929 36.929 0 0 0-14.204-2.827H42.5c-9.92 0-19.245 3.862-26.258 10.875-.108.108-.192.23-.252.362l-5.72 5.718a.41.41 0 0 1-.47.093.41.41 0 0 1-.266-.398v-9.68a.41.41 0 0 1 .266-.399.41.41 0 0 1 .47.094l2.177 2.176a1.245 1.245 0 0 0 1.76 0C21.765 6.652 31.813 2.49 42.5 2.49c5.707 0 11.218 1.176 16.38 3.496a39.873 39.873 0 0 1 13.113 9.478 1.246 1.246 0 0 0 1.835-1.683A42.356 42.356 0 0 0 59.901 3.715C54.415 1.25 48.56 0 42.5 0 31.563 0 21.257 4.102 13.34 11.58l-1.308-1.31a2.913 2.913 0 0 0-3.185-.632 2.913 2.913 0 0 0-1.803 2.699v9.68c0 1.186.708 2.245 1.803 2.7a2.914 2.914 0 0 0 3.185-.634l6.026-6.025a1.25 1.25 0 0 0 .248-.354c6.507-6.353 15.081-9.846 24.194-9.846h.006c4.57 0 9.028.887 13.251 2.636a34.467 34.467 0 0 1 11.24 7.51c6.217 6.218 9.813 14.47 10.124 23.234a2.58 2.58 0 0 0 2.585 2.507h2.684c.698 0 1.377-.288 1.862-.79.49-.505.747-1.17.724-1.872a42.321 42.321 0 0 0-7.423-22.623ZM76.153 60.284a2.914 2.914 0 0 0-3.185.633l-6.026 6.025a1.251 1.251 0 0 0-.248.354c-6.507 6.353-15.082 9.846-24.194 9.846h-.007c-4.569 0-9.027-.887-13.25-2.636a34.467 34.467 0 0 1-11.24-7.51c-6.217-6.218-9.813-14.47-10.125-23.234a2.58 2.58 0 0 0-2.584-2.507H2.61c-.699 0-1.378.288-1.863.79a2.551 2.551 0 0 0-.723 1.872c.3 9.184 3.484 17.84 9.205 25.03a1.245 1.245 0 0 0 1.949-1.551c-5.386-6.768-8.382-14.915-8.665-23.56 0-.01-.001-.034.024-.06.02-.02.044-.03.073-.03h2.684c.053 0 .094.043.096.103.334 9.398 4.188 18.243 10.853 24.907a36.946 36.946 0 0 0 12.047 8.05 36.926 36.926 0 0 0 14.203 2.827h.007c9.92 0 19.245-3.862 26.258-10.876.108-.107.191-.23.252-.36l5.72-5.719a.41.41 0 0 1 .47-.093.41.41 0 0 1 .266.398v9.68a.41.41 0 0 1-.266.399.41.41 0 0 1-.47-.094l-2.177-2.176a1.245 1.245 0 0 0-1.76 0C63.234 78.348 53.187 82.51 42.5 82.51a39.841 39.841 0 0 1-27.516-10.965 1.245 1.245 0 0 0-1.713 1.808C21.197 80.863 31.577 85 42.5 85c10.937 0 21.243-4.102 29.16-11.58l1.308 1.31a2.913 2.913 0 0 0 3.184.632 2.913 2.913 0 0 0 1.804-2.699v-9.68a2.913 2.913 0 0 0-1.803-2.7Z"/></g><defs><clipPath id="a"><path fill="#fff" d="M0 0h85v85H0z"/></clipPath></defs></svg>