<svg width="85" height="85" fill="none" xmlns="http://www.w3.org/2000/svg"><path d="M76.635 62.659a16.42 16.42 0 0 0-8.564-5.957l-8.55-2.666h-.002l-6.116-1.907a2.56 2.56 0 0 0-1.646.04 2.067 2.067 0 0 1-.693-1.539v-.382l9.444-2.456a7.311 7.311 0 0 0 5.47-7.074V36.05a3.601 3.601 0 0 0 2.276-3.343v-6.085c0-1.526-.936-2.82-2.276-3.342v-1.219c0-.939-.06-1.884-.177-2.81a1.246 1.246 0 0 0-2.473.314c.105.823.158 1.662.158 2.496V24.423a13.61 13.61 0 0 1-2.448-.842l-.13-.061c-1.76-.827-3.72-2.236-4.992-4.625a11.191 11.191 0 0 1-.3-.613l-.092-.208a11.082 11.082 0 0 1-.186-.465 1.246 1.246 0 0 0-1.129-.811l-.055.001c-.03 0-.06 0-.09.003a1.245 1.245 0 0 0-.603.22c-.024.015-.048.03-.07.049a5.389 5.389 0 0 1-.05.039l-.009.007-.037.028-.03.023a4.61 4.61 0 0 0-.096.074l-.03.023c-.029.022-.06.044-.092.07l-.021.015c-2.306 1.73-15.138 10.831-27.452 9.094l-.065-.01a21.205 21.205 0 0 1-1.274-.224l-.165-.034a19.83 19.83 0 0 1-.589-.137l-.238-.062a20.608 20.608 0 0 1-1.048-.305 19.582 19.582 0 0 1-1.522-.557l-.049-.02v-3.033c0-10.79 8.779-19.57 19.57-19.57h3.722a19.563 19.563 0 0 1 17.98 11.832 1.246 1.246 0 1 0 2.29-.986A22.055 22.055 0 0 0 43.916 0h-3.722C28.029 0 18.132 9.897 18.132 22.062v1.729a3.6 3.6 0 0 0-1.387 2.832v6.084c0 1.15.544 2.175 1.387 2.834v5.128a7.298 7.298 0 0 0 5.54 7.092l10.264 2.56v.31c0 .594-.26 1.153-.694 1.539a2.565 2.565 0 0 0-1.645-.041l-6.116 1.906-.002.001-8.55 2.666A16.497 16.497 0 0 0 5.99 67.12a1.246 1.246 0 1 0 2.354.821 14.012 14.012 0 0 1 9.3-8.852l.018-.006 7.787-2.428 6.508 7.429a4.87 4.87 0 0 0 5.25 1.404l5.293-1.803 4.759 1.622a5.71 5.71 0 0 0 6.155-1.647l6.137-7.005 7.787 2.428.019.006a13.947 13.947 0 0 1 7.282 5.062 13.946 13.946 0 0 1 2.799 8.414v9.778c0 .09-.073.163-.163.163h-6.732V71.115a1.246 1.246 0 0 0-2.493 0v11.392h-51.1V71.115a1.246 1.246 0 0 0-2.493 0v11.392H7.725a.163.163 0 0 1-.163-.163V73.37a1.246 1.246 0 1 0-2.493 0v8.975A2.659 2.659 0 0 0 7.725 85h69.55a2.659 2.659 0 0 0 2.655-2.656v-9.778c0-3.599-1.14-7.025-3.295-9.907ZM59.88 45.379l-5.985 1.557c.076-.056.15-.114.226-.171l.093-.07c.213-.161.423-.326.629-.495l.08-.066c.22-.183.436-.37.647-.561l.03-.028c.338-.307.665-.626.98-.956l.07-.074c.156-.165.31-.332.46-.502l1.406-.24a6.491 6.491 0 0 0 4.968-4.059v1.004a4.817 4.817 0 0 1-3.604 4.662Zm1.927-11.616c.056-.41.099-.825.128-1.243l.008-.127c.01-.163.02-.327.025-.491l.006-.159c.007-.202.01-.405.01-.61v-4.528c1.455.436 2.513.533 2.645.544h.005a1.245 1.245 0 0 0 1.037-.425l.03-.037c.017-.023.036-.045.052-.07l.008-.009v6.099c0 .59-.467 1.073-1.05 1.1h-.021l-.061.004h-2.828l.006-.048Zm-1.977 6.273a19.532 19.532 0 0 0 .6-1.274l.108-.263c.063-.153.123-.306.182-.46.027-.072.056-.143.082-.215a19.166 19.166 0 0 0 .279-.819c.065-.205.127-.412.185-.62l.024-.081h.142v1.055c0 1.49-.812 2.808-2.05 3.5.032-.055.061-.111.092-.166.072-.127.142-.255.211-.383l.145-.274Zm-39.942-6.323-.003-.002a1.104 1.104 0 0 1-.648-1.003v-5.496l.11.048a16.562 16.562 0 0 0 .546.229l.163.066c.168.066.337.13.507.193l.02.008c.79.288 1.602.534 2.43.735v2.643c0 .204.004.407.01.61l.006.158c.006.164.015.328.025.492l.008.126c.03.418.073.833.129 1.243l.005.048h-2.856c-.155 0-.307-.033-.452-.098Zm4.387 11.63a4.81 4.81 0 0 1-3.652-4.674v-4.366h3.085l.023.08a18.922 18.922 0 0 0 .474 1.464c.027.074.056.147.084.221a18.941 18.941 0 0 0 .528 1.249l.115.247a18.722 18.722 0 0 0 .407.795 19.045 19.045 0 0 0 1.602 2.494c.132.175.267.346.404.515a19.456 19.456 0 0 0 .418.502l.068.078c.176.201.356.399.54.593l.093.097c.18.187.364.37.552.55l.09.086c.195.186.394.367.598.544l.071.063c.346.299.703.586 1.07.861l.019.014c.157.117.314.236.476.349l-7.065-1.762Zm2.27-8.355-.014-.037a17.085 17.085 0 0 1-.13-.366l-.007-.024c-.124-.367-.235-.74-.335-1.118l-.02-.08c-.024-.09-.046-.181-.068-.273l-.045-.193a17.513 17.513 0 0 1-.252-1.37l-.02-.142a17.375 17.375 0 0 1-.039-.324l-.014-.119a17.965 17.965 0 0 1-.032-.343l-.01-.106c-.009-.117-.017-.235-.023-.352l-.007-.1-.015-.36c0-.032-.002-.063-.003-.095a17.07 17.07 0 0 1-.006-.453v-2.181c1.853.238 3.795.265 5.806.085l.197-.02a28.9 28.9 0 0 0 .926-.101l.123-.016c3.384-.435 6.943-1.439 10.62-3.017a57.765 57.765 0 0 0 10.485-5.907c1.488 2.874 3.743 4.603 5.823 5.641.003.132.007.264.007.39v5.127c0 .15-.002.302-.006.452l-.004.096c-.004.12-.008.24-.014.359l-.007.1c-.007.118-.014.235-.024.353a15.825 15.825 0 0 1-.042.449l-.013.119c-.013.108-.025.216-.04.323l-.02.143a17.74 17.74 0 0 1-.198 1.126l-.053.243-.046.194c-.021.091-.043.182-.066.272l-.023.084c-.098.375-.209.745-.332 1.11l-.01.03c-.04.12-.084.242-.127.362l-.016.041a16.986 16.986 0 0 1-2.662 4.72l-2.8.481a3.639 3.639 0 0 0-1.063-1.176 3.628 3.628 0 0 0-2.728-.618l-4.063.696a3.66 3.66 0 0 0-2.985 4.221 3.645 3.645 0 0 0 2.115 2.722c-.58.06-1.17.091-1.767.091a16.893 16.893 0 0 1-7.076-1.544 17.09 17.09 0 0 1-8.877-9.595Zm24.22 7.683c-.179.254-.446.422-.752.475l-4.064.697a1.159 1.159 0 0 1-1.343-.95 1.165 1.165 0 0 1 .95-1.343l4.064-.697a1.155 1.155 0 0 1 .868.197c.254.179.422.447.475.753.052.306-.018.614-.197.868ZM36.405 63.13a2.386 2.386 0 0 1-2.572-.688l-5.78-6.597 4.287-1.337a.072.072 0 0 1 .07.016l7.736 7.332-3.741 1.274ZM35.2 53.735a4.565 4.565 0 0 0 1.227-3.105v-.975c.081.026.164.05.245.075l.123.038c.247.075.495.146.744.212l.135.035c.139.035.278.07.418.102l.108.024a19.455 19.455 0 0 0 .976.194l.352.059c.177.027.355.051.534.074l.281.032c.151.017.303.032.455.045l.191.017a19.802 19.802 0 0 0 1.51.058 19.923 19.923 0 0 0 .866-.02c.215-.01.43-.022.642-.038l.192-.017a20.044 20.044 0 0 0 1.27-.151 20.794 20.794 0 0 0 1.328-.252l.108-.025c.14-.032.28-.066.418-.102l.135-.035c.249-.066.497-.137.744-.212l.123-.038c.081-.026.163-.048.245-.075v.975c0 1.17.454 2.276 1.227 3.105L42.5 60.654l-7.3-6.917Zm16.338 8.283a3.226 3.226 0 0 1-3.477.93l-3.208-1.092 7.736-7.332a.071.071 0 0 1 .07-.016l4.288 1.337-5.41 6.173Z" fill="#3DB562"/><path d="M31.605 69.224h-9.389c-1.207 0-2.19.982-2.19 2.19v4.158c0 1.208.983 2.19 2.19 2.19h9.389c1.207 0 2.19-.982 2.19-2.19v-4.158c0-1.208-.983-2.19-2.19-2.19Zm-.303 6.046h-8.783v-3.554h8.783v3.554Z" fill="#3DB562"/></svg>