<svg width="85" height="85" fill="none" xmlns="http://www.w3.org/2000/svg"><path d="m81.867 51.495-2.932-1.692a37.12 37.12 0 0 0 .742-7.303c0-2.436-.246-4.89-.73-7.31l2.92-1.686a3.883 3.883 0 0 0 1.821-2.373 3.884 3.884 0 0 0-.39-2.966l-7.985-13.83a3.883 3.883 0 0 0-2.373-1.821 3.884 3.884 0 0 0-2.966.39l-2.922 1.688a37.405 37.405 0 0 0-12.66-7.324V3.909A3.913 3.913 0 0 0 50.485 0H34.515a3.913 3.913 0 0 0-3.909 3.909v3.359c-4.6 1.557-8.937 4.074-12.642 7.333l-2.939-1.697a3.883 3.883 0 0 0-2.966-.39 3.884 3.884 0 0 0-2.373 1.821L1.7 28.165a3.883 3.883 0 0 0-.39 2.966 3.883 3.883 0 0 0 1.82 2.373l2.933 1.693a37.14 37.14 0 0 0-.742 7.303c0 2.436.246 4.89.73 7.31l-2.92 1.685a3.914 3.914 0 0 0-1.43 5.34l7.984 13.83a3.914 3.914 0 0 0 5.34 1.43l2.921-1.687a37.407 37.407 0 0 0 12.66 7.324v3.359A3.913 3.913 0 0 0 34.514 85h15.969a3.913 3.913 0 0 0 3.909-3.909v-3.359c4.6-1.557 8.937-4.074 12.642-7.333l2.939 1.697a3.914 3.914 0 0 0 5.34-1.431l7.984-13.83a3.914 3.914 0 0 0-1.431-5.34Zm-.73 4.093-7.984 13.83a1.415 1.415 0 0 1-1.932.516l-3.725-2.15a1.248 1.248 0 0 0-1.47.165c-3.808 3.522-8.39 6.179-13.25 7.684a1.248 1.248 0 0 0-.878 1.192v4.266c0 .78-.635 1.414-1.414 1.414H34.515c-.78 0-1.414-.634-1.414-1.414v-4.266c0-.547-.356-1.03-.878-1.192a34.852 34.852 0 0 1-13.267-7.674 1.246 1.246 0 0 0-1.47-.165l-3.708 2.14a1.415 1.415 0 0 1-1.931-.517l-7.985-13.83a1.416 1.416 0 0 1 .518-1.93l3.704-2.14c.473-.273.714-.822.594-1.355-.571-2.53-.86-5.107-.86-7.662 0-2.512.293-5.087.872-7.655a1.248 1.248 0 0 0-.593-1.355L4.38 31.343a1.405 1.405 0 0 1-.66-.858 1.405 1.405 0 0 1 .142-1.073l7.985-13.83c.188-.326.493-.56.858-.658a1.405 1.405 0 0 1 1.073.141l3.725 2.15c.473.274 1.07.207 1.47-.164 3.809-3.522 8.39-6.179 13.25-7.685.522-.161.878-.644.878-1.191V3.909c0-.78.635-1.414 1.414-1.414h15.969c.78 0 1.414.634 1.414 1.414v4.266c0 .547.356 1.03.878 1.191a34.85 34.85 0 0 1 13.267 7.675c.4.372.997.438 1.47.165l3.708-2.14a1.405 1.405 0 0 1 1.073-.142c.365.098.67.332.859.659l7.984 13.83c.19.326.24.707.141 1.072-.097.365-.331.67-.658.858l-3.705 2.14a1.247 1.247 0 0 0-.593 1.355c.57 2.529.86 5.107.86 7.662 0 2.512-.294 5.087-.873 7.655-.12.533.12 1.082.593 1.355l3.718 2.146c.675.39.907 1.257.517 1.932Z" fill="#3DB562"/><path d="M42.5 17.299c-13.895 0-25.2 11.305-25.2 25.2C17.3 56.395 28.605 67.7 42.5 67.7c13.896 0 25.201-11.305 25.201-25.2 0-13.896-11.305-25.201-25.2-25.201Zm0 47.906c-12.52 0-22.705-10.186-22.705-22.706S29.98 19.794 42.5 19.794c12.52 0 22.706 10.186 22.706 22.705 0 12.52-10.186 22.706-22.706 22.706Z" fill="#3DB562"/><path d="M47.158 35.93h-4.657c-.69 0-1.248.558-1.248 1.247v10.646a1.248 1.248 0 0 0 2.495 0v-2.745h3.41a4.58 4.58 0 0 0 4.574-4.574 4.58 4.58 0 0 0-4.574-4.574Zm0 6.653h-3.41v-4.158h3.41c1.147 0 2.08.933 2.08 2.08 0 1.146-.933 2.078-2.08 2.078ZM35.682 36.74a1.248 1.248 0 0 0-1.168-.81h-1.33c-.52 0-.986.322-1.169.81l-3.992 10.645a1.247 1.247 0 1 0 2.336.876l.695-1.852h5.59l.694 1.852a1.248 1.248 0 1 0 2.336-.876L35.682 36.74Zm-3.693 7.174 1.86-4.958 1.86 4.958h-3.72ZM54.477 35.93c-.689 0-1.247.558-1.247 1.247v10.646a1.248 1.248 0 0 0 2.495 0V37.177c0-.689-.559-1.247-1.248-1.247ZM51.425 14.521c.866.276 1.729.597 2.565.953a1.244 1.244 0 0 0 1.636-.66 1.247 1.247 0 0 0-.659-1.636 31.777 31.777 0 0 0-2.785-1.034 1.248 1.248 0 0 0-.757 2.377ZM16.708 56.54a1.248 1.248 0 0 0-2.19 1.195c.518.949 1.09 1.882 1.703 2.774a1.246 1.246 0 0 0 1.735.322c.568-.39.712-1.167.322-1.734a29.484 29.484 0 0 1-1.57-2.557ZM39.944 71.75a29.391 29.391 0 0 1-17.868-8.158 1.247 1.247 0 1 0-1.735 1.792 31.893 31.893 0 0 0 19.389 8.85 1.248 1.248 0 0 0 .214-2.486ZM60.452 16.183a1.248 1.248 0 0 0-1.408 2.06 29.396 29.396 0 0 1 11.805 16.596 1.248 1.248 0 0 0 2.41-.649 31.893 31.893 0 0 0-12.807-18.007Z" fill="#3DB562"/></svg>