<svg width="435" height="392" fill="none" xmlns="http://www.w3.org/2000/svg"><path d="m170.52 259.763-54.448 9.862 1.368 7.551 54.447-9.862 16.561-18.04 42.356 24.775 109.41-134.429-3.181-1.861-3.182-1.861-104.756 128.713-42.357-24.776-16.218 19.928Z" fill="#C81926"/><path d="m164.406 178.58-31.128-45.748-6.345 4.316 31.128 45.748 23.212 7.806-5.435 48.768 167.28 45.375.408-3.663.409-3.663-160.167-43.445 5.435-48.768-24.797-6.726Z" fill="#C81926"/><path d="m227.043 128.115 26.206-48.734-6.758-3.634-26.207 48.734 3.794 24.193-45.768 17.697 36.991 169.332 3.438-1.329 3.437-1.329-35.418-162.131 45.768-17.697-5.483-25.102Z" fill="#C81926"/><circle cx="224.906" cy="194.135" r="87.346" fill="#3DB562"/><g filter="url(#a)"><rect x="175.209" y="148.454" width="99.895" height="80.318" rx="2.51" fill="#fff"/></g><g filter="url(#b)"><path d="M171.193 232.788h107.928v4.517a2.51 2.51 0 0 1-2.51 2.51H173.703a2.51 2.51 0 0 1-2.51-2.51v-4.517Z" fill="#fff"/></g><path fill="#3DB562" d="M219.386 235.8h12.048v1.004h-12.048z"/><rect x="184.245" y="155.482" width="81.824" height="66.262" rx="2.51" fill="#3DB562"/><g filter="url(#c)"><circle cx="354.922" cy="111.809" r="36.645" fill="#FEBF25"/></g><g filter="url(#d)"><path fill-rule="evenodd" clip-rule="evenodd" d="M349.589 83.12c-.552-1.513-2.691-1.513-3.243 0a1.726 1.726 0 0 1-2.893.575c-1.089-1.186-3.065-.367-2.997 1.241a1.726 1.726 0 0 1-2.453 1.64c-1.46-.68-2.972.833-2.293 2.293a1.726 1.726 0 0 1-1.639 2.452c-1.608-.068-2.427 1.908-1.241 2.997.953.875.64 2.45-.576 2.893-1.512.552-1.512 2.691 0 3.243a1.727 1.727 0 0 1 .576 2.894c-1.186 1.089-.367 3.065 1.241 2.996a1.726 1.726 0 0 1 1.639 2.453c-.679 1.46.833 2.972 2.293 2.293a1.726 1.726 0 0 1 2.453 1.639c-.068 1.609 1.908 2.427 2.997 1.241a1.726 1.726 0 0 1 2.893.576c.552 1.512 2.691 1.512 3.243 0a1.726 1.726 0 0 1 2.893-.576c1.089 1.186 3.066.368 2.997-1.241a1.726 1.726 0 0 1 2.453-1.639c1.46.679 2.972-.833 2.293-2.293a1.726 1.726 0 0 1 1.639-2.453c1.609.069 2.427-1.907 1.241-2.996a1.727 1.727 0 0 1 .576-2.894c1.512-.552 1.512-2.69 0-3.243a1.726 1.726 0 0 1-.576-2.893c1.186-1.09.368-3.065-1.241-2.997a1.726 1.726 0 0 1-1.639-2.452c.679-1.46-.833-2.973-2.293-2.294a1.726 1.726 0 0 1-2.453-1.639c.069-1.608-1.908-2.427-2.997-1.24a1.726 1.726 0 0 1-2.893-.576Zm-1.446 23.669a7.78 7.78 0 1 0-7.781-7.78 7.78 7.78 0 0 0 7.781 7.78Z" fill="#fff"/></g><g filter="url(#e)"><path fill-rule="evenodd" clip-rule="evenodd" d="M349.59 83.12c-.552-1.513-2.691-1.513-3.243 0a1.726 1.726 0 0 1-2.893.575c-1.089-1.186-3.065-.367-2.997 1.241a1.726 1.726 0 0 1-2.453 1.64c-1.46-.68-2.972.833-2.293 2.293a1.726 1.726 0 0 1-1.639 2.452c-1.609-.068-2.427 1.908-1.241 2.997.953.875.64 2.45-.576 2.893-1.512.552-1.512 2.691 0 3.243a1.727 1.727 0 0 1 .576 2.894c-1.186 1.089-.368 3.065 1.241 2.996a1.726 1.726 0 0 1 1.639 2.453c-.679 1.46.833 2.972 2.293 2.293a1.726 1.726 0 0 1 2.453 1.639c-.068 1.609 1.908 2.427 2.997 1.241a1.726 1.726 0 0 1 2.893.576c.552 1.512 2.691 1.512 3.243 0a1.726 1.726 0 0 1 2.893-.576c1.089 1.186 3.065.368 2.997-1.241a1.726 1.726 0 0 1 2.453-1.639c1.46.679 2.972-.833 2.293-2.293a1.726 1.726 0 0 1 1.639-2.453c1.609.069 2.427-1.907 1.241-2.996a1.727 1.727 0 0 1 .576-2.894c1.512-.552 1.512-2.69 0-3.243a1.726 1.726 0 0 1-.576-2.893c1.186-1.09.368-3.065-1.241-2.997a1.726 1.726 0 0 1-1.639-2.452c.679-1.46-.833-2.973-2.293-2.294a1.726 1.726 0 0 1-2.453-1.639c.068-1.608-1.908-2.427-2.997-1.24a1.726 1.726 0 0 1-2.893-.576Zm-1.446 23.669a7.78 7.78 0 1 0-7.781-7.78 7.78 7.78 0 0 0 7.781 7.78Z" fill="#fff"/></g><g filter="url(#f)"><path fill-rule="evenodd" clip-rule="evenodd" d="M369.032 110.166c-.422-1.156-2.056-1.156-2.478 0a1.32 1.32 0 0 1-2.211.44c-.832-.906-2.342-.281-2.289.948a1.32 1.32 0 0 1-1.875 1.252c-1.115-.518-2.271.637-1.752 1.753a1.319 1.319 0 0 1-1.252 1.874c-1.229-.052-1.855 1.458-.949 2.29.729.668.49 1.871-.439 2.21-1.156.422-1.156 2.057 0 2.479a1.318 1.318 0 0 1 .439 2.21c-.906.832-.28 2.342.949 2.29a1.319 1.319 0 0 1 1.252 1.874c-.519 1.116.637 2.271 1.752 1.752a1.32 1.32 0 0 1 1.875 1.253c-.053 1.229 1.457 1.854 2.289.948a1.32 1.32 0 0 1 2.211.44c.422 1.156 2.056 1.156 2.478 0a1.32 1.32 0 0 1 2.211-.44c.832.906 2.342.281 2.29-.948a1.319 1.319 0 0 1 1.874-1.253c1.115.519 2.271-.636 1.752-1.752a1.319 1.319 0 0 1 1.252-1.874c1.23.052 1.855-1.458.949-2.29a1.318 1.318 0 0 1 .44-2.21c1.155-.422 1.155-2.057 0-2.479a1.318 1.318 0 0 1-.44-2.21c.906-.832.281-2.342-.949-2.29a1.319 1.319 0 0 1-1.252-1.874c.519-1.116-.637-2.271-1.752-1.753a1.319 1.319 0 0 1-1.874-1.252c.052-1.229-1.458-1.854-2.29-.948a1.32 1.32 0 0 1-2.211-.44Zm-1.059 17.707a6.024 6.024 0 1 0-.001-12.047 6.024 6.024 0 0 0 .001 12.047Z" fill="#fff"/></g><g filter="url(#g)"><circle cx="369.229" cy="289.763" r="52.96" fill="#3DB562"/></g><g filter="url(#h)"><rect x="331.83" y="264.915" width="75.298" height="50.199" rx="10.04" fill="#fff"/></g><path d="m330.574 274.453 38.904 19.326 38.151-19.075" stroke="#3DB562" stroke-width="1.506"/><g filter="url(#i)"><circle cx="209.093" cy="342.472" r="29.366" fill="#E54B1F"/></g><g filter="url(#j)"><path fill-rule="evenodd" clip-rule="evenodd" d="M214.734 346.462c.411-1.255.634-2.597.634-3.99 0-7.07-5.731-12.801-12.801-12.801-7.069 0-12.8 5.731-12.8 12.801s5.731 12.801 12.8 12.801a12.79 12.79 0 0 0 10.896-6.08l12.555 5.935a1.505 1.505 0 1 0 1.287-2.723l-12.571-5.943Zm-12.167 5.596c-5.294 0-9.586-4.292-9.586-9.586 0-5.294 4.292-9.586 9.586-9.586a9.586 9.586 0 0 1 9.586 9.586 9.586 9.586 0 0 1-9.586 9.586Z" fill="#fff"/></g><g filter="url(#k)"><g filter="url(#l)"><circle cx="107.943" cy="89.722" r="53.211" fill="#FECB4B"/></g><rect x="81.84" y="59.101" width="65.76" height="8.534" rx="1.506" fill="#fff"/><rect x="68.287" y="74.16" width="79.314" height="4.016" rx="1.506" fill="#fff"/><rect x="68.287" y="84.702" width="79.314" height="4.016" rx="1.506" fill="#fff"/><rect x="68.287" y="105.785" width="79.314" height="4.016" rx="1.506" fill="#fff"/><rect x="68.287" y="116.327" width="79.314" height="4.016" rx="1.506" fill="#fff"/><rect x="68.287" y="95.244" width="79.314" height="4.016" rx="1.506" fill="#fff"/></g><g filter="url(#m)"><circle cx="89.119" cy="271.692" r="45.932" fill="#E54B1F"/></g><g filter="url(#n)"><path fill-rule="evenodd" clip-rule="evenodd" d="M99.053 265.92H79.69a9.795 9.795 0 0 1 3.356-8.989 9.8 9.8 0 0 1 16.008 8.989Zm4.291.017a14.056 14.056 0 1 0-27.946 0 5.02 5.02 0 0 0-4.602 5.002v17.57a5.02 5.02 0 0 0 5.02 5.02h27.107a5.02 5.02 0 0 0 5.02-5.02v-17.57a5.02 5.02 0 0 0-4.599-5.002Z" fill="#fff"/></g><g filter="url(#o)"><circle cx="260.8" cy="57.344" r="29.366" fill="#3DB562"/></g><g filter="url(#q)" clip-path="url(#p)"><path d="m265.831 65.925 1.878-4.605c4.189-10.274 2.373-18.252 1.43-21.139a1.116 1.116 0 0 0-1.576-.651c-2.721 1.387-9.686 5.788-13.879 16.071l-1.878 4.607-1.084.226a6.428 6.428 0 0 0-4.635 3.864l-2.241 5.497a.95.95 0 0 0 1.074 1.297l3.513-.714a5.107 5.107 0 0 1 2.941.275l2.032.828-1.087 2.664a.958.958 0 0 0 .524 1.248l1.627.663a.957.957 0 0 0 1.247-.526l1.086-2.663 2.03.827a5.089 5.089 0 0 1 2.297 1.862l2.011 2.964a.951.951 0 0 0 1.674-.175l2.241-5.497a6.435 6.435 0 0 0-.611-6.003l-.614-.92Zm-4.07-10.074a3.302 3.302 0 0 1-1.811-4.302 3.301 3.301 0 0 1 6.113 2.492 3.302 3.302 0 0 1-4.302 1.81Z" fill="#fff"/></g><g filter="url(#r)"><rect x="193" y="160" width="35" height="35" rx="1" fill="#fff"/></g><path d="M209.914 176.969c1.919 0 3.581-.688 4.938-2.046 1.358-1.358 2.046-3.019 2.046-4.939 0-1.918-.688-3.58-2.046-4.938-1.358-1.358-3.019-2.046-4.938-2.046-1.92 0-3.581.688-4.939 2.046-1.358 1.358-2.046 3.02-2.046 4.938 0 1.92.688 3.581 2.046 4.939 1.358 1.358 3.02 2.046 4.939 2.046ZM222.136 185.299a17.106 17.106 0 0 0-.235-1.832 14.407 14.407 0 0 0-.451-1.843 9.086 9.086 0 0 0-.757-1.718 6.483 6.483 0 0 0-1.142-1.488 5.048 5.048 0 0 0-1.641-1.031 5.659 5.659 0 0 0-2.094-.379c-.296 0-.582.122-1.135.481-.341.222-.739.479-1.183.763-.38.242-.894.469-1.53.674-.62.201-1.25.303-1.871.303a6.073 6.073 0 0 1-1.872-.303c-.635-.205-1.15-.432-1.529-.674-.44-.281-.839-.538-1.184-.763-.552-.36-.839-.481-1.135-.481-.754 0-1.458.127-2.094.379a5.052 5.052 0 0 0-1.641 1.031 6.48 6.48 0 0 0-1.141 1.488 9.136 9.136 0 0 0-.758 1.719 14.52 14.52 0 0 0-.45 1.842c-.117.65-.196 1.266-.235 1.833a24.544 24.544 0 0 0-.058 1.712c0 1.514.481 2.74 1.43 3.643.937.892 2.177 1.345 3.686 1.345h13.963c1.508 0 2.748-.452 3.685-1.345.949-.903 1.431-2.128 1.431-3.643a25.062 25.062 0 0 0-.059-1.713Z" fill="#F1A616"/><rect x="193" y="200" width="57.691" height="3.96" rx="1.98" fill="#fff"/><rect x="193" y="207.02" width="57.691" height="3.96" rx="1.98" fill="#fff"/><rect x="193" y="214.04" width="57.691" height="3.96" rx="1.98" fill="#fff"/><defs><filter id="a" x="148.102" y="130.383" width="154.11" height="134.532" filterUnits="userSpaceOnUse" color-interpolation-filters="sRGB"><feFlood flood-opacity="0" result="BackgroundImageFix"/><feColorMatrix in="SourceAlpha" values="0 0 0 0 0 0 0 0 0 0 0 0 0 0 0 0 0 0 127 0" result="hardAlpha"/><feOffset dy="9.036"/><feGaussianBlur stdDeviation="13.554"/><feComposite in2="hardAlpha" operator="out"/><feColorMatrix values="0 0 0 0 0 0 0 0 0 0 0 0 0 0 0 0 0 0 0.18 0"/><feBlend in2="BackgroundImageFix" result="effect1_dropShadow_438:912"/><feBlend in="SourceGraphic" in2="effect1_dropShadow_438:912" result="shape"/></filter><filter id="b" x="144.086" y="214.716" width="162.141" height="61.242" filterUnits="userSpaceOnUse" color-interpolation-filters="sRGB"><feFlood flood-opacity="0" result="BackgroundImageFix"/><feColorMatrix in="SourceAlpha" values="0 0 0 0 0 0 0 0 0 0 0 0 0 0 0 0 0 0 127 0" result="hardAlpha"/><feOffset dy="9.036"/><feGaussianBlur stdDeviation="13.554"/><feComposite in2="hardAlpha" operator="out"/><feColorMatrix values="0 0 0 0 0 0 0 0 0 0 0 0 0 0 0 0 0 0 0.18 0"/><feBlend in2="BackgroundImageFix" result="effect1_dropShadow_438:912"/><feBlend in="SourceGraphic" in2="effect1_dropShadow_438:912" result="shape"/></filter><filter id="c" x="306.277" y="63.164" width="97.29" height="99.29" filterUnits="userSpaceOnUse" color-interpolation-filters="sRGB"><feFlood flood-opacity="0" result="BackgroundImageFix"/><feColorMatrix in="SourceAlpha" values="0 0 0 0 0 0 0 0 0 0 0 0 0 0 0 0 0 0 127 0" result="hardAlpha"/><feMorphology radius="2" operator="dilate" in="SourceAlpha" result="effect1_dropShadow_438:912"/><feOffset dy="2"/><feGaussianBlur stdDeviation="5"/><feColorMatrix values="0 0 0 0 0 0 0 0 0 0 0 0 0 0 0 0 0 0 0.1 0"/><feBlend in2="BackgroundImageFix" result="effect1_dropShadow_438:912"/><feColorMatrix in="SourceAlpha" values="0 0 0 0 0 0 0 0 0 0 0 0 0 0 0 0 0 0 127 0" result="hardAlpha"/><feOffset dy="-2"/><feGaussianBlur stdDeviation="5"/><feColorMatrix values="0 0 0 0 0 0 0 0 0 0 0 0 0 0 0 0 0 0 0.1 0"/><feBlend in2="effect1_dropShadow_438:912" result="effect2_dropShadow_438:912"/><feBlend in="SourceGraphic" in2="effect2_dropShadow_438:912" result="shape"/></filter><filter id="d" x="325.096" y="75.962" width="45.742" height="46.746" filterUnits="userSpaceOnUse" color-interpolation-filters="sRGB"><feFlood flood-opacity="0" result="BackgroundImageFix"/><feColorMatrix in="SourceAlpha" values="0 0 0 0 0 0 0 0 0 0 0 0 0 0 0 0 0 0 127 0" result="hardAlpha"/><feMorphology radius="1.004" operator="dilate" in="SourceAlpha" result="effect1_dropShadow_438:912"/><feOffset dy="1.004"/><feGaussianBlur stdDeviation="2.51"/><feColorMatrix values="0 0 0 0 0 0 0 0 0 0 0 0 0 0 0 0 0 0 0.1 0"/><feBlend in2="BackgroundImageFix" result="effect1_dropShadow_438:912"/><feColorMatrix in="SourceAlpha" values="0 0 0 0 0 0 0 0 0 0 0 0 0 0 0 0 0 0 127 0" result="hardAlpha"/><feOffset dy="-1.004"/><feGaussianBlur stdDeviation="2.51"/><feColorMatrix values="0 0 0 0 0 0 0 0 0 0 0 0 0 0 0 0 0 0 0.1 0"/><feBlend in2="effect1_dropShadow_438:912" result="effect2_dropShadow_438:912"/><feBlend in="SourceGraphic" in2="effect2_dropShadow_438:912" result="shape"/></filter><filter id="e" x="325.097" y="75.962" width="45.742" height="46.746" filterUnits="userSpaceOnUse" color-interpolation-filters="sRGB"><feFlood flood-opacity="0" result="BackgroundImageFix"/><feColorMatrix in="SourceAlpha" values="0 0 0 0 0 0 0 0 0 0 0 0 0 0 0 0 0 0 127 0" result="hardAlpha"/><feMorphology radius="1.004" operator="dilate" in="SourceAlpha" result="effect1_dropShadow_438:912"/><feOffset dy="1.004"/><feGaussianBlur stdDeviation="2.51"/><feColorMatrix values="0 0 0 0 0 0 0 0 0 0 0 0 0 0 0 0 0 0 0.1 0"/><feBlend in2="BackgroundImageFix" result="effect1_dropShadow_438:912"/><feColorMatrix in="SourceAlpha" values="0 0 0 0 0 0 0 0 0 0 0 0 0 0 0 0 0 0 127 0" result="hardAlpha"/><feOffset dy="-1.004"/><feGaussianBlur stdDeviation="2.51"/><feColorMatrix values="0 0 0 0 0 0 0 0 0 0 0 0 0 0 0 0 0 0 0.1 0"/><feBlend in2="effect1_dropShadow_438:912" result="effect2_dropShadow_438:912"/><feBlend in="SourceGraphic" in2="effect2_dropShadow_438:912" result="shape"/></filter><filter id="f" x="348.896" y="103.275" width="37.794" height="38.798" filterUnits="userSpaceOnUse" color-interpolation-filters="sRGB"><feFlood flood-opacity="0" result="BackgroundImageFix"/><feColorMatrix in="SourceAlpha" values="0 0 0 0 0 0 0 0 0 0 0 0 0 0 0 0 0 0 127 0" result="hardAlpha"/><feMorphology radius="1.004" operator="dilate" in="SourceAlpha" result="effect1_dropShadow_438:912"/><feOffset dy="1.004"/><feGaussianBlur stdDeviation="2.51"/><feColorMatrix values="0 0 0 0 0 0 0 0 0 0 0 0 0 0 0 0 0 0 0.1 0"/><feBlend in2="BackgroundImageFix" result="effect1_dropShadow_438:912"/><feColorMatrix in="SourceAlpha" values="0 0 0 0 0 0 0 0 0 0 0 0 0 0 0 0 0 0 127 0" result="hardAlpha"/><feOffset dy="-1.004"/><feGaussianBlur stdDeviation="2.51"/><feColorMatrix values="0 0 0 0 0 0 0 0 0 0 0 0 0 0 0 0 0 0 0.1 0"/><feBlend in2="effect1_dropShadow_438:912" result="effect2_dropShadow_438:912"/><feBlend in="SourceGraphic" in2="effect2_dropShadow_438:912" result="shape"/></filter><filter id="g" x="304.27" y="224.804" width="129.919" height="131.919" filterUnits="userSpaceOnUse" color-interpolation-filters="sRGB"><feFlood flood-opacity="0" result="BackgroundImageFix"/><feColorMatrix in="SourceAlpha" values="0 0 0 0 0 0 0 0 0 0 0 0 0 0 0 0 0 0 127 0" result="hardAlpha"/><feMorphology radius="2" operator="dilate" in="SourceAlpha" result="effect1_dropShadow_438:912"/><feOffset dy="2"/><feGaussianBlur stdDeviation="5"/><feColorMatrix values="0 0 0 0 0 0 0 0 0 0 0 0 0 0 0 0 0 0 0.1 0"/><feBlend in2="BackgroundImageFix" result="effect1_dropShadow_438:912"/><feColorMatrix in="SourceAlpha" values="0 0 0 0 0 0 0 0 0 0 0 0 0 0 0 0 0 0 127 0" result="hardAlpha"/><feOffset dy="-2"/><feGaussianBlur stdDeviation="5"/><feColorMatrix values="0 0 0 0 0 0 0 0 0 0 0 0 0 0 0 0 0 0 0.1 0"/><feBlend in2="effect1_dropShadow_438:912" result="effect2_dropShadow_438:912"/><feBlend in="SourceGraphic" in2="effect2_dropShadow_438:912" result="shape"/></filter><filter id="h" x="304.723" y="246.844" width="129.512" height="104.413" filterUnits="userSpaceOnUse" color-interpolation-filters="sRGB"><feFlood flood-opacity="0" result="BackgroundImageFix"/><feColorMatrix in="SourceAlpha" values="0 0 0 0 0 0 0 0 0 0 0 0 0 0 0 0 0 0 127 0" result="hardAlpha"/><feOffset dy="9.036"/><feGaussianBlur stdDeviation="13.554"/><feComposite in2="hardAlpha" operator="out"/><feColorMatrix values="0 0 0 0 0 0 0 0 0 0 0 0 0 0 0 0 0 0 0.18 0"/><feBlend in2="BackgroundImageFix" result="effect1_dropShadow_438:912"/><feBlend in="SourceGraphic" in2="effect1_dropShadow_438:912" result="shape"/></filter><filter id="i" x="167.727" y="301.106" width="82.732" height="84.732" filterUnits="userSpaceOnUse" color-interpolation-filters="sRGB"><feFlood flood-opacity="0" result="BackgroundImageFix"/><feColorMatrix in="SourceAlpha" values="0 0 0 0 0 0 0 0 0 0 0 0 0 0 0 0 0 0 127 0" result="hardAlpha"/><feMorphology radius="2" operator="dilate" in="SourceAlpha" result="effect1_dropShadow_438:912"/><feOffset dy="2"/><feGaussianBlur stdDeviation="5"/><feColorMatrix values="0 0 0 0 0 0 0 0 0 0 0 0 0 0 0 0 0 0 0.1 0"/><feBlend in2="BackgroundImageFix" result="effect1_dropShadow_438:912"/><feColorMatrix in="SourceAlpha" values="0 0 0 0 0 0 0 0 0 0 0 0 0 0 0 0 0 0 127 0" result="hardAlpha"/><feOffset dy="-2"/><feGaussianBlur stdDeviation="5"/><feColorMatrix values="0 0 0 0 0 0 0 0 0 0 0 0 0 0 0 0 0 0 0.1 0"/><feBlend in2="effect1_dropShadow_438:912" result="effect2_dropShadow_438:912"/><feBlend in="SourceGraphic" in2="effect2_dropShadow_438:912" result="shape"/></filter><filter id="j" x="162.659" y="311.6" width="92.616" height="79.816" filterUnits="userSpaceOnUse" color-interpolation-filters="sRGB"><feFlood flood-opacity="0" result="BackgroundImageFix"/><feColorMatrix in="SourceAlpha" values="0 0 0 0 0 0 0 0 0 0 0 0 0 0 0 0 0 0 127 0" result="hardAlpha"/><feOffset dy="9.036"/><feGaussianBlur stdDeviation="13.554"/><feComposite in2="hardAlpha" operator="out"/><feColorMatrix values="0 0 0 0 0 0 0 0 0 0 0 0 0 0 0 0 0 0 0.18 0"/><feBlend in2="BackgroundImageFix" result="effect1_dropShadow_438:912"/><feBlend in="SourceGraphic" in2="effect1_dropShadow_438:912" result="shape"/></filter><filter id="k" x="39.732" y="36.511" width="136.421" height="136.421" filterUnits="userSpaceOnUse" color-interpolation-filters="sRGB"><feFlood flood-opacity="0" result="BackgroundImageFix"/><feColorMatrix in="SourceAlpha" values="0 0 0 0 0 0 0 0 0 0 0 0 0 0 0 0 0 0 127 0" result="hardAlpha"/><feOffset dy="15"/><feGaussianBlur stdDeviation="7.5"/><feColorMatrix values="0 0 0 0 0 0 0 0 0 0 0 0 0 0 0 0 0 0 0.15 0"/><feBlend in2="BackgroundImageFix" result="effect1_dropShadow_438:912"/><feBlend in="SourceGraphic" in2="effect1_dropShadow_438:912" result="shape"/></filter><filter id="l" x=".732" y=".511" width="214.421" height="214.421" filterUnits="userSpaceOnUse" color-interpolation-filters="sRGB"><feFlood flood-opacity="0" result="BackgroundImageFix"/><feColorMatrix in="SourceAlpha" values="0 0 0 0 0 0 0 0 0 0 0 0 0 0 0 0 0 0 127 0" result="hardAlpha"/><feOffset dy="18"/><feGaussianBlur stdDeviation="27"/><feComposite in2="hardAlpha" operator="out"/><feColorMatrix values="0 0 0 0 0 0 0 0 0 0 0 0 0 0 0 0 0 0 0.18 0"/><feBlend in2="BackgroundImageFix" result="effect1_dropShadow_438:912"/><feBlend in="SourceGraphic" in2="effect1_dropShadow_438:912" result="shape"/></filter><filter id="m" x="31.188" y="213.76" width="115.863" height="117.864" filterUnits="userSpaceOnUse" color-interpolation-filters="sRGB"><feFlood flood-opacity="0" result="BackgroundImageFix"/><feColorMatrix in="SourceAlpha" values="0 0 0 0 0 0 0 0 0 0 0 0 0 0 0 0 0 0 127 0" result="hardAlpha"/><feMorphology radius="2" operator="dilate" in="SourceAlpha" result="effect1_dropShadow_438:912"/><feOffset dy="2"/><feGaussianBlur stdDeviation="5"/><feColorMatrix values="0 0 0 0 0 0 0 0 0 0 0 0 0 0 0 0 0 0 0.1 0"/><feBlend in2="BackgroundImageFix" result="effect1_dropShadow_438:912"/><feColorMatrix in="SourceAlpha" values="0 0 0 0 0 0 0 0 0 0 0 0 0 0 0 0 0 0 127 0" result="hardAlpha"/><feOffset dy="-2"/><feGaussianBlur stdDeviation="5"/><feColorMatrix values="0 0 0 0 0 0 0 0 0 0 0 0 0 0 0 0 0 0 0.1 0"/><feBlend in2="effect1_dropShadow_438:912" result="effect2_dropShadow_438:912"/><feBlend in="SourceGraphic" in2="effect2_dropShadow_438:912" result="shape"/></filter><filter id="n" x="64.772" y="244.334" width="49.195" height="56.223" filterUnits="userSpaceOnUse" color-interpolation-filters="sRGB"><feFlood flood-opacity="0" result="BackgroundImageFix"/><feColorMatrix in="SourceAlpha" values="0 0 0 0 0 0 0 0 0 0 0 0 0 0 0 0 0 0 127 0" result="hardAlpha"/><feMorphology radius="1.004" operator="dilate" in="SourceAlpha" result="effect1_dropShadow_438:912"/><feOffset dy="1.004"/><feGaussianBlur stdDeviation="2.51"/><feColorMatrix values="0 0 0 0 0 0 0 0 0 0 0 0 0 0 0 0 0 0 0.1 0"/><feBlend in2="BackgroundImageFix" result="effect1_dropShadow_438:912"/><feColorMatrix in="SourceAlpha" values="0 0 0 0 0 0 0 0 0 0 0 0 0 0 0 0 0 0 127 0" result="hardAlpha"/><feOffset dy="-1.004"/><feGaussianBlur stdDeviation="2.51"/><feColorMatrix values="0 0 0 0 0 0 0 0 0 0 0 0 0 0 0 0 0 0 0.1 0"/><feBlend in2="effect1_dropShadow_438:912" result="effect2_dropShadow_438:912"/><feBlend in="SourceGraphic" in2="effect2_dropShadow_438:912" result="shape"/></filter><filter id="o" x="219.434" y="15.977" width="82.732" height="84.732" filterUnits="userSpaceOnUse" color-interpolation-filters="sRGB"><feFlood flood-opacity="0" result="BackgroundImageFix"/><feColorMatrix in="SourceAlpha" values="0 0 0 0 0 0 0 0 0 0 0 0 0 0 0 0 0 0 127 0" result="hardAlpha"/><feMorphology radius="2" operator="dilate" in="SourceAlpha" result="effect1_dropShadow_438:912"/><feOffset dy="2"/><feGaussianBlur stdDeviation="5"/><feColorMatrix values="0 0 0 0 0 0 0 0 0 0 0 0 0 0 0 0 0 0 0.1 0"/><feBlend in2="BackgroundImageFix" result="effect1_dropShadow_438:912"/><feColorMatrix in="SourceAlpha" values="0 0 0 0 0 0 0 0 0 0 0 0 0 0 0 0 0 0 127 0" result="hardAlpha"/><feOffset dy="-2"/><feGaussianBlur stdDeviation="5"/><feColorMatrix values="0 0 0 0 0 0 0 0 0 0 0 0 0 0 0 0 0 0 0.1 0"/><feBlend in2="effect1_dropShadow_438:912" result="effect2_dropShadow_438:912"/><feBlend in="SourceGraphic" in2="effect2_dropShadow_438:912" result="shape"/></filter><filter id="q" x="237.752" y="33.383" width="38.624" height="52.586" filterUnits="userSpaceOnUse" color-interpolation-filters="sRGB"><feFlood flood-opacity="0" result="BackgroundImageFix"/><feColorMatrix in="SourceAlpha" values="0 0 0 0 0 0 0 0 0 0 0 0 0 0 0 0 0 0 127 0" result="hardAlpha"/><feMorphology radius="1.004" operator="dilate" in="SourceAlpha" result="effect1_dropShadow_438:912"/><feOffset dy="1.004"/><feGaussianBlur stdDeviation="2.51"/><feColorMatrix values="0 0 0 0 0 0 0 0 0 0 0 0 0 0 0 0 0 0 0.1 0"/><feBlend in2="BackgroundImageFix" result="effect1_dropShadow_438:912"/><feColorMatrix in="SourceAlpha" values="0 0 0 0 0 0 0 0 0 0 0 0 0 0 0 0 0 0 127 0" result="hardAlpha"/><feOffset dy="-1.004"/><feGaussianBlur stdDeviation="2.51"/><feColorMatrix values="0 0 0 0 0 0 0 0 0 0 0 0 0 0 0 0 0 0 0.1 0"/><feBlend in2="effect1_dropShadow_438:912" result="effect2_dropShadow_438:912"/><feBlend in="SourceGraphic" in2="effect2_dropShadow_438:912" result="shape"/></filter><filter id="r" x="186.603" y="156.162" width="47.795" height="47.795" filterUnits="userSpaceOnUse" color-interpolation-filters="sRGB"><feFlood flood-opacity="0" result="BackgroundImageFix"/><feColorMatrix in="SourceAlpha" values="0 0 0 0 0 0 0 0 0 0 0 0 0 0 0 0 0 0 127 0" result="hardAlpha"/><feOffset dy="2.559"/><feGaussianBlur stdDeviation="3.199"/><feComposite in2="hardAlpha" operator="out"/><feColorMatrix values="0 0 0 0 0 0 0 0 0 0 0 0 0 0 0 0 0 0 0.25 0"/><feBlend in2="BackgroundImageFix" result="effect1_dropShadow_438:912"/><feBlend in="SourceGraphic" in2="effect1_dropShadow_438:912" result="shape"/></filter><clipPath id="p"><path fill="#fff" transform="rotate(22.182 43.347 654.479)" d="M0 0h39.155v39.155H0z"/></clipPath></defs></svg>