<svg width="1167" height="270" viewBox="0 0 1167 270" fill="none" xmlns="http://www.w3.org/2000/svg">
<path d="M120.518 119.214C120.34 108.342 109.224 105.13 101.107 102.784C100.16 102.511 99.2489 102.247 98.3955 101.985V97.4994C100.055 96.4592 101.509 95.1206 102.682 93.5592H107.626C110.046 93.5592 112.014 91.5906 112.014 89.1711V83.8592C112.308 83.1754 112.471 82.4229 112.471 81.6328V79.9807C112.471 79.1914 112.308 78.4393 112.014 77.756V75.0157C112.014 62.8763 102.138 53 89.9992 53C77.8623 53 67.9883 62.8763 67.9883 75.0159V77.6778C67.9883 77.6987 67.9907 77.7188 67.9914 77.7396C67.6936 78.4274 67.5277 79.1849 67.5277 79.9809V81.6329C67.5277 84.7559 70.0664 87.2967 73.1869 87.2967H74.4782C75.3726 91.5855 78.0055 95.2433 81.6029 97.4986V101.985C80.7493 102.247 79.8387 102.511 78.8916 102.784C70.7747 105.13 59.6584 108.342 59.4806 119.214C59.4805 119.223 59.4805 119.231 59.4805 119.24V131.437C59.4805 132.3 60.1802 133 61.043 133H65.6755C66.5383 133 67.238 132.3 67.238 131.437C67.238 130.575 66.5383 129.875 65.6755 129.875H62.6053V119.253C62.6711 115.46 64.4136 112.616 68.0888 110.304C70.514 108.779 73.4788 107.692 76.4013 106.783L80.1765 114.138C80.5973 114.958 81.6746 115.236 82.4402 114.72L84.1235 113.584L85.5687 119.016L83.0926 129.875H79.7063C78.8435 129.875 78.1438 130.574 78.1438 131.437C78.1438 132.3 78.8435 133 79.7063 133H118.955C119.818 133 120.518 132.3 120.518 131.437V119.24C120.518 119.231 120.518 119.223 120.518 119.214ZM100.239 105.786C100.342 105.816 100.447 105.846 100.551 105.876L97.8495 111.144L92.7947 107.736L97.0777 104.847C98.0727 105.16 99.1308 105.466 100.239 105.786ZM90.0003 109.621L93.1334 111.733L91.6192 117.425H88.3792L86.8654 111.735L90.0003 109.621ZM90 105.851L84.7278 102.296V99.0067C86.3779 99.5903 88.1515 99.9105 89.999 99.9105C91.8464 99.9105 93.6203 99.5914 95.2703 99.0078V102.296L90 105.851ZM102.729 75.3016C102.707 75.2881 102.686 75.2745 102.665 75.2609C99.4586 73.2199 96.6895 71.4573 92.3508 72.6987C92.3104 72.7102 92.2704 72.7234 92.2312 72.738C91.3114 73.0835 90.475 73.4055 89.6659 73.717C84.7248 75.619 82.027 76.6577 77.2694 76.524V75.2727C77.2694 68.2533 82.9799 62.5427 89.999 62.5427C97.0181 62.5427 102.729 68.2533 102.729 75.2727V75.3016H102.729ZM108.889 89.1711C108.889 89.8676 108.323 90.4342 107.626 90.4342H104.513C104.952 89.4375 105.293 88.3876 105.52 87.2965H106.812C107.545 87.2965 108.246 87.1547 108.89 86.8992V89.1711H108.889ZM109.346 81.6328C109.346 83.0326 108.209 84.1715 106.811 84.1715H105.852C105.853 84.1328 105.854 77.4463 105.854 77.4463H106.812C108.209 77.4463 109.346 78.5832 109.346 79.9807V81.6328H109.346ZM73.1869 84.1717C71.7896 84.1717 70.6527 83.0328 70.6527 81.6329V79.9809C70.6527 78.5834 71.7894 77.4465 73.1869 77.4465H74.1446C74.1446 77.4465 74.1458 84.1329 74.1462 84.1717H73.1869ZM74.1738 74.3213H73.1868C72.4563 74.3213 71.7586 74.462 71.1171 74.7151C71.2785 64.4369 79.686 56.125 89.9992 56.125C100.315 56.125 108.725 64.4379 108.886 74.7168C108.243 74.4626 107.543 74.3213 106.811 74.3213H105.824C105.331 66.0201 98.4219 59.4177 89.9992 59.4177C81.5763 59.4177 74.6676 66.0202 74.1738 74.3213ZM77.3635 85.5756C77.3634 85.574 77.363 85.5725 77.3629 85.5709C77.3037 85.0736 77.2696 84.5686 77.2696 84.0556V79.6489C82.6154 79.7792 85.8043 78.5523 90.7886 76.6335C91.5736 76.3313 92.385 76.019 93.2689 75.6867C96.2205 74.8627 97.9187 75.9442 100.987 77.8971C101.519 78.236 102.103 78.6074 102.729 78.9889V84.0556C102.729 86.3792 102.1 88.5573 101.008 90.4344H89.9992C89.1364 90.4344 88.4367 91.1339 88.4367 91.9969C88.4367 92.8598 89.1364 93.5594 89.9992 93.5594H98.4561C96.2058 95.5642 93.2429 96.7856 89.9992 96.7856C83.4946 96.7855 78.1174 91.8805 77.3635 85.5756ZM82.1526 111.144L79.4485 105.876C79.552 105.846 79.6563 105.816 79.7591 105.786C80.8676 105.466 81.9257 105.16 82.921 104.847L87.2057 107.736L82.1526 111.144ZM86.2979 129.875L88.4243 120.55H91.5745L93.7042 129.875H86.2979ZM117.393 129.875H96.9097L94.4297 119.016L95.8755 113.582L97.5628 114.72C98.3288 115.236 99.4061 114.958 99.8267 114.138L103.598 106.783C106.52 107.692 109.485 108.779 111.91 110.304C115.585 112.616 117.327 115.46 117.393 119.253V129.875H117.393Z" fill="#26ad50"/>
<path d="M111.222 122.062H103.348C102.485 122.062 101.785 122.762 101.785 123.625C101.785 124.488 102.485 125.188 103.348 125.188H111.222C112.085 125.188 112.785 124.488 112.785 123.625C112.785 122.762 112.085 122.062 111.222 122.062Z" fill="#26ad50"/>
<path d="M72.6914 129.875C71.8286 129.875 71.1289 130.575 71.1289 131.438C71.1289 132.3 71.8286 133 72.6914 133H72.6958C73.5586 133 74.2559 132.3 74.2559 131.438C74.2559 130.575 73.5542 129.875 72.6914 129.875Z" fill="#26ad50"/>
<path d="M17.2881 168H15.8203V159.545C15.8203 158.877 15.8613 158.06 15.9434 157.093H15.9082C15.7676 157.661 15.6416 158.068 15.5303 158.314L11.2236 168H10.5029L6.20508 158.385C6.08203 158.104 5.95605 157.673 5.82715 157.093H5.79199C5.83887 157.597 5.8623 158.42 5.8623 159.562V168H4.43848V155.396H6.38965L10.2568 164.186C10.5557 164.859 10.749 165.363 10.8369 165.697H10.8896C11.1416 165.006 11.3438 164.49 11.4961 164.15L15.4424 155.396H17.2881V168ZM30.2607 168H28.8369V159H30.2607V168ZM20.417 168V159H21.8584V162.454H24.2842C25.2041 162.454 25.9336 162.694 26.4727 163.175C27.0176 163.655 27.29 164.326 27.29 165.188C27.29 166.055 27.0176 166.74 26.4727 167.244C25.9277 167.748 25.2393 168 24.4072 168H20.417ZM21.8584 163.693V166.77H24.0205C25.2158 166.77 25.8135 166.242 25.8135 165.188C25.8135 164.191 25.21 163.693 24.0029 163.693H21.8584ZM44.2705 167.587C43.5791 168.003 42.7588 168.211 41.8096 168.211C40.5264 168.211 39.4893 167.795 38.6982 166.963C37.9131 166.125 37.5205 165.041 37.5205 163.711C37.5205 162.229 37.9453 161.039 38.7949 160.143C39.6445 159.24 40.7783 158.789 42.1963 158.789C42.9873 158.789 43.6846 158.936 44.2881 159.229V160.705C43.6201 160.236 42.9053 160.002 42.1436 160.002C41.2236 160.002 40.4678 160.333 39.876 160.995C39.29 161.651 38.9971 162.516 38.9971 163.588C38.9971 164.643 39.2725 165.475 39.8232 166.084C40.3799 166.693 41.124 166.998 42.0557 166.998C42.8408 166.998 43.5791 166.737 44.2705 166.216V167.587ZM51.583 168V155.396H55.1689C56.2588 155.396 57.123 155.663 57.7617 156.196C58.4004 156.729 58.7197 157.424 58.7197 158.279C58.7197 158.994 58.5264 159.615 58.1396 160.143C57.7529 160.67 57.2197 161.045 56.54 161.268V161.303C57.3896 161.402 58.0693 161.725 58.5791 162.27C59.0889 162.809 59.3438 163.512 59.3438 164.379C59.3438 165.457 58.957 166.33 58.1836 166.998C57.4102 167.666 56.4346 168 55.2568 168H51.583ZM53.0596 156.732V160.802H54.5713C55.3799 160.802 56.0156 160.608 56.4785 160.222C56.9414 159.829 57.1729 159.278 57.1729 158.569C57.1729 157.345 56.3672 156.732 54.7559 156.732H53.0596ZM53.0596 162.129V166.664H55.0635C55.9307 166.664 56.6016 166.459 57.0762 166.049C57.5566 165.639 57.7969 165.076 57.7969 164.361C57.7969 162.873 56.7832 162.129 54.7559 162.129H53.0596ZM68.1504 168H66.709V166.594H66.6738C66.0469 167.672 65.124 168.211 63.9053 168.211C63.0088 168.211 62.3057 167.974 61.7959 167.499C61.292 167.024 61.04 166.395 61.04 165.609C61.04 163.928 62.0303 162.949 64.0107 162.674L66.709 162.296C66.709 160.767 66.0908 160.002 64.8545 160.002C63.7705 160.002 62.792 160.371 61.9189 161.109V159.633C62.8037 159.07 63.8232 158.789 64.9775 158.789C67.0928 158.789 68.1504 159.908 68.1504 162.146V168ZM66.709 163.447L64.5381 163.746C63.8701 163.84 63.3662 164.007 63.0264 164.247C62.6865 164.481 62.5166 164.9 62.5166 165.504C62.5166 165.943 62.6719 166.304 62.9824 166.585C63.2988 166.86 63.7178 166.998 64.2393 166.998C64.9541 166.998 65.543 166.749 66.0059 166.251C66.4746 165.747 66.709 165.111 66.709 164.344V163.447ZM80.5869 168H79.1631V160.582C79.0342 160.957 78.835 161.508 78.5654 162.234L76.3154 168H75.0234L72.7031 162.234C72.5801 161.924 72.3809 161.373 72.1055 160.582V168H70.8662V159H72.7031L75.0762 164.871C75.2461 165.299 75.4629 165.891 75.7266 166.646L76.3682 164.906L78.6709 159H80.5869V168ZM91.0459 168H89.7451V160.819C89.6162 161.071 89.4199 161.426 89.1562 161.883L84.999 168H83.5049V159H84.8232V166.093C84.8936 165.923 85.0459 165.633 85.2803 165.223L89.5518 159H91.0459V168ZM105.038 167.587C104.347 168.003 103.526 168.211 102.577 168.211C101.294 168.211 100.257 167.795 99.4658 166.963C98.6807 166.125 98.2881 165.041 98.2881 163.711C98.2881 162.229 98.7129 161.039 99.5625 160.143C100.412 159.24 101.546 158.789 102.964 158.789C103.755 158.789 104.452 158.936 105.056 159.229V160.705C104.388 160.236 103.673 160.002 102.911 160.002C101.991 160.002 101.235 160.333 100.644 160.995C100.058 161.651 99.7646 162.516 99.7646 163.588C99.7646 164.643 100.04 165.475 100.591 166.084C101.147 166.693 101.892 166.998 102.823 166.998C103.608 166.998 104.347 166.737 105.038 166.216V167.587ZM107.218 168V159H111.138C112.022 159 112.72 159.196 113.229 159.589C113.745 159.981 114.003 160.518 114.003 161.197C114.003 162.363 113.429 163.072 112.28 163.324C113.657 163.5 114.346 164.194 114.346 165.407C114.346 166.14 114.062 166.755 113.493 167.253C112.931 167.751 112.23 168 111.393 168H107.218ZM108.659 160.23V162.762H110.821C111.981 162.762 112.562 162.311 112.562 161.408C112.562 160.623 112.04 160.23 110.997 160.23H108.659ZM108.659 163.992V166.77H111.155C112.321 166.77 112.904 166.298 112.904 165.354C112.904 164.446 112.251 163.992 110.944 163.992H108.659ZM122.915 168H121.474V164.273H120.27C119.689 164.273 119.162 164.742 118.688 165.68L117.519 168H115.849L117.36 165.223C117.712 164.578 118.137 164.153 118.635 163.948C117.932 163.854 117.396 163.597 117.026 163.175C116.657 162.753 116.473 162.226 116.473 161.593C116.473 160.796 116.76 160.166 117.334 159.703C117.914 159.234 118.726 159 119.769 159H122.915V168ZM121.474 163.069V160.23H119.769C118.556 160.23 117.949 160.69 117.949 161.61C117.949 162.583 118.538 163.069 119.716 163.069H121.474ZM137.769 168H135.817L131.792 163.553H131.757V168H130.386V163.553H130.351L126.316 168H124.392L128.856 163.359L124.664 159H126.501L130.351 163.21H130.386V159H131.757V163.21H131.792L135.642 159H137.496L133.286 163.359L137.769 168ZM146.479 163.86H140.124C140.147 164.862 140.417 165.636 140.933 166.181C141.448 166.726 142.157 166.998 143.06 166.998C144.073 166.998 145.005 166.664 145.854 165.996V167.35C145.063 167.924 144.018 168.211 142.717 168.211C141.445 168.211 140.446 167.804 139.72 166.989C138.993 166.169 138.63 165.018 138.63 163.535C138.63 162.135 139.025 160.995 139.816 160.116C140.613 159.231 141.601 158.789 142.778 158.789C143.956 158.789 144.867 159.17 145.512 159.932C146.156 160.693 146.479 161.751 146.479 163.104V163.86ZM145.002 162.639C144.996 161.807 144.794 161.159 144.396 160.696C144.003 160.233 143.455 160.002 142.752 160.002C142.072 160.002 141.495 160.245 141.021 160.731C140.546 161.218 140.253 161.854 140.142 162.639H145.002ZM158.388 168H156.964V160.582C156.835 160.957 156.636 161.508 156.366 162.234L154.116 168H152.824L150.504 162.234C150.381 161.924 150.182 161.373 149.906 160.582V168H148.667V159H150.504L152.877 164.871C153.047 165.299 153.264 165.891 153.527 166.646L154.169 164.906L156.472 159H158.388V168ZM167.44 167.587C166.749 168.003 165.929 168.211 164.979 168.211C163.696 168.211 162.659 167.795 161.868 166.963C161.083 166.125 160.69 165.041 160.69 163.711C160.69 162.229 161.115 161.039 161.965 160.143C162.814 159.24 163.948 158.789 165.366 158.789C166.157 158.789 166.854 158.936 167.458 159.229V160.705C166.79 160.236 166.075 160.002 165.313 160.002C164.394 160.002 163.638 160.333 163.046 160.995C162.46 161.651 162.167 162.516 162.167 163.588C162.167 164.643 162.442 165.475 162.993 166.084C163.55 166.693 164.294 166.998 165.226 166.998C166.011 166.998 166.749 166.737 167.44 166.216V167.587ZM175.772 168H174.331V164.273H173.127C172.547 164.273 172.02 164.742 171.545 165.68L170.376 168H168.706L170.218 165.223C170.569 164.578 170.994 164.153 171.492 163.948C170.789 163.854 170.253 163.597 169.884 163.175C169.515 162.753 169.33 162.226 169.33 161.593C169.33 160.796 169.617 160.166 170.191 159.703C170.771 159.234 171.583 159 172.626 159H175.772V168ZM174.331 163.069V160.23H172.626C171.413 160.23 170.807 160.69 170.807 161.61C170.807 162.583 171.396 163.069 172.573 163.069H174.331ZM51.126 195.278H49.9043V192H43.207V195.278H41.9766V190.778H42.7764C44.3115 188.563 45.0908 185.971 45.1143 183H49.79V190.778H51.126V195.278ZM48.3486 190.778V184.222H46.3535C46.1953 186.647 45.5127 188.833 44.3057 190.778H48.3486ZM59.6865 192H58.2539V184.222H56.1621C55.9219 187.134 55.5088 189.179 54.9229 190.356C54.3428 191.534 53.5605 192.123 52.5762 192.123C52.2773 192.123 52.0195 192.082 51.8027 192V190.761C52.0078 190.866 52.2305 190.919 52.4707 190.919C53.7598 190.919 54.5889 188.279 54.958 183H59.6865V192ZM68.7656 192H67.3242V188.273H66.1201C65.54 188.273 65.0127 188.742 64.5381 189.68L63.3691 192H61.6992L63.2109 189.223C63.5625 188.578 63.9873 188.153 64.4854 187.948C63.7822 187.854 63.2461 187.597 62.877 187.175C62.5078 186.753 62.3232 186.226 62.3232 185.593C62.3232 184.796 62.6104 184.166 63.1846 183.703C63.7646 183.234 64.5762 183 65.6191 183H68.7656V192ZM67.3242 187.069V184.23H65.6191C64.4062 184.23 63.7998 184.69 63.7998 185.61C63.7998 186.583 64.3887 187.069 65.5664 187.069H67.3242ZM76.6055 192V183H80.5254C81.4102 183 82.1074 183.196 82.6172 183.589C83.1328 183.981 83.3906 184.518 83.3906 185.197C83.3906 186.363 82.8164 187.072 81.668 187.324C83.0449 187.5 83.7334 188.194 83.7334 189.407C83.7334 190.14 83.4492 190.755 82.8809 191.253C82.3184 191.751 81.6182 192 80.7803 192H76.6055ZM78.0469 184.23V186.762H80.209C81.3691 186.762 81.9492 186.311 81.9492 185.408C81.9492 184.623 81.4277 184.23 80.3848 184.23H78.0469ZM78.0469 187.992V190.77H80.543C81.709 190.77 82.292 190.298 82.292 189.354C82.292 188.446 81.6387 187.992 80.332 187.992H78.0469ZM95.9941 192H94.5703V183H95.9941V192ZM86.1504 192V183H87.5918V186.454H90.0176C90.9375 186.454 91.667 186.694 92.2061 187.175C92.751 187.655 93.0234 188.326 93.0234 189.188C93.0234 190.055 92.751 190.74 92.2061 191.244C91.6611 191.748 90.9727 192 90.1406 192H86.1504ZM87.5918 187.693V190.77H89.7539C90.9492 190.77 91.5469 190.242 91.5469 189.188C91.5469 188.191 90.9434 187.693 89.7363 187.693H87.5918ZM105.891 178.57V179.924C105.65 180.1 105.264 180.231 104.73 180.319C103.412 180.519 102.489 180.712 101.962 180.899C101.44 181.081 101.01 181.474 100.67 182.077C100.336 182.681 100.122 183.562 100.028 184.723H100.063C100.767 183.703 101.769 183.193 103.069 183.193C104.259 183.193 105.217 183.601 105.943 184.415C106.67 185.229 107.033 186.305 107.033 187.641C107.033 189.018 106.652 190.125 105.891 190.963C105.135 191.795 104.115 192.211 102.832 192.211C101.449 192.211 100.383 191.722 99.6328 190.743C98.8887 189.759 98.5166 188.355 98.5166 186.533C98.5166 185.115 98.6514 183.914 98.9209 182.93C99.1904 181.939 99.5625 181.195 100.037 180.697C100.518 180.199 101.048 179.856 101.628 179.669C102.214 179.481 103.216 179.262 104.634 179.01C105.196 178.881 105.615 178.734 105.891 178.57ZM100.011 186.146V187.395C100.017 187.863 100.087 188.323 100.222 188.774C100.356 189.226 100.55 189.624 100.802 189.97C101.054 190.315 101.35 190.573 101.689 190.743C102.035 190.913 102.428 190.998 102.867 190.998C103.67 190.998 104.317 190.699 104.81 190.102C105.308 189.498 105.557 188.728 105.557 187.79C105.557 186.759 105.302 185.941 104.792 185.338C104.288 184.729 103.605 184.424 102.744 184.424C101.537 184.424 100.626 184.998 100.011 186.146ZM113.115 192.211C111.785 192.211 110.722 191.792 109.925 190.954C109.134 190.11 108.738 188.994 108.738 187.605C108.738 186.094 109.151 184.913 109.978 184.063C110.804 183.214 111.92 182.789 113.326 182.789C114.668 182.789 115.714 183.202 116.464 184.028C117.22 184.854 117.598 186 117.598 187.465C117.598 188.9 117.19 190.052 116.376 190.919C115.567 191.78 114.48 192.211 113.115 192.211ZM113.221 184.002C112.295 184.002 111.562 184.318 111.023 184.951C110.484 185.578 110.215 186.445 110.215 187.553C110.215 188.619 110.487 189.46 111.032 190.075C111.577 190.69 112.307 190.998 113.221 190.998C114.152 190.998 114.867 190.696 115.365 190.093C115.869 189.489 116.121 188.631 116.121 187.518C116.121 186.393 115.869 185.525 115.365 184.916C114.867 184.307 114.152 184.002 113.221 184.002ZM121.377 190.699H121.342V196.14H119.9V183H121.342V184.582H121.377C122.086 183.387 123.123 182.789 124.488 182.789C125.648 182.789 126.554 183.193 127.204 184.002C127.854 184.805 128.18 185.883 128.18 187.236C128.18 188.742 127.813 189.949 127.081 190.857C126.349 191.76 125.347 192.211 124.075 192.211C122.909 192.211 122.01 191.707 121.377 190.699ZM121.342 187.069V188.326C121.342 189.07 121.582 189.703 122.062 190.225C122.549 190.74 123.164 190.998 123.908 190.998C124.781 190.998 125.464 190.664 125.956 189.996C126.454 189.328 126.703 188.399 126.703 187.21C126.703 186.208 126.472 185.423 126.009 184.854C125.546 184.286 124.919 184.002 124.128 184.002C123.29 184.002 122.616 184.295 122.106 184.881C121.597 185.461 121.342 186.19 121.342 187.069ZM136.925 192H135.483V190.594H135.448C134.821 191.672 133.898 192.211 132.68 192.211C131.783 192.211 131.08 191.974 130.57 191.499C130.066 191.024 129.814 190.395 129.814 189.609C129.814 187.928 130.805 186.949 132.785 186.674L135.483 186.296C135.483 184.767 134.865 184.002 133.629 184.002C132.545 184.002 131.566 184.371 130.693 185.109V183.633C131.578 183.07 132.598 182.789 133.752 182.789C135.867 182.789 136.925 183.908 136.925 186.146V192ZM135.483 187.447L133.312 187.746C132.645 187.84 132.141 188.007 131.801 188.247C131.461 188.481 131.291 188.9 131.291 189.504C131.291 189.943 131.446 190.304 131.757 190.585C132.073 190.86 132.492 190.998 133.014 190.998C133.729 190.998 134.317 190.749 134.78 190.251C135.249 189.747 135.483 189.111 135.483 188.344V187.447ZM11.8213 216H10.3799V208.23H5.79199V216H4.35059V207H11.8213V216ZM18.501 216.211C17.1709 216.211 16.1074 215.792 15.3105 214.954C14.5195 214.11 14.124 212.994 14.124 211.605C14.124 210.094 14.5371 208.913 15.3633 208.063C16.1895 207.214 17.3057 206.789 18.7119 206.789C20.0537 206.789 21.0996 207.202 21.8496 208.028C22.6055 208.854 22.9834 210 22.9834 211.465C22.9834 212.9 22.5762 214.052 21.7617 214.919C20.9531 215.78 19.8662 216.211 18.501 216.211ZM18.6064 208.002C17.6807 208.002 16.9482 208.318 16.4092 208.951C15.8701 209.578 15.6006 210.445 15.6006 211.553C15.6006 212.619 15.873 213.46 16.418 214.075C16.9629 214.69 17.6924 214.998 18.6064 214.998C19.5381 214.998 20.2529 214.696 20.751 214.093C21.2549 213.489 21.5068 212.631 21.5068 211.518C21.5068 210.393 21.2549 209.525 20.751 208.916C20.2529 208.307 19.5381 208.002 18.6064 208.002ZM33.1348 219.278H31.9131V216H25.2158V219.278H23.9854V214.778H24.7852C26.3203 212.563 27.0996 209.971 27.123 207H31.7988V214.778H33.1348V219.278ZM30.3574 214.778V208.222H28.3623C28.2041 210.647 27.5215 212.833 26.3145 214.778H30.3574ZM41.7041 207L38.6807 211.553L41.6514 216H39.9727L38.2061 213.082C38.0947 212.9 37.9629 212.672 37.8105 212.396H37.7754C37.7461 212.449 37.6084 212.678 37.3623 213.082L35.5605 216H33.8994L36.9668 211.588L34.0312 207H35.71L37.4502 210.076C37.5791 210.305 37.7051 210.539 37.8281 210.779H37.8633L40.1133 207H41.7041ZM47.1533 216.211C45.8232 216.211 44.7598 215.792 43.9629 214.954C43.1719 214.11 42.7764 212.994 42.7764 211.605C42.7764 210.094 43.1895 208.913 44.0156 208.063C44.8418 207.214 45.958 206.789 47.3643 206.789C48.7061 206.789 49.752 207.202 50.502 208.028C51.2578 208.854 51.6357 210 51.6357 211.465C51.6357 212.9 51.2285 214.052 50.4141 214.919C49.6055 215.78 48.5186 216.211 47.1533 216.211ZM47.2588 208.002C46.333 208.002 45.6006 208.318 45.0615 208.951C44.5225 209.578 44.2529 210.445 44.2529 211.553C44.2529 212.619 44.5254 213.46 45.0703 214.075C45.6152 214.69 46.3447 214.998 47.2588 214.998C48.1904 214.998 48.9053 214.696 49.4033 214.093C49.9072 213.489 50.1592 212.631 50.1592 211.518C50.1592 210.393 49.9072 209.525 49.4033 208.916C48.9053 208.307 48.1904 208.002 47.2588 208.002ZM61.7871 219.278H60.5654V216H53.8682V219.278H52.6377V214.778H53.4375C54.9727 212.563 55.752 209.971 55.7754 207H60.4512V214.778H61.7871V219.278ZM59.0098 214.778V208.222H57.0146C56.8564 210.647 56.1738 212.833 54.9668 214.778H59.0098ZM69.9346 216H68.4932V212.273H67.2891C66.709 212.273 66.1816 212.742 65.707 213.68L64.5381 216H62.8682L64.3799 213.223C64.7314 212.578 65.1562 212.153 65.6543 211.948C64.9512 211.854 64.415 211.597 64.0459 211.175C63.6768 210.753 63.4922 210.226 63.4922 209.593C63.4922 208.796 63.7793 208.166 64.3535 207.703C64.9336 207.234 65.7451 207 66.7881 207H69.9346V216ZM68.4932 211.069V208.23H66.7881C65.5752 208.23 64.9688 208.69 64.9688 209.61C64.9688 210.583 65.5576 211.069 66.7354 211.069H68.4932ZM85.667 219.278H84.4102V216H72.835V207H74.2764V214.778H77.8535V207H79.2949V214.778H82.8809V207H84.3223V214.778H85.667V219.278ZM94.9043 211.86H88.5498C88.5732 212.862 88.8428 213.636 89.3584 214.181C89.874 214.726 90.583 214.998 91.4854 214.998C92.499 214.998 93.4307 214.664 94.2803 213.996V215.35C93.4893 215.924 92.4434 216.211 91.1426 216.211C89.8711 216.211 88.8721 215.804 88.1455 214.989C87.4189 214.169 87.0557 213.018 87.0557 211.535C87.0557 210.135 87.4512 208.995 88.2422 208.116C89.0391 207.231 90.0264 206.789 91.2041 206.789C92.3818 206.789 93.293 207.17 93.9375 207.932C94.582 208.693 94.9043 209.751 94.9043 211.104V211.86ZM93.4277 210.639C93.4219 209.807 93.2197 209.159 92.8213 208.696C92.4287 208.233 91.8809 208.002 91.1777 208.002C90.498 208.002 89.9209 208.245 89.4463 208.731C88.9717 209.218 88.6787 209.854 88.5674 210.639H93.4277ZM102.094 208.23H98.5342V216H97.0928V207H102.094V208.23ZM107.745 216.211C106.415 216.211 105.352 215.792 104.555 214.954C103.764 214.11 103.368 212.994 103.368 211.605C103.368 210.094 103.781 208.913 104.607 208.063C105.434 207.214 106.55 206.789 107.956 206.789C109.298 206.789 110.344 207.202 111.094 208.028C111.85 208.854 112.228 210 112.228 211.465C112.228 212.9 111.82 214.052 111.006 214.919C110.197 215.78 109.11 216.211 107.745 216.211ZM107.851 208.002C106.925 208.002 106.192 208.318 105.653 208.951C105.114 209.578 104.845 210.445 104.845 211.553C104.845 212.619 105.117 213.46 105.662 214.075C106.207 214.69 106.937 214.998 107.851 214.998C108.782 214.998 109.497 214.696 109.995 214.093C110.499 213.489 110.751 212.631 110.751 211.518C110.751 210.393 110.499 209.525 109.995 208.916C109.497 208.307 108.782 208.002 107.851 208.002ZM125.121 208.23H122.423V216H120.981V208.23H118.274V207H125.121V208.23ZM133.295 216H131.854V214.594H131.818C131.191 215.672 130.269 216.211 129.05 216.211C128.153 216.211 127.45 215.974 126.94 215.499C126.437 215.024 126.185 214.395 126.185 213.609C126.185 211.928 127.175 210.949 129.155 210.674L131.854 210.296C131.854 208.767 131.235 208.002 129.999 208.002C128.915 208.002 127.937 208.371 127.063 209.109V207.633C127.948 207.07 128.968 206.789 130.122 206.789C132.237 206.789 133.295 207.908 133.295 210.146V216ZM131.854 211.447L129.683 211.746C129.015 211.84 128.511 212.007 128.171 212.247C127.831 212.481 127.661 212.9 127.661 213.504C127.661 213.943 127.816 214.304 128.127 214.585C128.443 214.86 128.862 214.998 129.384 214.998C130.099 214.998 130.688 214.749 131.15 214.251C131.619 213.747 131.854 213.111 131.854 212.344V211.447ZM137.487 214.699H137.452V220.14H136.011V207H137.452V208.582H137.487C138.196 207.387 139.233 206.789 140.599 206.789C141.759 206.789 142.664 207.193 143.314 208.002C143.965 208.805 144.29 209.883 144.29 211.236C144.29 212.742 143.924 213.949 143.191 214.857C142.459 215.76 141.457 216.211 140.186 216.211C139.02 216.211 138.12 215.707 137.487 214.699ZM137.452 211.069V212.326C137.452 213.07 137.692 213.703 138.173 214.225C138.659 214.74 139.274 214.998 140.019 214.998C140.892 214.998 141.574 214.664 142.066 213.996C142.564 213.328 142.813 212.399 142.813 211.21C142.813 210.208 142.582 209.423 142.119 208.854C141.656 208.286 141.029 208.002 140.238 208.002C139.4 208.002 138.727 208.295 138.217 208.881C137.707 209.461 137.452 210.19 137.452 211.069ZM154.134 216H152.833V208.819C152.704 209.071 152.508 209.426 152.244 209.883L148.087 216H146.593V207H147.911V214.093C147.981 213.923 148.134 213.633 148.368 213.223L152.64 207H154.134V216ZM162.413 216.211V220.236H161.112V216.211H160.831C159.519 216.211 158.458 215.786 157.649 214.937C156.841 214.087 156.437 212.977 156.437 211.605C156.437 210.146 156.844 208.98 157.658 208.107C158.479 207.229 159.56 206.789 160.901 206.789H161.112V203.186H162.413V206.789H162.606C163.96 206.789 165.044 207.226 165.858 208.099C166.679 208.966 167.089 210.135 167.089 211.605C167.089 212.977 166.688 214.087 165.885 214.937C165.082 215.786 164.027 216.211 162.721 216.211H162.413ZM162.413 208.002V214.998H162.606C163.521 214.998 164.25 214.69 164.795 214.075C165.34 213.454 165.612 212.613 165.612 211.553C165.612 210.439 165.343 209.569 164.804 208.942C164.271 208.315 163.553 208.002 162.65 208.002H162.413ZM161.112 214.998V208.002H160.901C159.999 208.002 159.275 208.318 158.73 208.951C158.186 209.578 157.913 210.445 157.913 211.553C157.913 212.602 158.186 213.439 158.73 214.066C159.281 214.688 160.017 214.998 160.937 214.998H161.112ZM175.852 216H174.41V214.594H174.375C173.748 215.672 172.825 216.211 171.606 216.211C170.71 216.211 170.007 215.974 169.497 215.499C168.993 215.024 168.741 214.395 168.741 213.609C168.741 211.928 169.731 210.949 171.712 210.674L174.41 210.296C174.41 208.767 173.792 208.002 172.556 208.002C171.472 208.002 170.493 208.371 169.62 209.109V207.633C170.505 207.07 171.524 206.789 172.679 206.789C174.794 206.789 175.852 207.908 175.852 210.146V216ZM174.41 211.447L172.239 211.746C171.571 211.84 171.067 212.007 170.728 212.247C170.388 212.481 170.218 212.9 170.218 213.504C170.218 213.943 170.373 214.304 170.684 214.585C171 214.86 171.419 214.998 171.94 214.998C172.655 214.998 173.244 214.749 173.707 214.251C174.176 213.747 174.41 213.111 174.41 212.344V211.447Z" fill="black"/>
<path d="M1002.79 168H1001.29V156.768H994.708V168H993.223V155.396H1002.79V168ZM1007.34 166.699H1007.3V172.14H1005.86V159H1007.3V160.582H1007.34C1008.05 159.387 1009.08 158.789 1010.45 158.789C1011.61 158.789 1012.51 159.193 1013.17 160.002C1013.82 160.805 1014.14 161.883 1014.14 163.236C1014.14 164.742 1013.77 165.949 1013.04 166.857C1012.31 167.76 1011.31 168.211 1010.04 168.211C1008.87 168.211 1007.97 167.707 1007.34 166.699ZM1007.3 163.069V164.326C1007.3 165.07 1007.54 165.703 1008.02 166.225C1008.51 166.74 1009.12 166.998 1009.87 166.998C1010.74 166.998 1011.42 166.664 1011.92 165.996C1012.42 165.328 1012.66 164.399 1012.66 163.21C1012.66 162.208 1012.43 161.423 1011.97 160.854C1011.51 160.286 1010.88 160.002 1010.09 160.002C1009.25 160.002 1008.58 160.295 1008.07 160.881C1007.56 161.461 1007.3 162.19 1007.3 163.069ZM1023.68 163.86H1017.32C1017.35 164.862 1017.62 165.636 1018.13 166.181C1018.65 166.726 1019.36 166.998 1020.26 166.998C1021.27 166.998 1022.2 166.664 1023.05 165.996V167.35C1022.26 167.924 1021.22 168.211 1019.92 168.211C1018.64 168.211 1017.64 167.804 1016.92 166.989C1016.19 166.169 1015.83 165.018 1015.83 163.535C1015.83 162.135 1016.22 160.995 1017.01 160.116C1017.81 159.231 1018.8 158.789 1019.98 158.789C1021.15 158.789 1022.07 159.17 1022.71 159.932C1023.35 160.693 1023.68 161.751 1023.68 163.104V163.86ZM1022.2 162.639C1022.19 161.807 1021.99 161.159 1021.59 160.696C1021.2 160.233 1020.65 160.002 1019.95 160.002C1019.27 160.002 1018.69 160.245 1018.22 160.731C1017.74 161.218 1017.45 161.854 1017.34 162.639H1022.2ZM1033.71 171.278H1032.49V168H1025.79V171.278H1024.56V166.778H1025.36C1026.9 164.563 1027.68 161.971 1027.7 159H1032.38V166.778H1033.71V171.278ZM1030.94 166.778V160.222H1028.94C1028.78 162.647 1028.1 164.833 1026.89 166.778H1030.94ZM1039.47 168.211C1038.14 168.211 1037.08 167.792 1036.28 166.954C1035.49 166.11 1035.09 164.994 1035.09 163.605C1035.09 162.094 1035.51 160.913 1036.33 160.063C1037.16 159.214 1038.28 158.789 1039.68 158.789C1041.02 158.789 1042.07 159.202 1042.82 160.028C1043.58 160.854 1043.95 162 1043.95 163.465C1043.95 164.9 1043.55 166.052 1042.73 166.919C1041.92 167.78 1040.84 168.211 1039.47 168.211ZM1039.58 160.002C1038.65 160.002 1037.92 160.318 1037.38 160.951C1036.84 161.578 1036.57 162.445 1036.57 163.553C1036.57 164.619 1036.84 165.46 1037.39 166.075C1037.93 166.69 1038.66 166.998 1039.58 166.998C1040.51 166.998 1041.22 166.696 1041.72 166.093C1042.22 165.489 1042.48 164.631 1042.48 163.518C1042.48 162.393 1042.22 161.525 1041.72 160.916C1041.22 160.307 1040.51 160.002 1039.58 160.002ZM1052.39 167.587C1051.7 168.003 1050.88 168.211 1049.93 168.211C1048.65 168.211 1047.61 167.795 1046.82 166.963C1046.03 166.125 1045.64 165.041 1045.64 163.711C1045.64 162.229 1046.07 161.039 1046.92 160.143C1047.76 159.24 1048.9 158.789 1050.32 158.789C1051.11 158.789 1051.8 158.936 1052.41 159.229V160.705C1051.74 160.236 1051.03 160.002 1050.26 160.002C1049.34 160.002 1048.59 160.333 1048 160.995C1047.41 161.651 1047.12 162.516 1047.12 163.588C1047.12 164.643 1047.39 165.475 1047.94 166.084C1048.5 166.693 1049.24 166.998 1050.18 166.998C1050.96 166.998 1051.7 166.737 1052.39 166.216V167.587ZM1060.22 160.23H1057.52V168H1056.08V160.23H1053.38V159H1060.22V160.23ZM1068.4 168H1066.95V166.594H1066.92C1066.29 167.672 1065.37 168.211 1064.15 168.211C1063.25 168.211 1062.55 167.974 1062.04 167.499C1061.54 167.024 1061.29 166.395 1061.29 165.609C1061.29 163.928 1062.28 162.949 1064.26 162.674L1066.95 162.296C1066.95 160.767 1066.34 160.002 1065.1 160.002C1064.02 160.002 1063.04 160.371 1062.16 161.109V159.633C1063.05 159.07 1064.07 158.789 1065.22 158.789C1067.34 158.789 1068.4 159.908 1068.4 162.146V168ZM1066.95 163.447L1064.78 163.746C1064.12 163.84 1063.61 164.007 1063.27 164.247C1062.93 164.481 1062.76 164.9 1062.76 165.504C1062.76 165.943 1062.92 166.304 1063.23 166.585C1063.54 166.86 1063.96 166.998 1064.48 166.998C1065.2 166.998 1065.79 166.749 1066.25 166.251C1066.72 165.747 1066.95 165.111 1066.95 164.344V163.447ZM1071.11 168V159H1075.03C1075.92 159 1076.61 159.196 1077.12 159.589C1077.64 159.981 1077.9 160.518 1077.9 161.197C1077.9 162.363 1077.32 163.072 1076.17 163.324C1077.55 163.5 1078.24 164.194 1078.24 165.407C1078.24 166.14 1077.96 166.755 1077.39 167.253C1076.82 167.751 1076.12 168 1075.29 168H1071.11ZM1072.55 160.23V162.762H1074.71C1075.88 162.762 1076.46 162.311 1076.46 161.408C1076.46 160.623 1075.93 160.23 1074.89 160.23H1072.55ZM1072.55 163.992V166.77H1075.05C1076.21 166.77 1076.8 166.298 1076.8 165.354C1076.8 164.446 1076.14 163.992 1074.84 163.992H1072.55ZM1088.2 168H1086.9V160.819C1086.77 161.071 1086.57 161.426 1086.31 161.883L1082.15 168H1080.66V159H1081.97V166.093C1082.04 165.923 1082.2 165.633 1082.43 165.223L1086.7 159H1088.2V168ZM1100.84 168H1099.41V160.582C1099.28 160.957 1099.08 161.508 1098.81 162.234L1096.56 168H1095.27L1092.95 162.234C1092.83 161.924 1092.63 161.373 1092.35 160.582V168H1091.12V159H1092.95L1095.33 164.871C1095.5 165.299 1095.71 165.891 1095.98 166.646L1096.62 164.906L1098.92 159H1100.84V168ZM1116.54 171.278H1115.32V168H1108.62V171.278H1107.39V166.778H1108.19C1109.73 164.563 1110.51 161.971 1110.53 159H1115.21V166.778H1116.54V171.278ZM1113.76 166.778V160.222H1111.77C1111.61 162.647 1110.93 164.833 1109.72 166.778H1113.76ZM1122.3 168.211C1120.97 168.211 1119.91 167.792 1119.11 166.954C1118.32 166.11 1117.92 164.994 1117.92 163.605C1117.92 162.094 1118.33 160.913 1119.16 160.063C1119.99 159.214 1121.1 158.789 1122.51 158.789C1123.85 158.789 1124.9 159.202 1125.65 160.028C1126.4 160.854 1126.78 162 1126.78 163.465C1126.78 164.9 1126.37 166.052 1125.56 166.919C1124.75 167.78 1123.66 168.211 1122.3 168.211ZM1122.4 160.002C1121.48 160.002 1120.75 160.318 1120.21 160.951C1119.67 161.578 1119.4 162.445 1119.4 163.553C1119.4 164.619 1119.67 165.46 1120.22 166.075C1120.76 166.69 1121.49 166.998 1122.4 166.998C1123.34 166.998 1124.05 166.696 1124.55 166.093C1125.05 165.489 1125.3 164.631 1125.3 163.518C1125.3 162.393 1125.05 161.525 1124.55 160.916C1124.05 160.307 1123.34 160.002 1122.4 160.002ZM1135.22 167.587C1134.53 168.003 1133.71 168.211 1132.76 168.211C1131.47 168.211 1130.44 167.795 1129.65 166.963C1128.86 166.125 1128.47 165.041 1128.47 163.711C1128.47 162.229 1128.89 161.039 1129.74 160.143C1130.59 159.24 1131.73 158.789 1133.14 158.789C1133.94 158.789 1134.63 158.936 1135.24 159.229V160.705C1134.57 160.236 1133.85 160.002 1133.09 160.002C1132.17 160.002 1131.42 160.333 1130.82 160.995C1130.24 161.651 1129.95 162.516 1129.95 163.588C1129.95 164.643 1130.22 165.475 1130.77 166.084C1131.33 166.693 1132.07 166.998 1133 166.998C1133.79 166.998 1134.53 166.737 1135.22 166.216V167.587ZM1143.05 160.23H1140.35V168H1138.91V160.23H1136.2V159H1143.05V160.23ZM1151.94 159L1147.8 169.441C1147.07 171.305 1146.03 172.236 1144.69 172.236C1144.32 172.236 1144 172.198 1143.75 172.122V170.83C1144.06 170.936 1144.35 170.988 1144.61 170.988C1145.33 170.988 1145.88 170.555 1146.24 169.688L1146.96 167.982L1143.45 159H1145.04L1147.48 165.926C1147.51 166.014 1147.57 166.242 1147.66 166.611H1147.72C1147.75 166.471 1147.8 166.248 1147.89 165.943L1150.45 159H1151.94ZM1160.97 168H1159.53V160.23H1154.94V168H1153.5V159H1160.97V168ZM1005.89 192H1003.87L999.894 187.676H999.858V192H998.417V183H999.858V187.122H999.894L1003.67 183H1005.56L1001.39 187.342L1005.89 192ZM1019.77 192H1018.33V184.23H1013.75V192H1012.3V183H1019.77V192ZM1026.45 192.211C1025.12 192.211 1024.06 191.792 1023.26 190.954C1022.47 190.11 1022.08 188.994 1022.08 187.605C1022.08 186.094 1022.49 184.913 1023.32 184.063C1024.14 183.214 1025.26 182.789 1026.67 182.789C1028.01 182.789 1029.05 183.202 1029.8 184.028C1030.56 184.854 1030.94 186 1030.94 187.465C1030.94 188.9 1030.53 190.052 1029.71 190.919C1028.91 191.78 1027.82 192.211 1026.45 192.211ZM1026.56 184.002C1025.63 184.002 1024.9 184.318 1024.36 184.951C1023.82 185.578 1023.55 186.445 1023.55 187.553C1023.55 188.619 1023.83 189.46 1024.37 190.075C1024.92 190.69 1025.65 190.998 1026.56 190.998C1027.49 190.998 1028.21 190.696 1028.7 190.093C1029.21 189.489 1029.46 188.631 1029.46 187.518C1029.46 186.393 1029.21 185.525 1028.7 184.916C1028.21 184.307 1027.49 184.002 1026.56 184.002ZM1039.8 192H1038.37V184.222H1036.28C1036.04 187.134 1035.63 189.179 1035.04 190.356C1034.46 191.534 1033.68 192.123 1032.69 192.123C1032.4 192.123 1032.14 192.082 1031.92 192V190.761C1032.13 190.866 1032.35 190.919 1032.59 190.919C1033.88 190.919 1034.71 188.279 1035.08 183H1039.8V192ZM1050.2 192H1048.76V187.913H1044.17V192H1042.73V183H1044.17V186.691H1048.76V183H1050.2V192ZM1056.88 192.211C1055.55 192.211 1054.49 191.792 1053.69 190.954C1052.9 190.11 1052.5 188.994 1052.5 187.605C1052.5 186.094 1052.92 184.913 1053.74 184.063C1054.57 183.214 1055.69 182.789 1057.09 182.789C1058.43 182.789 1059.48 183.202 1060.23 184.028C1060.99 184.854 1061.36 186 1061.36 187.465C1061.36 188.9 1060.96 190.052 1060.14 190.919C1059.33 191.78 1058.25 192.211 1056.88 192.211ZM1056.99 184.002C1056.06 184.002 1055.33 184.318 1054.79 184.951C1054.25 185.578 1053.98 186.445 1053.98 187.553C1053.98 188.619 1054.25 189.46 1054.8 190.075C1055.34 190.69 1056.07 190.998 1056.99 190.998C1057.92 190.998 1058.63 190.696 1059.13 190.093C1059.64 189.489 1059.89 188.631 1059.89 187.518C1059.89 186.393 1059.64 185.525 1059.13 184.916C1058.63 184.307 1057.92 184.002 1056.99 184.002ZM1071.21 192H1069.91V184.819C1069.78 185.071 1069.58 185.426 1069.32 185.883L1065.16 192H1063.67V183H1064.99V190.093C1065.06 189.923 1065.21 189.633 1065.44 189.223L1069.71 183H1071.21V192ZM1070.68 178.623C1070.59 179.449 1070.26 180.103 1069.68 180.583C1069.1 181.058 1068.38 181.295 1067.52 181.295C1066.63 181.295 1065.9 181.058 1065.34 180.583C1064.78 180.103 1064.48 179.449 1064.42 178.623H1065.85C1065.93 179.725 1066.49 180.275 1067.53 180.275C1068 180.275 1068.39 180.132 1068.69 179.845C1069 179.552 1069.19 179.145 1069.26 178.623H1070.68ZM1086.54 192H1085.09V184.23H1080.51V192H1079.07V183H1086.54V192ZM1090.93 190.699H1090.9V196.14H1089.45V183H1090.9V184.582H1090.93C1091.64 183.387 1092.68 182.789 1094.04 182.789C1095.2 182.789 1096.11 183.193 1096.76 184.002C1097.41 184.805 1097.73 185.883 1097.73 187.236C1097.73 188.742 1097.37 189.949 1096.63 190.857C1095.9 191.76 1094.9 192.211 1093.63 192.211C1092.46 192.211 1091.56 191.707 1090.93 190.699ZM1090.9 187.069V188.326C1090.9 189.07 1091.14 189.703 1091.62 190.225C1092.1 190.74 1092.72 190.998 1093.46 190.998C1094.33 190.998 1095.02 190.664 1095.51 189.996C1096.01 189.328 1096.26 188.399 1096.26 187.21C1096.26 186.208 1096.03 185.423 1095.56 184.854C1095.1 184.286 1094.47 184.002 1093.68 184.002C1092.84 184.002 1092.17 184.295 1091.66 184.881C1091.15 185.461 1090.9 186.19 1090.9 187.069ZM1103.8 192.211C1102.47 192.211 1101.4 191.792 1100.61 190.954C1099.82 190.11 1099.42 188.994 1099.42 187.605C1099.42 186.094 1099.83 184.913 1100.66 184.063C1101.49 183.214 1102.6 182.789 1104.01 182.789C1105.35 182.789 1106.4 183.202 1107.15 184.028C1107.9 184.854 1108.28 186 1108.28 187.465C1108.28 188.9 1107.87 190.052 1107.06 190.919C1106.25 191.78 1105.16 192.211 1103.8 192.211ZM1103.9 184.002C1102.98 184.002 1102.25 184.318 1101.71 184.951C1101.17 185.578 1100.9 186.445 1100.9 187.553C1100.9 188.619 1101.17 189.46 1101.71 190.075C1102.26 190.69 1102.99 190.998 1103.9 190.998C1104.83 190.998 1105.55 190.696 1106.05 190.093C1106.55 189.489 1106.8 188.631 1106.8 187.518C1106.8 186.393 1106.55 185.525 1106.05 184.916C1105.55 184.307 1104.83 184.002 1103.9 184.002ZM1110.58 192V183H1114.5C1115.39 183 1116.08 183.196 1116.59 183.589C1117.11 183.981 1117.37 184.518 1117.37 185.197C1117.37 186.363 1116.79 187.072 1115.65 187.324C1117.02 187.5 1117.71 188.194 1117.71 189.407C1117.71 190.14 1117.43 190.755 1116.86 191.253C1116.3 191.751 1115.6 192 1114.76 192H1110.58ZM1112.02 184.23V186.762H1114.19C1115.35 186.762 1115.93 186.311 1115.93 185.408C1115.93 184.623 1115.41 184.23 1114.36 184.23H1112.02ZM1112.02 187.992V190.77H1114.52C1115.69 190.77 1116.27 190.298 1116.27 189.354C1116.27 188.446 1115.62 187.992 1114.31 187.992H1112.02ZM1127.36 187.86H1121.01C1121.03 188.862 1121.3 189.636 1121.82 190.181C1122.33 190.726 1123.04 190.998 1123.94 190.998C1124.96 190.998 1125.89 190.664 1126.74 189.996V191.35C1125.95 191.924 1124.9 192.211 1123.6 192.211C1122.33 192.211 1121.33 191.804 1120.6 190.989C1119.88 190.169 1119.51 189.018 1119.51 187.535C1119.51 186.135 1119.91 184.995 1120.7 184.116C1121.5 183.231 1122.48 182.789 1123.66 182.789C1124.84 182.789 1125.75 183.17 1126.39 183.932C1127.04 184.693 1127.36 185.751 1127.36 187.104V187.86ZM1125.88 186.639C1125.88 185.807 1125.68 185.159 1125.28 184.696C1124.89 184.233 1124.34 184.002 1123.63 184.002C1122.96 184.002 1122.38 184.245 1121.9 184.731C1121.43 185.218 1121.14 185.854 1121.02 186.639H1125.88ZM1131.03 190.699H1130.99V196.14H1129.55V183H1130.99V184.582H1131.03C1131.74 183.387 1132.77 182.789 1134.14 182.789C1135.3 182.789 1136.2 183.193 1136.85 184.002C1137.5 184.805 1137.83 185.883 1137.83 187.236C1137.83 188.742 1137.46 189.949 1136.73 190.857C1136 191.76 1135 192.211 1133.72 192.211C1132.56 192.211 1131.66 191.707 1131.03 190.699ZM1130.99 187.069V188.326C1130.99 189.07 1131.23 189.703 1131.71 190.225C1132.2 190.74 1132.81 190.998 1133.56 190.998C1134.43 190.998 1135.11 190.664 1135.61 189.996C1136.1 189.328 1136.35 188.399 1136.35 187.21C1136.35 186.208 1136.12 185.423 1135.66 184.854C1135.2 184.286 1134.57 184.002 1133.78 184.002C1132.94 184.002 1132.27 184.295 1131.76 184.881C1131.25 185.461 1130.99 186.19 1130.99 187.069ZM1147.6 192H1145.58L1141.61 187.676H1141.57V192H1140.13V183H1141.57V187.122H1141.61L1145.39 183H1147.28L1143.1 187.342L1147.6 192ZM1156.31 187.86H1149.96C1149.98 188.862 1150.25 189.636 1150.77 190.181C1151.28 190.726 1151.99 190.998 1152.89 190.998C1153.91 190.998 1154.84 190.664 1155.69 189.996V191.35C1154.9 191.924 1153.85 192.211 1152.55 192.211C1151.28 192.211 1150.28 191.804 1149.55 190.989C1148.83 190.169 1148.46 189.018 1148.46 187.535C1148.46 186.135 1148.86 184.995 1149.65 184.116C1150.45 183.231 1151.43 182.789 1152.61 182.789C1153.79 182.789 1154.7 183.17 1155.35 183.932C1155.99 184.693 1156.31 185.751 1156.31 187.104V187.86ZM1154.84 186.639C1154.83 185.807 1154.63 185.159 1154.23 184.696C1153.84 184.233 1153.29 184.002 1152.59 184.002C1151.91 184.002 1151.33 184.245 1150.85 184.731C1150.38 185.218 1150.09 185.854 1149.98 186.639H1154.84ZM1035.11 216H1033.09L1029.12 211.676H1029.08V216H1027.64V207H1029.08V211.122H1029.12L1032.9 207H1034.79L1030.61 211.342L1035.11 216ZM1040.35 216.211C1039.02 216.211 1037.96 215.792 1037.16 214.954C1036.37 214.11 1035.97 212.994 1035.97 211.605C1035.97 210.094 1036.39 208.913 1037.21 208.063C1038.04 207.214 1039.15 206.789 1040.56 206.789C1041.9 206.789 1042.95 207.202 1043.7 208.028C1044.45 208.854 1044.83 210 1044.83 211.465C1044.83 212.9 1044.42 214.052 1043.61 214.919C1042.8 215.78 1041.71 216.211 1040.35 216.211ZM1040.46 208.002C1039.53 208.002 1038.8 208.318 1038.26 208.951C1037.72 209.578 1037.45 210.445 1037.45 211.553C1037.45 212.619 1037.72 213.46 1038.27 214.075C1038.81 214.69 1039.54 214.998 1040.46 214.998C1041.39 214.998 1042.1 214.696 1042.6 214.093C1043.1 213.489 1043.36 212.631 1043.36 211.518C1043.36 210.393 1043.1 209.525 1042.6 208.916C1042.1 208.307 1041.39 208.002 1040.46 208.002ZM1054.61 216H1053.16V211.913H1048.58V216H1047.13V207H1048.58V210.691H1053.16V207H1054.61V216ZM1063.17 208.23H1060.48V216H1059.04V208.23H1056.33V207H1063.17V208.23ZM1066.38 214.699H1066.35V220.14H1064.91V207H1066.35V208.582H1066.38C1067.09 207.387 1068.13 206.789 1069.49 206.789C1070.65 206.789 1071.56 207.193 1072.21 208.002C1072.86 208.805 1073.19 209.883 1073.19 211.236C1073.19 212.742 1072.82 213.949 1072.09 214.857C1071.35 215.76 1070.35 216.211 1069.08 216.211C1067.92 216.211 1067.02 215.707 1066.38 214.699ZM1066.35 211.069V212.326C1066.35 213.07 1066.59 213.703 1067.07 214.225C1067.55 214.74 1068.17 214.998 1068.91 214.998C1069.79 214.998 1070.47 214.664 1070.96 213.996C1071.46 213.328 1071.71 212.399 1071.71 211.21C1071.71 210.208 1071.48 209.423 1071.01 208.854C1070.55 208.286 1069.92 208.002 1069.13 208.002C1068.3 208.002 1067.62 208.295 1067.11 208.881C1066.6 209.461 1066.35 210.19 1066.35 211.069ZM1081.93 216H1080.49V214.594H1080.45C1079.83 215.672 1078.9 216.211 1077.69 216.211C1076.79 216.211 1076.09 215.974 1075.58 215.499C1075.07 215.024 1074.82 214.395 1074.82 213.609C1074.82 211.928 1075.81 210.949 1077.79 210.674L1080.49 210.296C1080.49 208.767 1079.87 208.002 1078.63 208.002C1077.55 208.002 1076.57 208.371 1075.7 209.109V207.633C1076.58 207.07 1077.6 206.789 1078.76 206.789C1080.87 206.789 1081.93 207.908 1081.93 210.146V216ZM1080.49 211.447L1078.32 211.746C1077.65 211.84 1077.15 212.007 1076.81 212.247C1076.47 212.481 1076.3 212.9 1076.3 213.504C1076.3 213.943 1076.45 214.304 1076.76 214.585C1077.08 214.86 1077.5 214.998 1078.02 214.998C1078.73 214.998 1079.32 214.749 1079.79 214.251C1080.25 213.747 1080.49 213.111 1080.49 212.344V211.447ZM1089.65 208.23H1086.09V216H1084.65V207H1089.65V208.23ZM1098.77 211.86H1092.42C1092.44 212.862 1092.71 213.636 1093.22 214.181C1093.74 214.726 1094.45 214.998 1095.35 214.998C1096.37 214.998 1097.3 214.664 1098.15 213.996V215.35C1097.36 215.924 1096.31 216.211 1095.01 216.211C1093.74 216.211 1092.74 215.804 1092.01 214.989C1091.29 214.169 1090.92 213.018 1090.92 211.535C1090.92 210.135 1091.32 208.995 1092.11 208.116C1092.91 207.231 1093.89 206.789 1095.07 206.789C1096.25 206.789 1097.16 207.17 1097.8 207.932C1098.45 208.693 1098.77 209.751 1098.77 211.104V211.86ZM1097.29 210.639C1097.29 209.807 1097.09 209.159 1096.69 208.696C1096.29 208.233 1095.75 208.002 1095.04 208.002C1094.36 208.002 1093.79 208.245 1093.31 208.731C1092.84 209.218 1092.54 209.854 1092.43 210.639H1097.29ZM1108.43 216H1106.99V211.913H1102.4V216H1100.96V207H1102.4V210.691H1106.99V207H1108.43V216ZM1117 208.23H1114.3V216H1112.86V208.23H1110.15V207H1117V208.23ZM1122.49 216.211C1121.16 216.211 1120.1 215.792 1119.3 214.954C1118.51 214.11 1118.12 212.994 1118.12 211.605C1118.12 210.094 1118.53 208.913 1119.35 208.063C1120.18 207.214 1121.3 206.789 1122.7 206.789C1124.04 206.789 1125.09 207.202 1125.84 208.028C1126.6 208.854 1126.97 210 1126.97 211.465C1126.97 212.9 1126.57 214.052 1125.75 214.919C1124.94 215.78 1123.86 216.211 1122.49 216.211ZM1122.6 208.002C1121.67 208.002 1120.94 208.318 1120.4 208.951C1119.86 209.578 1119.59 210.445 1119.59 211.553C1119.59 212.619 1119.86 213.46 1120.41 214.075C1120.95 214.69 1121.68 214.998 1122.6 214.998C1123.53 214.998 1124.24 214.696 1124.74 214.093C1125.25 213.489 1125.5 212.631 1125.5 211.518C1125.5 210.393 1125.25 209.525 1124.74 208.916C1124.24 208.307 1123.53 208.002 1122.6 208.002Z" fill="black"/>
<path d="M1113.13 65.9032H1102.8C1102.73 58.7768 1096.92 53 1089.78 53H1074.55C1067.41 53 1061.59 58.7768 1061.52 65.9032H1040.87C1038.74 65.9032 1037 67.64 1037 69.7742V116.226C1037 118.36 1038.74 120.097 1040.87 120.097H1062.81V125.258H1049.9C1048.48 125.258 1047.32 126.415 1047.32 127.839V130.419C1047.32 131.843 1048.48 133 1049.9 133H1104.1C1105.52 133 1106.68 131.843 1106.68 130.419V127.839C1106.68 126.415 1105.52 125.258 1104.1 125.258H1091.19V120.097H1113.13C1115.26 120.097 1117 118.36 1117 116.226V69.7742C1117 67.64 1115.26 65.9032 1113.13 65.9032ZM1114.42 69.7742V109.774H1097.52L1097.13 105.843C1096.64 100.954 1093.09 96.9239 1088.38 95.7716L1087.76 93.3084C1093.07 91.4194 1097.15 86.9381 1098.47 81.3871H1098.94C1101.78 81.3871 1104.1 79.0723 1104.1 76.2258C1104.1 74.4723 1103.21 72.9239 1101.87 71.991L1102.55 68.5871C1102.56 68.5535 1102.56 68.5187 1102.57 68.4839H1113.13C1113.84 68.4839 1114.42 69.0632 1114.42 69.7742ZM1090.28 102.41C1089.21 103.485 1088.61 104.916 1088.61 106.437V109.774H1075.71V106.437C1075.71 104.916 1075.12 103.485 1074.04 102.41L1072.22 104.235C1072.8 104.814 1073.13 105.618 1073.13 106.437V109.774H1069.39L1069.76 106.099C1070.09 102.832 1072.19 100.086 1075.09 98.8064L1077.68 105.279L1082.16 102.293L1086.64 105.279L1089.23 98.8064C1092.14 100.088 1094.23 102.834 1094.56 106.099L1094.93 109.774H1091.19V106.437C1091.19 105.618 1091.53 104.814 1092.11 104.235L1090.28 102.41ZM1065.39 73.6452V76.2258H1062.81C1062.81 74.8026 1063.96 73.6452 1065.39 73.6452ZM1075.71 68.4839H1093.77C1095.2 68.4839 1096.35 69.6413 1096.35 71.0645V77.5161C1096.35 85.3419 1089.99 91.7097 1082.16 91.7097C1079.91 91.7097 1077.7 91.1471 1075.71 90.129V78.8064C1075.71 78.7884 1075.7 78.7716 1075.7 78.7548C1077.15 78.5213 1078.36 77.5084 1078.84 76.089L1079.22 74.9355H1080.87V72.3548H1069.26V74.9355H1070.91L1071.29 76.089C1071.31 76.1368 1071.33 76.1794 1071.35 76.2258H1067.97V69.7458C1067.97 68.7123 1068.58 67.7819 1069.53 67.3742L1071.65 66.4684C1072.59 67.6852 1074.05 68.4839 1075.71 68.4839ZM1073.74 75.2723L1073.63 74.9355H1076.5L1076.39 75.2723C1076.2 75.8426 1075.67 76.2258 1075.06 76.2258C1074.46 76.2258 1073.93 75.8426 1073.74 75.2723ZM1075.51 92.9006C1075.85 93.0503 1076.21 93.169 1076.56 93.2955L1075.94 95.7716C1075.5 95.88 1075.08 96.0361 1074.66 96.1935C1075.05 95.1394 1075.34 94.04 1075.51 92.9006ZM1080.7 100.164L1078.9 101.366L1077.85 98.7368L1080.7 100.164ZM1086.48 98.7368L1085.43 101.366L1083.62 100.164L1086.48 98.7368ZM1085.82 96.1794L1082.16 98.009L1078.5 96.1794L1079.06 93.9652C1080.08 94.1587 1081.11 94.2903 1082.16 94.2903C1083.23 94.2903 1084.26 94.1794 1085.27 93.9897L1085.82 96.1794ZM1073.13 78.8064V90.4194C1073.13 98.2452 1066.76 104.613 1058.94 104.613C1051.11 104.613 1044.74 98.2452 1044.74 90.4194V78.8064H1073.13ZM1098.94 77.5161V73.6452C1100.36 73.6452 1101.52 74.8026 1101.52 76.2258C1101.52 77.649 1100.36 78.8064 1098.94 78.8064H1098.87C1098.9 78.3794 1098.94 77.9523 1098.94 77.5161ZM1074.55 55.5806H1089.78C1095.54 55.5806 1100.23 60.2684 1100.23 66.031C1100.23 66.7187 1100.16 67.4077 1100.02 68.08L1099.42 71.1135C1099.26 71.0981 1099.1 71.0645 1098.94 71.0645C1098.94 68.2181 1096.62 65.9032 1093.77 65.9032H1075.71C1074.29 65.9032 1073.13 64.7458 1073.13 63.3226C1073.13 61.8994 1074.29 60.7419 1075.71 60.7419H1075.9C1076.88 60.7419 1077.77 61.289 1078.21 62.1677L1078.43 62.609L1080.74 61.4542L1080.51 61.0129C1079.63 59.2542 1077.86 58.1613 1075.9 58.1613H1075.71C1072.86 58.1613 1070.55 60.4761 1070.55 63.3226C1070.55 63.5884 1070.59 63.8426 1070.63 64.0968L1068.52 65.0013C1066.62 65.8168 1065.39 67.6787 1065.39 69.7458V71.0645C1065.22 71.0645 1065.07 71.0981 1064.91 71.1135L1064.3 68.08C1064.17 67.4077 1064.1 66.7187 1064.1 66.031C1064.1 60.2684 1068.78 55.5806 1074.55 55.5806ZM1040.87 68.4839H1061.75C1061.76 68.5174 1061.76 68.5523 1061.77 68.5871L1062.45 71.991C1061.11 72.9239 1060.23 74.4723 1060.23 76.2258H1044.74C1043.32 76.2258 1042.16 77.3832 1042.16 78.8064V90.4194C1042.16 99.6684 1049.69 107.194 1058.94 107.194C1062.01 107.194 1064.88 106.348 1067.36 104.899C1067.3 105.213 1067.22 105.52 1067.19 105.843L1066.8 109.774H1039.58V69.7742C1039.58 69.0632 1040.16 68.4839 1040.87 68.4839ZM1104.1 130.419H1049.9V127.839H1104.1L1104.1 130.419ZM1088.61 125.258H1065.39V120.097H1088.61V125.258ZM1113.13 117.516H1109.26V114.935H1106.68V117.516H1104.1V114.935H1101.52V117.516H1098.94V114.935H1096.35V117.516H1040.87C1040.16 117.516 1039.58 116.937 1039.58 116.226V112.355H1114.42V116.226C1114.42 116.937 1113.84 117.516 1113.13 117.516Z" fill="#26ad50"/>
<path d="M1051.27 97.6953L1050.83 99.4514H1067.04L1066.6 97.694C1065.72 94.1701 1062.57 91.7095 1058.94 91.7095C1055.3 91.7095 1052.15 94.1701 1051.27 97.6953ZM1058.94 94.2901C1060.84 94.2901 1062.56 95.3004 1063.5 96.8708H1054.37C1055.32 95.2992 1057.03 94.2901 1058.94 94.2901Z" fill="#26ad50"/>
<path d="M1049.9 89.1291H1055.06C1056.49 89.1291 1057.64 87.9717 1057.64 86.5485V83.9679C1057.64 82.5446 1056.49 81.3872 1055.06 81.3872H1049.9C1048.48 81.3872 1047.32 82.5446 1047.32 83.9679V86.5485C1047.32 87.9717 1048.48 89.1291 1049.9 89.1291ZM1049.9 83.9679H1055.06L1055.07 86.5485H1049.9V83.9679Z" fill="#26ad50"/>
<path d="M1062.81 89.1291H1067.97C1069.39 89.1291 1070.55 87.9717 1070.55 86.5485V83.9679C1070.55 82.5446 1069.39 81.3872 1067.97 81.3872H1062.81C1061.38 81.3872 1060.23 82.5446 1060.23 83.9679V86.5485C1060.23 87.9717 1061.38 89.1291 1062.81 89.1291ZM1062.81 83.9679H1067.97L1067.97 86.5485H1062.81V83.9679Z" fill="#26ad50"/>
<path d="M1085.49 76.0887C1086.03 77.7132 1087.54 78.8061 1089.26 78.8061C1090.97 78.8061 1092.49 77.7132 1093.03 76.0887L1093.41 74.9351H1095.06V72.3545H1083.45V74.9351H1085.1L1085.49 76.0887ZM1090.58 75.2719C1090.39 75.8422 1089.86 76.2255 1089.26 76.2255C1088.66 76.2255 1088.12 75.8422 1087.94 75.2719L1087.82 74.9351H1090.69L1090.58 75.2719Z" fill="#26ad50"/>
<path d="M1078.29 86.5484H1081.09C1083.79 86.5484 1086.33 85.498 1088.24 83.5897L1086.41 81.7651C1084.99 83.1858 1083.1 83.9677 1081.09 83.9677H1078.29V86.5484Z" fill="#26ad50"/>
<path d="M1109.26 99.4517H1101.52C1100.09 99.4517 1098.94 100.609 1098.94 102.032V104.613C1098.94 106.036 1100.09 107.194 1101.52 107.194H1109.26C1110.68 107.194 1111.84 106.036 1111.84 104.613V102.032C1111.84 100.609 1110.68 99.4517 1109.26 99.4517ZM1101.52 104.613V102.032H1109.26L1109.26 104.613H1101.52Z" fill="#26ad50"/>
<path d="M1098.94 91.71V94.2907C1098.94 95.7139 1100.09 96.8713 1101.52 96.8713H1109.26C1110.68 96.8713 1111.84 95.7139 1111.84 94.2907V91.71C1111.84 90.2868 1110.68 89.1294 1109.26 89.1294H1101.52C1100.09 89.1294 1098.94 90.2868 1098.94 91.71ZM1109.26 94.2907H1101.52V91.71H1109.26L1109.26 94.2907Z" fill="#26ad50"/>
<path d="M1104.1 83.9678H1106.68V86.5484H1104.1V83.9678Z" fill="#26ad50"/>
<path d="M1109.26 83.9678H1111.84V86.5484H1109.26V83.9678Z" fill="#26ad50"/>
<path d="M381.4 168.211C379.613 168.211 378.181 167.622 377.103 166.444C376.03 165.267 375.494 163.734 375.494 161.848C375.494 159.82 376.042 158.203 377.138 156.996C378.233 155.789 379.725 155.186 381.611 155.186C383.352 155.186 384.752 155.771 385.812 156.943C386.879 158.115 387.412 159.647 387.412 161.54C387.412 163.597 386.867 165.223 385.777 166.418C384.688 167.613 383.229 168.211 381.4 168.211ZM381.506 156.521C380.182 156.521 379.106 156.999 378.28 157.954C377.454 158.909 377.041 160.163 377.041 161.716C377.041 163.269 377.442 164.52 378.245 165.469C379.054 166.412 380.105 166.884 381.4 166.884C382.783 166.884 383.873 166.433 384.67 165.53C385.467 164.628 385.865 163.365 385.865 161.742C385.865 160.078 385.479 158.792 384.705 157.884C383.932 156.976 382.865 156.521 381.506 156.521ZM395.349 160.23H392.65V168H391.209V160.23H388.502V159H395.349V160.23ZM404.551 168H403.109V160.23H398.521V168H397.08V159H404.551V168ZM408.945 166.699H408.91V172.14H407.469V159H408.91V160.582H408.945C409.654 159.387 410.691 158.789 412.057 158.789C413.217 158.789 414.122 159.193 414.772 160.002C415.423 160.805 415.748 161.883 415.748 163.236C415.748 164.742 415.382 165.949 414.649 166.857C413.917 167.76 412.915 168.211 411.644 168.211C410.478 168.211 409.578 167.707 408.945 166.699ZM408.91 163.069V164.326C408.91 165.07 409.15 165.703 409.631 166.225C410.117 166.74 410.732 166.998 411.477 166.998C412.35 166.998 413.032 166.664 413.524 165.996C414.022 165.328 414.271 164.399 414.271 163.21C414.271 162.208 414.04 161.423 413.577 160.854C413.114 160.286 412.487 160.002 411.696 160.002C410.858 160.002 410.185 160.295 409.675 160.881C409.165 161.461 408.91 162.19 408.91 163.069ZM424.493 168H423.052V166.594H423.017C422.39 167.672 421.467 168.211 420.248 168.211C419.352 168.211 418.648 167.974 418.139 167.499C417.635 167.024 417.383 166.395 417.383 165.609C417.383 163.928 418.373 162.949 420.354 162.674L423.052 162.296C423.052 160.767 422.434 160.002 421.197 160.002C420.113 160.002 419.135 160.371 418.262 161.109V159.633C419.146 159.07 420.166 158.789 421.32 158.789C423.436 158.789 424.493 159.908 424.493 162.146V168ZM423.052 163.447L420.881 163.746C420.213 163.84 419.709 164.007 419.369 164.247C419.029 164.481 418.859 164.9 418.859 165.504C418.859 165.943 419.015 166.304 419.325 166.585C419.642 166.86 420.061 166.998 420.582 166.998C421.297 166.998 421.886 166.749 422.349 166.251C422.817 165.747 423.052 165.111 423.052 164.344V163.447ZM427.209 168V159H431.129C432.014 159 432.711 159.196 433.221 159.589C433.736 159.981 433.994 160.518 433.994 161.197C433.994 162.363 433.42 163.072 432.271 163.324C433.648 163.5 434.337 164.194 434.337 165.407C434.337 166.14 434.053 166.755 433.484 167.253C432.922 167.751 432.222 168 431.384 168H427.209ZM428.65 160.23V162.762H430.812C431.973 162.762 432.553 162.311 432.553 161.408C432.553 160.623 432.031 160.23 430.988 160.23H428.65ZM428.65 163.992V166.77H431.146C432.312 166.77 432.896 166.298 432.896 165.354C432.896 164.446 432.242 163.992 430.936 163.992H428.65ZM444.295 168H442.994V160.819C442.865 161.071 442.669 161.426 442.405 161.883L438.248 168H436.754V159H438.072V166.093C438.143 165.923 438.295 165.633 438.529 165.223L442.801 159H444.295V168ZM456.934 168H455.51V160.582C455.381 160.957 455.182 161.508 454.912 162.234L452.662 168H451.37L449.05 162.234C448.927 161.924 448.728 161.373 448.452 160.582V168H447.213V159H449.05L451.423 164.871C451.593 165.299 451.81 165.891 452.073 166.646L452.715 164.906L455.018 159H456.934V168ZM350.155 191.587C349.464 192.003 348.644 192.211 347.694 192.211C346.411 192.211 345.374 191.795 344.583 190.963C343.798 190.125 343.405 189.041 343.405 187.711C343.405 186.229 343.83 185.039 344.68 184.143C345.529 183.24 346.663 182.789 348.081 182.789C348.872 182.789 349.569 182.936 350.173 183.229V184.705C349.505 184.236 348.79 184.002 348.028 184.002C347.108 184.002 346.353 184.333 345.761 184.995C345.175 185.651 344.882 186.516 344.882 187.588C344.882 188.643 345.157 189.475 345.708 190.084C346.265 190.693 347.009 190.998 347.94 190.998C348.726 190.998 349.464 190.737 350.155 190.216V191.587ZM359.586 192H358.153V188.379C357.099 188.953 356.126 189.24 355.235 189.24C353.22 189.24 352.212 188.174 352.212 186.041V183H353.653V185.971C353.653 187.289 354.222 187.948 355.358 187.948C356.226 187.948 357.157 187.696 358.153 187.192V183H359.586V192ZM369.746 187.86H363.392C363.415 188.862 363.685 189.636 364.2 190.181C364.716 190.726 365.425 190.998 366.327 190.998C367.341 190.998 368.272 190.664 369.122 189.996V191.35C368.331 191.924 367.285 192.211 365.984 192.211C364.713 192.211 363.714 191.804 362.987 190.989C362.261 190.169 361.897 189.018 361.897 187.535C361.897 186.135 362.293 184.995 363.084 184.116C363.881 183.231 364.868 182.789 366.046 182.789C367.224 182.789 368.135 183.17 368.779 183.932C369.424 184.693 369.746 185.751 369.746 187.104V187.86ZM368.27 186.639C368.264 185.807 368.062 185.159 367.663 184.696C367.271 184.233 366.723 184.002 366.02 184.002C365.34 184.002 364.763 184.245 364.288 184.731C363.813 185.218 363.521 185.854 363.409 186.639H368.27ZM377.586 184.23H374.888V192H373.446V184.23H370.739V183H377.586V184.23ZM391.728 192H390.286V187.913H385.698V192H384.257V183H385.698V186.691H390.286V183H391.728V192ZM401.088 192H399.646V190.594H399.611C398.984 191.672 398.062 192.211 396.843 192.211C395.946 192.211 395.243 191.974 394.733 191.499C394.229 191.024 393.978 190.395 393.978 189.609C393.978 187.928 394.968 186.949 396.948 186.674L399.646 186.296C399.646 184.767 399.028 184.002 397.792 184.002C396.708 184.002 395.729 184.371 394.856 185.109V183.633C395.741 183.07 396.761 182.789 397.915 182.789C400.03 182.789 401.088 183.908 401.088 186.146V192ZM399.646 187.447L397.476 187.746C396.808 187.84 396.304 188.007 395.964 188.247C395.624 188.481 395.454 188.9 395.454 189.504C395.454 189.943 395.609 190.304 395.92 190.585C396.236 190.86 396.655 190.998 397.177 190.998C397.892 190.998 398.48 190.749 398.943 190.251C399.412 189.747 399.646 189.111 399.646 188.344V187.447ZM415.906 183L411.767 193.441C411.028 195.305 409.991 196.236 408.655 196.236C408.28 196.236 407.967 196.198 407.715 196.122V194.83C408.025 194.936 408.31 194.988 408.567 194.988C409.294 194.988 409.839 194.555 410.202 193.688L410.923 191.982L407.407 183H409.007L411.441 189.926C411.471 190.014 411.532 190.242 411.626 190.611H411.679C411.708 190.471 411.767 190.248 411.854 189.943L414.412 183H415.906ZM424.933 192H422.911L418.938 187.676H418.903V192H417.462V183H418.903V187.122H418.938L422.718 183H424.607L420.433 187.342L424.933 192ZM432.852 192H431.41V190.594H431.375C430.748 191.672 429.825 192.211 428.606 192.211C427.71 192.211 427.007 191.974 426.497 191.499C425.993 191.024 425.741 190.395 425.741 189.609C425.741 187.928 426.731 186.949 428.712 186.674L431.41 186.296C431.41 184.767 430.792 184.002 429.556 184.002C428.472 184.002 427.493 184.371 426.62 185.109V183.633C427.505 183.07 428.524 182.789 429.679 182.789C431.794 182.789 432.852 183.908 432.852 186.146V192ZM431.41 187.447L429.239 187.746C428.571 187.84 428.067 188.007 427.728 188.247C427.388 188.481 427.218 188.9 427.218 189.504C427.218 189.943 427.373 190.304 427.684 190.585C428 190.86 428.419 190.998 428.94 190.998C429.655 190.998 430.244 190.749 430.707 190.251C431.176 189.747 431.41 189.111 431.41 188.344V187.447ZM434.812 191.745V190.33C435.597 190.77 436.514 190.989 437.562 190.989C439.15 190.989 439.944 190.485 439.944 189.478C439.944 188.481 439.074 187.983 437.334 187.983H436.446V186.762H437.29C438.819 186.762 439.584 186.287 439.584 185.338C439.584 184.934 439.408 184.611 439.057 184.371C438.705 184.131 438.225 184.011 437.615 184.011C436.742 184.011 435.866 184.23 434.987 184.67V183.325C435.983 182.962 436.897 182.78 437.729 182.78C439.921 182.78 441.017 183.586 441.017 185.197C441.017 185.719 440.853 186.17 440.524 186.551C440.202 186.926 439.748 187.175 439.162 187.298V187.342C439.83 187.395 440.366 187.62 440.771 188.019C441.175 188.417 441.377 188.921 441.377 189.53C441.377 190.351 441.046 191.004 440.384 191.49C439.722 191.977 438.811 192.22 437.65 192.22C436.414 192.22 435.468 192.062 434.812 191.745ZM450.043 192H448.602V190.594H448.566C447.939 191.672 447.017 192.211 445.798 192.211C444.901 192.211 444.198 191.974 443.688 191.499C443.185 191.024 442.933 190.395 442.933 189.609C442.933 187.928 443.923 186.949 445.903 186.674L448.602 186.296C448.602 184.767 447.983 184.002 446.747 184.002C445.663 184.002 444.685 184.371 443.812 185.109V183.633C444.696 183.07 445.716 182.789 446.87 182.789C448.985 182.789 450.043 183.908 450.043 186.146V192ZM448.602 187.447L446.431 187.746C445.763 187.84 445.259 188.007 444.919 188.247C444.579 188.481 444.409 188.9 444.409 189.504C444.409 189.943 444.564 190.304 444.875 190.585C445.191 190.86 445.61 190.998 446.132 190.998C446.847 190.998 447.436 190.749 447.898 190.251C448.367 189.747 448.602 189.111 448.602 188.344V187.447ZM460.229 192H458.788V187.913H454.2V192H452.759V183H454.2V186.691H458.788V183H460.229V192ZM470.618 192H469.177V187.913H464.589V192H463.147V183H464.589V186.691H469.177V183H470.618V192ZM480.699 183L476.56 193.441C475.821 195.305 474.784 196.236 473.448 196.236C473.073 196.236 472.76 196.198 472.508 196.122V194.83C472.818 194.936 473.103 194.988 473.36 194.988C474.087 194.988 474.632 194.555 474.995 193.688L475.716 191.982L472.2 183H473.8L476.234 189.926C476.264 190.014 476.325 190.242 476.419 190.611H476.472C476.501 190.471 476.56 190.248 476.647 189.943L479.205 183H480.699ZM486.245 187.913H483.696V192H482.255V183H483.696V186.691H486.263C486.415 185.461 486.866 184.503 487.616 183.817C488.372 183.132 489.339 182.789 490.517 182.789C491.8 182.789 492.793 183.193 493.496 184.002C494.205 184.811 494.56 185.965 494.56 187.465C494.56 188.924 494.182 190.081 493.426 190.937C492.67 191.786 491.63 192.211 490.306 192.211C489.058 192.211 488.082 191.836 487.379 191.086C486.682 190.33 486.304 189.272 486.245 187.913ZM490.394 184.002C488.601 184.002 487.704 185.174 487.704 187.518C487.704 189.838 488.612 190.998 490.429 190.998C492.204 190.998 493.092 189.838 493.092 187.518C493.092 185.174 492.192 184.002 490.394 184.002ZM373.288 216V203.396H376.874C377.964 203.396 378.828 203.663 379.467 204.196C380.105 204.729 380.425 205.424 380.425 206.279C380.425 206.994 380.231 207.615 379.845 208.143C379.458 208.67 378.925 209.045 378.245 209.268V209.303C379.095 209.402 379.774 209.725 380.284 210.27C380.794 210.809 381.049 211.512 381.049 212.379C381.049 213.457 380.662 214.33 379.889 214.998C379.115 215.666 378.14 216 376.962 216H373.288ZM374.765 204.732V208.802H376.276C377.085 208.802 377.721 208.608 378.184 208.222C378.646 207.829 378.878 207.278 378.878 206.569C378.878 205.345 378.072 204.732 376.461 204.732H374.765ZM374.765 210.129V214.664H376.769C377.636 214.664 378.307 214.459 378.781 214.049C379.262 213.639 379.502 213.076 379.502 212.361C379.502 210.873 378.488 210.129 376.461 210.129H374.765ZM389.855 216H388.414V214.594H388.379C387.752 215.672 386.829 216.211 385.61 216.211C384.714 216.211 384.011 215.974 383.501 215.499C382.997 215.024 382.745 214.395 382.745 213.609C382.745 211.928 383.735 210.949 385.716 210.674L388.414 210.296C388.414 208.767 387.796 208.002 386.56 208.002C385.476 208.002 384.497 208.371 383.624 209.109V207.633C384.509 207.07 385.528 206.789 386.683 206.789C388.798 206.789 389.855 207.908 389.855 210.146V216ZM388.414 211.447L386.243 211.746C385.575 211.84 385.071 212.007 384.731 212.247C384.392 212.481 384.222 212.9 384.222 213.504C384.222 213.943 384.377 214.304 384.688 214.585C385.004 214.86 385.423 214.998 385.944 214.998C386.659 214.998 387.248 214.749 387.711 214.251C388.18 213.747 388.414 213.111 388.414 212.344V211.447ZM402.292 216H400.868V208.582C400.739 208.957 400.54 209.508 400.271 210.234L398.021 216H396.729L394.408 210.234C394.285 209.924 394.086 209.373 393.811 208.582V216H392.571V207H394.408L396.781 212.871C396.951 213.299 397.168 213.891 397.432 214.646L398.073 212.906L400.376 207H402.292V216ZM412.751 216H411.45V208.819C411.321 209.071 411.125 209.426 410.861 209.883L406.704 216H405.21V207H406.528V214.093C406.599 213.923 406.751 213.633 406.985 213.223L411.257 207H412.751V216ZM428.079 216H426.638V208.23H422.05V216H420.608V207H428.079V216ZM434.759 216.211C433.429 216.211 432.365 215.792 431.568 214.954C430.777 214.11 430.382 212.994 430.382 211.605C430.382 210.094 430.795 208.913 431.621 208.063C432.447 207.214 433.563 206.789 434.97 206.789C436.312 206.789 437.357 207.202 438.107 208.028C438.863 208.854 439.241 210 439.241 211.465C439.241 212.9 438.834 214.052 438.02 214.919C437.211 215.78 436.124 216.211 434.759 216.211ZM434.864 208.002C433.938 208.002 433.206 208.318 432.667 208.951C432.128 209.578 431.858 210.445 431.858 211.553C431.858 212.619 432.131 213.46 432.676 214.075C433.221 214.69 433.95 214.998 434.864 214.998C435.796 214.998 436.511 214.696 437.009 214.093C437.513 213.489 437.765 212.631 437.765 211.518C437.765 210.393 437.513 209.525 437.009 208.916C436.511 208.307 435.796 208.002 434.864 208.002ZM448.795 216H447.362V212.379C446.308 212.953 445.335 213.24 444.444 213.24C442.429 213.24 441.421 212.174 441.421 210.041V207H442.862V209.971C442.862 211.289 443.431 211.948 444.567 211.948C445.435 211.948 446.366 211.696 447.362 211.192V207H448.795V216ZM457.373 208.23H454.675V216H453.233V208.23H450.526V207H457.373V208.23ZM466.268 207L462.128 217.441C461.39 219.305 460.353 220.236 459.017 220.236C458.642 220.236 458.328 220.198 458.076 220.122V218.83C458.387 218.936 458.671 218.988 458.929 218.988C459.655 218.988 460.2 218.555 460.563 217.688L461.284 215.982L457.769 207H459.368L461.803 213.926C461.832 214.014 461.894 214.242 461.987 214.611H462.04C462.069 214.471 462.128 214.248 462.216 213.943L464.773 207H466.268Z" fill="black"/>
<path d="M402.08 101.253H407.528C407.818 101.253 408.096 101.138 408.301 100.933C408.506 100.728 408.621 100.45 408.621 100.16C408.621 99.8696 408.506 99.5914 408.301 99.3863C408.096 99.1811 407.818 99.0659 407.528 99.0659H402.08C401.79 99.0659 401.512 99.1811 401.307 99.3863C401.102 99.5914 400.986 99.8696 400.986 100.16C400.986 100.45 401.102 100.728 401.307 100.933C401.512 101.138 401.79 101.253 402.08 101.253Z" fill="#26ad50"/>
<path d="M411.738 100.16C411.738 100.45 411.854 100.728 412.059 100.933C412.264 101.138 412.542 101.253 412.832 101.253H437.922C438.212 101.253 438.49 101.138 438.695 100.933C438.901 100.728 439.016 100.45 439.016 100.16C439.016 99.8696 438.901 99.5914 438.695 99.3863C438.49 99.1811 438.212 99.0659 437.922 99.0659H412.832C412.542 99.0659 412.264 99.1811 412.059 99.3863C411.854 99.5914 411.738 99.8696 411.738 100.16Z" fill="#26ad50"/>
<path d="M402.08 108.366H407.528C407.818 108.366 408.096 108.25 408.301 108.045C408.506 107.84 408.621 107.562 408.621 107.272C408.621 106.982 408.506 106.704 408.301 106.499C408.096 106.293 407.818 106.178 407.528 106.178H402.08C401.79 106.178 401.512 106.293 401.307 106.499C401.102 106.704 400.986 106.982 400.986 107.272C400.986 107.562 401.102 107.84 401.307 108.045C401.512 108.25 401.79 108.366 402.08 108.366Z" fill="#26ad50"/>
<path d="M437.922 106.178H412.832C412.542 106.178 412.264 106.293 412.059 106.499C411.854 106.704 411.738 106.982 411.738 107.272C411.738 107.562 411.854 107.84 412.059 108.045C412.264 108.25 412.542 108.366 412.832 108.366H437.922C438.212 108.366 438.49 108.25 438.695 108.045C438.901 107.84 439.016 107.562 439.016 107.272C439.016 106.982 438.901 106.704 438.695 106.499C438.49 106.293 438.212 106.178 437.922 106.178Z" fill="#26ad50"/>
<path d="M402.08 115.479H407.528C407.818 115.479 408.096 115.363 408.301 115.158C408.506 114.953 408.621 114.675 408.621 114.385C408.621 114.095 408.506 113.816 408.301 113.611C408.096 113.406 407.818 113.291 407.528 113.291H402.08C401.79 113.291 401.512 113.406 401.307 113.611C401.102 113.816 400.986 114.095 400.986 114.385C400.986 114.675 401.102 114.953 401.307 115.158C401.512 115.363 401.79 115.479 402.08 115.479Z" fill="#26ad50"/>
<path d="M437.922 113.291H412.832C412.542 113.291 412.264 113.406 412.059 113.611C411.854 113.816 411.738 114.095 411.738 114.385C411.738 114.675 411.854 114.953 412.059 115.158C412.264 115.363 412.542 115.479 412.832 115.479H437.922C438.212 115.479 438.49 115.363 438.695 115.158C438.901 114.953 439.016 114.675 439.016 114.385C439.016 114.095 438.901 113.816 438.695 113.611C438.49 113.406 438.212 113.291 437.922 113.291Z" fill="#26ad50"/>
<path d="M420 93.3379C422.781 93.3379 425.5 92.5131 427.813 90.9679C430.125 89.4227 431.928 87.2265 432.992 84.6569C434.056 82.0873 434.335 79.2598 433.792 76.5319C433.25 73.8041 431.91 71.2984 429.944 69.3317C427.977 67.365 425.471 66.0257 422.743 65.4831C420.016 64.9405 417.188 65.219 414.619 66.2833C412.049 67.3477 409.853 69.1501 408.307 71.4627C406.762 73.7753 405.938 76.4941 405.938 79.2754C405.941 83.0039 407.424 86.5786 410.06 89.2151C412.697 91.8515 416.272 93.3343 420 93.3379ZM420 67.4041C422.349 67.4041 424.645 68.1006 426.597 69.4054C428.55 70.7103 430.072 72.5649 430.971 74.7348C431.87 76.9047 432.105 79.2923 431.647 81.5958C431.189 83.8994 430.058 86.0153 428.397 87.676C426.736 89.3368 424.62 90.4678 422.317 90.926C420.013 91.3842 417.626 91.149 415.456 90.2502C413.286 89.3514 411.431 87.8294 410.126 85.8765C408.821 83.9237 408.125 81.6278 408.125 79.2791C408.128 76.1306 409.38 73.1119 411.606 70.8855C413.833 68.6592 416.851 67.4071 420 67.4041Z" fill="#26ad50"/>
<path d="M446.536 55.8481H393.467C393.177 55.8481 392.899 55.9634 392.693 56.1685C392.488 56.3736 392.373 56.6518 392.373 56.9419V129.058C392.373 129.275 392.437 129.486 392.557 129.666C392.677 129.846 392.848 129.986 393.048 130.069C393.248 130.152 393.468 130.174 393.68 130.132C393.893 130.089 394.088 129.985 394.241 129.832L398.774 125.298L403.307 129.832C403.513 130.037 403.791 130.152 404.081 130.152C404.371 130.152 404.649 130.037 404.854 129.832L409.387 125.298L413.921 129.832C414.126 130.037 414.405 130.152 414.695 130.152C414.985 130.152 415.263 130.037 415.468 129.832L420.001 125.298L424.535 129.832C424.74 130.037 425.018 130.152 425.308 130.152C425.598 130.152 425.877 130.037 426.082 129.832L430.615 125.299L435.148 129.832C435.353 130.037 435.631 130.152 435.921 130.152C436.212 130.152 436.49 130.037 436.695 129.832L441.229 125.298L445.762 129.832C445.915 129.985 446.11 130.089 446.322 130.132C446.534 130.174 446.754 130.152 446.954 130.069C447.154 129.986 447.325 129.846 447.445 129.666C447.565 129.486 447.629 129.275 447.629 129.058V56.9419C447.629 56.6518 447.514 56.3736 447.309 56.1685C447.104 55.9634 446.826 55.8481 446.536 55.8481ZM445.442 126.418L442.004 122.98C441.799 122.775 441.521 122.66 441.231 122.66C440.941 122.66 440.663 122.775 440.458 122.98L435.924 127.514L431.391 122.98C431.185 122.775 430.907 122.66 430.617 122.66C430.327 122.66 430.049 122.775 429.844 122.98L425.311 127.514L420.777 122.98C420.572 122.775 420.294 122.66 420.004 122.66C419.714 122.66 419.436 122.775 419.231 122.98L414.697 127.514L410.163 122.98C409.958 122.775 409.68 122.66 409.39 122.66C409.1 122.66 408.822 122.775 408.617 122.98L404.083 127.514L399.549 122.98C399.344 122.775 399.066 122.66 398.776 122.66C398.486 122.66 398.208 122.775 398.003 122.98L394.566 126.418V58.0356H445.447L445.442 126.418Z" fill="#26ad50"/>
<path d="M420.198 80.3838V82.2031H423.591V83.4248H420.198V86H418.757V83.4248H417.711V82.2031H418.757V80.3838H417.711V79.1621H418.757V73.3965H422.167C422.706 73.3965 423.219 73.4668 423.705 73.6074C424.197 73.7422 424.628 73.9502 424.997 74.2314C425.372 74.5127 425.668 74.8672 425.885 75.2949C426.107 75.7227 426.219 76.2266 426.219 76.8066C426.219 77.4043 426.119 77.9258 425.92 78.3711C425.727 78.8164 425.442 79.1885 425.067 79.4873C424.692 79.7861 424.235 80.0117 423.696 80.1641C423.157 80.3105 422.542 80.3838 421.851 80.3838H420.198ZM420.198 74.6182V79.1621H421.666C422.176 79.1621 422.624 79.124 423.011 79.0479C423.403 78.9658 423.731 78.8369 423.995 78.6611C424.265 78.4795 424.467 78.2422 424.602 77.9492C424.736 77.6562 424.804 77.2988 424.804 76.877C424.804 76.4609 424.742 76.1094 424.619 75.8223C424.496 75.5352 424.312 75.3037 424.065 75.1279C423.819 74.9463 423.512 74.8174 423.143 74.7412C422.773 74.6592 422.343 74.6182 421.851 74.6182H420.198Z" fill="#26ad50"/>
<path d="M701.567 168H700.073V156.768H693.49V168H692.005V155.396H701.567V168ZM708.405 168.211C707.075 168.211 706.012 167.792 705.215 166.954C704.424 166.11 704.028 164.994 704.028 163.605C704.028 162.094 704.441 160.913 705.268 160.063C706.094 159.214 707.21 158.789 708.616 158.789C709.958 158.789 711.004 159.202 711.754 160.028C712.51 160.854 712.888 162 712.888 163.465C712.888 164.9 712.48 166.052 711.666 166.919C710.857 167.78 709.771 168.211 708.405 168.211ZM708.511 160.002C707.585 160.002 706.853 160.318 706.313 160.951C705.774 161.578 705.505 162.445 705.505 163.553C705.505 164.619 705.777 165.46 706.322 166.075C706.867 166.69 707.597 166.998 708.511 166.998C709.442 166.998 710.157 166.696 710.655 166.093C711.159 165.489 711.411 164.631 711.411 163.518C711.411 162.393 711.159 161.525 710.655 160.916C710.157 160.307 709.442 160.002 708.511 160.002ZM721.325 167.587C720.634 168.003 719.813 168.211 718.864 168.211C717.581 168.211 716.544 167.795 715.753 166.963C714.968 166.125 714.575 165.041 714.575 163.711C714.575 162.229 715 161.039 715.85 160.143C716.699 159.24 717.833 158.789 719.251 158.789C720.042 158.789 720.739 158.936 721.343 159.229V160.705C720.675 160.236 719.96 160.002 719.198 160.002C718.278 160.002 717.522 160.333 716.931 160.995C716.345 161.651 716.052 162.516 716.052 163.588C716.052 164.643 716.327 165.475 716.878 166.084C717.435 166.693 718.179 166.998 719.11 166.998C719.896 166.998 720.634 166.737 721.325 166.216V167.587ZM730.07 168H728.638V160.222H726.546C726.306 163.134 725.893 165.179 725.307 166.356C724.727 167.534 723.944 168.123 722.96 168.123C722.661 168.123 722.403 168.082 722.187 168V166.761C722.392 166.866 722.614 166.919 722.854 166.919C724.144 166.919 724.973 164.279 725.342 159H730.07V168ZM740.23 163.86H733.876C733.899 164.862 734.169 165.636 734.685 166.181C735.2 166.726 735.909 166.998 736.812 166.998C737.825 166.998 738.757 166.664 739.606 165.996V167.35C738.815 167.924 737.77 168.211 736.469 168.211C735.197 168.211 734.198 167.804 733.472 166.989C732.745 166.169 732.382 165.018 732.382 163.535C732.382 162.135 732.777 160.995 733.568 160.116C734.365 159.231 735.353 158.789 736.53 158.789C737.708 158.789 738.619 159.17 739.264 159.932C739.908 160.693 740.23 161.751 740.23 163.104V163.86ZM738.754 162.639C738.748 161.807 738.546 161.159 738.147 160.696C737.755 160.233 737.207 160.002 736.504 160.002C735.824 160.002 735.247 160.245 734.772 160.731C734.298 161.218 734.005 161.854 733.894 162.639H738.754ZM751.12 168.211C749.79 168.211 748.727 167.792 747.93 166.954C747.139 166.11 746.743 164.994 746.743 163.605C746.743 162.094 747.156 160.913 747.982 160.063C748.809 159.214 749.925 158.789 751.331 158.789C752.673 158.789 753.719 159.202 754.469 160.028C755.225 160.854 755.603 162 755.603 163.465C755.603 164.9 755.195 166.052 754.381 166.919C753.572 167.78 752.485 168.211 751.12 168.211ZM751.226 160.002C750.3 160.002 749.567 160.318 749.028 160.951C748.489 161.578 748.22 162.445 748.22 163.553C748.22 164.619 748.492 165.46 749.037 166.075C749.582 166.69 750.312 166.998 751.226 166.998C752.157 166.998 752.872 166.696 753.37 166.093C753.874 165.489 754.126 164.631 754.126 163.518C754.126 162.393 753.874 161.525 753.37 160.916C752.872 160.307 752.157 160.002 751.226 160.002ZM765.376 168H763.935V160.23H759.347V168H757.905V159H765.376V168ZM774.859 168H773.427V160.222H771.335C771.095 163.134 770.682 165.179 770.096 166.356C769.516 167.534 768.733 168.123 767.749 168.123C767.45 168.123 767.192 168.082 766.976 168V166.761C767.181 166.866 767.403 166.919 767.644 166.919C768.933 166.919 769.762 164.279 770.131 159H774.859V168ZM784.229 168H782.787V166.594H782.752C782.125 167.672 781.202 168.211 779.983 168.211C779.087 168.211 778.384 167.974 777.874 167.499C777.37 167.024 777.118 166.395 777.118 165.609C777.118 163.928 778.108 162.949 780.089 162.674L782.787 162.296C782.787 160.767 782.169 160.002 780.933 160.002C779.849 160.002 778.87 160.371 777.997 161.109V159.633C778.882 159.07 779.901 158.789 781.056 158.789C783.171 158.789 784.229 159.908 784.229 162.146V168ZM782.787 163.447L780.616 163.746C779.948 163.84 779.444 164.007 779.104 164.247C778.765 164.481 778.595 164.9 778.595 165.504C778.595 165.943 778.75 166.304 779.061 166.585C779.377 166.86 779.796 166.998 780.317 166.998C781.032 166.998 781.621 166.749 782.084 166.251C782.553 165.747 782.787 165.111 782.787 164.344V163.447ZM792.596 160.23H789.897V168H788.456V160.23H785.749V159H792.596V160.23ZM804.171 168H802.747V159H804.171V168ZM794.327 168V159H795.769V162.454H798.194C799.114 162.454 799.844 162.694 800.383 163.175C800.928 163.655 801.2 164.326 801.2 165.188C801.2 166.055 800.928 166.74 800.383 167.244C799.838 167.748 799.149 168 798.317 168H794.327ZM795.769 163.693V166.77H797.931C799.126 166.77 799.724 166.242 799.724 165.188C799.724 164.191 799.12 163.693 797.913 163.693H795.769ZM702.271 192.211C700.94 192.211 699.877 191.792 699.08 190.954C698.289 190.11 697.894 188.994 697.894 187.605C697.894 186.094 698.307 184.913 699.133 184.063C699.959 183.214 701.075 182.789 702.481 182.789C703.823 182.789 704.869 183.202 705.619 184.028C706.375 184.854 706.753 186 706.753 187.465C706.753 188.9 706.346 190.052 705.531 190.919C704.723 191.78 703.636 192.211 702.271 192.211ZM702.376 184.002C701.45 184.002 700.718 184.318 700.179 184.951C699.64 185.578 699.37 186.445 699.37 187.553C699.37 188.619 699.643 189.46 700.188 190.075C700.732 190.69 701.462 190.998 702.376 190.998C703.308 190.998 704.022 190.696 704.521 190.093C705.024 189.489 705.276 188.631 705.276 187.518C705.276 186.393 705.024 185.525 704.521 184.916C704.022 184.307 703.308 184.002 702.376 184.002ZM716.017 178.57V179.924C715.776 180.1 715.39 180.231 714.856 180.319C713.538 180.519 712.615 180.712 712.088 180.899C711.566 181.081 711.136 181.474 710.796 182.077C710.462 182.681 710.248 183.562 710.154 184.723H710.189C710.893 183.703 711.895 183.193 713.195 183.193C714.385 183.193 715.343 183.601 716.069 184.415C716.796 185.229 717.159 186.305 717.159 187.641C717.159 189.018 716.778 190.125 716.017 190.963C715.261 191.795 714.241 192.211 712.958 192.211C711.575 192.211 710.509 191.722 709.759 190.743C709.015 189.759 708.643 188.355 708.643 186.533C708.643 185.115 708.777 183.914 709.047 182.93C709.316 181.939 709.688 181.195 710.163 180.697C710.644 180.199 711.174 179.856 711.754 179.669C712.34 179.481 713.342 179.262 714.76 179.01C715.322 178.881 715.741 178.734 716.017 178.57ZM710.137 186.146V187.395C710.143 187.863 710.213 188.323 710.348 188.774C710.482 189.226 710.676 189.624 710.928 189.97C711.18 190.315 711.476 190.573 711.815 190.743C712.161 190.913 712.554 190.998 712.993 190.998C713.796 190.998 714.443 190.699 714.936 190.102C715.434 189.498 715.683 188.728 715.683 187.79C715.683 186.759 715.428 185.941 714.918 185.338C714.414 184.729 713.731 184.424 712.87 184.424C711.663 184.424 710.752 184.998 710.137 186.146ZM729.2 192H727.776V184.582C727.647 184.957 727.448 185.508 727.179 186.234L724.929 192H723.637L721.316 186.234C721.193 185.924 720.994 185.373 720.719 184.582V192H719.479V183H721.316L723.689 188.871C723.859 189.299 724.076 189.891 724.34 190.646L724.981 188.906L727.284 183H729.2V192ZM739.352 187.86H732.997C733.021 188.862 733.29 189.636 733.806 190.181C734.321 190.726 735.03 190.998 735.933 190.998C736.946 190.998 737.878 190.664 738.728 189.996V191.35C737.937 191.924 736.891 192.211 735.59 192.211C734.318 192.211 733.319 191.804 732.593 190.989C731.866 190.169 731.503 189.018 731.503 187.535C731.503 186.135 731.898 184.995 732.689 184.116C733.486 183.231 734.474 182.789 735.651 182.789C736.829 182.789 737.74 183.17 738.385 183.932C739.029 184.693 739.352 185.751 739.352 187.104V187.86ZM737.875 186.639C737.869 185.807 737.667 185.159 737.269 184.696C736.876 184.233 736.328 184.002 735.625 184.002C734.945 184.002 734.368 184.245 733.894 184.731C733.419 185.218 733.126 185.854 733.015 186.639H737.875ZM749.011 192H747.569V187.913H742.981V192H741.54V183H742.981V186.691H747.569V183H749.011V192ZM758.081 192H756.64V188.273H755.436C754.855 188.273 754.328 188.742 753.854 189.68L752.685 192H751.015L752.526 189.223C752.878 188.578 753.303 188.153 753.801 187.948C753.098 187.854 752.562 187.597 752.192 187.175C751.823 186.753 751.639 186.226 751.639 185.593C751.639 184.796 751.926 184.166 752.5 183.703C753.08 183.234 753.892 183 754.935 183H758.081V192ZM756.64 187.069V184.23H754.935C753.722 184.23 753.115 184.69 753.115 185.61C753.115 186.583 753.704 187.069 754.882 187.069H756.64ZM768.215 187.86H761.86C761.884 188.862 762.153 189.636 762.669 190.181C763.185 190.726 763.894 190.998 764.796 190.998C765.81 190.998 766.741 190.664 767.591 189.996V191.35C766.8 191.924 765.754 192.211 764.453 192.211C763.182 192.211 762.183 191.804 761.456 190.989C760.729 190.169 760.366 189.018 760.366 187.535C760.366 186.135 760.762 184.995 761.553 184.116C762.35 183.231 763.337 182.789 764.515 182.789C765.692 182.789 766.604 183.17 767.248 183.932C767.893 184.693 768.215 185.751 768.215 187.104V187.86ZM766.738 186.639C766.732 185.807 766.53 185.159 766.132 184.696C765.739 184.233 765.191 184.002 764.488 184.002C763.809 184.002 763.231 184.245 762.757 184.731C762.282 185.218 761.989 185.854 761.878 186.639H766.738ZM780.124 192H778.7V184.582C778.571 184.957 778.372 185.508 778.103 186.234L775.853 192H774.561L772.24 186.234C772.117 185.924 771.918 185.373 771.643 184.582V192H770.403V183H772.24L774.613 188.871C774.783 189.299 775 189.891 775.264 190.646L775.905 188.906L778.208 183H780.124V192ZM789.177 191.587C788.485 192.003 787.665 192.211 786.716 192.211C785.433 192.211 784.396 191.795 783.604 190.963C782.819 190.125 782.427 189.041 782.427 187.711C782.427 186.229 782.852 185.039 783.701 184.143C784.551 183.24 785.685 182.789 787.103 182.789C787.894 182.789 788.591 182.936 789.194 183.229V184.705C788.526 184.236 787.812 184.002 787.05 184.002C786.13 184.002 785.374 184.333 784.782 184.995C784.196 185.651 783.903 186.516 783.903 187.588C783.903 188.643 784.179 189.475 784.729 190.084C785.286 190.693 786.03 190.998 786.962 190.998C787.747 190.998 788.485 190.737 789.177 190.216V191.587ZM797.509 192H796.067V188.273H794.863C794.283 188.273 793.756 188.742 793.281 189.68L792.112 192H790.442L791.954 189.223C792.306 188.578 792.73 188.153 793.229 187.948C792.525 187.854 791.989 187.597 791.62 187.175C791.251 186.753 791.066 186.226 791.066 185.593C791.066 184.796 791.354 184.166 791.928 183.703C792.508 183.234 793.319 183 794.362 183H797.509V192ZM796.067 187.069V184.23H794.362C793.149 184.23 792.543 184.69 792.543 185.61C792.543 186.583 793.132 187.069 794.31 187.069H796.067ZM702.235 219.278H701.014V216H694.316V219.278H693.086V214.778H693.886C695.421 212.563 696.2 209.971 696.224 207H700.899V214.778H702.235V219.278ZM699.458 214.778V208.222H697.463C697.305 210.647 696.622 212.833 695.415 214.778H699.458ZM707.992 216.211C706.662 216.211 705.599 215.792 704.802 214.954C704.011 214.11 703.615 212.994 703.615 211.605C703.615 210.094 704.028 208.913 704.854 208.063C705.681 207.214 706.797 206.789 708.203 206.789C709.545 206.789 710.591 207.202 711.341 208.028C712.097 208.854 712.475 210 712.475 211.465C712.475 212.9 712.067 214.052 711.253 214.919C710.444 215.78 709.357 216.211 707.992 216.211ZM708.098 208.002C707.172 208.002 706.439 208.318 705.9 208.951C705.361 209.578 705.092 210.445 705.092 211.553C705.092 212.619 705.364 213.46 705.909 214.075C706.454 214.69 707.184 214.998 708.098 214.998C709.029 214.998 709.744 214.696 710.242 214.093C710.746 213.489 710.998 212.631 710.998 211.518C710.998 210.393 710.746 209.525 710.242 208.916C709.744 208.307 709.029 208.002 708.098 208.002ZM722.248 216H720.227L716.254 211.676H716.219V216H714.777V207H716.219V211.122H716.254L720.033 207H721.923L717.748 211.342L722.248 216ZM730.888 207L726.748 217.441C726.01 219.305 724.973 220.236 723.637 220.236C723.262 220.236 722.948 220.198 722.696 220.122V218.83C723.007 218.936 723.291 218.988 723.549 218.988C724.275 218.988 724.82 218.555 725.184 217.688L725.904 215.982L722.389 207H723.988L726.423 213.926C726.452 214.014 726.514 214.242 726.607 214.611H726.66C726.689 214.471 726.748 214.248 726.836 213.943L729.394 207H730.888ZM742.164 216H740.74V208.582C740.611 208.957 740.412 209.508 740.143 210.234L737.893 216H736.601L734.28 210.234C734.157 209.924 733.958 209.373 733.683 208.582V216H732.443V207H734.28L736.653 212.871C736.823 213.299 737.04 213.891 737.304 214.646L737.945 212.906L740.248 207H742.164V216ZM752.315 211.86H745.961C745.984 212.862 746.254 213.636 746.77 214.181C747.285 214.726 747.994 214.998 748.896 214.998C749.91 214.998 750.842 214.664 751.691 213.996V215.35C750.9 215.924 749.854 216.211 748.554 216.211C747.282 216.211 746.283 215.804 745.557 214.989C744.83 214.169 744.467 213.018 744.467 211.535C744.467 210.135 744.862 208.995 745.653 208.116C746.45 207.231 747.438 206.789 748.615 206.789C749.793 206.789 750.704 207.17 751.349 207.932C751.993 208.693 752.315 209.751 752.315 211.104V211.86ZM750.839 210.639C750.833 209.807 750.631 209.159 750.232 208.696C749.84 208.233 749.292 208.002 748.589 208.002C747.909 208.002 747.332 208.245 746.857 208.731C746.383 209.218 746.09 209.854 745.979 210.639H750.839ZM761.975 216H760.533V211.913H755.945V216H754.504V207H755.945V210.691H760.533V207H761.975V216ZM770.544 208.23H767.846V216H766.404V208.23H763.697V207H770.544V208.23ZM778.718 216H777.276V214.594H777.241C776.614 215.672 775.691 216.211 774.473 216.211C773.576 216.211 772.873 215.974 772.363 215.499C771.859 215.024 771.607 214.395 771.607 213.609C771.607 211.928 772.598 210.949 774.578 210.674L777.276 210.296C777.276 208.767 776.658 208.002 775.422 208.002C774.338 208.002 773.359 208.371 772.486 209.109V207.633C773.371 207.07 774.391 206.789 775.545 206.789C777.66 206.789 778.718 207.908 778.718 210.146V216ZM777.276 211.447L775.105 211.746C774.438 211.84 773.934 212.007 773.594 212.247C773.254 212.481 773.084 212.9 773.084 213.504C773.084 213.943 773.239 214.304 773.55 214.585C773.866 214.86 774.285 214.998 774.807 214.998C775.521 214.998 776.11 214.749 776.573 214.251C777.042 213.747 777.276 213.111 777.276 212.344V211.447ZM791.154 216H789.73V208.582C789.602 208.957 789.402 209.508 789.133 210.234L786.883 216H785.591L783.271 210.234C783.147 209.924 782.948 209.373 782.673 208.582V216H781.434V207H783.271L785.644 212.871C785.813 213.299 786.03 213.891 786.294 214.646L786.936 212.906L789.238 207H791.154V216ZM801.613 216H800.312V208.819C800.184 209.071 799.987 209.426 799.724 209.883L795.566 216H794.072V207H795.391V214.093C795.461 213.923 795.613 213.633 795.848 213.223L800.119 207H801.613V216Z" fill="black"/>
<path d="M786.75 79.92C786.75 76.7937 784.206 74.25 781.08 74.25C779.566 74.25 778.141 74.84 777.071 75.9113L773.366 79.6162L769.25 83.7325V71.65C773.484 71.04 776.75 67.3988 776.75 63C776.75 58.175 772.825 54.25 768 54.25H718C713.175 54.25 709.25 58.175 709.25 63V125.5C709.25 126.19 709.81 126.75 710.5 126.75H716.75V130.5C716.75 131.19 717.31 131.75 718 131.75H768C768.69 131.75 769.25 131.19 769.25 130.5V99.7675L781.384 87.6338L782.668 86.35C782.02 89.575 780.441 92.54 778.064 94.9188L772.118 100.865L773.885 102.632L779.831 96.6863C783.379 93.1388 785.363 88.4538 785.479 83.455C786.287 82.4525 786.75 81.2275 786.75 79.92ZM778.839 77.6787C779.438 77.08 780.234 76.75 781.08 76.75C782.827 76.75 784.25 78.1725 784.25 79.92C784.25 80.7662 783.92 81.5625 783.321 82.1613L780.5 84.9825L776.018 80.5L778.839 77.6787ZM774.25 82.2675L775.607 83.625L759.875 99.3575L758.518 98L774.25 82.2675ZM744.521 115.254L747.092 110.11L750.89 113.908L745.746 116.479L744.521 115.254ZM748.518 108L756.75 99.7675L761.232 104.25L753 112.482L748.518 108ZM768 56.75C771.446 56.75 774.25 59.5538 774.25 63C774.25 66.4462 771.446 69.25 768 69.25H724.113C725.737 67.66 726.75 65.4475 726.75 63C726.75 60.5525 725.737 58.34 724.113 56.75H768ZM719.25 69.1238V65.5C719.25 64.8112 719.811 64.25 720.5 64.25H724.124C723.625 66.695 721.695 68.625 719.25 69.1238ZM711.75 124.25V63C711.75 59.5538 714.554 56.75 718 56.75C721.017 56.75 723.543 58.9012 724.124 61.75H720.5C718.432 61.75 716.75 63.4325 716.75 65.5V124.25H711.75ZM766.75 129.25H719.25V71.75H766.75V86.2325L761.232 91.75H724.25V94.25H758.732L756.232 96.75H724.25V99.25H753.732L745.866 107.116C745.769 107.214 745.705 107.33 745.646 107.447L745.632 107.44L741.882 114.94C741.642 115.421 741.736 116.002 742.118 116.382L742.483 116.75L739.616 119.616L741.384 121.384L744.25 118.518L744.616 118.884C744.856 119.124 745.176 119.25 745.5 119.25C745.689 119.25 745.881 119.206 746.059 119.119L753.559 115.369L753.551 115.355C753.669 115.296 753.785 115.233 753.882 115.135L763.882 105.135L766.75 102.268V129.25ZM763 102.482L761.643 101.125L777.375 85.3925L778.732 86.75L763 102.482Z" fill="#26ad50"/>
<path d="M724.25 76.75H761.75V79.25H724.25V76.75Z" fill="#26ad50"/>
<path d="M724.25 81.75H761.75V84.25H724.25V81.75Z" fill="#26ad50"/>
<path d="M724.25 86.75H761.75V89.25H724.25V86.75Z" fill="#26ad50"/>
<path d="M724.25 116.75H738V119.25H724.25V116.75Z" fill="#26ad50"/>
<path d="M724.25 121.75H761.75V124.25H724.25V121.75Z" fill="#26ad50"/>
<path d="M92 224.5V264H422.5V229" stroke="black"/>
<path d="M747.5 40.5V1L417 1V36" stroke="black"/>
<path d="M748 230V269.5H1078.5V234.5" stroke="black"/>
<path d="M422.5 221L426.397 227.75H418.603L422.5 221Z" fill="#26ad50"/>
<path d="M747.5 48L743.603 41.25H751.397L747.5 48Z" fill="#26ad50"/>
<path d="M1078.5 226L1082.4 232.75H1074.6L1078.5 226Z" fill="#26ad50"/>
</svg>
