<svg xmlns="http://www.w3.org/2000/svg" width="512" height="512" viewBox="0 0 490 490.667"><path xmlns="http://www.w3.org/2000/svg" d="M352.332 170.668c-17.664 0-32 14.336-32 32v-21.336c0-17.664-14.336-32-32-32s-32 14.336-32 32V160c0-17.664-14.336-32-32-32s-32 14.336-32 32V32c0-17.664-14.336-32-32-32s-32 14.336-32 32v266.668l-79.293-48.64h-.066c-4.692-2.989-10.453-4.696-16.641-4.696-17.707 0-32 14.293-32 32 0 6.188 1.707 12.16 4.906 17.066l-.039-.082 98.047 156.352a85.339 85.339 0 0072.297 40h102.125c58.898 0 106.664-47.766 106.664-106.668V202.668c0-17.664-14.336-32-32-32zm0 0" fill="#ffcc80" data-original="#ffcc80"/><g xmlns="http://www.w3.org/2000/svg" fill="#ffa726"><path d="M331 178.988v55.68c-5.973 0-10.668-4.695-10.668-10.668v-21.332c0-9.387 4.055-17.922 10.668-23.68zm0 0M267 157.652v77.016c-5.973 0-10.668-4.695-10.668-10.668v-42.668c0-9.387 4.055-17.918 10.668-23.68zm0 0M203 136.32v98.348c-5.973 0-10.668-4.695-10.668-10.668v-64c0-9.387 4.055-17.922 10.668-23.68zm0 0" data-original="#ffa726"/></g></svg>