<svg width="363" height="205" viewBox="0 0 363 205" fill="none" xmlns="http://www.w3.org/2000/svg">
<g clip-path="url(#clip0)">
<path d="M150.028 128.724H146.915V204.498H150.028V128.724Z" fill="#DEE8F5"/>
<path d="M178.049 128.724H174.936V204.498H178.049V128.724Z" fill="#DEE8F5"/>
<path d="M300.194 128.724H297.081V204.498H300.194V128.724Z" fill="#C1D8ED"/>
<path d="M300.194 127.774H272.116V199.318H300.194V127.774Z" fill="#C1D8ED"/>
<path d="M269.624 194.136H266.511V204.499H269.624V194.136Z" fill="#C1D8ED"/>
<path d="M304.498 125.594H142.611V129.868H304.498V125.594Z" fill="#DEE8F5"/>
<path d="M273.674 128.724H270.561V204.498H273.674V128.724Z" fill="#DEE8F5"/>
<path d="M243.104 128.724H239.99V204.498H243.104V128.724Z" fill="#DEE8F5"/>
<path d="M272.116 129.874H241.547V199.317H272.116V129.874Z" fill="#DEE8F5"/>
<path d="M150.963 182.391V186.73V204.499H128.171V186.73V182.391H150.963Z" fill="#C1D8ED"/>
<path d="M157.877 186.729H135.085V204.499H157.877V186.729Z" fill="#DEE8F5"/>
<path d="M157.877 186.729H135.085V188.061H157.877V186.729Z" fill="#C1D8ED"/>
<path d="M135.085 186.729H157.877V182.391H135.085V186.729Z" fill="#DEE8F5"/>
<path d="M144.007 192.966H148.955C149.274 192.966 149.532 192.708 149.532 192.39V190.874C149.532 190.556 149.274 190.298 148.955 190.298H144.007C143.688 190.298 143.43 190.556 143.43 190.874V192.39C143.43 192.708 143.688 192.966 144.007 192.966Z" fill="white"/>
<path d="M126.3 188.062V191.287V204.499H109.354V191.287V188.062H126.3Z" fill="#C1D8ED"/>
<path d="M131.855 191.288H114.909V204.499H131.855V191.288Z" fill="#DEE8F5"/>
<path d="M131.855 191.288H114.909V192.278H131.855V191.288Z" fill="#C1D8ED"/>
<path d="M114.909 191.288H131.854V188.062H114.909V191.288Z" fill="#DEE8F5"/>
<path d="M121.541 195.924H125.22C125.457 195.924 125.649 195.733 125.649 195.496V194.369C125.649 194.132 125.457 193.94 125.22 193.94H121.541C121.305 193.94 121.112 194.132 121.112 194.369V195.496C121.112 195.733 121.305 195.924 121.541 195.924Z" fill="white"/>
<path d="M36.9141 48.8047H19.2188V201.084H36.9141V48.8047Z" fill="#C1D8ED"/>
<path d="M66.9378 204.499H72.6436V195.375H66.9378V204.499Z" fill="#C1D8ED"/>
<path d="M25.0393 204.499H30.7451V195.375H25.0393V204.499Z" fill="#C1D8ED"/>
<path d="M36.9144 201.083H94.9082L94.9082 48.8036H36.9144L36.9144 201.083Z" fill="#DEE8F5"/>
<path d="M82.4397 204.499H88.1455V195.375H82.4397V204.499Z" fill="#DEE8F5"/>
<path d="M46.9544 204.499H52.6602V195.375H46.9544V204.499Z" fill="#DEE8F5"/>
<path opacity="0.53" d="M39.5285 198.5H92.2939L92.2939 126.816H39.5285L39.5285 198.5Z" fill="#F3F5FD"/>
<path opacity="0.53" d="M39.5285 73.9492H92.2939V51.4685L39.5285 51.4685V73.9492Z" fill="white"/>
<path opacity="0.53" d="M39.5285 98.9922H92.2939V76.5115H39.5285V98.9922Z" fill="white"/>
<path opacity="0.53" d="M39.5285 124.035H92.2939V101.554H39.5285V124.035Z" fill="white"/>
<path d="M64.7407 199.327H67.0801L67.0801 126.068H64.7407L64.7407 199.327Z" fill="#DEE8F5"/>
<path d="M72.8317 163.602C74.1464 163.602 75.2122 162.538 75.2122 161.226C75.2122 159.913 74.1464 158.849 72.8317 158.849C71.517 158.849 70.4512 159.913 70.4512 161.226C70.4512 162.538 71.517 163.602 72.8317 163.602Z" fill="white"/>
<path d="M58.9899 163.602C60.3046 163.602 61.3704 162.538 61.3704 161.226C61.3704 159.913 60.3046 158.849 58.9899 158.849C57.6752 158.849 56.6094 159.913 56.6094 161.226C56.6094 162.538 57.6752 163.602 58.9899 163.602Z" fill="white"/>
<path d="M82.4201 81.0068V84.5367V98.9922H63.835V84.5367V81.0068H82.4201Z" fill="#C1D8ED"/>
<path d="M88.0581 84.5366H69.4727V98.9921H88.0581V84.5366Z" fill="#DEE8F5"/>
<path d="M88.0581 84.5366H69.4727V85.6202H88.0581V84.5366Z" fill="#C1D8ED"/>
<path d="M69.4731 84.5371H88.0586V81.0072H69.4731V84.5371Z" fill="#DEE8F5"/>
<path d="M76.7482 89.6104H80.7837C81.0434 89.6104 81.2539 89.4002 81.2539 89.1409V87.9094C81.2539 87.6501 81.0434 87.44 80.7837 87.44H76.7482C76.4885 87.44 76.278 87.6501 76.278 87.9094V89.1409C76.278 89.4002 76.4885 89.6104 76.7482 89.6104Z" fill="white"/>
<path d="M61.5749 83.4546V86.5038V98.9922H45.5186V86.5038V83.4546H61.5749Z" fill="#C1D8ED"/>
<path d="M66.8376 86.5039H50.7812V98.9923H66.8376V86.5039Z" fill="#DEE8F5"/>
<path d="M66.8376 86.5039H50.7812V87.4402H66.8376V86.5039Z" fill="#C1D8ED"/>
<path d="M50.7805 86.5039H66.8369V83.4543H50.7805V86.5039Z" fill="#DEE8F5"/>
<path d="M57.0663 90.8872H60.5529C60.7772 90.8872 60.959 90.7057 60.959 90.4818V89.4175C60.959 89.1936 60.7772 89.0121 60.5529 89.0121H57.0663C56.842 89.0121 56.6602 89.1936 56.6602 89.4175V90.4818C56.6602 90.7057 56.842 90.8872 57.0663 90.8872Z" fill="white"/>
<path d="M91.0732 59.7383L88.6445 59.165L85.5998 72.0218L88.0284 72.5951L91.0732 59.7383Z" fill="white"/>
<path d="M85.9732 58.1653L84.625 58.4136L86.7102 69.6982L88.0583 69.4499L85.9732 58.1653Z" fill="#C1D8ED"/>
<path d="M85.9717 58.1616L84.625 58.4175L84.8623 59.6623L86.209 59.4064L85.9717 58.1616Z" fill="#DEE8F5"/>
<path d="M90.1475 61.0357L85.7783 72.1079L86.5272 72.4024L90.8964 61.3302L90.1475 61.0357Z" fill="#C1D8ED"/>
<path d="M91.1036 65.8789H84.5176V74.2822H91.1036V65.8789Z" fill="#C1D8ED"/>
<path d="M81.0338 59.3306H75.4453V74.1206H81.0338V59.3306Z" fill="#C1D8ED"/>
<path d="M76.0048 57.2949H73.0146V74.1201H76.0048V57.2949Z" fill="#DEE8F5"/>
<path d="M73.0148 58.2446H68.3623V74.12H73.0148V58.2446Z" fill="white"/>
<path d="M57.0756 58.2446H54.3574V74.12H57.0756V58.2446Z" fill="#DEE8F5"/>
<path d="M62.4115 59.3781L57.2793 61.873L63.2297 74.0722L68.3619 71.5773L62.4115 59.3781Z" fill="#DEE8F5"/>
<path d="M54.3785 59.4199H48.79V74.21H54.3785V59.4199Z" fill="#C1D8ED"/>
<path d="M49.3496 57.3843H46.3594V74.2094H49.3496V57.3843Z" fill="#DEE8F5"/>
<path d="M46.3595 58.3345H41.707V74.2099H46.3595V58.3345Z" fill="#C1D8ED"/>
<path d="M78.1322 108.867L75.5352 108.066L70.8424 123.234L73.4394 124.035L78.1322 108.867Z" fill="#DEE8F5"/>
<path d="M49.6803 109.245H44.0918V124.035H49.6803V109.245Z" fill="#C1D8ED"/>
<path d="M52.1113 107.209H49.1211V124.035H52.1113V107.209Z" fill="white"/>
<path d="M56.7638 108.16H52.1113V124.035H56.7638V108.16Z" fill="#DEE8F5"/>
<path d="M70.7679 108.16H68.0498V124.035H70.7679V108.16Z" fill="#DEE8F5"/>
<path d="M67.847 111.836L62.7148 109.341L56.7645 121.54L61.8966 124.035L67.847 111.836Z" fill="white"/>
<path d="M79.5077 116.13C79.5637 116.231 79.6391 116.319 79.7296 116.391C79.82 116.463 79.9237 116.516 80.0348 116.548C80.1459 116.58 80.2622 116.589 80.3769 116.576C80.4917 116.563 80.6028 116.527 80.7037 116.471C80.85 116.422 81.0062 116.411 81.158 116.438C81.3098 116.465 81.4523 116.53 81.5724 116.627C81.969 116.923 82.2457 117.351 82.3522 117.834H86.985C87.0023 117.555 87.0382 117.278 87.0924 117.004C87.217 116.256 87.5703 115.565 88.1038 115.025C88.2307 114.887 88.4007 114.796 88.5861 114.767C88.6898 114.817 88.8025 114.847 88.9178 114.854C89.0331 114.862 89.1486 114.846 89.2579 114.809C89.3672 114.772 89.4681 114.713 89.5547 114.637C89.6414 114.561 89.7122 114.468 89.763 114.365C89.8139 114.261 89.8438 114.148 89.8511 114.033C89.8583 113.918 89.8428 113.803 89.8055 113.694C89.7681 113.585 89.7095 113.484 89.6332 113.397C89.5568 113.311 89.4641 113.24 89.3604 113.19C88.6148 112.819 87.6748 113.028 86.9107 113.735C86.6737 113.954 86.4611 114.198 86.2766 114.462C86.347 114.014 86.4567 113.573 86.6044 113.143C86.781 112.602 87.1055 112.12 87.5415 111.752C87.7225 111.609 87.84 111.401 87.869 111.173C87.898 110.944 87.836 110.714 87.6964 110.53C87.5567 110.347 87.3507 110.225 87.1224 110.192C86.8941 110.159 86.6618 110.216 86.4754 110.352C85.7648 110.922 85.2338 111.684 84.9457 112.548C84.9144 112.635 84.8842 112.723 84.8572 112.814C84.3109 111.451 83.7482 110.298 82.6162 109.633C82.4149 109.515 82.1747 109.482 81.9487 109.54C81.7226 109.599 81.5291 109.745 81.4107 109.946C81.2923 110.147 81.2588 110.387 81.3174 110.612C81.3761 110.838 81.5222 111.031 81.7235 111.149C82.4156 111.555 82.8282 112.471 83.2944 113.646C82.7803 113.053 82.1645 112.556 81.4759 112.179C81.3743 112.123 81.2626 112.087 81.1471 112.074C81.0317 112.061 80.9148 112.071 80.8032 112.103C80.6916 112.136 80.5876 112.19 80.497 112.262C80.4064 112.335 80.3312 112.425 80.2756 112.527C80.2199 112.629 80.1851 112.74 80.173 112.856C80.1608 112.971 80.1717 113.088 80.2049 113.199C80.2382 113.31 80.2931 113.413 80.3666 113.503C80.4401 113.593 80.5307 113.668 80.6331 113.722C81.1696 114.017 81.6454 114.411 82.0353 114.882C81.6899 114.729 81.3147 114.654 80.9367 114.663C80.5588 114.672 80.1876 114.765 79.85 114.935C79.6462 115.048 79.4956 115.238 79.4315 115.462C79.3673 115.686 79.3947 115.926 79.5077 116.13Z" fill="#8DDBE0"/>
<path d="M88.7165 117.834H80.5322V120.21H88.7165V117.834Z" fill="#DEE8F5"/>
<path d="M80.5332 120.208V122.813C80.5333 123.137 80.6622 123.447 80.8916 123.677C81.121 123.906 81.4322 124.034 81.7566 124.034H87.4948C87.8192 124.034 88.1303 123.906 88.3597 123.677C88.5892 123.447 88.7181 123.137 88.7182 122.813V120.208H80.5332Z" fill="#C1D8ED"/>
<path d="M331.127 184.011C328.16 183.161 325.927 180.511 325.039 177.56C324.152 174.609 324.465 171.406 325.331 168.449C326.038 166.036 327.11 163.703 327.374 161.202C328.253 152.876 320.163 144.367 323.97 136.908C325.202 134.496 327.584 132.61 328.009 129.936C328.361 127.725 327.269 125.576 326.727 123.403C325.98 120.413 326.359 117.02 328.302 114.626C330.245 112.231 333.917 111.185 336.594 112.718C340.096 114.724 340.4 119.675 339.5 123.604C338.6 127.533 336.932 131.575 338.031 135.453C339.08 139.15 342.49 141.933 343.102 145.726C343.612 148.879 342.069 151.953 341.39 155.074C340.326 159.98 341.409 165.065 341.456 170.084C341.503 175.102 340.085 180.731 331.127 184.011Z" fill="#8DDBE0"/>
<path d="M326.548 184.488C324.782 183.928 323.198 182.909 321.957 181.536C320.717 180.162 319.865 178.484 319.489 176.673C318.908 173.686 319.621 170.332 317.983 167.765C315.765 164.288 313.49 163.895 310.728 160.83C306.481 156.118 306.331 154.031 306.612 145.304C306.731 141.614 301.627 137.45 303.424 133.903C305.008 130.779 309.822 130.763 312.552 132.961C315.282 135.16 316.482 138.683 317.671 141.979C318.861 145.274 320.361 148.758 323.376 150.546C325.185 151.618 327.552 152.113 328.551 153.962C329.353 155.446 328.95 157.259 328.627 158.915C327.816 163.078 328.019 168.157 331.519 170.561C333.098 171.646 335.166 172.02 336.464 173.428C337.747 174.82 337.954 176.882 337.867 178.773C337.697 182.406 336.694 185.952 334.936 189.139" fill="#DEE8F5"/>
<path d="M330.768 187.387C327.617 183.793 327.172 178.099 329.725 174.06C331.868 170.671 335.861 168.337 336.699 164.418C337.446 160.927 335.375 157.32 335.995 153.805C336.669 149.982 340.206 147.474 343.016 144.792C343.747 144.139 344.376 143.381 344.882 142.542C346.118 140.322 345.773 137.597 346.193 135.093C346.997 130.293 350.956 126.039 355.764 125.246C359.98 124.55 363.001 126.968 363.001 131.421C363.001 136.697 359.042 138.958 357.022 141.348C354.122 144.806 352.582 149.201 352.692 153.71C352.834 158.747 354.982 164.11 352.687 168.596C351.003 171.89 347.406 173.645 344.58 176.035C342.444 177.862 340.705 180.106 339.471 182.629C338.236 185.152 337.532 187.9 337.402 190.705" fill="#F3F5FD"/>
<path d="M344.367 179.115H318.94V204.499H344.367V179.115Z" fill="#FDB754"/>
<path opacity="0.42" d="M344.367 184.065H318.94V189.019H344.367V184.065Z" fill="white"/>
<path d="M251.642 35.7656C257.459 35.7656 262.175 31.0575 262.175 25.2497C262.175 19.442 257.459 14.7339 251.642 14.7339C245.824 14.7339 241.108 19.442 241.108 25.2497C241.108 31.0575 245.824 35.7656 251.642 35.7656Z" fill="#C1D8ED"/>
<path d="M249.494 35.7656C255.312 35.7656 260.028 31.0575 260.028 25.2497C260.028 19.442 255.312 14.7339 249.494 14.7339C243.677 14.7339 238.961 19.442 238.961 25.2497C238.961 31.0575 243.677 35.7656 249.494 35.7656Z" fill="#DEE8F5"/>
<path d="M249.494 34.2163C254.455 34.2163 258.476 30.2018 258.476 25.2497C258.476 20.2977 254.455 16.2832 249.494 16.2832C244.534 16.2832 240.513 20.2977 240.513 25.2497C240.513 30.2018 244.534 34.2163 249.494 34.2163Z" fill="#F3F5FD"/>
<path d="M249.494 19.0234V25.6487L253.828 23.2165" stroke="#DEE8F5" stroke-width="2.358" stroke-linecap="round" stroke-linejoin="round"/>
<path d="M286.938 78.8262H244.047C242.17 78.8262 240.647 80.3458 240.647 82.2204V114.808C240.647 116.682 242.17 118.202 244.047 118.202H286.938C288.816 118.202 290.338 116.682 290.338 114.808V82.2204C290.338 80.3458 288.816 78.8262 286.938 78.8262Z" fill="#F3F5FD"/>
<path d="M271.175 111.896H259.81V124.74H271.175V111.896Z" fill="#F3F5FD"/>
<path d="M275.999 122.354H256.164C255.292 122.354 254.584 123.06 254.584 123.932V123.932C254.584 124.803 255.292 125.51 256.164 125.51H275.999C276.871 125.51 277.579 124.803 277.579 123.932V123.932C277.579 123.06 276.871 122.354 275.999 122.354Z" fill="#F3F5FD"/>
<path d="M289.302 78.8262H246.412C244.534 78.8262 243.012 80.3458 243.012 82.2204V114.808C243.012 116.682 244.534 118.202 246.412 118.202H289.302C291.18 118.202 292.702 116.682 292.702 114.808V82.2204C292.702 80.3458 291.18 78.8262 289.302 78.8262Z" fill="#DEE8F5"/>
<path d="M273.539 111.896H262.174V124.74H273.539V111.896Z" fill="#DEE8F5"/>
<path d="M278.363 122.354H258.529C257.656 122.354 256.948 123.06 256.948 123.932V123.932C256.948 124.803 257.656 125.51 258.529 125.51H278.363C279.236 125.51 279.943 124.803 279.943 123.932V123.932C279.943 123.06 279.236 122.354 278.363 122.354Z" fill="#DEE8F5"/>
<path d="M186.029 38.9699C184.373 38.4332 182.589 38.4332 180.933 38.9699C179.811 39.3451 178.836 40.0614 178.142 41.0183C177.449 41.9751 177.074 43.1246 177.068 44.3055C177.112 44.989 177.328 45.6503 177.698 46.2275C178.067 46.8046 178.577 47.2786 179.181 47.6052C180.25 48.1506 181.857 48.2655 182.792 47.391C183.506 46.7245 183.469 45.5803 183.011 44.7858C182.275 43.5164 180.67 43.0005 179.276 43.1772C178.481 43.2911 177.717 43.5633 177.03 43.9776C176.343 44.3919 175.746 44.9399 175.274 45.589C174.829 46.2029 174.506 46.8967 174.323 47.6324C174.114 48.3301 174.125 49.075 174.354 49.7664C174.402 49.9237 174.51 50.0564 174.653 50.1375C174.797 50.2186 174.966 50.2419 175.126 50.2028C175.286 50.1575 175.421 50.0512 175.503 49.9069C175.585 49.7626 175.606 49.592 175.563 49.4319C175.485 49.2541 175.441 49.0633 175.434 48.8694C175.422 48.6301 175.441 48.3903 175.49 48.1557C175.601 47.6135 175.805 47.0941 176.091 46.6198C176.669 45.6747 177.563 44.9641 178.615 44.6134C179.621 44.2775 180.809 44.2807 181.617 45.0421C181.768 45.1771 181.891 45.3398 181.979 45.5213C181.991 45.5417 182.027 45.6333 181.984 45.5253C182.004 45.5744 182.021 45.6242 182.036 45.6748C182.045 45.7068 182.053 45.7388 182.061 45.7711C182.071 45.8148 182.087 46.0155 182.077 45.8319C182.08 45.882 182.123 46.1777 182.077 46.206C182.063 46.2144 182.114 46.0279 182.086 46.1377C182.081 46.1566 182.08 46.1769 182.075 46.1955C182.063 46.2487 182.048 46.3012 182.03 46.3526C181.95 46.4834 181.828 46.5843 181.685 46.6398C181.777 46.5965 181.59 46.6725 181.591 46.6722C181.552 46.6838 181.513 46.6936 181.474 46.7031C181.359 46.7333 181.241 46.7514 181.122 46.7572C180.917 46.7716 180.712 46.7662 180.509 46.7412C180.291 46.7022 180.079 46.6388 179.875 46.5522C179.431 46.3361 179.052 46.0051 178.778 45.5934C178.505 45.1817 178.347 44.7045 178.321 44.2113C178.333 43.6503 178.46 43.0976 178.693 42.587C178.786 42.38 178.892 42.179 179.01 41.9853C179.114 41.8124 179.23 41.6476 179.358 41.4922C179.489 41.338 179.629 41.1923 179.778 41.0559C179.85 40.9894 179.923 40.9254 180.002 40.8632C180.15 40.7425 179.905 40.9308 180.059 40.8192C180.106 40.7854 180.153 40.7516 180.201 40.7192C180.367 40.6072 180.54 40.5053 180.718 40.4138C180.81 40.3661 180.904 40.3218 180.999 40.2792C181.019 40.2705 181.108 40.2338 181.004 40.2767C181.065 40.252 181.126 40.2283 181.186 40.204C181.596 40.058 182.02 39.9522 182.45 39.888C182.63 39.8593 182.319 39.8996 182.5 39.8815C182.555 39.8764 182.61 39.8695 182.663 39.8644C182.772 39.8542 182.878 39.8466 182.987 39.8407C183.199 39.8298 183.411 39.8272 183.623 39.8327C183.828 39.8378 184.032 39.8499 184.236 39.8691C184.281 39.8735 184.584 39.9116 184.412 39.8873C184.506 39.9004 184.6 39.9149 184.694 39.9309C185.033 39.9889 185.367 40.07 185.695 40.1734C186.466 40.4196 186.796 39.2099 186.028 38.9648L186.029 38.9699Z" fill="#FDB754"/>
<path d="M66.121 15.9766C67.7236 15.4017 69.3946 16.5638 70.1471 17.987C70.889 19.3897 70.716 21.3936 69.2646 22.291C68.648 22.6724 67.784 22.8 67.2461 22.3106C66.6852 21.8015 66.7194 21.1641 67.2738 20.6536C67.4037 20.5374 67.5453 20.4348 67.6963 20.3475C67.784 20.2948 67.8736 20.2446 67.9654 20.1988C67.9989 20.182 68.0332 20.166 68.067 20.1497C68.1603 20.106 67.9315 20.1988 68.1005 20.1359C68.2362 20.0849 68.3747 20.0421 68.5154 20.0075C68.5824 19.9915 68.6498 19.977 68.7175 19.9646C68.7565 19.9573 68.7958 19.9508 68.8352 19.9446C68.7051 19.965 68.8974 19.9388 68.908 19.9381C69.227 19.9087 69.5483 19.914 69.8662 19.9537C69.9722 19.9672 69.781 19.9402 69.887 19.9577C69.9289 19.965 69.9708 19.9719 70.0123 19.9795C70.0851 19.9933 70.158 20.0086 70.2308 20.0253C70.4082 20.0668 70.5832 20.1181 70.7549 20.1788C70.8037 20.1959 70.9516 20.2515 70.9505 20.2515C70.8981 20.2297 70.9953 20.2719 70.9942 20.2711C71.0336 20.2889 71.0725 20.3075 71.1115 20.326C71.2763 20.406 71.4362 20.4956 71.5904 20.5944C71.8551 20.7611 72.0945 20.9647 72.3014 21.199C72.5045 21.4268 72.6729 21.6833 72.8011 21.9601C72.8268 22.011 72.8486 22.0637 72.8663 22.1179C72.9027 22.2237 72.9391 22.3313 72.969 22.4397C73.0378 22.6731 73.0893 22.9113 73.123 23.1523C73.2329 24.0385 73.0914 24.9376 72.7149 25.7475C72.3383 26.5574 71.7416 27.2456 70.9928 27.7338C70.6938 27.9202 70.3547 28.0329 70.0034 28.0625C69.6521 28.0921 69.2989 28.0378 68.9728 27.9039C68.8827 27.8606 68.796 27.8106 68.7135 27.7541C68.6144 27.688 68.7598 27.8003 68.7026 27.7476C68.688 27.7338 68.6727 27.7203 68.6585 27.7058C68.6443 27.6912 68.6221 27.6658 68.605 27.6458C68.7689 27.8276 68.6239 27.6796 68.6341 27.6749C68.6199 27.6523 68.607 27.6288 68.5955 27.6047C68.6319 27.6592 68.6232 27.7138 68.6068 27.6229C68.6024 27.6007 68.5675 27.4189 68.5788 27.5218C68.5893 27.6182 68.5809 27.4607 68.5788 27.4294C68.5766 27.3982 68.5831 27.3684 68.5839 27.3378C68.5839 27.3618 68.5522 27.4738 68.5813 27.3625C68.6006 27.2898 68.6144 27.2153 68.6385 27.1422C68.6501 27.1058 68.7146 26.9604 68.6647 27.0647C68.6979 26.9946 68.7335 26.9258 68.774 26.8589C68.8144 26.792 68.861 26.7186 68.9087 26.6513C68.9138 26.6444 68.9787 26.5604 68.9295 26.6222C68.9575 26.5859 68.9874 26.5528 69.0173 26.5186C69.2773 26.2274 69.581 25.9783 69.9176 25.7801C70.021 25.7179 70.1267 25.658 70.2345 25.6034C70.2709 25.5852 70.4399 25.5132 70.3018 25.567C70.4341 25.5149 70.5693 25.4706 70.7069 25.4343C70.9847 25.3512 71.2738 25.3118 71.5639 25.3176C71.7276 25.3151 71.8913 25.3212 72.0544 25.3358C72.1096 25.3371 72.1644 25.3444 72.218 25.3576C72.3174 25.3758 72.4161 25.3962 72.5141 25.4216C72.8406 25.496 73.1482 25.6369 73.4177 25.8354C73.9152 26.2369 74.2654 26.7915 74.4138 27.4127C74.5823 28.06 74.5976 28.7376 74.4586 29.3918C74.329 30.0388 74.0452 30.6451 73.6311 31.1593C73.421 31.4139 73.1737 31.6355 72.8976 31.8167C72.2234 32.2559 72.8521 33.3417 73.5317 32.8992C74.291 32.3738 74.8996 31.6595 75.2973 30.827C75.6949 29.9945 75.8677 29.0727 75.7986 28.153C75.7546 27.2235 75.4415 26.3268 74.8971 25.5714C74.3099 24.7996 73.4455 24.2853 72.486 24.137C71.5843 23.9744 70.6547 24.078 69.8111 24.4352C68.9675 24.7923 68.2467 25.3875 67.7371 26.1477C67.3404 26.7753 67.1434 27.6338 67.5488 28.3072C68.0634 29.1617 69.3061 29.4027 70.2214 29.2907C71.3241 29.1093 72.3131 28.5073 72.9795 27.6116C73.7627 26.692 74.254 25.5606 74.3909 24.3613C74.5136 23.245 74.3008 22.1174 73.7794 21.1223C73.3408 20.3617 72.6952 19.7407 71.9175 19.3316C70.4293 18.5316 68.5041 18.3796 67.0279 19.2854C66.062 19.8777 65.3056 20.9216 65.668 22.099C65.8395 22.6282 66.1777 23.088 66.6322 23.4098C67.0867 23.7316 67.6331 23.8983 68.1901 23.885C70.579 23.8446 72.0872 21.3489 71.8068 19.1581C71.5154 16.8838 69.6543 14.8465 67.3335 14.5891C66.8112 14.5311 66.2825 14.5924 65.7874 14.7683C65.6294 14.8164 65.4959 14.9232 65.4145 15.0667C65.3332 15.2103 65.3102 15.3795 65.3504 15.5395C65.3962 15.6987 65.5027 15.8336 65.6471 15.9152C65.7915 15.9968 65.9622 16.0186 66.1225 15.9758L66.121 15.9766Z" fill="#FDB754"/>
<path d="M94.5693 55.7503C96.399 55.5787 98.1191 54.803 99.4575 53.5457C100.227 52.7973 100.763 51.8428 101.001 50.7972C101.298 49.505 101.18 47.9713 100.439 46.8466C100.093 46.3447 99.6372 45.9274 99.1066 45.626C98.576 45.3246 97.984 45.1468 97.3749 45.1061C96.2094 45.0566 94.7238 45.5718 94.2248 46.7168C93.8242 47.632 94.3195 48.7188 95.1106 49.2515C96.3649 50.0962 98.0021 49.9013 99.2437 49.1399C99.9186 48.7051 100.499 48.1388 100.949 47.4749C101.4 46.811 101.712 46.0632 101.866 45.2762C102.137 43.884 101.975 42.1561 100.919 41.1137C100.788 41.0117 100.622 40.9654 100.457 40.9848C100.292 41.0042 100.141 41.0877 100.037 41.2173C99.9375 41.3492 99.8928 41.5144 99.9121 41.6784C99.9314 41.8424 100.013 41.9926 100.141 42.0979C100.046 42.0049 100.185 42.1543 100.191 42.1619C100.218 42.1954 100.243 42.2303 100.267 42.2656C100.315 42.3291 100.355 42.3976 100.387 42.4699C100.49 42.69 100.568 42.9207 100.62 43.1579C100.723 43.6617 100.745 44.1786 100.686 44.6894C100.551 45.8038 100.023 46.8337 99.1956 47.5942C98.4147 48.3036 97.3479 48.7836 96.3012 48.4527C96.09 48.3939 95.8944 48.2897 95.7279 48.1473C95.6959 48.1207 95.6645 48.0927 95.6343 48.064C95.7312 48.1563 95.6033 48.0276 95.5924 48.0138C95.5698 47.9858 95.5476 47.9567 95.5265 47.9273C95.5054 47.8978 95.3961 47.7037 95.477 47.8633C95.4223 47.7542 95.3987 47.6178 95.3397 47.5164C95.3429 47.5222 95.3575 47.6618 95.3455 47.5349C95.3343 47.4701 95.3318 47.4041 95.3382 47.3386C95.3684 47.1313 95.3273 47.359 95.363 47.2477C95.3681 47.2328 95.4314 47.1004 95.3939 47.1673C95.4252 47.119 95.4593 47.0725 95.4959 47.0281C95.5105 47.0088 95.6092 46.9037 95.5345 46.9764C95.6883 46.8359 95.8618 46.7185 96.0495 46.6277C96.4264 46.4252 96.8512 46.3285 97.2787 46.3478C97.1899 46.3445 97.3275 46.3536 97.3472 46.3558C97.4018 46.3623 97.4565 46.367 97.5107 46.3747C97.6202 46.3903 97.7287 46.4121 97.8356 46.4401C97.7628 46.4205 97.868 46.4499 97.8742 46.4521C97.9387 46.4725 98.0024 46.4961 98.0654 46.5208C98.183 46.5683 98.2982 46.6217 98.4103 46.6808C98.8153 46.9005 99.1631 47.2118 99.4258 47.5899C99.9903 48.4498 99.9776 49.6555 99.7587 50.6078C99.7321 50.723 99.716 50.7801 99.6975 50.8387C99.6647 50.9419 99.6283 51.0439 99.5882 51.1445C99.5102 51.3399 99.4199 51.5303 99.3176 51.7142C99.2196 51.8909 99.3817 51.6175 99.2746 51.787C99.2528 51.8233 99.2306 51.856 99.208 51.8902C99.1515 51.9749 99.0925 52.0582 99.031 52.1393C98.8973 52.3158 98.7525 52.4836 98.5976 52.6418C98.5699 52.6705 98.5415 52.6989 98.5131 52.7269C98.6067 52.6352 98.457 52.7767 98.438 52.7938C98.3564 52.8665 98.273 52.9369 98.1878 53.005C98.0033 53.1525 97.811 53.2899 97.6116 53.4166C97.5209 53.4745 97.4295 53.5283 97.3366 53.5832C97.3097 53.5992 97.1968 53.6621 97.3068 53.6017C97.2561 53.6293 97.2048 53.6563 97.1534 53.6824C96.9514 53.7859 96.745 53.8807 96.5343 53.9668C96.1621 54.1171 95.7805 54.2427 95.3917 54.3427C95.3575 54.3518 95.2435 54.3769 95.3797 54.3464C95.332 54.3569 95.2843 54.3678 95.2362 54.378C95.1435 54.3976 95.0505 54.4157 94.9572 54.4322C94.7846 54.462 94.6112 54.4855 94.4371 54.5027C94.2747 54.524 94.1271 54.6078 94.0256 54.7362C93.9242 54.8646 93.877 55.0274 93.8941 55.1901C93.9112 55.3527 93.9912 55.5023 94.1171 55.6068C94.2431 55.7114 94.405 55.7627 94.5683 55.7499L94.5693 55.7503Z" fill="#FDB754"/>
<path d="M83.9971 3.95655L82.0049 5.23535L85.0383 9.94531L87.0305 8.6665L83.9971 3.95655Z" fill="#FDB754"/>
<path d="M136.229 55.52L132.803 60.6841L134.777 61.9898L138.203 56.8257L136.229 55.52Z" fill="#FDB754"/>
<path d="M200.724 66.2619L198.425 66.8286L199.895 72.7722L202.194 72.2055L200.724 66.2619Z" fill="#FDB754"/>
<path d="M32.1513 42.6137L27.7236 47.8472L29.5328 49.3727L33.9604 44.1392L32.1513 42.6137Z" fill="#FDB754"/>
<path d="M170.465 12.0196C168.862 11.4448 167.192 12.6072 166.439 14.0304C165.697 15.4332 165.87 17.4366 167.321 18.334C167.938 18.7154 168.802 18.8431 169.34 18.3536C169.901 17.8446 169.867 17.2076 169.313 16.6967C169.182 16.5807 169.041 16.4783 168.89 16.3909C168.802 16.3382 168.712 16.288 168.621 16.2418C168.587 16.2251 168.553 16.2091 168.519 16.1931C168.426 16.1491 168.655 16.2418 168.486 16.1793C168.35 16.1284 168.212 16.0855 168.071 16.0509C168.004 16.0346 167.937 16.0204 167.869 16.0077C167.829 16.0004 167.791 15.9942 167.751 15.988C167.881 16.0084 167.689 15.9822 167.678 15.9811C167.359 15.9519 167.038 15.9573 166.72 15.9971C166.614 16.0102 166.805 15.9833 166.699 16.0011C166.657 16.008 166.616 16.0149 166.574 16.0229C166.501 16.0365 166.428 16.0518 166.355 16.0687C166.178 16.1101 166.003 16.1612 165.831 16.2218C165.782 16.2393 165.634 16.2945 165.635 16.2945C165.688 16.2724 165.591 16.3145 165.592 16.3142C165.552 16.332 165.513 16.3505 165.474 16.3691C165.31 16.4491 165.15 16.5386 164.995 16.6371C164.731 16.8039 164.491 17.0076 164.285 17.2421C164.081 17.4697 163.913 17.726 163.785 18.0028C163.759 18.0538 163.737 18.1067 163.72 18.1609C163.681 18.2667 163.647 18.3744 163.617 18.4824C163.548 18.7158 163.496 18.954 163.463 19.195C163.353 20.0812 163.494 20.9804 163.871 21.7903C164.248 22.6002 164.844 23.2883 165.593 23.7765C165.892 23.963 166.231 24.0758 166.582 24.1053C166.934 24.1349 167.287 24.0805 167.613 23.9466C167.703 23.9036 167.79 23.8535 167.872 23.7968C167.972 23.7306 167.826 23.8434 167.883 23.7903C167.898 23.7765 167.913 23.763 167.927 23.7485C167.942 23.7339 167.964 23.7088 167.981 23.6888C167.817 23.8706 167.962 23.7223 167.952 23.7179C167.966 23.6952 167.979 23.6718 167.99 23.6477C167.954 23.7023 167.963 23.7568 167.979 23.6656C167.983 23.6434 168.019 23.4619 168.007 23.5645C167.996 23.6608 168.005 23.5034 168.007 23.4721C168.01 23.4409 168.003 23.4114 168.002 23.3805C168.002 23.4045 168.034 23.5169 168.005 23.4056C167.985 23.3329 167.971 23.258 167.947 23.1852C167.935 23.1489 167.871 23.0034 167.921 23.1078C167.888 23.0376 167.852 22.9689 167.812 22.902C167.772 22.8351 167.725 22.7616 167.677 22.694C167.672 22.6871 167.607 22.6031 167.656 22.6653C167.628 22.6289 167.599 22.5955 167.569 22.5617C167.309 22.2703 167.005 22.0211 166.668 21.8232C166.565 21.761 166.459 21.701 166.352 21.6465C166.315 21.6279 166.146 21.5563 166.284 21.6101C166.152 21.5578 166.017 21.5134 165.879 21.477C165.601 21.3941 165.312 21.3548 165.022 21.3607C164.858 21.3581 164.695 21.364 164.532 21.3785C164.476 21.3798 164.421 21.3871 164.368 21.4003C164.268 21.4185 164.17 21.4388 164.072 21.4643C163.745 21.5392 163.437 21.6805 163.167 21.8795C162.67 22.2812 162.32 22.8358 162.171 23.4569C162.003 24.1041 161.987 24.7817 162.126 25.436C162.256 26.0829 162.54 26.6892 162.954 27.2035C163.164 27.458 163.411 27.6796 163.687 27.8609C164.362 28.3001 163.733 29.388 163.054 28.9433C162.294 28.4181 161.686 27.7038 161.288 26.8714C160.89 26.0389 160.717 25.1172 160.786 24.1975C160.83 23.268 161.144 22.3713 161.688 21.6159C162.275 20.8441 163.14 20.33 164.099 20.1819C165.001 20.019 165.931 20.1225 166.774 20.4796C167.618 20.8368 168.339 21.432 168.849 22.1922C169.246 22.8198 169.443 23.6783 169.037 24.3517C168.522 25.2062 167.28 25.4476 166.365 25.3334C165.262 25.1523 164.273 24.5503 163.606 23.6547C162.823 22.7347 162.332 21.6029 162.195 20.4033C162.072 19.2869 162.285 18.1592 162.807 17.1639C163.245 16.4035 163.891 15.7828 164.668 15.3735C166.157 14.5736 168.082 14.4212 169.558 15.327C170.524 15.9197 171.281 16.9632 170.918 18.1406C170.747 18.6699 170.409 19.1297 169.954 19.4515C169.499 19.7734 168.953 19.94 168.396 19.9266C166.007 19.8862 164.501 17.3905 164.78 15.1997C165.069 12.9257 166.932 10.8884 169.253 10.631C169.775 10.5732 170.304 10.6343 170.799 10.8099C170.957 10.858 171.09 10.9649 171.172 11.1084C171.253 11.2519 171.276 11.4211 171.236 11.5811C171.19 11.7404 171.084 11.8755 170.939 11.9571C170.795 12.0387 170.624 12.0604 170.463 12.0174L170.465 12.0196Z" fill="#FDB754"/>
<path d="M127.152 39.8053C125.322 39.6339 123.602 38.8583 122.264 37.6011C121.494 36.8525 120.958 35.8979 120.72 34.8522C120.423 33.5604 120.541 32.0263 121.282 30.9017C121.628 30.3997 122.084 29.9824 122.615 29.681C123.145 29.3795 123.737 29.2018 124.347 29.1611C125.51 29.1116 126.997 29.6269 127.496 30.7719C127.897 31.6871 127.402 32.7739 126.61 33.3066C125.356 34.1516 123.719 33.9567 122.477 33.1953C121.802 32.7604 121.222 32.194 120.772 31.5301C120.321 30.8661 120.009 30.1183 119.855 29.3313C119.584 27.939 119.746 26.2112 120.802 25.1687C120.933 25.0668 121.099 25.0206 121.264 25.04C121.429 25.0594 121.58 25.1428 121.684 25.2723C121.784 25.4043 121.828 25.5694 121.809 25.7334C121.79 25.8974 121.708 26.0477 121.58 26.153C121.675 26.0599 121.536 26.2093 121.53 26.217C121.503 26.2504 121.478 26.2853 121.454 26.3206C121.406 26.3842 121.366 26.4527 121.334 26.5249C121.232 26.7451 121.154 26.9758 121.101 27.2129C120.999 27.7167 120.976 28.2336 121.035 28.7444C121.17 29.8588 121.698 30.8888 122.525 31.6492C123.306 32.359 124.373 32.839 125.42 32.5077C125.631 32.4489 125.827 32.3447 125.993 32.2023C126.025 32.1757 126.057 32.1477 126.087 32.119C125.99 32.2114 126.118 32.0827 126.129 32.0688C126.151 32.0408 126.173 32.0118 126.195 31.9823C126.216 31.9529 126.325 31.7587 126.244 31.9183C126.299 31.8092 126.322 31.6732 126.381 31.5718C126.378 31.5776 126.364 31.7172 126.376 31.59C126.387 31.5251 126.389 31.4591 126.383 31.3936C126.353 31.1864 126.394 31.414 126.358 31.3031C126.353 31.2878 126.29 31.1576 126.327 31.2224C126.296 31.1741 126.262 31.1276 126.225 31.0831C126.211 31.0638 126.112 30.9591 126.187 31.0315C126.033 30.8909 125.859 30.7734 125.672 30.6828C125.295 30.4802 124.87 30.3835 124.442 30.4028C124.531 30.3995 124.394 30.4086 124.374 30.4108C124.319 30.4173 124.265 30.4221 124.21 30.4297C124.101 30.4453 123.992 30.4672 123.885 30.4952C123.958 30.4755 123.853 30.505 123.847 30.5072C123.782 30.5279 123.719 30.5512 123.656 30.5762C123.538 30.6234 123.423 30.6767 123.311 30.7359C122.906 30.9557 122.558 31.267 122.295 31.6449C121.731 32.5048 121.743 33.7105 121.962 34.6628C121.989 34.7781 122.005 34.8352 122.024 34.8937C122.056 34.997 122.093 35.0989 122.133 35.1995C122.211 35.395 122.301 35.5853 122.403 35.7693C122.501 35.946 122.339 35.6725 122.446 35.842C122.468 35.8783 122.491 35.9114 122.513 35.9452C122.57 36.0303 122.629 36.1134 122.69 36.1943C122.824 36.3709 122.968 36.5387 123.124 36.6968C123.151 36.7255 123.18 36.7539 123.208 36.7819C123.114 36.6903 123.264 36.8317 123.283 36.8488C123.364 36.9215 123.448 36.992 123.533 37.0601C123.718 37.2075 123.91 37.3449 124.109 37.4717C124.2 37.5295 124.292 37.5837 124.384 37.6386C124.411 37.6542 124.524 37.7171 124.414 37.6567C124.465 37.6847 124.516 37.7113 124.568 37.7375C124.77 37.841 124.976 37.9357 125.187 38.0218C125.559 38.1721 125.941 38.2976 126.329 38.3978C126.364 38.4069 126.478 38.4319 126.341 38.4014C126.389 38.4123 126.437 38.4229 126.485 38.433C126.578 38.4527 126.671 38.4707 126.764 38.4872C126.936 38.517 127.11 38.5405 127.284 38.5578C127.446 38.579 127.594 38.6628 127.695 38.7912C127.797 38.9196 127.844 39.0825 127.827 39.2451C127.81 39.4078 127.73 39.5573 127.604 39.6619C127.478 39.7664 127.316 39.8178 127.153 39.8049L127.152 39.8053Z" fill="#FDB754"/>
<path d="M152.59 0.000487114L149.557 4.71045L151.549 5.98925L154.582 1.27929L152.59 0.000487114Z" fill="#FDB754"/>
<path d="M72.711 62.7798L70.7363 64.0854L74.1624 69.2495L76.137 67.9438L72.711 62.7798Z" fill="#FDB754"/>
<path d="M204.436 38.6576L202.627 40.1831L207.055 45.4165L208.864 43.891L204.436 38.6576Z" fill="#FDB754"/>
<path d="M68.5025 80.4677L64.2236 84.853L65.9202 86.5029L70.1991 82.1175L68.5025 80.4677Z" fill="#FDB754"/>
<path d="M160.699 74.8731L158.707 76.1519L161.74 80.8618L163.733 79.583L160.699 74.8731Z" fill="#FDB754"/>
<path d="M272.679 15.977C274.281 15.4022 275.952 16.5643 276.705 17.9874C277.446 19.3902 277.273 21.394 275.822 22.2914C275.205 22.6728 274.342 22.8005 273.804 22.3111C273.243 21.802 273.277 21.1646 273.832 20.6541C273.961 20.5379 274.103 20.4353 274.254 20.3479C274.342 20.2952 274.432 20.245 274.523 20.1992C274.557 20.1825 274.591 20.1665 274.625 20.1501C274.718 20.1065 274.489 20.1992 274.658 20.1363C274.794 20.0853 274.933 20.0425 275.073 20.008C275.14 19.992 275.208 19.9774 275.275 19.9651C275.314 19.9578 275.354 19.9513 275.393 19.9451C275.263 19.9654 275.455 19.9393 275.466 19.9385C275.785 19.9092 276.106 19.9144 276.424 19.9542C276.53 19.9676 276.339 19.9407 276.445 19.9582L276.57 19.98C276.643 19.9938 276.716 20.0091 276.789 20.0258C276.966 20.0672 277.141 20.1185 277.313 20.1792C277.362 20.1963 277.51 20.252 277.509 20.252C277.456 20.2301 277.554 20.2723 277.552 20.2716C277.591 20.2894 277.631 20.308 277.669 20.3265C277.834 20.4064 277.994 20.496 278.149 20.5948C278.413 20.7616 278.652 20.9652 278.859 21.1995C279.062 21.4276 279.231 21.6846 279.358 21.962C279.384 22.0129 279.406 22.0656 279.423 22.1198C279.462 22.2256 279.496 22.3332 279.527 22.4416C279.595 22.6751 279.647 22.9133 279.681 23.1543C279.79 24.0404 279.649 24.9396 279.272 25.7495C278.896 26.5594 278.299 27.2475 277.55 27.7357C277.251 27.9222 276.912 28.0348 276.561 28.0644C276.21 28.094 275.856 28.0397 275.53 27.9059C275.44 27.8626 275.353 27.8125 275.271 27.7561C275.172 27.6899 275.317 27.8022 275.26 27.7495C275.245 27.7357 275.23 27.7222 275.216 27.7077C275.201 27.6932 275.179 27.6677 275.162 27.6477C275.326 27.8295 275.181 27.6815 275.192 27.6768C275.177 27.6543 275.164 27.6308 275.153 27.6066C275.189 27.6612 275.18 27.7157 275.164 27.6248C275.16 27.6026 275.125 27.4208 275.136 27.5237C275.147 27.6201 275.138 27.4626 275.136 27.4314C275.134 27.4001 275.14 27.3703 275.141 27.3397C275.141 27.3637 275.11 27.4757 275.138 27.3645C275.158 27.2917 275.172 27.2172 275.196 27.1441C275.208 27.1077 275.272 26.9623 275.222 27.0667C275.255 26.9965 275.291 26.9278 275.331 26.8609C275.372 26.794 275.419 26.7205 275.467 26.6532C275.471 26.6463 275.537 26.5623 275.487 26.6242C275.515 26.5878 275.545 26.5547 275.575 26.5205C275.835 26.2293 276.139 25.9802 276.475 25.782C276.579 25.7199 276.684 25.6599 276.792 25.6053C276.828 25.5871 276.997 25.5152 276.86 25.569C276.992 25.5167 277.127 25.4724 277.264 25.4363C277.542 25.3532 277.831 25.3138 278.121 25.3195C278.285 25.317 278.449 25.3231 278.612 25.3377C278.667 25.339 278.722 25.3463 278.776 25.3595C278.875 25.3777 278.974 25.3981 279.072 25.4235C279.398 25.4979 279.706 25.6388 279.976 25.8373C280.473 26.2391 280.824 26.7943 280.972 27.4161C281.14 28.0633 281.156 28.7409 281.017 29.3952C280.887 30.0418 280.603 30.6475 280.189 31.1612C279.979 31.4158 279.731 31.6374 279.455 31.8186C278.781 32.2579 279.41 33.3436 280.089 32.9011C280.849 32.3758 281.457 31.6615 281.855 30.829C282.253 29.9965 282.426 29.0747 282.356 28.1549C282.312 27.2255 281.999 26.3287 281.455 25.5733C280.868 24.8015 280.003 24.2872 279.044 24.1389C278.142 23.9763 277.212 24.0799 276.369 24.4371C275.525 24.7943 274.805 25.3895 274.295 26.1496C273.898 26.7772 273.701 27.6357 274.107 28.3091C274.621 29.1636 275.864 29.4046 276.779 29.2927C277.882 29.1113 278.871 28.5092 279.537 27.6135C280.321 26.6936 280.812 25.5616 280.948 24.3618C281.071 23.2455 280.859 22.1179 280.337 21.1228C279.898 20.3623 279.253 19.7414 278.475 19.332C276.987 18.5321 275.062 18.3801 273.585 19.2859C272.62 19.8782 271.863 20.9221 272.225 22.0994C272.397 22.6287 272.735 23.0886 273.19 23.4104C273.644 23.7322 274.191 23.8989 274.748 23.8855C277.137 23.8451 278.645 21.3493 278.364 19.1586C278.073 16.8842 276.212 14.847 273.891 14.5895C273.369 14.5316 272.84 14.5929 272.345 14.7688C272.187 14.8169 272.054 14.9237 271.972 15.0673C271.891 15.2108 271.868 15.38 271.908 15.54C271.954 15.6992 272.06 15.8341 272.205 15.9157C272.349 15.9973 272.52 16.0191 272.68 15.9763L272.679 15.977Z" fill="#FDB754"/>
<path d="M301.128 55.7507C302.957 55.5792 304.677 54.8034 306.016 53.5462C306.785 52.7977 307.321 51.8432 307.559 50.7977C307.856 49.5055 307.738 47.9718 306.997 46.8471C306.651 46.3451 306.195 45.9278 305.665 45.6264C305.134 45.3249 304.542 45.1472 303.933 45.1065C302.769 45.0571 301.282 45.5723 300.783 46.7173C300.382 47.6325 300.878 48.7193 301.668 49.252C302.923 50.0967 304.56 49.9018 305.802 49.1404C306.477 48.7057 307.057 48.1394 307.508 47.4755C307.958 46.8116 308.27 46.0637 308.424 45.2767C308.696 43.8845 308.533 42.1566 307.477 41.1141C307.346 41.0122 307.18 40.9659 307.015 40.9853C306.85 41.0047 306.699 41.0882 306.595 41.2178C306.496 41.3497 306.451 41.5149 306.47 41.6789C306.49 41.8429 306.572 41.9931 306.699 42.0984C306.605 42.0053 306.744 42.1548 306.75 42.1624C306.776 42.1959 306.802 42.2308 306.826 42.2661C306.873 42.3297 306.913 42.3982 306.946 42.4704C307.048 42.6906 307.126 42.9213 307.178 43.1583C307.281 43.6622 307.303 44.1791 307.244 44.6898C307.109 45.8043 306.581 46.8344 305.754 47.5947C304.973 48.3041 303.907 48.7841 302.859 48.4532C302.648 48.3943 302.453 48.2901 302.286 48.1477C302.254 48.1212 302.223 48.0932 302.193 48.0645C302.29 48.1568 302.162 48.0281 302.151 48.0143C302.128 47.9863 302.106 47.9572 302.085 47.9278C302.064 47.8983 301.954 47.7041 302.035 47.8638C301.981 47.7547 301.957 47.6183 301.898 47.5169C301.902 47.5227 301.916 47.6623 301.904 47.5354C301.893 47.4706 301.89 47.4046 301.896 47.3391C301.927 47.1318 301.885 47.3594 301.922 47.2482C301.926 47.2333 301.99 47.1009 301.952 47.1678C301.984 47.1195 302.018 47.073 302.055 47.0286C302.069 47.0093 302.167 46.9042 302.093 46.9769C302.247 46.8364 302.42 46.7189 302.608 46.6282C302.985 46.4257 303.409 46.3289 303.837 46.3483C303.748 46.345 303.886 46.3541 303.906 46.3563C303.96 46.3628 304.015 46.3675 304.069 46.3752C304.178 46.3907 304.287 46.4126 304.394 46.4406C304.321 46.421 304.426 46.4504 304.433 46.4526C304.497 46.473 304.561 46.4966 304.624 46.5213C304.742 46.5688 304.857 46.6222 304.969 46.6813C305.374 46.9008 305.721 47.2121 305.984 47.5903C306.549 48.4503 306.536 49.656 306.317 50.6083C306.29 50.7235 306.275 50.7806 306.256 50.8392C306.223 50.9424 306.187 51.0442 306.146 51.145C306.069 51.3405 305.978 51.5308 305.876 51.7147C305.778 51.8914 305.94 51.618 305.833 51.7874C305.811 51.8238 305.789 51.8565 305.766 51.8907C305.71 51.9754 305.651 52.0587 305.59 52.1398C305.456 52.3162 305.311 52.484 305.156 52.6423C305.128 52.671 305.1 52.6994 305.071 52.7274C305.165 52.6357 305.015 52.7772 304.996 52.7943C304.915 52.867 304.832 52.9374 304.746 53.0055C304.562 53.153 304.369 53.2904 304.17 53.4171C304.08 53.4749 303.988 53.5288 303.895 53.5837C303.868 53.5997 303.755 53.6626 303.865 53.6022C303.815 53.6298 303.763 53.6567 303.712 53.6829C303.51 53.7864 303.303 53.8812 303.093 53.9673C302.721 54.1176 302.339 54.2432 301.95 54.3432C301.916 54.3523 301.802 54.3774 301.938 54.3469C301.89 54.3574 301.843 54.3683 301.795 54.3785C301.702 54.3981 301.609 54.4162 301.515 54.4327C301.343 54.4625 301.17 54.486 300.996 54.5032C300.833 54.5245 300.686 54.6083 300.584 54.7367C300.483 54.8651 300.436 55.0279 300.453 55.1906C300.47 55.3532 300.55 55.5028 300.676 55.6073C300.802 55.7119 300.964 55.7632 301.127 55.7504L301.128 55.7507Z" fill="#FDB754"/>
<path d="M290.555 3.95557L288.562 5.23438L291.596 9.94433L293.588 8.66553L290.555 3.95557Z" fill="#FDB754"/>
<path d="M342.787 55.52L339.361 60.6841L341.336 61.9898L344.762 56.8257L342.787 55.52Z" fill="#FDB754"/>
<path d="M219.004 19.0898L216.002 23.6782L217.985 24.9712L220.987 20.3828L219.004 19.0898Z" fill="#FDB754"/>
<path d="M238.708 42.6128L234.28 47.8462L236.089 49.3717L240.517 44.1383L238.708 42.6128Z" fill="#FDB754"/>
<path d="M333.709 39.8053C331.88 39.6338 330.159 38.8582 328.821 37.6011C328.052 36.8524 327.516 35.8979 327.277 34.8522C326.98 33.5604 327.099 32.0263 327.84 30.9017C328.186 30.3997 328.641 29.9823 329.172 29.6809C329.703 29.3795 330.295 29.2018 330.904 29.1611C332.069 29.1116 333.555 29.6269 334.054 30.7719C334.455 31.6871 333.959 32.7739 333.168 33.3066C331.914 34.1516 330.277 33.9567 329.035 33.1953C328.36 32.7605 327.78 32.1942 327.329 31.5302C326.879 30.8663 326.567 30.1184 326.413 29.3313C326.141 27.939 326.304 26.2112 327.36 25.1687C327.491 25.0668 327.657 25.0206 327.822 25.04C327.987 25.0594 328.138 25.1428 328.242 25.2723C328.341 25.4043 328.386 25.5694 328.367 25.7334C328.347 25.8974 328.266 26.0477 328.138 26.153C328.232 26.0599 328.094 26.2093 328.087 26.217C328.061 26.2504 328.035 26.2853 328.011 26.3206C327.964 26.3842 327.924 26.4528 327.892 26.5249C327.789 26.7452 327.711 26.9758 327.659 27.2129C327.556 27.7168 327.534 28.2336 327.593 28.7444C327.728 29.8589 328.256 30.8889 329.083 31.6492C329.864 32.359 330.931 32.839 331.978 32.5077C332.189 32.4489 332.384 32.3446 332.551 32.2023C332.583 32.1757 332.614 32.1477 332.645 32.119C332.547 32.2114 332.675 32.0827 332.686 32.0688C332.709 32.0408 332.731 32.0118 332.752 31.9823C332.773 31.9529 332.883 31.7587 332.802 31.9183C332.856 31.8092 332.88 31.6732 332.939 31.5718C332.936 31.5776 332.921 31.7172 332.933 31.59C332.944 31.5251 332.947 31.4591 332.941 31.3936C332.91 31.1864 332.952 31.414 332.916 31.3031C332.911 31.2878 332.847 31.1576 332.885 31.2224C332.854 31.174 332.819 31.1275 332.783 31.0831C332.768 31.0638 332.67 30.9591 332.744 31.0315C332.59 30.8909 332.417 30.7735 332.229 30.6828C331.852 30.4802 331.428 30.3835 331 30.4028C331.089 30.3995 330.951 30.4086 330.931 30.4108C330.877 30.4173 330.822 30.4221 330.768 30.4297C330.659 30.4453 330.55 30.4672 330.443 30.4952C330.516 30.4755 330.411 30.505 330.404 30.5072C330.34 30.5279 330.276 30.5512 330.213 30.5762C330.095 30.6234 329.98 30.6767 329.869 30.7359C329.464 30.9555 329.116 31.2669 328.853 31.6449C328.289 32.5048 328.301 33.7105 328.52 34.6628C328.547 34.7781 328.562 34.8352 328.581 34.8937C328.614 34.997 328.651 35.0989 328.691 35.1995C328.769 35.395 328.859 35.5853 328.961 35.7693C329.059 35.946 328.897 35.6725 329.004 35.842C329.026 35.8783 329.048 35.9114 329.071 35.9452C329.127 36.0303 329.186 36.1134 329.248 36.1943C329.381 36.3707 329.526 36.5386 329.681 36.6968C329.709 36.7255 329.737 36.7539 329.766 36.7819C329.672 36.6903 329.822 36.8317 329.841 36.8488C329.922 36.9215 330.006 36.992 330.091 37.0601C330.275 37.2075 330.468 37.3449 330.667 37.4717C330.758 37.5295 330.849 37.5837 330.942 37.6386C330.969 37.6542 331.082 37.7171 330.972 37.6567C331.022 37.6847 331.074 37.7113 331.125 37.7375C331.328 37.841 331.534 37.9358 331.744 38.0218C332.116 38.1721 332.498 38.2976 332.887 38.3978C332.921 38.4069 333.035 38.432 332.899 38.4014C332.947 38.4123 332.995 38.4229 333.043 38.433C333.135 38.4527 333.228 38.4694 333.322 38.4872C333.494 38.517 333.667 38.5405 333.841 38.5578C334.004 38.579 334.151 38.6628 334.253 38.7912C334.354 38.9196 334.402 39.0825 334.384 39.2451C334.367 39.4078 334.287 39.5573 334.161 39.6619C334.035 39.7664 333.874 39.8178 333.71 39.8049L333.709 39.8053Z" fill="#FDB754"/>
<path d="M279.269 62.7798L277.294 64.0854L280.72 69.2495L282.695 67.9438L279.269 62.7798Z" fill="#FDB754"/>
<path d="M275.059 80.4662L270.78 84.8516L272.477 86.5014L276.756 82.1161L275.059 80.4662Z" fill="#FDB754"/>
<path d="M269.884 39.6157C269.884 39.6157 266.514 49.3004 264.647 54.3185C264.558 54.5563 264.527 54.8114 264.555 55.0635C264.583 55.3156 264.67 55.5576 264.808 55.7701C264.947 55.9827 265.134 56.1599 265.353 56.2876C265.573 56.4152 265.819 56.4897 266.073 56.5052L275.742 57.1063C276.16 57.1321 276.571 56.9965 276.892 56.7276C277.212 56.4586 277.416 56.0769 277.462 55.6617L278.969 41.9817L269.884 39.6157Z" fill="#0F1011"/>
<path d="M283.336 62.461C283.336 62.461 280.616 60.8008 281.714 53.1974L275.972 51.7666C275.972 51.7666 276.203 58.658 273.131 60.6531L283.336 62.461Z" fill="#EDA59F"/>
<g opacity="0.15">
<path opacity="0.15" d="M274.409 59.2941L279.461 55.9045L275.673 55.6318C275.484 56.9206 275.055 58.1626 274.409 59.2941Z" fill="black"/>
</g>
<path d="M285.191 50.4361C284.644 52.7297 283.244 54.8481 281.148 55.4709C278.861 56.2193 276.425 56.3973 274.053 55.9894C267.727 55.0804 269.871 40.7238 273.062 38.1055C276.253 35.4871 285.003 37.8048 285.792 42.5596C286.202 45.0191 285.709 48.2544 285.191 50.4361Z" fill="#EDA59F"/>
<path d="M276.238 48.0938C276.529 48.0938 276.765 47.8579 276.765 47.5669C276.765 47.2759 276.529 47.04 276.238 47.04C275.946 47.04 275.71 47.2759 275.71 47.5669C275.71 47.8579 275.946 48.0938 276.238 48.0938Z" fill="#0F1011"/>
<path d="M272.103 47.4991C272.394 47.4991 272.631 47.2632 272.631 46.9722C272.631 46.6812 272.394 46.4453 272.103 46.4453C271.811 46.4453 271.575 46.6812 271.575 46.9722C271.575 47.2632 271.811 47.4991 272.103 47.4991Z" fill="#0F1011"/>
<path d="M272.662 45.864C272.727 45.8668 272.791 45.8434 272.84 45.799C272.888 45.7545 272.917 45.6927 272.92 45.6271C272.923 45.5615 272.899 45.4974 272.855 45.4491C272.81 45.4007 272.748 45.3719 272.683 45.3691L271.286 45.3015H271.283C271.217 45.2987 271.153 45.3221 271.105 45.3665C271.056 45.4109 271.027 45.4728 271.025 45.5384C271.022 45.604 271.045 45.668 271.09 45.7164C271.134 45.7648 271.196 45.7936 271.262 45.7964L272.659 45.864H272.662Z" fill="#0F1011"/>
<path d="M277.439 46.6844C277.499 46.6868 277.558 46.6672 277.605 46.6292C277.652 46.5913 277.683 46.5376 277.693 46.4782C277.703 46.4189 277.691 46.3579 277.66 46.3067C277.628 46.2555 277.579 46.2176 277.521 46.2001L276.165 45.7856C276.134 45.774 276.1 45.769 276.066 45.7709C276.033 45.7727 276 45.7814 275.97 45.7963C275.94 45.8113 275.913 45.8322 275.891 45.8578C275.869 45.8834 275.853 45.9132 275.843 45.9453C275.833 45.9774 275.83 46.0112 275.833 46.0446C275.837 46.078 275.847 46.1104 275.864 46.1396C275.88 46.1689 275.903 46.1945 275.93 46.2149C275.956 46.2353 275.987 46.2501 276.02 46.2583L277.375 46.6731C277.396 46.6796 277.417 46.6834 277.439 46.6844Z" fill="#0F1011"/>
<path d="M275.739 51.6934C275.739 51.6934 273.782 51.7788 272.448 51.2207C272.448 51.2207 272.38 52.4995 273.911 52.7198C275.442 52.9402 275.739 51.6934 275.739 51.6934Z" fill="white"/>
<g opacity="0.15">
<path opacity="0.15" d="M273.719 50.341C273.763 50.3437 273.806 50.3307 273.841 50.3043C273.875 50.278 273.9 50.2401 273.909 50.1976C273.918 50.155 273.911 50.1106 273.89 50.0724C273.87 50.0341 273.836 50.0047 273.795 49.9894L272.744 49.5952L273.596 47.975C273.608 47.9538 273.616 47.9303 273.618 47.906C273.621 47.8817 273.619 47.8571 273.612 47.8336C273.606 47.8101 273.594 47.7883 273.579 47.7693C273.563 47.7504 273.544 47.7348 273.522 47.7234C273.5 47.7121 273.477 47.7052 273.452 47.7032C273.428 47.7013 273.403 47.7042 273.38 47.712C273.357 47.7197 273.335 47.732 273.317 47.7482C273.299 47.7644 273.284 47.7842 273.273 47.8063L272.363 49.5396C272.346 49.5711 272.337 49.6057 272.334 49.6412C272.332 49.6766 272.338 49.7121 272.35 49.7454C272.363 49.7786 272.383 49.8087 272.408 49.8338C272.433 49.8589 272.463 49.8783 272.497 49.8908L273.667 50.3301C273.684 50.3361 273.702 50.3397 273.719 50.341Z" fill="black"/>
</g>
<path d="M269.479 40.7766C269.479 40.7766 270.878 33.3175 282.828 35.9133C285.807 36.5605 289.923 39.1698 290.135 46.8961C290.23 50.4401 291.24 53.8388 292.037 56C292.132 56.2538 292.161 56.5271 292.123 56.7951C292.085 57.0631 291.98 57.3173 291.819 57.5348C291.657 57.7522 291.444 57.9259 291.198 58.0401C290.952 58.1544 290.682 58.2055 290.411 58.1889L281.93 57.6646C281.717 57.6518 281.508 57.5972 281.316 57.5039C281.124 57.4106 280.953 57.2804 280.811 57.1209C280.67 56.9613 280.561 56.7755 280.491 56.574C280.422 56.3725 280.392 56.1593 280.405 55.9466C280.405 55.9229 280.409 55.8989 280.411 55.8739C280.562 54.4365 280.762 51.9996 280.913 48.2654C280.605 46.1096 281.872 44.6821 280.137 45.0657C273.692 46.4855 269.947 40.9275 269.479 40.7766Z" fill="#0F1011"/>
<path d="M278.757 49.9962C278.713 50.2879 278.726 50.5856 278.797 50.8721C278.868 51.1586 278.995 51.4283 279.171 51.6654C279.347 51.9026 279.568 52.1026 279.822 52.2539C280.076 52.4051 280.357 52.5047 280.65 52.5468C280.943 52.5888 281.241 52.5726 281.527 52.4989C281.813 52.4253 282.082 52.2958 282.318 52.1178C282.554 51.9398 282.752 51.717 282.901 51.4621C283.05 51.2072 283.147 50.9254 283.186 50.6328C283.279 50.0578 283.14 49.4695 282.798 48.9972C282.457 48.5249 281.941 48.2074 281.365 48.1145C281.341 48.1105 281.316 48.1069 281.292 48.1039C279.703 47.9545 278.934 48.7759 278.757 49.9962Z" fill="#EDA59F"/>
<path d="M320.659 146.729L319.144 139.244C319.121 139.249 319.092 139.255 319.057 139.263C319.607 139.125 322.914 138.063 325.663 137.161L328.055 144.413C321.568 146.545 320.884 146.683 320.659 146.729Z" fill="#EDA59F"/>
<path d="M333.156 152.994C333.204 153.194 333.211 153.401 333.175 153.603C333.14 153.805 333.063 153.998 332.949 154.169C332.836 154.341 332.688 154.487 332.515 154.598C332.343 154.71 332.149 154.785 331.946 154.818C331.665 154.865 331.376 154.83 331.114 154.718C330.851 154.606 330.627 154.422 330.466 154.187L325.44 146.27C325.343 146.116 325.281 145.944 325.257 145.764C325.233 145.584 325.249 145.401 325.302 145.228C325.834 143.839 325.905 142.316 325.505 140.884C325.148 139.779 324.486 138.798 323.597 138.05C323.511 137.986 323.446 137.899 323.408 137.8C323.37 137.7 323.361 137.591 323.383 137.487C323.404 137.382 323.455 137.286 323.529 137.209C323.603 137.132 323.698 137.078 323.802 137.053L328.027 136.013C328.151 135.982 328.281 135.977 328.408 135.996C328.535 136.016 328.657 136.06 328.766 136.126C328.876 136.193 328.972 136.28 329.047 136.384C329.123 136.487 329.178 136.605 329.208 136.729L333.156 152.994Z" fill="#C1D8ED"/>
<path d="M264.295 199.069C261.587 192.812 261.388 192.144 261.322 191.924L268.653 189.745C268.646 189.722 268.637 189.694 268.626 189.66C268.813 190.194 270.168 193.388 271.317 196.041L264.295 199.069Z" fill="#EDA59F"/>
<path d="M256.194 204.911C255.999 204.977 255.792 205.003 255.587 204.985C255.382 204.968 255.183 204.909 255.002 204.811C254.82 204.714 254.661 204.58 254.534 204.418C254.407 204.256 254.315 204.07 254.263 203.871C254.192 203.596 254.201 203.306 254.289 203.035C254.377 202.765 254.541 202.525 254.761 202.344L262.21 196.638C262.354 196.528 262.521 196.45 262.698 196.411C262.875 196.371 263.059 196.37 263.237 196.408C264.67 196.812 266.196 196.746 267.589 196.22C268.659 195.766 269.579 195.02 270.245 194.068C270.301 193.978 270.382 193.905 270.478 193.858C270.574 193.811 270.681 193.793 270.787 193.805C270.894 193.817 270.994 193.859 271.077 193.926C271.161 193.992 271.223 194.082 271.258 194.183L272.674 198.291C272.716 198.413 272.734 198.541 272.726 198.669C272.718 198.797 272.684 198.922 272.628 199.037C272.571 199.152 272.493 199.255 272.396 199.339C272.3 199.424 272.187 199.489 272.066 199.53L256.194 204.911Z" fill="#C1D8ED"/>
<path d="M248.116 150.342C248.491 142.064 256.169 104.399 256.982 100.337L284.53 101.582C284.53 101.582 293.663 137.041 294.034 138.029L320.508 136.156L323.223 149.334L290.482 154.845C288.739 155.272 286.9 155.074 285.288 154.285C283.676 153.497 282.392 152.168 281.661 150.531C281.661 150.531 271.252 119.981 271.042 119.418L262.475 147.762L272.146 191.326L259.278 195.322C259.278 195.322 247.964 153.69 248.116 150.342Z" fill="#55AFFC"/>
<path d="M225.315 69.9467L223.983 74.0424C223.983 74.0424 218.451 74.7747 215.327 70.239C214.292 68.7359 215.976 67.5404 216.552 67.8003C218.457 68.6592 220.22 69.6976 222.013 69.6031C221.43 69.0293 220.682 68.1978 220.932 67.9334C221.59 67.2389 225.315 69.9467 225.315 69.9467Z" fill="#EDA59F"/>
<path d="M225.007 63.8882L218.613 70.9996L212.218 63.8882" fill="#C1D8ED"/>
<path d="M221.453 66.9633L218.646 70.1267L215.743 66.9219" fill="#F3F5FD"/>
<path d="M218.873 70.127H218.352V79.0306H218.873V70.127Z" fill="#C1D8ED"/>
<path d="M220.59 78.9316H216.634V79.4185H220.59V78.9316Z" fill="#C1D8ED"/>
<path d="M270.61 66.3318L250.388 78.0399C249.649 78.4673 248.793 78.6458 247.945 78.549L222.53 75.6481L223.432 67.7717L247.541 70.5231L265.653 59.7266L270.61 66.3318Z" fill="#2F3235"/>
<path d="M322.312 55.7118L325.843 58.1861C325.843 58.1861 330.674 54.6406 330.44 49.1411C330.363 47.3183 328.297 47.3732 327.993 47.9266C326.988 49.7559 326.235 52.4561 324.745 53.4563C324.864 52.6484 324.963 51.5347 324.603 51.4736C323.659 51.3129 322.312 55.7118 322.312 55.7118Z" fill="#EDA59F"/>
<path d="M287.283 103.333C285.83 109.333 256.536 102.77 255.633 99.0607C254.7 95.2356 258.229 93.5921 260.116 81.9385C261.733 71.983 258.859 57.5442 270.849 59.1004C271.075 59.1295 271.439 59.184 271.909 59.2604C271.662 61.2493 283.881 63.3619 284.493 61.3984C287.946 61.9984 290.593 63.551 291.948 65.4672C296.617 72.0921 288.004 80.5023 286.692 88.0253C285.381 95.5483 288.205 99.5152 287.283 103.333Z" fill="#2F3235"/>
<path d="M284.494 61.3987C283.882 63.3622 279.865 66.1765 275.506 65.1221C272.231 64.3294 271.663 61.2497 271.91 59.2607C274.449 59.6607 280.138 60.6388 284.483 61.3951C284.485 61.3948 284.487 61.395 284.489 61.3957C284.491 61.3963 284.493 61.3973 284.494 61.3987Z" fill="#EDA59F"/>
<path d="M287.497 71.5641L289.089 63.2837L307.664 69.7043L322.724 53.2017L328.593 58.5405L311.972 77.0448C311.236 77.8634 310.27 78.4412 309.2 78.7024C308.13 78.9636 307.006 78.8961 305.975 78.5086L287.497 71.5641Z" fill="#2F3235"/>
<path d="M152.935 61.3615C152.935 61.3615 155.55 59.5435 154 52.0169L159.645 50.2461C159.645 50.2461 159.827 57.139 163.012 58.9475L152.935 61.3615Z" fill="#EDA59F"/>
<g opacity="0.15">
<path opacity="0.15" d="M161.656 57.668L156.411 54.586L160.175 54.0894C160.441 55.3639 160.943 56.5776 161.656 57.668Z" fill="black"/>
</g>
<path d="M150.363 49.4685C151.044 51.7258 152.57 53.7561 154.697 54.2536C157.224 54.8441 159.023 54.6862 161.811 54.3477C165.617 53.8856 165.008 49.9386 164.628 45.9332C164.247 41.9117 163.404 37.6506 161.73 36.4365C158.388 34.0127 149.792 36.8485 149.289 41.6422C149.03 44.1213 149.715 47.3199 150.363 49.4685Z" fill="#EDA59F"/>
<path d="M165.883 34.2474C165.65 32.3406 162.893 29.5056 157.077 34.5833L157.071 34.5881C155.419 34.7418 153.795 35.121 152.245 35.7152C149.451 36.9333 146.111 39.8018 147.761 45.5726C149.602 52.0132 152.51 53.4389 153.967 54.081C154.338 54.2443 154.401 54.0668 154.475 53.6687C154.679 52.2051 154.772 50.7284 154.754 49.2509C154.818 47.8029 154.751 46.3521 154.552 44.9163C154.474 44.2789 154.194 41.9551 157.36 41.5446C159.14 41.3137 158.482 41.4653 160.382 41.2344C160.653 41.2017 160.892 41.1617 161.111 41.1141H161.113C167.679 40.317 166.117 36.1541 165.883 34.2474Z" fill="#0F1011"/>
<path d="M159.129 46.5977C159.421 46.5977 159.657 46.3618 159.657 46.0708C159.657 45.7798 159.421 45.5439 159.129 45.5439C158.838 45.5439 158.602 45.7798 158.602 46.0708C158.602 46.3618 158.838 46.5977 159.129 46.5977Z" fill="#0F1011"/>
<path d="M163.221 45.7573C163.513 45.7573 163.749 45.5215 163.749 45.2305C163.749 44.9395 163.513 44.7036 163.221 44.7036C162.93 44.7036 162.693 44.9395 162.693 45.2305C162.693 45.5215 162.93 45.7573 163.221 45.7573Z" fill="#0F1011"/>
<path d="M162.572 44.1586C162.508 44.1594 162.446 44.1355 162.4 44.0919C162.353 44.0482 162.325 43.9883 162.322 43.9245C162.318 43.8607 162.34 43.7981 162.382 43.7498C162.423 43.7014 162.482 43.6711 162.546 43.6652L163.936 43.5139C164.001 43.5074 164.066 43.5268 164.117 43.568C164.168 43.6091 164.2 43.6686 164.207 43.7336C164.214 43.7985 164.195 43.8636 164.154 43.9147C164.114 43.9658 164.054 43.9987 163.989 44.0063L162.599 44.1572C162.59 44.1582 162.581 44.1587 162.572 44.1586Z" fill="#0F1011"/>
<path d="M157.853 45.262C157.795 45.2623 157.738 45.242 157.694 45.2048C157.649 45.1677 157.619 45.1159 157.608 45.0587C157.598 45.0015 157.608 44.9425 157.637 44.8921C157.666 44.8416 157.712 44.8029 157.766 44.7828L159.094 44.2879C159.155 44.2674 159.222 44.2713 159.28 44.2988C159.338 44.3264 159.384 44.3755 159.406 44.4358C159.429 44.496 159.427 44.5626 159.401 44.6215C159.375 44.6805 159.328 44.7271 159.268 44.7515L157.94 45.2464C157.912 45.2567 157.883 45.262 157.853 45.262Z" fill="#0F1011"/>
<path d="M156.559 47.6815C156.676 48.2606 156.558 48.8622 156.231 49.3548C155.904 49.8473 155.396 50.1906 154.816 50.3096C154.237 50.4286 153.633 50.3135 153.139 49.9897C152.644 49.6658 152.298 49.1595 152.176 48.5815C152.112 48.2938 152.106 47.9962 152.159 47.7063C152.212 47.4165 152.324 47.1402 152.486 46.8941C152.648 46.648 152.859 46.4371 153.104 46.2738C153.35 46.1106 153.626 45.9983 153.917 45.9439C155.493 45.6999 156.31 46.4733 156.559 47.6815Z" fill="#EDA59F"/>
<g opacity="0.15">
<path opacity="0.15" d="M161.808 48.6891C161.764 48.6944 161.721 48.684 161.684 48.6597C161.648 48.6355 161.622 48.5991 161.61 48.5572C161.598 48.5152 161.602 48.4705 161.621 48.4311C161.64 48.3917 161.672 48.3603 161.711 48.3426L162.737 47.8866L161.79 46.3202C161.778 46.2998 161.77 46.2771 161.766 46.2535C161.762 46.2299 161.763 46.2058 161.769 46.1827C161.775 46.1595 161.785 46.1377 161.799 46.1184C161.814 46.0992 161.831 46.083 161.852 46.0706C161.872 46.0583 161.895 46.0501 161.919 46.0465C161.942 46.0429 161.966 46.044 161.99 46.0497C162.013 46.0555 162.035 46.0657 162.054 46.0798C162.073 46.094 162.09 46.1118 162.102 46.1322L163.156 47.875C163.169 47.8971 163.178 47.9217 163.181 47.9473C163.184 47.9729 163.181 47.9989 163.174 48.0234C163.166 48.048 163.153 48.0707 163.136 48.0899C163.119 48.1091 163.098 48.1245 163.074 48.135L161.86 48.6749C161.843 48.6824 161.826 48.6872 161.808 48.6891Z" fill="black"/>
</g>
<path d="M159.873 50.1604C159.873 50.1604 161.831 50.1291 163.13 49.4917C163.13 49.4917 163.275 50.7643 161.759 51.0756C160.242 51.3868 159.873 50.1604 159.873 50.1604Z" fill="white"/>
<path d="M115.455 145.251C115.23 145.205 114.544 145.069 108.059 142.935L110.45 135.683C113.199 136.586 116.508 137.646 117.057 137.785C117.021 137.777 116.993 137.771 116.97 137.766L115.455 145.251Z" fill="#EDA59F"/>
<path d="M102.959 151.515C102.911 151.715 102.904 151.922 102.94 152.124C102.975 152.327 103.052 152.519 103.166 152.691C103.279 152.862 103.427 153.008 103.6 153.119C103.772 153.231 103.966 153.306 104.169 153.339C104.45 153.386 104.739 153.351 105.001 153.239C105.263 153.127 105.488 152.943 105.649 152.708L110.675 144.791C110.772 144.638 110.834 144.465 110.858 144.285C110.882 144.106 110.866 143.923 110.813 143.75C110.281 142.36 110.21 140.837 110.61 139.405C110.967 138.3 111.629 137.319 112.518 136.571C112.604 136.507 112.669 136.42 112.707 136.321C112.745 136.221 112.754 136.113 112.733 136.008C112.711 135.904 112.66 135.807 112.586 135.731C112.512 135.654 112.417 135.6 112.313 135.575L108.086 134.535C107.962 134.504 107.832 134.498 107.705 134.518C107.578 134.537 107.456 134.581 107.346 134.648C107.237 134.714 107.141 134.802 107.065 134.905C106.99 135.009 106.935 135.126 106.905 135.251L102.959 151.515Z" fill="#C1D8ED"/>
<path d="M183.067 201.399L175.506 200.248C175.943 197.391 176.441 193.958 176.487 193.394C176.483 193.43 176.483 193.46 176.482 193.483L184.126 193.735C184.119 193.963 184.096 194.659 183.067 201.399Z" fill="#EDA59F"/>
<path d="M192.389 204.996C192.594 205.011 192.8 204.983 192.994 204.915C193.188 204.846 193.366 204.738 193.517 204.598C193.667 204.458 193.787 204.288 193.868 204.1C193.95 203.911 193.992 203.708 193.991 203.502C193.991 203.217 193.909 202.939 193.755 202.699C193.601 202.46 193.381 202.269 193.122 202.15L184.468 198.516C184.3 198.446 184.12 198.413 183.938 198.42C183.756 198.426 183.578 198.471 183.416 198.553C182.131 199.307 180.638 199.631 179.156 199.474C178.006 199.306 176.926 198.818 176.04 198.066C175.963 197.992 175.866 197.942 175.761 197.921C175.656 197.901 175.548 197.91 175.448 197.948C175.349 197.987 175.262 198.053 175.198 198.139C175.135 198.224 175.097 198.326 175.089 198.433L174.763 202.767C174.754 202.894 174.77 203.023 174.81 203.145C174.85 203.266 174.914 203.379 174.998 203.476C175.082 203.573 175.184 203.652 175.299 203.71C175.414 203.767 175.539 203.801 175.667 203.81L192.389 204.996Z" fill="#C1D8ED"/>
<path d="M187.999 148.864C187.624 140.586 179.947 102.921 179.133 98.8594L151.585 100.104C151.585 100.104 142.452 135.563 142.081 136.551L115.609 134.678L112.895 147.856L145.633 153.369C147.377 153.796 149.215 153.598 150.827 152.809C152.439 152.021 153.723 150.692 154.454 149.055C154.454 149.055 164.863 118.505 165.074 117.941L173.641 146.286L173.506 195.899L186.968 196.504C186.968 196.504 188.152 152.212 187.999 148.864Z" fill="#55AFFC"/>
<path d="M198.955 66.0929L202.115 69.0239C202.115 69.0239 207.304 66.9768 207.823 61.4973C207.994 59.6792 205.941 59.4545 205.564 59.9618C204.319 61.6369 203.285 63.4004 201.672 64.1891C201.901 63.4051 202.15 62.315 201.803 62.2056C200.889 61.9176 198.955 66.0929 198.955 66.0929Z" fill="#EDA59F"/>
<path d="M166.065 65.0829L172.593 60.5669L184.589 77.8458L199.075 63.6677L204.634 69.3291L186.788 86.7978C186.375 87.202 185.879 87.5113 185.334 87.7041C184.789 87.8969 184.208 87.9685 183.633 87.9139C183.057 87.8594 182.5 87.68 182.002 87.3883C181.503 87.0966 181.074 86.6996 180.744 86.2251L166.065 65.0829Z" fill="#2F3235"/>
<path d="M128.708 47.5718L124.4 47.3609C124.4 47.3609 122.768 41.601 126.335 37.4036C127.517 36.0124 129.113 37.3217 129.013 37.945C128.682 40.0048 127.615 42.5991 128.175 44.3008C128.576 43.5896 129.185 42.6508 129.506 42.8224C130.351 43.274 128.708 47.5718 128.708 47.5718Z" fill="#EDA59F"/>
<path d="M180.482 97.5837C179.578 101.292 150.285 107.856 148.835 101.852C147.91 98.0346 150.733 94.0712 149.422 86.5482C148.11 79.0252 139.497 70.6114 144.166 63.9901C145.521 62.0703 148.169 60.5177 151.621 59.9177C152.23 61.8812 164.453 59.7723 164.205 57.7833C164.675 57.707 165.039 57.6524 165.265 57.6234C177.255 56.0671 174.385 70.5059 175.998 80.4578C177.885 92.115 181.414 93.7585 180.482 97.5837Z" fill="#2F3235"/>
<path d="M160.614 63.6445C156.247 64.699 152.229 61.881 151.621 59.9176C151.623 59.9162 151.624 59.9152 151.626 59.9145C151.628 59.9139 151.63 59.9137 151.632 59.9139C155.981 59.1613 161.666 58.1832 164.205 57.7832C164.452 59.7721 163.881 62.8519 160.614 63.6445Z" fill="#EDA59F"/>
<path d="M127.823 73.3711C126.823 73.3712 125.86 72.9948 125.126 72.3169C124.392 71.6391 123.942 70.7098 123.864 69.7147L122.011 45.9545L129.928 45.3389L131.442 64.7391L147.843 61.103L149.232 68.9089L128.518 73.3085C128.289 73.3496 128.056 73.3705 127.823 73.3711Z" fill="#2F3235"/>
<path d="M208.934 56.6099L202.539 63.7213L196.145 56.6099" fill="#C1D8ED"/>
<path d="M205.38 59.685L202.573 62.8484L199.67 59.6436" fill="#F3F5FD"/>
<path d="M202.8 62.8486H202.278V71.7522H202.8V62.8486Z" fill="#C1D8ED"/>
<path d="M204.518 71.6533H200.562V72.1402H204.518V71.6533Z" fill="#C1D8ED"/>
<path d="M57.3782 200.565L49.7832 199.664C50.1252 196.794 50.5116 193.347 50.5379 192.781C50.5379 192.818 50.5379 192.847 50.5379 192.87H58.1863C58.1845 193.098 58.1845 193.794 57.3782 200.565Z" fill="#EDA59F"/>
<path d="M8.62207 198.111L1.67578 194.919C1.67578 194.919 4.97811 187.756 5.26875 187.121L12.2271 190.291C11.9346 190.928 8.62207 198.111 8.62207 198.111Z" fill="#EDA59F"/>
<path d="M15.8514 204.652C16.0389 204.737 16.2418 204.782 16.4475 204.784C16.6532 204.787 16.8572 204.747 17.0468 204.667C17.2363 204.588 17.4074 204.47 17.5494 204.321C17.6913 204.172 17.801 203.996 17.8716 203.803C17.9694 203.536 17.9886 203.246 17.927 202.968C17.8655 202.69 17.7257 202.436 17.5242 202.234L10.6639 195.835C10.5306 195.712 10.3723 195.619 10.1996 195.562C10.027 195.506 9.8442 195.487 9.66372 195.508C8.19772 195.771 6.68564 195.559 5.34961 194.901C4.32862 194.346 3.48446 193.515 2.91338 192.504C2.86638 192.408 2.79298 192.328 2.70179 192.272C2.61059 192.216 2.50536 192.187 2.39839 192.189C2.29143 192.191 2.18715 192.223 2.09776 192.281C2.00836 192.34 1.93754 192.423 1.89358 192.52L0.0878092 196.474C0.0345773 196.59 0.00492929 196.716 0.000564107 196.845C-0.00380107 196.973 0.0172023 197.1 0.0623708 197.22C0.107539 197.34 0.175985 197.45 0.263786 197.544C0.351587 197.638 0.457017 197.713 0.574035 197.766L15.8514 204.652Z" fill="#C1D8ED"/>
<path d="M66.6974 204.43C66.903 204.429 67.1061 204.385 67.2941 204.302C67.4821 204.219 67.651 204.098 67.7901 203.947C67.9293 203.796 68.0358 203.618 68.103 203.424C68.1703 203.23 68.1967 203.024 68.1808 202.82C68.1586 202.536 68.0556 202.265 67.884 202.037C67.7125 201.81 67.4795 201.636 67.2124 201.537L58.3106 198.56C58.1382 198.503 57.9555 198.484 57.7749 198.504C57.5944 198.524 57.4203 198.583 57.2646 198.676C56.0407 199.524 54.5767 199.957 53.0878 199.912C51.9282 199.83 50.8152 199.424 49.8755 198.741C49.7929 198.673 49.6927 198.63 49.5867 198.617C49.4807 198.604 49.3731 198.622 49.2766 198.668C49.1801 198.713 49.0986 198.785 49.0417 198.876C48.9848 198.966 48.9547 199.07 48.9551 199.177V203.523C48.955 203.651 48.9804 203.778 49.0296 203.897C49.0788 204.015 49.151 204.122 49.2419 204.213C49.3329 204.303 49.4409 204.375 49.5597 204.424C49.6784 204.472 49.8057 204.497 49.9341 204.497L66.6974 204.43Z" fill="#C1D8ED"/>
<path d="M68.8158 150.38C65.4523 135.971 55.3304 100.966 55.3304 100.966L27.6221 99.2573C27.6221 99.2573 24.967 142.33 24.3125 152.589L1.58594 190.447L13.0223 196.834C13.4324 195.305 41.0423 156.36 39.2234 155.517C40.2003 144.816 41.7941 130.076 42.7906 117.822C47.3305 129.227 51.7502 140.724 55.3559 152.403L46.845 197.136L60.0805 198.212L68.904 153.307C69.102 152.338 69.0718 151.336 68.8158 150.38Z" fill="#55AFFC"/>
<path d="M40.1836 60.9078C40.1836 60.9078 43.2219 59.9461 43.9798 52.3013L49.8964 52.2842C49.8964 52.2842 48.0193 58.92 50.5236 61.5925L40.1836 60.9078Z" fill="#EDA59F"/>
<path opacity="0.14" d="M49.6105 59.9659L45.5186 55.4678L49.2609 56.1092C49.1357 57.4053 49.2542 58.7133 49.6105 59.9659Z" fill="black"/>
<path d="M41.265 48.7889C41.2439 51.1461 42.0976 53.5376 43.9817 54.6429C46.0232 55.9159 48.3457 56.6709 50.7466 56.842C57.1069 57.4703 58.4679 43.0192 55.9964 39.7144C53.5248 36.4096 44.4748 36.5692 42.5682 40.9972C41.583 43.2875 41.2862 46.5451 41.265 48.7889Z" fill="#EDA59F"/>
<path d="M50.6469 48.6699C50.9384 48.6699 51.1746 48.4341 51.1746 48.1431C51.1746 47.8521 50.9384 47.6162 50.6469 47.6162C50.3554 47.6162 50.1191 47.8521 50.1191 48.1431C50.1191 48.4341 50.3554 48.6699 50.6469 48.6699Z" fill="#0F1011"/>
<path d="M54.8041 49.0806C55.0956 49.0806 55.3319 48.8447 55.3319 48.5537C55.3319 48.2627 55.0956 48.0269 54.8041 48.0269C54.5126 48.0269 54.2764 48.2627 54.2764 48.5537C54.2764 48.8447 54.5126 49.0806 54.8041 49.0806Z" fill="#0F1011"/>
<path d="M55.9507 47.6171C55.9347 47.6172 55.9187 47.6156 55.903 47.6124L54.531 47.3448C54.498 47.3397 54.4665 47.3279 54.4382 47.3103C54.4099 47.2927 54.3854 47.2696 54.3663 47.2424C54.3471 47.2151 54.3337 47.1843 54.3267 47.1517C54.3198 47.1192 54.3195 47.0855 54.3259 47.0528C54.3322 47.0202 54.3451 46.9891 54.3638 46.9615C54.3825 46.9339 54.4065 46.9104 54.4345 46.8923C54.4625 46.8742 54.4939 46.8619 54.5267 46.8562C54.5596 46.8505 54.5932 46.8515 54.6257 46.859L55.9981 47.1266C56.0584 47.1386 56.1121 47.1725 56.1488 47.2217C56.1856 47.271 56.2026 47.3321 56.1967 47.3933C56.1908 47.4544 56.1624 47.5112 56.1169 47.5525C56.0715 47.5939 56.0122 47.6169 55.9507 47.6171Z" fill="#0F1011"/>
<path d="M49.7425 47.0039C49.6787 47.0027 49.6178 46.977 49.5725 46.9322C49.5272 46.8874 49.5009 46.8268 49.4991 46.7632C49.4973 46.6995 49.5202 46.6376 49.5629 46.5904C49.6057 46.5431 49.665 46.5141 49.7286 46.5093L51.1443 46.4304C51.177 46.4279 51.2098 46.4319 51.2409 46.4424C51.2719 46.4529 51.3005 46.4695 51.3249 46.4913C51.3494 46.5132 51.3691 46.5397 51.3829 46.5694C51.3968 46.599 51.4044 46.6312 51.4055 46.6639C51.4091 46.7294 51.3866 46.7937 51.3428 46.8426C51.2991 46.8916 51.2376 46.9212 51.172 46.925L49.7563 47.0035L49.7425 47.0039Z" fill="#0F1011"/>
<path d="M50.1406 52.269C50.1406 52.269 52.0203 52.8199 53.4491 52.5963C53.4491 52.5963 53.2084 53.8544 51.6692 53.7024C50.1301 53.5504 50.1406 52.269 50.1406 52.269Z" fill="#F8FCFF"/>
<path d="M46.5642 43.6363C45.2053 54.1616 43.5754 54.9768 43.5754 54.9768C43.5754 54.9768 38.9299 50.8935 39.3928 44.5082C39.8266 38.5225 44.7923 35.846 47.8389 35.7257C59.4162 35.2683 58.7963 45.6023 58.7963 45.6023C52.9689 46.0172 45.3204 43.6254 45.3204 43.6254" fill="#0F1011"/>
<path d="M47.7134 48.9197C47.6845 49.2116 47.5982 49.4949 47.4596 49.7535C47.321 50.0121 47.1327 50.2409 46.9055 50.4269C46.6783 50.6128 46.4167 50.7523 46.1355 50.8373C45.8543 50.9223 45.5591 50.9512 45.2668 50.9223C44.9744 50.8934 44.6906 50.8073 44.4316 50.6689C44.1726 50.5306 43.9434 50.3426 43.7571 50.1158C43.5709 49.889 43.4312 49.6278 43.346 49.3471C43.2609 49.0663 43.2319 48.7716 43.2609 48.4798C43.285 48.1861 43.368 47.9002 43.5051 47.6391C43.6421 47.3781 43.8304 47.1473 44.0586 46.9604C44.2869 46.7736 44.5505 46.6345 44.8337 46.5514C45.117 46.4684 45.4141 46.4431 45.7073 46.477C47.2854 46.7116 47.835 47.6922 47.7134 48.9197Z" fill="#EDA59F"/>
<path d="M37.8229 44.3284C40.6402 44.3284 42.924 42.0483 42.924 39.2357C42.924 36.4231 40.6402 34.1431 37.8229 34.1431C35.0056 34.1431 32.7217 36.4231 32.7217 39.2357C32.7217 42.0483 35.0056 44.3284 37.8229 44.3284Z" fill="#0F1011"/>
<path opacity="0.14" d="M52.4588 51.4403C52.4349 51.4417 52.4109 51.4384 52.3883 51.4306C52.3657 51.4227 52.3448 51.4105 52.3269 51.3946C52.2907 51.3626 52.2688 51.3175 52.2659 51.2692C52.2631 51.221 52.2795 51.1736 52.3117 51.1375C52.3438 51.1014 52.389 51.0796 52.4373 51.0767L53.5525 50.9451L53.1155 49.1685C53.1043 49.1218 53.112 49.0726 53.1371 49.0316C53.1621 48.9905 53.2023 48.9611 53.249 48.9496C53.2958 48.9381 53.3451 48.9456 53.3864 48.9703C53.4276 48.995 53.4574 49.035 53.4691 49.0816L53.9568 51.0582C53.963 51.0832 53.9638 51.1092 53.9591 51.1345C53.9544 51.1598 53.9444 51.1839 53.9298 51.205C53.9151 51.2262 53.8961 51.244 53.874 51.2573C53.8519 51.2706 53.8273 51.2791 53.8017 51.2821L52.4817 51.4378L52.4588 51.4403Z" fill="black"/>
<path d="M87.927 63.2332L88.1018 63.1754L86.751 64.8411L90.9496 66.4097C90.9496 66.4097 97.8996 62.6165 97.8788 57.1952C97.8782 57.057 97.8359 56.9223 97.7574 56.8086C97.6788 56.6949 97.5678 56.6075 97.4387 56.5577C97.3097 56.508 97.1686 56.4983 97.0339 56.5299C96.8992 56.5615 96.7772 56.6329 96.6838 56.7348C95.2754 58.2769 92.6807 60.9327 90.9974 61.5552C91.304 60.7978 91.6617 59.7371 91.3273 59.5942C90.4478 59.2157 88.6099 62.3911 87.927 63.2332Z" fill="#EDA59F"/>
<path d="M87.5353 61.4036L73.3608 76.6961L58.3286 63.1536L58.2995 63.186C57.2006 62.0777 55.5679 61.2996 53.2154 60.9644C52.9881 60.9309 52.6228 60.8873 52.1523 60.8338C51.8609 62.8144 39.5169 61.5876 39.4568 59.5321C35.9702 59.1911 33.0044 59.9761 31.1841 61.4661C24.9109 66.601 30.9543 77.0049 30.2007 84.6035C29.4472 92.2021 25.6662 95.2706 25.5333 99.1961C25.3246 105.365 55.3082 106.866 57.1719 103.531C59.0934 100.096 56.1346 97.5682 57.4399 85.8368C57.8231 82.38 58.8629 78.5531 59.5709 74.9523L70.9512 85.206C71.7266 85.9048 72.7466 86.2703 73.7901 86.2233C74.8336 86.1764 75.8166 85.7207 76.5258 84.9551L93.3638 66.7893L87.5353 61.4036Z" fill="#2F3235"/>
<path d="M52.1524 60.8342C51.8611 62.8147 50.4872 65.6338 47.1201 65.5247C42.633 65.3771 39.5171 61.5872 39.457 59.5317H39.4683C43.8575 59.967 49.5975 60.5404 52.1524 60.8342Z" fill="#EDA59F"/>
<path d="M38.7544 85.9755L38.903 86.0846L36.7607 85.9512L37.9142 90.2759C37.9142 90.2759 45.0382 93.7302 49.4525 90.5712C49.5648 90.4906 49.6502 90.378 49.6975 90.2482C49.7447 90.1184 49.7517 89.9774 49.7174 89.8437C49.6832 89.7099 49.6093 89.5895 49.5054 89.4983C49.4016 89.4071 49.2726 89.3492 49.1353 89.3323C47.0593 89.0804 43.3887 88.5091 41.9045 87.5005C42.7007 87.3111 43.7733 86.9875 43.6965 86.6322C43.4951 85.6974 39.8383 86.0432 38.7544 85.9755Z" fill="#EDA59F"/>
<path d="M38.3012 91.9957L19.6728 90.9664C18.9826 90.9285 18.3143 90.7113 17.734 90.3364C17.1537 89.9615 16.6815 89.4418 16.3641 88.8287C16.0467 88.2157 15.8952 87.5306 15.9245 86.8411C15.9538 86.1517 16.1628 85.4818 16.5311 84.8978L30.9212 62.0586L37.6435 66.2797L26.842 83.4223L38.7394 84.08L38.3012 91.9957Z" fill="#2F3235"/>
<path d="M99.7595 54.6958L93.3646 61.8068L86.9697 54.6958" fill="#C1D8ED"/>
<path d="M96.2053 57.7709L93.3983 60.9347L90.4951 57.7295" fill="#F3F5FD"/>
<path d="M93.6257 60.9346H93.1045V69.8382H93.6257V60.9346Z" fill="#C1D8ED"/>
<path d="M95.3428 69.7393H91.3867V70.2261H95.3428V69.7393Z" fill="#C1D8ED"/>
</g>
<defs>
<clipPath id="clip0">
<rect width="363" height="205" fill="white"/>
</clipPath>
</defs>
</svg>
