<svg width="85" height="85" fill="none" xmlns="http://www.w3.org/2000/svg"><path d="M2.499 2.687h42.67v12.495h12.328v14.91h2.499v-18.01L48.102.188H0v19.909h2.499V2.687Zm54.564 9.996h-9.395V3.288l9.395 9.395ZM0 22.596h2.499v2.498H0v-2.498ZM2.499 27.594H0v45.064h37.486V70.16H2.499V27.594Z" fill="#3DB562"/><path d="m25.056 15.145-2.518 4.003v13.33l1.346 1.347-6.392 4.95v13.88h11.164v-2.5H19.99V47.56h8.665v-2.5H19.99V42.7h12.495v-2.498H19.991V40l6.238-4.831h8.572l2.69-2.693V19.346l2.695-4.2h-15.13Zm9.937 16.298-1.228 1.228h-7.501l-1.227-1.228v-8.854h9.956v8.854ZM25.037 20.09v-.222l1.4-2.224h9.177l-.621.968v1.478h-9.956ZM20.159 7.574H5.108v7.608h15.05V7.574Zm-2.5 5.11H7.61v-2.61h10.05v2.61ZM29.99 57.665v-2.499H10.124v7.497H29.99v-2.5H12.623v-2.498H29.99ZM35.215 40.573l2.067 1.404c.439-.646.924-1.272 1.444-1.861l-1.875-1.653a21.243 21.243 0 0 0-1.636 2.11ZM64.044 41.159c-6.228-6.229-16.362-6.229-22.59 0-6.229 6.228-6.229 16.362 0 22.59a15.87 15.87 0 0 0 11.295 4.68 15.87 15.87 0 0 0 11.295-4.68 16.006 16.006 0 0 0 4.597-9.677 16.027 16.027 0 0 0-2.451-10.255l-2.101 1.352c3.405 5.288 2.643 12.359-1.812 16.813a13.387 13.387 0 0 1-9.528 3.947c-3.6 0-6.983-1.402-9.528-3.947-5.254-5.254-5.254-13.803 0-19.056 5.254-5.254 13.802-5.255 19.056 0l1.767-1.767Z" fill="#3DB562"/><path d="M53.758 53.498h2.419l2.55-2.55V45.72l-2.37-2.37h-6.365l-2.199 2.198 1.767 1.767 1.467-1.466h4.295l.907.906v3.157L55.142 51h-3.883v4.929h2.499v-2.43ZM51.244 58.427h2.5v2.499h-2.5v-2.5Z" fill="#3DB562"/><path d="M70.774 63.574c5.035-8.161 4.019-19.025-3.05-26.095a21.11 21.11 0 0 0-14.174-6.187 21.1 21.1 0 0 0-14.517 5.025l1.62 1.902c7.352-6.261 18.467-5.81 25.304 1.027 7.283 7.283 7.283 19.133 0 26.416a18.557 18.557 0 0 1-13.208 5.471c-4.99 0-9.68-1.943-13.208-5.47a18.67 18.67 0 0 1-3.544-21.483l-2.24-1.106a21.168 21.168 0 0 0 4.017 24.355c4 4 9.318 6.203 14.975 6.203 3.901 0 7.64-1.048 10.899-3.01l14.19 14.19h4.475L85 82.125V77.8L70.774 63.574ZM82.501 81.09l-1.224 1.224h-2.404L65.742 69.182a21.52 21.52 0 0 0 3.572-3.534L82.5 78.835v2.255Z" fill="#3DB562"/></svg>