<svg width="85" height="85" fill="none" xmlns="http://www.w3.org/2000/svg"><g clip-path="url(#a)" fill="#3DB562"><path d="m83.683 48.364-9.93-11.661a1.744 1.744 0 0 0-2.07-.46 1.744 1.744 0 0 0-1.009 1.863l.55 3.636c-6.212-2.998-12.112-6.302-17.569-9.84-7.31-4.741-13.966-9.968-19.785-15.537C26.654 9.46 22.552 3.736 21.123 1.595A3.567 3.567 0 0 0 18.826.068a3.56 3.56 0 0 0-2.697.55 3.588 3.588 0 0 0-.97 4.948c1.932 2.895 6.274 8.81 13.652 15.887 6.145 5.894 13.163 11.416 20.86 16.415 6.036 3.919 12.576 7.557 19.464 10.828l-2.967 2.916a1.744 1.744 0 0 0-.312 2.096 1.743 1.743 0 0 0 1.93.874L82.73 51.22a1.746 1.746 0 0 0 1.282-1.16 1.746 1.746 0 0 0-.33-1.696Zm-13.94 3.225 2.415-2.373a1.245 1.245 0 0 0-.35-2.017c-7.379-3.416-14.37-7.259-20.78-11.42-7.566-4.915-14.461-10.339-20.493-16.124-7.208-6.913-11.429-12.661-13.303-15.472a1.092 1.092 0 0 1 .904-1.693 1.09 1.09 0 0 1 .916.489c1.474 2.208 5.702 8.109 13.096 15.186 5.931 5.676 12.711 11 20.153 15.826 6.166 3.998 12.887 7.702 19.977 11.008a1.245 1.245 0 0 0 1.758-1.314l-.516-3.414 7.482 8.785-11.259 2.533Zm12.044-1.61-.001-.001ZM80.905 76.339h-6.18v-2.102a1.245 1.245 0 1 0-2.49 0v2.102h-6.939V65.83h6.938v2.58a1.245 1.245 0 1 0 2.49 0v-2.88c0-1.207-.983-2.19-2.19-2.19h-7.538c-1.208 0-2.19.983-2.19 2.19V76.34h-5.844V51.613c0-1.208-.982-2.19-2.19-2.19h-7.538c-1.207 0-2.19.982-2.19 2.19V76.34H39.2v-38.68c0-1.207-.984-2.19-2.192-2.19h-7.537c-1.208 0-2.19.983-2.19 2.19v38.68h-5.844V37.068a1.245 1.245 0 1 0-2.49 0v39.27h-6.94v-52.26h6.94v7.196a1.245 1.245 0 0 0 2.49 0v-7.495c0-1.209-.983-2.191-2.191-2.191h-7.538c-1.208 0-2.19.982-2.19 2.19v52.56h-6.18A2.345 2.345 0 0 0 .995 78.68v3.978A2.345 2.345 0 0 0 3.338 85h77.567a2.345 2.345 0 0 0 2.342-2.342V78.68a2.345 2.345 0 0 0-2.342-2.341ZM47.534 51.913h6.938v24.425h-6.938V51.913ZM29.77 37.959h6.939v38.38H29.77v-38.38Zm50.986 44.55H3.487v-3.68h77.27v3.68Z"/></g><defs><clipPath id="a"><path fill="#fff" d="M0 0h85v85H0z"/></clipPath></defs></svg>