<svg width="85" height="85" fill="none" xmlns="http://www.w3.org/2000/svg"><path d="M43.626 52.661a1.342 1.342 0 0 0-1.787-.637 21.37 21.37 0 0 1-3.395 1.27 1.341 1.341 0 0 0-.954 1.03l-1.42 7.098c-.14.7-.76 1.21-1.476 1.21h-3.873a1.509 1.509 0 0 1-1.475-1.21l-1.42-7.099a1.342 1.342 0 0 0-.954-1.029 21.326 21.326 0 0 1-4.714-1.953 1.342 1.342 0 0 0-1.403.053l-6.024 4.016a1.51 1.51 0 0 1-1.899-.189l-2.738-2.738a1.51 1.51 0 0 1-.188-1.9l4.016-6.023c.28-.42.3-.963.052-1.403a21.32 21.32 0 0 1-1.953-4.714 1.341 1.341 0 0 0-1.03-.954l-7.098-1.42c-.7-.14-1.21-.76-1.21-1.475V30.72c0-.715.51-1.336 1.21-1.476l7.099-1.42c.495-.099.893-.468 1.03-.954a21.323 21.323 0 0 1 1.952-4.713c.248-.44.228-.983-.052-1.403L9.906 14.73a1.509 1.509 0 0 1 .188-1.899l2.739-2.738a1.51 1.51 0 0 1 1.899-.188l6.024 4.016c.42.28.962.3 1.403.052a21.323 21.323 0 0 1 4.713-1.953c.487-.136.855-.534.954-1.03l1.42-7.098c.14-.7.76-1.21 1.476-1.21h3.873c.715 0 1.335.51 1.475 1.21l1.42 7.099c.1.495.468.893.954 1.03a21.324 21.324 0 0 1 4.714 1.952c.44.248.982.228 1.403-.052l6.024-4.016a1.51 1.51 0 0 1 1.899.188l2.738 2.738a1.51 1.51 0 0 1 .188 1.9l-4.015 6.023c-.28.42-.301.963-.053 1.403a21.321 21.321 0 0 1 1.953 4.714c.136.486.534.855 1.03.954l7.098 1.42c.7.14 1.21.76 1.21 1.475v3.873c0 .715-.51 1.336-1.21 1.476l-7.099 1.42c-.495.099-.893.468-1.03.954a21.355 21.355 0 0 1-1.307 3.476 1.342 1.342 0 1 0 2.42 1.16 24.08 24.08 0 0 0 1.235-3.117l6.307-1.26a4.2 4.2 0 0 0 3.367-4.109v-3.873a4.2 4.2 0 0 0-3.368-4.108l-6.307-1.26a24.014 24.014 0 0 0-1.566-3.78l3.568-5.353a4.2 4.2 0 0 0-.523-5.286L54.38 8.196a4.2 4.2 0 0 0-5.286-.524l-5.352 3.568a24.033 24.033 0 0 0-3.78-1.566l-1.261-6.307A4.2 4.2 0 0 0 34.594 0h-3.873a4.2 4.2 0 0 0-4.107 3.367l-1.262 6.307a24.02 24.02 0 0 0-3.78 1.567L16.22 7.673a4.2 4.2 0 0 0-5.285.523l-2.739 2.739a4.2 4.2 0 0 0-.523 5.285l3.568 5.353a24.016 24.016 0 0 0-1.567 3.78l-6.307 1.261A4.2 4.2 0 0 0 0 30.721v3.873a4.2 4.2 0 0 0 3.367 4.108l6.307 1.262a24.007 24.007 0 0 0 1.567 3.78l-3.568 5.352a4.2 4.2 0 0 0 .523 5.286l2.739 2.738a4.2 4.2 0 0 0 5.285.524l5.353-3.568a24.025 24.025 0 0 0 3.78 1.566l1.261 6.307a4.2 4.2 0 0 0 4.107 3.367h3.873a4.2 4.2 0 0 0 4.108-3.367l1.262-6.307a24.037 24.037 0 0 0 3.026-1.192c.67-.318.954-1.119.636-1.789Z" fill="#3DB562"/><path d="M43.81 40.125a1.342 1.342 0 0 0 1.807-.582 15.134 15.134 0 0 0 1.655-6.876c0-8.318-6.768-15.086-15.086-15.086a15.004 15.004 0 0 0-10.53 4.283 1.342 1.342 0 0 0 1.873 1.922 12.336 12.336 0 0 1 8.656-3.52c6.839 0 12.402 5.563 12.402 12.402 0 1.99-.457 3.892-1.358 5.65a1.342 1.342 0 0 0 .582 1.807ZM19.523 26.918a1.342 1.342 0 0 0-1.706.833A15.062 15.062 0 0 0 17 32.66c0 8.319 6.768 15.086 15.086 15.086 3.2 0 6.256-.988 8.84-2.86a1.342 1.342 0 0 0-1.574-2.174 12.312 12.312 0 0 1-7.266 2.35c-6.838 0-12.402-5.564-12.402-12.403 0-1.383.226-2.742.671-4.037a1.341 1.341 0 0 0-.832-1.705ZM81.635 58.653l-3.881-.776a16.24 16.24 0 0 0-.851-2.054l2.195-3.293a3.222 3.222 0 0 0-.401-4.055l-1.8-1.8a3.222 3.222 0 0 0-4.054-.4L69.55 48.47a16.22 16.22 0 0 0-2.054-.85l-.776-3.882a3.222 3.222 0 0 0-3.151-2.583h-2.545a3.222 3.222 0 0 0-3.15 2.583l-.777 3.881c-.703.236-1.39.521-2.054.851l-3.294-2.196a3.222 3.222 0 0 0-4.054.402l-1.8 1.8a3.222 3.222 0 0 0-.4 4.054l2.195 3.293a16.22 16.22 0 0 0-1.096 2.852 1.342 1.342 0 0 0 2.585.723c.292-1.045.71-2.052 1.24-2.995.249-.44.228-.983-.052-1.404l-2.64-3.958a.53.53 0 0 1 .067-.667l1.8-1.8a.531.531 0 0 1 .667-.066l3.958 2.639c.42.28.963.3 1.404.053a13.55 13.55 0 0 1 2.995-1.242c.487-.136.855-.533.954-1.029l.933-4.664a.53.53 0 0 1 .519-.425h2.545a.53.53 0 0 1 .519.425l.932 4.664c.1.496.468.894.955 1.03 1.044.292 2.052.71 2.995 1.24.44.249.983.229 1.403-.052l3.959-2.639a.53.53 0 0 1 .667.066l1.8 1.8a.53.53 0 0 1 .066.667L74.225 55c-.28.42-.3.962-.052 1.403.531.943.949 1.95 1.241 2.995.136.487.534.856 1.03.955l4.664.932a.53.53 0 0 1 .425.519v2.545a.53.53 0 0 1-.425.519l-4.665.932c-.495.1-.893.468-1.03.955a13.535 13.535 0 0 1-1.24 2.995c-.248.44-.228.983.052 1.403l2.64 3.959a.53.53 0 0 1-.067.667l-1.8 1.8a.53.53 0 0 1-.666.066l-3.96-2.64c-.42-.28-.962-.3-1.402-.052a13.55 13.55 0 0 1-2.996 1.241 1.342 1.342 0 0 0-.954 1.03l-.933 4.664a.53.53 0 0 1-.518.425h-2.546a.53.53 0 0 1-.518-.425l-.933-4.665a1.342 1.342 0 0 0-.954-1.03 13.542 13.542 0 0 1-2.996-1.24 1.342 1.342 0 0 0-1.403.052l-3.959 2.64a.53.53 0 0 1-.667-.066l-1.8-1.8a.53.53 0 0 1-.065-.667l2.639-3.959c.28-.42.3-.963.052-1.403a13.541 13.541 0 0 1-1.24-2.996 1.341 1.341 0 0 0-1.03-.954l-4.665-.933a.53.53 0 0 1-.425-.518v-2.545a.53.53 0 0 1 .425-.519l.286-.057a1.342 1.342 0 1 0-.527-2.632l-.285.057a3.222 3.222 0 0 0-2.583 3.15v2.546a3.222 3.222 0 0 0 2.583 3.15l3.88.777c.237.703.522 1.39.852 2.054l-2.196 3.293a3.221 3.221 0 0 0 .402 4.054l1.8 1.8a3.222 3.222 0 0 0 4.053.401l3.294-2.195c.664.33 1.35.614 2.054.85l.776 3.882a3.222 3.222 0 0 0 3.15 2.582h2.546a3.222 3.222 0 0 0 3.15-2.582l.777-3.881a16.24 16.24 0 0 0 2.054-.852l3.293 2.196a3.222 3.222 0 0 0 4.054-.401l1.8-1.8a3.222 3.222 0 0 0 .402-4.054l-2.196-3.294c.33-.663.615-1.35.85-2.054l3.882-.776a3.222 3.222 0 0 0 2.583-3.15v-2.545a3.221 3.221 0 0 0-2.583-3.15Z" fill="#3DB562"/><path d="M63.828 58.25a4.837 4.837 0 0 1 4.832 4.831 1.342 1.342 0 1 0 2.684 0c0-4.144-3.371-7.516-7.516-7.516-4.144 0-7.516 3.372-7.516 7.516 0 4.145 3.372 7.516 7.516 7.516a7.446 7.446 0 0 0 4.592-1.565 1.342 1.342 0 0 0-1.641-2.124 4.785 4.785 0 0 1-2.95 1.005 4.837 4.837 0 0 1-4.832-4.832 4.837 4.837 0 0 1 4.831-4.831ZM40.791 32.664c0-4.509-3.668-8.177-8.177-8.177-4.508 0-8.176 3.669-8.176 8.177 0 4.509 3.668 8.177 8.176 8.177 4.509 0 8.177-3.668 8.177-8.177Zm-13.67 0a5.5 5.5 0 0 1 5.493-5.493 5.5 5.5 0 0 1 5.493 5.493 5.499 5.499 0 0 1-5.493 5.493 5.499 5.499 0 0 1-5.492-5.493Z" fill="#3DB562"/></svg>