<svg width="85" height="85" fill="none" xmlns="http://www.w3.org/2000/svg"><path d="M49.97 25.898H37.52a1.66 1.66 0 0 0-1.66 1.66V40.84h-3.32a1.66 1.66 0 0 0 0 3.32h3.32v6.64h-3.32a1.66 1.66 0 0 0 0 3.321h3.32v8.3a1.66 1.66 0 0 0 3.32 0v-8.3h13.28a1.66 1.66 0 0 0 0-3.32H39.18v-6.64h10.79c5.958 0 9.074-4.596 9.074-9.135 0-4.536-3.116-9.128-9.073-9.128Zm0 14.942H39.18V29.219h10.79c1.802 0 3.294.612 4.317 1.771.913 1.035 1.437 2.506 1.437 4.036 0 2.894-1.779 5.814-5.753 5.814Z" fill="#3DB562"/><path d="M42.5 9.96C24.558 9.96 9.96 24.559 9.96 42.5S24.559 75.04 42.5 75.04 75.04 60.441 75.04 42.5 60.441 9.96 42.5 9.96Zm0 61.759c-16.111 0-29.219-13.108-29.219-29.219S26.39 13.281 42.5 13.281 71.719 26.39 71.719 42.5 58.61 71.719 42.5 71.719ZM71.387 73.047a1.66 1.66 0 1 0 0-3.32 1.66 1.66 0 0 0 0 3.32Z" fill="#3DB562"/><path d="M42.5 0C18.995 0 0 18.99 0 42.5 0 66.005 18.99 85 42.5 85c8.66 0 16.99-2.583 24.087-7.47a1.66 1.66 0 1 0-1.883-2.735C58.163 79.3 50.484 81.68 42.5 81.68c-21.604 0-39.18-17.576-39.18-39.18S20.896 3.32 42.5 3.32 81.68 20.896 81.68 42.5c0 7.984-2.381 15.663-6.885 22.204a1.66 1.66 0 0 0 2.735 1.883C82.417 59.49 85 51.16 85 42.5 85 18.995 66.01 0 42.5 0Z" fill="#3DB562"/></svg>