<svg width="85" height="85" fill="none" xmlns="http://www.w3.org/2000/svg"><path d="M81.674 76.284c0-3.158-2.365-5.773-5.417-6.171-.791-1.659-2.139-4.592-3.02-7.534-1.085-3.625-1.093-6.167-.02-6.973 3.06-2.298 4.815-5.653 4.815-9.205 0-5.758-4.366-10.513-9.96-11.135V12.451h9.96v-1.245C78.032 5.027 73.005 0 66.826 0H14.531C8.352 0 3.325 5.027 3.325 11.206V85h59.766v-2.49h-6.133v-2.49h19.736v2.49H70.56V85h8.623v-4.98h2.49v-3.736Zm-6.132-29.883c0 2.762-1.392 5.39-3.82 7.214-2.873 2.157-2.299 7.544 1.765 16.444H60.165c4.063-8.9 4.638-14.286 1.765-16.444-2.428-1.823-3.82-4.452-3.82-7.214 0-4.806 3.91-8.715 8.716-8.715 4.806 0 8.716 3.91 8.716 8.715Zm-8.716-43.91c4.383 0 8.021 3.252 8.627 7.47H25.668a11.2 11.2 0 0 0-4.104-7.47h45.262ZM54.468 82.51H5.815V11.206c0-4.806 3.91-8.716 8.716-8.716 4.806 0 8.716 3.91 8.716 8.716v1.245H65.58v22.815c-5.595.622-9.961 5.378-9.961 11.135 0 3.552 1.755 6.907 4.815 9.205 1.073.806 1.066 3.348-.02 6.973-.881 2.942-2.228 5.875-3.02 7.534-3.052.398-5.417 3.013-5.417 6.171v3.735h2.49v2.49Zm24.716-4.98H54.468v-1.246a3.74 3.74 0 0 1 3.736-3.735h17.244a3.74 3.74 0 0 1 3.736 3.735v1.245Z" fill="#3DB562"/><path d="M65.581 82.51h2.49V85h-2.49v-2.49ZM20.757 66.157h19.922v2.49H20.757v-2.49ZM20.757 59.932h19.922v2.49H20.757v-2.49ZM20.757 53.706h19.922v2.49H20.757v-2.49ZM40.679 22.578H20.757a3.74 3.74 0 0 0-3.736 3.736v8.715h2.49v-8.716c0-.686.56-1.245 1.246-1.245h19.922c.686 0 1.245.559 1.245 1.245v19.923c0 .686-.559 1.245-1.245 1.245H20.757a1.246 1.246 0 0 1-1.245-1.245V37.52h-2.49v8.715a3.74 3.74 0 0 0 3.735 3.736h19.922a3.74 3.74 0 0 0 3.735-3.735V26.314a3.74 3.74 0 0 0-3.735-3.736ZM65.581 43.911h2.49v2.49h-2.49v-2.49ZM60.6 19.922h2.49v2.49H60.6v-2.49ZM60.6 14.941h2.49v2.49H60.6v-2.49Z" fill="#3DB562"/><path d="m35.12 31.872-6.163 6.163-2.641-2.641-1.761 1.76 4.402 4.403 7.924-7.924-1.761-1.76Z" fill="#3DB562"/></svg>