<svg width="40" height="40" viewBox="0 0 40 40" fill="none" xmlns="http://www.w3.org/2000/svg">
<path d="M20.1953 14.1935C19.3021 14.1935 18.429 14.4584 17.6863 14.9546C16.9436 15.4509 16.3648 16.1562 16.023 16.9814C15.6811 17.8066 15.5917 18.7147 15.766 19.5907C15.9402 20.4668 16.3703 21.2715 17.0019 21.9031C17.6335 22.5346 18.4382 22.9648 19.3143 23.139C20.1903 23.3133 21.0983 23.2238 21.9236 22.882C22.7488 22.5402 23.4541 21.9614 23.9503 21.2187C24.4466 20.476 24.7114 19.6029 24.7114 18.7097C24.7101 17.5123 24.2339 16.3644 23.3872 15.5178C22.5406 14.6711 21.3927 14.1949 20.1953 14.1935ZM20.1953 21.9355C19.5573 21.9355 18.9336 21.7463 18.4031 21.3918C17.8727 21.0374 17.4592 20.5336 17.2151 19.9441C16.9709 19.3547 16.907 18.7061 17.0315 18.0803C17.156 17.4546 17.4632 16.8798 17.9143 16.4287C18.3655 15.9775 18.9402 15.6703 19.566 15.5458C20.1917 15.4214 20.8403 15.4853 21.4298 15.7294C22.0192 15.9736 22.523 16.387 22.8775 16.9175C23.2319 17.448 23.4211 18.0717 23.4211 18.7097C23.4202 19.5649 23.08 20.3848 22.4752 20.9896C21.8705 21.5943 21.0506 21.9345 20.1953 21.9355Z" fill="#26AD50"/>
<path d="M20.1953 3.87094C19.3021 3.87094 18.429 4.13581 17.6863 4.63205C16.9436 5.12828 16.3648 5.83361 16.023 6.65882C15.6811 7.48404 15.5917 8.39208 15.766 9.26812C15.9402 10.1442 16.3703 10.9489 17.0019 11.5805C17.6335 12.212 18.4382 12.6422 19.3143 12.8164C20.1903 12.9907 21.0983 12.9012 21.9236 12.5594C22.7488 12.2176 23.4541 11.6388 23.9503 10.8961C24.4466 10.1534 24.7114 9.28028 24.7114 8.38707C24.7101 7.18973 24.2339 6.04182 23.3872 5.19517C22.5406 4.34852 21.3927 3.87229 20.1953 3.87094ZM20.1953 11.6129C19.5573 11.6129 18.9336 11.4237 18.4031 11.0692C17.8727 10.7148 17.4592 10.211 17.2151 9.62153C16.9709 9.03209 16.907 8.38349 17.0315 7.75775C17.156 7.132 17.4632 6.55722 17.9143 6.10608C18.3655 5.65494 18.9402 5.34772 19.566 5.22325C20.1917 5.09878 20.8403 5.16266 21.4298 5.40681C22.0192 5.65097 22.523 6.06443 22.8775 6.59491C23.2319 7.12539 23.4211 7.74907 23.4211 8.38707C23.4202 9.24231 23.08 10.0623 22.4752 10.667C21.8705 11.2717 21.0506 11.6119 20.1953 11.6129V11.6129Z" fill="#26AD50"/>
<path d="M20.1953 24.5162C19.3021 24.5162 18.429 24.781 17.6863 25.2773C16.9436 25.7735 16.3648 26.4788 16.023 27.3041C15.6811 28.1293 15.5917 29.0373 15.766 29.9134C15.9402 30.7894 16.3703 31.5941 17.0019 32.2257C17.6335 32.8573 18.4382 33.2874 19.3143 33.4616C20.1903 33.6359 21.0983 33.5465 21.9236 33.2047C22.7488 32.8628 23.4541 32.284 23.9503 31.5413C24.4466 30.7987 24.7114 29.9255 24.7114 29.0323C24.7101 27.835 24.2339 26.687 23.3872 25.8404C22.5406 24.9938 21.3927 24.5175 20.1953 24.5162ZM20.1953 32.2581C19.5573 32.2581 18.9336 32.0689 18.4031 31.7145C17.8727 31.36 17.4592 30.8562 17.2151 30.2668C16.9709 29.6773 16.907 29.0287 17.0315 28.403C17.156 27.7772 17.4632 27.2024 17.9143 26.7513C18.3655 26.3002 18.9402 25.9929 19.566 25.8685C20.1917 25.744 20.8403 25.8079 21.4298 26.052C22.0192 26.2962 22.523 26.7097 22.8775 27.2401C23.2319 27.7706 23.4211 28.3943 23.4211 29.0323C23.4202 29.8875 23.08 30.7075 22.4752 31.3122C21.8705 31.917 21.0506 32.2571 20.1953 32.2581V32.2581Z" fill="#26AD50"/>
<path d="M29.2276 23.871C29.3802 23.871 29.5279 23.8168 29.6444 23.7182C29.7609 23.6196 29.8387 23.4828 29.8639 23.3323L31.1542 15.5903C31.1695 15.4979 31.1646 15.4032 31.1397 15.3129C31.1148 15.2226 31.0706 15.1387 31.01 15.0672C30.9495 14.9957 30.8741 14.9382 30.7891 14.8988C30.7041 14.8593 30.6116 14.8388 30.5179 14.8387H27.9372V12.9032H29.2276C29.3802 12.9032 29.5279 12.8491 29.6444 12.7505C29.7609 12.6518 29.8387 12.5151 29.8639 12.3645L31.1542 4.62258C31.1695 4.53015 31.1646 4.43548 31.1397 4.34515C31.1148 4.25482 31.0706 4.17099 31.01 4.09947C30.9495 4.02796 30.8741 3.97048 30.7891 3.93102C30.7041 3.89156 30.6116 3.87107 30.5179 3.87097H27.9372V2.58065C27.9372 2.40954 27.8693 2.24544 27.7483 2.12445C27.6273 2.00346 27.4632 1.93548 27.2921 1.93548H25.3332C25.255 1.39841 24.9862 0.90738 24.5759 0.552047C24.1656 0.196714 23.6413 0.00077477 23.0985 0H17.2921C16.7493 0.00077477 16.225 0.196714 15.8147 0.552047C15.4044 0.90738 15.1356 1.39841 15.0574 1.93548H13.0985C12.9274 1.93548 12.7633 2.00346 12.6423 2.12445C12.5213 2.24544 12.4534 2.40954 12.4534 2.58065V3.87097H9.87272C9.77902 3.87107 9.68647 3.89156 9.60149 3.93102C9.5165 3.97048 9.44112 4.02796 9.38058 4.09947C9.32004 4.17099 9.27579 4.25482 9.25089 4.34515C9.226 4.43548 9.22107 4.53015 9.23643 4.62258L10.5268 12.3645C10.5519 12.5151 10.6297 12.6518 10.7462 12.7505C10.8627 12.8491 11.0104 12.9032 11.163 12.9032H12.4534V14.8387H9.87272C9.77902 14.8388 9.68647 14.8593 9.60149 14.8988C9.5165 14.9382 9.44112 14.9957 9.38058 15.0672C9.32004 15.1387 9.27579 15.2226 9.25089 15.3129C9.226 15.4032 9.22107 15.4979 9.23643 15.5903L10.5268 23.3323C10.5519 23.4828 10.6297 23.6196 10.7462 23.7182C10.8627 23.8168 11.0104 23.871 11.163 23.871H12.4534V25.1613H9.87272C9.77902 25.1614 9.68647 25.1819 9.60149 25.2213C9.5165 25.2608 9.44112 25.3183 9.38058 25.3898C9.32004 25.4613 9.27579 25.5451 9.25089 25.6355C9.226 25.7258 9.22107 25.8205 9.23643 25.9129L10.5268 33.6548C10.5519 33.8054 10.6297 33.9421 10.7462 34.0408C10.8627 34.1394 11.0104 34.1935 11.163 34.1935H12.4534V34.8387C12.4534 35.0098 12.5213 35.1739 12.6423 35.2949C12.7633 35.4159 12.9274 35.4839 13.0985 35.4839H16.9695V39.3548C16.9695 39.5259 17.0375 39.69 17.1585 39.811C17.2795 39.932 17.4436 40 17.6147 40H22.7759C22.9471 40 23.1112 39.932 23.2321 39.811C23.3531 39.69 23.4211 39.5259 23.4211 39.3548V35.4839H27.2921C27.4632 35.4839 27.6273 35.4159 27.7483 35.2949C27.8693 35.1739 27.9372 35.0098 27.9372 34.8387V34.1935H29.2276C29.3802 34.1935 29.5279 34.1394 29.6444 34.0408C29.7609 33.9421 29.8387 33.8054 29.8639 33.6548L31.1542 25.9129C31.1695 25.8205 31.1646 25.7258 31.1397 25.6355C31.1148 25.5451 31.0706 25.4613 31.01 25.3898C30.9495 25.3183 30.8741 25.2608 30.7891 25.2213C30.7041 25.1819 30.6116 25.1614 30.5179 25.1613H27.9372V23.871H29.2276ZM27.9372 5.16129H29.7566L28.6808 11.6129H27.9372V5.16129ZM27.9372 16.129H29.7566L28.6808 22.5806H27.9372V16.129ZM12.4534 32.9032H11.7098L10.634 26.4516H12.4534V32.9032ZM12.4534 22.5806H11.7098L10.634 16.129H12.4534V22.5806ZM12.4534 11.6129H11.7098L10.634 5.16129H12.4534V11.6129ZM17.2921 1.29032H23.0985C23.2986 1.29055 23.4936 1.35268 23.6569 1.4682C23.8202 1.58371 23.9438 1.74695 24.0106 1.93548H16.38C16.4468 1.74695 16.5704 1.58371 16.7337 1.4682C16.897 1.35268 17.092 1.29055 17.2921 1.29032V1.29032ZM22.1308 38.7097H18.2598V35.4839H22.1308V38.7097ZM26.6469 34.1935H13.7437V3.22581H26.6469V34.1935ZM29.7566 26.4516L28.6808 32.9032H27.9372V26.4516H29.7566Z" fill="#26AD50"/>
</svg>
