<svg width="64" height="64" viewBox="0 0 64 64" fill="none" xmlns="http://www.w3.org/2000/svg">
<path d="M57.75 5.5H51.7916V3.75C51.7916 1.68225 50.1094 0 48.0416 0C45.9739 0 44.2916 1.68225 44.2916 3.75V5.5H23.2916V3.75C23.2916 1.68225 21.6094 0 19.5416 0C17.4739 0 15.7916 1.68225 15.7916 3.75V5.54625C15.6854 5.51687 15.574 5.5 15.4584 5.5H10.4779C7.03162 5.5 4.22788 8.30375 4.22788 11.75V33.0416C4.22788 33.732 4.78763 34.2916 5.47788 34.2916C6.16813 34.2916 6.72788 33.732 6.72788 33.0416V18.375H51.7916C52.4819 18.375 53.0416 17.8154 53.0416 17.125C53.0416 16.4346 52.4819 15.875 51.7916 15.875H6.72788V11.75C6.72788 9.68225 8.41012 8 10.4779 8H15.4584C15.574 8 15.6854 7.983 15.7916 7.95375V9.5625C15.7916 11.6302 17.4739 13.3125 19.5416 13.3125C21.6094 13.3125 23.2916 11.6302 23.2916 9.5625V8H44.2916V9.5625C44.2916 11.6302 45.9739 13.3125 48.0416 13.3125C50.1094 13.3125 51.7916 11.6302 51.7916 9.5625V8H57.75C59.8177 8 61.5 9.68225 61.5 11.75V59.2492C61.5 60.4902 60.4904 61.5 59.2492 61.5C58.0081 61.5 56.9985 60.4902 56.9985 59.2492V56.0156C56.9985 55.3252 56.4388 54.7656 55.7485 54.7656H41.2084C40.5181 54.7656 39.9584 55.3252 39.9584 56.0156C39.9584 56.706 40.5181 57.2656 41.2084 57.2656H54.4985V59.2492C54.4985 60.0631 54.7045 60.8296 55.0666 61.5H4.75C3.50938 61.5 2.5 60.4906 2.5 59.25V57.2656H30.4781C31.1684 57.2656 31.7281 56.706 31.7281 56.0156C31.7281 55.3252 31.1684 54.7656 30.4781 54.7656H17.9886C20.1729 52.8845 21.5599 50.102 21.5599 47C21.5599 41.3481 16.9618 36.75 11.3099 36.75C5.658 36.75 1.05988 41.3481 1.05988 47C1.05988 50.102 2.44687 52.8845 4.63112 54.7656H1.25C0.55975 54.7656 0 55.3252 0 56.0156V59.25C0 61.8691 2.13088 64 4.75 64H59.2492C61.8687 64 64 61.8689 64 59.2492V11.75C64 8.30375 61.1963 5.5 57.75 5.5ZM20.7916 9.5625C20.7916 10.2517 20.2309 10.8125 19.5416 10.8125C18.8524 10.8125 18.2916 10.2517 18.2916 9.5625V3.75C18.2916 3.06075 18.8524 2.5 19.5416 2.5C20.2309 2.5 20.7916 3.06075 20.7916 3.75V9.5625ZM49.2916 9.5625C49.2916 10.2517 48.7309 10.8125 48.0416 10.8125C47.3524 10.8125 46.7916 10.2517 46.7916 9.5625V3.75C46.7916 3.06075 47.3524 2.5 48.0416 2.5C48.7309 2.5 49.2916 3.06075 49.2916 3.75V9.5625ZM3.55988 47C3.55988 42.7266 7.0365 39.25 11.3099 39.25C15.5833 39.25 19.0599 42.7266 19.0599 47C19.0599 51.2734 15.5833 54.75 11.3099 54.75C7.0365 54.75 3.55988 51.2734 3.55988 47Z" fill="#26ad50"/>
<path d="M58.5387 16.2412C58.3063 16.0087 57.9838 15.875 57.655 15.875C57.3262 15.875 57.0038 16.0087 56.7713 16.2412C56.5388 16.4737 56.405 16.7962 56.405 17.125C56.405 17.4538 56.5387 17.7763 56.7713 18.0088C57.0039 18.2413 57.3262 18.375 57.655 18.375C57.9838 18.375 58.3063 18.2413 58.5387 18.0088C58.7712 17.7763 58.905 17.4538 58.905 17.125C58.905 16.7962 58.7713 16.4737 58.5387 16.2412Z" fill="#26ad50"/>
<path d="M37.3311 55.1314C37.0988 54.8989 36.7763 54.7664 36.4475 54.7664C36.1188 54.7664 35.7963 54.8989 35.5638 55.1314C35.3313 55.3651 35.1975 55.6864 35.1975 56.0151C35.1975 56.3451 35.3311 56.6664 35.5638 56.9001C35.7963 57.1326 36.1188 57.2651 36.4475 57.2651C36.7763 57.2651 37.0988 57.1326 37.3311 56.9001C37.5636 56.6664 37.6975 56.3439 37.6975 56.0151C37.6975 55.6864 37.5638 55.3651 37.3311 55.1314Z" fill="#26ad50"/>
<path d="M28.2808 38C25.6616 38 23.5308 40.1309 23.5308 42.75C23.5308 45.3691 25.6616 47.5 28.2808 47.5C30.8999 47.5 33.0308 45.3691 33.0308 42.75C33.0308 40.1309 30.8999 38 28.2808 38ZM28.2808 45C27.0401 45 26.0308 43.9906 26.0308 42.75C26.0308 41.5094 27.0401 40.5 28.2808 40.5C29.5214 40.5 30.5308 41.5094 30.5308 42.75C30.5308 43.9906 29.5214 45 28.2808 45Z" fill="#26ad50"/>
<path d="M39.9473 38C37.3281 38 35.1973 40.1309 35.1973 42.75C35.1973 45.3691 37.3281 47.5 39.9473 47.5C42.5664 47.5 44.6973 45.3691 44.6973 42.75C44.6973 40.1309 42.5664 38 39.9473 38ZM39.9473 45C38.7066 45 37.6973 43.9906 37.6973 42.75C37.6973 41.5094 38.7066 40.5 39.9473 40.5C41.1879 40.5 42.1973 41.5094 42.1973 42.75C42.1973 43.9906 41.1879 45 39.9473 45Z" fill="#26ad50"/>
<path d="M51.614 38C48.9949 38 46.864 40.1309 46.864 42.75C46.864 45.3691 48.9949 47.5 51.614 47.5C54.2331 47.5 56.364 45.3691 56.364 42.75C56.364 40.1309 54.2331 38 51.614 38ZM51.614 45C50.3734 45 49.364 43.9906 49.364 42.75C49.364 41.5094 50.3734 40.5 51.614 40.5C52.8546 40.5 53.864 41.5094 53.864 42.75C53.864 43.9906 52.8546 45 51.614 45Z" fill="#26ad50"/>
<path d="M16.614 25C13.9949 25 11.864 27.1309 11.864 29.75C11.864 32.3691 13.9949 34.5 16.614 34.5C19.2331 34.5 21.364 32.3691 21.364 29.75C21.364 27.1309 19.2331 25 16.614 25ZM16.614 32C15.3734 32 14.364 30.9906 14.364 29.75C14.364 28.5094 15.3734 27.5 16.614 27.5C17.8546 27.5 18.864 28.5094 18.864 29.75C18.864 30.9906 17.8546 32 16.614 32Z" fill="#26ad50"/>
<path d="M39.9473 25C37.3281 25 35.1973 27.1309 35.1973 29.75C35.1973 32.3691 37.3281 34.5 39.9473 34.5C42.5664 34.5 44.6973 32.3691 44.6973 29.75C44.6973 27.1309 42.5664 25 39.9473 25ZM39.9473 32C38.7066 32 37.6973 30.9906 37.6973 29.75C37.6973 28.5094 38.7066 27.5 39.9473 27.5C41.1879 27.5 42.1973 28.5094 42.1973 29.75C42.1973 30.9906 41.1879 32 39.9473 32Z" fill="#26ad50"/>
<path d="M51.614 25C48.9949 25 46.864 27.1309 46.864 29.75C46.864 32.3691 48.9949 34.5 51.614 34.5C54.2331 34.5 56.364 32.3691 56.364 29.75C56.364 27.1309 54.2331 25 51.614 25ZM51.614 32C50.3734 32 49.364 30.9906 49.364 29.75C49.364 28.5094 50.3734 27.5 51.614 27.5C52.8546 27.5 53.864 28.5094 53.864 29.75C53.864 30.9906 52.8546 32 51.614 32Z" fill="#26ad50"/>
<path d="M28.2808 25C25.6616 25 23.5308 27.1309 23.5308 29.75C23.5308 32.3691 25.6616 34.5 28.2808 34.5C30.8999 34.5 33.0308 32.3691 33.0308 29.75C33.0308 27.1309 30.8999 25 28.2808 25ZM28.2808 32C27.0401 32 26.0308 30.9906 26.0308 29.75C26.0308 28.5094 27.0401 27.5 28.2808 27.5C29.5214 27.5 30.5308 28.5094 30.5308 29.75C30.5308 30.9906 29.5214 32 28.2808 32Z" fill="#26ad50"/>
<path d="M15.7629 43.9537C15.2746 43.4656 14.4834 43.4656 13.995 43.9537L9.92426 48.0246L8.53314 46.6335C8.04489 46.1454 7.25364 46.1454 6.76526 46.6335C6.27714 47.1216 6.27714 47.9131 6.76526 48.4014L9.04039 50.6762C9.27489 50.9106 9.59276 51.0424 9.92426 51.0424C10.2558 51.0424 10.5736 50.9106 10.8081 50.6762L15.7629 45.7215C16.251 45.2334 16.251 44.4419 15.7629 43.9537Z" fill="#26ad50"/>
</svg>
