<svg width="64" height="64" viewBox="0 0 64 64" fill="none" xmlns="http://www.w3.org/2000/svg">
<path d="M9.71391 28.3066C7.42349 28.3066 7.42349 31.1484 9.71391 31.1484C18.8362 31.1484 27.9567 31.1484 37.0783 31.1484C39.3728 31.1484 39.3728 28.3066 37.0783 28.3066C27.9567 28.3066 18.8362 28.3066 9.71391 28.3066Z" fill="#26ad50"/>
<path d="M37.0783 35.0259C27.9568 35.0259 18.8362 35.0259 9.71391 35.0259C7.42349 35.0259 7.42349 37.8647 9.71391 37.8647C18.8362 37.8647 27.9568 37.8647 37.0783 37.8647C39.3731 37.8647 39.3731 35.0259 37.0783 35.0259Z" fill="#26ad50"/>
<path d="M37.0783 41.2493C27.9568 41.2493 18.8362 41.2493 9.71391 41.2493C7.42349 41.2493 7.42349 44.0877 9.71391 44.0877C18.8362 44.0877 27.9568 44.0877 37.0783 44.0877C39.3731 44.0875 39.3731 41.2493 37.0783 41.2493Z" fill="#26ad50"/>
<path d="M37.0783 47.968C27.9568 47.968 18.8362 47.968 9.71391 47.968C7.42349 47.968 7.42349 50.8053 9.71391 50.8053C18.8362 50.8053 27.9568 50.8053 37.0783 50.8053C39.3731 50.805 39.3731 47.968 37.0783 47.968Z" fill="#26ad50"/>
<path d="M36.5562 54.3074C27.4313 54.3074 18.3074 54.3074 9.18678 54.3074C6.89803 54.3074 6.89803 57.146 9.18678 57.146C18.3074 57.146 27.4313 57.146 36.5562 57.146C38.844 57.1457 38.844 54.3074 36.5562 54.3074Z" fill="#26ad50"/>
<path d="M0 11.0046V64H51.0948V18.3572L41.6009 11.0046H0ZM46.6788 60.4717H4.41942V14.5332H39.3265V20.1311H46.6754V60.4717H46.6788Z" fill="#26ad50"/>
<path d="M6.48682 5.65161V11.7855H10.9062V9.17879H45.815V14.7767H53.1656V55.118H51.2241V58.6462H57.5833V13.0028L48.0894 5.65161H6.48682Z" fill="#26ad50"/>
<path d="M54.5043 0H12.9023V6.13524H17.3201V3.52851H52.2299V9.12639H59.5804V49.4669H57.6406V52.9951H63.9999V7.35252L54.5043 0Z" fill="#26ad50"/>
</svg>
