<svg width="64" height="64" viewBox="0 0 64 64" fill="none" xmlns="http://www.w3.org/2000/svg">
<path d="M32 64C14.3555 64 0 49.6445 0 32C0 14.3555 14.3555 0 32 0C49.6445 0 64 14.3555 64 32C64 49.6445 49.6445 64 32 64ZM32 4.00002C16.5605 4.00002 4.00002 16.5605 4.00002 32C4.00002 47.4395 16.5605 60 32 60C47.4395 60 60 47.4395 60 32C60 16.5605 47.4395 4.00002 32 4.00002Z" fill="#26ad50"/>
<path d="M33.9312 47C23.8456 47 15.6399 39.8223 15.6399 31C15.6399 22.1777 23.8454 15 33.9312 15C38.8902 15 43.5301 16.7071 46.9999 19.8066L43.7311 22.6034C41.1299 20.2791 37.6512 18.9999 33.9312 18.9999C26.3664 18.9999 20.2127 24.3827 20.2127 30.9999C20.2127 37.617 26.3664 42.9999 33.9312 42.9999C37.6489 42.9999 41.1276 41.7206 43.7311 39.3963L46.9954 42.1971C43.5278 45.2948 38.8881 46.9999 33.9312 47Z" fill="#26ad50"/>
</svg>
