<svg width="29" height="19" viewBox="0 0 29 19" fill="none" xmlns="http://www.w3.org/2000/svg">
<path d="M11.9309 8.95468C12.5326 8.65338 12.9876 8.3178 13.2994 7.95516C13.8541 7.30205 14.1278 6.43605 14.1278 5.36256C14.1278 4.31795 13.8541 3.42488 13.3067 2.67615C12.3931 1.45652 10.8469 0.83228 8.66083 0.799805H0V18.3959H8.07535C8.9853 18.3959 9.82818 18.3183 10.6076 18.1596C11.3871 17.999 12.0614 17.7049 12.6323 17.2755C13.1399 16.9021 13.564 16.4384 13.9012 15.8917C14.4341 15.0654 14.7006 14.129 14.7006 13.0862C14.7006 12.0759 14.4667 11.2153 14.0027 10.5081C13.5332 9.80083 12.8444 9.28304 11.9309 8.95468ZM3.57273 3.85608H7.47355C8.33093 3.85608 9.03786 3.94809 9.59253 4.13031C10.2342 4.39553 10.5551 4.93497 10.5551 5.75768C10.5551 6.49558 10.3103 7.01158 9.82637 7.30205C9.33876 7.59252 8.70615 7.73866 7.93034 7.73866H3.57273V3.85608ZM9.74117 15.0329C9.30976 15.2404 8.70253 15.3433 7.9249 15.3433H3.57273V10.6506H7.98472C8.75328 10.656 9.35145 10.757 9.77924 10.9465C10.5406 11.2893 10.9194 11.9171 10.9194 12.8355C10.9194 13.918 10.5279 14.6468 9.74117 15.0329Z" fill="black"/>
<path d="M26.2134 1.62109H18.5332V3.81167H26.2134V1.62109Z" fill="black"/>
<path d="M28.881 10.2637C28.7215 9.24438 28.3698 8.34775 27.8224 7.5738C27.2224 6.69702 26.4611 6.05477 25.5349 5.64885C24.6122 5.24113 23.5736 5.03727 22.4171 5.03907C20.4758 5.03907 18.8988 5.64344 17.6789 6.84315C16.4626 8.04647 15.8535 9.77658 15.8535 12.0317C15.8535 14.4365 16.526 16.1738 17.8782 17.24C19.225 18.3081 20.7803 18.8403 22.5458 18.8403C24.6829 18.8403 26.3451 18.207 27.5324 16.9442C28.2919 16.1468 28.7215 15.362 28.8158 14.5917H25.2775C25.0726 14.9723 24.8352 15.27 24.5633 15.4865C24.0702 15.8834 23.4286 16.0818 22.6419 16.0818C21.8933 16.0818 21.2588 15.9177 20.7295 15.5911C19.8558 15.0679 19.3991 14.1515 19.341 12.8471H28.997C29.0115 11.7232 28.9753 10.859 28.881 10.2637ZM19.4281 10.601C19.5549 9.75493 19.8631 9.08381 20.3525 8.58769C20.8419 8.09338 21.5344 7.84441 22.4207 7.84261C23.2382 7.84261 23.9216 8.07533 24.4781 8.54259C25.0273 9.01345 25.3373 9.6972 25.4007 10.601H19.4281Z" fill="black"/>
</svg>
