<svg width="32" height="32" viewBox="0 0 32 32" fill="none" xmlns="http://www.w3.org/2000/svg">
<path d="M28 21.8933V26.608C28.0002 26.9456 27.8723 27.2706 27.6421 27.5176C27.412 27.7646 27.0967 27.915 26.76 27.9387C26.1773 27.9787 25.7013 28 25.3333 28C13.5507 28 4 18.4493 4 6.66667C4 6.29867 4.02 5.82267 4.06133 5.24C4.08496 4.90326 4.23544 4.58801 4.4824 4.35788C4.72937 4.12774 5.05443 3.99985 5.392 4H10.1067C10.2721 3.99983 10.4316 4.06115 10.5543 4.17203C10.677 4.28291 10.7541 4.43544 10.7707 4.6C10.8013 4.90667 10.8293 5.15067 10.856 5.336C11.121 7.18523 11.664 8.98378 12.4667 10.6707C12.5933 10.9373 12.5107 11.256 12.2707 11.4267L9.39333 13.4827C11.1526 17.5819 14.4194 20.8487 18.5187 22.608L20.572 19.736C20.6559 19.6187 20.7784 19.5345 20.918 19.4982C21.0576 19.4619 21.2055 19.4757 21.336 19.5373C23.0227 20.3385 24.8208 20.8802 26.6693 21.144C26.8547 21.1707 27.0987 21.2 27.4027 21.2293C27.567 21.2462 27.7192 21.3234 27.8298 21.4461C27.9404 21.5688 28.0015 21.7282 28.0013 21.8933H28Z" fill="black"/>
</svg>
