<svg width="29" height="29" viewBox="0 0 29 29" fill="none" xmlns="http://www.w3.org/2000/svg">
<g clip-path="url(#clip0_250:4739)">
<path d="M28.8463 21.1702C28.8112 21.0945 28.7784 21.0318 28.748 20.9815C28.2449 20.0753 27.2834 18.963 25.8641 17.6443L25.8341 17.6141L25.8191 17.5993L25.8039 17.5841H25.7887C25.1445 16.9701 24.7366 16.5572 24.5658 16.3458C24.2532 15.9432 24.1832 15.5356 24.354 15.1226C24.4747 14.8106 24.9281 14.1516 25.713 13.1448C26.1259 12.6113 26.4528 12.1837 26.6943 11.8615C28.4359 9.54617 29.1909 8.06665 28.9593 7.42235L28.8693 7.27179C28.8089 7.18114 28.6529 7.09822 28.4015 7.02259C28.1496 6.94713 27.8275 6.93465 27.4349 6.98494L23.0864 7.01498C23.016 6.99002 22.9154 6.99234 22.7844 7.02259C22.6535 7.05284 22.588 7.06802 22.588 7.06802L22.5123 7.10584L22.4522 7.15126C22.4019 7.1813 22.3465 7.23414 22.2861 7.30966C22.2259 7.38491 22.1756 7.47323 22.1355 7.57387C21.662 8.79187 21.1238 9.9243 20.5197 10.9711C20.1472 11.5953 19.8051 12.1363 19.4927 12.5943C19.1808 13.0522 18.919 13.3895 18.7078 13.6058C18.4963 13.8223 18.3054 13.9957 18.1339 14.1267C17.9627 14.2577 17.832 14.3131 17.7415 14.2928C17.6508 14.2726 17.5654 14.2525 17.4846 14.2324C17.3437 14.1417 17.2305 14.0185 17.1451 13.8624C17.0593 13.7064 17.0015 13.5101 16.9713 13.2735C16.9413 13.0368 16.9235 12.8332 16.9184 12.662C16.9137 12.491 16.9159 12.2492 16.9261 11.9372C16.9366 11.625 16.9413 11.4138 16.9413 11.303C16.9413 10.9204 16.9487 10.5052 16.9637 10.0573C16.9789 9.60937 16.9913 9.25445 17.0016 8.99299C17.0118 8.73126 17.0166 8.45435 17.0166 8.16243C17.0166 7.8705 16.9988 7.64156 16.9637 7.4754C16.929 7.30944 16.8758 7.14836 16.8056 6.99219C16.735 6.83617 16.6316 6.71549 16.496 6.62982C16.3602 6.54425 16.1913 6.47634 15.9903 6.42589C15.4567 6.30515 14.7773 6.23984 13.9517 6.22969C12.0795 6.20959 10.8765 6.33049 10.343 6.59222C10.1316 6.7028 9.94035 6.85389 9.76932 7.04502C9.58808 7.26655 9.5628 7.38745 9.69364 7.40733C10.2977 7.49782 10.7253 7.71428 10.977 8.0565L11.0677 8.23784C11.1383 8.36868 11.2087 8.60032 11.2792 8.93244C11.3496 9.26456 11.395 9.63195 11.415 10.0344C11.4652 10.7693 11.4652 11.3985 11.415 11.9218C11.3646 12.4454 11.317 12.853 11.2716 13.1449C11.2261 13.4368 11.1582 13.6734 11.0677 13.8545C10.977 14.0357 10.9167 14.1464 10.8864 14.1866C10.8562 14.2268 10.831 14.2522 10.8111 14.2621C10.6802 14.3122 10.5441 14.3378 10.4033 14.3378C10.2623 14.3378 10.0912 14.2672 9.88995 14.1262C9.68872 13.9852 9.47988 13.7916 9.26342 13.5449C9.04696 13.2982 8.80284 12.9535 8.53096 12.5106C8.25929 12.0677 7.97741 11.5443 7.68548 10.9404L7.44396 10.5024C7.29297 10.2206 7.08672 9.81033 6.82499 9.27191C6.5631 8.73327 6.33162 8.21225 6.1304 7.70894C6.04996 7.49756 5.92911 7.33663 5.76808 7.22589L5.69251 7.18046C5.64227 7.14026 5.56162 7.09759 5.45098 7.0521C5.34019 7.00668 5.22458 6.9741 5.10368 6.95406L0.966529 6.98409C0.543765 6.98409 0.256916 7.07987 0.105876 7.27115L0.0454284 7.36164C0.0152309 7.41204 0 7.49253 0 7.60333C0 7.71407 0.0301974 7.84998 0.0906452 8.01091C0.694594 9.43035 1.35137 10.7993 2.06099 12.1179C2.7706 13.4366 3.38724 14.4988 3.91054 15.3036C4.43395 16.109 4.96745 16.8691 5.51106 17.5835C6.05466 18.2983 6.41449 18.7563 6.59055 18.9576C6.76682 19.1592 6.90527 19.3099 7.00591 19.4105L7.38346 19.7728C7.62504 20.0145 7.97979 20.3039 8.44788 20.641C8.91607 20.9784 9.4344 21.3105 10.0031 21.6379C10.572 21.9648 11.2337 22.2315 11.9888 22.4378C12.7437 22.6443 13.4785 22.7272 14.1932 22.6872H15.9296C16.2818 22.6568 16.5486 22.5461 16.73 22.355L16.79 22.2793C16.8304 22.2192 16.8683 22.1259 16.9032 22.0003C16.9385 21.8744 16.956 21.7358 16.956 21.5851C16.9457 21.1523 16.9787 20.7623 17.054 20.415C17.1292 20.0679 17.215 19.8062 17.311 19.6299C17.4068 19.4538 17.515 19.3052 17.6355 19.1847C17.7561 19.064 17.8421 18.9908 17.8926 18.9656C17.9427 18.9403 17.9828 18.9231 18.013 18.9128C18.2545 18.8323 18.5388 18.9103 18.8663 19.147C19.1935 19.3836 19.5004 19.6757 19.7875 20.0228C20.0744 20.3703 20.4191 20.7601 20.8216 21.1929C21.2245 21.6258 21.5767 21.9476 21.8785 22.1593L22.1804 22.3405C22.382 22.4614 22.6437 22.5721 22.9659 22.6727C23.2875 22.7733 23.5693 22.7985 23.8112 22.7482L27.6764 22.6879C28.0588 22.6879 28.3562 22.6246 28.5672 22.499C28.7787 22.3732 28.9043 22.2346 28.9448 22.0838C28.9852 21.9329 28.9874 21.7616 28.9525 21.5702C28.9167 21.3792 28.8814 21.2457 28.8463 21.1702Z" fill="black"/>
</g>
<defs>
<clipPath id="clip0_250:4739">
<rect width="29" height="29" fill="white"/>
</clipPath>
</defs>
</svg>
