<svg width="29" height="29" viewBox="0 0 29 29" fill="none" xmlns="http://www.w3.org/2000/svg">
<g clip-path="url(#clip0_250:4742)">
<path d="M28.9714 8.52608C28.9035 6.9852 28.6543 5.92586 28.2974 5.00792C27.9291 4.03356 27.3626 3.16121 26.6204 2.43602C25.8952 1.69955 25.0171 1.12728 24.054 0.764798C23.1308 0.407848 22.077 0.158669 20.5361 0.0907312C18.9837 0.0170398 18.4909 0 14.5536 0C10.6163 0 10.1235 0.0170398 8.57685 0.0849775C7.03597 0.152915 5.97663 0.402316 5.05892 0.759044C4.08433 1.12728 3.21198 1.6938 2.4868 2.43602C1.75033 3.16121 1.17828 4.03931 0.815578 5.00239C0.458629 5.92586 0.20945 6.97944 0.141512 8.52033C0.067821 10.0727 0.0507812 10.5655 0.0507812 14.5028C0.0507812 18.4401 0.067821 18.933 0.135759 20.4796C0.203696 22.0205 0.453096 23.0798 0.810045 23.9977C1.17828 24.9721 1.75033 25.8445 2.4868 26.5696C3.21198 27.3061 4.09009 27.8784 5.05316 28.2409C5.97663 28.5978 7.03021 28.847 8.57131 28.9149C10.1177 28.9831 10.6108 28.9999 14.5481 28.9999C18.4853 28.9999 18.9782 28.9831 20.5248 28.9149C22.0657 28.847 23.125 28.5978 24.0427 28.2409C25.9917 27.4874 27.5326 25.9465 28.2861 23.9977C28.6428 23.0743 28.8922 22.0205 28.9601 20.4796C29.0281 18.933 29.0451 18.4401 29.0451 14.5028C29.0451 10.5655 29.0394 10.0727 28.9714 8.52608ZM26.3599 20.3663C26.2975 21.7826 26.0596 22.5474 25.8613 23.0572C25.374 24.3206 24.3714 25.3233 23.108 25.8106C22.5981 26.0089 21.8278 26.2468 20.417 26.309C18.8874 26.3771 18.4287 26.3939 14.5593 26.3939C10.69 26.3939 10.2255 26.3771 8.70144 26.309C7.28515 26.2468 6.52035 26.0089 6.01049 25.8106C5.38179 25.5782 4.80952 25.21 4.34502 24.7285C3.86348 24.2582 3.49524 23.6917 3.26288 23.063C3.0646 22.5531 2.82671 21.7826 2.76453 20.372C2.69637 18.8424 2.67955 18.3835 2.67955 14.5141C2.67955 10.6448 2.69637 10.1803 2.76453 8.65642C2.82671 7.24013 3.0646 6.47533 3.26288 5.96547C3.49524 5.33655 3.86348 4.7645 4.35077 4.29978C4.8208 3.81824 5.38732 3.45 6.01624 3.21786C6.5261 3.01958 7.29665 2.78169 8.70719 2.71928C10.2368 2.65134 10.6958 2.6343 14.5649 2.6343C18.44 2.6343 18.8987 2.65134 20.4228 2.71928C21.8391 2.78169 22.6039 3.01958 23.1137 3.21786C23.7424 3.45 24.3147 3.81824 24.7792 4.29978C25.2607 4.77003 25.629 5.33655 25.8613 5.96547C26.0596 6.47533 26.2975 7.24566 26.3599 8.65642C26.4279 10.186 26.4449 10.6448 26.4449 14.5141C26.4449 18.3835 26.4279 18.8367 26.3599 20.3663Z" fill="black"/>
<path d="M14.5542 7.05273C10.4414 7.05273 7.10449 10.3894 7.10449 14.5024C7.10449 18.6154 10.4414 21.9521 14.5542 21.9521C18.6672 21.9521 22.0039 18.6154 22.0039 14.5024C22.0039 10.3894 18.6672 7.05273 14.5542 7.05273ZM14.5542 19.3349C11.886 19.3349 9.72176 17.1708 9.72176 14.5024C9.72176 11.834 11.886 9.67 14.5542 9.67C17.2226 9.67 19.3866 11.834 19.3866 14.5024C19.3866 17.1708 17.2226 19.3349 14.5542 19.3349Z" fill="black"/>
<path d="M24.0381 6.75869C24.0381 7.71912 23.2594 8.49786 22.2987 8.49786C21.3383 8.49786 20.5596 7.71912 20.5596 6.75869C20.5596 5.79805 21.3383 5.01953 22.2987 5.01953C23.2594 5.01953 24.0381 5.79805 24.0381 6.75869Z" fill="black"/>
</g>
<defs>
<clipPath id="clip0_250:4742">
<rect width="29" height="29" fill="white"/>
</clipPath>
</defs>
</svg>
