<svg width="67" height="67" viewBox="0 0 67 67" fill="none" xmlns="http://www.w3.org/2000/svg">
<circle cx="33.5" cy="33.5" r="33.5" fill="#EB5757"/>
<path d="M18.9688 42.4023C17.7422 42.9961 16.1406 43.293 14.1641 43.293C11.5859 43.293 9.55859 42.5352 8.08203 41.0195C6.60547 39.5039 5.86719 37.4844 5.86719 34.9609C5.86719 32.2734 6.69531 30.0938 8.35156 28.4219C10.0156 26.75 12.1719 25.9141 14.8203 25.9141C16.4609 25.9141 17.8438 26.1211 18.9688 26.5352V30.1797C17.8438 29.5078 16.5625 29.1719 15.125 29.1719C13.5469 29.1719 12.2734 29.668 11.3047 30.6602C10.3359 31.6523 9.85156 32.9961 9.85156 34.6914C9.85156 36.3164 10.3086 37.6133 11.2227 38.582C12.1367 39.543 13.3672 40.0234 14.9141 40.0234C16.3906 40.0234 17.7422 39.6641 18.9688 38.9453V42.4023ZM41.0469 43H37.3086V32.9453C37.3086 31.8594 37.3555 30.6602 37.4492 29.3477H37.3555C37.1602 30.3789 36.9844 31.1211 36.8281 31.5742L32.8906 43H29.7969L25.7891 31.6914C25.6797 31.3867 25.5039 30.6055 25.2617 29.3477H25.1562C25.2578 31.0039 25.3086 32.457 25.3086 33.707V43H21.8984V26.1953H27.4414L30.875 36.1562C31.1484 36.9531 31.3477 37.7539 31.4727 38.5586H31.543C31.7539 37.6289 31.9766 36.8203 32.2109 36.1328L35.6445 26.1953H41.0469V43ZM59.9844 43H56.4102V33.7656C56.4102 32.7031 56.4492 31.7969 56.5273 31.0469H56.457C56.293 31.3672 56.0117 31.832 55.6133 32.4414L48.6758 43H44.8672V26.1953H48.4414V35.4883C48.4414 36.6367 48.4102 37.4062 48.3477 37.7969H48.3945C48.4336 37.7031 48.7227 37.2461 49.2617 36.4258L55.9297 26.1953H59.9844V43Z" fill="white"/>
</svg>
