<svg width="749" height="539" fill="none" xmlns="http://www.w3.org/2000/svg"><path d="M253.535 92.411c-31.999 3.5-103 24.1-131 114.5-5.333 15.834-12.999 54-10.499 78 2.568 24.661 6.002 50.5 0 73-13.099 49.103-41.6 146.9 14 166.5 41.667 18.334 141.4 33.7 207-51.5 19.5-23.166 88-63.3 206-38.5 29.5 4.667 100.301-9.4 147.501-103 1.5-5.5 102.9-181.8 16.5-239-15.167-17.666-82.501-42.4-230.501 0-15.666 3.334-60.3 8-113.5 0-24.167-3.5-78-2-105.501 0Z" fill="#E9F7ED"/><path d="m81.86 250.751-1.94-4.561.46-.196-.628-1.474 1.588.21.066-.496 4.913.648-.065.495 4.914.648.065-.496 4.914.648-.066.496 4.914.648.065-.496 4.914.648-.065.495 4.913.648.066-.496 4.913.648-.065.496 4.914.648.065-.496 4.914.648-.066.495 4.914.648.065-.496 4.914.648-.065.496 4.913.648.066-.496 4.913.648-.065.495 4.914.648.065-.496 4.914.648-.066.496 4.914.647.065-.495 4.914.647-.065.496 4.913.648.066-.496 4.913.648-.065.496 4.914.647.065-.495 4.914.647-.066.496 4.914.648.065-.496 4.914.648-.065.496 4.913.647.066-.495 4.913.647-.065.496 4.914.648.065-.496 4.914.648-.066.496 4.914.647.065-.495 4.914.647-.065.496 4.913.648.066-.496 4.913.648-.065.496 4.914.647.065-.495 4.914.647-.066.496 4.914.648.065-.496 4.914.648-.065.495 4.913.648.066-.496 4.913.648-.065.496 4.914.648.065-.496 4.914.648-.066.495 4.914.648.065-.496 4.914.648-.065.496 4.913.648.066-.496 4.913.648-.065.495 4.914.648.065-.496 4.914.648-.066.496 1.603.211-.965 1.271.398.302-2.973 3.913-.398-.303-2.972 3.913.398.302-2.973 3.913-.398-.303-2.973 3.913.398.302-2.972 3.913-.398-.302-2.973 3.912.398.303-2.973 3.912-.398-.302-2.972 3.912.398.303-2.973 3.912-.398-.302-2.973 3.912.398.303-2.972 3.912-.399-.302-2.972 3.912.398.303-2.973 3.912-.398-.302-2.973 3.913.399.302-2.973 3.913-.398-.303-2.973 3.913.398.302-2.973 3.913-.398-.303-2.972 3.913.398.302-2.973 3.913-.398-.303-2.973 3.913.398.302-2.972 3.913-.398-.303-2.973 3.913.398.302-2.973 3.913-.398-.302-2.972 3.912.398.303-2.973 3.912-.398-.302-2.973 3.912.398.303-2.972 3.912-.399-.302-2.972 3.912.398.303-2.973 3.912-.398-.302-2.973 3.912.399.303-2.973 3.912-.398-.302-2.973 3.913.398.302-2.973 3.913-.398-.303-2.972 3.913.398.302-2.973 3.913-.398-.303-2.973 3.913.398.302-2.972 3.913-.398-.303-2.973 3.913.398.302-2.973 3.913-.398-.303-2.972 3.913.398.302-2.973 3.913-.398-.302-2.973 3.912.398.303-2.972 3.912-.399-.302-2.972 3.912.398.303-2.973 3.912-.398-.302-.965 1.27-.634-1.487-.46.195-1.941-4.56.46-.196-1.94-4.56-.461.196-1.941-4.56.461-.196-1.941-4.561-.46.196-1.941-4.56.46-.196-1.941-4.56-.46.196-1.941-4.561.46-.195-1.941-4.561-.46.196-1.941-4.56.46-.196-1.941-4.56-.46.196-1.941-4.561.46-.196-1.941-4.56-.46.196-1.941-4.56.46-.196-1.941-4.56-.46.195-1.941-4.56.46-.196-1.941-4.56-.46.196-1.941-4.561.46-.195-1.941-4.561-.46.196-1.941-4.56.46-.196-1.941-4.56-.46.196-1.941-4.561.46-.196-1.941-4.56-.46.196-1.941-4.56.46-.196-1.941-4.56-.46.195-1.941-4.56.46-.196-1.941-4.56-.46.196-1.941-4.56.46-.196-1.941-4.561-.46.196-1.941-4.56.46-.196-1.941-4.56-.46.196-1.941-4.561.46-.195-1.941-4.561-.46.196-1.941-4.56.46-.196-1.941-4.56-.46.195-1.94-4.56.46-.196-1.942-4.56-.46.196-1.94-4.56.46-.196-1.942-4.561-.46.196-1.94-4.56.46-.196-1.942-4.56-.46.196-1.94-4.561.46-.195-1.942-4.561-.46.196-1.94-4.56.46-.196-1.942-4.56-.46.196Z" stroke="#3DB562" stroke-dasharray="5 5"/><circle cx="623.5" cy="125.5" r="125" stroke="#FFD24D" stroke-linecap="round" stroke-dasharray="5 5"/><path opacity=".1" d="M446.082 528.21c11.414 0 20.668-9.257 20.668-20.677s-9.254-20.677-20.668-20.677c-11.415 0-20.668 9.257-20.668 20.677s9.253 20.677 20.668 20.677ZM145.471 82.73c9.497 0 17.196-7.702 17.196-17.204 0-9.5-7.699-17.203-17.196-17.203-9.497 0-17.196 7.702-17.196 17.203 0 9.502 7.699 17.204 17.196 17.204ZM426.625 84.632c10.022 0 18.146-8.128 18.146-18.155 0-10.026-8.124-18.154-18.146-18.154s-18.146 8.128-18.146 18.154c0 10.027 8.124 18.155 18.146 18.155ZM714.94 361.019c8.24 0 14.92-6.683 14.92-14.927s-6.68-14.928-14.92-14.928-14.92 6.684-14.92 14.928 6.68 14.927 14.92 14.927ZM677.178 524.633c20.855 0 37.761-16.913 37.761-37.777s-16.906-37.777-37.761-37.777c-20.854 0-37.76 16.913-37.76 37.777s16.906 37.777 37.76 37.777Z" fill="#26AD50"/></svg>