<svg width="34" height="41" viewBox="0 0 34 41" fill="none" xmlns="http://www.w3.org/2000/svg">
<path d="M16.7139 40.1903C11.6028 40.1533 7.73239 38.8014 5.10276 36.1348C2.47313 33.431 1.0472 29.894 0.824978 25.5236C0.750904 23.5236 0.713867 21.7459 0.713867 20.1903C0.713867 18.5977 0.750904 16.7644 0.824978 14.6903C0.973126 11.9125 1.63979 9.44957 2.82498 7.30142C4.0472 5.11623 5.82498 3.39401 8.15831 2.13475C10.4916 0.838456 13.3435 0.190308 16.7139 0.190308C21.7139 0.227344 25.5657 1.5792 28.2694 4.24586C30.9731 6.91253 32.4361 10.394 32.6583 14.6903C32.7324 16.7644 32.7694 18.5977 32.7694 20.1903C32.7694 21.7459 32.7324 23.5236 32.6583 25.5236C32.3991 29.894 30.9546 33.431 28.325 36.1348C25.6953 38.8014 21.825 40.1533 16.7139 40.1903ZM16.7139 32.1347C18.5287 32.1347 19.8805 31.5422 20.7694 30.357C21.6953 29.1348 22.1953 27.431 22.2694 25.2459C22.3435 24.1718 22.3805 22.4496 22.3805 20.0792C22.3805 17.7088 22.3435 16.0236 22.2694 15.0236C22.1953 12.9125 21.7139 11.2459 20.825 10.0236C19.9361 8.80142 18.5657 8.17179 16.7139 8.13475C14.8991 8.17179 13.5287 8.80142 12.6028 10.0236C11.7139 11.2459 11.2324 12.9125 11.1583 15.0236C11.1213 16.0236 11.1028 17.7088 11.1028 20.0792C11.1028 22.4496 11.1213 24.1718 11.1583 25.2459C11.3435 29.8385 13.1953 32.1347 16.7139 32.1347Z" fill="#A0E65C"/>
<path d="M16.3301 8.09756V0.220947C24.9288 0.220947 33.3585 3.53068 33.1511 20.0692C32.9384 37.036 25.6051 39.954 16.3354 40.1875V32.1536C21.2941 31.9211 22.4126 29.8065 22.4126 19.8571C22.4126 10.0502 21.0263 8.53347 16.3301 8.09756Z" fill="#79CC52"/>
</svg>
