<svg width="24" height="41" viewBox="0 0 24 41" fill="none" xmlns="http://www.w3.org/2000/svg">
<path d="M14.9143 40.9845C14.5333 40.9845 14.1905 40.8512 13.8857 40.5845C13.619 40.2797 13.4857 39.9369 13.4857 39.5559V12.3559L5.65714 18.3559C5.39048 18.5845 5.10476 18.6988 4.8 18.6988C4.38095 18.6988 4 18.4702 3.65714 18.0131L0.285714 13.6131C0.0952381 13.3083 0 13.0226 0 12.7559C0 12.2226 0.228571 11.8226 0.685714 11.5559L13.8286 1.3845C14.2476 1.11783 14.7048 0.984497 15.2 0.984497H22.3429C22.7619 0.984497 23.1048 1.11783 23.3714 1.3845C23.6381 1.65116 23.7714 1.99402 23.7714 2.41307V39.5559C23.7714 39.9369 23.6381 40.2797 23.3714 40.5845C23.1048 40.8512 22.7619 40.9845 22.3429 40.9845H14.9143Z" fill="#A0E65C"/>
<path d="M18.0781 0.984497H22.8722C23.3687 0.984497 23.7711 1.40754 23.7711 1.92938V40.0396C23.7711 40.5615 23.3687 40.9845 22.8722 40.9845H18.0781V0.984497Z" fill="#79CC52"/>
</svg>
