<svg width="29" height="40" viewBox="0 0 29 40" fill="none" xmlns="http://www.w3.org/2000/svg">
<path d="M14.8406 30.8508H28.2625V40H0L0.144531 38.6984C1.15703 29.5586 9.08906 24.0172 14.2 19.1344C17.053 16.4094 18.5375 14.2919 18.5375 12.0758C18.5375 9.55703 17.2594 8.27969 14.7367 8.27969C14.5578 8.27969 14.3789 8.28516 14.2 8.29766C12.5242 8.42188 10.9219 9.24531 10.6719 13.0203L10.5914 14.2258L0.878125 13.2797L1.00859 12.1C1.88281 4.18359 6.69297 0 14.9195 0C24.1367 0 28.2625 5.80937 28.2625 11.5656C28.2625 21.0023 19.0914 26.1547 14.8406 30.8508Z" fill="#A0E65C"/>
<path d="M14.8406 30.8508H28.2625V40H14.2V19.1344C17.053 16.4094 18.5374 14.2919 18.5374 12.0758C18.5374 9.55703 17.2593 8.27969 14.7367 8.27969C14.5578 8.27969 14.3789 8.29141 14.2 8.30469V0.0484375C14.4468 0.0398437 14.6664 0 14.9195 0C24.1367 0 28.2625 5.80937 28.2625 11.5656C28.2625 21.0023 19.0914 26.1547 14.8406 30.8508Z" fill="#79CC52"/>
</svg>
