<svg width="29" height="40" viewBox="0 0 29 40" fill="none" xmlns="http://www.w3.org/2000/svg">
<path d="M28.2562 27.1023C28.2562 34.2992 22.0406 39.9383 14.1937 39.9992C14.1492 40 14.1055 40 14.0609 40C0.310156 40 0.121875 27.5836 0 27.3492L9.51406 26.2578C9.64375 26.5969 9.47734 31.7414 14.0086 31.7414C14.0703 31.7414 14.132 31.7398 14.1937 31.7375C15.4266 31.6852 17.9477 30.8492 18.2586 27.5047C18.2789 27.2828 18.2898 27.0492 18.2898 26.8016C18.2898 23.6297 16.2719 22.2109 14.2727 22.2109C14.2461 22.2109 14.2203 22.2109 14.1937 22.2117C12.4727 22.2313 10.5781 22.8844 9.44766 23.1516L10.6664 14.6313C12.4391 14.4914 13.4625 14.4734 14.1937 14.3297C15.3312 14.1086 15.9727 13.3414 16.2656 12.832C16.2687 12.8273 16.2711 12.8227 16.2734 12.8188C17.1695 11.2039 16.7977 8.58203 14.1937 8.24453C14.0109 8.22031 13.8164 8.20781 13.6109 8.20781C9.64219 8.20781 9.8625 12.9273 9.73203 13.2969L0.455468 11.8062C0.726562 11.2805 1.44219 0 13.8227 0C13.9469 0 14.0711 0.0015625 14.1937 0.00390625C21.6711 0.163281 26.5086 5.33125 26.5086 10.6687C26.5086 13.6164 25.1688 16.0922 22.518 18.0531C26.0742 19.6852 28.2562 23.0234 28.2562 27.1023Z" fill="#A0E65C"/>
<path d="M28.2562 27.1023C28.2562 34.2992 22.0406 39.9383 14.1937 39.9992V31.7375C15.4265 31.6852 17.9476 30.8492 18.2586 27.5047C18.2789 27.2828 18.2898 27.0492 18.2898 26.8016C18.2898 23.6297 16.2719 22.2109 14.2726 22.2109C14.2469 22.2109 14.2195 22.2172 14.1937 22.2172V14.3297C15.3312 14.1086 15.9726 13.3414 16.2656 12.832C16.2687 12.8273 16.2711 12.8227 16.2734 12.8188C17.1695 11.2039 16.7976 8.58203 14.1937 8.24453V0.00390625C21.6711 0.163281 26.5086 5.33125 26.5086 10.6687C26.5086 13.6164 25.1687 16.0922 22.5179 18.0531C26.0742 19.6852 28.2562 23.0234 28.2562 27.1023Z" fill="#79CC52"/>
</svg>
