<svg width="34" height="41" viewBox="0 0 34 41" fill="none" xmlns="http://www.w3.org/2000/svg">
<path d="M17.2706 40.24C13.969 40.24 11.0426 39.6585 8.49134 38.4954C5.97763 37.2949 4.00794 35.6253 2.58225 33.4868C1.19408 31.3483 0.5 28.9096 0.5 26.1708C0.5 22.8317 2.07576 19.0236 5.22727 14.7465L15.132 1.40887C15.4322 1.07121 15.7136 0.80858 15.9762 0.62099C16.2763 0.39588 16.6703 0.283325 17.158 0.283325H24.6429C24.9805 0.283325 25.2619 0.414639 25.487 0.677266C25.7121 0.902374 25.8247 1.18376 25.8247 1.52142C25.8247 1.78405 25.7496 2.02792 25.5996 2.25302L18.0022 12.608C18.4524 12.4954 19.0151 12.4392 19.6905 12.4392C21.9791 12.5517 24.1926 13.1895 26.3312 14.3526C28.5072 15.4781 30.2706 17.0539 31.6212 19.0799C32.9719 21.1058 33.6472 23.3944 33.6472 25.9457C33.6472 28.5719 32.9719 30.9731 31.6212 33.1491C30.2706 35.3252 28.3384 37.051 25.8247 38.3266C23.3485 39.6022 20.4971 40.24 17.2706 40.24ZM17.158 32.1361C18.8838 32.1361 20.347 31.6109 21.5476 30.5604C22.7482 29.4724 23.3485 27.9904 23.3485 26.1145C23.3485 24.2386 22.7482 22.7754 21.5476 21.7249C20.3846 20.6744 18.9214 20.1491 17.158 20.1491C15.3947 20.1491 13.9127 20.6744 12.7121 21.7249C11.5115 22.7754 10.9113 24.2386 10.9113 26.1145C10.9113 27.9904 11.5115 29.4724 12.7121 30.5604C13.9127 31.6109 15.3947 32.1361 17.158 32.1361Z" fill="#A0E65C"/>
<path d="M21.2257 0.27401L16.8516 0.285225V20.1573C20.2078 20.4964 21.9943 20.9798 23.2479 24.7058C23.4623 26.9274 23.2989 32.1485 16.8516 32.1485V40.257C28.5866 40.4205 33.3316 32.2046 33.6349 26.713C34.1805 16.8327 24.1859 12.4828 19.2302 11.5289L23.711 4.96549C25.0724 2.97132 23.6402 0.267819 21.2257 0.27401Z" fill="#79CC52"/>
</svg>
