<svg width="31" height="41" viewBox="0 0 31 41" fill="none" xmlns="http://www.w3.org/2000/svg">
<path d="M7.40148 40.2051C7.05862 40.2051 6.77291 40.0908 6.54434 39.8622C6.31576 39.5956 6.20148 39.2908 6.20148 38.9479C6.20148 38.7575 6.23957 38.586 6.31576 38.4337L19.5158 8.83365H2.43005C2.011 8.83365 1.6491 8.70032 1.34434 8.43365C1.07767 8.12889 0.944336 7.76698 0.944336 7.34794V1.63365C0.944336 1.2146 1.07767 0.871745 1.34434 0.60508C1.6491 0.338412 2.011 0.205078 2.43005 0.205078H29.1158C29.5729 0.205078 29.9348 0.338412 30.2015 0.60508C30.4681 0.871745 30.6015 1.2146 30.6015 1.63365V6.71937C30.6015 7.51937 30.392 8.37651 29.9729 9.29079L16.7729 38.8337C16.3539 39.7479 15.6872 40.2051 14.7729 40.2051H7.40148Z" fill="#A0E65C"/>
<path d="M14.9532 8.83401L14.9531 0.205078H27.7082C29.365 0.205078 30.7082 1.54822 30.7082 3.20508V8.1688C30.7082 8.60696 30.6122 9.03979 30.427 9.43687L16.5635 39.1612C16.2716 39.787 15.6437 40.187 14.9532 40.187V19.0773L19.53 8.83401H14.9532Z" fill="#79CC52"/>
</svg>
