<svg width="33" height="41" viewBox="0 0 33 41" fill="none" xmlns="http://www.w3.org/2000/svg">
<path d="M16.3179 40.3693C12.7642 40.3693 9.76584 39.8325 7.3227 38.759C4.87957 37.6855 3.04722 36.2234 1.82565 34.3725C0.641103 32.5217 0.0488281 30.4487 0.0488281 28.1536C0.0488281 26.1917 0.530051 24.4334 1.4925 22.8787C2.49196 21.2869 3.80607 20.0469 5.43483 19.1585C4.13923 18.3071 3.13976 17.2336 2.43644 15.938C1.77013 14.6424 1.43697 13.1617 1.43697 11.4959C1.43697 9.38592 1.97372 7.49804 3.04722 5.83227C4.15773 4.12948 5.82351 2.79686 8.04454 1.83442C10.2656 0.871971 13.0233 0.390747 16.3179 0.390747C21.1671 0.390747 24.8318 1.40872 27.312 3.44466C29.8291 5.48061 31.0877 8.14584 31.0877 11.4404C31.0877 14.8089 29.7921 17.3816 27.2009 19.1585C28.8667 19.9728 30.1808 21.1759 31.1433 22.7676C32.1427 24.3594 32.6424 26.1732 32.6424 28.2092C32.6424 30.5042 32.0317 32.5772 30.8101 34.428C29.5885 36.2419 27.7377 37.6855 25.2575 38.759C22.8144 39.8325 19.8345 40.3693 16.3179 40.3693ZM16.3179 16.3822C17.9466 16.3452 19.2792 15.9195 20.3157 15.1051C21.3522 14.2907 21.8705 13.2357 21.8705 11.9401C21.8705 10.6075 21.3522 9.53399 20.3157 8.71961C19.2792 7.90523 17.9466 7.49805 16.3179 7.49805C14.6891 7.49805 13.3565 7.90523 12.32 8.71961C11.2835 9.53399 10.7653 10.6075 10.7653 11.9401C10.7653 13.2727 11.2835 14.3462 12.32 15.1606C13.3565 15.975 14.6891 16.3822 16.3179 16.3822ZM16.3179 33.262C18.1317 33.262 19.6309 32.7993 20.8155 31.8739C22 30.9484 22.5923 29.7083 22.5923 28.1536C22.5923 26.5989 22 25.3773 20.8155 24.4889C19.6309 23.5635 18.1317 23.1008 16.3179 23.1008C14.504 23.1008 12.9863 23.5635 11.7648 24.4889C10.5802 25.3773 9.98794 26.5989 9.98794 28.1536C9.98794 29.7083 10.5802 30.9484 11.7648 31.8739C12.9863 32.7993 14.504 33.262 16.3179 33.262Z" fill="#A0E65C"/>
<path d="M15.9678 7.50394V0.398778C27.0586 0.250602 29.9942 5.59304 30.768 8.63662C31.9038 14.202 29.8121 16.8586 27.7294 19.0015C30.2096 20.2375 32.9518 24.7984 32.6232 28.9548C31.8803 38.3509 21.81 40.6822 15.9678 40.3627V33.2931C21.335 33.2931 22.5702 30.0489 22.5702 28.6202C22.8678 23.5752 17.3466 22.8906 15.9678 23.099V16.3841C20.5786 16.3841 21.8044 13.6727 21.856 12.1767C22.1118 8.34204 17.9386 7.34129 15.9678 7.50394Z" fill="#79CC52"/>
</svg>
