<svg width="33" height="41" viewBox="0 0 33 41" fill="none" xmlns="http://www.w3.org/2000/svg">
<path d="M8.29694 40.329C7.95892 40.329 7.67723 40.2163 7.45187 39.991C7.22652 39.728 7.11385 39.4276 7.11385 39.0895C7.11385 38.8266 7.18896 38.5825 7.3392 38.3572L15.2829 27.4839C14.7946 27.5966 14.25 27.6529 13.6491 27.6529C11.3204 27.5027 9.12324 26.8642 7.05751 25.7374C4.99178 24.6107 3.32042 23.0708 2.04342 21.1177C0.766427 19.1647 0.12793 16.9299 0.12793 14.4135C0.12793 11.9346 0.747648 9.62476 1.98708 7.48391C3.22652 5.34306 5.04812 3.61536 7.45187 2.30081C9.89319 0.986257 12.8228 0.328979 16.2406 0.328979C19.696 0.328979 22.6631 0.929919 25.142 2.1318C27.6584 3.33367 29.5552 4.98626 30.8322 7.08954C32.1092 9.15527 32.7477 11.4651 32.7477 14.0191C32.7477 16.0848 32.3157 17.9628 31.4519 19.6529C30.6256 21.3431 29.3861 23.3337 27.7336 25.6248C27.6584 25.6999 27.358 26.113 26.8322 26.8642L17.8181 39.2022C17.2923 39.9534 16.6162 40.329 15.7899 40.329H8.29694ZM16.3533 20.2163C18.081 20.2163 19.5082 19.6905 20.635 18.6388C21.7617 17.5872 22.3251 16.16 22.3251 14.3571C22.3251 12.5543 21.7617 11.1271 20.635 10.0755C19.5082 8.98626 18.081 8.44166 16.3533 8.44166C14.6256 8.44166 13.1984 8.98626 12.0716 10.0755C10.9824 11.1271 10.4378 12.5543 10.4378 14.3571C10.4378 16.16 11.0012 17.5872 12.1279 18.6388C13.2547 19.6905 14.6631 20.2163 16.3533 20.2163Z" fill="#A0E65C"/>
<path d="M16.251 8.44231V0.45772C19.4774 0.150373 24.59 1.49438 26.8998 3.17702C35.7115 9.32153 33.0233 19.4415 29.1417 24.1944L18.0892 38.8971C17.6823 39.4384 17.1561 39.8786 16.5514 40.1834L16.344 20.2503C20.2122 20.2503 22.1272 17.5021 22.3084 15.056C22.7463 10.7526 19.4395 8.33661 16.251 8.44231Z" fill="#79CC52"/>
</svg>
