<svg width="72" height="72" viewBox="0 0 72 72" fill="none" xmlns="http://www.w3.org/2000/svg">
<path d="M14.2272 24.3524L13.1006 25.479C12.8743 25.3698 12.6263 25.313 12.375 25.3127H10.125C9.6776 25.3132 9.24868 25.4912 8.93232 25.8075C8.61597 26.1239 8.43801 26.5528 8.4375 27.0002V29.2502C8.43801 29.6976 8.61597 30.1265 8.93232 30.4429C9.24868 30.7592 9.6776 30.9372 10.125 30.9377H12.375C12.8224 30.9372 13.2513 30.7592 13.5677 30.4429C13.884 30.1265 14.062 29.6976 14.0625 29.2502V27.0002C14.0622 26.7489 14.0054 26.5009 13.8962 26.2745L15.0228 25.148C15.1281 25.0424 15.1873 24.8994 15.1872 24.7503C15.1871 24.6012 15.1279 24.4582 15.0224 24.3528C14.917 24.2473 14.774 24.1881 14.6249 24.188C14.4758 24.1879 14.3328 24.2471 14.2272 24.3524ZM12.9375 29.2502C12.9373 29.3993 12.878 29.5423 12.7726 29.6478C12.6671 29.7532 12.5241 29.8125 12.375 29.8127H10.125C9.97587 29.8125 9.83289 29.7532 9.72744 29.6478C9.62199 29.5423 9.56267 29.3993 9.5625 29.2502V27.0002C9.56267 26.8511 9.62199 26.7081 9.72744 26.6026C9.83289 26.4972 9.97587 26.4379 10.125 26.4377H12.142L10.8522 27.7274C10.7469 27.8329 10.6877 27.976 10.6878 28.1251C10.6879 28.2742 10.7471 28.4172 10.8526 28.5226C10.958 28.6281 11.101 28.6873 11.2501 28.6874C11.3992 28.6875 11.5422 28.6283 11.6478 28.523L12.9375 27.2332V29.2502Z" fill="#26ad50"/>
<path d="M14.2272 34.4774L13.1006 35.604C12.8743 35.4948 12.6263 35.438 12.375 35.4377H10.125C9.6776 35.4382 9.24868 35.6162 8.93232 35.9325C8.61597 36.2489 8.43801 36.6778 8.4375 37.1252V39.3752C8.43801 39.8226 8.61597 40.2515 8.93232 40.5679C9.24868 40.8842 9.6776 41.0622 10.125 41.0627H12.375C12.8224 41.0622 13.2513 40.8842 13.5677 40.5679C13.884 40.2515 14.062 39.8226 14.0625 39.3752V37.1252C14.0622 36.8739 14.0054 36.6259 13.8962 36.3995L15.0228 35.273C15.1281 35.1674 15.1873 35.0244 15.1872 34.8753C15.1871 34.7262 15.1279 34.5832 15.0224 34.4778C14.917 34.3723 14.774 34.3131 14.6249 34.313C14.4758 34.3129 14.3328 34.3721 14.2272 34.4774ZM12.9375 39.3752C12.9373 39.5243 12.878 39.6673 12.7726 39.7727C12.6671 39.8782 12.5241 39.9375 12.375 39.9377H10.125C9.97587 39.9375 9.83289 39.8782 9.72744 39.7727C9.62199 39.6673 9.56267 39.5243 9.5625 39.3752V37.1252C9.56267 36.9761 9.62199 36.8331 9.72744 36.7276C9.83289 36.6222 9.97587 36.5629 10.125 36.5627H12.142L10.8522 37.8524C10.7469 37.9579 10.6877 38.101 10.6878 38.2501C10.6879 38.3992 10.7471 38.5422 10.8526 38.6476C10.958 38.7531 11.101 38.8123 11.2501 38.8124C11.3992 38.8125 11.5422 38.7533 11.6478 38.648L12.9375 37.3582V39.3752Z" fill="#26ad50"/>
<path d="M12.375 45.5625H10.125C9.6776 45.563 9.24868 45.741 8.93232 46.0573C8.61597 46.3737 8.43801 46.8026 8.4375 47.25V49.5C8.43801 49.9474 8.61597 50.3763 8.93232 50.6927C9.24868 51.009 9.6776 51.187 10.125 51.1875H12.375C12.8224 51.187 13.2513 51.009 13.5677 50.6927C13.884 50.3763 14.062 49.9474 14.0625 49.5V47.25C14.062 46.8026 13.884 46.3737 13.5677 46.0573C13.2513 45.741 12.8224 45.563 12.375 45.5625ZM12.9375 49.5C12.9373 49.6491 12.878 49.7921 12.7726 49.8976C12.6671 50.003 12.5241 50.0623 12.375 50.0625H10.125C9.97587 50.0623 9.83289 50.003 9.72744 49.8976C9.62199 49.7921 9.56267 49.6491 9.5625 49.5V47.25C9.56267 47.1009 9.62199 46.9579 9.72744 46.8524C9.83289 46.747 9.97587 46.6877 10.125 46.6875H12.375C12.5241 46.6877 12.6671 46.747 12.7726 46.8524C12.878 46.9579 12.9373 47.1009 12.9375 47.25V49.5Z" fill="#26ad50"/>
<path d="M12.375 55.6875H10.125C9.6776 55.688 9.24868 55.866 8.93232 56.1823C8.61597 56.4987 8.43801 56.9276 8.4375 57.375V59.625C8.43801 60.0724 8.61597 60.5013 8.93232 60.8177C9.24868 61.134 9.6776 61.312 10.125 61.3125H12.375C12.8224 61.312 13.2513 61.134 13.5677 60.8177C13.884 60.5013 14.062 60.0724 14.0625 59.625V57.375C14.062 56.9276 13.884 56.4987 13.5677 56.1823C13.2513 55.866 12.8224 55.688 12.375 55.6875ZM12.9375 59.625C12.9373 59.7741 12.878 59.9171 12.7726 60.0226C12.6671 60.128 12.5241 60.1873 12.375 60.1875H10.125C9.97587 60.1873 9.83289 60.128 9.72744 60.0226C9.62199 59.9171 9.56267 59.7741 9.5625 59.625V57.375C9.56267 57.2259 9.62199 57.0829 9.72744 56.9774C9.83289 56.872 9.97587 56.8127 10.125 56.8125H12.375C12.5241 56.8127 12.6671 56.872 12.7726 56.9774C12.878 57.0829 12.9373 57.2259 12.9375 57.375V59.625Z" fill="#26ad50"/>
<path d="M29.25 23.0625H16.875C16.1291 23.0625 15.4137 22.7662 14.8863 22.2387C14.3588 21.7113 14.0625 20.9959 14.0625 20.25C14.0625 19.5041 14.3588 18.7887 14.8863 18.2613C15.4137 17.7338 16.1291 17.4375 16.875 17.4375H29.25C29.9959 17.4375 30.7113 17.7338 31.2387 18.2613C31.7662 18.7887 32.0625 19.5041 32.0625 20.25C32.0625 20.9959 31.7662 21.7113 31.2387 22.2387C30.7113 22.7662 29.9959 23.0625 29.25 23.0625ZM16.875 18.5625C16.4274 18.5625 15.9982 18.7403 15.6818 19.0568C15.3653 19.3732 15.1875 19.8024 15.1875 20.25C15.1875 20.6976 15.3653 21.1268 15.6818 21.4432C15.9982 21.7597 16.4274 21.9375 16.875 21.9375H29.25C29.6976 21.9375 30.1268 21.7597 30.4432 21.4432C30.7597 21.1268 30.9375 20.6976 30.9375 20.25C30.9375 19.8024 30.7597 19.3732 30.4432 19.0568C30.1268 18.7403 29.6976 18.5625 29.25 18.5625H16.875Z" fill="#26ad50"/>
<path d="M20.25 20.8125H16.875C16.7258 20.8125 16.5827 20.7532 16.4773 20.6477C16.3718 20.5423 16.3125 20.3992 16.3125 20.25C16.3125 20.1008 16.3718 19.9577 16.4773 19.8523C16.5827 19.7468 16.7258 19.6875 16.875 19.6875H20.25C20.3992 19.6875 20.5423 19.7468 20.6477 19.8523C20.7532 19.9577 20.8125 20.1008 20.8125 20.25C20.8125 20.3992 20.7532 20.5423 20.6477 20.6477C20.5423 20.7532 20.3992 20.8125 20.25 20.8125Z" fill="#26ad50"/>
<path d="M29.25 20.8125H22.5C22.3508 20.8125 22.2077 20.7532 22.1023 20.6477C21.9968 20.5423 21.9375 20.3992 21.9375 20.25C21.9375 20.1008 21.9968 19.9577 22.1023 19.8523C22.2077 19.7468 22.3508 19.6875 22.5 19.6875H29.25C29.3992 19.6875 29.5423 19.7468 29.6477 19.8523C29.7532 19.9577 29.8125 20.1008 29.8125 20.25C29.8125 20.3992 29.7532 20.5423 29.6477 20.6477C29.5423 20.7532 29.3992 20.8125 29.25 20.8125Z" fill="#26ad50"/>
<path d="M26.4375 27C26.4375 26.8508 26.3782 26.7077 26.2727 26.6023C26.1673 26.4968 26.0242 26.4375 25.875 26.4375H19.125C18.9758 26.4375 18.8327 26.4968 18.7273 26.6023C18.6218 26.7077 18.5625 26.8508 18.5625 27C18.5625 27.1492 18.6218 27.2923 18.7273 27.3977C18.8327 27.5032 18.9758 27.5625 19.125 27.5625H25.875C26.0242 27.5625 26.1673 27.5032 26.2727 27.3977C26.3782 27.2923 26.4375 27.1492 26.4375 27Z" fill="#26ad50"/>
<path d="M28.6875 27C28.6875 27.1492 28.7468 27.2923 28.8523 27.3977C28.9577 27.5032 29.1008 27.5625 29.25 27.5625H38.25C38.3992 27.5625 38.5423 27.5032 38.6477 27.3977C38.7532 27.2923 38.8125 27.1492 38.8125 27C38.8125 26.8508 38.7532 26.7077 38.6477 26.6023C38.5423 26.4968 38.3992 26.4375 38.25 26.4375H29.25C29.1008 26.4375 28.9577 26.4968 28.8523 26.6023C28.7468 26.7077 28.6875 26.8508 28.6875 27Z" fill="#26ad50"/>
<path d="M16.3125 29.25C16.3125 29.3992 16.3718 29.5423 16.4773 29.6477C16.5827 29.7532 16.7258 29.8125 16.875 29.8125H22.5C22.6492 29.8125 22.7923 29.7532 22.8977 29.6477C23.0032 29.5423 23.0625 29.3992 23.0625 29.25C23.0625 29.1008 23.0032 28.9577 22.8977 28.8523C22.7923 28.7468 22.6492 28.6875 22.5 28.6875H16.875C16.7258 28.6875 16.5827 28.7468 16.4773 28.8523C16.3718 28.9577 16.3125 29.1008 16.3125 29.25Z" fill="#26ad50"/>
<path d="M31.5 28.6875H25.875C25.7258 28.6875 25.5827 28.7468 25.4773 28.8523C25.3718 28.9577 25.3125 29.1008 25.3125 29.25C25.3125 29.3992 25.3718 29.5423 25.4773 29.6477C25.5827 29.7532 25.7258 29.8125 25.875 29.8125H31.5C31.6492 29.8125 31.7923 29.7532 31.8977 29.6477C32.0032 29.5423 32.0625 29.3992 32.0625 29.25C32.0625 29.1008 32.0032 28.9577 31.8977 28.8523C31.7923 28.7468 31.6492 28.6875 31.5 28.6875Z" fill="#26ad50"/>
<path d="M19.125 36.5625C18.9758 36.5625 18.8327 36.6218 18.7273 36.7273C18.6218 36.8327 18.5625 36.9758 18.5625 37.125C18.5625 37.2742 18.6218 37.4173 18.7273 37.5227C18.8327 37.6282 18.9758 37.6875 19.125 37.6875H23.625C23.7742 37.6875 23.9173 37.6282 24.0227 37.5227C24.1282 37.4173 24.1875 37.2742 24.1875 37.125C24.1875 36.9758 24.1282 36.8327 24.0227 36.7273C23.9173 36.6218 23.7742 36.5625 23.625 36.5625H19.125Z" fill="#26ad50"/>
<path d="M16.875 39.9375H20.25C20.3992 39.9375 20.5423 39.8782 20.6477 39.7727C20.7532 39.6673 20.8125 39.5242 20.8125 39.375C20.8125 39.2258 20.7532 39.0827 20.6477 38.9773C20.5423 38.8718 20.3992 38.8125 20.25 38.8125H16.875C16.7258 38.8125 16.5827 38.8718 16.4773 38.9773C16.3718 39.0827 16.3125 39.2258 16.3125 39.375C16.3125 39.5242 16.3718 39.6673 16.4773 39.7727C16.5827 39.8782 16.7258 39.9375 16.875 39.9375Z" fill="#26ad50"/>
<path d="M23.0625 39.375C23.0625 39.5242 23.1218 39.6673 23.2273 39.7727C23.3327 39.8782 23.4758 39.9375 23.625 39.9375H31.5C31.6492 39.9375 31.7923 39.8782 31.8977 39.7727C32.0032 39.6673 32.0625 39.5242 32.0625 39.375C32.0625 39.2258 32.0032 39.0827 31.8977 38.9773C31.7923 38.8718 31.6492 38.8125 31.5 38.8125H23.625C23.4758 38.8125 23.3327 38.8718 23.2273 38.9773C23.1218 39.0827 23.0625 39.2258 23.0625 39.375Z" fill="#26ad50"/>
<path d="M18.5625 47.25C18.5625 47.3992 18.6218 47.5423 18.7273 47.6477C18.8327 47.7532 18.9758 47.8125 19.125 47.8125H23.625C23.7742 47.8125 23.9173 47.7532 24.0227 47.6477C24.1282 47.5423 24.1875 47.3992 24.1875 47.25C24.1875 47.1008 24.1282 46.9577 24.0227 46.8523C23.9173 46.7468 23.7742 46.6875 23.625 46.6875H19.125C18.9758 46.6875 18.8327 46.7468 18.7273 46.8523C18.6218 46.9577 18.5625 47.1008 18.5625 47.25Z" fill="#26ad50"/>
<path d="M16.875 50.0625H20.25C20.3992 50.0625 20.5423 50.0032 20.6477 49.8977C20.7532 49.7923 20.8125 49.6492 20.8125 49.5C20.8125 49.3508 20.7532 49.2077 20.6477 49.1023C20.5423 48.9968 20.3992 48.9375 20.25 48.9375H16.875C16.7258 48.9375 16.5827 48.9968 16.4773 49.1023C16.3718 49.2077 16.3125 49.3508 16.3125 49.5C16.3125 49.6492 16.3718 49.7923 16.4773 49.8977C16.5827 50.0032 16.7258 50.0625 16.875 50.0625Z" fill="#26ad50"/>
<path d="M23.0625 49.5C23.0625 49.6492 23.1218 49.7923 23.2273 49.8977C23.3327 50.0032 23.4758 50.0625 23.625 50.0625H31.5C31.6492 50.0625 31.7923 50.0032 31.8977 49.8977C32.0032 49.7923 32.0625 49.6492 32.0625 49.5C32.0625 49.3508 32.0032 49.2077 31.8977 49.1023C31.7923 48.9968 31.6492 48.9375 31.5 48.9375H23.625C23.4758 48.9375 23.3327 48.9968 23.2273 49.1023C23.1218 49.2077 23.0625 49.3508 23.0625 49.5Z" fill="#26ad50"/>
<path d="M19.125 57.9375H23.625C23.7742 57.9375 23.9173 57.8782 24.0227 57.7727C24.1282 57.6673 24.1875 57.5242 24.1875 57.375C24.1875 57.2258 24.1282 57.0827 24.0227 56.9773C23.9173 56.8718 23.7742 56.8125 23.625 56.8125H19.125C18.9758 56.8125 18.8327 56.8718 18.7273 56.9773C18.6218 57.0827 18.5625 57.2258 18.5625 57.375C18.5625 57.5242 18.6218 57.6673 18.7273 57.7727C18.8327 57.8782 18.9758 57.9375 19.125 57.9375Z" fill="#26ad50"/>
<path d="M38.25 56.8125H27C26.8508 56.8125 26.7077 56.8718 26.6023 56.9773C26.4968 57.0827 26.4375 57.2258 26.4375 57.375C26.4375 57.5242 26.4968 57.6673 26.6023 57.7727C26.7077 57.8782 26.8508 57.9375 27 57.9375H38.25C38.3992 57.9375 38.5423 57.8782 38.6477 57.7727C38.7532 57.6673 38.8125 57.5242 38.8125 57.375C38.8125 57.2258 38.7532 57.0827 38.6477 56.9773C38.5423 56.8718 38.3992 56.8125 38.25 56.8125Z" fill="#26ad50"/>
<path d="M20.25 59.0625H16.875C16.7258 59.0625 16.5827 59.1218 16.4773 59.2273C16.3718 59.3327 16.3125 59.4758 16.3125 59.625C16.3125 59.7742 16.3718 59.9173 16.4773 60.0227C16.5827 60.1282 16.7258 60.1875 16.875 60.1875H20.25C20.3992 60.1875 20.5423 60.1282 20.6477 60.0227C20.7532 59.9173 20.8125 59.7742 20.8125 59.625C20.8125 59.4758 20.7532 59.3327 20.6477 59.2273C20.5423 59.1218 20.3992 59.0625 20.25 59.0625Z" fill="#26ad50"/>
<path d="M31.5 59.0625H23.625C23.4758 59.0625 23.3327 59.1218 23.2273 59.2273C23.1218 59.3327 23.0625 59.4758 23.0625 59.625C23.0625 59.7742 23.1218 59.9173 23.2273 60.0227C23.3327 60.1282 23.4758 60.1875 23.625 60.1875H31.5C31.6492 60.1875 31.7923 60.1282 31.8977 60.0227C32.0032 59.9173 32.0625 59.7742 32.0625 59.625C32.0625 59.4758 32.0032 59.3327 31.8977 59.2273C31.7923 59.1218 31.6492 59.0625 31.5 59.0625Z" fill="#26ad50"/>
<path d="M19.6875 11.25C19.6875 11.3992 19.7468 11.5423 19.8523 11.6477C19.9577 11.7532 20.1008 11.8125 20.25 11.8125H27C27.1492 11.8125 27.2923 11.7532 27.3977 11.6477C27.5032 11.5423 27.5625 11.3992 27.5625 11.25C27.5625 11.1008 27.5032 10.9577 27.3977 10.8523C27.2923 10.7468 27.1492 10.6875 27 10.6875H20.25C20.1008 10.6875 19.9577 10.7468 19.8523 10.8523C19.7468 10.9577 19.6875 11.1008 19.6875 11.25Z" fill="#26ad50"/>
<path d="M27 12.9375H20.25C20.1008 12.9375 19.9577 12.9968 19.8523 13.1023C19.7468 13.2077 19.6875 13.3508 19.6875 13.5C19.6875 13.6492 19.7468 13.7923 19.8523 13.8977C19.9577 14.0032 20.1008 14.0625 20.25 14.0625H27C27.1492 14.0625 27.2923 14.0032 27.3977 13.8977C27.5032 13.7923 27.5625 13.6492 27.5625 13.5C27.5625 13.3508 27.5032 13.2077 27.3977 13.1023C27.2923 12.9968 27.1492 12.9375 27 12.9375Z" fill="#26ad50"/>
<path d="M23.625 6.75C24.2463 6.75 24.75 6.24632 24.75 5.625C24.75 5.00368 24.2463 4.5 23.625 4.5C23.0037 4.5 22.5 5.00368 22.5 5.625C22.5 6.24632 23.0037 6.75 23.625 6.75Z" fill="#26ad50"/>
<path d="M67.0837 51.0792C67.0767 51.068 67.0697 51.0553 67.0627 51.0441L66.9825 50.9062C66.9712 50.8866 66.96 50.8669 66.9474 50.8486C66.6169 50.3508 65.9447 49.7588 64.6214 49.7588C64.5497 49.7588 64.4752 49.7616 64.4006 49.7644C63.1125 45.6933 60.9328 40.0978 58.5436 35.5486L61.3716 34.1353C61.9048 33.8674 62.3102 33.3991 62.499 32.833C62.6877 32.2668 62.6443 31.649 62.3785 31.1147L61.7906 29.9405L64.5483 28.6355C64.6836 28.5713 64.8048 28.4808 64.9048 28.3693C65.0048 28.2577 65.0815 28.1274 65.1305 27.9858C65.1794 27.8443 65.1997 27.6944 65.19 27.5449C65.1804 27.3954 65.141 27.2494 65.0742 27.1153L63.8311 24.6277C63.6994 24.3646 63.47 24.1635 63.1919 24.0676C62.9138 23.9717 62.6092 23.9885 62.3433 24.1144L59.5406 25.4419L59.5069 25.3716C59.3729 25.1049 59.1388 24.9022 58.8557 24.8079C58.5726 24.7135 58.2637 24.7352 57.9965 24.8681L55.7578 25.9889L51.6783 27.9211C49.5774 26.7202 47.1811 25.9172 45 25.6725V13.5C44.9984 12.307 44.5238 11.1633 43.6802 10.3198C42.8367 9.47619 41.693 9.00158 40.5 9H29.6452C28.7516 8.26965 27.6323 7.87203 26.4783 7.875C26.4602 7.87497 26.4424 7.87092 26.4261 7.86314C26.4098 7.85535 26.3954 7.84403 26.3841 7.82999L26.3377 7.77094C26.3236 7.75258 26.3154 7.73041 26.3142 7.70734C26.3129 7.68426 26.3187 7.66134 26.3306 7.64156C26.7673 7.06014 27.0023 6.35212 27 5.625C26.9989 4.73048 26.6432 3.87289 26.0108 3.24023C25.3784 2.60758 24.5209 2.25148 23.6264 2.25C23.5758 2.25 23.5266 2.25141 23.4759 2.25422C22.8675 2.28097 22.2776 2.4719 21.7689 2.80676C21.2602 3.14162 20.8516 3.60793 20.5865 4.15623C20.3213 4.70452 20.2095 5.31436 20.263 5.92104C20.3164 6.52773 20.533 7.10865 20.8898 7.60219C20.9101 7.62697 20.9223 7.65736 20.9248 7.68928C20.9274 7.72119 20.92 7.75312 20.9039 7.78077L20.8687 7.82436C20.8669 7.82796 20.8645 7.83127 20.8617 7.8342C20.8518 7.84652 20.8393 7.85659 20.8252 7.86374C20.8083 7.87097 20.7901 7.87479 20.7717 7.875C19.6177 7.87203 18.4984 8.26965 17.6048 9H6.75C5.55701 9.00158 4.41334 9.47619 3.56977 10.3198C2.72619 11.1633 2.25158 12.307 2.25 13.5V65.25C2.25158 66.443 2.72619 67.5867 3.56977 68.4302C4.41334 69.2738 5.55701 69.7484 6.75 69.75H40.5C41.693 69.7484 42.8367 69.2738 43.6802 68.4302C44.5238 67.5867 44.9984 66.443 45 65.25V54.3684C46.0308 54.855 47.0953 55.2698 48.1359 55.6776C49.2989 56.1319 50.4914 56.5973 51.608 57.1542C51.1739 57.6265 50.8028 58.1531 50.5041 58.7208C49.9064 59.9119 50.0723 60.7922 50.317 61.3209C50.334 61.3582 50.3533 61.3943 50.3747 61.4292L50.5139 61.6598L55.3838 69.75H57.3539L52.9355 62.4122C53.2772 62.4672 53.6229 62.494 53.9691 62.4923C56.0348 62.4923 58.7292 61.6486 61.0622 60.0933C63.8128 58.2581 65.9306 55.665 66.5887 53.5894L69.75 59.0372V55.6734L67.0837 51.0792ZM62.5669 25.875L63.3066 27.3558L60.5278 28.672L59.7867 27.1912L62.5669 25.875ZM58.2483 26.6302L60.8681 31.8698C60.9351 32.0032 60.9463 32.1576 60.8994 32.2993C60.8524 32.4409 60.7511 32.558 60.6178 32.625L56.0334 34.9172C55.9465 34.9604 55.8519 34.986 55.7551 34.9924C55.6582 34.9989 55.561 34.9861 55.4692 34.9548C55.3773 34.9235 55.2925 34.8743 55.2197 34.81C55.147 34.7458 55.0877 34.6678 55.0452 34.5805C55.0028 34.4932 54.9781 34.3983 54.9725 34.3014C54.9669 34.2045 54.9806 34.1075 55.0127 34.0159C55.0448 33.9243 55.0948 33.8399 55.1597 33.7678C55.2246 33.6956 55.3031 33.637 55.3908 33.5953L58.7405 32.0077C58.8082 31.9758 58.8689 31.9306 58.9189 31.8749C58.969 31.8192 59.0074 31.7541 59.0319 31.6833C59.0564 31.6126 59.0665 31.5377 59.0616 31.4629C59.0567 31.3882 59.037 31.3152 59.0035 31.2483L57.0052 27.2517L58.2483 26.6302ZM55.9926 27.7439L57.7392 31.237L54.9084 32.5786L41.7713 38.8012C41.4982 38.3218 41.0879 37.9351 40.593 37.6911C40.0982 37.447 39.5417 37.3568 38.9951 37.432C38.4485 37.5072 37.937 37.7444 37.5265 38.113C37.1159 38.4817 36.8253 38.9648 36.6919 39.5002L35.6358 37.388L37.7015 36.4078C37.7564 36.4289 37.8112 36.45 37.8675 36.4669C38.0855 36.5325 38.312 36.5656 38.5397 36.5653C39.6295 36.5653 40.7953 35.82 41.8078 34.463L55.9926 27.7439ZM46.6875 42.2451C45.3895 42.2451 44.2702 42.7781 43.283 43.8722C42.8932 43.3906 42.6034 42.836 42.4308 42.2409C43.553 40.6927 44.7638 39.9375 46.125 39.9375C47.4933 39.9375 48.7519 40.5802 49.6955 41.7515C49.6294 42.1681 49.5369 42.58 49.4184 42.9848C48.59 42.5 47.6474 42.2447 46.6875 42.2451ZM48.2442 44.2716C47.932 44.7384 47.5833 45 47.25 45C46.4846 45.0118 45.7263 44.8518 45.0309 44.5317C45.495 44.1426 46.0819 43.9303 46.6875 43.9326C47.2249 43.9307 47.7563 44.0464 48.2442 44.2716ZM46.125 38.8125C44.6611 38.8125 43.3659 39.4481 42.1931 40.7461C42.1903 40.6645 42.1875 40.583 42.1875 40.5C42.1874 40.29 42.1709 40.0803 42.1383 39.8728L49.3298 36.4669C49.7233 37.6942 49.8957 38.9817 49.8389 40.2694C48.8272 39.3356 47.5018 38.8156 46.125 38.8125ZM36.7594 35.6105L35.4895 36.2109C35.4867 36.142 35.4853 36.0717 35.4853 36C35.4853 34.0777 36.2362 32.2805 37.4287 31.1259C36.7819 32.8556 36.5625 34.4742 36.5625 34.875C36.5636 35.133 36.6314 35.3864 36.7594 35.6105ZM36.2152 41.0625H32.625L34.7794 38.1909L36.2152 41.0625ZM36.7481 42.8611C36.9388 44.0874 37.2852 45.2845 37.7789 46.4231C37.3584 46.4598 36.9377 46.3548 36.5836 46.125C36.3991 46.0021 36.2489 45.8345 36.1468 45.6377C36.0447 45.441 35.9942 45.2216 36 45C36.0006 44.223 36.2643 43.4691 36.7481 42.8611H36.7481ZM43.2577 32.5322C43.8398 31.9163 44.3081 31.7123 44.8073 31.7981L43.2577 32.5322ZM50.4056 29.1459L46.1644 31.1555C44.0761 29.9348 42.7317 31.0753 41.1567 33.4378C39.9923 35.1858 38.8617 35.5922 38.1938 35.3897C37.8619 35.2898 37.6875 35.055 37.6875 34.875C37.6875 34.3645 37.9631 32.7502 38.6283 31.1541C39.1936 29.797 40.2047 28.0659 41.8036 27.533C43.5544 26.9494 47.0461 27.3502 50.4056 29.1459ZM40.5 10.6875C41.2457 10.6882 41.9606 10.9848 42.4879 11.5121C43.0152 12.0394 43.3118 12.7543 43.3125 13.5V26.1591C42.9351 26.1709 42.559 26.2108 42.1875 26.2786V14.0625C42.1867 13.466 41.9494 12.8942 41.5276 12.4724C41.1058 12.0506 40.534 11.8133 39.9375 11.8125H30.8039C30.7049 11.4184 30.5521 11.0398 30.3497 10.6875H40.5ZM17.4375 12.8967C17.4387 12.0128 17.7903 11.1654 18.4154 10.5404C19.0404 9.91534 19.8878 9.56368 20.7717 9.5625C21.0446 9.56348 21.3142 9.50217 21.5598 9.38325C21.8054 9.26433 22.0207 9.09093 22.1892 8.87625L22.2286 8.82703C22.4756 8.51232 22.6121 8.12509 22.6172 7.72507C22.6223 7.32506 22.4956 6.93448 22.2567 6.61359C22.0282 6.29846 21.9164 5.91368 21.9403 5.52516C21.9679 5.10947 22.1471 4.71838 22.4439 4.42601C22.7407 4.13364 23.1344 3.96032 23.5505 3.93891C23.5758 3.9375 23.5997 3.9375 23.625 3.9375C23.9379 3.9377 24.2445 4.02481 24.5108 4.18913C24.777 4.35345 24.9924 4.58851 25.1328 4.86808C25.2733 5.14765 25.3333 5.46075 25.3061 5.77244C25.279 6.08413 25.1658 6.38216 24.9792 6.63327C24.7441 6.95109 24.6202 7.33754 24.6268 7.73283C24.6334 8.12813 24.7701 8.51022 25.0158 8.82L25.0594 8.87484C25.228 9.08986 25.4434 9.26357 25.6893 9.38273C25.9352 9.5019 26.205 9.56338 26.4783 9.5625C27.3622 9.56368 28.2096 9.91534 28.8346 10.5404C29.4597 11.1654 29.8113 12.0128 29.8125 12.8967V14.0625C29.8121 14.3607 29.6934 14.6467 29.4826 14.8576C29.2717 15.0684 28.9857 15.1871 28.6875 15.1875H18.5625C18.2643 15.1871 17.9783 15.0684 17.7674 14.8576C17.5566 14.6467 17.4379 14.3607 17.4375 14.0625V12.8967ZM18.5625 16.3125H28.6875C29.284 16.3117 29.8558 16.0744 30.2776 15.6526C30.6994 15.2308 30.9367 14.659 30.9375 14.0625V12.9375H39.9375C40.2357 12.9379 40.5217 13.0566 40.7326 13.2674C40.9435 13.4783 41.0621 13.7643 41.0625 14.0625V26.6161C39.9122 27.1181 39.0361 28.0631 38.378 29.1403C36.0028 30.1851 34.3603 32.9695 34.3603 36C34.3603 36.1941 34.3688 36.3811 34.3828 36.5625H27C26.8508 36.5625 26.7077 36.6218 26.6023 36.7273C26.4968 36.8327 26.4375 36.9758 26.4375 37.125C26.4375 37.2742 26.4968 37.4173 26.6023 37.5227C26.7077 37.6282 26.8508 37.6875 27 37.6875H33.75L31.05 41.2875C30.9872 41.371 30.9489 41.4704 30.9395 41.5745C30.9301 41.6786 30.9498 41.7832 30.9966 41.8767C31.0433 41.9702 31.1152 42.0488 31.2041 42.1037C31.293 42.1586 31.3955 42.1876 31.5 42.1875H35.8467C35.2434 43.0017 34.875 43.8708 34.875 45C34.8654 45.6251 35.0977 46.2297 35.5233 46.6875H27C26.8508 46.6875 26.7077 46.7468 26.6023 46.8523C26.4968 46.9577 26.4375 47.1008 26.4375 47.25C26.4375 47.3992 26.4968 47.5423 26.6023 47.6477C26.7077 47.7532 26.8508 47.8125 27 47.8125H36.9886C36.5442 49.2891 37.2502 50.317 38.0194 50.7572C38.3719 50.9601 38.7714 51.0672 39.1781 51.068C39.686 51.0649 40.1795 50.8988 40.5858 50.5941C40.7391 50.753 40.8966 50.9105 41.0625 51.0652V64.6875C41.0621 64.9857 40.9434 65.2717 40.7326 65.4826C40.5217 65.6934 40.2357 65.8121 39.9375 65.8125H7.3125C7.01425 65.8121 6.72834 65.6934 6.51744 65.4826C6.30655 65.2717 6.1879 64.9857 6.1875 64.6875V14.0625C6.1879 13.7643 6.30655 13.4783 6.51744 13.2674C6.72833 13.0565 7.01425 12.9379 7.3125 12.9375H16.3125V14.0625C16.3133 14.659 16.5506 15.2308 16.9724 15.6526C17.3942 16.0744 17.966 16.3117 18.5625 16.3125ZM38.1066 48.0023C38.1305 47.9363 38.153 47.8744 38.1755 47.8125H38.25C38.3209 47.812 38.391 47.7982 38.4567 47.7717C38.8564 48.4708 39.3161 49.1338 39.8306 49.7531C39.6437 49.8705 39.4285 49.935 39.2078 49.9397C38.9872 49.9444 38.7694 49.8892 38.5777 49.7798C38.1333 49.5253 37.7747 48.9248 38.1066 48.0023ZM43.3125 65.25C43.3118 65.9957 43.0152 66.7106 42.4879 67.2379C41.9606 67.7652 41.2457 68.0618 40.5 68.0625H6.75C6.00431 68.0618 5.28937 67.7652 4.76209 67.2379C4.2348 66.7106 3.93825 65.9957 3.9375 65.25V13.5C3.93825 12.7543 4.2348 12.0394 4.76209 11.5121C5.28937 10.9848 6.00431 10.6882 6.75 10.6875H16.9003C16.6979 11.0398 16.5451 11.4184 16.4461 11.8125H7.3125C6.716 11.8133 6.14417 12.0506 5.72238 12.4724C5.30059 12.8942 5.06329 13.466 5.0625 14.0625V64.6875C5.06329 65.284 5.30059 65.8558 5.72238 66.2776C6.14417 66.6994 6.716 66.9367 7.3125 66.9375H39.9375C40.534 66.9367 41.1058 66.6994 41.5276 66.2776C41.9494 65.8558 42.1867 65.284 42.1875 64.6875V52.0242C42.262 52.0833 42.3352 52.1424 42.4125 52.2C42.7036 52.418 43.0045 52.6219 43.3125 52.8145V65.25ZM51.9412 60.7584L51.8484 60.6066C51.5756 59.985 52.1972 58.8698 53.5289 57.5944C54.8486 58.4356 55.9648 59.5596 56.797 60.885C54.4669 61.5909 52.4995 61.4545 51.9412 60.7584ZM60.4378 59.1567C59.5526 59.7475 58.6029 60.2354 57.607 60.6108L57.8573 60.4603C55.6664 56.8083 52.1494 55.4344 48.7491 54.1055C46.6847 53.2983 44.7356 52.5361 43.0875 51.3C38.6241 47.9531 37.6875 43.5797 37.6875 40.5C37.6875 39.1402 38.5355 38.5312 39.375 38.5312C40.2145 38.5312 41.0625 39.1402 41.0625 40.5C41.0625 44.2013 43.5487 46.6875 47.25 46.6875C48.1767 46.6875 49.0092 46.1714 49.6575 45.1941C51.0975 43.0228 51.3816 38.9306 50.3508 35.9831L53.8467 34.3266C53.8577 34.6378 53.9468 34.9412 54.1056 35.209C54.2645 35.4768 54.4881 35.7005 54.7559 35.8594C55.0237 36.0182 55.3271 36.1073 55.6383 36.1184C55.9495 36.1294 56.2585 36.0621 56.5369 35.9227L56.7689 35.8059C59.67 41.1947 62.5373 48.8419 63.5794 53.0114L64.2248 55.5919C63.1746 56.987 61.8938 58.1926 60.4378 59.1567ZM65.0573 54.2883L64.6706 52.7386C64.5722 52.342 64.4555 51.9145 64.3261 51.4617C64.8056 51.4181 65.3189 51.4617 65.5425 51.7852L65.5551 51.8076C65.5723 51.834 65.5874 51.8618 65.6002 51.8906C65.8069 52.3772 65.6114 53.2519 65.0573 54.2883Z" fill="#26ad50"/>
</svg>
