<svg width="72" height="72" viewBox="0 0 72 72" fill="none" xmlns="http://www.w3.org/2000/svg">
<g clip-path="url(#clip0)">
<path d="M34.7618 37.8439C43.6992 37.8439 50.9705 30.577 50.9705 21.6446C50.9705 18.4816 50.0576 15.417 48.3311 12.7814C48.0114 12.2941 47.3577 12.1579 46.8704 12.4776C46.3826 12.7968 46.2469 13.4504 46.5661 13.9382C48.0668 16.2289 48.8606 18.8936 48.8606 21.6446C48.8606 29.4136 42.5358 35.734 34.7618 35.734C26.9874 35.734 20.6631 29.4136 20.6631 21.6446C20.6631 13.8762 26.9874 7.55573 34.7618 7.55573C37.899 7.55573 40.8675 8.56317 43.3477 10.4688C43.8102 10.8242 44.4721 10.7368 44.8275 10.2754C45.1824 9.81342 45.0956 9.15094 44.6336 8.79608C41.7816 6.60431 38.3676 5.4458 34.7618 5.4458C25.8239 5.4458 18.5532 12.7127 18.5532 21.6446C18.5532 30.577 25.8239 37.8439 34.7618 37.8439Z" fill="#26ad50"/>
<path d="M66.0943 35.1189L65.5763 34.2224C64.6716 32.6552 62.66 32.1169 61.0939 33.0211L58.8247 34.3301C58.1628 34.7119 57.6656 35.2985 57.3981 36.0038C56.8708 35.8709 56.3055 35.8775 55.7568 36.045C55.6842 36.067 55.6139 36.0972 55.548 36.134L46.626 41.1394H44.1695C51.4128 37.6337 56.4198 30.213 56.4198 21.6447C56.4203 9.70972 46.7046 0 34.7619 0C22.8192 0 13.1034 9.70972 13.1034 21.6447C13.1034 29.1802 16.9767 35.827 22.8373 39.7046L16.4729 36.134C16.4065 36.0967 16.3362 36.067 16.2642 36.045C15.7149 35.8775 15.1502 35.8704 14.6228 36.0038C14.3553 35.2985 13.8582 34.7119 13.1963 34.3301L10.927 33.0211C9.36039 32.1169 7.34934 32.6552 6.44407 34.2224L5.92607 35.1189C5.48716 35.8786 5.37071 36.763 5.59758 37.6106C5.82444 38.4576 6.36827 39.1663 7.12797 39.6041L9.3972 40.9136C9.91245 41.2108 10.4755 41.352 11.032 41.352C11.1957 41.352 11.3583 41.3383 11.5192 41.3141C11.5362 41.9925 11.6598 42.6747 11.8944 43.3378C11.896 43.3427 11.8982 43.3471 11.8999 43.3521L13.438 47.5054C13.5962 47.9306 13.9988 48.1937 14.4278 48.1937C14.5492 48.1937 14.6728 48.1729 14.7937 48.1278C15.3403 47.9257 15.6193 47.3187 15.4166 46.7721L13.8813 42.6264C13.5418 41.6646 13.5506 40.6434 13.8774 39.7156C13.878 39.7145 13.8791 39.7134 13.8796 39.7123L14.63 38.3802C14.8547 38.0978 15.2112 37.9693 15.5583 38.0402L24.6023 43.1142C24.7599 43.2026 24.9379 43.2488 25.1186 43.2488H33.4507C33.8753 43.2746 34.3027 43.2889 34.7333 43.2894C34.3037 44.3106 33.2936 45.0297 32.1169 45.0297H24.4715L21.8991 43.9492C21.8969 43.9481 21.8952 43.9475 21.893 43.947C21.8886 43.9448 21.8837 43.9426 21.8788 43.9404L19.1712 42.8033C18.634 42.5781 18.016 42.8302 17.7902 43.3674C17.5644 43.9047 17.8171 44.5232 18.3543 44.749L20.5478 45.6702L21.313 49.5835L15.8357 50.2158C15.6841 50.2333 15.544 50.2828 15.4205 50.3558C15.2941 50.4311 15.1809 50.5338 15.0958 50.6541L9.53453 58.4951C9.52079 58.5148 9.50761 58.5341 9.49497 58.5544C9.0352 59.3053 8.92808 60.21 9.19834 61.0461L10.7848 67.8109C10.9172 68.3729 11.4132 68.7656 11.9905 68.7656H14.5558C14.903 68.7656 15.2364 68.6184 15.4704 68.3624C15.7044 68.1059 15.8204 67.7609 15.789 67.4149L15.3776 62.8918C15.3276 62.3419 15.6045 61.8096 16.0835 61.5344L18.4389 60.182L19.2673 62.2227C19.2734 62.2381 19.2799 62.2535 19.2871 62.2689C19.7062 63.1752 20.4577 63.6136 21.1202 64.0003C21.1855 64.0382 27.7174 67.7796 27.7174 67.7796C27.9729 67.9246 28.2536 67.996 28.5321 67.996C28.9045 67.996 29.2753 67.8686 29.5835 67.6181L30.9469 66.4937C31.2957 66.2053 31.4973 65.7801 31.5 65.3275C31.5033 64.8759 31.3078 64.4485 30.965 64.1569L25.7284 59.6777C25.5795 59.5503 25.4768 59.3767 25.4383 59.1872L22.8901 46.654L23.6651 46.9797C23.9184 47.0858 24.1859 47.1401 24.46 47.1401H32.1175C33.6962 47.1401 35.1041 46.3958 36.0105 45.2411C36.9174 46.3958 38.3247 47.1401 39.904 47.1401H47.4082C47.784 47.1401 48.1498 47.0665 48.497 46.9204L49.1501 46.6463L48.4234 50.2756L48.3218 50.7255C48.2833 50.8969 48.252 51.0688 48.2245 51.2402L46.5821 59.1894C46.5442 59.3767 46.4409 59.5503 46.2937 59.6772L41.0548 64.158C40.7121 64.4513 40.5182 64.8787 40.522 65.3302C40.5259 65.7812 40.7275 66.2058 41.0774 66.4958L42.4419 67.6208C42.7418 67.8658 43.1142 67.9922 43.4894 67.9922C43.7707 67.9922 44.0536 67.9213 44.3079 67.7774C44.3079 67.7774 50.8365 64.0377 50.9024 63.9992C51.5655 63.6125 52.3175 63.1747 52.7344 62.2672C52.741 62.2529 52.7476 62.2381 52.7536 62.2233L53.5815 60.182L55.9375 61.535C56.4159 61.8096 56.6933 62.3425 56.6433 62.8918L56.2319 67.4154C56.2001 67.7609 56.3165 68.1064 56.5505 68.3624C56.7845 68.619 57.118 68.7656 57.4651 68.7656H60.0304C60.6078 68.7656 61.1038 68.3734 61.2362 67.8104L62.8226 61.0461C63.0923 60.2106 62.9852 59.3058 62.526 58.5549C62.2211 58.0583 61.5724 57.9018 61.0752 58.2061C60.5781 58.5104 60.4221 59.1597 60.7264 59.6569C60.8665 59.8854 60.8967 60.1617 60.8094 60.4149C60.7978 60.449 60.7879 60.483 60.7797 60.5176L59.3399 66.6557H58.4198L58.7445 63.0829C58.8692 61.7151 58.1798 60.3891 56.9883 59.7047L53.1524 57.5024C51.0689 56.306 49.9593 54.0022 50.2933 51.6599L55.1877 52.2252L55.4761 52.2587L58.3764 56.3472C58.7132 56.8224 59.3718 56.935 59.847 56.5977C60.3221 56.2604 60.4342 55.6018 60.0975 55.1266L57.2476 51.1089L60.1211 43.3521C60.1227 43.3471 60.1244 43.3427 60.1266 43.3378C60.3611 42.6747 60.4847 41.9925 60.5012 41.3141C60.6627 41.3383 60.8253 41.352 60.989 41.352C61.5449 41.352 62.1085 41.2108 62.6238 40.9131L64.893 39.6041C65.6527 39.1657 66.1965 38.4576 66.4234 37.6106C66.6497 36.763 66.5332 35.8786 66.0943 35.1189ZM10.4513 39.0861L8.18211 37.7765C7.91075 37.6199 7.71684 37.3672 7.63554 37.0646C7.55479 36.7619 7.59599 36.4455 7.75309 36.1741L8.2711 35.2776C8.59465 34.7179 9.31315 34.5256 9.87235 34.8486L12.1416 36.1577C12.4129 36.3142 12.6074 36.5674 12.6882 36.8701C12.7392 37.0591 12.7414 37.2541 12.698 37.4398C12.4047 37.8578 12.1668 38.3027 11.9817 38.7647C11.6329 39.2399 10.9737 39.3871 10.4513 39.0861ZM15.0326 59.7047C13.8412 60.3891 13.1518 61.7151 13.2765 63.0829L13.6011 66.6557H12.681L11.2413 60.5176C11.233 60.483 11.2231 60.449 11.2116 60.4149C11.1275 60.171 11.1528 59.9052 11.2797 59.6816L16.5449 52.2587L21.7277 51.6599C22.0617 54.0016 20.9521 56.3055 18.8685 57.5024L15.0326 59.7047ZM24.3556 61.2801L29.0666 65.3099L28.4859 65.7889L22.3858 62.2963C22.3177 62.2562 22.2501 62.2167 22.1831 62.1777C21.6574 61.8712 21.3487 61.6811 21.2108 61.4015L20.2808 59.1097C21.3064 58.4473 22.1397 57.5804 22.7467 56.5856L23.3713 59.6113C23.5031 60.2556 23.8519 60.8483 24.3556 61.2801ZM15.2134 21.6447C15.2134 10.8732 23.9826 2.10992 34.7619 2.10992C45.5406 2.10992 54.3104 10.8732 54.3104 21.6447C54.3104 31.9982 46.208 40.4951 36.0077 41.1394H33.516C23.3152 40.4951 15.2134 31.9982 15.2134 21.6447ZM51.7396 59.1097L50.8091 61.4026C50.6728 61.6805 50.3647 61.8701 49.8395 62.176C49.7719 62.2156 49.7033 62.2557 49.6341 62.2963L43.5356 65.7883L42.9544 65.3088L47.6664 61.279C48.1685 60.8483 48.5173 60.2556 48.6486 59.6135L49.2743 56.5856C49.8813 57.5799 50.714 58.4473 51.7396 59.1097ZM58.1397 42.6264L55.3629 50.1213L50.7129 49.584L51.499 45.6592L53.6661 44.749C54.2033 44.5232 54.456 43.9047 54.2302 43.368C54.0044 42.8307 53.3859 42.5781 52.8492 42.8033L47.6796 44.9753C47.5928 45.0115 47.5016 45.0302 47.4077 45.0302H39.9035C38.7115 45.0302 37.6886 44.2919 37.269 43.2493H46.9018C47.0825 43.2493 47.2605 43.2026 47.4181 43.1142L56.4621 38.0407C56.8098 37.9698 57.1663 38.0984 57.391 38.3807C57.391 38.3807 57.436 38.4379 57.4366 38.4384C57.4904 38.567 58.1408 39.7123 58.1408 39.7123C58.1413 39.7134 58.1419 39.7145 58.1424 39.7156C58.4704 40.6434 58.4786 41.6646 58.1397 42.6264ZM64.3849 37.0646C64.3036 37.3672 64.1097 37.6199 63.8383 37.7765L61.5691 39.0861C61.0472 39.3865 60.3875 39.2399 60.0387 38.7647C59.8536 38.3027 59.6162 37.8578 59.3229 37.4403C59.279 37.2546 59.2817 37.0596 59.3323 36.8701C59.4136 36.5674 59.6075 36.3142 59.8794 36.1577L62.1486 34.8486C62.3326 34.7421 62.5337 34.6921 62.732 34.6921C63.1379 34.6921 63.5323 34.9019 63.7499 35.2776L64.2679 36.1741C64.4244 36.4455 64.4662 36.7619 64.3849 37.0646Z" fill="#26ad50"/>
<path d="M61.5449 69.8901H57.2822C56.6993 69.8901 56.2269 70.3625 56.2269 70.9448C56.2269 71.5276 56.6993 72.0001 57.2822 72.0001H61.5449C62.1277 72.0001 62.5995 71.5276 62.5995 70.9448C62.5995 70.3625 62.1277 69.8901 61.5449 69.8901Z" fill="#26ad50"/>
<path d="M42.9258 69.84L39.4915 66.8369C39.0526 66.4529 38.3862 66.4974 38.0028 66.9363C37.6194 67.3747 37.6639 68.0416 38.1022 68.425L41.5366 71.4281C41.7365 71.6033 41.9843 71.689 42.2309 71.689C42.5242 71.689 42.817 71.5671 43.0252 71.3287C43.4086 70.8898 43.3641 70.2234 42.9258 69.84Z" fill="#26ad50"/>
<path d="M14.7387 69.8901H10.476C9.89319 69.8901 9.42078 70.3625 9.42078 70.9448C9.42078 71.5276 9.89319 72.0001 10.476 72.0001H14.7387C15.321 72.0001 15.7934 71.5276 15.7934 70.9448C15.7934 70.3625 15.321 69.8901 14.7387 69.8901Z" fill="#26ad50"/>
<path d="M32.5294 66.8372L29.0951 69.8403C28.6562 70.2237 28.6117 70.8901 28.9951 71.329C29.2039 71.5674 29.4961 71.6893 29.79 71.6893C30.0361 71.6893 30.2838 71.6036 30.4838 71.4284L33.9181 68.4253C34.3565 68.0419 34.4015 67.375 34.0175 66.9366C33.6347 66.4983 32.9678 66.4532 32.5294 66.8372Z" fill="#26ad50"/>
<line x1="31" y1="11" x2="31" y2="34" stroke="#26ad50" stroke-width="2"/>
<mask id="path-8-inside-1" fill="white">
<path fill-rule="evenodd" clip-rule="evenodd" d="M26 25H39C42.3137 25 45 22.3137 45 19C45 15.6863 42.3137 13 39 13H26V14.9998H38.8889C41.098 14.9998 42.8889 16.7907 42.8889 18.9998C42.8889 21.2089 41.098 22.9998 38.8889 22.9998H26V25Z"/>
</mask>
<path fill-rule="evenodd" clip-rule="evenodd" d="M26 25H39C42.3137 25 45 22.3137 45 19C45 15.6863 42.3137 13 39 13H26V14.9998H38.8889C41.098 14.9998 42.8889 16.7907 42.8889 18.9998C42.8889 21.2089 41.098 22.9998 38.8889 22.9998H26V25Z" fill="#363636"/>
<path d="M26 25H25V26H26V25ZM26 13V12H25V13H26ZM26 14.9998H25V15.9998H26V14.9998ZM26 22.9998V21.9998H25V22.9998H26ZM39 24H26V26H39V24ZM44 19C44 21.7614 41.7614 24 39 24V26C42.866 26 46 22.866 46 19H44ZM39 14C41.7614 14 44 16.2386 44 19H46C46 15.134 42.866 12 39 12V14ZM26 14H39V12H26V14ZM25 13V14.9998H27V13H25ZM38.8889 13.9998H26V15.9998H38.8889V13.9998ZM43.8889 18.9998C43.8889 16.2384 41.6503 13.9998 38.8889 13.9998V15.9998C40.5457 15.9998 41.8889 17.3429 41.8889 18.9998H43.8889ZM38.8889 23.9998C41.6503 23.9998 43.8889 21.7612 43.8889 18.9998H41.8889C41.8889 20.6567 40.5457 21.9998 38.8889 21.9998V23.9998ZM26 23.9998H38.8889V21.9998H26V23.9998ZM25 22.9998V25H27V22.9998H25Z" fill="#26ad50" mask="url(#path-8-inside-1)"/>
<line x1="27" y1="29.5" x2="34" y2="29.5" stroke="#26ad50"/>
</g>
<defs>
<clipPath id="clip0">
<rect width="72" height="72" fill="white"/>
</clipPath>
</defs>
</svg>
