<svg width="72" height="72" viewBox="0 0 72 72" fill="none" xmlns="http://www.w3.org/2000/svg">
<g clip-path="url(#clip0)">
<path d="M33 72C29.691 72 27 69.309 27 66C27 62.691 29.691 60 33 60C36.309 60 39 62.691 39 66C39 69.309 36.309 72 33 72ZM33 63C31.344 63 30 64.347 30 66C30 67.653 31.344 69 33 69C34.656 69 36 67.653 36 66C36 64.347 34.656 63 33 63Z" fill="#26ad50"/>
<path d="M54 72C50.691 72 48 69.309 48 66C48 62.691 50.691 60 54 60C57.309 60 60 62.691 60 66C60 69.309 57.309 72 54 72ZM54 63C52.344 63 51 64.347 51 66C51 67.653 52.344 69 54 69C55.656 69 57 67.653 57 66C57 64.347 55.656 63 54 63Z" fill="#26ad50"/>
<path d="M28.5 27H17.25C16.422 27 15.75 26.328 15.75 25.5C15.75 24.672 16.422 24 17.25 24H28.5C29.328 24 30 24.672 30 25.5C30 26.328 29.328 27 28.5 27Z" fill="#26ad50"/>
<path d="M57.3 57H30.03C26.685 57 23.721 54.759 22.827 51.552L13.29 18.264C12.75 16.338 10.977 15 8.97 15H1.5C0.672 15 0 14.328 0 13.5C0 12.672 0.672 12 1.5 12H8.97C12.315 12 15.279 14.241 16.173 17.448L25.71 50.736C26.25 52.662 28.023 54 30.03 54H57.3C59.178 54 60.879 52.803 61.533 51.024L64.26 43.557C64.545 42.78 65.406 42.381 66.186 42.663C66.963 42.948 67.365 43.809 67.08 44.586L64.353 52.056C63.264 55.014 60.432 57 57.3 57Z" fill="#26ad50"/>
<path d="M54 42.0003C53.802 42.0003 53.604 41.9613 53.418 41.8803C52.704 41.5833 36 34.3623 36 19.6083V7.07126C36 6.42926 36.411 5.85626 37.02 5.64926L53.52 0.0782617C53.832 -0.0267383 54.171 -0.0267383 54.48 0.0782617L70.98 5.64926C71.589 5.85626 72 6.42926 72 7.07126V19.6083C72 34.3623 55.296 41.5833 54.582 41.8833C54.396 41.9613 54.198 42.0003 54 42.0003ZM39 8.14826V19.6083C39 30.9633 51.165 37.4823 54 38.8503C56.832 37.4793 69 30.9363 69 19.6083V8.14826L54 3.08426L39 8.14826Z" fill="#26ad50"/>
<path d="M52.5 27.0003C52.473 27.0003 52.443 27.0003 52.419 26.9973C51.99 26.9733 51.597 26.7693 51.33 26.4363L45.33 18.9363C44.814 18.2883 44.916 17.3463 45.564 16.8273C46.218 16.3113 47.157 16.4163 47.673 17.0613L52.623 23.2533L61.938 13.9383C62.523 13.3533 63.474 13.3533 64.059 13.9383C64.644 14.5233 64.644 15.4743 64.059 16.0593L53.559 26.5593C53.28 26.8443 52.896 27.0003 52.5 27.0003Z" fill="#26ad50"/>
</g>
<defs>
<clipPath id="clip0">
<rect width="72" height="72" fill="white"/>
</clipPath>
</defs>
</svg>
