<svg width="72" height="54" viewBox="0 0 72 54" fill="none" xmlns="http://www.w3.org/2000/svg">
<path d="M69.9569 19.8347L71.8738 15.6464C72.0515 15.291 72.0413 14.8658 71.8426 14.5181C71.6302 14.1467 71.2325 13.9161 70.8047 13.9161H65.544V9.87221C65.544 9.18397 65.0563 8.57688 64.3844 8.4288C62.8303 8.08623 61.2637 7.7715 59.6909 7.4842V4.16805C59.6909 2.03571 57.956 0.300781 55.8236 0.300781H25.4526C24.87 0.300781 24.3979 0.772869 24.3979 1.35549C24.3979 1.93811 24.87 2.4102 25.4526 2.4102H55.8238C56.7931 2.4102 57.5816 3.1987 57.5816 4.16805V7.11744C55.5463 6.77937 53.505 6.48701 51.4699 6.24611C50.891 6.17791 50.3668 6.59093 50.2985 7.16948C50.2301 7.74802 50.6435 8.27242 51.2219 8.34091C53.6104 8.62357 56.0076 8.97767 58.3928 9.3959C59.872 9.65339 61.7999 10.0261 63.4346 10.3804V18.1477C54.608 16.1188 45.1802 15.0802 36.0173 15.076C26.8651 15.092 17.641 16.0774 8.60032 18.1477V10.3804C10.1004 10.0549 12.0212 9.67702 13.6596 9.3914C24.4587 7.49883 35.431 6.98188 46.3557 7.85785C46.938 7.90412 47.4447 7.47154 47.4913 6.89089C47.5378 6.31024 47.105 5.80187 46.5243 5.75532C35.8121 4.89594 25.0542 5.35509 14.4533 7.11604V4.16805C14.4533 3.1987 15.2418 2.4102 16.2111 2.4102H20.5305C21.1131 2.4102 21.5852 1.93811 21.5852 1.35549C21.5852 0.772869 21.1131 0.300781 20.5305 0.300781H16.2111C14.0788 0.300781 12.3438 2.03571 12.3438 4.16805V7.48336C10.7754 7.7701 9.21065 8.08496 7.65038 8.4288C6.9786 8.57688 6.4909 9.18383 6.4909 9.87221V13.9161H1.33534C0.857484 13.9161 0.412959 14.1737 0.175719 14.5886C-0.0511139 14.9849 -0.0584266 15.4715 0.152656 15.8735L2.03524 19.8349L0.152656 23.7961C-0.0584266 24.1978 -0.0511139 24.6844 0.175578 25.0808C0.412958 25.4958 0.857343 25.7536 1.33534 25.7536H12.3438V37.3817C12.3438 39.5141 14.0788 41.249 16.2111 41.249H34.312C34.8947 41.249 35.3667 40.7769 35.3667 40.1943C35.3667 39.6117 34.8947 39.1396 34.312 39.1396H16.2112C15.2419 39.1396 14.4534 38.3511 14.4534 37.3817V19.1018C15.9997 18.8237 17.5475 18.5765 19.0967 18.3585V22.7803C19.0967 23.3629 19.5687 23.835 20.1514 23.835C20.734 23.835 21.2061 23.3629 21.2061 22.7803V18.0801C31.0661 16.8666 40.9691 16.8666 50.8291 18.0801V29.4559C50.8197 29.4466 50.8309 29.4893 50.6035 29.5811L48.4879 30.0505C47.5498 30.2583 46.8227 31.0017 46.6354 31.9441L46.5474 32.3872H21.5575C21.3636 32.3872 21.2059 32.2295 21.2059 32.0356V27.7024C21.2059 27.1198 20.7338 26.6477 20.1512 26.6477C19.5686 26.6477 19.0965 27.1198 19.0965 27.7024V32.0356C19.0965 33.3925 20.2006 34.4966 21.5575 34.4966H45.9662L45.0053 36.0054C44.4892 36.8158 44.5008 37.8554 45.0346 38.6538L45.3594 39.1397H39.234C38.6514 39.1397 38.1793 39.6118 38.1793 40.1944C38.1793 40.777 38.6514 41.2491 39.234 41.2491H46.4367L46.7537 42.6782C46.9617 43.6162 47.7052 44.3432 48.6474 44.5304L48.7001 44.541L48.706 52.5022C48.706 52.9609 48.9615 53.3717 49.373 53.5743C49.5421 53.6577 49.7229 53.6988 49.9028 53.6988C50.1605 53.6988 50.4158 53.6143 50.6305 53.4496L53.937 50.9052L57.2489 53.4434C57.6128 53.7217 58.0938 53.7688 58.505 53.566C58.9159 53.3631 59.1711 52.9525 59.1711 52.4933L59.1652 44.4599L59.3815 44.412C60.3194 44.204 61.0464 43.4606 61.2339 42.5183L61.6563 40.3928C61.6639 40.3546 61.6784 40.3182 61.6995 40.2853L62.8637 38.4571C63.3797 37.6468 63.3683 36.6071 62.8345 35.8084L61.6304 34.0072C61.6085 33.9743 61.5929 33.938 61.5846 33.9001L61.1153 31.7842C60.9433 31.0087 60.4049 30.3783 59.6909 30.0771V25.7537H70.8047C71.2325 25.7537 71.6301 25.523 71.8426 25.1517C72.0413 24.8039 72.0514 24.3787 71.8738 24.0233L69.9569 19.8347ZM4.06957 19.2009L2.56049 16.0254H6.49104V18.9767C6.49104 19.3881 6.65783 19.7705 6.9523 20.0482C6.95314 20.049 6.95385 20.05 6.95483 20.0509L10.7304 23.6442H2.56035L4.06915 20.4692C4.26096 20.0662 4.2611 19.6038 4.06957 19.2009ZM12.344 22.2677L9.95837 19.9973C10.7531 19.8242 11.5483 19.6582 12.344 19.501V22.2677ZM59.6909 19.501C60.4867 19.6582 61.2821 19.8242 62.0769 19.9974L59.6909 22.268V19.501ZM57.5815 19.1018V29.6058C57.4673 29.5683 57.1777 29.5573 56.9884 29.4662L55.1603 28.3019C54.4878 27.8737 53.6578 27.81 52.9384 28.1053V18.3585C54.4875 18.5765 56.0353 18.8237 57.5815 19.1018ZM54.834 48.9349C54.3037 48.5289 53.5643 48.5303 53.0355 48.937L50.8142 50.6463L50.8101 44.964C50.8347 44.9721 50.8585 44.9821 50.8806 44.9962L52.7087 46.1604C53.106 46.4136 53.5584 46.5396 54.0105 46.5396C54.4806 46.5396 54.9505 46.4031 55.3574 46.131L57.0562 44.9955L57.0603 50.6411L54.834 48.9349ZM61.0807 36.9804C61.1499 37.0839 61.1513 37.2187 61.0844 37.3238L59.9198 39.1522C59.758 39.4068 59.646 39.6856 59.5872 39.9812V39.9814L59.1648 42.1068C59.1406 42.229 59.0463 42.3255 58.9248 42.3524C58.3885 42.4713 57.3873 42.6934 56.8084 42.8219C56.514 42.8873 56.2375 43.0054 55.9869 43.1729L54.185 44.3773C54.0818 44.4463 53.9471 44.4481 53.8419 44.3809L52.014 43.2168C51.7596 43.0548 51.4806 42.9427 51.1844 42.8838L49.969 42.6422C49.9675 42.6419 49.9659 42.6416 49.9644 42.6412L49.0587 42.4612C48.9366 42.437 48.8403 42.3428 48.8135 42.2213L48.3439 40.1051C48.327 40.0292 48.3064 39.9545 48.2826 39.8811C48.2715 39.8454 48.2583 39.8105 48.2435 39.7765C48.1785 39.6038 48.0963 39.4381 47.9928 39.2836L46.7884 37.4814C46.7194 37.3781 46.7178 37.2433 46.7848 37.1384L47.9489 35.3105C48.1109 35.0562 48.223 34.7771 48.2819 34.481L48.4459 33.6563C48.4461 33.6549 48.4464 33.6535 48.4467 33.6523L48.7045 32.3551C48.7287 32.2332 48.8227 32.1369 48.9444 32.11L51.0606 31.6404C51.3549 31.5752 51.6312 31.4571 51.8822 31.2894L52.4715 30.8955C52.4727 30.8947 52.474 30.8938 52.4753 30.893L53.684 30.085C53.7368 30.0498 53.7977 30.0321 53.8586 30.0321C53.9171 30.0321 53.9758 30.0484 54.0272 30.0813L55.8557 31.2458C56.1102 31.4077 56.3891 31.5196 56.6848 31.5784C57.2818 31.6963 58.2426 31.8895 58.8104 32.0007C58.9326 32.0251 59.0291 32.1194 59.056 32.2409L59.5254 34.3572C59.5906 34.6511 59.7086 34.9273 59.8764 35.1788L61.0807 36.9804ZM61.3046 23.6442C61.3852 23.5594 65.0658 20.0803 65.1601 19.9673C65.4053 19.6982 65.544 19.35 65.544 18.9769V16.0255H69.3803C69.3363 16.1429 67.8923 19.2355 67.8435 19.4065C67.7586 19.6868 67.7586 19.9831 67.8435 20.2634C67.8798 20.4078 69.3066 23.4612 69.3804 23.6443H61.3046V23.6442Z" fill="#26ad50"/>
<path d="M53.9348 33.918C52.1079 33.918 50.6216 35.4041 50.6216 37.2312C50.6216 39.0582 52.1077 40.5444 53.9348 40.5444C55.7618 40.5444 57.248 39.0582 57.248 37.2312C57.248 35.4041 55.7617 33.918 53.9348 33.918ZM53.9348 38.4349C53.271 38.4349 52.731 37.8949 52.731 37.2312C52.731 36.5674 53.271 36.0274 53.9348 36.0274C54.5985 36.0274 55.1385 36.5674 55.1385 37.2312C55.1385 37.8949 54.5984 38.4349 53.9348 38.4349Z" fill="#26ad50"/>
<path d="M43.0079 22.668C43.0079 22.0854 42.5358 21.6133 41.9532 21.6133H30.0825C29.4999 21.6133 29.0278 22.0854 29.0278 22.668C29.0278 23.2506 29.4999 23.7227 30.0825 23.7227H41.9532C42.5357 23.7227 43.0079 23.2506 43.0079 22.668Z" fill="#26ad50"/>
<path d="M32.812 25.9741C32.2294 25.9741 31.7573 26.4462 31.7573 27.0288C31.7573 27.6115 32.2294 28.0835 32.812 28.0835H39.2234C39.806 28.0835 40.2781 27.6115 40.2781 27.0288C40.2781 26.4462 39.806 25.9741 39.2234 25.9741H32.812Z" fill="#26ad50"/>
</svg>
