<svg width="72" height="72" viewBox="0 0 72 72" fill="none" xmlns="http://www.w3.org/2000/svg">
<path d="M69.75 48.3748H68.625V12.3748C68.6232 10.5851 67.9115 8.86927 66.646 7.60378C65.3805 6.3383 63.6647 5.62657 61.875 5.62478H41.5125C41.2543 4.35321 40.5644 3.21 39.5598 2.38885C38.5551 1.56771 37.2975 1.11914 36 1.11914C34.7025 1.11914 33.4448 1.56771 32.4402 2.38885C31.4356 3.21 30.7457 4.35321 30.4875 5.62478H10.125C8.33534 5.62657 6.61949 6.3383 5.354 7.60378C4.08852 8.86927 3.37679 10.5851 3.375 12.3748V48.3748H2.25C1.95163 48.3748 1.66548 48.4933 1.4545 48.7043C1.24353 48.9153 1.125 49.2014 1.125 49.4998V53.9998C1.12679 55.4911 1.71999 56.9208 2.7745 57.9753C3.829 59.0298 5.25871 59.623 6.75 59.6248H36.5906C36.2021 60.7077 36.0023 61.8493 36 62.9998V69.7498C36 70.0481 36.1185 70.3343 36.3295 70.5453C36.5405 70.7563 36.8266 70.8748 37.125 70.8748H64.125C64.4234 70.8748 64.7095 70.7563 64.9205 70.5453C65.1315 70.3343 65.25 70.0481 65.25 69.7498V62.9998C65.2477 61.8493 65.0479 60.7077 64.6594 59.6248H65.25C66.7413 59.623 68.171 59.0298 69.2255 57.9753C70.28 56.9208 70.8732 55.4911 70.875 53.9998V49.4998C70.875 49.2014 70.7565 48.9153 70.5455 48.7043C70.3345 48.4933 70.0484 48.3748 69.75 48.3748ZM66.375 12.3748V48.3748H59.3291C59.5229 47.6404 59.6223 46.8843 59.625 46.1248H63C63.2984 46.1248 63.5845 46.0063 63.7955 45.7953C64.0065 45.5843 64.125 45.2981 64.125 44.9998V11.2498C64.125 10.9514 64.0065 10.6653 63.7955 10.4543C63.5845 10.2433 63.2984 10.1248 63 10.1248H40.4707C40.9825 9.46252 41.3386 8.69349 41.5125 7.87478H61.875C63.0685 7.87478 64.2131 8.34889 65.057 9.1928C65.9009 10.0367 66.375 11.1813 66.375 12.3748ZM50.625 52.8748C48.8353 52.873 47.1195 52.1613 45.854 50.8958C44.5885 49.6303 43.8768 47.9144 43.875 46.1248V43.8748C43.875 42.0846 44.5862 40.3677 45.852 39.1018C47.1179 37.8359 48.8348 37.1248 50.625 37.1248C52.4152 37.1248 54.1321 37.8359 55.398 39.1018C56.6638 40.3677 57.375 42.0846 57.375 43.8748V46.1248C57.3732 47.9144 56.6615 49.6303 55.396 50.8958C54.1305 52.1613 52.4147 52.873 50.625 52.8748ZM41.625 43.8748H39.375V29.2498H61.875V43.8748H59.625C59.623 42.2954 59.2054 40.7443 58.4141 39.3774C57.6228 38.0105 56.4857 36.8759 55.1171 36.0875C55.1171 36.0583 55.125 36.029 55.125 35.9998C55.125 34.8063 54.6509 33.6617 53.807 32.8178C52.9631 31.9739 51.8185 31.4998 50.625 31.4998C49.4315 31.4998 48.2869 31.9739 47.443 32.8178C46.5991 33.6617 46.125 34.8063 46.125 35.9998C46.125 36.029 46.1317 36.0583 46.1329 36.0875C44.7643 36.8759 43.6272 38.0105 42.8359 39.3774C42.0446 40.7443 41.627 42.2954 41.625 43.8748ZM37.125 12.3748V43.8748H10.125V12.3748H37.125ZM61.875 26.9998H58.3988C58.2022 25.8496 57.7115 24.7698 56.9742 23.8653C56.237 22.9609 55.2782 22.2626 54.1912 21.8383C54.7933 21.0615 55.1216 20.1075 55.125 19.1248C55.125 17.9313 54.6509 16.7867 53.807 15.9428C52.9631 15.0989 51.8185 14.6248 50.625 14.6248C49.4315 14.6248 48.2869 15.0989 47.443 15.9428C46.5991 16.7867 46.125 17.9313 46.125 19.1248C46.1284 20.1075 46.4567 21.0615 47.0588 21.8383C45.9718 22.2626 45.013 22.9609 44.2758 23.8653C43.5385 24.7698 43.0478 25.8496 42.8512 26.9998H39.375V12.3748H61.875V26.9998ZM50.625 21.3748C50.18 21.3748 49.745 21.2428 49.375 20.9956C49.005 20.7484 48.7166 20.397 48.5463 19.9858C48.376 19.5747 48.3314 19.1223 48.4182 18.6858C48.5051 18.2494 48.7193 17.8485 49.034 17.5338C49.3487 17.2191 49.7496 17.0048 50.186 16.918C50.6225 16.8312 51.0749 16.8758 51.486 17.0461C51.8972 17.2163 52.2486 17.5047 52.4958 17.8747C52.743 18.2448 52.875 18.6798 52.875 19.1248C52.875 19.7215 52.6379 20.2938 52.216 20.7158C51.794 21.1377 51.2217 21.3748 50.625 21.3748ZM49.5 23.6248H51.75C52.7447 23.6285 53.7102 23.9617 54.4955 24.5724C55.2808 25.183 55.8416 26.0366 56.0903 26.9998H45.1597C45.4084 26.0366 45.9692 25.183 46.7545 24.5724C47.5398 23.9617 48.5053 23.6285 49.5 23.6248ZM52.6984 35.1257C51.3364 34.7911 49.9136 34.7911 48.5516 35.1257C48.7235 34.7178 49.0119 34.3696 49.3807 34.1249C49.7495 33.8801 50.1824 33.7495 50.625 33.7495C51.0676 33.7495 51.5005 33.8801 51.8693 34.1249C52.2381 34.3696 52.5265 34.7178 52.6984 35.1257ZM36 3.37478C36.6675 3.37478 37.32 3.57272 37.875 3.94357C38.4301 4.31442 38.8626 4.84152 39.1181 5.45822C39.3735 6.07492 39.4404 6.75352 39.3102 7.40821C39.1799 8.0629 38.8585 8.66426 38.3865 9.13627C37.9145 9.60827 37.3131 9.92971 36.6584 10.0599C36.0037 10.1902 35.3251 10.1233 34.7084 9.86787C34.0917 9.61243 33.5646 9.17984 33.1938 8.62483C32.8229 8.06981 32.625 7.41729 32.625 6.74978C32.625 5.85467 32.9806 4.99623 33.6135 4.36329C34.2464 3.73036 35.1049 3.37478 36 3.37478ZM5.625 12.3748C5.625 11.1813 6.09911 10.0367 6.94302 9.1928C7.78693 8.34889 8.93153 7.87478 10.125 7.87478H30.4875C30.6611 8.69339 31.0167 9.46241 31.5281 10.1248H9C8.70163 10.1248 8.41548 10.2433 8.2045 10.4543C7.99353 10.6653 7.875 10.9514 7.875 11.2498V44.9998C7.875 45.2981 7.99353 45.5843 8.2045 45.7953C8.41548 46.0063 8.70163 46.1248 9 46.1248H41.625C41.6277 46.8843 41.7271 47.6404 41.9209 48.3748H5.625V12.3748ZM6.75 57.3748C5.85489 57.3748 4.99645 57.0192 4.36351 56.3863C3.73058 55.7533 3.375 54.8949 3.375 53.9998V50.6248H42.8423C43.3568 51.5122 44.0183 52.3057 44.7986 52.9715C43.3726 53.1604 42.0031 53.6508 40.7812 54.41C39.5594 55.1692 38.5132 56.1799 37.7122 57.3748H6.75ZM63 68.6248H59.625V64.1248H57.375V68.6248H43.875V64.1248H41.625V68.6248H38.25V62.9998C38.2524 60.9119 39.0828 58.9103 40.5592 57.4339C42.0355 55.9576 44.0372 55.1272 46.125 55.1248H55.125C57.2128 55.1272 59.2145 55.9576 60.6908 57.4339C62.1672 58.9103 62.9976 60.9119 63 62.9998V68.6248ZM68.625 53.9998C68.625 54.8949 68.2694 55.7533 67.6365 56.3863C67.0035 57.0192 66.1451 57.3748 65.25 57.3748H63.5378C62.7367 56.1797 61.6903 55.169 60.4683 54.4098C59.2462 53.6506 57.8765 53.1603 56.4503 52.9715C57.2309 52.3058 57.8929 51.5122 58.4077 50.6248H68.625V53.9998Z" fill="#26ad50"/>
<path d="M37.125 5.625H34.875V7.875H37.125V5.625Z" fill="#26ad50"/>
<path d="M13.5 41.625H33.75C34.0484 41.625 34.3345 41.5065 34.5455 41.2955C34.7565 41.0845 34.875 40.7984 34.875 40.5V36C34.8722 34.1741 34.2359 32.4057 33.0747 30.9967C31.9134 29.5876 30.2992 28.6251 28.5075 28.2735C29.706 27.0227 30.3751 25.3573 30.375 23.625V21.375C30.375 19.5848 29.6638 17.8679 28.398 16.602C27.1321 15.3362 25.4152 14.625 23.625 14.625C21.8348 14.625 20.1179 15.3362 18.852 16.602C17.5862 17.8679 16.875 19.5848 16.875 21.375V23.625C16.8749 25.3573 17.544 27.0227 18.7425 28.2735C16.9508 28.6251 15.3366 29.5876 14.1753 30.9967C13.0141 32.4057 12.3778 34.1741 12.375 36V40.5C12.375 40.7984 12.4935 41.0845 12.7045 41.2955C12.9155 41.5065 13.2016 41.625 13.5 41.625ZM25.875 30.375C25.875 30.9717 25.6379 31.544 25.216 31.966C24.794 32.3879 24.2217 32.625 23.625 32.625C23.0283 32.625 22.456 32.3879 22.034 31.966C21.6121 31.544 21.375 30.9717 21.375 30.375H25.875ZM19.125 21.375C19.125 20.1815 19.5991 19.0369 20.443 18.193C21.2869 17.3491 22.4315 16.875 23.625 16.875C24.8185 16.875 25.9631 17.3491 26.807 18.193C27.6509 19.0369 28.125 20.1815 28.125 21.375V23.625C28.125 24.8185 27.6509 25.9631 26.807 26.807C25.9631 27.6509 24.8185 28.125 23.625 28.125C22.4315 28.125 21.2869 27.6509 20.443 26.807C19.5991 25.9631 19.125 24.8185 19.125 23.625V21.375ZM14.625 36C14.627 34.7021 15.0769 33.4447 15.8989 32.4403C16.7209 31.436 17.8644 30.7461 19.1363 30.4875C19.1625 31.6606 19.647 32.7768 20.4859 33.5972C21.3249 34.4175 22.4516 34.8769 23.625 34.8769C24.7984 34.8769 25.9251 34.4175 26.7641 33.5972C27.603 32.7768 28.0875 31.6606 28.1137 30.4875C29.3856 30.7461 30.5291 31.436 31.3511 32.4403C32.1731 33.4447 32.623 34.7021 32.625 36V39.375H30.375V34.875H28.125V39.375H19.125V34.875H16.875V39.375H14.625V36Z" fill="#26ad50"/>
</svg>
