<svg width="72" height="72" viewBox="0 0 72 72" fill="none" xmlns="http://www.w3.org/2000/svg">
<path d="M18 52.875C18.8951 52.875 19.7536 52.5194 20.3865 51.8865C21.0194 51.2535 21.375 50.3951 21.375 49.5C21.375 48.6049 21.0194 47.7465 20.3865 47.1135C19.7536 46.4806 18.8951 46.125 18 46.125V45C18 43.2098 17.2888 41.4929 16.023 40.227C14.7571 38.9612 13.0402 38.25 11.25 38.25C9.45979 38.25 7.7429 38.9612 6.47703 40.227C5.21116 41.4929 4.5 43.2098 4.5 45V46.125C3.60489 46.125 2.74645 46.4806 2.11351 47.1135C1.48058 47.7465 1.125 48.6049 1.125 49.5C1.125 50.3951 1.48058 51.2535 2.11351 51.8865C2.74645 52.5194 3.60489 52.875 4.5 52.875H4.89375C5.19624 53.7259 5.66639 54.5075 6.27637 55.1734C4.87535 55.2889 3.56868 55.926 2.61479 56.9586C1.66091 57.9912 1.12926 59.3442 1.125 60.75V69.75C1.125 70.0484 1.24353 70.3345 1.4545 70.5455C1.66548 70.7565 1.95163 70.875 2.25 70.875H20.25C20.5484 70.875 20.8345 70.7565 21.0455 70.5455C21.2565 70.3345 21.375 70.0484 21.375 69.75V60.75C21.3707 59.3442 20.8391 57.9912 19.8852 56.9586C18.9313 55.926 17.6247 55.2889 16.2236 55.1734C16.8336 54.5075 17.3038 53.7259 17.6062 52.875H18ZM19.125 49.5C19.125 49.7984 19.0065 50.0845 18.7955 50.2955C18.5845 50.5065 18.2984 50.625 18 50.625V48.375C18.2984 48.375 18.5845 48.4935 18.7955 48.7045C19.0065 48.9155 19.125 49.2016 19.125 49.5ZM12.375 57.375C12.375 57.6734 12.2565 57.9595 12.0455 58.1705C11.8345 58.3815 11.5484 58.5 11.25 58.5C10.9516 58.5 10.6655 58.3815 10.4545 58.1705C10.2435 57.9595 10.125 57.6734 10.125 57.375H12.375ZM11.25 55.125C10.0565 55.125 8.91193 54.6509 8.06802 53.807C7.22411 52.9631 6.75 51.8185 6.75 50.625V48.375H7.6095C8.97095 48.3785 10.2789 47.8454 11.25 46.8911C12.2211 47.8454 13.5291 48.3785 14.8905 48.375H15.75V50.625C15.75 51.8185 15.2759 52.9631 14.432 53.807C13.5881 54.6509 12.4435 55.125 11.25 55.125ZM11.25 40.5C12.4435 40.5 13.5881 40.9741 14.432 41.818C15.2759 42.6619 15.75 43.8065 15.75 45V46.125H14.8905C14.3441 46.1262 13.8084 45.9743 13.3439 45.6866C12.8794 45.3989 12.5048 44.9868 12.2625 44.4971C12.1586 44.3228 12.0111 44.1784 11.8346 44.0781C11.6581 43.9779 11.4586 43.9252 11.2556 43.9252C11.0526 43.9252 10.8531 43.9779 10.6766 44.0781C10.5001 44.1784 10.3527 44.3228 10.2487 44.4971C10.0056 44.9886 9.62925 45.4018 9.1626 45.6896C8.69594 45.9774 8.15778 46.1283 7.6095 46.125H6.75V45C6.75 43.8065 7.22411 42.6619 8.06802 41.818C8.91193 40.9741 10.0565 40.5 11.25 40.5ZM3.375 49.5C3.375 49.2016 3.49353 48.9155 3.7045 48.7045C3.91548 48.4935 4.20163 48.375 4.5 48.375V50.625C4.20163 50.625 3.91548 50.5065 3.7045 50.2955C3.49353 50.0845 3.375 49.7984 3.375 49.5ZM19.125 60.75V68.625H16.875V63H14.625V68.625H7.875V63H5.625V68.625H3.375V60.75C3.375 59.8549 3.73058 58.9965 4.36351 58.3635C4.99645 57.7306 5.85489 57.375 6.75 57.375H7.875C7.875 58.2701 8.23058 59.1285 8.86351 59.7615C9.49645 60.3944 10.3549 60.75 11.25 60.75C12.1451 60.75 13.0036 60.3944 13.6365 59.7615C14.2694 59.1285 14.625 58.2701 14.625 57.375H15.75C16.6451 57.375 17.5036 57.7306 18.1365 58.3635C18.7694 58.9965 19.125 59.8549 19.125 60.75Z" fill="#26ad50"/>
<path d="M69.75 48.3748H47.7158L41.2954 41.9544C41.138 41.7971 40.9376 41.69 40.7194 41.6466C40.5012 41.6032 40.275 41.6255 40.0695 41.7106C39.864 41.7957 39.6883 41.9399 39.5647 42.1249C39.4411 42.3098 39.375 42.5273 39.375 42.7498V48.3748H27C26.7016 48.3748 26.4155 48.4933 26.2045 48.7043C25.9935 48.9152 25.875 49.2014 25.875 49.4998V62.9998C25.875 63.2981 25.9935 63.5843 26.2045 63.7953C26.4155 64.0062 26.7016 64.1248 27 64.1248H69.75C70.0484 64.1248 70.3345 64.0062 70.5455 63.7953C70.7565 63.5843 70.875 63.2981 70.875 62.9998V49.4998C70.875 49.2014 70.7565 48.9152 70.5455 48.7043C70.3345 48.4933 70.0484 48.3748 69.75 48.3748ZM68.625 61.8748H28.125V50.6248H40.5C40.7984 50.6248 41.0845 50.5062 41.2955 50.2953C41.5065 50.0843 41.625 49.7981 41.625 49.4998V45.4655L46.4546 50.2951C46.6656 50.5061 46.9517 50.6247 47.25 50.6248H68.625V61.8748Z" fill="#26ad50"/>
<path d="M34.875 57.375H66.375V59.625H34.875V57.375Z" fill="#26ad50"/>
<path d="M30.375 52.875H61.875V55.125H30.375V52.875Z" fill="#26ad50"/>
<path d="M64.125 52.875H66.375V55.125H64.125V52.875Z" fill="#26ad50"/>
<path d="M30.375 57.375H32.625V59.625H30.375V57.375Z" fill="#26ad50"/>
<path d="M65.7236 18.0484C66.3336 17.3825 66.8038 16.6009 67.1063 15.75H67.5C68.3951 15.75 69.2535 15.3944 69.8865 14.7615C70.5194 14.1286 70.875 13.2701 70.875 12.375C70.875 11.4799 70.5194 10.6214 69.8865 9.98851C69.2535 9.35558 68.3951 9 67.5 9V7.875C67.5 6.08479 66.7888 4.3679 65.523 3.10203C64.2571 1.83616 62.5402 1.125 60.75 1.125C58.9598 1.125 57.2429 1.83616 55.977 3.10203C54.7112 4.3679 54 6.08479 54 7.875V9C53.1049 9 52.2465 9.35558 51.6135 9.98851C50.9806 10.6214 50.625 11.4799 50.625 12.375C50.625 13.2701 50.9806 14.1286 51.6135 14.7615C52.2465 15.3944 53.1049 15.75 54 15.75H54.3937C54.6962 16.6009 55.1664 17.3825 55.7764 18.0484C54.3753 18.1639 53.0687 18.801 52.1148 19.8336C51.1609 20.8662 50.6293 22.2192 50.625 23.625V32.625C50.625 32.9234 50.7435 33.2095 50.9545 33.4205C51.1655 33.6315 51.4516 33.75 51.75 33.75H69.75C70.0484 33.75 70.3345 33.6315 70.5455 33.4205C70.7565 33.2095 70.875 32.9234 70.875 32.625V23.625C70.8707 22.2192 70.3391 20.8662 69.3852 19.8336C68.4313 18.801 67.1247 18.1639 65.7236 18.0484ZM56.25 13.5V11.25H57.1095C58.4709 11.2535 59.7789 10.7204 60.75 9.76612C61.7211 10.7204 63.0291 11.2535 64.3905 11.25H65.25V13.5C65.25 14.6935 64.7759 15.8381 63.932 16.682C63.0881 17.5259 61.9435 18 60.75 18C59.5565 18 58.4119 17.5259 57.568 16.682C56.7241 15.8381 56.25 14.6935 56.25 13.5ZM61.875 20.25C61.875 20.5484 61.7565 20.8345 61.5455 21.0455C61.3345 21.2565 61.0484 21.375 60.75 21.375C60.4516 21.375 60.1655 21.2565 59.9545 21.0455C59.7435 20.8345 59.625 20.5484 59.625 20.25H61.875ZM68.625 12.375C68.625 12.6734 68.5065 12.9595 68.2955 13.1705C68.0845 13.3815 67.7984 13.5 67.5 13.5V11.25C67.7984 11.25 68.0845 11.3685 68.2955 11.5795C68.5065 11.7905 68.625 12.0766 68.625 12.375ZM60.75 3.375C61.9435 3.375 63.0881 3.84911 63.932 4.69302C64.7759 5.53693 65.25 6.68153 65.25 7.875V9H64.3905C63.8441 9.00118 63.3084 8.84932 62.8439 8.5616C62.3794 8.27389 62.0048 7.86183 61.7625 7.37213C61.6586 7.19778 61.5111 7.05341 61.3346 6.95315C61.1581 6.85289 60.9586 6.80019 60.7556 6.80019C60.5526 6.80019 60.3531 6.85289 60.1766 6.95315C60.0001 7.05341 59.8527 7.19778 59.7488 7.37213C59.5056 7.86355 59.1293 8.27675 58.6626 8.56459C58.1959 8.85242 57.6578 9.00329 57.1095 9H56.25V7.875C56.25 6.68153 56.7241 5.53693 57.568 4.69302C58.4119 3.84911 59.5565 3.375 60.75 3.375ZM52.875 12.375C52.875 12.0766 52.9935 11.7905 53.2045 11.5795C53.4155 11.3685 53.7016 11.25 54 11.25V13.5C53.7016 13.5 53.4155 13.3815 53.2045 13.1705C52.9935 12.9595 52.875 12.6734 52.875 12.375ZM68.625 31.5H66.375V25.875H64.125V31.5H57.375V25.875H55.125V31.5H52.875V23.625C52.875 22.7299 53.2306 21.8714 53.8635 21.2385C54.4965 20.6056 55.3549 20.25 56.25 20.25H57.375C57.375 21.1451 57.7306 22.0036 58.3635 22.6365C58.9965 23.2694 59.8549 23.625 60.75 23.625C61.6451 23.625 62.5035 23.2694 63.1365 22.6365C63.7694 22.0036 64.125 21.1451 64.125 20.25H65.25C66.1451 20.25 67.0035 20.6056 67.6365 21.2385C68.2694 21.8714 68.625 22.7299 68.625 23.625V31.5Z" fill="#26ad50"/>
<path d="M31.5 30.375C31.7984 30.375 32.0845 30.2565 32.2955 30.0455C32.5065 29.8345 32.625 29.5484 32.625 29.25V23.625H45C45.2984 23.625 45.5845 23.5065 45.7955 23.2955C46.0065 23.0845 46.125 22.7984 46.125 22.5V9C46.125 8.70163 46.0065 8.41548 45.7955 8.20451C45.5845 7.99353 45.2984 7.875 45 7.875H2.25C1.95163 7.875 1.66548 7.99353 1.4545 8.20451C1.24353 8.41548 1.125 8.70163 1.125 9V22.5C1.125 22.7984 1.24353 23.0845 1.4545 23.2955C1.66548 23.5065 1.95163 23.625 2.25 23.625H24.2843L30.7046 30.0454C30.9156 30.2564 31.2017 30.3749 31.5 30.375ZM30.375 22.5V26.5343L25.5454 21.7046C25.3344 21.4936 25.0483 21.3751 24.75 21.375H3.375V10.125H43.875V21.375H31.5C31.2016 21.375 30.9155 21.4935 30.7045 21.7045C30.4935 21.9155 30.375 22.2016 30.375 22.5Z" fill="#26ad50"/>
<path d="M5.625 12.375H37.125V14.625H5.625V12.375Z" fill="#26ad50"/>
<path d="M10.125 16.875H41.625V19.125H10.125V16.875Z" fill="#26ad50"/>
<path d="M5.625 16.875H7.875V19.125H5.625V16.875Z" fill="#26ad50"/>
<path d="M39.375 12.375H41.625V14.625H39.375V12.375Z" fill="#26ad50"/>
</svg>
