<svg width="72" height="64" viewBox="0 0 72 64" fill="none" xmlns="http://www.w3.org/2000/svg">
<path d="M69.1919 31.2311C68.9639 31.0032 68.7119 30.8232 68.4719 30.6072C71.681 27.2571 71.5668 21.9396 68.2165 18.7306C64.8663 15.5215 59.549 15.6357 56.3399 18.9859C53.2279 22.2346 53.2279 27.3585 56.3399 30.6072C54.9912 31.7166 53.9705 33.1727 53.3879 34.8192C51.4211 32.1404 48.8627 29.9517 45.9118 28.4231C52.5648 22.9489 53.5204 13.1178 48.0461 6.46482C42.5719 -0.188147 32.7408 -1.14369 26.0878 4.33056C19.4348 9.80481 18.4793 19.6359 23.9535 26.2889C24.5944 27.0677 25.309 27.7823 26.0878 28.4231C23.1494 29.9444 20.5999 32.1203 18.6358 34.7832C18.1656 33.4308 17.3989 32.2009 16.3918 31.1832C16.1639 30.9552 15.9238 30.7512 15.6718 30.5592C18.8809 27.2091 18.7666 21.8917 15.4165 18.6826C12.0664 15.4735 6.74891 15.5877 3.53985 18.938C0.427817 22.1867 0.427817 27.3105 3.53985 30.5592C1.29505 32.3862 -0.00558917 35.1287 -0.000104795 38.0232V50.0231C-0.000104795 50.6859 0.537083 51.2231 1.19985 51.2231H14.3999V62.0231C14.3999 62.6859 14.9371 63.223 15.5998 63.223H56.3998C57.0626 63.223 57.5998 62.6859 57.5998 62.0231V51.2231H70.7998C71.4626 51.2231 71.9998 50.6859 71.9998 50.0231V38.0232C72.0019 35.4763 70.9918 33.0331 69.1919 31.2311ZM57.458 21.3889C58.5847 19.7747 60.4314 18.8159 62.3998 18.8231C65.7135 18.8176 68.4043 21.4996 68.4097 24.8133C68.413 26.7775 67.4546 28.6189 65.8439 29.7432C64.3059 30.798 62.3709 31.094 60.5879 30.5471C60.2955 30.4576 60.0106 30.3452 59.7358 30.2112C59.4592 30.0774 59.1943 29.9209 58.9439 29.7432C56.2267 27.8466 55.5614 24.1062 57.458 21.3889ZM22.7998 16.4232C22.7737 9.13304 28.6622 3.20204 35.9524 3.17588C43.2425 3.14973 49.1735 9.03826 49.1997 16.3284C49.2157 20.8104 46.9564 24.9944 43.1999 27.4392L42.8399 27.6432C39.1693 29.8765 34.6457 30.1982 30.6959 28.5072C30.2849 28.3255 29.8843 28.1214 29.496 27.8952C29.316 27.7872 29.124 27.7152 28.944 27.5953C28.8393 27.5435 28.739 27.4833 28.6441 27.4153C24.9819 24.9574 22.7893 20.8333 22.7998 16.4232ZM4.65796 21.3889C5.78465 19.7747 7.63133 18.8159 9.5998 18.8231C12.9135 18.8176 15.6042 21.4996 15.6097 24.8133C15.6129 26.7775 14.6546 28.6189 13.0438 29.7432C11.5058 30.798 9.57083 31.094 7.78785 30.5471C7.49549 30.4576 7.21058 30.3452 6.9358 30.2112C6.65919 30.0774 6.39425 29.9209 6.1438 29.7432C3.42664 27.8466 2.76135 24.1062 4.65796 21.3889ZM16.2959 38.8031C16.1999 39.0191 16.1159 39.2351 16.032 39.4511C15.948 39.6671 15.876 39.8111 15.804 40.003C15.732 40.195 15.6 40.4231 15.6 40.6751C15.6 40.9271 15.4679 41.047 15.408 41.227C15.348 41.407 15.276 41.6831 15.2161 41.923C15.156 42.163 15.1081 42.2949 15.0601 42.487C15.0122 42.679 14.9521 42.955 14.9042 43.1951C14.8562 43.4351 14.8202 43.567 14.7842 43.7591C14.7482 43.9511 14.7003 44.2631 14.6643 44.5151C14.6283 44.7671 14.6643 44.8632 14.5803 45.0432C14.4964 45.2232 14.5803 45.6192 14.4964 45.9072C14.4124 46.1952 14.4964 46.1952 14.4964 46.3392C14.4964 46.7712 14.4964 47.2032 14.4964 47.6352V48.8351L2.40036 48.8232V38.0232C2.39994 35.678 3.54168 33.4796 5.46036 32.1311L5.68832 32.2391L6.14436 32.4551L6.72036 32.6831L7.34432 32.8871L7.71627 32.9711C8.33277 33.1261 8.96474 33.2107 9.60022 33.2231C10.2392 33.2155 10.8754 33.1349 11.4963 32.983L11.8682 32.8991L12.4922 32.695L13.0682 32.4671L13.5242 32.2511L13.7522 32.1431C15.5821 33.4319 16.7087 35.4987 16.8002 37.735C16.7042 37.915 16.6322 38.095 16.5482 38.2631L16.2959 38.8031ZM55.1998 60.8231H16.7999V47.6231C16.7874 44.4701 17.563 41.3641 19.056 38.5871V38.491C21.1053 34.7043 24.3681 31.7163 28.3199 30.007H28.4279C28.9744 30.314 29.5396 30.5865 30.1199 30.823C31.9822 31.6049 33.9802 32.0126 35.9999 32.023C38.631 32.032 41.2193 31.358 43.5119 30.067L43.6319 30.007C47.5794 31.7184 50.8377 34.7063 52.8839 38.491V38.5871C54.3977 41.3587 55.1939 44.4651 55.1998 47.6231V60.8231ZM69.5999 48.8232H57.5999V47.6232C57.5999 47.1912 57.5999 46.7592 57.5999 46.3272C57.5999 46.1832 57.5999 46.0512 57.5999 45.9072C57.5999 45.7632 57.5999 45.3192 57.5159 45.0312C57.432 44.7432 57.5159 44.6832 57.4439 44.5153C57.3719 44.3472 57.3719 43.9993 57.324 43.7473C57.276 43.4953 57.252 43.3754 57.204 43.1954C57.1561 43.0154 57.108 42.7154 57.0481 42.4754C56.988 42.2353 56.9401 42.1034 56.8921 41.9113C56.8442 41.7194 56.7722 41.4553 56.7002 41.2273C56.6282 40.9994 56.5681 40.8554 56.5082 40.6633C56.4482 40.4713 56.3642 40.2193 56.2803 40.0033C56.1963 39.7873 56.1243 39.6314 56.0523 39.4393C55.9803 39.2473 55.8843 39.0192 55.7884 38.8032C55.6925 38.5872 55.6084 38.4313 55.5244 38.2513C55.4405 38.0713 55.3685 37.9032 55.2724 37.7353C55.3603 35.4946 56.4871 33.4228 58.3205 32.1313L58.5484 32.2393L59.0045 32.4553L59.5805 32.6832L60.2044 32.8873L60.5764 32.9712C61.8205 33.2882 63.1242 33.2882 64.3683 32.9712L64.7403 32.8873L65.3523 32.6832L65.9283 32.4553L66.3843 32.2393L66.6123 32.1313C68.5037 33.4955 69.6173 35.6912 69.6003 38.0233V48.8232H69.5999Z" fill="#26ad50"/>
</svg>
