<svg width="72" height="72" viewBox="0 0 72 72" fill="none" xmlns="http://www.w3.org/2000/svg">
<path d="M58.5097 23.9625L45.0608 13.9422C44.2988 13.2941 43.3309 12.9377 42.3283 12.9377H42.3122C42.772 12.0034 43.0313 10.9535 43.0313 9.84385V7.03122C43.0313 3.15421 39.8771 0 36.0001 0C32.1231 0 28.9689 3.15421 28.9689 7.03122V9.84385C28.9689 10.9535 29.2282 12.0034 29.688 12.9377H29.6719C28.6695 12.9377 27.7016 13.2939 26.9395 13.9422L13.4931 23.9607C12.1606 24.9487 11.533 26.6278 11.8883 28.2465L13.9988 39.8243C14.1973 40.9306 14.8145 41.8934 15.737 42.5354C16.6594 43.1773 17.7766 43.422 18.883 43.2235C19.0096 43.2008 19.134 43.172 19.2565 43.1385L25.4531 49.6039V67.7813C25.4531 70.1075 27.3456 72 29.6719 72C31.9981 72 33.8906 70.1075 33.8906 67.7813V41.6561H38.1096V67.7813C38.1096 70.1075 40.0021 72 42.3283 72C44.6546 72 46.5471 70.1075 46.5471 67.7813V49.604L52.7437 43.1384C52.8662 43.1718 52.9905 43.2007 53.1171 43.2233C54.2236 43.4217 55.3408 43.1773 56.2632 42.5352C57.1859 41.8933 57.8031 40.9303 58.0007 39.8282L60.112 28.2465C60.4672 26.6277 59.8396 24.9486 58.5097 23.9625ZM31.7814 7.03122C31.7814 4.70501 33.6739 2.81249 36.0001 2.81249C38.3263 2.81249 40.2188 4.70501 40.2188 7.03122V9.84385C40.2188 12.1701 38.3263 14.0626 36.0001 14.0626C33.6739 14.0626 31.7814 12.1701 31.7814 9.84385V7.03122ZM25.4531 38.8436H22.3407C22.3308 38.6744 22.312 38.5047 22.2816 38.3351L20.6089 29.1592L25.4531 25.5498V38.8436ZM21.7316 41.6561H25.4531V45.5391L21.7316 41.6561ZM43.7346 67.7813C43.7346 68.5567 43.1037 69.1875 42.3283 69.1875C41.5529 69.1875 40.9221 68.5567 40.9221 67.7813V40.2498C40.9221 39.4731 40.2925 38.8436 39.5159 38.8436H32.4843C31.7077 38.8436 31.0781 39.4731 31.0781 40.2498V67.7813C31.0781 68.5567 30.4473 69.1875 29.6719 69.1875C28.8965 69.1875 28.2656 68.5567 28.2656 67.7813V36.0308H43.7344V67.7813H43.7346ZM49.7179 38.339C49.6878 38.5072 49.6691 38.6755 49.6592 38.8434H46.5472V25.5496L51.3914 29.1589L49.7179 38.339ZM46.5471 45.5391V41.6559H50.2686L46.5471 45.5391ZM57.3622 27.6545C57.3577 27.6746 57.3535 27.6947 57.3498 27.7148L55.2329 39.3277C55.1672 39.6945 54.9625 40.0138 54.6566 40.2267C54.3508 40.4398 53.9799 40.5207 53.6133 40.4548C53.2466 40.3892 52.9274 40.1844 52.7144 39.8786C52.5015 39.5727 52.4205 39.2022 52.4855 38.8393L54.3148 28.8049C54.4107 28.2792 54.2001 27.7444 53.7715 27.425L45.9811 21.6206C45.5545 21.3029 44.9854 21.2529 44.51 21.4915C44.0347 21.73 43.7346 22.2164 43.7346 22.7483V33.2183H37.4063V31.3743C37.4063 30.5976 36.7768 29.9681 36.0001 29.9681C35.2234 29.9681 34.5939 30.5976 34.5939 31.3743V33.2183H28.2658V22.7483C28.2658 22.2164 27.9657 21.73 27.4903 21.4915C27.015 21.2529 26.4458 21.3028 26.0193 21.6206L18.2288 27.425C17.8002 27.7444 17.5897 28.279 17.6856 28.8049L19.514 38.8354C19.5798 39.2022 19.4988 39.5727 19.2858 39.8786C19.0728 40.1844 18.7536 40.3892 18.3867 40.4548C18.0199 40.5208 17.6494 40.4397 17.3436 40.2267C17.0377 40.0138 16.833 39.6946 16.7665 39.3238L14.6502 27.715C14.6466 27.6947 14.6423 27.6746 14.6378 27.6546C14.5145 27.1134 14.7226 26.5503 15.1708 26.218L28.6598 16.1677C28.6895 16.1457 28.7183 16.1223 28.7461 16.098C29.0022 15.8737 29.3308 15.7502 29.6719 15.7502H32.1927C32.914 16.2167 33.7244 16.5563 34.5939 16.7335V18.7181C34.5939 19.4948 35.2234 20.1243 36.0001 20.1243C36.7768 20.1243 37.4063 19.4948 37.4063 18.7181V16.7335C38.2758 16.5563 39.0864 16.2167 39.8076 15.7502H42.3283C42.6692 15.7502 42.998 15.8737 43.2539 16.0978C43.2818 16.1222 43.3106 16.1455 43.3403 16.1677L56.8319 26.22C57.2774 26.5502 57.4857 27.1134 57.3622 27.6545Z" fill="#26ad50"/>
<path d="M36.0002 23.6401C35.2236 23.6401 34.594 24.2701 34.594 25.0468C34.594 25.8235 35.2236 26.4531 36.0002 26.4531C36.7769 26.4531 37.4065 25.8235 37.4065 25.0468V25.0458C37.4065 24.2692 36.7769 23.6401 36.0002 23.6401Z" fill="#26ad50"/>
</svg>
