<svg width="72" height="72" viewBox="0 0 72 72" fill="none" xmlns="http://www.w3.org/2000/svg">
<path d="M28.8 9.00449H23.9172C23.2641 3.74834 18.4736 0.01679 13.2174 0.66989C8.8584 1.21154 5.4246 4.64534 4.8828 9.00449H0V71.4045H72V9.00449H28.8ZM28.8 28.2045H45.6V37.8045H28.8V28.2045ZM45.6 40.2045V51.0045H41.4C38.4177 51.0045 36 48.5868 36 45.6045C36 42.6222 38.4177 40.2045 41.4 40.2045H45.6ZM28.8 51.0045V40.2045H35.7852C32.7975 43.3005 32.8854 48.2323 35.9816 51.22C37.436 52.6236 39.3789 53.4067 41.4 53.4045H45.6V64.2045H28.8V51.0045ZM7.2 10.2045C7.20465 6.22994 10.4255 3.00914 14.4 3.00449C18.3745 3.00914 21.5954 6.22994 21.6 10.2045V10.3245C21.6053 12.2352 20.8461 14.0685 19.4916 15.4161L14.4 20.5077L9.3084 15.4161C7.9539 14.0685 7.19475 12.2352 7.2 10.3245V10.2045ZM2.4 11.4045H4.8648C5.1024 13.5649 6.07155 15.5791 7.6116 17.1129L14.4 23.9013L21.1884 17.1129C22.7285 15.5791 23.6976 13.5649 23.9352 11.4045H26.4V25.8045H2.4V11.4045ZM26.4 28.2045V51.0045H19.2C17.2118 51.0045 15.6 49.3927 15.6 47.4045V28.2045H26.4ZM2.4 28.2045H13.2V43.8045H2.4V28.2045ZM14.82 69.0045H2.4V46.2045H13.2V47.4045C13.2039 50.7165 15.888 53.4006 19.2 53.4045H26.4V64.2045H21.6C18.5519 64.2079 15.8361 66.1306 14.82 69.0045ZM69.6 69.0045H17.4672C18.318 67.5244 19.8929 66.6099 21.6 66.6045H52.2C56.5056 66.5992 59.9948 63.1101 60 58.8045C60 58.6017 59.9844 58.4037 59.97 58.2045H60C60 55.5535 62.1491 53.4045 64.8 53.4045H69.6V69.0045ZM48 64.2045V53.4045H52.2C55.1823 53.4045 57.6 55.8222 57.6 58.8045C57.6 61.7868 55.1823 64.2045 52.2 64.2045H48ZM69.6 51.0045H64.8C62.2961 51.0084 59.9739 52.3131 58.668 54.4497C57.2193 52.2969 54.7949 51.0055 52.2 51.0045H48V40.2045H61.2V37.8045H48V28.2045H69.6V51.0045ZM69.6 25.8045H48V18.6045H45.6V25.8045H28.8V11.4045H69.6V25.8045Z" fill="#26ad50"/>
<path d="M14.4 5.4043C11.749 5.4043 9.59998 7.55335 9.59998 10.2043C9.59998 12.8552 11.749 15.0043 14.4 15.0043C17.0509 15.0043 19.2 12.8552 19.2 10.2043C19.2 7.55335 17.0509 5.4043 14.4 5.4043ZM14.4 12.6043C13.0744 12.6043 12 11.5298 12 10.2043C12 8.87875 13.0744 7.8043 14.4 7.8043C15.7255 7.8043 16.8 8.87875 16.8 10.2043C16.8 11.5298 15.7255 12.6043 14.4 12.6043Z" fill="#26ad50"/>
</svg>
