<svg width="73" height="72" viewBox="0 0 73 72" fill="none" xmlns="http://www.w3.org/2000/svg">
<path d="M66.0356 6.75H7.68999C6.20263 6.75179 4.7767 7.34499 3.72498 8.3995C2.67326 9.454 2.08162 10.8837 2.07983 12.375V59.625C2.08162 61.1163 2.67326 62.546 3.72498 63.6005C4.7767 64.655 6.20263 65.2482 7.68999 65.25H66.0356C67.523 65.2482 68.9489 64.655 70.0006 63.6005C71.0524 62.546 71.644 61.1163 71.6458 59.625V12.375C71.644 10.8837 71.0524 9.454 70.0006 8.3995C68.9489 7.34499 67.523 6.75179 66.0356 6.75ZM7.68999 9H66.0356C66.9284 9 67.7846 9.35558 68.4158 9.98851C69.0471 10.6214 69.4017 11.4799 69.4017 12.375V20.25H4.3239V12.375C4.3239 11.4799 4.67854 10.6214 5.3098 9.98851C5.94107 9.35558 6.79725 9 7.68999 9ZM66.0356 63H7.68999C6.79725 63 5.94107 62.6444 5.3098 62.0115C4.67854 61.3785 4.3239 60.5201 4.3239 59.625V22.5H69.4017V59.625C69.4017 60.5201 69.0471 61.3785 68.4158 62.0115C67.7846 62.6444 66.9284 63 66.0356 63Z" fill="#26ad50"/>
<path d="M9.93396 18C10.5997 18 11.2505 17.8021 11.8041 17.4312C12.3576 17.0604 12.7891 16.5333 13.0438 15.9166C13.2986 15.2999 13.3653 14.6213 13.2354 13.9666C13.1055 13.3119 12.7849 12.7105 12.3142 12.2385C11.8434 11.7665 11.2436 11.4451 10.5907 11.3149C9.9377 11.1846 9.26089 11.2515 8.64582 11.5069C8.03074 11.7624 7.50503 12.1949 7.13516 12.75C6.76529 13.305 6.56787 13.9575 6.56787 14.625C6.56787 15.5201 6.92251 16.3786 7.55378 17.0115C8.18504 17.6444 9.04122 18 9.93396 18ZM9.93396 13.5C10.1559 13.5 10.3728 13.566 10.5573 13.6896C10.7418 13.8132 10.8857 13.9889 10.9706 14.1945C11.0555 14.4 11.0777 14.6262 11.0344 14.8445C10.9911 15.0627 10.8843 15.2632 10.7274 15.4205C10.5704 15.5778 10.3705 15.685 10.1529 15.7284C9.93521 15.7718 9.70961 15.7495 9.50458 15.6644C9.29956 15.5792 9.12432 15.435 9.00103 15.25C8.87774 15.065 8.81193 14.8475 8.81193 14.625C8.81193 14.3266 8.93015 14.0405 9.14057 13.8295C9.35099 13.6185 9.63638 13.5 9.93396 13.5Z" fill="#26ad50"/>
<path d="M17.7882 18C18.454 18 19.1048 17.8021 19.6583 17.4312C20.2119 17.0604 20.6433 16.5333 20.8981 15.9166C21.1528 15.2999 21.2195 14.6213 21.0896 13.9666C20.9597 13.3119 20.6392 12.7105 20.1684 12.2385C19.6976 11.7665 19.0979 11.4451 18.4449 11.3149C17.7919 11.1846 17.1151 11.2515 16.5001 11.5069C15.885 11.7624 15.3593 12.1949 14.9894 12.75C14.6195 13.305 14.4221 13.9575 14.4221 14.625C14.4221 15.5201 14.7768 16.3786 15.408 17.0115C16.0393 17.6444 16.8955 18 17.7882 18ZM17.7882 13.5C18.0101 13.5 18.2271 13.566 18.4116 13.6896C18.5961 13.8132 18.7399 13.9889 18.8248 14.1945C18.9098 14.4 18.932 14.6262 18.8887 14.8445C18.8454 15.0627 18.7385 15.2632 18.5816 15.4205C18.4247 15.5778 18.2248 15.685 18.0071 15.7284C17.7895 15.7718 17.5639 15.7495 17.3588 15.6644C17.1538 15.5792 16.9786 15.435 16.8553 15.25C16.732 15.065 16.6662 14.8475 16.6662 14.625C16.6662 14.3266 16.7844 14.0405 16.9948 13.8295C17.2052 13.6185 17.4906 13.5 17.7882 13.5Z" fill="#26ad50"/>
<path d="M25.6425 18C26.3082 18 26.959 17.8021 27.5126 17.4312C28.0661 17.0604 28.4976 16.5333 28.7523 15.9166C29.0071 15.2999 29.0738 14.6213 28.9439 13.9666C28.814 13.3119 28.4934 12.7105 28.0226 12.2385C27.5519 11.7665 26.9521 11.4451 26.2992 11.3149C25.6462 11.1846 24.9694 11.2515 24.3543 11.5069C23.7392 11.7624 23.2135 12.1949 22.8437 12.75C22.4738 13.305 22.2764 13.9575 22.2764 14.625C22.2764 15.5201 22.631 16.3786 23.2623 17.0115C23.8935 17.6444 24.7497 18 25.6425 18ZM25.6425 13.5C25.8644 13.5 26.0813 13.566 26.2658 13.6896C26.4503 13.8132 26.5942 13.9889 26.6791 14.1945C26.764 14.4 26.7862 14.6262 26.7429 14.8445C26.6996 15.0627 26.5928 15.2632 26.4359 15.4205C26.2789 15.5778 26.079 15.685 25.8614 15.7284C25.6437 15.7718 25.4181 15.7495 25.2131 15.6644C25.0081 15.5792 24.8328 15.435 24.7095 15.25C24.5862 15.065 24.5204 14.8475 24.5204 14.625C24.5204 14.3266 24.6386 14.0405 24.8491 13.8295C25.0595 13.6185 25.3449 13.5 25.6425 13.5Z" fill="#26ad50"/>
<path d="M63.7915 18C64.2914 17.9981 64.7843 17.8827 65.2333 17.6625L66.3643 18.7965L67.9509 17.2058L66.821 16.0706C67.0406 15.6204 67.1557 15.1262 67.1576 14.625C67.1576 13.9575 66.9602 13.305 66.5903 12.75C66.2205 12.1949 65.6947 11.7624 65.0797 11.5069C64.4646 11.2515 63.7878 11.1846 63.1348 11.3149C62.4819 11.4451 61.8821 11.7665 61.4113 12.2385C60.9406 12.7105 60.62 13.3119 60.4901 13.9666C60.3602 14.6213 60.4269 15.2999 60.6816 15.9166C60.9364 16.5333 61.3679 17.0604 61.9214 17.4312C62.475 17.8021 63.1258 18 63.7915 18ZM63.7915 13.5C64.0134 13.5 64.2304 13.566 64.4149 13.6896C64.5994 13.8132 64.7432 13.9889 64.8281 14.1945C64.9131 14.4001 64.9353 14.6263 64.892 14.8445C64.8487 15.0627 64.7418 15.2632 64.5849 15.4205C64.428 15.5778 64.2281 15.685 64.0104 15.7284C63.7928 15.7718 63.5672 15.7495 63.3621 15.6644C63.1571 15.5792 62.9819 15.435 62.8586 15.25C62.7353 15.065 62.6695 14.8475 62.6695 14.625C62.6695 14.3266 62.7877 14.0405 62.9981 13.8295C63.2085 13.6185 63.4939 13.5 63.7915 13.5Z" fill="#26ad50"/>
<path d="M34.6187 18H54.8152C55.708 18 56.5641 17.6444 57.1954 17.0115C57.8267 16.3786 58.1813 15.5201 58.1813 14.625C58.1813 13.7299 57.8267 12.8714 57.1954 12.2385C56.5641 11.6056 55.708 11.25 54.8152 11.25H34.6187C33.7259 11.25 32.8697 11.6056 32.2385 12.2385C31.6072 12.8714 31.2526 13.7299 31.2526 14.625C31.2526 15.5201 31.6072 16.3786 32.2385 17.0115C32.8697 17.6444 33.7259 18 34.6187 18ZM34.6187 13.5H54.8152C55.1128 13.5 55.3982 13.6185 55.6086 13.8295C55.819 14.0405 55.9373 14.3266 55.9373 14.625C55.9373 14.9234 55.819 15.2095 55.6086 15.4205C55.3982 15.6315 55.1128 15.75 54.8152 15.75H34.6187C34.3211 15.75 34.0357 15.6315 33.8253 15.4205C33.6148 15.2095 33.4966 14.9234 33.4966 14.625C33.4966 14.3266 33.6148 14.0405 33.8253 13.8295C34.0357 13.6185 34.3211 13.5 34.6187 13.5Z" fill="#26ad50"/>
<path d="M48.4119 29.5793L47.1339 30.8606C44.1377 28.2458 40.2636 26.8683 36.2938 27.006C32.3239 27.1437 28.5541 28.7865 25.7453 31.6027C22.9366 34.4189 21.2981 38.1988 21.1607 42.1791C21.0233 46.1594 22.3973 50.0437 25.0052 53.0479L22.9339 55.1246H8.81201V57.3746H23.3984C23.696 57.3746 23.9813 57.256 24.1917 57.045L26.5917 54.6386C29.2379 56.9527 32.5842 58.306 36.0911 58.4805C39.5981 58.655 43.0615 57.6405 45.9232 55.6005L46.9947 59.8969C47.0502 60.1201 47.1725 60.3208 47.3453 60.4721C47.518 60.6235 47.7329 60.7181 47.9609 60.7432C48.1889 60.7683 48.4191 60.7228 48.6205 60.6127C48.8219 60.5026 48.9849 60.3333 49.0873 60.1275L51.1642 55.965L55.3157 53.8826C55.521 53.7799 55.6898 53.6165 55.7996 53.4146C55.9094 53.2127 55.9549 52.9818 55.9298 52.7532C55.9047 52.5246 55.8104 52.3092 55.6595 52.136C55.5085 51.9628 55.3083 51.8401 55.0857 51.7845L50.4596 50.6246C52.0983 47.7928 52.8117 44.5176 52.4998 41.2586C52.1879 37.9996 50.8663 34.9203 48.7204 32.4525L49.6697 31.4996H64.9136V29.2496H49.2052C48.9076 29.2497 48.6222 29.3683 48.4119 29.5793ZM28.1772 32.4503C30.3095 30.6369 32.9542 29.5378 35.7408 29.307V40.0339L28.1772 32.4503ZM49.8256 54.1178C49.608 54.2267 49.4316 54.4036 49.323 54.6218L48.4354 56.4015L47.3819 52.1704L51.6007 53.2268L49.8256 54.1178ZM46.1106 49.5334C45.9227 49.4865 45.726 49.4891 45.5395 49.541C45.3529 49.5929 45.183 49.6923 45.0461 49.8296C44.9092 49.9668 44.8101 50.1372 44.7583 50.3242C44.7065 50.5113 44.7039 50.7085 44.7507 50.8969L45.3319 53.2268C42.9026 55.2122 39.8564 56.2815 36.7225 56.2491C33.5885 56.2166 30.565 55.0843 28.1772 53.049L32.0459 49.17L30.4594 47.5793L26.5906 51.4583C24.5299 49.027 23.3985 45.9403 23.3985 42.7496C23.3985 39.559 24.5299 36.4723 26.5906 34.041L36.0684 43.5439C36.1724 43.649 36.2962 43.7324 36.4325 43.7891C36.5689 43.8459 36.7151 43.875 36.8628 43.8746H50.2789C50.0993 46.0761 49.378 48.1986 48.1796 50.052L46.1106 49.5334ZM50.27 41.6246H37.9848V29.307C40.7711 29.5376 43.4155 30.6367 45.5473 32.4503L42.8006 35.2043L44.3883 36.795L47.135 34.041C48.9436 36.179 50.0398 38.8307 50.27 41.6246Z" fill="#26ad50"/>
<path d="M8.81201 50.625H14.4222V52.875H8.81201V50.625Z" fill="#26ad50"/>
<path d="M50.3271 24.75H60.4254V27H50.3271V24.75Z" fill="#26ad50"/>
<path d="M62.6696 24.75H64.9136V27H62.6696V24.75Z" fill="#26ad50"/>
<path d="M16.6663 50.625H18.9103V52.875H16.6663V50.625Z" fill="#26ad50"/>
</svg>
