<svg width="66" height="70" viewBox="0 0 66 70" fill="none" xmlns="http://www.w3.org/2000/svg">
<path d="M56.6756 16.7547C59.2148 15.1629 60.9136 12.3425 60.9136 9.125C60.9136 4.16263 56.8866 0.125 51.9373 0.125C46.988 0.125 42.961 4.16263 42.961 9.125C42.961 12.3369 44.6531 15.1528 47.1855 16.7458C44.3109 17.8359 41.857 19.9002 40.285 22.6216C39.4525 22.067 38.5503 21.6136 37.6011 21.2536C40.1403 19.6629 41.839 16.8425 41.839 13.625C41.839 8.66263 37.812 4.625 32.8628 4.625C27.9135 4.625 23.8865 8.66263 23.8865 13.625C23.8865 16.8425 25.5853 19.6629 28.1244 21.2547C27.1752 21.6136 26.2731 22.0681 25.4405 22.6227C23.8686 19.9014 21.4158 17.837 18.5412 16.7469C21.0725 15.1539 22.7645 12.3369 22.7645 9.125C22.7645 4.16263 18.7375 0.125 13.7882 0.125C8.83895 0.125 4.81198 4.16263 4.81198 9.125C4.81198 12.3425 6.51073 15.1629 9.04989 16.7547C3.95923 18.683 0.323853 23.6049 0.323853 29.375V38.375C0.323853 40.8568 2.33678 42.875 4.81198 42.875H5.93401V60.875C5.93401 63.3568 7.94693 65.375 10.4221 65.375C11.7697 65.375 12.9647 64.7653 13.7882 63.8203C14.6118 64.7653 15.8068 65.375 17.1543 65.375C19.6295 65.375 21.6425 63.3568 21.6425 60.875V46.7495C22.3056 47.1365 23.0652 47.375 23.8865 47.375H25.0085V65.375C25.0085 67.8568 27.0215 69.875 29.4967 69.875C30.8442 69.875 32.0392 69.2653 32.8628 68.3203C33.6863 69.2653 34.8813 69.875 36.2289 69.875C38.7041 69.875 40.717 67.8568 40.717 65.375V47.375H41.839C42.6603 47.375 43.42 47.1365 44.0831 46.7495V60.875C44.0831 63.3568 46.096 65.375 48.5712 65.375C49.9188 65.375 51.1137 64.7653 51.9373 63.8203C52.7609 64.7653 53.9558 65.375 55.3034 65.375C57.7786 65.375 59.7915 63.3568 59.7915 60.875V42.875H60.9136C63.3888 42.875 65.4017 40.8568 65.4017 38.375V29.375C65.4017 23.6049 61.7663 18.683 56.6756 16.7547ZM49.5182 18.4197C50.3059 18.2442 51.1104 18.125 51.9373 18.125C52.7732 18.125 53.5856 18.224 54.371 18.3995L51.9373 21.815L49.5182 18.4197ZM50.4708 23.6285L49.0043 25.0989L46.8455 19.3794C46.9914 19.3051 47.1294 19.2163 47.2786 19.1476L50.4708 23.6285ZM53.4027 23.6285L56.5915 19.1521C56.7407 19.2208 56.8877 19.2916 57.0336 19.3659L54.868 25.0989L53.4027 23.6285ZM45.2051 9.125C45.2051 5.40238 48.2245 2.375 51.9373 2.375C55.6501 2.375 58.6695 5.40238 58.6695 9.125C58.6695 12.8476 55.6501 15.875 51.9373 15.875C48.2245 15.875 45.2051 12.8476 45.2051 9.125ZM33.9601 31.3224L32.8628 32.9716L31.7654 31.3224L32.4027 22.6475C32.5564 22.6419 32.7079 22.625 32.8628 22.625C33.0176 22.625 33.1691 22.6419 33.3228 22.6486L33.9601 31.3224ZM26.1306 13.625C26.1306 9.90238 29.15 6.875 32.8628 6.875C36.5756 6.875 39.595 9.90238 39.595 13.625C39.595 17.3476 36.5756 20.375 32.8628 20.375C29.15 20.375 26.1306 17.3476 26.1306 13.625ZM13.7882 18.125C14.485 18.125 15.165 18.2116 15.8337 18.3365C15.4814 19.5301 14.6847 20.375 13.7882 20.375C12.8884 20.375 12.0884 19.5234 11.7383 18.3219C12.4036 18.1981 13.087 18.125 13.7882 18.125ZM7.05604 9.125C7.05604 5.40238 10.0754 2.375 13.7882 2.375C17.501 2.375 20.5204 5.40238 20.5204 9.125C20.5204 12.8476 17.501 15.875 13.7882 15.875C10.0754 15.875 7.05604 12.8476 7.05604 9.125ZM19.3984 60.875C19.3984 62.1159 18.3919 63.125 17.1543 63.125C15.9167 63.125 14.9103 62.1159 14.9103 60.875V37.25H12.6662V60.875C12.6662 62.1159 11.6597 63.125 10.4221 63.125C9.18454 63.125 8.17807 62.1159 8.17807 60.875V24.875H5.93401V40.625H4.81198C3.57438 40.625 2.56792 39.6159 2.56792 38.375V29.375C2.56792 24.6601 5.47959 20.6203 9.59183 18.9496C10.2235 21.113 11.8583 22.625 13.7882 22.625C15.7125 22.625 17.3417 21.122 17.979 18.9688C20.3746 19.9408 22.3886 21.7216 23.6464 24.0605C21.0377 26.5231 19.3984 30.0072 19.3984 33.875V37.3108V42.875V60.875ZM41.839 45.125H40.717V29.375H38.4729V65.375C38.4729 66.6159 37.4665 67.625 36.2289 67.625C34.9913 67.625 33.9848 66.6159 33.9848 65.375V41.75H31.7407V65.375C31.7407 66.6159 30.7343 67.625 29.4967 67.625C28.2591 67.625 27.2526 66.6159 27.2526 65.375V29.375H25.0085V45.125H23.8865C22.6489 45.125 21.6425 44.1159 21.6425 42.875V37.3108V33.875C21.6425 28.619 25.2621 24.2056 30.1295 22.9771L29.472 31.9276L32.8628 37.0284L36.2535 31.9276L35.596 22.9771C40.4634 24.2056 44.0831 28.619 44.0831 33.875V37.25V42.875C44.0831 44.1159 43.0766 45.125 41.839 45.125ZM63.1576 38.375C63.1576 39.6159 62.1511 40.625 60.9136 40.625H59.7915V26H57.5475V60.875C57.5475 62.1159 56.541 63.125 55.3034 63.125C54.0658 63.125 53.0593 62.1159 53.0593 60.875V37.25H50.8153V60.875C50.8153 62.1159 49.8088 63.125 48.5712 63.125C47.3336 63.125 46.3271 62.1159 46.3271 60.875V42.875V37.25V33.875C46.3271 30.0072 44.6879 26.5231 42.0791 24.0605C42.8006 22.7184 43.7644 21.5585 44.9179 20.6304L48.137 29.1523L51.9373 25.3419L55.7376 29.1523L58.9612 20.6158C61.5161 22.6801 63.1576 25.8369 63.1576 29.375V38.375Z" fill="#26ad50"/>
</svg>
