<svg width="72" height="72" viewBox="0 0 72 72" fill="none" xmlns="http://www.w3.org/2000/svg">
<path d="M69.1832 64.6172C69.1832 61.9418 67.18 59.7268 64.595 59.3897C63.9242 57.985 62.7832 55.5 62.0369 53.0085C61.1169 49.9372 61.1107 47.7844 62.0197 47.1016C64.6116 45.1554 66.0981 42.3135 66.0981 39.3048C66.0981 34.4274 62.4 30.3992 57.6606 29.8727V10.5469H66.0981V9.49219C66.0981 4.25812 61.84 0 56.606 0H12.3091C7.07516 0 2.81689 4.25812 2.81689 9.49219V72H53.4419V69.8906H48.2475V67.7812H64.9643V69.8906H59.7699V72H67.0737V67.7812H69.183V64.6172H69.1832ZM63.9888 39.3047C63.9888 41.6437 62.8095 43.8708 60.7531 45.4148C58.319 47.2427 58.8059 51.8055 62.2485 59.3436H50.9634C54.4057 51.8055 54.8927 47.2425 52.4588 45.4148C50.4024 43.8708 49.2231 41.6437 49.2231 39.3047C49.2231 35.2337 52.535 31.9219 56.606 31.9219C60.6769 31.9219 63.9888 35.2339 63.9888 39.3047ZM56.606 2.10938C60.3187 2.10938 63.4002 4.86436 63.9137 8.4375H21.743C21.46 5.88895 20.1627 3.64261 18.2664 2.10938H56.606ZM46.1382 69.8906H4.92627V9.49219C4.92627 5.42123 8.23813 2.10938 12.3091 2.10938C16.38 2.10938 19.6919 5.42123 19.6919 9.49219V10.5469H55.5513V29.8725C50.8121 30.399 47.1138 34.4274 47.1138 39.3047C47.1138 42.3135 48.6003 45.1553 51.1922 47.1015C52.1012 47.7841 52.095 49.9371 51.175 53.0083C50.4289 55.4996 49.2877 57.9847 48.6169 59.3896C46.0319 59.7267 44.0287 61.9415 44.0287 64.617V67.7812H46.1381V69.8906H46.1382ZM46.1382 65.6719V64.6172C46.1382 62.8725 47.5576 61.4531 49.3023 61.4531H63.9097C65.6543 61.4531 67.0738 62.8725 67.0738 64.6172V65.6719H46.1382Z" fill="#26ad50"/>
<path d="M55.5514 69.8906H57.6608V72H55.5514V69.8906Z" fill="#26ad50"/>
<path d="M17.5824 56.0391H34.4574V58.1484H17.5824V56.0391Z" fill="#26ad50"/>
<path d="M22.5469 35.6912L26.0199 32.2182L29.4929 35.6912L30.9844 34.1997L27.5115 30.7267L30.9844 27.2538L29.4929 25.7622L26.0199 29.2352L22.5469 25.7622L21.0554 27.2538L24.5284 30.7267L21.0554 34.1997L22.5469 35.6912Z" fill="#26ad50"/>
<path d="M17.5824 50.7656H34.4574V52.875H17.5824V50.7656Z" fill="#26ad50"/>
<path d="M17.5824 45.4922H34.4574V47.6016H17.5824V45.4922Z" fill="#26ad50"/>
<path d="M34.4574 19.125H17.5824C15.8377 19.125 14.4183 20.5443 14.4183 22.2891V29.6719H16.5277V22.2891C16.5277 21.7076 17.0008 21.2344 17.5824 21.2344H34.4574C35.039 21.2344 35.5121 21.7074 35.5121 22.2891V39.1641C35.5121 39.7457 35.039 40.2188 34.4574 40.2188H17.5824C17.0008 40.2188 16.5277 39.7457 16.5277 39.1641V31.7812H14.4183V39.1641C14.4183 40.9088 15.8377 42.3281 17.5824 42.3281H34.4574C36.2021 42.3281 37.6215 40.9088 37.6215 39.1641V22.2891C37.6215 20.5445 36.2021 19.125 34.4574 19.125Z" fill="#26ad50"/>
<path d="M55.5513 37.1953H57.6606V39.3047H55.5513V37.1953Z" fill="#26ad50"/>
<path d="M51.3326 16.875H53.442V18.9844H51.3326V16.875Z" fill="#26ad50"/>
<path d="M51.3326 12.6562H53.442V14.7656H51.3326V12.6562Z" fill="#26ad50"/>
</svg>
