<svg width="68" height="68" viewBox="0 0 68 68" fill="none" xmlns="http://www.w3.org/2000/svg">
<path d="M34.8072 34.7948C34.9117 34.6902 34.9945 34.566 35.051 34.4294C35.1075 34.2928 35.1365 34.1464 35.1364 33.9985L35.125 22.7485L32.875 22.7508L32.8851 32.8747H26.125V35.1247H34.0114C34.1592 35.1246 34.3056 35.0955 34.4421 35.0389C34.5787 34.9823 34.7027 34.8993 34.8072 34.7948Z" fill="#26ad50"/>
<path d="M67.75 9.24982C67.7505 7.51769 67.251 5.82224 66.3117 4.36693C65.3724 2.91162 64.0331 1.75828 62.4545 1.04532C60.8759 0.332362 59.1251 0.0900779 57.4122 0.347544C55.6994 0.605011 54.0972 1.35129 52.7979 2.49682C51.4987 3.64235 50.5576 5.13846 50.0876 6.8056C49.6177 8.47275 49.6388 10.2401 50.1484 11.8956C50.658 13.551 51.6345 15.0242 52.9607 16.1384C54.2869 17.2526 55.9065 17.9605 57.625 18.177V54.2498C57.625 57.2335 56.4397 60.095 54.33 62.2048C52.2202 64.3146 49.3587 65.4998 46.375 65.4998C43.3913 65.4998 40.5298 64.3146 38.4201 62.2048C36.3103 60.095 35.125 57.2335 35.125 54.2498V51.9637C44.528 51.3811 52 43.5471 52 33.9998C52 24.4525 44.528 16.6186 35.125 16.036V13.7498C35.125 10.1694 33.7027 6.73562 31.171 4.20388C28.6392 1.67214 25.2054 0.249818 21.625 0.249818C18.0446 0.249818 14.6108 1.67214 12.0791 4.20388C9.54733 6.73562 8.12501 10.1694 8.12501 13.7498V49.8227C5.85359 50.1088 3.77659 51.2499 2.31684 53.0135C0.857086 54.7771 0.12431 57.0308 0.267678 59.3157C0.411045 61.6006 1.41978 63.7449 3.08854 65.3123C4.7573 66.8796 6.96063 67.7521 9.25001 67.7521C11.5394 67.7521 13.7427 66.8796 15.4115 65.3123C17.0802 63.7449 18.089 61.6006 18.2323 59.3157C18.3757 57.0308 17.6429 54.7771 16.1832 53.0135C14.7234 51.2499 12.6464 50.1088 10.375 49.8227V13.7498C10.375 10.7661 11.5603 7.90465 13.6701 5.79487C15.7798 3.68508 18.6413 2.49982 21.625 2.49982C24.6087 2.49982 27.4702 3.68508 29.58 5.79487C31.6897 7.90465 32.875 10.7661 32.875 13.7498V16.036C23.472 16.6186 16 24.4525 16 33.9998C16 43.5471 23.472 51.3811 32.875 51.9637V54.2498C32.875 57.8302 34.2973 61.264 36.8291 63.7958C39.3608 66.3275 42.7946 67.7498 46.375 67.7498C49.9554 67.7498 53.3892 66.3275 55.921 63.7958C58.4527 61.264 59.875 57.8302 59.875 54.2498V18.177C62.0486 17.9007 64.047 16.8419 65.4964 15.1988C66.9459 13.5557 67.747 11.4409 67.75 9.24982ZM16 58.7498C16 60.0848 15.6041 61.3899 14.8624 62.4999C14.1207 63.61 13.0665 64.4751 11.8331 64.986C10.5997 65.4969 9.24253 65.6306 7.93315 65.3701C6.62378 65.1097 5.42105 64.4668 4.47704 63.5228C3.53304 62.5788 2.89016 61.3761 2.62971 60.0667C2.36926 58.7573 2.50293 57.4001 3.01383 56.1667C3.52472 54.9333 4.38988 53.8791 5.49991 53.1374C6.60995 52.3957 7.91499 51.9998 9.25001 51.9998C11.0396 52.0018 12.7553 52.7136 14.0208 53.9791C15.2862 55.2445 15.998 56.9602 16 58.7498ZM20.962 42.8263L22.8711 41.7241L21.7461 39.7756L19.8336 40.8795C18.9551 39.0779 18.4312 37.1242 18.2907 35.1248H20.5V32.8748H18.2907C18.4314 30.8754 18.9554 28.9217 19.8342 27.1202L21.7467 28.2241L22.8717 26.2756L20.9627 25.1733C22.0882 23.5164 23.5172 22.0875 25.1741 20.9619L26.2763 22.8709L28.2248 21.7459L27.1209 19.8334C28.9223 18.955 30.8758 18.4311 32.875 18.2905V20.4998H35.125V18.2905C37.1245 18.4312 39.0782 18.9553 40.8797 19.834L39.7758 21.7465L41.7243 22.8715L42.8265 20.9625C44.4834 22.088 45.9123 23.517 47.0379 25.1739L45.1289 26.2761L46.2539 28.2246L48.1664 27.1207C49.0449 28.9221 49.5687 30.8756 49.7094 32.8748H47.5V35.1248H49.7094C49.5686 37.1243 49.0446 39.078 48.1659 40.8795L46.2534 39.7756L45.1284 41.7241L47.0375 42.8263C45.9118 44.4832 44.4828 45.9121 42.8259 47.0377L41.7237 45.1287L39.7752 46.2537L40.8791 48.1662C39.0777 49.0447 37.1242 49.5685 35.125 49.7092V47.4998H32.875V49.7092C30.8756 49.5684 28.9219 49.0444 27.1204 48.1657L28.2243 46.2532L26.2758 45.1282L25.1735 47.0372C23.5167 45.9117 22.0877 44.483 20.962 42.8263ZM58.75 15.9998C57.415 15.9998 56.1099 15.6039 54.9999 14.8622C53.8899 14.1205 53.0247 13.0663 52.5138 11.8329C52.0029 10.5995 51.8693 9.24233 52.1297 7.93296C52.3902 6.62359 53.033 5.42085 53.977 4.47685C54.921 3.53284 56.1238 2.88997 57.4332 2.62952C58.7425 2.36907 60.0997 2.50274 61.3331 3.01363C62.5665 3.52452 63.6207 4.38969 64.3624 5.49972C65.1041 6.60975 65.5 7.91479 65.5 9.24982C65.498 11.0394 64.7861 12.7551 63.5207 14.0205C62.2553 15.286 60.5396 15.9978 58.75 15.9998Z" fill="#26ad50"/>
<path d="M57.5316 9.81573L56.1705 8.45448L54.5795 10.0455L56.8295 12.2955C56.9339 12.4 57.058 12.4828 57.1945 12.5394C57.331 12.5959 57.4772 12.625 57.625 12.625C57.6457 12.625 57.6663 12.625 57.6871 12.6233C57.8451 12.6145 57.9995 12.5725 58.1401 12.5001C58.2808 12.4276 58.4046 12.3264 58.5035 12.2028L63.0035 6.57784L61.2465 5.17188L57.5316 9.81573Z" fill="#26ad50"/>
<path d="M4.75 58.75C4.75 59.64 5.01392 60.5101 5.50839 61.2501C6.00285 61.9901 6.70566 62.5669 7.52792 62.9075C8.35019 63.2481 9.25499 63.3372 10.1279 63.1635C11.0008 62.9899 11.8026 62.5613 12.432 61.932C13.0613 61.3026 13.4899 60.5008 13.6635 59.6279C13.8372 58.755 13.7481 57.8502 13.4075 57.0279C13.0669 56.2057 12.4901 55.5029 11.7501 55.0084C11.01 54.5139 10.14 54.25 9.25 54.25C8.05694 54.2513 6.91312 54.7259 6.0695 55.5695C5.22588 56.4131 4.75134 57.5569 4.75 58.75ZM11.5 58.75C11.5 59.195 11.368 59.63 11.1208 60C10.8736 60.37 10.5222 60.6584 10.111 60.8287C9.6999 60.999 9.2475 61.0436 8.81105 60.9568C8.37459 60.87 7.97368 60.6557 7.65901 60.341C7.34434 60.0263 7.13005 59.6254 7.04323 59.189C6.95642 58.7525 7.00097 58.3001 7.17127 57.889C7.34157 57.4778 7.62996 57.1264 7.99997 56.8792C8.36998 56.632 8.80499 56.5 9.25 56.5C9.84652 56.5007 10.4184 56.738 10.8402 57.1598C11.262 57.5816 11.4993 58.1535 11.5 58.75Z" fill="#26ad50"/>
</svg>
