<svg width="70" height="70" viewBox="0 0 70 70" fill="none" xmlns="http://www.w3.org/2000/svg">
<path d="M40.625 50.75C40.625 49.6375 40.2951 48.5499 39.677 47.6249C39.0589 46.6999 38.1804 45.9789 37.1526 45.5532C36.1248 45.1274 34.9938 45.016 33.9026 45.2331C32.8115 45.4501 31.8092 45.9859 31.0225 46.7725C30.2359 47.5592 29.7001 48.5615 29.4831 49.6526C29.266 50.7438 29.3774 51.8748 29.8032 52.9026C30.2289 53.9304 30.9499 54.8089 31.8749 55.427C32.7999 56.0451 33.8875 56.375 35 56.375C36.4913 56.3733 37.9211 55.7802 38.9756 54.7256C40.0302 53.6711 40.6233 52.2413 40.625 50.75ZM35 54.125C34.3325 54.125 33.68 53.9271 33.125 53.5562C32.5699 53.1854 32.1374 52.6583 31.8819 52.0416C31.6265 51.4249 31.5596 50.7463 31.6899 50.0916C31.8201 49.4369 32.1415 48.8355 32.6135 48.3635C33.0855 47.8915 33.6869 47.5701 34.3416 47.4399C34.9963 47.3096 35.6749 47.3765 36.2916 47.6319C36.9083 47.8874 37.4354 48.3199 37.8062 48.875C38.1771 49.43 38.375 50.0825 38.375 50.75C38.374 51.6448 38.0181 52.5026 37.3853 53.1353C36.7526 53.768 35.8948 54.124 35 54.125Z" fill="#26ad50"/>
<path d="M39.7812 56.375H30.2188C28.802 56.3766 27.4437 56.9401 26.4419 57.9419C25.4401 58.9437 24.8766 60.302 24.875 61.7188V68.75C24.875 69.0484 24.9935 69.3345 25.2045 69.5455C25.4155 69.7565 25.7016 69.875 26 69.875H44C44.2984 69.875 44.5845 69.7565 44.7955 69.5455C45.0065 69.3345 45.125 69.0484 45.125 68.75V61.7188C45.1234 60.302 44.5599 58.9437 43.5581 57.9419C42.5563 56.9401 41.198 56.3766 39.7812 56.375ZM42.875 67.625H40.625V63.125C40.625 62.8266 40.5065 62.5405 40.2955 62.3295C40.0845 62.1185 39.7984 62 39.5 62C39.2016 62 38.9155 62.1185 38.7045 62.3295C38.4935 62.5405 38.375 62.8266 38.375 63.125V67.625H31.625V63.125C31.625 62.8266 31.5065 62.5405 31.2955 62.3295C31.0845 62.1185 30.7984 62 30.5 62C30.2016 62 29.9155 62.1185 29.7045 62.3295C29.4935 62.5405 29.375 62.8266 29.375 63.125V67.625H27.125V61.7188C27.1259 60.8985 27.4522 60.1122 28.0322 59.5322C28.6122 58.9522 29.3985 58.6259 30.2188 58.625H39.7812C40.6015 58.6259 41.3878 58.9522 41.9678 59.5322C42.5478 60.1122 42.8741 60.8985 42.875 61.7188V67.625Z" fill="#26ad50"/>
<path d="M40.625 5.75C40.625 4.63748 40.2951 3.54995 39.677 2.62492C39.0589 1.69989 38.1804 0.978923 37.1526 0.55318C36.1248 0.127437 34.9938 0.0160435 33.9026 0.233085C32.8115 0.450127 31.8092 0.985857 31.0225 1.77253C30.2359 2.5592 29.7001 3.56148 29.4831 4.65262C29.266 5.74376 29.3774 6.87476 29.8032 7.9026C30.2289 8.93043 30.9499 9.80894 31.8749 10.427C32.7999 11.0451 33.8875 11.375 35 11.375C36.4913 11.3733 37.9211 10.7802 38.9756 9.72563C40.0302 8.6711 40.6233 7.24133 40.625 5.75ZM35 9.125C34.3325 9.125 33.68 8.92706 33.125 8.55621C32.5699 8.18536 32.1374 7.65826 31.8819 7.04156C31.6265 6.42486 31.5596 5.74626 31.6899 5.09157C31.8201 4.43689 32.1415 3.83552 32.6135 3.36352C33.0855 2.89152 33.6869 2.57008 34.3416 2.43985C34.9963 2.30963 35.6749 2.37646 36.2916 2.63191C36.9083 2.88735 37.4354 3.31994 37.8062 3.87495C38.1771 4.42997 38.375 5.08249 38.375 5.75C38.374 6.64479 38.0181 7.50263 37.3853 8.13534C36.7526 8.76805 35.8948 9.12396 35 9.125Z" fill="#26ad50"/>
<path d="M39.7812 11.375H30.2188C28.802 11.3766 27.4437 11.9401 26.4419 12.9419C25.4401 13.9437 24.8766 15.302 24.875 16.7188V23.75C24.875 24.0484 24.9935 24.3345 25.2045 24.5455C25.4155 24.7565 25.7016 24.875 26 24.875H44C44.2984 24.875 44.5845 24.7565 44.7955 24.5455C45.0065 24.3345 45.125 24.0484 45.125 23.75V16.7188C45.1234 15.302 44.5599 13.9437 43.5581 12.9419C42.5563 11.9401 41.198 11.3766 39.7812 11.375ZM42.875 22.625H40.625V18.125C40.625 17.8266 40.5065 17.5405 40.2955 17.3295C40.0845 17.1185 39.7984 17 39.5 17C39.2016 17 38.9155 17.1185 38.7045 17.3295C38.4935 17.5405 38.375 17.8266 38.375 18.125V22.625H31.625V18.125C31.625 17.8266 31.5065 17.5405 31.2955 17.3295C31.0845 17.1185 30.7984 17 30.5 17C30.2016 17 29.9155 17.1185 29.7045 17.3295C29.4935 17.5405 29.375 17.8266 29.375 18.125V22.625H27.125V16.7188C27.1259 15.8985 27.4522 15.1122 28.0322 14.5322C28.6122 13.9522 29.3985 13.6259 30.2188 13.625H39.7812C40.6015 13.6259 41.3878 13.9522 41.9678 14.5322C42.5478 15.1122 42.8741 15.8985 42.875 16.7188V22.625Z" fill="#26ad50"/>
<path d="M15.875 28.25C15.875 27.1375 15.5451 26.0499 14.927 25.1249C14.3089 24.1999 13.4304 23.4789 12.4026 23.0532C11.3748 22.6274 10.2438 22.516 9.15262 22.7331C8.06148 22.9501 7.0592 23.4859 6.27253 24.2725C5.48586 25.0592 4.95013 26.0615 4.73309 27.1526C4.51604 28.2438 4.62744 29.3748 5.05318 30.4026C5.47892 31.4304 6.19989 32.3089 7.12492 32.927C8.04995 33.5451 9.13748 33.875 10.25 33.875C11.7413 33.8733 13.1711 33.2802 14.2256 32.2256C15.2802 31.1711 15.8733 29.7413 15.875 28.25ZM10.25 31.625C9.58249 31.625 8.92997 31.4271 8.37495 31.0562C7.81994 30.6854 7.38736 30.1583 7.13191 29.5416C6.87646 28.9249 6.80963 28.2463 6.93985 27.5916C7.07008 26.9369 7.39152 26.3355 7.86352 25.8635C8.33552 25.3915 8.93689 25.0701 9.59157 24.9399C10.2463 24.8096 10.9249 24.8765 11.5416 25.1319C12.1583 25.3874 12.6854 25.8199 13.0562 26.375C13.4271 26.93 13.625 27.5825 13.625 28.25C13.624 29.1448 13.268 30.0026 12.6353 30.6353C12.0026 31.268 11.1448 31.624 10.25 31.625Z" fill="#26ad50"/>
<path d="M19.25 47.375C19.5484 47.375 19.8345 47.2565 20.0455 47.0455C20.2565 46.8345 20.375 46.5484 20.375 46.25V39.2188C20.3734 37.802 19.8099 36.4437 18.8081 35.4419C17.8063 34.4401 16.448 33.8766 15.0312 33.875H5.46875C4.05199 33.8766 2.69372 34.4401 1.69192 35.4419C0.690115 36.4437 0.1266 37.802 0.125 39.2188V46.25C0.125 46.5484 0.243526 46.8345 0.454505 47.0455C0.665483 47.2565 0.951631 47.375 1.25 47.375H19.25ZM2.375 39.2188C2.37593 38.3985 2.70218 37.6122 3.28217 37.0322C3.86215 36.4522 4.64852 36.1259 5.46875 36.125H15.0312C15.8515 36.1259 16.6378 36.4522 17.2178 37.0322C17.7978 37.6122 18.1241 38.3985 18.125 39.2188V45.125H15.875V40.625C15.875 40.3266 15.7565 40.0405 15.5455 39.8295C15.3345 39.6185 15.0484 39.5 14.75 39.5C14.4516 39.5 14.1655 39.6185 13.9545 39.8295C13.7435 40.0405 13.625 40.3266 13.625 40.625V45.125H6.875V40.625C6.875 40.3266 6.75647 40.0405 6.5455 39.8295C6.33452 39.6185 6.04837 39.5 5.75 39.5C5.45163 39.5 5.16548 39.6185 4.9545 39.8295C4.74353 40.0405 4.625 40.3266 4.625 40.625V45.125H2.375V39.2188Z" fill="#26ad50"/>
<path d="M65.375 28.25C65.375 27.1375 65.0451 26.0499 64.427 25.1249C63.8089 24.1999 62.9304 23.4789 61.9026 23.0532C60.8748 22.6274 59.7438 22.516 58.6526 22.7331C57.5615 22.9501 56.5592 23.4859 55.7725 24.2725C54.9859 25.0592 54.4501 26.0615 54.2331 27.1526C54.016 28.2438 54.1274 29.3748 54.5532 30.4026C54.9789 31.4304 55.6999 32.3089 56.6249 32.927C57.5499 33.5451 58.6375 33.875 59.75 33.875C61.2413 33.8733 62.6711 33.2802 63.7256 32.2256C64.7801 31.1711 65.3733 29.7413 65.375 28.25ZM59.75 31.625C59.0825 31.625 58.43 31.4271 57.8749 31.0562C57.3199 30.6854 56.8874 30.1583 56.6319 29.5416C56.3765 28.9249 56.3096 28.2463 56.4398 27.5916C56.5701 26.9369 56.8915 26.3355 57.3635 25.8635C57.8355 25.3915 58.4369 25.0701 59.0916 24.9399C59.7463 24.8096 60.4248 24.8765 61.0415 25.1319C61.6582 25.3874 62.1854 25.8199 62.5562 26.375C62.9271 26.93 63.125 27.5825 63.125 28.25C63.124 29.1448 62.768 30.0026 62.1353 30.6353C61.5026 31.268 60.6448 31.624 59.75 31.625Z" fill="#26ad50"/>
<path d="M64.5312 33.875H54.9688C53.552 33.8766 52.1937 34.4401 51.1919 35.4419C50.1901 36.4437 49.6266 37.802 49.625 39.2188V46.25C49.625 46.5484 49.7435 46.8345 49.9545 47.0455C50.1655 47.2565 50.4516 47.375 50.75 47.375H68.75C69.0484 47.375 69.3345 47.2565 69.5455 47.0455C69.7565 46.8345 69.875 46.5484 69.875 46.25V39.2188C69.8734 37.802 69.3099 36.4437 68.3081 35.4419C67.3063 34.4401 65.948 33.8766 64.5312 33.875ZM67.625 45.125H65.375V40.625C65.375 40.3266 65.2565 40.0405 65.0455 39.8295C64.8345 39.6185 64.5484 39.5 64.25 39.5C63.9516 39.5 63.6655 39.6185 63.4545 39.8295C63.2435 40.0405 63.125 40.3266 63.125 40.625V45.125H56.375V40.625C56.375 40.3266 56.2565 40.0405 56.0455 39.8295C55.8345 39.6185 55.5484 39.5 55.25 39.5C54.9516 39.5 54.6655 39.6185 54.4545 39.8295C54.2435 40.0405 54.125 40.3266 54.125 40.625V45.125H51.875V39.2188C51.8759 38.3985 52.2022 37.6122 52.7822 37.0322C53.3622 36.4522 54.1485 36.1259 54.9688 36.125H64.5312C65.3515 36.1259 66.1378 36.4522 66.7178 37.0322C67.2978 37.6122 67.6241 38.3985 67.625 39.2188V45.125Z" fill="#26ad50"/>
<path d="M20.9609 58.0681C18.0267 56.2812 15.4604 53.951 13.3995 51.2024C13.3107 51.0842 13.1996 50.9847 13.0724 50.9095C12.9452 50.8343 12.8044 50.7849 12.6581 50.7641C12.5118 50.7433 12.3628 50.7516 12.2197 50.7883C12.0766 50.8251 11.9421 50.8897 11.824 50.9784C11.7058 51.0672 11.6063 51.1783 11.5311 51.3055C11.4559 51.4327 11.4065 51.5735 11.3857 51.7198C11.3649 51.8661 11.3731 52.0151 11.4099 52.1582C11.4467 52.3013 11.5113 52.4358 11.6 52.5539C13.8319 55.5305 16.6111 58.054 19.7886 59.9891C20.0434 60.1444 20.3494 60.1923 20.6394 60.122C20.9294 60.0518 21.1796 59.8692 21.3349 59.6144C21.4903 59.3597 21.5381 59.0537 21.4679 58.7637C21.3976 58.4737 21.2151 58.2235 20.9603 58.0681H20.9609Z" fill="#26ad50"/>
<path d="M58.1777 50.975C57.9392 50.7958 57.6392 50.7187 57.3439 50.7607C57.0485 50.8027 56.7819 50.9602 56.6027 51.1987C54.5415 53.9485 51.9744 56.2796 49.0393 58.0671C48.7846 58.2225 48.602 58.4727 48.5318 58.7627C48.4615 59.0527 48.5093 59.3587 48.6647 59.6134C48.8201 59.8682 49.0703 60.0507 49.3603 60.121C49.6503 60.1912 49.9563 60.1434 50.211 59.9881C53.3895 58.0523 56.1694 55.5278 58.4017 52.5501C58.4904 52.432 58.555 52.2975 58.5918 52.1544C58.6285 52.0113 58.6367 51.8624 58.6159 51.7161C58.5951 51.5699 58.5457 51.4291 58.4705 51.302C58.3953 51.1748 58.2958 51.0637 58.1777 50.975Z" fill="#26ad50"/>
<path d="M44.7199 9.80178C49.4461 11.6281 53.5637 14.7463 56.6027 18.8005C56.7819 19.0391 57.0485 19.1967 57.3439 19.2387C57.6394 19.2806 57.9393 19.2035 58.1779 19.0243C58.4165 18.8451 58.5741 18.5785 58.616 18.2831C58.658 17.9877 58.5809 17.6877 58.4017 17.4491C55.1096 13.0581 50.6495 9.68091 45.5303 7.70295C45.392 7.64749 45.2441 7.62003 45.0952 7.62219C44.9462 7.62434 44.7992 7.65606 44.6626 7.7155C44.526 7.77494 44.4025 7.86092 44.2994 7.96845C44.1963 8.07598 44.1156 8.20292 44.0619 8.34189C44.0083 8.48087 43.9828 8.62912 43.9869 8.77804C43.991 8.92696 44.0246 9.07358 44.0858 9.20939C44.1471 9.34521 44.2346 9.46751 44.3435 9.5692C44.4524 9.67089 44.5804 9.74995 44.72 9.80178H44.7199Z" fill="#26ad50"/>
<path d="M11.8223 19.0252C12.0609 19.2044 12.3608 19.2815 12.6562 19.2395C12.9515 19.1975 13.2181 19.04 13.3973 18.8015C16.4364 14.7473 20.554 11.6291 25.2801 9.80276C25.4198 9.75092 25.5478 9.67187 25.6567 9.57017C25.7655 9.46848 25.8531 9.34618 25.9143 9.21037C25.9756 9.07455 26.0092 8.92793 26.0133 8.77902C26.0174 8.6301 25.9919 8.48185 25.9382 8.34287C25.8846 8.20389 25.8039 8.07696 25.7007 7.96943C25.5976 7.8619 25.4742 7.77592 25.3376 7.71648C25.201 7.65704 25.054 7.62532 24.905 7.62316C24.756 7.62101 24.6081 7.64846 24.4699 7.70393C19.3506 9.68192 14.8905 13.0591 11.5985 17.4502C11.4193 17.6888 11.3423 17.9887 11.3842 18.2841C11.4262 18.5794 11.5838 18.846 11.8223 19.0252Z" fill="#26ad50"/>
<path d="M35 39.5C35.89 39.5 36.7601 39.2361 37.5001 38.7416C38.2401 38.2472 38.8169 37.5444 39.1575 36.7221C39.4981 35.8998 39.5872 34.995 39.4135 34.1221C39.2399 33.2492 38.8113 32.4474 38.182 31.818C37.5527 31.1887 36.7508 30.7601 35.8779 30.5865C35.005 30.4128 34.1002 30.5019 33.2779 30.8425C32.4557 31.1831 31.7529 31.7599 31.2584 32.4999C30.7639 33.24 30.5 34.11 30.5 35C30.5013 36.1931 30.9759 37.3369 31.8195 38.1805C32.6631 39.0241 33.8069 39.4987 35 39.5ZM35 32.75C35.445 32.75 35.88 32.882 36.25 33.1292C36.6201 33.3764 36.9084 33.7278 37.0787 34.139C37.249 34.5501 37.2936 35.0025 37.2068 35.439C37.12 35.8754 36.9057 36.2763 36.591 36.591C36.2763 36.9057 35.8754 37.12 35.439 37.2068C35.0025 37.2936 34.5501 37.249 34.139 37.0787C33.7278 36.9084 33.3764 36.6201 33.1292 36.25C32.882 35.88 32.75 35.445 32.75 35C32.7507 34.4035 32.988 33.8316 33.4098 33.4098C33.8316 32.988 34.4035 32.7507 35 32.75Z" fill="#26ad50"/>
</svg>
