<svg width="73" height="72" viewBox="0 0 73 72" fill="none" xmlns="http://www.w3.org/2000/svg">
<path d="M60.7994 0H27.2881C27.2653 0 27.2437 0.0117188 27.2209 0.0134766C27.111 0.01875 27.0029 0.0410157 26.8989 0.0779297C26.8638 0.0884766 26.8287 0.100781 26.7948 0.11543C26.6616 0.172852 26.5401 0.254297 26.436 0.355078L22.0052 4.8H15.3197C12.0162 4.8041 9.33966 7.4877 9.33557 10.8V66C9.33966 69.3123 12.0162 71.9959 15.3197 72H53.6184C56.922 71.9959 59.5985 69.3123 59.6026 66V63.6H61.9963C63.3181 63.6 64.3899 62.5254 64.3899 61.2V3.6C64.3899 1.61191 62.7823 0 60.7994 0ZM23.3469 6.84844L26.0912 4.09688V9.6H20.6026L23.3469 6.84844ZM57.2089 66C57.2089 67.9881 55.6013 69.6 53.6184 69.6H15.3197C13.3369 69.6 11.7292 67.9881 11.7292 66V10.8C11.7292 8.81191 13.3369 7.2 15.3197 7.2H19.6115L16.8672 9.95156C16.7667 10.0535 16.686 10.1725 16.6276 10.3031C16.6112 10.3406 16.6013 10.3775 16.5885 10.4162C16.554 10.5152 16.5335 10.6195 16.5271 10.7244C16.5271 10.7508 16.5119 10.7736 16.5119 10.8V61.2C16.5119 62.5254 17.5837 63.6 18.9056 63.6H57.2089V66ZM18.9102 61.2V12H26.0912C27.4131 12 28.4849 10.9254 28.4849 9.6V2.4H60.7994C61.4604 2.4 61.9963 2.9373 61.9963 3.6V61.2H18.9102Z" fill="#26ad50"/>
<path d="M22.5007 54H29.6817V56.4H22.5007V54Z" fill="#26ad50"/>
<path d="M34.4691 7.2002H46.4375V9.6002H34.4691V7.2002Z" fill="#26ad50"/>
<path d="M36.8628 12H44.0438V14.4H36.8628V12Z" fill="#26ad50"/>
<path d="M58.4058 16.7998H22.5008C21.8398 16.7998 21.304 17.3371 21.304 17.9998V49.1998C21.304 49.8625 21.8398 50.3998 22.5008 50.3998H47.6343V53.9998C47.6343 54.6625 48.1702 55.1998 48.8311 55.1998H58.4058C59.0667 55.1998 59.6026 54.6625 59.6026 53.9998V17.9998C59.6026 17.3371 59.0667 16.7998 58.4058 16.7998ZM57.209 47.9998H50.028V45.5998H57.209V47.9998ZM47.6343 26.3998V28.7998H30.8786V26.3998H47.6343ZM57.209 28.7998H50.028V26.3998H57.209V28.7998ZM57.209 33.5998H50.028V31.1998H57.209V33.5998ZM57.209 38.3998H50.028V35.9998H57.209V38.3998ZM23.6976 35.9998H28.485V38.3998H23.6976V35.9998ZM23.6976 31.1998H28.485V33.5998H23.6976V31.1998ZM30.8786 31.1998H47.6343V33.5998H30.8786V31.1998ZM30.8786 35.9998H47.6343V38.3998H30.8786V35.9998ZM28.485 28.7998H23.6976V26.3998H28.485V28.7998ZM23.6976 40.7998H28.485V43.1998H23.6976V40.7998ZM30.8786 40.7998H47.6343V43.1998H30.8786V40.7998ZM50.028 40.7998H57.209V43.1998H50.028V40.7998ZM23.6976 19.1998H57.209V23.9998H23.6976V19.1998ZM23.6976 47.9998V45.5998H28.485V47.9998H23.6976ZM30.8786 47.9998V45.5998H47.6343V47.9998H30.8786ZM50.028 50.3998H57.209V52.7998H50.028V50.3998Z" fill="#26ad50"/>
</svg>
