<svg width="73" height="72" viewBox="0 0 73 72" fill="none" xmlns="http://www.w3.org/2000/svg">
<path d="M66.9661 0H27.6056C25.6835 0 24.1288 1.55875 24.1288 3.48593V15.0915H6.75932C4.83723 15.0915 3.28259 16.6503 3.28259 18.5774V58.0563C3.28259 59.9835 4.83723 61.5422 6.75932 61.5422H24.1288V68.5141C24.1288 70.4412 25.6835 72 27.6056 72H66.9661C68.8882 72 70.4428 70.4412 70.4428 68.5141V3.48593C70.4428 1.55875 68.8882 0 66.9661 0ZM26.4325 3.47176C26.4325 2.83409 26.9555 2.30978 27.5914 2.30978H66.9661C67.6021 2.30978 68.125 2.83409 68.125 3.47176V9.28164H26.4325V3.47176ZM26.4325 11.6056H68.125V55.7323H33.386V18.5774C33.386 16.6503 31.8314 15.0915 29.9093 15.0915H26.4325V11.6056ZM5.60041 18.5774C5.60041 17.9398 6.12334 17.4155 6.75932 17.4155H29.9234C30.5594 17.4155 31.0823 17.9398 31.0823 18.5774V22.0634H5.60041V18.5774ZM5.60041 24.3873H31.0682V52.2464H5.60041V24.3873ZM6.75932 59.2183C6.12334 59.2183 5.60041 58.694 5.60041 58.0563V54.5704H31.0682V58.0563C31.0682 58.694 30.5452 59.2183 29.9093 59.2183H6.75932ZM68.1392 68.4999H68.125C68.125 69.1376 67.6021 69.6619 66.9661 69.6619H27.6056C26.9696 69.6619 26.4467 69.1376 26.4467 68.4999V61.528H29.9234C31.8455 61.528 33.4001 59.9693 33.4001 58.0421H68.1392V68.4999Z" fill="#26ad50"/>
<path d="M21.811 18.5771H14.8575V20.9011H21.811V18.5771Z" fill="#26ad50"/>
<path d="M12.5397 18.5771H10.2219V20.9011H12.5397V18.5771Z" fill="#26ad50"/>
<path d="M19.4932 55.7324H17.1754V58.0564H19.4932V55.7324Z" fill="#26ad50"/>
<path d="M51.9144 4.64795H42.6572V6.9719H51.9144V4.64795Z" fill="#26ad50"/>
<path d="M47.2787 68.4999C49.8368 68.4999 51.9143 66.4169 51.9143 63.852C51.9143 61.2872 49.8368 59.2041 47.2787 59.2041C44.7206 59.2041 42.6431 61.2872 42.6431 63.852C42.6572 66.4169 44.7348 68.4999 47.2787 68.4999ZM47.2787 61.5422C48.5507 61.5422 49.5965 62.5767 49.5965 63.8662C49.5965 65.1415 48.5507 66.1901 47.2787 66.1901C46.0067 66.1901 44.9609 65.1557 44.9609 63.8662C44.975 62.5767 46.0067 61.5422 47.2787 61.5422Z" fill="#26ad50"/>
</svg>
