<svg width="62" height="66" viewBox="0 0 62 66" fill="none" xmlns="http://www.w3.org/2000/svg">
<path d="M23.3832 28.6752C25.0044 24.9724 27.8364 21.7185 31.7407 19.5581C34.7493 17.8917 38.1822 17.0095 41.6586 17.0095C44.5458 17.0095 47.3497 17.6432 49.9032 18.7579V9.90793C49.9037 4.71569 38.9153 0.505859 25.3657 0.505859C11.8121 0.505859 0.825498 4.71569 0.825498 9.90793V19.3117C0.820064 24.2528 10.7533 28.2914 23.3832 28.6752ZM25.3603 2.85497C38.841 2.85497 47.4439 7.03314 47.4439 9.90533C47.4439 12.7827 38.841 16.957 25.3603 16.957C11.8768 16.957 3.27395 12.7827 3.27395 9.90533C3.27395 7.03314 11.8768 2.85497 25.3603 2.85497ZM0.816895 33.419V24.0152C0.816895 28.7745 10.0528 32.6964 22.0279 33.3183C21.5511 36.4456 21.8871 39.6938 23.1034 42.7733C10.6098 42.3374 0.820064 38.3206 0.816895 33.419ZM40.2113 54.9964C36.0865 56.1983 30.9478 56.9244 25.3603 56.9244C11.8066 56.9244 0.820064 52.7145 0.820064 47.5193V38.1146C0.820064 43.312 11.8039 47.5197 25.3603 47.5197C25.5147 47.5197 25.665 47.5119 25.8195 47.5119C29.2478 51.8484 34.5066 54.5735 40.2113 54.9964ZM56.4548 27.8789C51.7508 20.0773 41.3004 17.3938 33.1521 21.8998C25.0071 26.4055 22.2059 36.4139 26.9067 44.2155C31.6107 52.0197 42.0666 54.7006 50.2116 50.2002C58.363 45.6971 61.1588 35.6826 56.4548 27.8789ZM29.3543 42.8631C25.4278 36.3584 27.7675 28.0021 34.5645 24.2398C41.3615 20.4828 50.0853 22.72 54.0118 29.2317C57.9387 35.7434 55.5976 44.0997 48.8006 47.8576C42.0009 51.6215 33.2794 49.3817 29.3543 42.8631ZM60.1499 58.5622L52.8127 62.6189L47.1627 53.2511L54.5026 49.1917L60.1499 58.5622ZM59.3583 65.3761C57.326 66.496 54.7399 65.8359 53.5648 63.8888L60.9079 59.8321C62.0798 61.7787 61.3852 64.2558 59.3583 65.3761Z" fill="#26ad50"/>
</svg>
