<svg width="72" height="64" viewBox="0 0 72 64" fill="none" xmlns="http://www.w3.org/2000/svg">
<path d="M68.9334 26.3751H67.868L60.429 7.77622L64.7125 6.63715C65.4606 6.44047 66.0998 5.95469 66.4897 5.28668C66.8796 4.61867 66.9881 3.82315 66.7914 3.07512C66.5947 2.32709 66.1089 1.68783 65.4409 1.29797C64.7729 0.90811 63.9774 0.799582 63.2294 0.996263L40.7195 6.9215C39.9381 6.05454 38.933 5.41944 37.8146 5.08578C36.6961 4.75212 35.5074 4.73279 34.3786 5.02991C33.2499 5.32702 32.2248 5.92912 31.4155 6.7702C30.6063 7.61129 30.0442 8.65892 29.7908 9.79826L7.14038 15.7626C6.45686 15.9431 5.86233 16.3661 5.46764 16.9526C5.07294 17.5392 4.90503 18.2492 4.9952 18.9504C5.08537 19.6516 5.42746 20.2961 5.95771 20.7637C6.48795 21.2313 7.17015 21.49 7.87711 21.4918C8.12902 21.4916 8.37985 21.4589 8.62341 21.3946L11.025 20.785L4.13325 37.9064H3.06563C2.7566 37.9043 2.4502 37.9632 2.16401 38.0799C1.87783 38.1965 1.61751 38.3685 1.39799 38.586C1.17847 38.8035 1.00408 39.0623 0.884839 39.3474C0.765593 39.6325 0.70384 39.9383 0.703125 40.2474C0.703791 40.7139 0.843587 41.1696 1.10464 41.5562C1.36569 41.9428 1.73613 42.2428 2.16858 42.4178C2.32509 45.4527 3.55556 48.0048 5.75311 49.8338C7.89595 51.6173 10.8879 52.598 14.1777 52.598C17.4614 52.598 20.4671 51.6048 22.6411 49.8026C24.8621 47.9612 26.1065 45.4162 26.2664 42.413C26.5563 42.2939 26.8197 42.1182 27.0411 41.8962C27.2609 41.6815 27.4355 41.4248 27.5543 41.1414C27.6732 40.858 27.734 40.5536 27.7331 40.2462C27.7322 39.9373 27.6703 39.6315 27.5509 39.3465C27.4315 39.0615 27.2571 38.8029 27.0375 38.5855C26.8179 38.3681 26.5576 38.1962 26.2714 38.0796C25.9852 37.9631 25.6789 37.9042 25.3699 37.9064H24.3037L16.8422 19.253L31.2681 15.4429C31.7921 16.0256 32.4189 16.5067 33.1172 16.8621L33.058 52.2501H28.7114C27.3651 52.2468 26.067 52.7505 25.0752 53.6609C24.0834 54.5713 23.4707 55.8217 23.3589 57.1633C22.262 57.4958 21.3004 58.1709 20.615 59.0897C19.9296 60.0084 19.5564 61.1225 19.5501 62.2687C19.5498 62.377 19.5714 62.4842 19.6137 62.5839C19.656 62.6836 19.718 62.7737 19.7961 62.8488C19.8754 62.9248 19.9692 62.9843 20.0718 63.0237C20.1745 63.0631 20.284 63.0817 20.3939 63.0783H51.6061C51.7164 63.0811 51.8261 63.0618 51.9287 63.0214C52.0314 62.981 52.1248 62.9204 52.2035 62.8431C52.2823 62.7659 52.3446 62.6736 52.387 62.5717C52.4293 62.4699 52.4507 62.3606 52.4499 62.2503C52.4439 61.1054 52.0706 59.9927 51.3849 59.0759C50.6993 58.1591 49.7375 57.4865 48.6411 57.1571C48.5288 55.8168 47.9162 54.5679 46.9251 53.6587C45.934 52.7496 44.6371 52.2467 43.2921 52.2501H38.9426L38.9434 16.8267C39.7665 16.3947 40.4855 15.7884 41.0502 15.0501C41.615 14.3118 42.0119 13.4592 42.2134 12.5517L54.5653 9.32168L47.6978 26.3751H46.629C46.0837 26.3707 45.554 26.5566 45.1311 26.9009C44.7082 27.2452 44.4187 27.7262 44.3124 28.261C44.2062 28.7959 44.2898 29.351 44.549 29.8308C44.8082 30.3106 45.2267 30.6849 45.7322 30.8892C45.8883 33.9249 47.1189 36.4745 49.3169 38.3039C51.4598 40.0875 54.4517 41.0668 57.7413 41.0668C61.0252 41.0668 64.0309 40.0727 66.2048 38.2705C68.4267 36.4283 69.6708 33.883 69.8303 30.8781C70.3358 30.675 70.7543 30.3016 71.0136 29.8225C71.2729 29.3434 71.3565 28.7887 71.2501 28.2545C71.1437 27.7202 70.8539 27.24 70.4308 26.8968C70.0078 26.5536 69.4781 26.3691 68.9334 26.3751ZM21.564 48.4814C19.6921 50.0333 17.0691 50.8983 14.1777 50.8983C11.2815 50.8983 8.67305 50.0392 6.83269 48.5077C5.07319 47.0436 4.06153 45.0783 3.87295 42.547H24.5616C24.3685 44.9376 23.3438 47.0064 21.564 48.4814ZM25.3695 39.5939C25.457 39.5914 25.5442 39.6065 25.6258 39.6382C25.7075 39.6699 25.782 39.7176 25.8449 39.7785C25.9079 39.8394 25.9581 39.9122 25.9925 39.9928C26.0269 40.0733 26.0449 40.1599 26.0454 40.2475C26.0455 40.3316 26.028 40.4147 25.9939 40.4916C25.9598 40.5684 25.9099 40.6373 25.8474 40.6936C25.7831 40.7521 25.7075 40.797 25.6254 40.8255C25.5432 40.854 25.4561 40.8656 25.3693 40.8595H3.06661C2.97909 40.8635 2.89167 40.8499 2.80953 40.8194C2.72739 40.789 2.65222 40.7423 2.58848 40.6822C2.5261 40.626 2.47625 40.5573 2.44216 40.4806C2.40807 40.4038 2.39051 40.3208 2.39063 40.2368C2.39138 40.1498 2.40963 40.0638 2.44429 39.984C2.47894 39.9041 2.5293 39.8321 2.59237 39.7721C2.65543 39.7121 2.72991 39.6654 2.81138 39.6348C2.89285 39.6042 2.97965 39.5903 3.06661 39.5939H25.3695ZM22.4859 37.9064H5.95266L13.06 20.2491L15.1975 19.6976L22.4859 37.9064ZM8.1938 19.7627C7.87973 19.8454 7.54567 19.7999 7.2651 19.6363C6.98454 19.4727 6.78046 19.2044 6.69776 18.8903C6.61505 18.5762 6.6605 18.2422 6.8241 17.9616C6.9877 17.681 7.25606 17.477 7.57013 17.3943L29.6509 11.5798C29.7009 12.4025 29.9115 13.2075 30.2708 13.9492L8.1938 19.7627ZM47.0779 58.5783C48.8111 58.5783 50.2701 59.8439 50.6604 61.3908H21.3401C21.548 60.5943 22.0113 59.888 22.659 59.38C23.3066 58.872 24.103 58.5904 24.9261 58.5783H47.0779ZM43.273 53.9376H43.2885C44.142 53.9302 44.9713 54.2212 45.6329 54.7605C46.2945 55.2997 46.7468 56.0533 46.9117 56.8908H25.089C25.2577 56.0517 25.7138 55.2976 26.3786 54.7586C27.0434 54.2196 27.8754 53.9292 28.7312 53.9376H43.273ZM34.7455 52.2501L34.8034 17.4374C35.6138 17.5941 36.447 17.5901 37.2558 17.4258V52.2501H34.7455ZM36 15.8588C35.0752 15.8589 34.1711 15.5848 33.4021 15.071C32.6331 14.5573 32.0337 13.8271 31.6797 12.9727C31.3258 12.1184 31.2331 11.1782 31.4134 10.2711C31.5938 9.36409 32.0391 8.5309 32.693 7.87692C33.3469 7.22294 34.18 6.77756 35.087 6.5971C35.9941 6.41664 36.9342 6.5092 37.7887 6.86308C38.6431 7.21697 39.3734 7.81627 39.8872 8.58521C40.401 9.35415 40.6752 10.2582 40.6752 11.183C40.6739 12.4226 40.1809 13.611 39.3044 14.4876C38.428 15.3642 37.2396 15.8573 36 15.8588ZM42.3478 10.769C42.2954 9.94645 42.0826 9.14211 41.7213 8.40129L63.6588 2.62456C63.9717 2.54555 64.3031 2.59319 64.581 2.75714C64.8589 2.92109 65.0609 3.18809 65.1431 3.50013C65.2252 3.81216 65.1809 4.14402 65.0198 4.42357C64.8587 4.70313 64.5937 4.9078 64.2825 4.99311L42.3478 10.769ZM56.6016 8.78421L58.7844 8.22045L66.0502 26.3751H49.5172L56.6016 8.78421ZM65.1284 36.9501C63.2565 38.5021 60.6333 39.3668 57.7419 39.3668C54.8459 39.3668 52.2373 38.5081 50.3971 36.9762C48.6376 35.512 47.6259 33.547 47.4373 31.0158H68.1259C67.9328 33.4064 66.9083 35.4746 65.1284 36.9501ZM68.9334 29.3283H46.6313C46.5446 29.334 46.4577 29.322 46.3759 29.2928C46.2941 29.2636 46.2192 29.2179 46.1558 29.1586C46.0923 29.0993 46.0418 29.0275 46.0072 28.9479C45.9727 28.8682 45.9548 28.7823 45.9548 28.6955C45.9548 28.6086 45.9727 28.5227 46.0072 28.443C46.0418 28.3634 46.0923 28.2916 46.1558 28.2323C46.2192 28.173 46.2941 28.1273 46.3759 28.0981C46.4577 28.0689 46.5446 28.0569 46.6313 28.0626H68.9344C69.021 28.0569 69.1079 28.0689 69.1897 28.0981C69.2715 28.1273 69.3465 28.173 69.4099 28.2323C69.4733 28.2916 69.5238 28.3634 69.5584 28.443C69.593 28.5227 69.6108 28.6086 69.6108 28.6955C69.6108 28.7823 69.593 28.8682 69.5584 28.9479C69.5238 29.0275 69.4733 29.0993 69.4099 29.1586C69.3465 29.2179 69.2715 29.2636 69.1897 29.2928C69.1079 29.322 69.021 29.334 68.9344 29.3283H68.9334Z" fill="#26ad50"/>
</svg>
