<svg width="72" height="72" viewBox="0 0 72 72" fill="none" xmlns="http://www.w3.org/2000/svg">
<g clip-path="url(#clip0)">
<path d="M70.9453 59.3293C70.3627 59.3293 69.8906 59.8015 69.8906 60.384V67.4311C69.8906 67.529 69.811 67.6087 69.713 67.6087H65.7055V52.1995C65.7055 51.617 65.2334 51.1448 64.6508 51.1448C64.0682 51.1448 63.5961 51.617 63.5961 52.1995V67.6089H55.8519L57.9479 65.3031C58.2717 64.9469 58.4242 64.441 58.3563 63.9498C58.3548 63.9393 58.3532 63.9289 58.3514 63.9183L55.9952 49.997L56.4288 49.3444L56.5417 49.4246C56.9283 49.6992 57.4213 49.7993 57.8983 49.6802C58.3667 49.5631 58.7592 49.2479 58.9749 48.8159V48.8158L61.3724 44.0105L66.8491 46.1316C67.0652 46.2255 69.8901 47.5208 69.8901 50.891V55.4619C69.8902 56.0445 70.3623 56.5167 70.9449 56.5167C71.5275 56.5167 71.9996 56.0445 71.9996 55.462V50.8911C71.9996 46.0241 67.8251 44.2521 67.6475 44.179C67.6408 44.1762 67.6342 44.1735 67.6274 44.171L58.3016 40.5592V38.6382C59.7574 37.4671 60.7797 35.7792 61.0867 33.855C61.8127 33.7639 62.4863 33.4732 63.0453 32.9924C63.8469 32.3031 64.3068 31.3 64.3068 30.2407C64.3068 29.3951 64.0134 28.586 63.4878 27.9433V25.0973C63.4878 19.5277 58.9566 14.9967 53.3873 14.9967C50.8869 14.9967 48.5975 15.9119 46.8317 17.4225C46.8089 16.6143 46.5196 15.8442 46.0155 15.2277V12.3819C46.0155 6.81232 41.4843 2.28125 35.915 2.28125C30.3454 2.28125 25.8143 6.81246 25.8143 12.3819V15.302C25.3074 15.9078 25.0237 16.6382 24.9987 17.4135C23.872 16.4506 22.5236 15.7257 21.0207 15.33C20.4565 15.1815 19.8804 15.518 19.732 16.0813C19.5837 16.6447 19.9201 17.2216 20.4834 17.37C23.9868 18.2925 26.4337 21.4702 26.4337 25.0972V26.6746C26.3881 26.6652 26.2418 26.64 26.2362 26.6391C26.2219 26.3414 26.1465 26.1596 25.9842 25.9262C25.7142 25.5382 25.2293 25.0549 23.6698 23.3786C23.1141 22.7817 22.2152 22.6721 21.5329 23.1182C18.8617 24.8631 15.6165 25.7524 12.6049 25.5756C11.6239 25.5181 11.0112 25.9491 10.7501 26.6555C10.7267 26.6593 10.4659 26.7118 10.4514 26.7154V25.0972C10.4514 21.6 12.7883 18.4538 16.1342 17.4459C16.6919 17.278 17.0079 16.6897 16.84 16.1318C16.6719 15.5739 16.0827 15.258 15.5257 15.4261C13.4908 16.039 11.6617 17.315 10.3757 19.0188C9.04498 20.7814 8.34172 22.8833 8.34172 25.0973V28.0175C7.81044 28.6523 7.52314 29.4238 7.52314 30.2407C7.52314 32.0463 8.85345 33.621 10.7488 33.8559C11.0593 35.735 12.0788 37.5371 13.6878 38.7624V40.5597L4.37244 44.1712C4.36584 44.1738 4.35923 44.1765 4.35262 44.1791C4.17459 44.2521 0 46.024 0 50.891V67.4311C0 68.6924 1.026 69.7183 2.28726 69.7183H34.7675C35.2214 69.7183 35.6437 69.5837 36.0001 69.3547C36.3561 69.5837 36.7786 69.7183 37.2326 69.7183H69.713C70.9741 69.7183 72.0001 68.6924 72.0001 67.4311V60.384C72 59.8015 71.5279 59.3293 70.9453 59.3293ZM10.6456 31.6766C10.0272 31.4522 9.63223 30.8802 9.63223 30.2404C9.63223 29.6198 10.0822 29.1099 10.6456 28.8679V31.6766ZM59.3969 43.2454L57.3267 47.3946C57.3264 47.3944 55.027 45.7613 54.9944 45.7381C55.9864 44.5135 55.5203 45.0888 57.583 42.543L59.3969 43.2454ZM53.4697 44.2688L50.742 40.9019V39.8901C51.6287 40.1966 52.5838 40.3381 53.4828 40.3384C53.483 40.3384 53.4832 40.3384 53.4834 40.3384H53.4835C54.4131 40.3382 55.3541 40.1618 56.1922 39.8463V40.9083L53.4697 44.2688ZM54.7081 48.1224L54.3201 48.7064H52.6198L52.2318 48.1224L53.47 47.2431L54.7081 48.1224ZM35.9973 31.5533L33.2696 28.1863V27.1745C34.1527 27.4798 35.1068 27.6225 36.0103 27.6228C36.0105 27.6228 36.0108 27.6228 36.0109 27.6228H36.011C36.9389 27.6228 37.8798 27.4469 38.7198 27.1309V28.1928L35.9973 31.5533ZM37.2355 35.4071L36.8475 35.9911H35.1472L34.7592 35.4071L35.9974 34.5278L37.2355 35.4071ZM27.6915 21.0392C27.8639 21.0862 28.0411 21.1181 28.221 21.1403C28.5315 23.0195 29.551 24.8216 31.16 26.0468V27.8442L29.0084 28.6782C28.8836 28.4162 28.7277 28.1694 28.5426 27.9432V25.0973C28.5426 23.6661 28.2411 22.2902 27.6915 21.0392ZM41.6019 19.9223C41.6019 23.0095 39.0836 25.513 36.011 25.513C32.5445 25.513 30.2278 22.8264 30.2278 19.9223V14.9819C33.5583 15.1152 37.0181 14.1282 39.8467 12.3676C40.7978 13.3874 41.3636 13.9798 41.602 14.2549C41.6019 16.8808 41.6019 17.8947 41.6019 19.9223ZM43.6143 21.1396C43.7932 21.1171 43.9696 21.085 44.141 21.0382C43.5931 22.2813 43.2865 23.6538 43.2865 25.0973V28.0174C43.1244 28.211 42.9849 28.4173 42.8694 28.6338L40.8293 27.8437V25.9228C42.2849 24.7515 43.3074 23.0636 43.6143 21.1396ZM31.8803 29.8291L34.4695 33.0249L32.7038 34.279C32.7028 34.2797 32.7021 34.2804 32.7012 34.2811L32.1408 34.6792L30.0703 30.5301L31.8803 29.8291ZM38.4247 31.9081L40.1104 29.8274L41.9243 30.5298L39.8542 34.6792L39.2925 34.2804C39.292 34.28 39.2914 34.2794 39.2908 34.279L37.5219 33.0225L38.4247 31.9081ZM38.9563 36.629L39.0692 36.7091C39.4635 36.9893 39.9584 37.0818 40.4258 36.9648C40.8942 36.8477 41.2867 36.5325 41.5024 36.1005V36.1004L43.2825 32.5329C43.894 33.2866 44.7786 33.7451 45.6895 33.8588C46.0113 35.8754 47.1013 37.5963 48.6327 38.7624V40.5596L39.6659 44.036L38.5226 37.2818L38.9563 36.629ZM49.3528 42.5445L51.942 45.7403C50.81 46.5446 49.6719 47.353 49.6133 47.3946L47.5428 43.2455L49.3528 42.5445ZM59.0742 32.6379C59.0745 35.6497 56.6286 38.2286 53.4835 38.2286C49.8987 38.2286 47.7003 35.4209 47.7003 32.6379V27.6975C51.007 27.8295 54.4713 26.8556 57.3191 25.0831C58.2701 26.1029 58.836 26.6954 59.0743 26.9705C59.0742 29.5962 59.0742 30.6102 59.0742 32.6379ZM62.1975 30.2405C62.1975 30.8815 61.8012 31.4523 61.1841 31.6766V28.8074C61.822 29.0397 62.1975 29.6226 62.1975 30.2405ZM45.3961 25.0972C45.3961 20.6909 48.981 17.106 53.3872 17.106C57.7935 17.106 61.3782 20.691 61.3782 25.0972V26.6746C61.3302 26.6646 61.1983 26.6418 61.1808 26.6391C61.1664 26.3412 61.0906 26.1589 60.9288 25.9262C60.6516 25.5281 60.1721 25.053 58.6144 23.3786C58.0704 22.7947 57.1735 22.6633 56.4774 23.1182C53.8787 24.8158 50.5954 25.7747 47.4711 25.5718C46.5935 25.5143 45.9577 25.944 45.6946 26.6556C45.6711 26.6594 45.4107 26.712 45.3959 26.7155V25.0972H45.3961ZM45.5908 28.868V31.6752C44.9707 31.4516 44.5775 30.8781 44.5775 30.2404C44.5773 29.6198 45.0271 29.1102 45.5908 28.868ZM44.7247 17.5251C44.7247 17.9692 44.5325 18.3892 44.1974 18.6774C44.0535 18.8011 43.8895 18.8962 43.7114 18.961V16.0919C44.3421 16.3208 44.7247 16.9006 44.7247 17.5251ZM35.9146 4.39062C40.3209 4.39062 43.9057 7.97543 43.9057 12.3818V13.9591C43.858 13.9493 43.7259 13.9264 43.7083 13.9237C43.6927 13.6007 43.5996 13.4021 43.4096 13.1452C43.1272 12.763 42.6066 12.2375 41.1419 10.663C40.5888 10.0692 39.6905 9.95458 39.0049 10.4026C36.2605 12.1956 32.9312 13.0682 29.9136 12.852C29.1753 12.7962 28.4802 13.2422 28.2223 13.9399C28.1988 13.9437 27.9382 13.9963 27.9236 13.9998V12.3819H27.9234C27.9234 7.97543 31.5084 4.39062 35.9146 4.39062ZM28.1181 16.1525V18.9612C27.4997 18.7367 27.1047 18.1648 27.1047 17.525C27.1047 16.9079 27.5512 16.3962 28.1181 16.1525ZM26.2387 28.8074C26.8288 29.0222 27.2078 29.537 27.2453 30.1489C27.2926 30.8292 26.8745 31.4444 26.2387 31.6753V28.8074ZM26.141 33.8585C27.1358 33.7341 28.0489 33.2098 28.6476 32.4033L30.4924 36.1004C30.4924 36.1004 30.4924 36.1004 30.4925 36.1005C30.7081 36.5327 31.1006 36.8477 31.569 36.9648C32.0321 37.0805 32.5275 36.9919 32.9256 36.7091L33.0385 36.629L33.4721 37.2816L32.3292 44.034L23.3568 40.559V38.6389H23.3566C24.8505 37.4345 25.8412 35.7326 26.141 33.8585ZM18.5245 44.2688L15.7968 40.9019V39.8901C16.6799 40.1954 17.6342 40.3381 18.5377 40.3382C18.5379 40.3382 18.5381 40.3382 18.5383 40.3382C19.4813 40.3382 20.4207 40.1571 21.247 39.8463V40.9083L18.5245 44.2688ZM19.7628 48.1224L19.3749 48.7064H17.6746L17.2866 48.1224L18.5248 47.2431L19.7628 48.1224ZM22.6376 42.543L24.4517 43.2455L22.3814 47.3946L21.8198 46.9958C21.8192 46.9954 21.8186 46.9949 21.8181 46.9944L20.0492 45.7381L22.6376 42.543ZM12.7551 32.6379V27.6975C16.1032 27.8312 19.5653 26.8311 22.3738 25.0831C23.3159 26.0934 23.8905 26.6951 24.1291 26.9705C24.1291 29.5963 24.1291 30.6104 24.1291 32.6379C24.1291 35.7054 21.6281 38.2286 18.5383 38.2286C15.0982 38.2286 12.7551 35.5726 12.7551 32.6379ZM14.4077 42.5445L16.9969 45.7403L15.2312 46.9944C15.2302 46.9951 15.2295 46.9958 15.2285 46.9965L14.6681 47.3946L12.5977 43.2455L14.4077 42.5445ZM8.40416 67.609V52.1995C8.40416 51.617 7.93208 51.1448 7.34947 51.1448C6.76686 51.1448 6.29479 51.617 6.29479 52.1995V67.6089H2.28726C2.18911 67.6089 2.10951 67.5292 2.10951 67.4313V50.891C2.10951 47.5035 4.96377 46.2123 5.14855 46.1324L10.6218 44.0105L13.0196 48.8158C13.0196 48.8158 13.0196 48.8158 13.0197 48.8159C13.2353 49.2481 13.6278 49.5631 14.0964 49.6802C14.5594 49.796 15.0549 49.7074 15.453 49.4246L15.5659 49.3444L15.9994 49.997L13.6433 63.9183C13.6414 63.9287 13.6399 63.9393 13.6383 63.9498C13.5706 64.4408 13.7231 64.9466 14.047 65.3033L16.1427 67.6089H8.40416V67.609ZM15.7602 64.0516L18.0002 50.8159H19.0492L21.2893 64.0516L18.5248 67.0929L15.7602 64.0516ZM34.9451 67.4311C34.9451 67.5292 34.8655 67.6089 34.7675 67.6089H30.7603V52.1995C30.7603 51.617 30.2882 51.1448 29.7056 51.1448C29.123 51.1448 28.6509 51.617 28.6509 52.1995V67.6089H20.9067L23.0027 65.3031C23.3264 64.9469 23.479 64.441 23.4111 63.9498C23.4095 63.9393 23.408 63.9289 23.4061 63.9183L21.05 49.997L21.4835 49.3444L21.5964 49.4246C21.8787 49.6251 22.2128 49.7297 22.5518 49.7297C23.1705 49.7297 23.7466 49.3831 24.0298 48.8159V48.8158L26.4273 44.0107L31.904 46.1317C33.5003 46.8261 34.945 48.617 34.945 50.891V67.4311H34.9451ZM35.9999 47.0584C35.563 46.3545 34.9814 45.7031 34.2802 45.1472L35.4729 38.1006H36.5218L37.715 45.1508C36.9951 45.7225 36.4211 46.3798 35.9999 47.0584ZM43.3493 67.609V52.1995C43.3493 51.617 42.8772 51.1448 42.2946 51.1448C41.712 51.1448 41.2399 51.617 41.2399 52.1995V67.6089H37.2325C37.1345 67.6089 37.0548 67.5292 37.0548 67.4313V50.891C37.0548 49.6372 37.4479 48.4824 38.2855 47.5122C38.8439 46.8717 39.5846 46.353 40.0939 46.1324L45.5672 44.0104L47.965 48.8158C47.965 48.8158 47.965 48.8158 47.9651 48.8159C48.1807 49.2481 48.5732 49.5631 49.0416 49.6802C49.5047 49.796 50.0001 49.7074 50.3982 49.4246L50.5111 49.3444L50.9447 49.997L48.5885 63.9183C48.5867 63.9287 48.5851 63.9393 48.5836 63.9498C48.5158 64.4408 48.6684 64.9466 48.9923 65.3033L51.088 67.6089H43.3493V67.609ZM50.7053 64.0518L52.9455 50.816H53.9944L56.2346 64.0518L53.4699 67.0931L50.7053 64.0518Z" fill="#26ad50"/>
</g>
<defs>
<clipPath id="clip0">
<rect width="72" height="72" fill="white"/>
</clipPath>
</defs>
</svg>
