<svg width="72" height="72" viewBox="0 0 72 72" fill="none" xmlns="http://www.w3.org/2000/svg">
<path d="M20.1726 0L17.463 2.70959C17.2553 2.59189 17.0216 2.52795 16.783 2.52333H2.00075C1.1844 2.52333 0.522522 3.18521 0.522522 4.00156V18.7838C0.522522 19.6002 1.1844 20.262 2.00075 20.262H16.783C17.5994 20.262 18.2612 19.6002 18.2612 18.7838V6.09177L22.2628 2.09021L20.1726 0ZM15.3048 17.3056H3.47898V5.47979H14.6928L9.39188 10.7807L7.48054 8.86936L5.39032 10.9596L8.34678 13.916C8.92402 14.4931 9.85974 14.4931 10.437 13.916L15.3048 9.04822V17.3056Z" fill="#26ad50"/>
<path d="M20.1726 26.6079L17.463 29.3175C17.2553 29.1998 17.0216 29.1359 16.783 29.1312H2.00075C1.1844 29.1312 0.522522 29.7931 0.522522 30.6095V45.3917C0.522522 46.2081 1.1844 46.87 2.00075 46.87H16.783C17.5994 46.87 18.2612 46.2081 18.2612 45.3917V32.6997L22.2628 28.6981L20.1726 26.6079ZM15.3048 43.9135H3.47898V32.0877H14.6928L9.39188 37.3886L7.48054 35.4773L5.39032 37.5675L8.34678 40.5239C8.92402 41.101 9.85974 41.101 10.437 40.5239L15.3048 35.6561V43.9135Z" fill="#26ad50"/>
<path d="M20.1726 51.7378L17.463 54.4474C17.2553 54.3297 17.0216 54.2657 16.783 54.2611H2.00075C1.1844 54.2611 0.522522 54.923 0.522522 55.7394V70.5216C0.522522 71.338 1.1844 71.9999 2.00075 71.9999H16.783C17.5994 71.9999 18.2612 71.338 18.2612 70.5216V57.8296L22.2628 53.828L20.1726 51.7378ZM15.3048 69.0434H3.47898V57.2176H14.6928L9.39188 62.5185L7.48054 60.6072L5.39032 62.6974L8.34678 65.6538C8.92402 66.2309 9.85974 66.2309 10.437 65.6538L15.3048 60.786V69.0434Z" fill="#26ad50"/>
<path d="M71.4775 14.3491H28.6089V17.3056H71.4775V14.3491Z" fill="#26ad50"/>
<path d="M71.4775 5.47998H28.6089V8.43644H71.4775V5.47998Z" fill="#26ad50"/>
<path d="M71.4775 40.957H28.6089V43.9135H71.4775V40.957Z" fill="#26ad50"/>
<path d="M71.4775 32.0879H28.6089V35.0443H71.4775V32.0879Z" fill="#26ad50"/>
<path d="M71.4775 66.0869H28.6089V69.0434H71.4775V66.0869Z" fill="#26ad50"/>
<path d="M71.4775 57.2178H28.6089V60.1742H71.4775V57.2178Z" fill="#26ad50"/>
</svg>
