<svg width="532" height="420" viewBox="0 0 532 420" fill="none" xmlns="http://www.w3.org/2000/svg">
<circle cx="71.664" cy="348.214" r="71.664" fill="#FECB4B"/>
<path d="M107.522 379.401H107.487V332.29C107.487 332.222 107.487 332.154 107.476 332.087C107.476 332.076 107.476 332.064 107.476 332.053C107.464 332.008 107.464 331.952 107.453 331.907C107.453 331.885 107.441 331.85 107.43 331.828C107.418 331.795 107.418 331.761 107.407 331.727C107.395 331.693 107.383 331.66 107.372 331.626C107.36 331.603 107.36 331.581 107.349 331.559C107.337 331.524 107.314 331.491 107.303 331.457C107.291 331.434 107.279 331.412 107.268 331.39C107.245 331.356 107.233 331.322 107.21 331.299C107.199 331.277 107.187 331.255 107.175 331.233C107.152 331.209 107.141 331.176 107.118 331.154C107.095 331.131 107.084 331.108 107.06 331.086C107.037 331.063 107.025 331.041 107.002 331.019C106.98 330.996 106.956 330.962 106.933 330.94C106.921 330.918 106.898 330.906 106.876 330.894C106.852 330.872 106.817 330.839 106.794 330.816C106.783 330.804 106.76 330.793 106.736 330.771C106.702 330.748 106.668 330.726 106.645 330.704C106.621 330.692 106.598 330.681 106.587 330.67C106.552 330.647 106.517 330.625 106.494 330.614C106.46 330.603 106.437 330.579 106.401 330.568C106.379 330.557 106.344 330.546 106.321 330.535C106.275 330.512 106.229 330.501 106.182 330.489C106.171 330.489 106.159 330.478 106.136 330.478C106.078 330.456 106.009 330.445 105.951 330.434H105.94L96.2956 328.465V309.117C96.2956 309.049 96.2956 308.982 96.2842 308.914C96.2842 308.903 96.2842 308.892 96.2727 308.869C96.2613 308.824 96.2613 308.767 96.2498 308.723C96.2383 308.689 96.2383 308.666 96.2269 308.644C96.2154 308.61 96.2154 308.577 96.204 308.554C96.1925 308.52 96.1802 308.487 96.1687 308.452C96.1573 308.43 96.1573 308.408 96.1458 308.385C96.1344 308.351 96.1115 308.318 96.1 308.273C96.0886 308.251 96.0762 308.227 96.0648 308.216C96.0419 308.183 96.0304 308.149 96.0075 308.115C95.996 308.093 95.9846 308.07 95.9722 308.059C95.9493 308.036 95.9379 308.003 95.915 307.98C95.8921 307.958 95.8806 307.936 95.8568 307.912C95.8339 307.89 95.8224 307.868 95.7995 307.846C95.7766 307.822 95.7528 307.8 95.7299 307.767C95.707 307.744 95.6956 307.733 95.6727 307.721C95.6489 307.699 95.6145 307.665 95.5916 307.643C95.5687 307.632 95.5572 307.621 95.5334 307.597C95.4991 307.575 95.4762 307.553 95.4418 307.531C95.418 307.519 95.3951 307.507 95.3722 307.496C95.3378 307.474 95.314 307.463 95.2797 307.44C95.2453 307.429 95.2224 307.406 95.1871 307.395C95.1642 307.384 95.1413 307.373 95.1061 307.361C95.0603 307.339 95.0021 307.328 94.9563 307.306C94.9448 307.306 94.9334 307.294 94.9219 307.294C94.8523 307.271 94.7827 307.26 94.714 307.238L68.0928 301.816C68.0346 301.804 67.9773 301.793 67.9306 301.793C67.9192 301.793 67.9077 301.793 67.8963 301.793C67.8619 301.793 67.8266 301.793 67.7923 301.793C67.7579 301.793 67.7227 301.793 67.6998 301.793C67.6998 301.793 67.6998 301.793 67.6883 301.793C67.6539 301.793 67.6301 301.793 67.5958 301.793C67.5614 301.793 67.5262 301.793 67.5033 301.793C67.4574 301.793 67.4222 301.804 67.3764 301.816C67.3535 301.816 67.3306 301.816 67.3191 301.827H67.3068H67.2953L45.3865 306C45.3283 306.011 45.2825 306.023 45.2243 306.034C45.2129 306.034 45.2014 306.034 45.19 306.046C45.1442 306.057 45.0975 306.079 45.0516 306.09C45.0402 306.09 45.0287 306.102 45.0049 306.102C44.9706 306.113 44.9362 306.135 44.9133 306.146C44.6586 306.271 44.4392 306.428 44.2665 306.63C44.2665 306.641 44.2542 306.641 44.2542 306.653C44.2427 306.676 44.2313 306.687 44.2084 306.709C44.0815 306.877 43.9775 307.069 43.9079 307.271C43.9079 307.283 43.8965 307.294 43.8965 307.294C43.885 307.317 43.885 307.339 43.8735 307.361C43.8621 307.395 43.8506 307.44 43.8392 307.474V307.507C43.8268 307.564 43.8154 307.609 43.8154 307.665V307.688C43.8154 307.744 43.8039 307.8 43.8039 307.857V322.751L36.1697 324.213C36.1124 324.224 36.0542 324.235 35.997 324.258C35.9855 324.258 35.9855 324.258 35.9741 324.269C35.9159 324.28 35.8701 324.303 35.8119 324.325C35.8005 324.325 35.789 324.337 35.7776 324.337C35.7423 324.348 35.708 324.37 35.6736 324.381C35.4427 324.494 35.2348 324.652 35.0612 324.832C35.0497 324.843 35.0383 324.865 35.0154 324.876C35.0039 324.888 34.9916 324.91 34.9801 324.933C34.8303 325.124 34.7149 325.348 34.6453 325.585C34.6338 325.63 34.6224 325.663 34.6109 325.709V325.731C34.5995 325.788 34.588 325.844 34.588 325.9V325.911C34.5766 325.967 34.5766 326.035 34.5766 326.092V379.412H34.5413C33.4557 379.412 32.5781 380.267 32.5781 381.325C32.5781 382.382 33.4557 383.237 34.5413 383.237H107.534C108.619 383.237 109.497 382.382 109.497 381.325C109.486 380.256 108.608 379.401 107.522 379.401V379.401ZM67.0301 326.35C67.1799 326.407 67.3535 326.44 67.5147 326.451L103.561 333.819V340.209L58.4953 330.996V324.606L67.0301 326.35ZM103.561 350.153L58.4953 340.94V334.213L103.561 343.426V350.153ZM103.561 353.371V360.03L58.4953 350.885V344.158L103.561 353.371ZM58.4953 354.101L103.561 363.259V369.985L58.4953 360.84V354.101ZM103.561 373.203V379.401H58.4953V364.046L103.561 373.203ZM69.64 322.975V306.034L92.3578 310.657V327.621L69.64 322.975ZM47.7074 309.432L65.7137 306V322.176L56.9357 320.388C56.9128 320.388 56.8784 320.377 56.8546 320.377C56.8317 320.377 56.7973 320.366 56.7744 320.366C56.7277 320.354 56.6819 320.354 56.6352 320.354C56.6123 320.354 56.5894 320.354 56.5665 320.354C56.5083 320.354 56.451 320.354 56.3929 320.354C56.3814 320.354 56.37 320.354 56.3585 320.354C56.2889 320.366 56.2078 320.366 56.1391 320.388L47.7074 321.997V309.432ZM38.4915 327.655L45.8367 326.249C46.0332 326.238 46.2297 326.204 46.4024 326.136L54.568 324.573V330.985L41.3438 333.651C40.4662 333.83 39.9119 334.663 40.0855 335.507C40.2467 336.249 40.9164 336.766 41.6672 336.766C41.7711 336.766 41.8866 336.755 41.9905 336.733L54.5566 334.202V340.929L41.3323 343.595C40.4547 343.775 39.9005 344.607 40.074 345.451C40.2353 346.193 40.905 346.711 41.6557 346.711C41.7597 346.711 41.8751 346.7 41.9791 346.677L54.5451 344.146V350.885L41.3209 353.55C40.4432 353.73 39.889 354.563 40.0626 355.407C40.2238 356.149 40.8935 356.666 41.6442 356.666C41.7482 356.666 41.8637 356.655 41.9676 356.633L54.5337 354.101V360.829L41.3094 363.495C40.4318 363.675 39.8775 364.507 40.0503 365.351C40.2124 366.093 40.8821 366.611 41.6328 366.611C41.7368 366.611 41.8522 366.6 41.9562 366.577L54.568 364.046V379.401H38.4915V327.655Z" fill="white"/>
<path d="M88.2801 316.676L74.4206 313.897C73.543 313.718 72.6882 314.269 72.5155 315.123C72.3305 315.978 72.8962 316.811 73.7738 316.98L87.6334 319.758C87.7488 319.78 87.8528 319.792 87.9568 319.792C88.7075 319.792 89.3772 319.275 89.5393 318.532C89.7235 317.688 89.1578 316.856 88.2801 316.676Z" fill="white"/>
<circle cx="459.385" cy="348.214" r="71.664" fill="#FECB4B"/>
<path d="M488.395 332.613C491.036 332.613 493.186 330.472 493.186 327.84V321.659C493.186 319.699 492.008 317.962 490.183 317.231L454.26 302.596C453.09 302.126 451.825 302.134 450.685 302.589C450.658 302.6 451.286 302.344 414.744 317.231C412.92 317.962 411.742 319.7 411.742 321.659V327.84C411.742 330.472 413.891 332.614 416.533 332.614H419.407V368.573H416.533C413.891 368.573 411.742 370.715 411.742 373.347V378.916C411.742 381.548 413.891 383.689 416.533 383.689H488.395C491.036 383.689 493.185 381.548 493.185 378.916V373.347C493.185 370.715 491.036 368.573 488.395 368.573H485.52V332.614H488.395V332.613ZM488.395 373.346C488.398 379.043 488.411 378.915 488.395 378.915H416.533V373.346H488.395ZM424.198 368.573V332.613H429.628V368.573H424.198ZM434.419 368.573V332.613H444.958V368.573H434.419ZM449.749 368.573V332.613H455.179V368.573H449.749ZM459.97 368.573V332.613H470.509V368.573H459.97ZM475.3 368.573V332.613H480.73V368.573H475.3ZM416.533 327.84C416.533 321.182 416.526 321.662 416.55 321.652L452.464 307.021L488.378 321.652C488.403 321.662 488.395 321.198 488.395 327.84C487.599 327.84 417.479 327.84 416.533 327.84Z" fill="white"/>
<path d="M452.466 312.565C451.143 312.565 450.07 313.634 450.07 314.952V320.043C450.07 321.361 451.143 322.43 452.466 322.43C453.789 322.43 454.861 321.361 454.861 320.043V314.952C454.861 313.634 453.789 312.565 452.466 312.565V312.565Z" fill="white"/>
<circle cx="265.525" cy="71.664" r="71.664" fill="#FECB4B"/>
<path d="M260.514 68.9454C267.415 68.9454 273.39 66.4703 278.273 61.587C283.155 56.7045 285.63 50.7305 285.63 43.8288C285.63 36.9295 283.155 30.9546 278.272 26.0705C273.389 21.1888 267.414 18.7137 260.514 18.7137C253.613 18.7137 247.639 21.1888 242.757 26.0713C237.874 30.9538 235.398 36.9287 235.398 43.8288C235.398 50.7305 237.874 56.7053 242.757 61.5878C247.641 66.4695 253.615 68.9454 260.514 68.9454V68.9454Z" fill="white"/>
<path d="M304.134 98.3604C303.994 96.3557 303.71 94.1689 303.292 91.8597C302.871 89.5331 302.328 87.3338 301.678 85.3236C301.006 83.2459 300.093 81.1941 298.965 79.2279C297.793 77.1871 296.417 75.41 294.873 73.9477C293.259 72.4179 291.282 71.1879 288.996 70.2907C286.718 69.3983 284.194 68.9462 281.493 68.9462C280.433 68.9462 279.407 69.3771 277.427 70.6542C276.208 71.4414 274.782 72.3519 273.19 73.359C271.829 74.2177 269.986 75.0223 267.708 75.7507C265.487 76.4626 263.231 76.8237 261.005 76.8237C258.778 76.8237 256.523 76.4626 254.299 75.7507C252.024 75.023 250.181 74.2185 248.822 73.3598C247.245 72.3621 245.818 71.4516 244.581 70.6534C242.603 69.3763 241.576 68.9454 240.516 68.9454C237.815 68.9454 235.291 69.3983 233.014 70.2915C230.73 71.1871 228.752 72.4171 227.136 73.9485C225.593 75.4116 224.216 77.1879 223.046 79.2279C221.918 81.1941 221.005 83.2451 220.333 85.3244C219.684 87.3346 219.141 89.5331 218.719 91.8597C218.302 94.1658 218.018 96.3533 217.878 98.3627C217.74 100.331 217.67 102.374 217.67 104.438C217.67 109.809 219.394 114.156 222.793 117.363C226.151 120.527 230.593 122.132 235.996 122.132H286.018C291.421 122.132 295.862 120.527 299.22 117.363C302.62 114.159 304.344 109.81 304.344 104.437C304.343 102.364 304.273 100.32 304.134 98.3604V98.3604Z" fill="white"/>
<path d="M169.001 227.5C165.001 204.5 171.301 157.8 228.501 155C238.5 155 262.6 160.1 279 188.5C292.333 184.5 322.6 184.8 337 218C354.5 217.333 391 226.7 397 269.5C398.5 288.5 385 326.3 337 325.5H171C156.5 325.5 127.4 312.1 127 280.5C125.5 265.167 131.802 233.1 169.001 227.5Z" fill="#3DB562"/>
<path d="M191.971 292.31C191.552 292.31 191.159 292.153 190.793 291.839C190.479 291.472 190.322 291.08 190.322 290.661C190.322 290.347 190.348 290.111 190.4 289.954L208.853 239.543C209.01 238.914 209.35 238.391 209.874 237.972C210.397 237.553 211.078 237.344 211.915 237.344H223.537C224.374 237.344 225.055 237.553 225.578 237.972C226.102 238.391 226.442 238.914 226.599 239.543L244.974 289.954L245.131 290.661C245.131 291.08 244.947 291.472 244.581 291.839C244.267 292.153 243.874 292.31 243.403 292.31H233.745C232.488 292.31 231.651 291.76 231.232 290.661L228.17 282.652H207.204L204.22 290.661C203.801 291.76 202.938 292.31 201.629 292.31H191.971ZM225.029 271.344L217.726 250.614L210.424 271.344H225.029ZM256.816 292.31C256.293 292.31 255.822 292.127 255.403 291.76C255.037 291.341 254.853 290.87 254.853 290.347V239.307C254.853 238.731 255.037 238.26 255.403 237.894C255.822 237.527 256.293 237.344 256.816 237.344H278.803C285.503 237.344 290.764 238.888 294.586 241.977C298.46 245.065 300.397 249.567 300.397 255.483C300.397 261.346 298.486 265.769 294.664 268.753C290.843 271.685 285.556 273.15 278.803 273.15H269.459V290.347C269.459 290.923 269.249 291.394 268.83 291.76C268.464 292.127 267.993 292.31 267.417 292.31H256.816ZM278.41 262.314C280.713 262.314 282.52 261.738 283.828 260.587C285.137 259.383 285.791 257.629 285.791 255.326C285.791 253.179 285.163 251.478 283.907 250.222C282.703 248.913 280.871 248.259 278.41 248.259H269.223V262.314H278.41ZM313.414 292.31C312.891 292.31 312.42 292.127 312.001 291.76C311.634 291.341 311.451 290.87 311.451 290.347V239.307C311.451 238.731 311.634 238.26 312.001 237.894C312.42 237.527 312.891 237.344 313.414 237.344H323.936C324.512 237.344 324.983 237.527 325.35 237.894C325.768 238.26 325.978 238.731 325.978 239.307V290.347C325.978 290.923 325.768 291.394 325.35 291.76C324.983 292.127 324.512 292.31 323.936 292.31H313.414Z" fill="white"/>
<path fill-rule="evenodd" clip-rule="evenodd" d="M193.241 145.696L193.49 125L175.043 135.137L181.285 138.759C181.199 138.855 181.117 138.956 181.04 139.064L92.6414 262.908C91.5359 264.456 91.8952 266.608 93.444 267.714C94.9927 268.819 97.1444 268.46 98.2499 266.911L186.649 143.067C186.856 142.777 187.012 142.465 187.118 142.144L193.241 145.696Z" fill="#F03B36"/>
<path fill-rule="evenodd" clip-rule="evenodd" d="M437.935 245.508L438.203 267.855L418.349 256.909L425.106 252.976C424.943 252.825 424.792 252.655 424.656 252.468L337.656 132.468C336.539 130.927 336.883 128.773 338.423 127.656C339.964 126.539 342.118 126.883 343.235 128.423L430.235 248.423C430.513 248.806 430.7 249.227 430.801 249.661L437.935 245.508Z" fill="#F03B36"/>
<path fill-rule="evenodd" clip-rule="evenodd" d="M189.305 377.73L170.875 365.091L191.251 355.152L190.56 363.17C190.71 363.15 190.862 363.139 191.018 363.138L355.124 362.274C357.027 362.264 358.578 363.798 358.588 365.701C358.598 367.604 357.064 369.154 355.161 369.164L191.054 370.029C190.68 370.031 190.321 369.973 189.983 369.865L189.305 377.73Z" fill="#F03B36"/>
</svg>
