<svg width="1031" height="790" viewBox="0 0 1031 790" fill="none" xmlns="http://www.w3.org/2000/svg">
<g clip-path="url(#clip0)">
<path d="M548.363 97.8628L19.5449 784.183H787.038L905.448 212.287" fill="#F3F5FD"/>
<path d="M1030.1 373.04H756.285C757.835 362.64 763.524 352.996 772.218 348.29C782.971 342.466 796.039 344.185 808.172 345.69C820.305 347.195 833.694 348.034 843.652 340.948C848.662 337.381 852.206 332.183 856.264 327.558C867.858 314.326 886.142 305.275 903.104 309.947C911.641 312.297 918.926 317.793 927.019 321.383C935.523 325.139 944.819 326.753 954.091 326.083C963.651 325.375 973.164 322.247 982.647 323.65C994.669 325.439 1004.52 334.263 1011.65 344.109C1018.4 353.429 1023.22 362.475 1030.1 373.04Z" fill="#56CCF2"/>
<path d="M360.786 374.752H9.20001C7.59209 371.635 6.65463 368.216 6.44796 364.715C6.24128 361.213 6.76997 357.708 8.00001 354.423C9.4644 350.743 11.7852 347.465 14.7699 344.862C17.7546 342.258 21.3172 340.403 25.162 339.452C36.64 336.728 49.614 342.316 60.077 336.876C68.196 332.65 71.947 323.112 73.677 314.133C75.407 305.154 75.893 295.667 80.254 287.625C87.583 274.125 104.982 268.093 120.006 271.311C135.03 274.529 147.506 285.474 155.723 298.454C159.102 303.792 162.172 309.823 167.741 312.803C174.17 316.239 182.173 314.603 188.776 311.525C195.379 308.447 201.376 304.025 208.288 301.737C222.245 297.118 238.932 302.758 247.23 314.897C253.165 323.574 255.651 335.521 264.97 340.383C268.811 342.383 273.262 342.804 277.585 342.907C294.837 343.325 312.57 339.307 329.077 344.327C336.332 346.645 342.961 350.592 348.457 355.865C353.953 361.138 358.17 367.599 360.786 374.752Z" fill="#56CCF2"/>
<path d="M782.522 197.526C791.723 167.595 764.412 132.642 721.521 119.458C678.63 106.273 636.401 119.85 627.201 149.782C618 179.714 645.311 214.666 688.202 227.85C731.093 241.035 773.321 227.458 782.522 197.526Z" fill="#F2C94C"/>
<path d="M931.826 218.431C928.37 229.673 904.958 233.72 869.077 231.305C825.833 228.405 764.47 216.105 698.077 195.696C631.684 175.287 574.025 151 536.609 129.114C505.564 110.95 488.472 94.453 491.928 83.214C495.993 69.991 527.687 66.722 574.822 72.224C616.022 77.033 669.022 88.539 725.667 105.953C782.312 123.367 832.632 143.618 869.417 162.78C911.505 184.7 935.89 205.208 931.826 218.431Z" fill="#C1D8ED"/>
<path d="M867.484 196.228C827.184 193.522 769.992 182.06 708.118 163.041C646.244 144.022 592.499 121.384 557.631 100.988C565.926 81.1585 578.025 63.1455 593.244 47.966C634.683 6.63099 696.637 -11.093 756.033 7.16599C815.429 25.425 856.733 74.888 867.8 132.366C871.862 153.47 871.754 175.165 867.484 196.228Z" fill="#F2C94C"/>
<path d="M555.285 249.6L560.841 242.344C560.841 242.344 555.472 231.812 543.79 231.824C539.919 231.824 539.854 236.204 541.001 236.897C544.791 239.186 548.725 241.011 550.716 244.253C549.016 243.929 546.66 243.624 546.499 244.378C546.075 246.364 555.285 249.6 555.285 249.6Z" fill="#EDA59F"/>
<path d="M575.627 316.355L561.19 307.714L579.67 276.839L549.883 249.616L561.233 237.196L596.092 269.055C597.524 270.363 598.459 272.126 598.74 274.045C599.022 275.964 598.631 277.921 597.635 279.585L575.627 316.355Z" fill="#2F3235"/>
<path d="M523.883 522.2L521.848 506.124C527.931 505.353 535.227 504.377 536.406 504.141L536.221 504.184L540.144 519.907C539.673 520.02 538.238 520.378 523.883 522.2Z" fill="#EDA59F"/>
<path d="M521.947 543.283C522.037 543.71 522.213 544.113 522.465 544.468C522.718 544.823 523.041 545.123 523.414 545.347C523.787 545.572 524.203 545.718 524.635 545.775C525.067 545.831 525.506 545.799 525.925 545.678C526.505 545.511 527.026 545.182 527.426 544.729C527.825 544.276 528.087 543.718 528.181 543.121L530.581 523.375C530.626 522.993 530.588 522.606 530.469 522.239C530.351 521.873 530.155 521.537 529.894 521.253C527.611 519.075 526.086 516.221 525.545 513.112C525.222 510.671 525.592 508.187 526.613 505.945C526.718 505.745 526.765 505.519 526.746 505.293C526.728 505.067 526.646 504.852 526.51 504.671C526.374 504.49 526.189 504.352 525.977 504.272C525.765 504.192 525.535 504.174 525.313 504.22L516.278 506.074C516.011 506.129 515.758 506.236 515.533 506.389C515.308 506.541 515.115 506.737 514.966 506.964C514.817 507.192 514.714 507.447 514.663 507.714C514.612 507.981 514.615 508.256 514.671 508.522L521.947 543.283Z" fill="#C1D8ED"/>
<path d="M679.501 569.5C679.279 563.371 678.96 556.015 678.832 554.822L678.857 555.008L694.869 552.514C694.944 552.994 695.169 554.455 695.695 568.914L679.501 569.5Z" fill="#EDA59F"/>
<path d="M716.526 572.732C716.959 572.681 717.376 572.542 717.753 572.322C718.129 572.102 718.456 571.808 718.713 571.456C718.971 571.104 719.153 570.704 719.248 570.278C719.344 569.853 719.35 569.413 719.268 568.985C719.154 568.392 718.872 567.844 718.457 567.405C718.041 566.966 717.509 566.656 716.923 566.509L697.472 562.35C697.095 562.271 696.706 562.274 696.33 562.359C695.955 562.445 695.603 562.61 695.297 562.844C692.922 564.923 689.943 566.185 686.797 566.444C684.336 566.547 681.895 565.956 679.754 564.738C679.564 564.615 679.343 564.549 679.117 564.547C678.89 564.545 678.668 564.608 678.476 564.727C678.284 564.847 678.129 565.018 678.031 565.222C677.933 565.426 677.894 565.653 677.92 565.878L678.956 575.043C678.987 575.314 679.07 575.575 679.202 575.813C679.334 576.051 679.512 576.26 679.725 576.429C679.938 576.599 680.183 576.724 680.444 576.798C680.706 576.873 680.98 576.895 681.25 576.863L716.526 572.732Z" fill="#C1D8ED"/>
<path d="M682.232 460.8C673.967 445.277 624.942 380.082 619.683 373.038L568.111 400.5C568.111 400.5 582.964 476.766 583.154 479L530.801 499.5L537.622 527.225L605.283 507.991C609.008 507.221 612.345 505.168 614.711 502.189C617.076 499.209 618.32 495.494 618.226 491.691C618.226 491.691 610.291 423.669 610.179 422.399L652.411 468.922L673.623 561.212L701.885 557.159C701.885 557.159 685.574 467.079 682.232 460.8Z" fill="#55AFFC"/>
<path d="M460.623 284.771L453.814 290.871C453.814 290.871 442.763 284.605 441.879 272.957C441.586 269.097 445.945 268.697 446.724 269.787C449.297 273.387 451.556 278.893 454.942 280.629C454.488 278.956 454.004 276.629 454.742 276.415C456.689 275.837 460.623 284.771 460.623 284.771Z" fill="#EDA59F"/>
<path d="M564.441 406.353C559.191 399.882 560.981 389.712 551.611 376.492C542.241 363.272 518.101 354.982 520.991 338.042C521.831 333.132 525.491 327.742 531.541 323.452C534.491 326.663 555.961 311.492 553.671 307.913C554.501 307.343 555.141 306.902 555.551 306.643C577.081 292.743 584.741 323.022 596.91 340.632C611.141 361.252 619.391 361.192 621.101 369.373C622.751 377.3 572.691 416.532 564.441 406.353Z" fill="#2F3235"/>
<path d="M552.141 322.413C544.751 328.413 534.491 326.663 531.541 323.452C531.551 323.442 531.551 323.433 531.561 323.433C539.191 318.042 549.171 310.992 553.671 307.913C555.961 311.492 557.681 317.913 552.141 322.413Z" fill="#EDA59F"/>
<path d="M528.366 347.158L482.214 334.758C480.307 334.245 478.641 333.077 477.508 331.458L447.908 289.238L461.685 279.579L489.531 319.3L532.731 330.908L528.366 347.158Z" fill="#2F3235"/>
<path d="M534.349 323.855C534.349 323.855 537.968 318.182 528.832 304.755L538.396 296.717C538.396 296.717 544.351 310.026 552.03 310.972L534.349 323.855Z" fill="#EDA59F"/>
<g opacity="0.15">
<path opacity="0.15" d="M548.344 309.569L535.617 307.807L542.549 303.784C544.103 306.057 546.069 308.019 548.344 309.569Z" fill="black"/>
</g>
<path d="M519.673 302.725C522.834 306.579 527.46 309.304 532.011 308.549C537.044 307.851 541.83 305.933 545.952 302.961C557.108 295.373 539.72 270.081 531.238 268.061C522.756 266.041 508.308 278.55 511.222 288.316C512.729 293.368 516.664 299.056 519.673 302.725Z" fill="#EDA59F"/>
<path d="M543.754 273.827C543.754 273.827 530.748 256.218 512.612 272.627C509.759 275.42 507.864 279.046 507.2 282.983C505.423 281.769 503.322 281.116 501.169 281.107C499.016 281.098 496.91 281.734 495.122 282.933C493.334 284.133 491.947 285.84 491.138 287.835C490.33 289.83 490.138 292.022 490.586 294.127C491.035 296.233 492.104 298.156 493.656 299.648C495.207 301.14 497.171 302.133 499.292 302.5C501.413 302.866 503.596 302.588 505.558 301.702C507.52 300.817 509.172 299.363 510.3 297.53C510.472 297.79 510.646 298.05 510.833 298.31C518.741 309.3 531.8 309.64 531.8 309.64C531.8 309.64 533.293 306.177 521.646 287.791C526.375 285.621 537.008 280.33 543.754 273.827Z" fill="#0F1011"/>
<path d="M533.995 290.095C534.61 290.095 535.109 289.596 535.109 288.981C535.109 288.366 534.61 287.867 533.995 287.867C533.38 287.867 532.881 288.366 532.881 288.981C532.881 289.596 533.38 290.095 533.995 290.095Z" fill="#0F1011"/>
<path d="M541.286 285.135C541.901 285.135 542.4 284.636 542.4 284.021C542.4 283.406 541.901 282.907 541.286 282.907C540.671 282.907 540.172 283.406 540.172 284.021C540.172 284.636 540.671 285.135 541.286 285.135Z" fill="#0F1011"/>
<path d="M538.952 282.5C538.836 282.5 538.723 282.461 538.631 282.39C538.539 282.319 538.473 282.219 538.444 282.107C538.415 281.994 538.425 281.875 538.471 281.768C538.517 281.661 538.597 281.573 538.699 281.517L541.285 280.094C541.406 280.039 541.542 280.032 541.668 280.074C541.794 280.116 541.899 280.204 541.962 280.32C542.026 280.437 542.043 280.573 542.01 280.701C541.977 280.829 541.897 280.94 541.785 281.012L539.201 282.43C539.125 282.474 539.04 282.498 538.952 282.5Z" fill="#0F1011"/>
<path d="M530.65 288.477C530.545 288.477 530.443 288.445 530.356 288.386C530.269 288.327 530.202 288.243 530.164 288.146C530.125 288.048 530.117 287.941 530.14 287.839C530.163 287.736 530.216 287.643 530.292 287.571L532.479 285.528C532.582 285.44 532.714 285.395 532.849 285.402C532.985 285.409 533.111 285.469 533.204 285.568C533.296 285.666 533.347 285.797 533.345 285.932C533.343 286.068 533.289 286.197 533.194 286.293L531.007 288.336C530.91 288.427 530.783 288.477 530.65 288.477Z" fill="#0F1011"/>
<path d="M538.77 296.36C540.926 295.407 542.892 294.07 544.57 292.413C544.57 292.413 545.885 294.781 543.185 296.613C540.485 298.445 538.77 296.36 538.77 296.36Z" fill="white"/>
<path d="M530.295 294.209C530.649 294.722 530.897 295.299 531.026 295.908C531.155 296.517 531.162 297.145 531.048 297.757C530.933 298.369 530.699 298.952 530.358 299.473C530.017 299.994 529.577 300.443 529.062 300.793C528.547 301.143 527.969 301.388 527.359 301.513C526.749 301.639 526.121 301.643 525.51 301.525C524.898 301.407 524.317 301.169 523.798 300.825C523.279 300.482 522.833 300.039 522.485 299.522C522.126 299.013 521.873 298.436 521.742 297.827C521.61 297.218 521.602 296.589 521.719 295.977C521.835 295.364 522.074 294.782 522.42 294.264C522.766 293.746 523.213 293.303 523.735 292.961C526.609 291.206 528.828 292.053 530.295 294.209Z" fill="#EDA59F"/>
<g opacity="0.15">
<path opacity="0.15" d="M541.344 291.919C541.264 291.965 541.169 291.981 541.078 291.963C540.987 291.946 540.906 291.896 540.849 291.823C540.792 291.75 540.763 291.659 540.767 291.566C540.772 291.474 540.81 291.386 540.874 291.319L542.501 289.6L539.382 287.311C539.302 287.25 539.249 287.16 539.234 287.06C539.22 286.96 539.245 286.859 539.305 286.778C539.365 286.696 539.454 286.642 539.553 286.625C539.652 286.609 539.754 286.632 539.837 286.69L543.307 289.237C543.351 289.269 543.387 289.311 543.414 289.358C543.441 289.406 543.457 289.459 543.462 289.513C543.467 289.567 543.46 289.622 543.443 289.674C543.425 289.725 543.396 289.772 543.359 289.812L541.432 291.85C541.406 291.877 541.376 291.9 541.344 291.919Z" fill="black"/>
</g>
<path d="M111.2 590.785C110.887 591.415 110.565 592.042 110.245 592.669C109.379 594.374 108.481 596.072 107.553 597.761C107.253 598.309 106.962 598.861 106.653 599.405C105.437 601.58 104.177 603.743 102.873 605.893C102.726 606.136 102.573 606.377 102.423 606.619C101.054 608.85 99.6452 611.07 98.1772 613.274L49.4512 687H91.9762L140.706 613.27C142.174 611.07 143.581 608.848 144.949 606.619C145.1 606.374 145.255 606.131 145.404 605.887C145.499 605.73 145.604 605.574 145.694 605.417C146.901 603.423 148.057 601.417 149.183 599.4C149.488 598.855 149.783 598.307 150.083 597.761C151.008 596.068 151.908 594.368 152.783 592.661C153.101 592.036 153.422 591.411 153.733 590.784C154.827 588.584 155.892 586.371 156.894 584.143H114.36C113.358 586.374 112.3 588.583 111.2 590.785Z" fill="#9EBCEA"/>
<path d="M210.899 519.703H168.373V687.004H200.365V730.707H168.373V785.865H210.899V730.707H242.89V687.004H210.899V519.703Z" fill="#9EBCEA"/>
<path d="M324.644 744.038C324.985 744.066 325.33 744.086 325.677 744.103C325.913 744.115 326.142 744.14 326.377 744.148C326.758 744.16 327.143 744.166 327.53 744.166H370.059C369.429 744.166 368.817 744.135 368.204 744.103C367.856 744.086 367.51 744.066 367.168 744.038C366.734 744.002 366.306 743.954 365.881 743.903C365.551 743.862 365.22 743.823 364.895 743.773C364.427 743.701 363.967 743.614 363.511 743.521C363.27 743.472 363.025 743.43 362.787 743.375C362.195 743.239 361.613 743.083 361.041 742.912C360.941 742.883 360.841 742.861 360.741 742.831C360.061 742.62 359.395 742.383 358.741 742.12C358.553 742.045 358.373 741.955 358.187 741.875C357.737 741.682 357.287 741.486 356.854 741.269C356.13 740.909 355.421 740.522 354.734 740.094C354.67 740.055 354.61 740.007 354.547 739.967C353.927 739.573 353.321 739.151 352.729 738.702C352.409 738.459 352.099 738.202 351.788 737.938C351.549 737.738 351.305 737.547 351.071 737.338C350.744 737.046 350.429 736.731 350.112 736.419C349.9 736.211 349.683 736.019 349.475 735.797C349.129 735.435 348.797 735.048 348.463 734.663C348.298 734.473 348.127 734.294 347.963 734.098C347.474 733.505 346.999 732.886 346.537 732.241C346.077 731.596 345.631 730.924 345.2 730.224C345.056 729.991 344.921 729.739 344.781 729.5C344.499 729.023 344.217 728.548 343.948 728.048C343.788 727.748 343.638 727.434 343.482 727.127C343.246 726.662 343.008 726.199 342.782 725.715C342.622 725.373 342.472 725.015 342.317 724.662C342.071 724.101 341.817 723.547 341.589 722.962C341.275 722.175 340.973 721.349 340.677 720.506C340.608 720.306 340.54 720.115 340.477 719.917C340.189 719.071 339.908 718.205 339.636 717.304C339.604 717.195 339.572 717.08 339.536 716.97C339.29 716.14 339.052 715.286 338.82 714.407C338.764 714.194 338.707 713.984 338.651 713.768C338.403 712.804 338.163 711.813 337.931 710.795C337.888 710.608 337.848 710.414 337.806 710.224C337.602 709.306 337.405 708.366 337.215 707.404C337.174 707.197 337.132 706.994 337.091 706.785C336.957 706.085 336.832 705.36 336.704 704.64C336.604 704.061 336.495 703.494 336.396 702.9C336.276 702.176 336.166 701.422 336.053 700.677C335.961 700.077 335.866 699.489 335.779 698.877C335.667 698.09 335.566 697.271 335.462 696.462C335.383 695.854 335.301 695.262 335.227 694.642C335.127 693.784 335.027 692.893 334.937 692.01C334.871 691.401 334.8 690.81 334.737 690.189C334.637 689.212 334.553 688.199 334.464 687.189C334.415 686.632 334.364 686.089 334.314 685.527C334.214 684.343 334.131 683.121 334.046 681.897C334.017 681.475 333.983 681.071 333.955 680.645C333.846 678.983 333.746 677.286 333.655 675.554C333.638 675.208 333.626 674.845 333.609 674.497C333.543 673.097 333.478 671.688 333.426 670.241C333.42 670.08 333.416 669.911 333.41 669.749C333.358 668.26 333.314 666.746 333.276 665.208C333.263 664.679 333.252 664.143 333.241 663.608C333.214 662.354 333.192 661.084 333.176 659.799C333.168 659.264 333.161 658.733 333.155 658.193C333.137 656.413 333.125 654.614 333.125 652.775C333.125 650.861 333.137 648.985 333.157 647.135C333.163 646.535 333.174 645.947 333.183 645.351C333.201 644.113 333.22 642.88 333.247 641.671C333.262 640.985 333.281 640.312 333.299 639.636C333.327 638.536 333.359 637.443 333.399 636.367C333.423 635.682 333.449 635.002 333.475 634.328C333.517 633.28 333.562 632.245 333.61 631.222C333.641 630.568 333.671 629.913 333.705 629.269C333.762 628.217 333.823 627.184 333.887 626.158C333.923 625.584 333.956 625.003 333.995 624.438C334.078 623.205 334.169 621.999 334.265 620.805C334.291 620.477 334.314 620.138 334.34 619.813C334.467 618.296 334.604 616.81 334.75 615.357C334.771 615.157 334.793 614.963 334.814 614.763C334.936 613.578 335.065 612.415 335.201 611.274C335.241 610.945 335.28 610.615 335.32 610.29C335.479 609.004 335.644 607.738 335.82 606.508C335.841 606.365 335.863 606.227 335.883 606.085C336.045 604.979 336.214 603.9 336.389 602.84C336.439 602.54 336.489 602.24 336.54 601.94C336.74 600.778 336.94 599.64 337.16 598.53C337.177 598.445 337.194 598.364 337.211 598.279C337.411 597.248 337.628 596.247 337.847 595.266C337.908 594.995 337.968 594.726 338.03 594.459C338.195 593.739 338.369 593.043 338.544 592.349C338.65 591.927 338.754 591.499 338.863 591.087C339.048 590.387 339.241 589.719 339.435 589.051C339.535 588.715 339.626 588.367 339.726 588.038C340.003 587.126 340.289 586.243 340.583 585.388C340.606 585.322 340.627 585.251 340.649 585.188C340.983 584.229 341.327 583.305 341.682 582.417C342 581.617 342.335 580.852 342.676 580.099C342.776 579.883 342.876 579.672 342.976 579.46C343.246 578.887 343.523 578.327 343.808 577.78C343.902 577.6 343.993 577.417 344.088 577.24C344.458 576.552 344.839 575.885 345.23 575.24C345.33 575.079 345.43 574.928 345.53 574.77C345.845 574.27 346.165 573.778 346.495 573.304C346.646 573.088 346.801 572.879 346.955 572.669C347.249 572.269 347.549 571.869 347.855 571.488C348.021 571.281 348.187 571.076 348.355 570.875C348.679 570.489 349.01 570.118 349.346 569.755C349.498 569.59 349.646 569.42 349.803 569.255C350.766 568.256 351.802 567.331 352.903 566.487C353.076 566.356 353.253 566.235 353.427 566.108C353.807 565.833 354.191 565.565 354.583 565.308C354.783 565.175 354.996 565.047 355.206 564.92C355.589 564.687 355.978 564.465 356.373 564.255C356.58 564.144 356.787 564.031 356.997 563.925C357.455 563.696 357.922 563.483 358.397 563.281C358.547 563.217 358.697 563.145 358.844 563.081C359.47 562.827 360.108 562.597 360.758 562.391C360.915 562.341 361.078 562.301 361.237 562.254C361.737 562.105 362.243 561.966 362.758 561.844C362.994 561.789 363.235 561.744 363.474 561.691C363.931 561.595 364.393 561.509 364.861 561.434C365.115 561.394 365.369 561.355 365.626 561.321C366.117 561.256 366.616 561.204 367.119 561.162C367.35 561.142 367.578 561.117 367.812 561.102C368.547 561.055 369.292 561.025 370.053 561.025H327.533C326.773 561.025 326.033 561.055 325.293 561.102C325.059 561.117 324.831 561.142 324.6 561.162C324.1 561.204 323.6 561.256 323.106 561.321C322.85 561.355 322.595 561.394 322.342 561.434C321.875 561.509 321.413 561.595 320.954 561.691C320.715 561.741 320.476 561.791 320.24 561.844C319.725 561.966 319.219 562.105 318.719 562.254C318.56 562.301 318.396 562.341 318.238 562.391C317.588 562.597 316.951 562.827 316.326 563.081C316.173 563.143 316.026 563.215 315.875 563.281C315.404 563.481 314.938 563.694 314.481 563.923C314.27 564.023 314.064 564.142 313.856 564.253C313.462 564.465 313.073 564.687 312.688 564.919C312.48 565.045 312.272 565.173 312.067 565.305C311.676 565.558 311.291 565.826 310.912 566.105C310.737 566.232 310.559 566.353 310.387 566.485C309.848 566.897 309.318 567.326 308.804 567.785L308.796 567.791C308.279 568.252 307.779 568.743 307.287 569.251C307.13 569.412 306.98 569.584 306.826 569.751C306.492 570.112 306.162 570.482 305.84 570.866C305.67 571.066 305.503 571.275 305.34 571.484C305.036 571.865 304.736 572.257 304.44 572.659C304.286 572.871 304.13 573.081 303.979 573.298C303.65 573.77 303.33 574.26 303.016 574.759C302.916 574.919 302.816 575.071 302.716 575.234C302.693 575.271 302.669 575.305 302.646 575.342C302.278 575.951 301.922 576.586 301.573 577.234C301.479 577.411 301.387 577.595 301.294 577.775C301.01 578.321 300.733 578.881 300.463 579.454C300.363 579.666 300.263 579.877 300.163 580.093C299.821 580.846 299.487 581.613 299.169 582.411C299.134 582.497 299.1 582.583 299.069 582.669C298.751 583.478 298.441 584.316 298.139 585.184C298.12 585.239 298.102 585.299 298.084 585.353C297.785 586.22 297.496 587.114 297.216 588.036C297.116 588.363 297.023 588.709 296.926 589.044C296.732 589.714 296.538 590.387 296.352 591.086C296.244 591.495 296.141 591.92 296.036 592.338C295.92 592.799 295.798 593.245 295.686 593.718C295.629 593.961 295.575 594.218 295.518 594.462C295.458 594.725 295.397 594.99 295.338 595.257C295.118 596.246 294.903 597.257 294.698 598.291C294.683 598.37 294.666 598.445 294.651 598.523C294.433 599.632 294.228 600.778 294.029 601.943C293.978 602.237 293.929 602.533 293.881 602.83C293.705 603.893 293.535 604.975 293.373 606.084C293.353 606.226 293.33 606.363 293.31 606.506C293.134 607.739 292.968 609.006 292.81 610.294C292.77 610.615 292.732 610.94 292.694 611.264C292.557 612.405 292.428 613.566 292.306 614.749C292.284 614.949 292.262 615.149 292.241 615.361C292.233 615.437 292.225 615.51 292.216 615.587C292.08 616.965 291.951 618.373 291.831 619.811C291.804 620.136 291.781 620.475 291.756 620.803C291.656 621.997 291.568 623.203 291.486 624.436C291.447 624.999 291.414 625.578 291.378 626.15C291.315 627.181 291.252 628.219 291.196 629.276C291.162 629.913 291.132 630.56 291.102 631.207C291.054 632.236 291.008 633.276 290.965 634.329C290.939 635.003 290.914 635.682 290.89 636.365C290.853 637.441 290.822 638.533 290.79 639.634C290.773 640.31 290.753 640.983 290.739 641.669C290.712 642.878 290.693 644.111 290.675 645.349C290.667 645.949 290.655 646.53 290.648 647.133C290.629 648.983 290.617 650.859 290.617 652.773C290.617 654.612 290.629 656.411 290.647 658.191C290.653 658.731 290.66 659.262 290.668 659.797C290.685 661.082 290.707 662.351 290.733 663.606C290.744 664.14 290.755 664.676 290.767 665.206C290.805 666.739 290.85 668.253 290.902 669.747C290.908 669.91 290.912 670.078 290.918 670.239V670.351C290.97 671.763 291.034 673.136 291.099 674.505C291.115 674.85 291.127 675.205 291.144 675.552C291.231 677.285 291.33 678.982 291.438 680.643C291.467 681.09 291.503 681.514 291.538 681.956C291.622 683.156 291.705 684.356 291.8 685.52C291.85 686.127 291.909 686.705 291.961 687.302C292.047 688.266 292.13 689.239 292.223 690.177C292.288 690.824 292.362 691.441 292.43 692.077C292.523 692.933 292.612 693.8 292.712 694.633C292.789 695.271 292.874 695.88 292.953 696.503C293.053 697.296 293.153 698.103 293.264 698.868C293.352 699.491 293.449 700.086 293.542 700.694C293.654 701.433 293.764 702.181 293.882 702.894C293.982 703.494 294.088 704.061 294.191 704.643C294.294 705.225 294.397 705.85 294.507 706.429C294.529 706.548 294.554 706.661 294.577 706.779C294.617 706.989 294.66 707.193 294.701 707.402C294.891 708.362 295.088 709.3 295.291 710.216C295.333 710.407 295.374 710.602 295.417 710.791C295.649 711.811 295.889 712.8 296.138 713.765C296.192 713.98 296.249 714.189 296.306 714.401C296.537 715.278 296.776 716.133 297.022 716.964C297.054 717.075 297.085 717.19 297.122 717.299C297.392 718.199 297.674 719.067 297.963 719.913C298.03 720.113 298.098 720.305 298.163 720.5C298.463 721.344 298.763 722.17 299.075 722.957C299.149 723.143 299.225 723.329 299.3 723.513C299.462 723.907 299.638 724.277 299.806 724.66C299.96 725.01 300.106 725.368 300.268 725.708C300.495 726.195 300.734 726.659 300.968 727.126C301.124 727.426 301.273 727.745 301.432 728.041C301.702 728.541 301.987 729.025 302.271 729.506C302.41 729.741 302.542 729.988 302.683 730.217C303.111 730.907 303.552 731.574 304.005 732.217L304.025 732.246C304.485 732.889 304.959 733.506 305.446 734.096C305.61 734.296 305.783 734.475 305.946 734.668C306.278 735.051 306.609 735.436 306.954 735.796C307.16 736.012 307.376 736.209 307.587 736.416C307.905 736.729 308.222 737.044 308.55 737.338C308.783 737.547 309.026 737.738 309.265 737.938C309.522 738.153 309.773 738.381 310.037 738.585C310.091 738.627 310.151 738.661 310.206 738.703C310.798 739.153 311.405 739.575 312.026 739.969C312.089 740.009 312.148 740.056 312.212 740.095C312.899 740.522 313.612 740.91 314.332 741.27C314.381 741.295 314.432 741.326 314.476 741.35C314.864 741.54 315.265 741.704 315.663 741.875C315.849 741.955 316.031 742.045 316.22 742.121C316.862 742.379 317.517 742.612 318.184 742.821L318.217 742.83C318.317 742.86 318.417 742.882 318.517 742.911C319.09 743.082 319.672 743.239 320.264 743.374C320.501 743.429 320.745 743.474 320.985 743.52C321.316 743.587 321.643 743.664 321.985 743.72C322.113 743.742 322.247 743.752 322.376 743.772C322.7 743.822 323.032 743.861 323.363 743.902C323.782 743.954 324.21 744 324.644 744.038Z" fill="#9EBCEA"/>
<path d="M462.294 678.291C462.408 676.672 462.494 675.011 462.585 673.357C462.645 672.264 462.718 671.191 462.767 670.083C462.851 668.217 462.905 666.303 462.961 664.392C462.988 663.451 463.03 662.533 463.051 661.581C463.114 658.695 463.147 655.762 463.151 652.781C463.151 650.215 463.119 647.693 463.068 645.197C463.051 644.418 463.026 643.653 463.005 642.881C462.975 641.796 462.955 640.697 462.916 639.625C462.889 638.882 462.849 638.156 462.816 637.425C462.792 636.861 462.768 636.297 462.74 635.737C462.628 633.422 462.496 631.137 462.34 628.883C462.319 628.583 462.292 628.301 462.271 628.007C462.122 625.997 461.953 624.015 461.763 622.059C461.712 621.532 461.663 621.004 461.609 620.481C461.389 618.32 461.15 616.181 460.882 614.089C460.844 613.783 460.799 613.484 460.759 613.179C460.515 611.325 460.252 609.497 459.97 607.696C459.894 607.21 459.819 606.722 459.741 606.239C459.435 604.36 459.116 602.5 458.769 600.677C458.744 600.547 458.716 600.42 458.691 600.29C458.636 600.006 458.576 599.73 458.521 599.448C458.176 597.698 457.812 595.974 457.428 594.277C457.34 593.892 457.256 593.503 457.167 593.121C456.737 591.269 456.284 589.45 455.806 587.663C455.706 587.298 455.606 586.94 455.506 586.578C455.064 584.966 454.603 583.378 454.122 581.815C454.043 581.558 453.967 581.294 453.887 581.038C453.349 579.324 452.785 577.643 452.196 575.996C452.063 575.62 451.927 575.248 451.796 574.876C451.206 573.257 450.596 571.66 449.963 570.104C449.943 570.053 449.923 570.004 449.902 569.949C449.896 569.933 449.89 569.917 449.883 569.901C449.462 568.875 449.008 567.895 448.567 566.901C448.243 566.17 447.936 565.417 447.603 564.701C447.103 563.636 446.575 562.616 446.054 561.584C445.741 560.962 445.445 560.318 445.123 559.709C444.523 558.574 443.889 557.487 443.26 556.394C442.989 555.924 442.735 555.431 442.46 554.968C441.542 553.43 440.592 551.934 439.612 550.479C438.739 549.179 437.834 547.935 436.912 546.711C436.701 546.431 436.489 546.151 436.277 545.873C435.361 544.683 434.428 543.521 433.467 542.402C433.342 542.257 433.213 542.119 433.088 541.975C432.207 540.963 431.307 539.982 430.388 539.03C430.17 538.804 429.954 538.574 429.733 538.35C428.722 537.326 427.689 536.335 426.633 535.378C426.433 535.193 426.22 535.016 426.014 534.834C425.062 533.991 424.092 533.175 423.104 532.386C422.904 532.228 422.712 532.064 422.512 531.908C422.412 531.827 422.312 531.739 422.203 531.658C421.148 530.844 420.071 530.067 418.976 529.315C418.706 529.129 418.427 528.957 418.155 528.775C417.207 528.141 416.243 527.529 415.265 526.939C414.865 526.7 414.465 526.465 414.065 526.234C413.119 525.69 412.16 525.167 411.186 524.665C410.839 524.485 410.497 524.298 410.146 524.124C410.005 524.054 409.869 523.975 409.727 523.906C408.627 523.366 407.495 522.862 406.358 522.375C406.102 522.265 405.844 522.159 405.587 522.052C404.251 521.497 402.898 520.969 401.517 520.485C401.381 520.438 401.241 520.395 401.105 520.348C400.382 520.1 399.658 519.848 398.922 519.623C398.283 519.423 397.632 519.24 396.984 519.055C396.807 519.005 396.632 518.95 396.455 518.901C395.027 518.501 393.572 518.148 392.098 517.822C391.827 517.762 391.556 517.701 391.284 517.644C390.032 517.378 388.77 517.129 387.484 516.914C387.278 516.88 387.068 516.854 386.861 516.821C386.552 516.771 386.239 516.729 385.928 516.682C384.524 516.471 383.103 516.288 381.663 516.134C381.457 516.112 381.254 516.084 381.047 516.064C379.469 515.907 377.863 515.792 376.24 515.705C375.872 515.685 375.502 515.669 375.132 515.652C374.681 515.633 374.232 515.603 373.782 515.588C372.556 515.55 371.318 515.531 370.068 515.53H327.534C329.249 515.53 330.934 515.58 332.599 515.652C332.969 515.669 333.339 515.685 333.707 515.705C335.33 515.792 336.936 515.905 338.514 516.064C338.721 516.084 338.924 516.112 339.13 516.134C340.572 516.286 341.993 516.469 343.395 516.682C343.706 516.729 344.019 516.771 344.328 516.821C345.824 517.061 347.298 517.336 348.75 517.644C349.022 517.701 349.292 517.762 349.562 517.822C351.037 518.148 352.493 518.504 353.922 518.901C354.097 518.95 354.269 519.001 354.443 519.054C355.843 519.454 357.219 519.886 358.571 520.349C358.707 520.396 358.846 520.438 358.982 520.485C360.363 520.969 361.716 521.497 363.052 522.052C363.309 522.159 363.566 522.265 363.822 522.375C365.106 522.925 366.369 523.508 367.611 524.124C367.962 524.298 368.303 524.486 368.651 524.665C369.624 525.168 370.584 525.691 371.531 526.234C371.931 526.466 372.331 526.699 372.731 526.934C373.712 527.524 374.679 528.138 375.631 528.774C375.901 528.955 376.179 529.126 376.446 529.31C377.65 530.138 378.83 531.005 379.985 531.91C380.185 532.064 380.375 532.226 380.572 532.383C381.56 533.172 382.531 533.989 383.483 534.833C383.69 535.016 383.899 535.193 384.104 535.379C385.159 536.335 386.192 537.325 387.204 538.35C387.424 538.573 387.64 538.803 387.858 539.029C388.778 539.983 389.678 540.965 390.558 541.975C390.683 542.119 390.813 542.257 390.937 542.402C391.897 543.521 392.83 544.683 393.746 545.872C393.96 546.149 394.172 546.43 394.382 546.712C395.302 547.936 396.206 549.183 397.082 550.479C398.062 551.933 399.011 553.43 399.929 554.968C400.229 555.468 400.508 556.007 400.802 556.52C401.402 557.572 402.016 558.62 402.592 559.706C402.957 560.398 403.292 561.128 403.65 561.834C404.126 562.785 404.615 563.72 405.072 564.698C405.435 565.477 405.772 566.298 406.121 567.091C406.54 568.042 406.972 568.975 407.372 569.95C407.395 570.006 407.416 570.065 407.439 570.121C408.073 571.671 408.677 573.262 409.265 574.875C409.402 575.25 409.539 575.625 409.673 576.003C410.259 577.652 410.824 579.326 411.362 581.039C411.443 581.298 411.519 581.565 411.6 581.825C412.08 583.383 412.54 584.968 412.98 586.578C413.08 586.943 413.18 587.303 413.28 587.67C413.757 589.456 414.211 591.274 414.641 593.124C414.73 593.508 414.815 593.898 414.902 594.284C415.286 595.98 415.65 597.702 415.995 599.449C416.05 599.732 416.11 600.01 416.165 600.294C416.54 602.242 416.887 604.229 417.215 606.242C417.293 606.726 417.368 607.216 417.444 607.704C417.724 609.504 417.987 611.327 418.231 613.171C418.272 613.481 418.318 613.785 418.357 614.097C418.624 616.191 418.866 618.318 419.083 620.479C419.137 621.007 419.183 621.539 419.237 622.071C419.425 624.021 419.593 625.997 419.743 627.997C419.766 628.297 419.793 628.591 419.814 628.892C419.974 631.138 420.105 633.424 420.214 635.735C420.242 636.3 420.266 636.869 420.29 637.435C420.368 639.228 420.427 641.048 420.477 642.881C420.498 643.655 420.524 644.423 420.541 645.204C420.592 647.704 420.625 650.221 420.625 652.787C420.625 655.773 420.592 658.707 420.525 661.587C420.504 662.539 420.462 663.457 420.435 664.398C420.378 666.309 420.325 668.223 420.241 670.089C420.191 671.198 420.119 672.27 420.059 673.363C419.969 675.017 419.882 676.678 419.768 678.297C419.688 679.44 419.587 680.55 419.496 681.675C419.372 683.194 419.252 684.717 419.108 686.203C418.998 687.34 418.869 688.448 418.746 689.566C418.59 690.995 418.434 692.426 418.258 693.823C418.118 694.941 417.958 696.032 417.806 697.13C417.617 698.478 417.427 699.83 417.22 701.144C417.049 702.231 416.862 703.295 416.678 704.361C416.457 705.641 416.233 706.917 415.992 708.168C415.792 709.217 415.577 710.247 415.363 711.275C415.108 712.494 414.848 713.706 414.575 714.896C414.309 716.06 414.033 717.209 413.748 718.344C413.563 719.079 413.381 719.816 413.189 720.544C412.844 721.844 412.48 723.119 412.111 724.382C411.937 724.976 411.771 725.582 411.592 726.17C411.034 727.995 410.456 729.788 409.845 731.532C409.828 731.58 409.81 731.625 409.793 731.673C409.193 733.37 408.572 735.027 407.928 736.643C407.737 737.119 407.536 737.579 407.342 738.048C406.867 739.199 406.382 740.335 405.881 741.448C405.633 741.997 405.381 742.537 405.125 743.076C404.641 744.106 404.144 745.118 403.634 746.11C403.376 746.61 403.12 747.121 402.856 747.61C402.256 748.734 401.64 749.828 401.01 750.904C400.828 751.214 400.655 751.537 400.47 751.844C399.61 753.275 398.724 754.664 397.81 756.011C382.598 778.345 359.172 789.511 327.533 789.511H370.06C401.698 789.511 425.124 778.345 440.336 756.011C441.207 754.733 442.053 753.416 442.874 752.058C442.916 751.988 442.954 751.914 442.997 751.844C443.181 751.537 443.355 751.214 443.536 750.904C444.166 749.828 444.783 748.734 445.383 747.61C445.647 747.116 445.902 746.61 446.16 746.11C446.668 745.116 447.165 744.105 447.651 743.076C447.905 742.537 448.159 741.997 448.407 741.448C448.907 740.338 449.393 739.202 449.869 738.048C450.062 737.578 450.264 737.119 450.454 736.642C450.515 736.49 450.58 736.347 450.64 736.194C451.218 734.728 451.775 733.228 452.311 731.694C452.33 731.638 452.352 731.585 452.372 731.529C452.982 729.785 453.561 727.992 454.119 726.166C454.297 725.584 454.461 724.981 454.634 724.391C455.004 723.123 455.369 721.846 455.716 720.54C455.907 719.82 456.088 719.086 456.272 718.355C456.449 717.648 456.639 716.961 456.809 716.244C456.909 715.805 457 715.344 457.102 714.897C457.375 713.707 457.634 712.497 457.889 711.277C458.103 710.251 458.316 709.223 458.518 708.177C458.758 706.922 458.984 705.642 459.206 704.357C459.389 703.295 459.575 702.236 459.745 701.157C459.954 699.835 460.145 698.484 460.333 697.132C460.486 696.032 460.644 694.948 460.784 693.832C460.96 692.432 461.116 691.003 461.272 689.574C461.372 688.711 461.479 687.874 461.566 687.004C461.592 686.745 461.609 686.471 461.634 686.211C461.778 684.725 461.899 683.202 462.022 681.683C462.113 680.544 462.214 679.434 462.294 678.291Z" fill="#9EBCEA"/>
<path d="M566.619 590.79C566.304 591.423 565.979 592.053 565.656 592.685C564.789 594.378 563.898 596.064 562.981 597.743C562.673 598.306 562.372 598.871 562.058 599.432C560.842 601.606 559.583 603.768 558.281 605.918C558.146 606.141 558.005 606.363 557.868 606.585C556.494 608.827 555.074 611.057 553.608 613.274L504.877 687H547.4L596.129 613.27C597.603 611.053 599.018 608.82 600.393 606.576C600.528 606.356 600.668 606.137 600.802 605.916C600.886 605.778 600.975 605.641 601.059 605.502C602.276 603.489 603.442 601.462 604.581 599.428C604.895 598.867 605.194 598.303 605.502 597.74C606.422 596.06 607.315 594.373 608.18 592.678C608.502 592.048 608.826 591.419 609.14 590.787C610.24 588.587 611.303 586.372 612.309 584.143H569.787C568.781 586.375 567.715 588.586 566.619 590.79Z" fill="#9EBCEA"/>
<path d="M698.317 687.004H666.312V519.703H623.787V687.004H655.792V730.707H623.787V785.865H666.312V730.707H698.317V687.004Z" fill="#9EBCEA"/>
<path d="M168.375 687H200.366V730.7H168.375V785.858H113.462V730.707H0V691.558L116.553 519.7H168.375V687ZM114.36 609.087C114.974 594.77 115.46 586.456 115.817 584.147H114.36C109.778 594.285 104.367 604.027 98.181 613.274L49.451 687H113.462V641.855C113.462 634.341 113.762 623.418 114.362 609.087" fill="#26ad50"/>
<path d="M397.076 550.466C412.779 573.77 420.628 607.874 420.624 652.777C420.624 699.262 413.02 733.67 397.812 756.002C382.604 778.334 359.178 789.501 327.536 789.502C296.866 789.502 273.74 777.969 258.16 754.902C242.579 731.835 234.793 697.794 234.801 652.777C234.801 605.815 242.373 571.198 257.518 548.925C272.676 526.658 296.014 515.522 327.534 515.517C358.192 515.517 381.372 527.167 397.076 550.466ZM355.892 722.689C361.72 708.371 364.63 685.067 364.622 652.777C364.622 620.133 361.684 596.679 355.809 582.415C349.933 568.151 340.509 561.024 327.536 561.034C314.312 561.034 304.856 568.161 299.168 582.415C293.461 596.682 290.61 620.136 290.614 652.777C290.614 685.435 293.433 708.83 299.072 722.962C304.71 737.094 314.198 744.161 327.536 744.162C340.624 744.162 350.076 737.003 355.892 722.685" fill="#26ad50"/>
<path d="M623.786 687H655.786V730.7H623.786V785.858H568.873V730.707H455.412V691.558L571.965 519.7H623.786V687ZM569.786 609.083C570.386 594.766 570.872 586.453 571.243 584.143H569.786C565.193 594.275 559.782 604.017 553.607 613.27L504.877 687H568.877V641.855C568.877 634.341 569.181 623.418 569.79 609.087" fill="#26ad50"/>
</g>
<defs>
<clipPath id="clip0">
<rect width="1030.1" height="789.506" fill="white"/>
</clipPath>
</defs>
</svg>
