<svg width="778" height="726" viewBox="0 0 778 726" fill="none" xmlns="http://www.w3.org/2000/svg">
<g clip-path="url(#clip0)">
<path d="M666.975 133.472H657.176C656.981 133.472 656.789 133.51 656.609 133.585C656.43 133.659 656.266 133.768 656.129 133.906C655.991 134.043 655.882 134.207 655.808 134.387C655.734 134.566 655.695 134.759 655.696 134.954V198.218H533.238V1.4811C533.238 1.28656 533.2 1.09388 533.126 0.914108C533.052 0.734335 532.943 0.570991 532.805 0.433424C532.668 0.295857 532.504 0.186766 532.325 0.112394C532.145 0.0380224 531.952 -0.00017061 531.758 5.72895e-07H521.958C521.566 5.72895e-07 521.189 0.156045 520.912 0.433806C520.634 0.711567 520.478 1.08829 520.478 1.4811V59.4589H377.752V1.4811C377.752 1.28656 377.714 1.09388 377.64 0.914108C377.565 0.734335 377.456 0.570991 377.319 0.433424C377.181 0.295857 377.018 0.186766 376.838 0.112394C376.659 0.0380224 376.466 -0.00017061 376.272 5.72895e-07H366.472C366.278 4.97692e-07 366.085 0.0383198 365.906 0.112768C365.726 0.187217 365.563 0.296335 365.426 0.433885C365.289 0.571435 365.18 0.734721 365.105 0.914409C365.031 1.0941 364.993 1.28666 364.993 1.4811V172.394H224.632V88.1517C224.632 87.9572 224.593 87.7646 224.519 87.5849C224.444 87.4052 224.335 87.242 224.198 87.1044C224.061 86.9669 223.897 86.8578 223.718 86.7834C223.538 86.7089 223.346 86.6706 223.151 86.6706H213.352C212.959 86.671 212.583 86.8272 212.306 87.1049C212.029 87.3826 211.873 87.7591 211.873 88.1517V269.754H105.314V243.402C105.314 243.208 105.276 243.015 105.202 242.835C105.128 242.656 105.019 242.492 104.881 242.355C104.744 242.217 104.581 242.108 104.401 242.034C104.222 241.959 104.029 241.921 103.835 241.921H94.0408C93.8463 241.921 93.6538 241.959 93.4741 242.033C93.2944 242.108 93.1312 242.217 92.9937 242.354C92.8562 242.492 92.7472 242.655 92.6729 242.835C92.5985 243.015 92.5604 243.208 92.5605 243.402V310.352H105.319V282.52H211.882V310.352H224.632V185.161H364.993V310.352H377.752V72.2331H520.478V310.352H533.238V210.987H655.696V310.352H668.454V134.954C668.454 134.759 668.416 134.567 668.342 134.387C668.268 134.207 668.159 134.044 668.022 133.906C667.884 133.769 667.721 133.66 667.542 133.585C667.362 133.511 667.17 133.472 666.975 133.472Z" fill="#DEE8F5"/>
<path d="M68.877 309.284H692.132V721.558C692.132 722.736 691.664 723.866 690.832 724.699C689.999 725.532 688.87 726 687.693 726H73.3163C72.1389 726 71.0097 725.532 70.1772 724.699C69.3447 723.866 68.877 722.736 68.877 721.558V309.284Z" fill="#F3F5FD"/>
<path d="M182.956 467.232H116.662C115.435 467.232 114.441 468.227 114.441 469.454V535.789C114.441 537.016 115.435 538.01 116.662 538.01H182.956C184.182 538.01 185.176 537.016 185.176 535.789V469.454C185.176 468.227 184.182 467.232 182.956 467.232Z" fill="#DEE8F5"/>
<path d="M298.306 467.232H232.011C230.785 467.232 229.791 468.227 229.791 469.454V535.789C229.791 537.016 230.785 538.01 232.011 538.01H298.306C299.532 538.01 300.526 537.016 300.526 535.789V469.454C300.526 468.227 299.532 467.232 298.306 467.232Z" fill="#DEE8F5"/>
<path d="M413.651 467.232H347.357C346.131 467.232 345.137 468.227 345.137 469.454V535.789C345.137 537.016 346.131 538.01 347.357 538.01H413.651C414.878 538.01 415.872 537.016 415.872 535.789V469.454C415.872 468.227 414.878 467.232 413.651 467.232Z" fill="#DEE8F5"/>
<path d="M528.999 467.232H462.705C461.478 467.232 460.484 468.227 460.484 469.454V535.789C460.484 537.016 461.478 538.01 462.705 538.01H528.999C530.225 538.01 531.219 537.016 531.219 535.789V469.454C531.219 468.227 530.225 467.232 528.999 467.232Z" fill="#DEE8F5"/>
<path d="M644.347 467.232H578.052C576.826 467.232 575.832 468.227 575.832 469.454V535.789C575.832 537.016 576.826 538.01 578.052 538.01H644.347C645.573 538.01 646.567 537.016 646.567 535.789V469.454C646.567 468.227 645.573 467.232 644.347 467.232Z" fill="#DEE8F5"/>
<path d="M182.956 354.96H116.662C115.435 354.96 114.441 355.955 114.441 357.182V423.516C114.441 424.743 115.435 425.738 116.662 425.738H182.956C184.182 425.738 185.176 424.743 185.176 423.516V357.182C185.176 355.955 184.182 354.96 182.956 354.96Z" fill="#DEE8F5"/>
<path d="M298.306 354.96H232.011C230.785 354.96 229.791 355.955 229.791 357.182V423.516C229.791 424.743 230.785 425.738 232.011 425.738H298.306C299.532 425.738 300.526 424.743 300.526 423.516V357.182C300.526 355.955 299.532 354.96 298.306 354.96Z" fill="#DEE8F5"/>
<path d="M413.651 354.96H347.357C346.131 354.96 345.137 355.955 345.137 357.182V423.516C345.137 424.743 346.131 425.738 347.357 425.738H413.651C414.878 425.738 415.872 424.743 415.872 423.516V357.182C415.872 355.955 414.878 354.96 413.651 354.96Z" fill="#DEE8F5"/>
<path d="M528.999 354.96H462.705C461.478 354.96 460.484 355.955 460.484 357.182V423.516C460.484 424.743 461.478 425.738 462.705 425.738H528.999C530.225 425.738 531.219 424.743 531.219 423.516V357.182C531.219 355.955 530.225 354.96 528.999 354.96Z" fill="#DEE8F5"/>
<path d="M644.347 354.96H578.052C576.826 354.96 575.832 355.955 575.832 357.182V423.516C575.832 424.743 576.826 425.738 578.052 425.738H644.347C645.573 425.738 646.567 424.743 646.567 423.516V357.182C646.567 355.955 645.573 354.96 644.347 354.96Z" fill="#DEE8F5"/>
<path d="M307.416 579.506H395.024V726H305.197V581.726C305.198 581.137 305.432 580.573 305.848 580.157C306.264 579.74 306.828 579.506 307.416 579.506Z" fill="#FAFAFA"/>
<path d="M315.009 587.105H387.433V726H312.789V589.318C312.791 588.73 313.026 588.167 313.443 587.753C313.859 587.338 314.422 587.105 315.009 587.105Z" fill="#D7E8F4"/>
<path d="M378.254 651.002C380.428 651.002 382.191 649.238 382.191 647.063C382.191 644.887 380.428 643.123 378.254 643.123C376.079 643.123 374.316 644.887 374.316 647.063C374.316 649.238 376.079 651.002 378.254 651.002Z" fill="#FAFAFA"/>
<path d="M477.258 726H387.431V579.506H475.038C475.626 579.506 476.191 579.74 476.607 580.157C477.024 580.573 477.258 581.138 477.258 581.728V726Z" fill="#FAFAFA"/>
<path d="M469.665 725.996H395.022V587.102H467.446C468.035 587.102 468.599 587.336 469.016 587.752C469.432 588.169 469.666 588.734 469.666 589.323V725.996H469.665Z" fill="#D7E8F4"/>
<path d="M404.201 651.002C406.375 651.002 408.138 649.238 408.138 647.063C408.138 644.887 406.375 643.123 404.201 643.123C402.026 643.123 400.264 644.887 400.264 647.063C400.264 649.238 402.026 651.002 404.201 651.002Z" fill="#FAFAFA"/>
<path d="M623.883 711.919L651.005 708.691C649.785 698.42 648.404 686.079 648.31 684.055C648.317 684.186 648.317 684.292 648.317 684.376H621.002C621.003 685.194 621.003 687.689 623.883 711.919Z" fill="#EDA59F"/>
<path d="M732.721 715.186L760.036 715.097C760.036 715.097 759.944 686.876 759.944 684.375H732.629C732.629 686.882 732.721 715.186 732.721 715.186Z" fill="#EDA59F"/>
<path d="M699.515 725.757C698.781 725.753 698.055 725.598 697.383 725.301C696.711 725.004 696.107 724.572 695.61 724.031C695.112 723.491 694.731 722.853 694.491 722.159C694.251 721.464 694.156 720.728 694.213 719.995C694.293 718.979 694.66 718.007 695.273 717.194C695.886 716.38 696.718 715.758 697.672 715.402L729.464 704.748C730.08 704.543 730.733 704.474 731.378 704.546C732.023 704.618 732.645 704.828 733.201 705.163C737.571 708.197 742.799 709.748 748.116 709.588C752.257 709.293 756.233 707.84 759.589 705.395C759.884 705.152 760.242 704.999 760.621 704.953C760.999 704.906 761.383 704.968 761.728 705.132C762.073 705.296 762.364 705.554 762.567 705.877C762.77 706.2 762.877 706.575 762.876 706.956V722.512C762.876 722.971 762.786 723.425 762.61 723.849C762.434 724.273 762.176 724.658 761.851 724.982C761.526 725.305 761.14 725.562 760.716 725.736C760.292 725.91 759.837 725.999 759.379 725.997L699.515 725.757Z" fill="#C1D8ED"/>
<path d="M590.603 725.757C589.869 725.753 589.143 725.598 588.47 725.302C587.798 725.005 587.195 724.573 586.697 724.032C586.2 723.491 585.819 722.854 585.579 722.159C585.339 721.464 585.244 720.728 585.301 719.995C585.381 718.979 585.748 718.007 586.36 717.194C586.973 716.38 587.805 715.758 588.759 715.402L620.552 704.748C621.168 704.543 621.82 704.474 622.465 704.546C623.11 704.618 623.732 704.828 624.287 705.163C628.658 708.197 633.887 709.748 639.204 709.588C643.345 709.294 647.32 707.84 650.676 705.395C650.971 705.153 651.329 704.999 651.708 704.953C652.086 704.907 652.47 704.969 652.815 705.133C653.16 705.296 653.451 705.555 653.654 705.878C653.858 706.201 653.965 706.575 653.964 706.956V722.512C653.964 722.971 653.874 723.425 653.698 723.849C653.522 724.273 653.264 724.658 652.939 724.982C652.614 725.305 652.228 725.562 651.804 725.736C651.38 725.91 650.925 725.999 650.467 725.997L590.603 725.757Z" fill="#C1D8ED"/>
<path d="M661.931 703.289L613.805 702.469C616.065 645.161 616.203 585.049 616.908 527.604C626.301 465.686 631.247 397.693 642.838 336.22L643.185 336.323L644.202 329.386L743.156 323.269L747.006 387.959H746.702C751.869 480.877 761.195 611.752 767.073 701.734L719.119 705.789C710.478 617.566 697.107 489.017 688.883 396.336C679.438 441.459 673.014 488.18 664.801 532.915C663.16 588.916 661.772 647.456 661.931 703.289Z" fill="#55AFFC"/>
<path d="M702.642 166.368C702.629 166.004 702.629 165.652 702.629 165.275C702.616 162.906 702.72 160.329 702.955 157.518L700.979 157.154H700.964L682.169 153.666C682.529 158.287 682.46 162.931 681.961 167.539C681.896 168.06 681.831 168.594 681.753 169.127C681.74 169.179 681.74 169.218 681.727 169.27C681.649 169.843 681.558 170.429 681.454 171.001C681.35 171.574 681.259 172.121 681.129 172.68C681.116 172.732 681.116 172.772 681.103 172.811C680.986 173.383 680.856 173.93 680.7 174.476C680.556 175.049 680.4 175.609 680.218 176.168C680.075 176.65 679.919 177.119 679.737 177.587C679.685 177.73 679.633 177.886 679.568 178.03C679.399 178.498 679.204 178.954 678.996 179.396C678.774 179.904 678.527 180.398 678.267 180.88C678.264 180.88 678.26 180.881 678.258 180.884C678.256 180.886 678.254 180.889 678.254 180.893C677.274 182.815 675.894 184.505 674.209 185.852H706.896C704.881 182.364 702.799 176.377 702.642 166.381V166.368Z" fill="#EDA59F"/>
<path opacity="0.15" d="M678.254 180.899L695.517 167.684L681.958 167.543C681.565 172.187 680.309 176.717 678.254 180.899Z" fill="black"/>
<path d="M714.739 146.894C713.301 155.208 708.765 163.082 701.436 165.766C692.735 168.954 686.29 169.17 676.258 169.17C662.567 169.17 663.019 154.884 662.636 140.488C662.245 126.034 663.398 110.529 668.809 105.492C679.605 95.4392 711.307 101.806 715.162 118.62C717.163 127.319 716.113 138.979 714.739 146.894Z" fill="#EDA59F"/>
<path d="M701.984 164.979C702.416 166.361 702.718 166.964 703.962 166.223C708.848 163.32 719.843 156.998 723.589 133.319C726.946 112.105 713.865 103.351 703.428 100.228C694.436 97.5369 683.186 96.1704 673.337 102.11C664.85 107.229 663.602 119.941 663.602 119.941C667.353 120.114 668.109 123.34 676.959 123.34C683.8 123.34 688.249 120.281 694.655 120.55C700.518 120.797 701.723 124.374 701.515 126.667C700.258 140.576 700.457 160.091 701.984 164.979Z" fill="#0F1011"/>
<path d="M682.201 140.489C683.242 140.489 684.086 139.645 684.086 138.603C684.086 137.562 683.242 136.717 682.201 136.717C681.16 136.717 680.316 137.562 680.316 138.603C680.316 139.645 681.16 140.489 682.201 140.489Z" fill="#0F1011"/>
<path d="M667.334 139.268C668.375 139.268 669.219 138.424 669.219 137.382C669.219 136.341 668.375 135.497 667.334 135.497C666.293 135.497 665.449 136.341 665.449 137.382C665.449 138.424 666.293 139.268 667.334 139.268Z" fill="#0F1011"/>
<path d="M664.067 133.365H664.078L669.071 133.302C669.188 133.301 669.302 133.276 669.409 133.23C669.516 133.184 669.613 133.118 669.694 133.034C669.775 132.951 669.839 132.852 669.882 132.744C669.925 132.636 669.947 132.521 669.945 132.404C669.95 132.286 669.929 132.169 669.885 132.06C669.841 131.95 669.775 131.851 669.691 131.769C669.606 131.687 669.506 131.623 669.395 131.582C669.285 131.541 669.167 131.524 669.049 131.531L664.056 131.592C663.821 131.594 663.596 131.689 663.431 131.856C663.266 132.023 663.174 132.249 663.176 132.484C663.177 132.719 663.272 132.944 663.439 133.109C663.607 133.274 663.832 133.366 664.067 133.365Z" fill="#0F1011"/>
<path d="M686.27 135.186C686.486 135.185 686.695 135.105 686.857 134.961C687.019 134.817 687.122 134.618 687.147 134.403C687.172 134.188 687.118 133.971 686.994 133.793C686.87 133.615 686.686 133.489 686.475 133.438L681.553 132.252C681.439 132.222 681.32 132.215 681.204 132.231C681.087 132.248 680.974 132.287 680.873 132.348C680.772 132.409 680.683 132.489 680.614 132.584C680.544 132.679 680.493 132.787 680.466 132.902C680.438 133.017 680.434 133.136 680.453 133.252C680.472 133.369 680.514 133.481 680.577 133.58C680.64 133.68 680.722 133.767 680.819 133.835C680.915 133.902 681.024 133.95 681.14 133.975L686.062 135.162C686.13 135.178 686.2 135.185 686.27 135.186Z" fill="#0F1011"/>
<path d="M692.007 143.217C691.906 144.271 692.015 145.336 692.329 146.348C692.642 147.36 693.154 148.299 693.833 149.112C694.513 149.924 695.347 150.593 696.287 151.08C697.228 151.567 698.255 151.863 699.31 151.949C700.366 152.035 701.428 151.911 702.434 151.583C703.441 151.255 704.373 150.73 705.175 150.038C705.977 149.347 706.634 148.503 707.108 147.555C707.581 146.608 707.862 145.575 707.933 144.518C708.037 143.469 707.929 142.409 707.615 141.401C707.301 140.394 706.787 139.461 706.105 138.656C705.423 137.852 704.586 137.193 703.645 136.719C702.703 136.245 701.675 135.966 700.623 135.897C694.929 135.716 692.368 138.816 692.007 143.217Z" fill="#EDA59F"/>
<g opacity="0.15">
<path opacity="0.15" d="M673.836 149.063C673.991 149.063 674.142 149.007 674.26 148.906C674.378 148.804 674.456 148.663 674.479 148.509C674.502 148.355 674.469 148.198 674.386 148.066C674.303 147.934 674.176 147.836 674.027 147.79L670.194 146.613L672.874 140.639C672.91 140.561 672.929 140.477 672.932 140.391C672.934 140.306 672.92 140.221 672.89 140.141C672.859 140.061 672.814 139.987 672.755 139.925C672.697 139.863 672.626 139.813 672.549 139.778C672.471 139.743 672.387 139.723 672.301 139.721C672.216 139.718 672.131 139.732 672.051 139.762C671.971 139.793 671.898 139.838 671.836 139.897C671.773 139.956 671.723 140.026 671.688 140.104L668.706 146.75C668.668 146.835 668.648 146.926 668.648 147.018C668.649 147.11 668.668 147.202 668.706 147.286C668.744 147.37 668.8 147.445 668.869 147.506C668.938 147.567 669.019 147.612 669.108 147.639L673.644 149.035C673.706 149.054 673.771 149.063 673.836 149.063Z" fill="black"/>
</g>
<path d="M681.331 153.454C681.331 153.454 674.373 154.19 669.494 152.483C669.494 152.483 669.533 157.069 675.038 157.52C680.542 157.972 681.331 153.454 681.331 153.454Z" fill="#F8FCFF"/>
<path d="M725.183 130.613C725.629 126.21 725.194 121.761 723.902 117.527C722.611 113.294 720.489 109.36 717.662 105.956C714.834 102.552 711.357 99.7462 707.433 97.7019C703.51 95.6576 699.218 94.4161 694.81 94.0498C690.401 93.6835 685.964 94.1999 681.757 95.5687C677.551 96.9375 673.659 99.1313 670.309 102.022C666.959 104.913 664.218 108.442 662.246 112.405C660.275 116.367 659.112 120.683 658.826 125.1" fill="#26ad50"/>
<path opacity="0.22" d="M673.756 126.661C673.756 126.661 673.218 103.513 698.77 95.2411C698.77 95.2411 695.937 94.7557 694.984 94.6763C693.558 94.5271 692.123 94.4914 690.691 94.5696C690.691 94.5696 665.466 100.4 663.703 125.505L673.756 126.661Z" fill="white"/>
<path d="M656.713 126.933L726.967 132.769L727.244 129.425L656.99 123.589L656.713 126.933Z" fill="#26ad50"/>
<path opacity="0.09" d="M656.713 126.933L726.967 132.769L727.244 129.425L656.99 123.589L656.713 126.933Z" fill="black"/>
<path opacity="0.63" d="M702.414 99.0778C698.565 98.7897 694.719 99.6609 691.369 101.579C682.898 106.538 682.395 112.655 682.395 112.655C682.395 112.655 690.891 99.536 702.414 99.0778Z" fill="white"/>
<path d="M669.046 121.479C671.782 121.479 674.001 119.26 674.001 116.522C674.001 113.784 671.782 111.564 669.046 111.564C666.31 111.564 664.092 113.784 664.092 116.522C664.092 119.26 666.31 121.479 669.046 121.479Z" fill="#26ad50"/>
<path opacity="0.09" d="M669.046 121.479C671.782 121.479 674.001 119.26 674.001 116.522C674.001 113.784 671.782 111.564 669.046 111.564C666.31 111.564 664.092 113.784 664.092 116.522C664.092 119.26 666.31 121.479 669.046 121.479Z" fill="black"/>
<path d="M666.607 121.276C669.343 121.276 671.561 119.057 671.561 116.319C671.561 113.581 669.343 111.361 666.607 111.361C663.871 111.361 661.652 113.581 661.652 116.319C661.652 119.057 663.871 121.276 666.607 121.276Z" fill="#26ad50"/>
<path opacity="0.13" d="M666.607 121.276C669.343 121.276 671.561 119.057 671.561 116.319C671.561 113.581 669.343 111.361 666.607 111.361C663.871 111.361 661.652 113.581 661.652 116.319C661.652 119.057 663.871 121.276 666.607 121.276Z" fill="white"/>
<path opacity="0.36" d="M666.607 118.918C668.042 118.918 669.205 117.754 669.205 116.319C669.205 114.883 668.042 113.72 666.607 113.72C665.173 113.72 664.01 114.883 664.01 116.319C664.01 117.754 665.173 118.918 666.607 118.918Z" fill="white"/>
<path d="M552.032 221.332C549.162 218.729 540.946 208.493 538.047 210.308C536.309 211.396 540.821 220.358 540.821 220.358" fill="#E5A5A0"/>
<path d="M524.282 213.394C520.51 217.552 525.226 224.266 529.296 228.049C541.035 238.961 551.69 245.671 555.464 241.513C559.237 237.355 551.776 225.484 539.141 215.626C533.912 211.549 528.055 209.237 524.282 213.394Z" fill="#E5A5A0"/>
<path d="M602.715 292.625C605.045 292.626 607.34 292.052 609.395 290.954C611.451 289.856 613.204 288.267 614.501 286.33L665.533 210.019L644.371 191.68L599.804 257.283L550.59 215.221L532.17 236.799L593.509 289.224C596.075 291.418 599.339 292.624 602.715 292.625Z" fill="#2F3235"/>
<path d="M636.307 333.742C641.757 346.276 748.844 351.482 750.274 329.434C751.185 315.404 738.828 303.157 738.828 275.812C738.828 248.468 763.971 213.549 743.485 193.05C737.541 187.102 727.278 183.263 714.765 183.25C713.829 190.551 701.42 202.955 685.421 201.9C673.416 201.107 669.527 190.577 669.188 183.419C667.498 183.445 666.184 183.471 665.364 183.51C622.207 185.371 641.171 234.516 641.588 270.62C642.097 312.866 630.69 320.831 636.307 333.742Z" fill="#2F3235"/>
<path d="M669.191 183.419C669.53 190.577 673.419 201.107 685.424 201.9C701.423 202.955 713.832 190.551 714.768 183.25H714.729C698.978 183.251 678.374 183.276 669.191 183.419Z" fill="#EDA59F"/>
<path d="M672.78 183.251L669.497 350.442C669.497 350.442 634.59 350.771 628.383 344.56L637.865 258.941C637.865 258.941 657.235 240.691 654.58 184.782C654.58 184.78 664.944 181.898 672.78 183.251Z" fill="#26ad50"/>
<path d="M707.638 183.251L702.412 349.654C702.412 349.654 750.945 352.948 757.152 346.736L742.552 258.152C742.552 258.152 723.147 239.744 725.801 183.837C719.789 182.95 713.695 182.754 707.638 183.251Z" fill="#26ad50"/>
<path d="M635.525 280.098L670.853 281.165L670.957 275.959L661.461 275.673L666.196 182.941C664.445 183.03 662.7 183.208 660.967 183.475L656.272 275.517L636.098 274.905L635.525 280.098Z" fill="white"/>
<path d="M633.279 300.349L670.453 301.599L670.557 296.393L633.852 295.169L633.279 300.349Z" fill="white"/>
<path d="M704.594 280.124L745.098 281.205L744.525 275.986L718.329 275.283L720.527 183.228C719.045 183.124 717.302 183.033 715.325 183.02L713.126 275.14L704.763 274.918L704.594 280.124Z" fill="white"/>
<path d="M703.855 303.837H747.611L747.039 298.631H704.012L703.855 303.837Z" fill="white"/>
<path d="M771.593 315.743C771.593 315.743 711.226 242.956 700.673 226.345L682.258 242.906C682.258 242.906 738.346 308.956 756.044 330.811C756.044 330.808 771.022 330.549 771.593 315.743Z" fill="#DEE8F5"/>
<path d="M696.497 239.644C701.517 234.858 703.281 228.557 700.437 225.571C697.593 222.584 691.218 224.043 686.198 228.829C681.179 233.615 679.415 239.916 682.259 242.903C685.103 245.889 691.478 244.43 696.497 239.644Z" fill="#C1D8ED"/>
<path d="M683.031 243.536C683.031 243.536 683.637 236.468 689.781 234.466L695.091 240.864C695.091 240.864 688.415 247.008 683.031 243.536Z" fill="#F3F5FD"/>
<path d="M767.362 307.979C767.362 307.979 692.311 255.905 677.677 242.753L664.4 263.667C664.4 263.667 733.516 310.407 756.445 326.676C756.445 326.676 770.798 322.394 767.362 307.979Z" fill="#DEE8F5"/>
<path opacity="0.23" d="M767.362 307.979C767.362 307.979 692.311 255.905 677.677 242.753L664.4 263.667C664.4 263.667 733.516 310.407 756.445 326.676C756.445 326.676 770.798 322.394 767.362 307.979Z" fill="white"/>
<path d="M677.236 256.69C680.781 250.728 680.783 244.185 677.241 242.075C673.698 239.966 667.951 243.089 664.406 249.052C660.86 255.014 660.858 261.557 664.401 263.667C667.944 265.776 673.691 262.652 677.236 256.69Z" fill="#C1D8ED"/>
<path d="M665.311 264.074C665.311 264.074 663.992 257.103 669.368 253.519L676.206 258.25C676.206 258.25 671.435 265.959 665.311 264.074Z" fill="#F3F5FD"/>
<path d="M689.164 276.624C679.707 276.624 672.775 261.686 672.775 276.964C672.775 292.242 697.586 293.363 697.586 293.363L696.75 276.459C696.75 276.459 691.321 270.09 689.116 270.09C686.912 270.09 689.164 276.624 689.164 276.624Z" fill="#EDA59F"/>
<path d="M697.773 300.907L764.44 297.986C766.659 297.89 768.824 297.273 770.761 296.186C772.698 295.099 774.352 293.572 775.591 291.727C776.83 289.883 777.619 287.774 777.893 285.568C778.168 283.363 777.921 281.125 777.173 279.033L749.235 201.536L730.895 233.834L743.992 270.476L696.529 272.559L697.773 300.907Z" fill="#2F3235"/>
<path d="M545.963 255.263C545.079 255.506 544.134 255.387 543.337 254.932C542.54 254.478 541.956 253.725 541.713 252.84L524.71 190.772L531.377 188.943L548.381 251.012C548.623 251.896 548.504 252.841 548.051 253.638C547.598 254.435 546.847 255.019 545.963 255.263Z" fill="#9EBCEA"/>
<path d="M508.04 181.996L510.703 181.266C510.966 181.194 511.239 181.175 511.509 181.209C511.779 181.243 512.039 181.33 512.275 181.464C512.511 181.599 512.718 181.779 512.885 181.994C513.052 182.208 513.174 182.454 513.246 182.716L513.443 183.432L517.484 182.323L516.748 179.636L531.783 175.512C531.783 175.512 539.86 174.545 546.481 183.094C546.481 183.094 538.936 181.969 534.266 184.588L535.696 189.813L520.662 193.938L519.925 191.25L515.883 192.358L516.079 193.075C516.151 193.337 516.171 193.611 516.137 193.881C516.103 194.15 516.017 194.411 515.882 194.647C515.748 194.884 515.568 195.091 515.354 195.258C515.139 195.425 514.894 195.547 514.632 195.619L511.968 196.349C511.706 196.421 511.432 196.441 511.162 196.407C510.893 196.373 510.632 196.286 510.396 196.151C510.16 196.017 509.953 195.837 509.786 195.622C509.619 195.407 509.497 195.162 509.425 194.9L506.587 184.541C506.515 184.278 506.496 184.004 506.53 183.734C506.564 183.464 506.652 183.204 506.786 182.968C506.921 182.731 507.101 182.524 507.316 182.357C507.532 182.191 507.777 182.068 508.04 181.996Z" fill="#2F3235"/>
<path d="M53.921 136.841C53.7206 117.926 62.4965 106.202 72.6264 99.7687C82.621 93.4187 105.322 88.9078 117.205 111.96C124.959 127.003 125.337 131.363 127.534 155.455C129.731 179.547 138.17 182.075 146.726 211.277C153.439 234.184 115.84 246.345 83.274 245.293C50.7082 244.241 30.0751 237.03 28.18 216.306C25.468 186.566 54.3034 173.907 53.921 136.841Z" fill="#0F1011"/>
<path d="M73.0742 185.749C75.4896 181.372 77.9298 173.116 76.5705 158.208L96.8472 154.251C96.8472 154.251 94.8012 178.154 105.042 185.747L73.0742 185.749Z" fill="#EDA59F"/>
<path opacity="0.15" d="M100.918 180.835L83.9277 168.081L97.178 167.82C97.6039 172.354 98.8722 176.768 100.918 180.835Z" fill="black"/>
<path d="M64.9484 147.927C66.4299 156.04 70.9316 163.694 78.1193 166.253C85.956 169.283 94.4147 170.348 102.757 169.355C124.975 167.327 120.113 116.781 109.466 107.052C98.82 97.3232 67.8984 103.829 64.2811 120.299C62.4107 128.817 63.5397 140.204 64.9484 147.927Z" fill="#EDA59F"/>
<path d="M96.6777 141.375C97.6949 141.375 98.5195 140.55 98.5195 139.532C98.5195 138.514 97.6949 137.689 96.6777 137.689C95.6605 137.689 94.8359 138.514 94.8359 139.532C94.8359 140.55 95.6605 141.375 96.6777 141.375Z" fill="#0F1011"/>
<path d="M111.201 140.049C112.218 140.049 113.043 139.224 113.043 138.206C113.043 137.188 112.218 136.363 111.201 136.363C110.184 136.363 109.359 137.188 109.359 138.206C109.359 139.224 110.184 140.049 111.201 140.049Z" fill="#0F1011"/>
<path d="M114.349 134.249L109.468 134.232C109.239 134.232 109.019 134.141 108.857 133.979C108.695 133.817 108.604 133.597 108.604 133.367C108.604 133.137 108.695 132.917 108.857 132.755C109.019 132.593 109.239 132.501 109.468 132.501L114.35 132.517C114.574 132.526 114.786 132.621 114.941 132.782C115.096 132.944 115.183 133.159 115.183 133.383C115.183 133.607 115.096 133.823 114.941 133.984C114.786 134.146 114.574 134.241 114.35 134.249H114.349Z" fill="#0F1011"/>
<path d="M92.6627 136.229C92.451 136.229 92.2463 136.152 92.0876 136.012C91.9288 135.872 91.8269 135.678 91.8013 135.468C91.7756 135.258 91.828 135.045 91.9484 134.871C92.0688 134.697 92.2489 134.573 92.4546 134.522L97.2555 133.32C97.4782 133.264 97.7139 133.299 97.9108 133.417C98.1076 133.535 98.2495 133.727 98.3052 133.95C98.3609 134.173 98.3259 134.408 98.2078 134.605C98.0898 134.802 97.8983 134.944 97.6757 135L92.8748 136.203C92.8053 136.22 92.7342 136.228 92.6627 136.229Z" fill="#0F1011"/>
<path d="M97.6641 154.04C97.6641 154.04 104.471 154.691 109.221 152.984C109.221 152.984 109.221 157.467 103.848 157.957C98.4744 158.448 97.6641 154.04 97.6641 154.04Z" fill="#F8FCFF"/>
<path d="M79.7167 126.735C79.2329 163.437 75.6976 177.696 75.6976 177.696C75.6976 177.696 58.3293 156.7 55.707 134.453C53.25 113.601 68.5086 101.134 78.8726 98.7173C118.259 89.5235 118.268 119.217 118.268 119.217C115.722 129.023 75.4504 134.156 75.4504 134.156" fill="#0F1011"/>
<path d="M87.4526 147.561C87.5458 148.583 87.4369 149.613 87.1322 150.593C86.8274 151.573 86.3328 152.483 85.6765 153.272C85.0203 154.06 84.2152 154.712 83.3073 155.189C82.3994 155.666 81.4065 155.96 80.3852 156.053C79.3639 156.146 78.3343 156.037 77.3551 155.732C76.3759 155.427 75.4663 154.932 74.6783 154.276C73.8903 153.619 73.2392 152.813 72.7623 151.905C72.2854 150.997 71.992 150.003 71.8988 148.981C71.787 147.956 71.8828 146.919 72.1803 145.931C72.4778 144.944 72.9711 144.027 73.6306 143.234C74.2901 142.442 75.1024 141.791 76.019 141.319C76.9356 140.848 77.9377 140.566 78.9655 140.49C84.5299 140.257 87.0598 143.264 87.4526 147.561Z" fill="#EDA59F"/>
<g opacity="0.15">
<path opacity="0.15" d="M104.945 149.68C104.793 149.681 104.646 149.627 104.53 149.529C104.414 149.43 104.337 149.293 104.314 149.142C104.291 148.992 104.322 148.838 104.403 148.709C104.483 148.58 104.608 148.484 104.753 148.438L108.489 147.253L105.814 141.438C105.749 141.285 105.746 141.113 105.805 140.958C105.865 140.804 105.982 140.678 106.133 140.609C106.283 140.539 106.455 140.531 106.611 140.587C106.768 140.642 106.896 140.757 106.969 140.905L109.944 147.375C109.982 147.457 110.001 147.547 110.001 147.637C110.002 147.727 109.983 147.817 109.946 147.899C109.909 147.982 109.855 148.056 109.787 148.116C109.72 148.175 109.64 148.22 109.554 148.247L105.131 149.65C105.071 149.669 105.009 149.679 104.945 149.68Z" fill="black"/>
</g>
<path d="M53.6828 132.028C53.0026 127.546 53.2141 122.973 54.3051 118.573C55.3962 114.173 57.3453 110.032 60.0406 106.388C62.7358 102.744 66.1241 99.6686 70.0107 97.3388C73.8972 95.0089 78.2056 93.4704 82.6882 92.8116C87.1708 92.1528 91.7393 92.3867 96.1313 93.4999C100.523 94.613 104.652 96.5835 108.281 99.2982C111.91 102.013 114.966 105.418 117.276 109.318C119.585 113.219 121.102 117.537 121.738 122.026" fill="#26ad50"/>
<path opacity="0.22" d="M106.448 124.605C106.448 124.605 105.499 100.706 78.6133 93.8406C78.6133 93.8406 81.5021 93.1547 82.4803 93.0115C83.9417 92.7643 85.4205 92.6338 86.9027 92.6211C86.9027 92.6211 113.291 96.9928 116.737 122.76L106.448 124.605Z" fill="white"/>
<path d="M123.533 120.343L51.4805 130.933L51.9838 134.362L124.036 123.772L123.533 120.343Z" fill="#26ad50"/>
<path opacity="0.09" d="M123.533 120.343L51.4805 130.933L51.9838 134.362L124.036 123.772L123.533 120.343Z" fill="black"/>
<path opacity="0.63" d="M75.1113 98.0324C79.0603 97.4857 83.0825 98.1338 86.6603 99.8935C95.7171 104.449 96.638 110.728 96.638 110.728C96.638 110.728 87.018 97.7551 75.1113 98.0324Z" fill="white"/>
<path d="M110.646 118.967C113.472 118.967 115.764 116.674 115.764 113.846C115.764 111.017 113.472 108.724 110.646 108.724C107.819 108.724 105.527 111.017 105.527 113.846C105.527 116.674 107.819 118.967 110.646 118.967Z" fill="#26ad50"/>
<path opacity="0.09" d="M110.646 118.967C113.472 118.967 115.764 116.674 115.764 113.846C115.764 111.017 113.472 108.724 110.646 108.724C107.819 108.724 105.527 111.017 105.527 113.846C105.527 116.674 107.819 118.967 110.646 118.967Z" fill="black"/>
<path d="M113.148 118.599C115.974 118.599 118.266 116.306 118.266 113.477C118.266 110.649 115.974 108.356 113.148 108.356C110.321 108.356 108.029 110.649 108.029 113.477C108.029 116.306 110.321 118.599 113.148 118.599Z" fill="#26ad50"/>
<path opacity="0.13" d="M113.148 118.599C115.974 118.599 118.266 116.306 118.266 113.477C118.266 110.649 115.974 108.356 113.148 108.356C110.321 108.356 108.029 110.649 108.029 113.477C108.029 116.306 110.321 118.599 113.148 118.599Z" fill="white"/>
<path opacity="0.36" d="M113.148 116.162C114.63 116.162 115.832 114.96 115.832 113.477C115.832 111.995 114.63 110.792 113.148 110.792C111.666 110.792 110.465 111.995 110.465 113.477C110.465 114.96 111.666 116.162 113.148 116.162Z" fill="white"/>
<path d="M162.839 349.483C162.839 353.361 160.793 366.327 164.084 367.254C166.059 367.809 168.39 358.143 168.39 358.143" fill="#EDA59F"/>
<path d="M100.508 392.087V444.121C100.509 447.231 101.744 450.214 103.942 452.413C106.139 454.612 109.12 455.847 112.228 455.848H233.701C235.241 455.849 236.766 455.547 238.188 454.959C239.611 454.37 240.903 453.506 241.992 452.417C243.081 451.328 243.944 450.034 244.532 448.611C245.12 447.187 245.422 445.662 245.421 444.121V392.087C245.422 390.547 245.12 389.021 244.532 387.598C243.944 386.174 243.081 384.881 241.992 383.792C240.903 382.702 239.611 381.839 238.188 381.25C236.766 380.661 235.241 380.359 233.701 380.361H201.6V372.214C201.595 369.308 200.44 366.524 198.387 364.47C196.334 362.415 193.551 361.259 190.648 361.255H155.282C152.379 361.259 149.595 362.415 147.543 364.47C145.49 366.524 144.334 369.308 144.33 372.214V380.361H112.228C109.12 380.361 106.139 381.597 103.942 383.796C101.744 385.995 100.509 388.977 100.508 392.087ZM194.472 380.361H151.458V372.214C151.459 371.199 151.863 370.227 152.58 369.51C153.296 368.792 154.268 368.389 155.282 368.387H190.648C191.662 368.389 192.633 368.792 193.35 369.51C194.067 370.227 194.47 371.199 194.472 372.214V380.361Z" fill="#9EBCEA"/>
<path d="M177.952 347.446C177.952 347.446 189.481 357.999 181.517 369.784C178.414 374.374 170.238 371.615 170.238 369.196C170.238 359.044 169.449 356.287 162.768 358.721L162.84 348.179" fill="#EDA59F"/>
<path opacity="0.21" d="M100.508 408.552V444.122C100.509 447.232 101.744 450.214 103.942 452.413C106.139 454.612 109.12 455.848 112.228 455.848H233.701C235.241 455.85 236.766 455.548 238.188 454.959C239.611 454.37 240.903 453.507 241.992 452.417C243.081 451.328 243.944 450.035 244.532 448.611C245.12 447.188 245.422 445.662 245.421 444.122V408.552H100.508Z" fill="white"/>
<path d="M212.578 415.91H212.58C215.015 415.91 216.99 413.934 216.99 411.496V408.949C216.99 406.512 215.015 404.536 212.58 404.536H212.578C210.142 404.536 208.168 406.512 208.168 408.949V411.496C208.168 413.934 210.142 415.91 212.578 415.91Z" fill="white"/>
<path d="M133.348 415.91H133.349C135.785 415.91 137.76 413.934 137.76 411.496V408.949C137.76 406.512 135.785 404.536 133.349 404.536H133.348C130.912 404.536 128.937 406.512 128.937 408.949V411.496C128.937 413.934 130.912 415.91 133.348 415.91Z" fill="white"/>
<path d="M126.084 205.675L141.901 274.905L171.016 350.524" stroke="#2F3235" stroke-width="20" stroke-miterlimit="10"/>
<path d="M154.12 711.919L126.996 708.691C128.216 698.42 129.598 686.079 129.691 684.055C129.691 684.185 129.691 684.292 129.691 684.375H157.006C156.996 685.194 156.996 687.689 154.12 711.919Z" fill="#EDA59F"/>
<path d="M45.2836 715.185L17.9688 715.097C17.9688 715.097 18.0598 686.875 18.0598 684.375H45.3746C45.3746 686.882 45.2836 715.185 45.2836 715.185Z" fill="#EDA59F"/>
<path d="M78.4863 725.756C79.2208 725.753 79.9467 725.597 80.6186 725.301C81.2906 725.004 81.8942 724.572 82.3917 724.031C82.8892 723.49 83.27 722.853 83.5102 722.158C83.7504 721.464 83.845 720.727 83.7879 719.994C83.7089 718.979 83.3413 718.006 82.7286 717.193C82.1158 716.379 81.2834 715.757 80.3294 715.401L48.5375 704.747C47.9216 704.543 47.2687 704.474 46.6236 704.546C45.9786 704.617 45.3567 704.828 44.8006 705.162C40.4302 708.197 35.2023 709.748 29.8854 709.588C25.7438 709.293 21.7682 707.84 18.4119 705.394C18.117 705.152 17.7594 704.999 17.3807 704.952C17.002 704.906 16.6179 704.968 16.2733 705.132C15.9287 705.295 15.6377 705.554 15.4344 705.877C15.231 706.2 15.1237 706.574 15.125 706.956V722.511C15.125 722.97 15.2156 723.425 15.3915 723.849C15.5675 724.272 15.8253 724.657 16.1503 724.981C16.4753 725.305 16.861 725.561 17.2852 725.736C17.7095 725.91 18.164 725.999 18.6226 725.997L78.4863 725.756Z" fill="#C1D8ED"/>
<path d="M187.398 725.756C188.133 725.753 188.859 725.598 189.531 725.301C190.203 725.004 190.807 724.572 191.304 724.031C191.802 723.491 192.183 722.853 192.423 722.158C192.663 721.464 192.757 720.727 192.7 719.994C192.621 718.979 192.253 718.007 191.641 717.193C191.028 716.379 190.196 715.758 189.243 715.401L157.45 704.747C156.834 704.543 156.181 704.474 155.536 704.546C154.892 704.617 154.27 704.828 153.714 705.162C149.343 708.197 144.115 709.747 138.798 709.588C134.656 709.293 130.681 707.84 127.325 705.394C127.03 705.152 126.673 704.999 126.294 704.952C125.915 704.906 125.531 704.968 125.186 705.132C124.842 705.296 124.551 705.554 124.347 705.877C124.144 706.2 124.036 706.574 124.037 706.956V722.511C124.037 722.97 124.128 723.425 124.304 723.849C124.48 724.272 124.737 724.657 125.062 724.981C125.387 725.305 125.773 725.561 126.197 725.736C126.622 725.91 127.076 725.999 127.535 725.997L187.398 725.756Z" fill="#C1D8ED"/>
<path d="M116.077 703.288L164.196 702.468C161.935 645.161 161.797 585.049 161.092 527.603C151.7 465.686 146.755 397.693 135.163 336.219L134.815 336.322L133.798 329.385L34.8445 323.268L30.9944 387.959H31.2987C26.131 480.879 16.805 611.754 10.9258 701.736L58.8815 705.791C67.5208 617.568 80.892 489.019 89.1164 396.338C98.5608 441.461 104.985 488.182 113.199 532.917C114.842 588.915 116.231 647.456 116.077 703.288Z" fill="#55AFFC"/>
<path d="M141.693 333.742C136.245 346.275 29.1565 351.481 27.7257 329.434C26.8152 315.404 39.1719 303.156 39.1719 275.812C39.1719 248.468 14.0293 213.548 34.5154 193.05C40.4596 187.102 50.7235 183.263 63.2349 183.25C64.1714 190.551 76.5802 202.954 92.5788 201.9C104.584 201.106 108.473 190.577 108.812 183.419C110.503 183.445 111.816 183.471 112.636 183.51C155.793 185.371 136.829 234.515 136.413 270.619C135.905 312.866 147.313 320.831 141.693 333.742Z" fill="#2F3235"/>
<path d="M108.811 183.419C108.473 190.577 104.584 201.106 92.5783 201.9C76.5796 202.954 64.1709 190.551 63.2344 183.25H63.2734C79.0249 183.251 99.6346 183.276 108.811 183.419Z" fill="#EDA59F"/>
<path d="M105.229 183.251L108.511 350.441C108.511 350.441 143.419 350.77 149.625 344.56L140.143 258.941C140.143 258.941 120.773 240.691 123.428 184.781C123.423 184.78 113.059 181.897 105.229 183.251Z" fill="#26ad50"/>
<path d="M70.3694 183.251L75.5956 349.654C75.5956 349.654 27.0637 352.948 20.8555 346.736L35.4507 258.152C35.4507 258.152 54.8559 239.744 52.2012 183.837C58.2152 182.949 64.3108 182.753 70.3694 183.251Z" fill="#26ad50"/>
<path d="M142.472 280.098L107.145 281.165L107.041 275.959L116.536 275.673L111.802 182.941C113.552 183.029 115.298 183.208 117.03 183.475L121.726 275.516L141.9 274.905L142.472 280.098Z" fill="white"/>
<path d="M144.724 300.349L107.549 301.598L107.445 296.392L144.151 295.169L144.724 300.349Z" fill="white"/>
<path d="M73.4043 280.124L32.9004 281.204L33.4727 275.985L59.6689 275.282L57.4707 183.227C58.9535 183.123 60.6965 183.032 62.6735 183.019L64.8717 275.139L73.2353 274.918L73.4043 280.124Z" fill="white"/>
<path d="M74.1463 303.837H30.3906L30.9629 298.631H73.9903L74.1463 303.837Z" fill="white"/>
<path d="M51.4048 230.343L73.2502 228.356L86.0218 241.852L111.124 239.56L88.5777 317.734L63.2335 321.3L52.2672 307.749L29.1797 313.152L51.4048 230.343Z" fill="#F3F5FD"/>
<path opacity="0.07" d="M73.2506 228.356L86.0222 241.852L63.2338 321.3L52.2676 307.749L73.2506 228.356Z" fill="black"/>
<path d="M88.8381 276.624C98.2942 276.624 105.227 261.686 105.227 276.964C105.227 292.242 80.416 293.363 80.416 293.363L81.2524 276.459C81.2524 276.459 86.6815 270.09 88.8875 270.09C91.0935 270.09 88.8381 276.624 88.8381 276.624Z" fill="#EDA59F"/>
<path d="M80.2295 300.906L13.5618 297.986C11.3425 297.889 9.17688 297.273 7.2395 296.185C5.30212 295.098 3.64722 293.57 2.40823 291.725C1.16923 289.88 0.38081 287.77 0.106534 285.564C-0.167741 283.358 0.0798023 281.119 0.829206 279.027L28.7671 201.53L47.107 233.828L34.0076 270.471L81.469 272.553L80.2295 300.906Z" fill="#2F3235"/>
</g>
<defs>
<clipPath id="clip0">
<rect width="778" height="726" fill="white"/>
</clipPath>
</defs>
</svg>
