<svg width="407" height="335" viewBox="0 0 407 335" fill="none" xmlns="http://www.w3.org/2000/svg">
<path d="M85.8705 71.3408C85.6976 73.4305 87.9014 75.3761 88.2644 77.3457C88.6401 79.3836 87.293 81.9716 88.1716 83.7999C89.0629 85.6544 91.9529 86.2559 93.289 87.8102C94.6251 89.3645 94.7611 92.2807 96.4688 93.4488C98.1518 94.6011 100.953 93.7034 102.927 94.3983C104.835 95.0698 106.422 97.5309 108.536 97.7018C110.65 97.8726 112.618 95.694 114.61 95.3352C116.672 94.9639 119.29 96.2955 121.139 95.4264C123.015 94.5452 123.624 91.6883 125.196 90.3675C126.768 89.0467 129.718 88.9129 130.9 87.2247C132.065 85.5604 131.157 82.7918 131.86 80.8405C132.539 78.9547 135.029 77.3856 135.202 75.2953C135.375 73.205 133.171 71.2599 132.808 69.2904C132.432 67.2525 133.779 64.6644 132.901 62.8362C132.009 60.9817 129.119 60.3802 127.783 58.8259C126.447 57.2716 126.311 54.3554 124.604 53.1872C122.92 52.035 120.119 52.9326 118.145 52.2378C116.238 51.5663 114.651 49.1052 112.537 48.9343C110.423 48.7635 108.454 50.9415 106.462 51.3003C104.401 51.6716 101.782 50.34 99.9332 51.2092C98.0573 52.0903 97.4483 54.9472 95.876 56.268C94.3036 57.5888 91.3537 57.7226 90.172 59.4108C89.0071 61.0751 89.9145 63.8443 89.2116 65.795C88.5323 67.6814 86.0422 69.2505 85.8705 71.3408Z" fill="#0F1011"/>
<path d="M119.872 95.9134C119.872 95.9134 115.415 93.5822 116.398 81.5884L107.192 79.9093C107.192 79.9093 108.236 90.6609 103.583 94.0788L119.872 95.9134Z" fill="#EDA59F"/>
<g opacity="0.15">
<path opacity="0.15" d="M105.464 91.8291L113.106 86.0395L107.1 85.9825C106.928 88.0151 106.373 89.998 105.464 91.8291Z" fill="black"/>
</g>
<path d="M121.615 76.9332C120.981 80.5727 118.976 84.0197 115.73 85.1981C112.192 86.5899 108.363 87.1047 104.578 86.6977C94.5006 85.8895 96.4733 63.2376 101.254 58.8337C106.034 54.4299 120.077 57.2037 121.791 64.5612C122.678 68.3687 122.218 73.4697 121.615 76.9332Z" fill="#EDA59F"/>
<path d="M107.197 74.144C107.658 74.144 108.032 73.7745 108.032 73.3187C108.032 72.8629 107.658 72.4934 107.197 72.4934C106.736 72.4934 106.362 72.8629 106.362 73.3187C106.362 73.7745 106.736 74.144 107.197 74.144Z" fill="#0F1011"/>
<path d="M100.61 73.6152C101.071 73.6152 101.445 73.2457 101.445 72.7899C101.445 72.3341 101.071 71.9646 100.61 71.9646C100.149 71.9646 99.7754 72.3341 99.7754 72.7899C99.7754 73.2457 100.149 73.6152 100.61 73.6152Z" fill="#0F1011"/>
<path d="M99.1616 71.0328C99.0575 71.0335 98.9574 70.9933 98.8834 70.921C98.8093 70.8488 98.7673 70.7504 98.7666 70.6475C98.7659 70.5446 98.8066 70.4457 98.8797 70.3725C98.9528 70.2993 99.0523 70.2578 99.1564 70.2571L101.368 70.228H101.373C101.475 70.2312 101.571 70.273 101.642 70.3448C101.713 70.4166 101.753 70.5128 101.754 70.6131C101.754 70.7135 101.716 70.8102 101.646 70.8829C101.576 70.9556 101.48 70.9988 101.379 71.0032L99.1673 71.0328H99.1616Z" fill="#0F1011"/>
<path d="M108.997 71.8211C108.966 71.8211 108.936 71.8175 108.906 71.8103L106.725 71.2937C106.673 71.2831 106.625 71.2624 106.582 71.2328C106.538 71.2033 106.502 71.1655 106.474 71.1217C106.445 71.0778 106.427 71.0289 106.418 70.9777C106.409 70.9265 106.411 70.8741 106.423 70.8237C106.436 70.7732 106.458 70.7257 106.489 70.6839C106.52 70.6421 106.56 70.607 106.605 70.5805C106.65 70.554 106.7 70.5367 106.752 70.5297C106.804 70.5227 106.857 70.526 106.907 70.5396L109.088 71.0562C109.181 71.0784 109.263 71.1337 109.318 71.2115C109.373 71.2893 109.397 71.3843 109.386 71.4785C109.375 71.5727 109.329 71.6596 109.257 71.7227C109.186 71.7859 109.093 71.8209 108.997 71.8211Z" fill="#0F1011"/>
<path d="M106.817 79.8173C106.817 79.8173 103.735 80.1414 101.574 79.397C101.574 79.397 101.593 81.4035 104.032 81.5989C106.47 81.7942 106.817 79.8173 106.817 79.8173Z" fill="white"/>
<path d="M114.826 67.5145C114.222 76.0431 115.172 84.6096 117.63 92.8063C117.63 92.8063 124.655 80.8313 125.741 70.8612C126.76 61.5147 119.789 56.0031 115.083 54.9665C97.1919 51.0286 95.9048 63.9473 95.9048 63.9473C99.1635 70.647 116.762 70.618 116.762 70.618" fill="#0F1011"/>
<path d="M111.416 76.8713C111.373 77.3322 111.423 77.7969 111.562 78.2387C111.702 78.6804 111.929 79.0903 112.23 79.4447C112.532 79.799 112.901 80.0908 113.317 80.3031C113.733 80.5154 114.187 80.6439 114.654 80.6813C115.121 80.7187 115.59 80.6643 116.036 80.521C116.481 80.3778 116.893 80.1487 117.248 79.8469C117.603 79.5451 117.894 79.1767 118.104 78.7631C118.314 78.3494 118.438 77.8986 118.471 77.4369C118.517 76.9775 118.468 76.5136 118.329 76.073C118.189 75.6324 117.962 75.2241 117.659 74.8723C117.357 74.5206 116.986 74.2326 116.568 74.0255C116.151 73.8184 115.696 73.6965 115.23 73.667C112.707 73.5878 111.576 74.9456 111.416 76.8713Z" fill="#EDA59F"/>
<g opacity="0.15">
<path opacity="0.15" d="M103.495 77.8985C103.564 77.8986 103.631 77.8741 103.683 77.8296C103.736 77.7851 103.77 77.7236 103.78 77.6561C103.791 77.5886 103.776 77.5198 103.739 77.462C103.702 77.4043 103.646 77.3615 103.58 77.3415L101.881 76.8289L103.067 74.2135C103.083 74.1793 103.092 74.1423 103.093 74.1046C103.095 74.067 103.089 74.0294 103.075 73.9941C103.062 73.9587 103.042 73.9264 103.016 73.8989C102.99 73.8713 102.958 73.8492 102.923 73.8338C102.889 73.8183 102.851 73.8098 102.813 73.8088C102.775 73.8078 102.737 73.8143 102.701 73.8279C102.666 73.8415 102.633 73.8619 102.606 73.8881C102.578 73.9142 102.556 73.9454 102.541 73.98L101.222 76.8904C101.205 76.9273 101.197 76.9672 101.197 77.0076C101.197 77.048 101.206 77.0879 101.223 77.1246C101.24 77.1613 101.264 77.1941 101.295 77.2207C101.326 77.2473 101.362 77.2671 101.401 77.2789L103.411 77.8872C103.438 77.895 103.467 77.8989 103.495 77.8985Z" fill="black"/>
</g>
<path d="M59.3144 224.029C63.0018 235.073 75.7291 244.886 71.9264 253.008C70.4803 256.095 69.0278 259.324 68.3601 262.622C67.9261 264.589 67.8539 266.616 68.1469 268.608C69.5181 277.209 77.6592 282.921 85.2298 287.37C85.6965 287.643 86.1684 287.922 86.6414 288.201C93.8145 292.45 101.328 297.343 103.632 305.185C104.911 309.543 104.347 314.202 104.877 318.707C105.379 322.847 106.801 326.827 109.042 330.36H157.387C161.68 325.684 161.322 317.824 158.056 312.311C154.558 306.41 148.653 302.4 143.323 298.037C138.719 294.267 134.231 289.728 132.474 284.191C132.195 283.315 131.989 282.418 131.858 281.509C131.432 278.513 131.661 263.209 126.408 253.788C118.284 239.242 105.107 242.824 101.08 234.617C99.5357 231.473 98.2048 192.84 72.5372 199.976C70.0344 200.638 67.6941 201.797 65.6588 203.382C63.6236 204.966 61.936 206.944 60.6989 209.195C59.4618 211.445 58.7011 213.921 58.463 216.471C58.225 219.021 58.5147 221.593 59.3144 224.029Z" fill="#C1D8ED"/>
<path d="M361.197 239.462C358.021 248.969 347.06 257.417 350.335 264.409C351.58 267.067 352.831 269.847 353.407 272.686C353.78 274.379 353.842 276.125 353.59 277.839C352.409 285.243 345.397 290.161 338.877 293.991C338.475 294.226 338.069 294.466 337.661 294.706C331.483 298.364 325.013 302.576 323.028 309.328C321.926 313.079 322.412 317.09 321.956 320.968C321.523 324.533 320.298 327.958 318.368 331H276.73C273.033 326.974 273.341 320.208 276.155 315.462C279.167 310.382 284.253 306.93 288.843 303.174C292.808 299.928 296.674 296.02 298.187 291.255C298.427 290.5 298.605 289.728 298.718 288.945C299.085 286.366 298.887 273.191 303.412 265.081C310.409 252.558 321.757 255.643 325.226 248.577C326.556 245.87 327.702 212.612 349.809 218.756C351.964 219.325 353.98 220.323 355.733 221.687C357.486 223.051 358.939 224.754 360.005 226.691C361.07 228.629 361.725 230.76 361.93 232.955C362.135 235.151 361.886 237.365 361.197 239.462Z" fill="#C1D8ED"/>
<path d="M12.362 284.435C13.0991 284.937 13.8916 285.353 14.7243 285.677C21.6502 288.246 40.911 287.961 43.7284 294.722C45.0536 297.9 45.3704 301.408 46.5055 304.66C49.0809 312.036 55.8795 317.567 63.4847 319.646C66.2214 320.392 69.0561 320.739 71.7634 321.571C76.9955 323.182 81.3276 326.423 85.136 330.359H147.575C147.603 326.266 146.585 322.232 144.614 318.632C142.644 315.031 139.787 311.981 136.306 309.764C129.363 305.435 120.594 304.626 113.778 300.104C109.284 297.119 106.053 292.808 103.489 288.041C101.857 284.922 100.416 281.71 99.1734 278.421C97.2663 273.528 95.2728 268.277 90.9401 265.247C88.8153 263.882 86.4596 262.906 83.9854 262.365C77.7289 260.747 72.9175 261.699 68.3607 262.621C62.8296 263.738 57.6673 264.803 50.7356 261.163C38.441 254.704 20.4645 222.496 2.50059 253.098C-4.7019 265.372 5.23675 279.719 12.362 284.435Z" fill="#8DDBE0"/>
<path d="M395.421 291.31C394.787 291.744 394.105 292.104 393.388 292.384C387.428 294.604 370.853 294.357 368.428 300.2C367.288 302.947 367.015 305.979 366.038 308.79C363.822 315.165 357.971 319.944 351.427 321.741C349.071 322.386 346.632 322.686 344.302 323.405C339.8 324.798 336.071 327.599 332.794 331H279.06C279.037 327.462 279.913 323.976 281.608 320.865C283.304 317.753 285.763 315.117 288.759 313.201C294.733 309.459 302.28 308.76 308.145 304.852C312.013 302.273 314.794 298.546 317 294.426C318.404 291.731 319.644 288.955 320.714 286.112C322.355 281.884 324.071 277.346 327.799 274.727C329.628 273.547 331.655 272.704 333.784 272.236C339.168 270.838 343.309 271.66 347.23 272.458C351.99 273.422 356.433 274.343 362.398 271.197C372.978 265.615 388.449 237.779 403.908 264.227C410.106 274.835 401.553 287.235 395.421 291.31Z" fill="#8DDBE0"/>
<path d="M294.937 5.04004H160.478C150.181 5.04004 141.834 13.7427 141.834 24.4779V310.521C141.834 321.256 150.181 329.959 160.478 329.959H294.937C305.234 329.959 313.581 321.256 313.581 310.521V24.4779C313.581 13.7427 305.234 5.04004 294.937 5.04004Z" fill="white"/>
<path d="M294.937 335H160.478C154.254 334.992 148.286 332.411 143.885 327.822C139.483 323.233 137.007 317.011 137 310.521V24.4781C137.007 17.9884 139.483 11.7667 143.885 7.17778C148.286 2.5889 154.254 0.00755921 160.478 0L294.938 0C301.163 0.00771036 307.13 2.58912 311.531 7.17798C315.933 11.7668 318.409 17.9885 318.416 24.4781V310.521C318.409 317.011 315.933 323.233 311.531 327.822C307.13 332.411 301.162 334.993 294.937 335V335ZM160.478 10.0805C156.818 10.0854 153.308 11.6036 150.72 14.3023C148.132 17.001 146.675 20.6598 146.671 24.4764V310.52C146.675 314.336 148.131 317.995 150.72 320.694C153.308 323.393 156.818 324.911 160.478 324.915H294.938C298.599 324.911 302.108 323.393 304.697 320.694C307.285 317.995 308.741 314.336 308.746 310.52V24.4781C308.741 20.6616 307.285 17.0027 304.696 14.304C302.108 11.6053 298.599 10.0871 294.938 10.0822L160.478 10.0805Z" fill="#26ad50"/>
<path d="M198.267 5.04297H257.148V16.9608C257.148 18.1323 256.927 19.2924 256.497 20.3747C256.068 21.457 255.438 22.4405 254.644 23.2689C253.85 24.0973 252.907 24.7544 251.869 25.2027C250.832 25.651 249.72 25.8818 248.597 25.8818H206.818C204.55 25.8818 202.375 24.9419 200.771 23.2689C199.168 21.5959 198.267 19.3268 198.267 16.9608V5.04297H198.267Z" fill="#26ad50"/>
<path d="M75.5112 110.915C75.5112 110.915 69.4938 105.558 69.1585 103.746C68.8232 101.933 73.4992 98.6955 73.4992 98.6955C73.4992 98.6955 72.302 97.3446 71.1422 95.8187C69.8038 94.0576 68.5166 92.0636 69.1781 91.6438C69.8165 91.2389 71.3894 92.7368 72.9571 94.5486C74.9736 96.8781 76.9752 99.727 76.9752 99.727C76.9752 99.727 76.1968 96.5768 77.42 96.4486C77.9229 96.3962 78.2842 96.9043 78.9283 99.1375C79.6595 101.684 81.1978 105.542 81.1978 105.542L75.5112 110.915Z" fill="#EDA59F"/>
<path d="M87.5537 140.613C86.304 140.613 85.0827 140.244 84.046 139.554C83.0094 138.864 82.2046 137.885 81.7345 136.74L70.4419 109.249L82.0802 104.579L85.4991 112.902L88.1828 99.6433L100.502 102.079L93.7116 135.626C93.4468 136.936 92.7619 138.126 91.7587 139.02C90.7555 139.914 89.4873 140.465 88.1425 140.59C87.9483 140.604 87.7501 140.613 87.5537 140.613Z" fill="#2F3235"/>
<path d="M67.1686 118.325L74.1527 117.224C74.4272 117.181 74.6893 117.08 74.9219 116.93C75.1545 116.78 75.3524 116.582 75.5025 116.351C75.6527 116.12 75.7518 115.86 75.7933 115.588C75.8348 115.317 75.8178 115.039 75.7435 114.775L71.3497 99.1819C71.2195 98.72 70.9219 98.3216 70.5137 98.0627C70.1055 97.8038 69.6151 97.7024 69.1361 97.7779L62.152 98.88C61.8776 98.9233 61.6154 99.0234 61.3828 99.1738C61.1502 99.3242 60.9523 99.5214 60.8022 99.7526C60.652 99.9838 60.5529 100.244 60.5114 100.515C60.4699 100.787 60.4869 101.064 60.5613 101.329L64.9556 116.92C65.0852 117.382 65.3825 117.781 65.7907 118.04C66.1989 118.299 66.6894 118.401 67.1686 118.325Z" fill="#C1D8ED"/>
<path d="M130.448 258.5C119.975 255.885 118.945 255.495 118.606 255.367L122.932 244.198C122.898 244.184 122.853 244.167 122.799 244.15C123.651 244.427 128.97 245.795 133.411 246.904L130.448 258.5Z" fill="#EDA59F"/>
<path d="M129.977 274.122C129.873 274.427 129.705 274.707 129.486 274.944C129.267 275.182 129 275.373 128.703 275.504C128.406 275.635 128.085 275.705 127.759 275.708C127.434 275.711 127.111 275.647 126.812 275.522C126.397 275.347 126.041 275.06 125.785 274.692C125.53 274.324 125.387 273.892 125.372 273.447L125.38 258.765C125.381 258.481 125.444 258.2 125.565 257.942C125.686 257.685 125.862 257.456 126.08 257.272C127.97 255.88 129.358 253.925 130.04 251.696C130.5 249.935 130.45 248.083 129.897 246.349C129.837 246.193 129.823 246.023 129.857 245.859C129.891 245.695 129.971 245.545 130.088 245.424C130.206 245.304 130.355 245.219 130.52 245.18C130.684 245.141 130.856 245.148 131.016 245.202L137.545 247.367C137.737 247.43 137.915 247.531 138.068 247.663C138.221 247.795 138.346 247.956 138.436 248.136C138.526 248.316 138.58 248.511 138.593 248.712C138.606 248.912 138.58 249.113 138.514 249.303L129.977 274.122Z" fill="#C1D8ED"/>
<path d="M101.781 325.385C101.781 325.385 101.74 312.999 101.74 311.902H113.839C113.839 312.996 113.88 325.344 113.88 325.344L101.781 325.385Z" fill="#EDA59F"/>
<path d="M133.48 153.877C125.717 146.203 89.6481 156.554 89.6481 156.554L89.6153 156.777L88.8749 156.366C79.7025 174.592 66.7126 201.874 57.7229 220.455C57.0364 221.732 56.6227 223.136 56.5077 224.578C56.3926 226.02 56.5786 227.47 57.054 228.838C57.5294 230.206 58.2841 231.463 59.2714 232.531C60.2586 233.599 61.4573 234.455 62.793 235.046L102.058 252.315C100.041 274.209 97.7269 296.084 95.7991 317.943L116.953 320.553C120.797 294.475 124.75 268.427 128.28 242.317L128.856 241.036L128.477 240.87C130.641 224.783 132.641 208.673 134.35 192.514C134.679 189.229 134.968 185.655 135.111 182.181C135.109 182.183 137.657 158.006 133.48 153.877ZM82.4537 220.63C90.0232 208.156 98.9282 193.457 106.638 180.98C106.243 197.363 105.261 213.733 103.97 230.093L82.4537 220.63Z" fill="#55AFFC"/>
<path d="M78.416 114.239L74.2965 119.764C74.2965 119.764 63.2257 117.57 62.1869 109.139C62.067 108.171 62.1713 105.482 63.387 105.843C66.5559 106.781 70.4996 111.588 73.2646 112.228C72.6337 111.11 71.8639 109.533 72.3606 109.245C73.6644 108.486 77.179 113.064 78.416 114.239Z" fill="#EDA59F"/>
<path d="M134.097 96.8884C131.464 94.2855 126.918 92.6053 121.376 92.5996C120.96 95.7943 101.337 95.8057 101.187 92.6731C100.438 92.6845 99.8564 92.6964 99.4935 92.7135C86.174 93.2831 86.2131 103.893 87.5233 115.621L76.5643 110.843L71.4941 122.205L88.936 129.81C88.9476 130.152 88.9568 130.494 88.9602 130.835C89.1855 149.324 84.1326 152.809 86.6216 158.459C89.0351 163.944 136.47 166.223 137.104 156.574C137.507 150.434 132.034 145.074 132.034 133.108C132.034 121.143 143.172 105.859 134.097 96.8884Z" fill="#2F3235"/>
<path d="M87.0842 330.252C86.7588 330.251 86.4371 330.183 86.1394 330.053C85.8417 329.923 85.5743 329.734 85.3539 329.498C85.1334 329.261 84.9647 328.982 84.8583 328.678C84.7518 328.374 84.7099 328.052 84.7352 327.731C84.7702 327.286 84.933 326.861 85.2044 326.505C85.4759 326.149 85.8446 325.877 86.2672 325.721L100.35 321.058C100.622 320.969 100.912 320.939 101.197 320.97C101.483 321.002 101.758 321.094 102.005 321.24C103.941 322.568 106.257 323.247 108.612 323.177C110.447 323.048 112.207 322.412 113.694 321.341C113.824 321.235 113.983 321.168 114.151 321.148C114.318 321.128 114.488 321.155 114.641 321.227C114.793 321.298 114.922 321.411 115.012 321.553C115.102 321.694 115.15 321.858 115.15 322.024V328.834C115.15 329.035 115.11 329.234 115.032 329.419C114.954 329.605 114.84 329.773 114.696 329.915C114.552 330.057 114.381 330.169 114.193 330.245C114.005 330.321 113.804 330.36 113.6 330.359L87.0842 330.252Z" fill="#C1D8ED"/>
<path d="M101.188 92.6737C101.337 95.8062 103.06 100.414 108.378 100.761C115.465 101.223 120.96 95.7948 121.376 92.5996H121.358C114.381 92.5996 105.255 92.611 101.188 92.6737Z" fill="#EDA59F"/>
</svg>
