<svg id="Capa_1" enable-background="new 0 0 512 512" height="512" viewBox="0 0 512 512" width="512" xmlns="http://www.w3.org/2000/svg" xmlns:xlink="http://www.w3.org/1999/xlink"><linearGradient id="lg1"><stop offset="0" stop-color="#cbe7af"/><stop offset=".5156" stop-color="#add984"/><stop offset=".5601" stop-color="#aad880"/><stop offset=".9039" stop-color="#9fd26f"/><stop offset="1" stop-color="#9bd069"/></linearGradient><radialGradient id="SVGID_1_" cx="42.618" cy="430.833" gradientUnits="userSpaceOnUse" r="89.715" xlink:href="#lg1"/><radialGradient id="SVGID_2_" cx="43.027" cy="327.264" gradientTransform="matrix(0 1 -1 0 512 20.189)" gradientUnits="userSpaceOnUse" r="300.39"><stop offset="0" stop-color="#e7f6ec"/><stop offset=".5145" stop-color="#daefc8"/><stop offset="1" stop-color="#cbe7af"/></radialGradient><radialGradient id="SVGID_3_" cx="182.64" cy="167.162" gradientTransform="matrix(0 1 -1 0 512 20.189)" gradientUnits="userSpaceOnUse" r="86.351" xlink:href="#lg1"/><radialGradient id="SVGID_4_" cx="301.408" cy="161.878" gradientTransform="matrix(0 1 -1 0 512 20.189)" gradientUnits="userSpaceOnUse" r="350.727"><stop offset="0" stop-color="#aad880"/><stop offset=".0981" stop-color="#a3d576"/><stop offset=".4843" stop-color="#8bc852"/><stop offset=".8405" stop-color="#65a15c"/><stop offset="1" stop-color="#528e61"/></radialGradient><radialGradient id="SVGID_5_" cx="391.345" cy="481.133" gradientTransform="matrix(.931 0 0 .112 -111.519 415.958)" gradientUnits="userSpaceOnUse" r="247.626"><stop offset="0" stop-color="#daefc8"/><stop offset=".0104" stop-color="#daefc9"/><stop offset=".4962" stop-color="#eaf6df"/><stop offset=".888" stop-color="#fff"/></radialGradient><g><path d="m50.18 452.705c10.956 11.16 25.434 16.746 39.918 16.746h55.663s.158-25.634-5.071-43.805l-101.614 14.617c3.483 4.298 7.186 8.452 11.104 12.442z" fill="url(#SVGID_1_)"/><path d="m143.99 231.39c60.708-122.566 222.246-218.276 228.527-218.276h-55.663c-11.614 0-23.311 1.156-34.924 3.519-140.263 28.529-249.883 138.148-278.412 278.41-10.493 51.588 2.809 104.81 35.557 145.219h94.349c-13.007-45.192-26.205-134.634 10.566-208.872z" fill="url(#SVGID_2_)"/><path d="m367.313 195.834c-14.253 0-28.428-6.382-37.821-18.819l-23.821-31.544c-12.241-16.209-34.496-21.686-52.46-12.205l56.745-19.278c17.963-9.481 50.32 6.894 62.56 23.103l18.537 29.704c9.392 12.437 17.669 29.039 31.922 29.039z" fill="url(#SVGID_3_)"/><path d="m219.563 342.607-31.535-23.814c-16.206-12.238-21.694-34.487-12.223-52.451.26-.494.531-.983.811-1.47 31.327-54.307 76.497-99.477 130.804-130.804.481-.277.965-.545 1.454-.803 17.963-9.481 40.219-4.005 52.46 12.205l23.821 31.544c17.33 22.948 50.945 25.282 71.279 4.948l39.172-39.172c21.992-21.991 21.841-57.708-.352-79.496-41.512-40.754-100.587-58.271-157.662-46.661-140.263 28.529-249.882 138.148-278.411 278.41-11.609 57.075 5.908 116.15 46.661 157.662 21.788 22.193 57.504 22.344 79.496.352l39.172-39.172c20.335-20.333 18.002-53.949-4.947-71.278z" fill="url(#SVGID_4_)"/><path d="m256 498.886c132.687 0 240.251-13.178 240.251-29.435h-480.502c0 16.257 107.564 29.435 240.251 29.435z" fill="url(#SVGID_5_)"/></g></svg>