<svg width="24" height="24" viewBox="0 0 24 24" fill="none" xmlns="http://www.w3.org/2000/svg">
<g clip-path="url(#clip0)">
<path d="M18.9654 10.0253V5.00002C18.9654 3.897 18.0886 3 17.0102 3H2.34606C1.26774 3 0.390869 3.89695 0.390869 5.00002V15C0.390869 16.103 1.26774 17 2.3461 17H13.3082C13.9487 19.305 16.0207 21 18.4766 21C19.4218 21 20.3512 20.7456 21.1655 20.2637C21.399 20.1255 21.4792 19.8198 21.3436 19.5806C21.2085 19.3413 20.9092 19.2588 20.6758 19.3985C20.0103 19.792 19.2499 20 18.4766 20C16.0507 20 14.0774 17.9814 14.0774 15.5C14.0774 13.0186 16.0507 11 18.4766 11C20.9025 11 22.8758 13.0186 22.8758 15.5V16C22.8758 16.5513 22.4372 17 21.8982 17C21.3593 17 20.9207 16.5513 20.9207 16V14C20.9207 13.7236 20.702 13.5 20.4318 13.5C20.3004 13.5 20.1822 13.5544 20.0945 13.6406C19.6624 13.2468 19.0994 13 18.4766 13C17.1291 13 16.0326 14.1216 16.0326 15.5C16.0326 16.8784 17.1291 18 18.4766 18C19.2051 18 19.8528 17.6657 20.301 17.1468C20.6551 17.6613 21.2376 18 21.8983 18C22.9766 18 23.8535 17.103 23.8535 16V15.5C23.8535 12.636 21.7017 10.2791 18.9654 10.0253ZM2.3461 3.99998H17.0102C17.0306 3.99998 17.0476 4.01062 17.0677 4.01189L10.0801 9.87891C9.83141 10.0391 9.47099 10.0058 9.30918 9.90431L2.28923 4.0118C2.30908 4.01058 2.32594 3.99998 2.3461 3.99998ZM17.9878 10.0253C15.2515 10.2791 13.0998 12.636 13.0998 15.5C13.0998 15.6688 13.1099 15.8351 13.1245 16H2.3461C1.8072 16 1.36851 15.5513 1.36851 15V5.00002C1.36851 4.85841 1.39907 4.72467 1.45122 4.60252L8.7321 10.71C9.01659 10.8999 9.3436 11.0001 9.67821 11.0001C9.99995 11.0001 10.3145 10.9073 10.5914 10.7315C10.6191 10.7164 10.6453 10.6983 10.6702 10.6773L17.9051 4.60242C17.9573 4.72467 17.9879 4.85841 17.9879 5.00006V10.0253H17.9878ZM18.4766 17C17.668 17 17.0102 16.3272 17.0102 15.5C17.0102 14.6729 17.668 14 18.4766 14C19.2853 14 19.9431 14.6729 19.9431 15.5C19.9431 16.3272 19.2853 17 18.4766 17Z" fill="#26ad50"/>
</g>
<defs>
<clipPath id="clip0">
<rect width="23.4626" height="24" fill="white" transform="translate(0.390869)"/>
</clipPath>
</defs>
</svg>
