<svg width="26" height="24" viewBox="0 0 26 24" fill="none" xmlns="http://www.w3.org/2000/svg">
<path d="M16.978 15.8571C19.5573 11.8496 19.2331 12.3496 19.3074 12.2451C20.2465 10.9336 20.7429 9.39009 20.7429 7.78125C20.7429 3.51469 17.2461 0 12.9313 0C8.63051 0 5.11964 3.50775 5.11964 7.78125C5.11964 9.38906 5.6264 10.973 6.59627 12.3022L8.88446 15.8572C6.438 16.2294 2.27905 17.3387 2.27905 19.7812C2.27905 20.6716 2.86601 21.9405 5.66229 22.9293C7.61481 23.6197 10.1963 24 12.9313 24C18.0455 24 23.5835 22.5716 23.5835 19.7812C23.5835 17.3383 19.4294 16.2301 16.978 15.8571ZM7.78264 11.5287C7.77483 11.5166 7.76669 11.5048 7.75817 11.4931C6.95111 10.3938 6.53993 9.09098 6.53993 7.78125C6.53993 4.26478 9.39974 1.40625 12.9313 1.40625C16.4554 1.40625 19.3226 4.26605 19.3226 7.78125C19.3226 9.09309 18.9192 10.3517 18.1558 11.4221C18.0873 11.5114 18.4443 10.9624 12.9313 19.5276L7.78264 11.5287ZM12.9313 22.5938C7.34505 22.5938 3.69935 20.968 3.69935 19.7812C3.69935 18.9836 5.57262 17.6721 9.72366 17.1609L12.3324 21.2138C12.4627 21.4164 12.6886 21.5391 12.9312 21.5391C13.1738 21.5391 13.3997 21.4164 13.53 21.2138L16.1387 17.1609C20.2898 17.6721 22.1632 18.9836 22.1632 19.7812C22.1632 20.9579 18.5503 22.5938 12.9313 22.5938Z" fill="#26ad50"/>
<path d="M12.9313 4.26562C10.9735 4.26562 9.38062 5.84273 9.38062 7.78125C9.38062 9.71977 10.9735 11.2969 12.9313 11.2969C14.8892 11.2969 16.4821 9.71977 16.4821 7.78125C16.4821 5.84273 14.8892 4.26562 12.9313 4.26562ZM12.9313 9.89062C11.7566 9.89062 10.8009 8.94436 10.8009 7.78125C10.8009 6.61814 11.7566 5.67188 12.9313 5.67188C14.1061 5.67188 15.0618 6.61814 15.0618 7.78125C15.0618 8.94436 14.1061 9.89062 12.9313 9.89062Z" fill="#26ad50"/>
</svg>
