<svg width="16" height="16" viewBox="0 0 16 16" fill="none" xmlns="http://www.w3.org/2000/svg">
<g clip-path="url(#clip0)">
<path d="M10.4702 9.701L8.23938 8.02787V4.61969C8.23938 4.277 7.96238 4 7.61969 4C7.277 4 7 4.277 7 4.61969V8.33775C7 8.53294 7.09172 8.717 7.24788 8.8335L9.72657 10.6925C9.8381 10.7762 9.96826 10.8165 10.0978 10.8165C10.2868 10.8165 10.4727 10.7316 10.5941 10.568C10.7999 10.2947 10.7441 9.90613 10.4702 9.701Z" fill="#26ad50"/>
<path d="M8 0C3.58853 0 0 3.58853 0 8C0 12.4115 3.58853 16 8 16C12.4115 16 16 12.4115 16 8C16 3.58853 12.4115 0 8 0ZM8 15C4.27266 15 1 11.7273 1 8C1 4.27266 4.27266 1 8 1C11.728 1 15 4.27266 15 8C15 11.7273 11.7273 15 8 15Z" fill="#26ad50"/>
</g>
<defs>
<clipPath id="clip0">
<rect width="16" height="16" fill="white"/>
</clipPath>
</defs>
</svg>
