<svg width="34" height="34" viewBox="0 0 34 34" fill="none" xmlns="http://www.w3.org/2000/svg">
<g clip-path="url(#clip0)">
<path d="M25.3694 23.5789L25.631 17.9986C25.6325 16.9776 24.7507 16.0888 23.7128 16.0888C23.3776 16.0888 23.0615 16.1758 22.7872 16.3313C22.667 15.4192 21.8362 14.6746 20.8845 14.6746C20.5493 14.6746 20.2332 14.7616 19.9582 14.915C19.8394 14.0043 19.0057 13.2612 18.0562 13.2605C17.7266 13.2605 17.4162 13.3446 17.1461 13.4917L17.1461 10.9858C17.1454 9.93293 16.2913 9.07592 15.2271 9.07523C14.1743 9.07453 13.3173 9.93151 13.3173 10.985L13.3173 20.6126L10.0153 18.2071C9.13279 17.5453 7.88056 17.6337 7.10068 18.4136C6.51591 18.9984 6.51591 19.9501 7.10068 20.5349L13.7677 27.2019C14.8057 28.2399 16.1867 28.8119 17.6588 28.8133L19.8825 28.8126C21.3497 28.8133 22.7292 28.2413 23.7665 27.204C24.7352 26.2353 25.3044 24.9478 25.3694 23.5789ZM19.8811 27.8128L17.6574 27.8135C16.4546 27.8128 15.324 27.344 14.4748 26.4948L7.80778 19.8278C7.61332 19.6333 7.61262 19.3158 7.80778 19.1207C8.23769 18.6907 8.92849 18.642 9.42061 19.0097L13.5238 21.9985C13.6758 22.1095 13.8766 22.1251 14.0449 22.0402C14.2118 21.9554 14.3179 21.7828 14.3178 21.5947L14.3178 10.9844C14.3185 10.4831 14.7265 10.0751 15.2363 10.0744C15.4873 10.0751 15.715 10.1769 15.8798 10.3416C16.0445 10.5064 16.1463 10.7341 16.1463 10.9858L16.1463 15.1377C16.1456 15.1483 16.1463 15.1603 16.1463 15.1717L16.147 18.0615C16.147 18.3373 16.3712 18.5614 16.6469 18.5614C16.9227 18.5614 17.1468 18.3373 17.1468 18.0615L17.1468 15.1469C17.1603 14.6569 17.564 14.2617 18.0653 14.261C18.5504 14.2624 18.9746 14.6838 18.9746 15.1703L18.974 16.5611C18.974 16.5696 18.9733 16.5774 18.974 16.5852L18.9746 18.0609C18.9746 18.3366 19.1988 18.5608 19.4746 18.5608C19.7503 18.5608 19.9745 18.3366 19.9745 18.0609L19.9738 16.5682C19.9844 16.0754 20.3895 15.6759 20.8937 15.6752C21.378 15.6759 21.803 16.098 21.803 16.5845L21.8002 18.0637C21.8002 18.0651 21.7994 18.0658 21.8002 18.0665L21.8002 18.0679C21.803 18.0765 21.8023 18.0744 21.8016 18.0722C21.8016 18.0722 21.8009 18.0729 21.8016 18.0736C21.8016 18.075 21.8016 18.075 21.8016 18.075C21.8016 18.0763 21.8016 18.0763 21.8016 18.0763L21.8023 18.077C21.8029 18.0777 21.8029 18.0777 21.8029 18.0777C21.8129 18.3478 22.0342 18.5621 22.3043 18.5607C22.5793 18.56 22.8027 18.3366 22.8027 18.0608L22.8027 17.976C22.8155 17.4852 23.2192 17.0886 23.7212 17.0885C24.2063 17.09 24.6298 17.5347 24.6312 17.9745L24.3689 23.5314C24.3159 24.6522 23.8506 25.7043 23.058 26.4969C22.2102 27.3447 21.081 27.8121 19.8811 27.8128Z" fill="#26ad50"/>
<path d="M21.8008 18.0717L21.8017 18.0726C21.8013 18.0712 21.8008 18.0698 21.8008 18.0698C21.8008 18.0717 21.8018 18.0726 21.8008 18.0717Z" fill="#26ad50"/>
<path d="M19.4341 12.5808C20.0584 10.9256 19.6589 9.0525 18.4138 7.80734C16.6595 6.05308 13.8043 6.05308 12.0501 7.80734C10.8056 9.05181 10.4054 10.9256 11.029 12.5801C11.0552 12.6487 11.0948 12.7081 11.1436 12.7569C11.2787 12.892 11.4844 12.9421 11.6739 12.8715C11.932 12.7732 12.0628 12.4854 11.9652 12.2266C11.4795 10.939 11.7899 9.48175 12.7572 8.51447C14.1218 7.14982 16.342 7.14979 17.7067 8.51447C18.674 9.48175 18.9844 10.939 18.4987 12.2266C18.4011 12.4854 18.5305 12.7732 18.79 12.8715C19.0473 12.9691 19.3365 12.8382 19.4341 12.5808Z" fill="#26ad50"/>
<path d="M20.8504 14.2448C22.3268 11.7007 21.906 8.47146 19.828 6.39338C17.2938 3.8592 13.1701 3.8592 10.6359 6.39338C8.5578 8.47149 8.1371 11.7007 9.61418 14.2455C9.63609 14.2844 9.66297 14.3183 9.69266 14.348C9.84964 14.505 10.0964 14.5439 10.2965 14.4272C10.5355 14.2886 10.6175 13.9832 10.4782 13.7435C9.22954 11.5911 9.58451 8.85898 11.343 7.10048C13.4876 4.95591 16.977 4.95664 19.1209 7.10048C20.8787 8.85829 21.235 11.5904 19.9856 13.7435C19.847 13.9811 19.9213 14.2816 20.1673 14.4272C20.4056 14.5651 20.7111 14.4831 20.8504 14.2448Z" fill="#26ad50"/>
</g>
<defs>
<clipPath id="clip0">
<rect width="24" height="24" fill="white" transform="translate(17 0.0292969) rotate(45)"/>
</clipPath>
</defs>
</svg>
