<?xml version="1.0"?>
<svg xmlns="http://www.w3.org/2000/svg" xmlns:xlink="http://www.w3.org/1999/xlink" xmlns:svgjs="http://svgjs.com/svgjs" version="1.1" width="512" height="512" x="0" y="0" viewBox="0 0 512 512" style="enable-background:new 0 0 512 512" xml:space="preserve" class=""><g><path xmlns="http://www.w3.org/2000/svg" d="m480 224.62c-7.388-3.682-15.188-11.969-9.894-43.632 2.436-14.567 1.732-24.519-2.213-31.318-3.918-6.75-10.085-9.138-15.525-11.246-.743-.288-1.492-.578-2.241-.882l-.063-.027c-.376-.913-.215-3.83-.119-5.6.367-6.7 1.131-20.631-17.2-23.093-8.894-1.193-14.912.2-18.409 4.261-4.736 5.5-2.562 13-1.123 17.961a28.919 28.919 0 0 1 .839 3.283c.159 1.267-.193 2.1-1.231 4.341a28.65 28.65 0 0 0 -3.194 13.162c0 6.133-.562 8.132-14.169 17.708a73.361 73.361 0 0 1 -11.654 6.264c-9.819 4.532-20.946 9.669-22.7 25.765-1.175 10.787-7.3 19.252-10.235 20.895-.05-.1-.1-.219-.161-.354-1.911-4.543-4.9-7.6-8.889-9.082-8.1-3.009-17.262 1.534-26.119 5.932-1.138.563-2.264 1.124-3.374 1.657a52.618 52.618 0 0 1 -16.63 4.793c.59-.814 1.237-1.649 1.877-2.473 3.58-4.614 8.991-11.585 3.922-18.659-5.238-7.309-11.423-4.552-15.517-2.727a46.646 46.646 0 0 1 -10.467 3.519c-9.353 1.919-13.323 6.874-16.221 10.492-2.248 2.806-2.96 3.485-4.8 3.714-10.581 1.32-10.14 12-9.93 17.132.082 1.948.248 6-.443 6.775-4.582 3.342-9.08 9.695-8.8 16.353a2.681 2.681 0 0 1 -1.078 2.261 2.136 2.136 0 0 1 -2.035.353c-1.184-.4-1.229-.646-1.229-1.608a40.231 40.231 0 0 1 .16-4.606l.265-.234a35.006 35.006 0 0 0 6.551-7.74c9.066-13.818.076-25.209-.311-25.687a6 6 0 0 0 -3.05-2c-7.844-2.193-12.38 4.56-15.693 9.49-4.051 6.032-8.241 12.269-17.664 13.284-13.259 1.428-14.387.243-16.091-1.552a25.994 25.994 0 0 0 -10.913-7.184c-9.236-3.453-24.667-.766-39.592 1.832-7.2 1.253-17.925 3.121-21.082 2.494-.147-.937-.042-3.394 1.584-7.831l.006.006c6.265 3.391 12.9 3.587 18.67.551 5.528-2.906 8.414-8.787 7.722-15.73-.888-8.906-8.1-19.772-20.154-23.307-10.508-3.078-16.958 5.134-22.654 12.38-6.613 8.412-14.109 17.947-29.661 20.462a38.333 38.333 0 0 0 -26.545 16.929c-5.363 7.916-8.772 18.529-9.856 30.693a100.446 100.446 0 0 0 1.874 29.963c2.372 10.639.579 14.47-.027 15.39a2.028 2.028 0 0 1 -.843.8c-3.373-.176-14.988-.15-20.721 7.746-3.847 5.3-3.951 12.314-.309 20.855 18.459 43.28 27.459 51.169 33.825 53.176a10.3 10.3 0 0 0 8.673-1.025c4.222-2.631 6.257-8.838 9.626-19.122 4.24-12.939 10.647-32.493 21.328-35.647 5.245-1.55 11.953.848 19.941 7.128 6.478 10.1 15.751 21.35 24.223 19.741 6.627-1.258 8.876-7.392 10.364-11.451.92-2.51 1.872-5.1 3.208-5.741a32.871 32.871 0 0 0 6.695-4.424 21.413 21.413 0 0 1 1.9-1.431 6.5 6.5 0 0 1 1.236.616c.793.482 1.52.932 2.2 1.353 6.169 3.821 9.6 5.711 20.1 6.907 1.637.187 2.182.839 3.891 4.651 1.69 3.767 5.2 11.607 15.216 9.844 5.323-.935 6.657.6 11.756 9.65l.93 1.644c7.635 13.43 20.187 20.2 37.4 20.2a77.56 77.56 0 0 0 10.921-.818c15.592-2.223 21.421-6.121 24.9-8.45a13.223 13.223 0 0 1 1.687-1.035 5.707 5.707 0 0 1 1.962.347c6.45 1.807 11.527-.857 15.609-3 4.725-2.479 7.327-3.843 12.377-.756 9.849 6.025 16.659 3.379 22.132 1.252 3.985-1.548 7.43-2.885 13.082-1.476 10.774 2.686 15.581-.162 20.741-4.166a21.993 21.993 0 0 1 12.268-5.306c13.939-1.917 14.259-14.477 14.449-21.981.245-9.639 1.222-10.162 4.57-10.491 7.306-.716 8.461.893 10.561 3.814 2.195 3.053 5.512 7.667 13.694 7.667 3.379 0 13.663 0 17.239 4.09.492.563 1.99 2.278 1.344 7.058-.944 7-.114 12.936 2.467 17.651a13.608 13.608 0 0 0 24.973-2.8c10.483-36.261 4.709-50.362-.876-64a86.875 86.875 0 0 1 -4.536-13.044c-2.084-8.674-3.592-14.942-13.536-12.891a28.051 28.051 0 0 1 -8.881.575 2.414 2.414 0 0 1 -2.03-1.087c-2.875-4.009-1.757-15.754-.1-22.43a4.661 4.661 0 0 0 .026-2.83c-.095-.812-.484-6.408 5.056-16 4.292-7.43 4.748-16.107 5.08-22.441.006-.107.011-.215.017-.326a64.207 64.207 0 0 1 5.008 8.261 114.4 114.4 0 0 0 9.214 14.835c7.2 9.572 18.461 19.316 27.375 19.5a9.715 9.715 0 0 0 7.929-3.436c2.238-2.727 2.7-6.716 1.452-12.554-2.195-10.269-10.262-27.212-21.327-32.725zm-5.843 22a104.172 104.172 0 0 1 -8.269-13.369c-3.824-7.006-7.126-13.057-13.77-16.526-3.969-2.072-6.923-1.294-8.7-.278-4.454 2.541-4.733 7.848-5.056 13.991-.284 5.406-.636 12.134-3.487 17.069-6.742 11.672-6.992 19.636-6.621 23.128-1.25 5.5-4.251 22.008 2.265 31.114a14.34 14.34 0 0 0 10.8 6.066 39.515 39.515 0 0 0 10.831-.49c.331 1.237.675 2.671.911 3.65a97.681 97.681 0 0 0 5.1 14.789c5.027 12.277 9.777 23.872.453 56.119a1.524 1.524 0 0 1 -1.388 1.14 1.428 1.428 0 0 1 -1.531-.771c-1.306-2.387-1.687-5.943-1.1-10.284.912-6.755-.5-12.327-4.2-16.561-6.347-7.262-17.375-8.193-26.274-8.193-2.03 0-2.249-.3-3.951-2.672-3.688-5.132-8.389-10.036-21.475-8.751-14.87 1.458-15.2 14.4-15.395 22.129-.239 9.419-1.173 10-4.088 10.4a33.66 33.66 0 0 0 -17.987 7.712c-3.278 2.544-4.5 3.5-10.485 2-9.352-2.33-15.695.135-20.33 1.935s-6.744 2.62-11.524-.3c-10.859-6.641-18.895-2.423-24.214.366-3.509 1.841-5.1 2.546-6.795 2.07-6.631-1.859-9.933-.155-13.558 2.268-2.8 1.875-7.041 4.708-19.926 6.545-26.426 3.771-33.78-9.176-36.2-13.429l-.908-1.605c-4.248-7.54-9-15.975-19.962-15.975a24.91 24.91 0 0 0 -4.326.4 3.794 3.794 0 0 1 -.643.066 18.51 18.51 0 0 1 -1.544-3c-1.79-3.992-4.786-10.673-13.483-11.663-8.3-.946-10.022-2.014-15.143-5.186-.71-.44-1.468-.909-2.3-1.411-8.419-5.107-13.726-.824-16.9 1.735a21.421 21.421 0 0 1 -4.324 2.931c-5.754 2.743-7.81 8.349-9.31 12.441a34.069 34.069 0 0 1 -1.35 3.326c-2.819-1.83-8.288-8.292-12.364-14.754a5.974 5.974 0 0 0 -1.305-1.468c-11.571-9.356-22.219-12.69-31.639-9.907-16.723 4.938-24.011 27.18-29.333 43.42a115.008 115.008 0 0 1 -4.321 11.868c-2.723-1.979-10.221-10.369-25.358-45.876-1.79-4.2-2.164-7.51-1.027-9.088 1.7-2.365 7.431-3.068 10.753-2.8a4.826 4.826 0 0 0 .565.024 13 13 0 0 0 9.756-5.108c4.283-5.375 5.133-14.028 2.527-25.718-3.406-15.279-2.918-37.853 6.2-51.313a26.41 26.41 0 0 1 18.53-11.816c20.177-3.262 30.005-15.764 37.181-24.892 5.44-6.921 7.513-8.965 9.844-8.281 6.888 2.02 11.112 8.2 11.59 12.983.2 2.017-.258 3.335-1.366 3.917-1.412.742-3.711 1.5-7.374-.482a12.053 12.053 0 0 0 -9.99-.681 11.877 11.877 0 0 0 -6.959 7c-5.922 16.067.5 21.379 4.851 23.115 5.219 2.082 13.589.77 27.935-1.728 11.458-1.994 27.148-4.726 33.334-2.414a14.207 14.207 0 0 1 6.411 4.206c5.1 5.377 9.816 6.974 26.08 5.221 14.981-1.614 21.817-11.79 26.34-18.524.338-.5.711-1.058 1.09-1.608a11.2 11.2 0 0 1 -2.031 6.536 23.2 23.2 0 0 1 -4.507 5.368c-3.884 3.465-4.436 6.054-4.436 13.794a13.083 13.083 0 0 0 9.356 12.965 14.205 14.205 0 0 0 13.094-2.1 14.681 14.681 0 0 0 5.883-12.376c-.065-1.522 1.582-4.477 3.881-6.154 5.884-4.292 5.582-11.616 5.362-16.964a35.006 35.006 0 0 1 .012-4.812c6.468-1.016 9.708-5.06 12.093-8.038 2.323-2.9 4.159-5.19 9.268-6.239a57.342 57.342 0 0 0 12.239-4c-.676.961-1.471 1.986-2.068 2.756-2.2 2.83-4.687 6.038-5.922 9.731a8.531 8.531 0 0 0 2.313 9.4c7.565 6.666 26.875-.307 33.044-3.276 1.153-.555 2.324-1.137 3.506-1.723 5.641-2.8 13.363-6.636 16.6-5.432.282.1 1.141.425 2.009 2.488 2.392 5.683 6.983 8.613 12.29 7.842 8.655-1.263 19.2-14.316 21.1-31.736.976-8.95 5.818-11.562 15.8-16.171a83.858 83.858 0 0 0 13.53-7.345c13.689-9.633 19.264-14.819 19.264-27.522a17 17 0 0 1 2.078-8.108c1.27-2.734 2.85-6.137 2.253-10.889a34.4 34.4 0 0 0 -1.22-5.131c-.525-1.811-1.6-5.509-1.265-6.789.427-.218 2.293-.92 7.674-.2 7.338.985 7.206 3.393 6.815 10.542-.287 5.231-.767 13.985 7.647 17.4.81.329 1.619.643 2.422.954 8.874 3.437 14.231 5.513 10.237 29.395-5.074 30.347.129 48.253 16.376 56.351 7.323 3.649 13.891 18.248 15.163 25.234-3.482-1.633-9.672-6.031-15.651-13.976z" fill="#26ad50" data-original="#000000" style=""/></g></svg>
