<svg width="25" height="24" viewBox="0 0 25 24" fill="none" xmlns="http://www.w3.org/2000/svg">
<g clip-path="url(#clip0)">
<path d="M18.9977 14.8671C18.5056 14.3555 17.912 14.082 17.2829 14.082C16.6589 14.082 16.0602 14.3505 15.5478 14.8621L13.9447 16.4576C13.8128 16.3867 13.6808 16.3209 13.554 16.255C13.3714 16.1639 13.1989 16.0777 13.0518 15.9866C11.5501 15.0343 10.1853 13.7933 8.87641 12.1875C8.24225 11.3872 7.81609 10.7135 7.50662 10.0297C7.92263 9.64979 8.3082 9.25469 8.68363 8.87479C8.82568 8.73296 8.96773 8.58607 9.10979 8.44424C10.1752 7.38051 10.1752 6.00273 9.10979 4.939L7.72477 3.55616C7.5675 3.39913 7.40515 3.23704 7.25295 3.07495C6.94855 2.7609 6.62894 2.43671 6.29917 2.13279C5.80706 1.64652 5.21855 1.38818 4.59961 1.38818C3.98066 1.38818 3.38201 1.64652 2.87468 2.13279C2.86961 2.13786 2.86961 2.13786 2.86454 2.14292L1.13961 3.88034C0.490223 4.52871 0.119871 5.31891 0.0386982 6.23574C-0.0830614 7.71482 0.353244 9.0926 0.688083 9.99424C1.50996 12.2078 2.7377 14.2593 4.56917 16.4576C6.79128 19.1068 9.46492 21.1988 12.5191 22.6728C13.6859 23.225 15.2434 23.8784 16.9836 23.9898C17.0901 23.9949 17.2017 24 17.3032 24C18.4751 24 19.4594 23.5795 20.2305 22.7438C20.2356 22.7336 20.2457 22.7286 20.2508 22.7184C20.5146 22.3993 20.819 22.1106 21.1386 21.8016C21.3568 21.5939 21.58 21.3761 21.7982 21.1482C22.3004 20.6264 22.5642 20.0186 22.5642 19.3956C22.5642 18.7675 22.2953 18.1647 21.7829 17.6581L18.9977 14.8671ZM20.8139 20.2009C20.8089 20.2009 20.8089 20.206 20.8139 20.2009C20.6161 20.4137 20.4131 20.6062 20.195 20.8189C19.8652 21.133 19.5304 21.4622 19.2158 21.832C18.7034 22.3791 18.0997 22.6374 17.3083 22.6374C17.2322 22.6374 17.151 22.6374 17.0749 22.6323C15.5681 22.5361 14.1679 21.9485 13.1177 21.447C10.2462 20.0591 7.72477 18.0887 5.62949 15.5915C3.89949 13.5096 2.74278 11.5848 1.97671 9.51809C1.50489 8.25682 1.33239 7.27414 1.40849 6.34718C1.45923 5.75453 1.68753 5.26319 2.10861 4.84276L3.83861 3.11547C4.0872 2.88247 4.35102 2.75583 4.60976 2.75583C4.92938 2.75583 5.18811 2.94832 5.35046 3.11041C5.35553 3.11547 5.36061 3.12054 5.36568 3.1256C5.67515 3.41433 5.9694 3.71319 6.27888 4.0323C6.43615 4.1944 6.5985 4.35649 6.76084 4.52364L8.14586 5.90649C8.68363 6.44342 8.68363 6.93982 8.14586 7.47675C7.99873 7.62365 7.85668 7.77054 7.70955 7.91237C7.28339 8.34799 6.87753 8.75322 6.43615 9.14832C6.426 9.15845 6.41586 9.16352 6.41078 9.17365C5.97448 9.60927 6.05565 10.0348 6.14697 10.3235C6.15204 10.3387 6.15712 10.3539 6.16219 10.3691C6.5224 11.2403 7.02973 12.0609 7.80087 13.0385L7.80595 13.0436C9.20618 14.7658 10.6825 16.1081 12.3111 17.1364C12.5191 17.2681 12.7321 17.3745 12.9351 17.4758C13.1177 17.567 13.2902 17.6531 13.4373 17.7442C13.4576 17.7544 13.4779 17.7696 13.4982 17.7797C13.6707 17.8658 13.833 17.9063 14.0005 17.9063C14.4215 17.9063 14.6854 17.6429 14.7716 17.5568L16.5067 15.8245C16.6792 15.6523 16.9531 15.4446 17.2728 15.4446C17.5873 15.4446 17.846 15.6421 18.0033 15.8143C18.0084 15.8194 18.0084 15.8194 18.0135 15.8245L20.8089 18.6155C21.3314 19.1322 21.3314 19.664 20.8139 20.2009Z" fill="#26ad50"/>
<path d="M12.991 5.70908C14.3202 5.93196 15.5277 6.56006 16.4916 7.52248C17.4555 8.4849 18.0795 9.69046 18.3078 11.0176C18.3636 11.3519 18.6528 11.5849 18.9826 11.5849C19.0232 11.5849 19.0587 11.5798 19.0993 11.5748C19.4747 11.514 19.7233 11.1594 19.6624 10.7846C19.3885 9.17885 18.6275 7.71496 17.4657 6.555C16.3039 5.39503 14.8377 4.63522 13.2295 4.36169C12.854 4.30091 12.504 4.54911 12.438 4.91888C12.3721 5.28866 12.6156 5.6483 12.991 5.70908Z" fill="#26ad50"/>
<path d="M24.0099 10.5869C23.5584 7.94278 22.3104 5.53674 20.3927 3.62203C18.475 1.70732 16.0651 0.461243 13.4169 0.0104253C13.0465 -0.0554245 12.6965 0.197844 12.6305 0.567615C12.5696 0.942452 12.8182 1.29196 13.1936 1.35781C15.5578 1.75798 17.714 2.87742 19.4287 4.58445C21.1435 6.29654 22.2597 8.44932 22.6604 10.8098C22.7163 11.1441 23.0054 11.3771 23.3352 11.3771C23.3758 11.3771 23.4113 11.372 23.4519 11.367C23.8222 11.3113 24.0759 10.9567 24.0099 10.5869Z" fill="#26ad50"/>
</g>
<defs>
<clipPath id="clip0">
<rect width="24.0377" height="24" fill="white"/>
</clipPath>
</defs>
</svg>
