<svg width="512" height="512" viewBox="0 0 512 512" fill="none" xmlns="http://www.w3.org/2000/svg">
<path d="M256 182H228V219L256 247L284 219V182H256Z" fill="#FFD3B3"/>
<path d="M228 196C236.334 199.721 246.296 202 256 202C265.704 202 275.666 199.721 284 196V181H228V196Z" fill="#FCB98B"/>
<path d="M196 93H189.05C183.134 93 178.511 98.108 179.1 103.995L181.1 123.995C181.611 129.107 185.913 133 191.05 133H196V93Z" fill="#FFD3B3"/>
<path d="M316 93H322.95C328.866 93 333.489 98.108 332.9 103.995L330.9 123.995C330.389 129.107 326.087 133 320.95 133H316V93Z" fill="#FFD3B3"/>
<path d="M256 67H196V134C196 167.137 222.863 194 256 194C289.137 194 316 167.137 316 134V67H256Z" fill="#FFD3B3"/>
<path d="M238.177 87.181L232.845 83.49C230.493 81.861 227.737 81 224.875 81H205.54C202.248 81 199.002 81.68 196 82.98V134C196 144.867 198.904 155.05 203.956 163.841C205.063 162.988 206.107 162.042 207.07 161H217.5C223.29 161 228 156.29 228 150.5C228 144.71 223.29 140 217.5 140H202.972L196.228 126.512L200.376 109.092L223.52 101.377L227.484 103.756C229.018 104.676 230.772 105.162 232.556 105.162C235.625 105.162 238.466 103.773 240.348 101.352C242.006 99.221 242.722 96.468 242.313 93.799C241.905 91.13 240.397 88.717 238.177 87.181V87.181Z" fill="#FCB98B"/>
<path d="M273.823 87.181L279.155 83.49C281.507 81.861 284.263 81 287.125 81H306.461C309.753 81 312.999 81.68 316.001 82.98V134C316.001 144.867 313.097 155.05 308.045 163.841C306.938 162.988 305.894 162.042 304.931 161H294.5C288.71 161 284 156.29 284 150.5C284 144.71 288.71 140 294.5 140H309.028L315.772 126.512L311.624 109.092L288.48 101.377L284.516 103.756C282.982 104.676 281.228 105.162 279.444 105.162C276.375 105.162 273.534 103.773 271.652 101.352C269.994 99.221 269.278 96.468 269.687 93.799C270.095 91.13 271.603 88.717 273.823 87.181V87.181Z" fill="#FCB98B"/>
<path d="M262.488 149.463H248.549L250.006 131.976L255.985 132.474L255.069 143.463H262.488V149.463Z" fill="#FCB98B"/>
<path d="M220 67C220 67 221.667 82.833 206 93L196 113V93H189V55L220 55.129V67Z" fill="#474747"/>
<path d="M228 5H271C288.673 5 303 19.327 303 37C314.046 37 323 45.954 323 57V93H316V113L306 93C290.333 82.833 292 67 292 67C292 67 274.667 78 242 78C204.667 78 167 63.667 167 42V29C167 15.745 177.745 5 191 5H228Z" fill="#242424"/>
<path d="M249.764 171.365C248.86 171.365 248.288 171.336 248.163 171.329L248.499 165.338C248.655 165.347 264.357 166.102 269.695 158.014L274.703 161.319C268.613 170.548 254.548 171.365 249.764 171.365V171.365Z" fill="#FCB98B"/>
<path d="M196 113L206 93C211.559 89.393 214.928 85.074 216.971 81H205.54C201.191 81 196.921 82.183 193.192 84.42L189 86.935V93H196V113Z" fill="#474747"/>
<path d="M316 113L306 93C300.441 89.393 297.072 85.074 295.029 81H306.461C310.81 81 315.08 82.183 318.809 84.42L323 86.935V93H316V113Z" fill="#474747"/>
<path d="M276.1 90.469L281.432 86.778C283.104 85.62 285.09 85 287.124 85H306.461C310.086 85 313.642 85.985 316.751 87.85L328.853 95.112C330.934 96.361 332.77 97.978 334.272 99.884L358 130L336 163L327.256 164.666C319.699 166.105 311.959 163.308 307.069 157.37L304 153H290.766C289.259 153 287.954 151.791 288.003 150.285C288.117 146.795 290.982 144 294.499 144H311.499L319.999 127L316.797 113.552C315.679 108.856 312.213 105.071 307.634 103.545L293.862 98.954C290.141 97.714 286.063 98.161 282.7 100.179C280.164 101.7 276.8 101.313 274.917 99.032C272.72 96.371 273.282 92.42 276.1 90.469V90.469Z" fill="#FFD3B3"/>
<path d="M487.409 212.014L377.608 132.224L343.333 180.249L421 234H269L256 247L243 234H91L168.667 180.25L134.392 132.225L24.591 212.015C12.283 220.958 5 235.252 5 250.467C5 276.719 26.281 298 52.533 298H131C142.046 298 151 306.954 151 318V507H361V318C361 306.954 369.954 298 381 298H459.467C485.719 298 507 276.719 507 250.467C507 235.252 499.717 220.958 487.409 212.014V212.014Z" fill="#26ad50"/>
<path d="M421 234L433 245L414 234H421Z" fill="#466089"/>
<path d="M331.375 167.746L345.669 176.978L375.551 135.108L360.644 125.019L331.375 167.746Z" fill="#EDEFF1"/>
<path d="M366 185.138C370.418 185.138 374 181.556 374 177.138C374 172.72 370.418 169.138 366 169.138C361.582 169.138 358 172.72 358 177.138C358 181.556 361.582 185.138 366 185.138Z" fill="#FFE352"/>
<path d="M309 234H332.951L314 279.809L323.293 299.867L256 398.333L309 234Z" fill="#1C3827"/>
<path d="M279.833 458.333H339.833V466.333H279.833V458.333Z" fill="#1C3827"/>
<path d="M235.9 90.469L230.568 86.778C228.896 85.62 226.91 85 224.876 85H205.539C201.914 85 198.358 85.985 195.249 87.85L183.147 95.112C181.066 96.361 179.23 97.978 177.728 99.884L154 130L176 163L184.744 164.666C192.301 166.105 200.041 163.308 204.931 157.37L208 153H221.234C222.741 153 224.046 151.791 223.997 150.285C223.883 146.795 221.018 144 217.5 144H200.5L192 127L195.202 113.552C196.32 108.856 199.786 105.071 204.365 103.545L218.137 98.954C221.858 97.714 225.936 98.161 229.299 100.179C231.835 101.7 235.199 101.313 237.082 99.032C239.28 96.371 238.718 92.42 235.9 90.469V90.469Z" fill="#FFD3B3"/>
<path d="M91 234L79 245L98 234H91Z" fill="#466089"/>
<path d="M180.625 167.746L166.331 176.978L136.449 135.108L151.356 125.019L180.625 167.746Z" fill="#EDEFF1"/>
<path d="M146 185.138C150.418 185.138 154 181.556 154 177.138C154 172.72 150.418 169.138 146 169.138C141.582 169.138 138 172.72 138 177.138C138 181.556 141.582 185.138 146 185.138Z" fill="#FFE352"/>
<path d="M203 234H179.049L198 279.809L188.707 299.867L256 398.333L203 234Z" fill="#1C3827"/>
<path d="M172.167 458.333H232.167V466.333H172.167V458.333Z" fill="#1C3827"/>
<path d="M203 234L256 398.333L309 234H269L256 247L243 234H203Z" fill="#EDEFF1"/>
<path d="M284 219L256 247L228 219L208 234H203L233.935 279.809L252.692 253.126L256 251.472L259.308 253.126L278.065 279.809L309 234H304L284 219Z" fill="#D3D3D3"/>
<path d="M228 219L208 234L234.011 272.746L250 250L256 247L228 219Z" fill="#EDEFF1"/>
<path d="M284 219L304 234L277.989 272.746L262 250L256 247L284 219Z" fill="#EDEFF1"/>
<path d="M262 250L256 247L250 250L236.291 269.502L246.146 283H256H265.854L275.709 269.502L262 250Z" fill="#FFB0AA"/>
<path d="M271.665 268.541C268.014 273.543 262.193 276.5 256 276.5C249.807 276.5 243.987 273.543 240.335 268.541L238.619 266.19L236.291 269.502L246.146 283H256H265.854L275.708 269.502L273.38 266.19L271.665 268.541Z" fill="#FF7B7B"/>
<path d="M265.854 283L274.077 342.283L256 398.333L237.923 342.283L246.146 283H265.854Z" fill="#FFB0AA"/>
<path d="M263.059 291.974H261.059C261.059 284.57 259.047 282.707 258.272 282.614L256.328 282.616C255.609 282.707 253.598 284.57 253.598 291.974H251.598C251.598 280.954 255.841 280.618 256.324 280.616H258.328C258.816 280.618 263.059 280.954 263.059 291.974V291.974Z" fill="#FF7B7B"/>
<path d="M256 102H231V127H247L256 121L265 127H281V102H256Z" fill="#466089"/>
<path d="M292 157C308.569 157 322 143.569 322 127C322 110.431 308.569 97 292 97C275.431 97 262 110.431 262 127C262 143.569 275.431 157 292 157Z" fill="#6E83B7"/>
<path d="M292 149C304.15 149 314 139.15 314 127C314 114.85 304.15 105 292 105C279.85 105 270 114.85 270 127C270 139.15 279.85 149 292 149Z" fill="#80D6FB"/>
<path d="M256 114C259.866 114 263 110.866 263 107C263 103.134 259.866 100 256 100C252.134 100 249 103.134 249 107C249 110.866 252.134 114 256 114Z" fill="#6E83B7"/>
<path d="M220 157C236.569 157 250 143.569 250 127C250 110.431 236.569 97 220 97C203.431 97 190 110.431 190 127C190 143.569 203.431 157 220 157Z" fill="#6E83B7"/>
<path d="M220 149C232.15 149 242 139.15 242 127C242 114.85 232.15 105 220 105C207.85 105 198 114.85 198 127C198 139.15 207.85 149 220 149Z" fill="#80D6FB"/>
</svg>
