<svg width="190" height="59" viewBox="0 0 190 59" fill="none" xmlns="http://www.w3.org/2000/svg">
<path d="M119.27 21.1191C119.959 17.5421 117.062 14.2656 113.272 14.2656C111.083 14.2656 109.123 15.3708 108.043 17.0815C106.57 16.6287 105.056 16.8217 103.808 17.6389C102.561 18.4556 101.816 19.7487 101.756 21.163C100.089 21.9099 99 23.4884 99 25.2227C99 25.5197 99.0306 25.8168 99.091 26.1059C99.5299 28.2083 101.486 29.7344 103.742 29.7344H117.337C119.977 29.7344 122.125 27.7104 122.125 25.2227C122.125 23.4474 120.993 21.845 119.27 21.1191ZM117.337 28.4453H103.742C101.891 28.4453 100.355 27.0172 100.355 25.2227C100.355 23.8799 101.283 22.6652 102.663 22.2L103.144 22.0379L103.113 21.5533C103.04 20.4147 103.587 19.3482 104.576 18.7006C105.622 18.0158 106.905 17.9685 108.079 18.475L108.689 18.7383L108.972 18.1606C109.749 16.5776 111.437 15.5547 113.272 15.5547C115.887 15.5547 118.015 17.5786 118.015 20.0664C118.015 20.8023 117.852 21.2478 117.671 21.8377C118.176 22.0872 118.258 22.1335 118.428 22.1889C119.829 22.6453 120.77 23.8645 120.77 25.2227C120.77 26.9996 119.23 28.4453 117.337 28.4453Z" fill="#26ad50"/>
<path d="M69.6399 29.0002C69.4799 29.0002 69.3439 28.9522 69.2319 28.8562C69.1359 28.7442 69.0879 28.6082 69.0879 28.4482V12.7762C69.0879 12.6002 69.1359 12.4642 69.2319 12.3682C69.3439 12.2562 69.4799 12.2002 69.6399 12.2002H81.4719C81.6479 12.2002 81.7839 12.2562 81.8799 12.3682C81.9919 12.4642 82.0479 12.6002 82.0479 12.7762V28.4482C82.0479 28.6082 81.9919 28.7442 81.8799 28.8562C81.7679 28.9522 81.6319 29.0002 81.4719 29.0002H80.2479C80.0879 29.0002 79.9519 28.9522 79.8399 28.8562C79.7439 28.7442 79.6959 28.6082 79.6959 28.4482V14.3602H71.4399V28.4482C71.4399 28.6082 71.3839 28.7442 71.2719 28.8562C71.1599 28.9522 71.0239 29.0002 70.8639 29.0002H69.6399ZM86.4847 33.5602C86.3247 33.5602 86.1887 33.5042 86.0767 33.3922C85.9807 33.2962 85.9327 33.1682 85.9327 33.0082V17.0722C85.9327 16.9122 85.9807 16.7842 86.0767 16.6882C86.1887 16.5762 86.3247 16.5202 86.4847 16.5202H87.5887C87.7487 16.5202 87.8767 16.5762 87.9727 16.6882C88.0847 16.7842 88.1407 16.9122 88.1407 17.0722V18.1282C89.0367 16.8962 90.3487 16.2802 92.0767 16.2802C93.7567 16.2802 95.0127 16.8082 95.8447 17.8642C96.6927 18.9202 97.1487 20.2802 97.2127 21.9442C97.2287 22.1202 97.2367 22.3922 97.2367 22.7602C97.2367 23.1282 97.2287 23.4002 97.2127 23.5762C97.1487 25.2242 96.6927 26.5842 95.8447 27.6562C94.9967 28.7122 93.7407 29.2402 92.0767 29.2402C90.4127 29.2402 89.1167 28.6402 88.1887 27.4402V33.0082C88.1887 33.1682 88.1407 33.2962 88.0447 33.3922C87.9487 33.5042 87.8207 33.5602 87.6607 33.5602H86.4847ZM91.5727 27.2962C92.7087 27.2962 93.5327 26.9442 94.0447 26.2402C94.5727 25.5362 94.8607 24.6082 94.9087 23.4562C94.9247 23.2962 94.9327 23.0642 94.9327 22.7602C94.9327 19.7362 93.8127 18.2242 91.5727 18.2242C90.4687 18.2242 89.6367 18.5922 89.0767 19.3282C88.5327 20.0482 88.2367 20.9122 88.1887 21.9202L88.1647 22.8322L88.1887 23.7682C88.2207 24.7122 88.5247 25.5362 89.1007 26.2402C89.6767 26.9442 90.5007 27.2962 91.5727 27.2962ZM124.289 29.0002C124.129 29.0002 123.993 28.9522 123.881 28.8562C123.785 28.7442 123.737 28.6082 123.737 28.4482V17.0722C123.737 16.9122 123.785 16.7842 123.881 16.6882C123.993 16.5762 124.129 16.5202 124.289 16.5202H129.281C130.753 16.5202 131.873 16.8242 132.641 17.4322C133.425 18.0242 133.817 18.8402 133.817 19.8802C133.817 20.5682 133.689 21.1042 133.433 21.4882C133.177 21.8562 132.785 22.1762 132.257 22.4482C132.833 22.6882 133.281 23.0882 133.601 23.6482C133.937 24.2082 134.105 24.8082 134.105 25.4482C134.105 26.6002 133.697 27.4802 132.881 28.0882C132.081 28.6962 130.945 29.0002 129.473 29.0002H124.289ZM129.137 21.8242C129.921 21.8242 130.537 21.6562 130.985 21.3202C131.433 20.9842 131.657 20.5122 131.657 19.9042C131.657 19.3122 131.441 18.8962 131.009 18.6562C130.577 18.4002 129.953 18.2722 129.137 18.2722H125.945V21.8242H129.137ZM129.281 27.2482C130.081 27.2482 130.705 27.0962 131.153 26.7922C131.617 26.4882 131.849 26.0402 131.849 25.4482C131.849 24.8082 131.641 24.3442 131.225 24.0562C130.809 23.7522 130.161 23.6002 129.281 23.6002H125.945V27.2482H129.281ZM142.182 29.2402C140.534 29.2402 139.214 28.7362 138.222 27.7282C137.246 26.7042 136.71 25.3122 136.614 23.5522L136.59 22.7362L136.614 21.9442C136.726 20.2162 137.27 18.8402 138.246 17.8162C139.238 16.7922 140.542 16.2802 142.158 16.2802C143.934 16.2802 145.31 16.8482 146.286 17.9842C147.262 19.1042 147.75 20.6242 147.75 22.5442V22.9522C147.75 23.1122 147.694 23.2482 147.582 23.3602C147.486 23.4562 147.358 23.5042 147.198 23.5042H138.894V23.7202C138.942 24.7602 139.254 25.6482 139.83 26.3842C140.422 27.1042 141.198 27.4642 142.158 27.4642C142.894 27.4642 143.494 27.3202 143.958 27.0322C144.438 26.7282 144.79 26.4162 145.014 26.0962C145.158 25.9042 145.262 25.7922 145.326 25.7602C145.406 25.7122 145.542 25.6882 145.734 25.6882H146.91C147.054 25.6882 147.174 25.7282 147.27 25.8082C147.366 25.8882 147.414 26.0002 147.414 26.1442C147.414 26.4962 147.19 26.9202 146.742 27.4162C146.31 27.9122 145.694 28.3442 144.894 28.7122C144.11 29.0642 143.206 29.2402 142.182 29.2402ZM145.47 21.8482V21.7762C145.47 20.6722 145.166 19.7762 144.558 19.0882C143.966 18.3842 143.166 18.0322 142.158 18.0322C141.15 18.0322 140.35 18.3842 139.758 19.0882C139.182 19.7762 138.894 20.6722 138.894 21.7762V21.8482H145.47ZM151.196 33.5602C151.036 33.5602 150.9 33.5042 150.788 33.3922C150.692 33.2962 150.644 33.1682 150.644 33.0082V17.0722C150.644 16.9122 150.692 16.7842 150.788 16.6882C150.9 16.5762 151.036 16.5202 151.196 16.5202H152.3C152.46 16.5202 152.588 16.5762 152.684 16.6882C152.796 16.7842 152.852 16.9122 152.852 17.0722V18.1282C153.748 16.8962 155.06 16.2802 156.788 16.2802C158.468 16.2802 159.724 16.8082 160.556 17.8642C161.404 18.9202 161.86 20.2802 161.924 21.9442C161.94 22.1202 161.948 22.3922 161.948 22.7602C161.948 23.1282 161.94 23.4002 161.924 23.5762C161.86 25.2242 161.404 26.5842 160.556 27.6562C159.708 28.7122 158.452 29.2402 156.788 29.2402C155.124 29.2402 153.828 28.6402 152.9 27.4402V33.0082C152.9 33.1682 152.852 33.2962 152.756 33.3922C152.66 33.5042 152.532 33.5602 152.372 33.5602H151.196ZM156.284 27.2962C157.42 27.2962 158.244 26.9442 158.756 26.2402C159.284 25.5362 159.572 24.6082 159.62 23.4562C159.636 23.2962 159.644 23.0642 159.644 22.7602C159.644 19.7362 158.524 18.2242 156.284 18.2242C155.18 18.2242 154.348 18.5922 153.788 19.3282C153.244 20.0482 152.948 20.9122 152.9 21.9202L152.876 22.8322L152.9 23.7682C152.932 24.7122 153.236 25.5362 153.812 26.2402C154.388 26.9442 155.212 27.2962 156.284 27.2962ZM175.333 28.3042C175.413 28.4002 175.453 28.5042 175.453 28.6162C175.453 28.7282 175.405 28.8242 175.309 28.9042C175.229 28.9682 175.117 29.0002 174.973 29.0002H173.509C173.253 29.0002 173.045 28.8802 172.885 28.6402L169.405 23.6242H167.149V28.4482C167.149 28.6082 167.093 28.7442 166.981 28.8562C166.885 28.9522 166.757 29.0002 166.597 29.0002H165.469C165.309 29.0002 165.173 28.9522 165.061 28.8562C164.965 28.7442 164.917 28.6082 164.917 28.4482V17.0722C164.917 16.9122 164.965 16.7842 165.061 16.6882C165.173 16.5762 165.309 16.5202 165.469 16.5202H166.597C166.757 16.5202 166.885 16.5762 166.981 16.6882C167.093 16.7842 167.149 16.9122 167.149 17.0722V21.6802H169.357L172.573 16.8802C172.765 16.6402 172.981 16.5202 173.221 16.5202H174.469C174.613 16.5202 174.733 16.5602 174.829 16.6402C174.925 16.7042 174.973 16.7922 174.973 16.9042C174.973 16.9842 174.933 17.0802 174.853 17.1922L171.277 22.4962L175.333 28.3042ZM181.264 29.2402C180.48 29.2402 179.752 29.0802 179.08 28.7602C178.408 28.4402 177.872 28.0082 177.472 27.4642C177.088 26.9042 176.896 26.2882 176.896 25.6162C176.896 24.5602 177.328 23.6962 178.192 23.0242C179.072 22.3362 180.256 21.8882 181.744 21.6802L185.32 21.1762V20.4802C185.32 18.8482 184.384 18.0322 182.512 18.0322C181.808 18.0322 181.232 18.1842 180.784 18.4882C180.336 18.7762 180 19.1202 179.776 19.5202C179.728 19.6642 179.664 19.7682 179.584 19.8322C179.52 19.8962 179.424 19.9282 179.296 19.9282H178.264C178.12 19.9282 177.992 19.8802 177.88 19.7842C177.784 19.6722 177.736 19.5442 177.736 19.4002C177.752 19.0162 177.928 18.5842 178.264 18.1042C178.616 17.6082 179.152 17.1842 179.872 16.8322C180.592 16.4642 181.48 16.2802 182.536 16.2802C184.328 16.2802 185.616 16.7042 186.4 17.5522C187.184 18.3842 187.576 19.4242 187.576 20.6722V28.4482C187.576 28.6082 187.52 28.7442 187.408 28.8562C187.312 28.9522 187.184 29.0002 187.024 29.0002H185.92C185.76 29.0002 185.624 28.9522 185.512 28.8562C185.416 28.7442 185.368 28.6082 185.368 28.4482V27.4162C185.016 27.9282 184.504 28.3602 183.832 28.7122C183.16 29.0642 182.304 29.2402 181.264 29.2402ZM181.768 27.4402C182.808 27.4402 183.656 27.1042 184.312 26.4322C184.984 25.7442 185.32 24.7602 185.32 23.4802V22.8082L182.536 23.2162C181.4 23.3762 180.544 23.6482 179.968 24.0322C179.392 24.4002 179.104 24.8722 179.104 25.4482C179.104 26.0882 179.368 26.5842 179.896 26.9362C180.424 27.2722 181.048 27.4402 181.768 27.4402Z" fill="#363636"/>
<path d="M76.3981 45.4633C76.4598 45.5373 76.4906 45.6175 76.4906 45.7038C76.4906 45.7901 76.4536 45.8641 76.3796 45.9258C76.3179 45.9751 76.2316 45.9998 76.1206 45.9998H74.9921C74.7948 45.9998 74.6344 45.9073 74.5111 45.7223L71.8286 41.8558H70.0896V45.5743C70.0896 45.6976 70.0464 45.8025 69.9601 45.8888C69.8861 45.9628 69.7874 45.9998 69.6641 45.9998H68.7946C68.6713 45.9998 68.5664 45.9628 68.4801 45.8888C68.4061 45.8025 68.3691 45.6976 68.3691 45.5743V36.8053C68.3691 36.682 68.4061 36.5833 68.4801 36.5093C68.5664 36.423 68.6713 36.3798 68.7946 36.3798H69.6641C69.7874 36.3798 69.8861 36.423 69.9601 36.5093C70.0464 36.5833 70.0896 36.682 70.0896 36.8053V40.3573H71.7916L74.2706 36.6573C74.4186 36.4723 74.5851 36.3798 74.7701 36.3798H75.7321C75.8431 36.3798 75.9356 36.4106 76.0096 36.4723C76.0836 36.5216 76.1206 36.5895 76.1206 36.6758C76.1206 36.7375 76.0898 36.8115 76.0281 36.8978L73.2716 40.9863L76.3981 45.4633ZM81.7764 46.1848C80.4197 46.1848 79.3652 45.8025 78.6129 45.0378C77.8729 44.2731 77.4782 43.2556 77.4289 41.9853L77.4104 41.1898L77.4289 40.3943C77.4782 39.1363 77.8791 38.125 78.6314 37.3603C79.3837 36.5833 80.4321 36.1948 81.7764 36.1948C83.1207 36.1948 84.1691 36.5833 84.9214 37.3603C85.6737 38.125 86.0746 39.1363 86.1239 40.3943C86.1362 40.53 86.1424 40.7951 86.1424 41.1898C86.1424 41.5845 86.1362 41.8496 86.1239 41.9853C86.0746 43.2556 85.6737 44.2731 84.9214 45.0378C84.1814 45.8025 83.1331 46.1848 81.7764 46.1848ZM81.7764 44.7603C82.5534 44.7603 83.1639 44.5136 83.6079 44.0203C84.0642 43.527 84.3109 42.8178 84.3479 41.8928C84.3602 41.7695 84.3664 41.5351 84.3664 41.1898C84.3664 40.8445 84.3602 40.6101 84.3479 40.4868C84.3109 39.5618 84.0642 38.8526 83.6079 38.3593C83.1639 37.866 82.5534 37.6193 81.7764 37.6193C80.9994 37.6193 80.3827 37.866 79.9264 38.3593C79.4701 38.8526 79.2296 39.5618 79.2049 40.4868L79.1864 41.1898L79.2049 41.8928C79.2296 42.8178 79.4701 43.527 79.9264 44.0203C80.3827 44.5136 80.9994 44.7603 81.7764 44.7603ZM88.8844 45.9998C88.7611 45.9998 88.6563 45.9628 88.5699 45.8888C88.4959 45.8025 88.4589 45.6976 88.4589 45.5743V36.8053C88.4589 36.682 88.4959 36.5833 88.5699 36.5093C88.6563 36.423 88.7611 36.3798 88.8844 36.3798H89.7724C89.8958 36.3798 89.9944 36.423 90.0684 36.5093C90.1548 36.5833 90.1979 36.682 90.1979 36.8053V40.3573H95.2299V36.8053C95.2299 36.682 95.2669 36.5833 95.3409 36.5093C95.4273 36.423 95.5321 36.3798 95.6554 36.3798H96.5249C96.6483 36.3798 96.7469 36.423 96.8209 36.5093C96.9073 36.5833 96.9504 36.682 96.9504 36.8053V45.5743C96.9504 45.6976 96.9073 45.8025 96.8209 45.8888C96.7469 45.9628 96.6483 45.9998 96.5249 45.9998H95.6554C95.5321 45.9998 95.4273 45.9628 95.3409 45.8888C95.2669 45.8025 95.2299 45.6976 95.2299 45.5743V41.8373H90.1979V45.5743C90.1979 45.6976 90.1548 45.8025 90.0684 45.8888C89.9944 45.9628 89.8958 45.9998 89.7724 45.9998H88.8844ZM102.674 45.9998C102.55 45.9998 102.446 45.9628 102.359 45.8888C102.285 45.8025 102.248 45.6976 102.248 45.5743V37.8598H99.0294C98.906 37.8598 98.8012 37.8228 98.7149 37.7488C98.6409 37.6625 98.6039 37.5576 98.6039 37.4343V36.8053C98.6039 36.682 98.6409 36.5833 98.7149 36.5093C98.8012 36.423 98.906 36.3798 99.0294 36.3798H107.169C107.293 36.3798 107.391 36.423 107.465 36.5093C107.552 36.5833 107.595 36.682 107.595 36.8053V37.4343C107.595 37.5576 107.552 37.6625 107.465 37.7488C107.391 37.8228 107.293 37.8598 107.169 37.8598H103.95V45.5743C103.95 45.6976 103.913 45.8025 103.839 45.8888C103.765 45.9628 103.667 45.9998 103.543 45.9998H102.674ZM109.643 49.5148C109.52 49.5148 109.415 49.4716 109.329 49.3853C109.255 49.3113 109.218 49.2126 109.218 49.0893V36.8053C109.218 36.682 109.255 36.5833 109.329 36.5093C109.415 36.423 109.52 36.3798 109.643 36.3798H110.494C110.617 36.3798 110.716 36.423 110.79 36.5093C110.876 36.5833 110.92 36.682 110.92 36.8053V37.6193C111.61 36.6696 112.622 36.1948 113.954 36.1948C115.249 36.1948 116.217 36.6018 116.858 37.4158C117.512 38.2298 117.863 39.2781 117.913 40.5608C117.925 40.6965 117.931 40.9061 117.931 41.1898C117.931 41.4735 117.925 41.6831 117.913 41.8188C117.863 43.0891 117.512 44.1375 116.858 44.9638C116.204 45.7778 115.236 46.1848 113.954 46.1848C112.671 46.1848 111.672 45.7223 110.957 44.7973V49.0893C110.957 49.2126 110.92 49.3113 110.846 49.3853C110.772 49.4716 110.673 49.5148 110.55 49.5148H109.643ZM113.565 44.6863C114.441 44.6863 115.076 44.415 115.471 43.8723C115.878 43.3296 116.1 42.6143 116.137 41.7263C116.149 41.603 116.155 41.4241 116.155 41.1898C116.155 38.8588 115.292 37.6933 113.565 37.6933C112.714 37.6933 112.073 37.977 111.641 38.5443C111.222 39.0993 110.994 39.7653 110.957 40.5423L110.938 41.2453L110.957 41.9668C110.981 42.6945 111.216 43.3296 111.66 43.8723C112.104 44.415 112.739 44.6863 113.565 44.6863ZM122.902 46.1848C122.298 46.1848 121.737 46.0615 121.219 45.8148C120.701 45.5681 120.287 45.2351 119.979 44.8158C119.683 44.3841 119.535 43.9093 119.535 43.3913C119.535 42.5773 119.868 41.9113 120.534 41.3933C121.212 40.863 122.125 40.5176 123.272 40.3573L126.029 39.9688V39.4323C126.029 38.1743 125.307 37.5453 123.864 37.5453C123.321 37.5453 122.877 37.6625 122.532 37.8968C122.187 38.1188 121.928 38.384 121.755 38.6923C121.718 38.8033 121.669 38.8835 121.607 38.9328C121.558 38.9821 121.484 39.0068 121.385 39.0068H120.59C120.479 39.0068 120.38 38.9698 120.294 38.8958C120.22 38.8095 120.183 38.7108 120.183 38.5998C120.195 38.3038 120.331 37.9708 120.59 37.6008C120.861 37.2185 121.274 36.8916 121.829 36.6203C122.384 36.3366 123.069 36.1948 123.883 36.1948C125.264 36.1948 126.257 36.5216 126.861 37.1753C127.465 37.8166 127.768 38.6183 127.768 39.5803V45.5743C127.768 45.6976 127.724 45.8025 127.638 45.8888C127.564 45.9628 127.465 45.9998 127.342 45.9998H126.491C126.368 45.9998 126.263 45.9628 126.177 45.8888C126.103 45.8025 126.066 45.6976 126.066 45.5743V44.7788C125.794 45.1735 125.4 45.5065 124.882 45.7778C124.364 46.0491 123.704 46.1848 122.902 46.1848ZM123.291 44.7973C124.092 44.7973 124.746 44.5383 125.252 44.0203C125.77 43.49 126.029 42.7315 126.029 41.7448V41.2268L123.883 41.5413C123.007 41.6646 122.347 41.8743 121.903 42.1703C121.459 42.454 121.237 42.8178 121.237 43.2618C121.237 43.7551 121.441 44.1375 121.848 44.4088C122.255 44.6678 122.736 44.7973 123.291 44.7973ZM130.853 45.9998C130.729 45.9998 130.624 45.9628 130.538 45.8888C130.464 45.8025 130.427 45.6976 130.427 45.5743V36.8053C130.427 36.682 130.464 36.5833 130.538 36.5093C130.624 36.423 130.729 36.3798 130.853 36.3798H136.384C136.507 36.3798 136.606 36.423 136.68 36.5093C136.766 36.5833 136.81 36.682 136.81 36.8053V37.4343C136.81 37.5576 136.766 37.6625 136.68 37.7488C136.606 37.8228 136.507 37.8598 136.384 37.8598H132.166V45.5743C132.166 45.6976 132.123 45.8025 132.037 45.8888C131.963 45.9628 131.864 45.9998 131.741 45.9998H130.853ZM142.026 46.1848C140.755 46.1848 139.738 45.7963 138.973 45.0193C138.221 44.23 137.808 43.157 137.734 41.8003L137.715 41.1713L137.734 40.5608C137.82 39.2288 138.239 38.1681 138.992 37.3788C139.756 36.5895 140.761 36.1948 142.007 36.1948C143.376 36.1948 144.437 36.6326 145.189 37.5083C145.941 38.3716 146.318 39.5433 146.318 41.0233V41.3378C146.318 41.4611 146.274 41.566 146.188 41.6523C146.114 41.7263 146.015 41.7633 145.892 41.7633H139.491V41.9298C139.528 42.7315 139.769 43.416 140.213 43.9833C140.669 44.5383 141.267 44.8158 142.007 44.8158C142.574 44.8158 143.037 44.7048 143.395 44.4828C143.765 44.2485 144.036 44.008 144.209 43.7613C144.32 43.6133 144.4 43.527 144.449 43.5023C144.511 43.4653 144.616 43.4468 144.764 43.4468H145.67C145.781 43.4468 145.874 43.4776 145.948 43.5393C146.022 43.601 146.059 43.6873 146.059 43.7983C146.059 44.0696 145.886 44.3965 145.541 44.7788C145.208 45.1611 144.733 45.4941 144.116 45.7778C143.512 46.0491 142.815 46.1848 142.026 46.1848ZM144.56 40.4868V40.4313C144.56 39.5803 144.326 38.8896 143.857 38.3593C143.401 37.8166 142.784 37.5453 142.007 37.5453C141.23 37.5453 140.613 37.8166 140.157 38.3593C139.713 38.8896 139.491 39.5803 139.491 40.4313V40.4868H144.56ZM148.955 45.9998C148.832 45.9998 148.727 45.9628 148.641 45.8888C148.567 45.8025 148.53 45.6976 148.53 45.5743V36.8053C148.53 36.682 148.567 36.5833 148.641 36.5093C148.727 36.423 148.832 36.3798 148.955 36.3798H149.843C149.966 36.3798 150.065 36.423 150.139 36.5093C150.225 36.5833 150.269 36.682 150.269 36.8053V40.3573H155.301V36.8053C155.301 36.682 155.338 36.5833 155.412 36.5093C155.498 36.423 155.603 36.3798 155.726 36.3798H156.596C156.719 36.3798 156.818 36.423 156.892 36.5093C156.978 36.5833 157.021 36.682 157.021 36.8053V45.5743C157.021 45.6976 156.978 45.8025 156.892 45.8888C156.818 45.9628 156.719 45.9998 156.596 45.9998H155.726C155.603 45.9998 155.498 45.9628 155.412 45.8888C155.338 45.8025 155.301 45.6976 155.301 45.5743V41.8373H150.269V45.5743C150.269 45.6976 150.225 45.8025 150.139 45.8888C150.065 45.9628 149.966 45.9998 149.843 45.9998H148.955ZM162.745 45.9998C162.621 45.9998 162.516 45.9628 162.43 45.8888C162.356 45.8025 162.319 45.6976 162.319 45.5743V37.8598H159.1C158.977 37.8598 158.872 37.8228 158.786 37.7488C158.712 37.6625 158.675 37.5576 158.675 37.4343V36.8053C158.675 36.682 158.712 36.5833 158.786 36.5093C158.872 36.423 158.977 36.3798 159.1 36.3798H167.24C167.363 36.3798 167.462 36.423 167.536 36.5093C167.622 36.5833 167.666 36.682 167.666 36.8053V37.4343C167.666 37.5576 167.622 37.6625 167.536 37.7488C167.462 37.8228 167.363 37.8598 167.24 37.8598H164.021V45.5743C164.021 45.6976 163.984 45.8025 163.91 45.8888C163.836 45.9628 163.737 45.9998 163.614 45.9998H162.745ZM173.21 46.1848C171.854 46.1848 170.799 45.8025 170.047 45.0378C169.307 44.2731 168.912 43.2556 168.863 41.9853L168.844 41.1898L168.863 40.3943C168.912 39.1363 169.313 38.125 170.065 37.3603C170.818 36.5833 171.866 36.1948 173.21 36.1948C174.555 36.1948 175.603 36.5833 176.355 37.3603C177.108 38.125 177.509 39.1363 177.558 40.3943C177.57 40.53 177.576 40.7951 177.576 41.1898C177.576 41.5845 177.57 41.8496 177.558 41.9853C177.509 43.2556 177.108 44.2731 176.355 45.0378C175.615 45.8025 174.567 46.1848 173.21 46.1848ZM173.21 44.7603C173.987 44.7603 174.598 44.5136 175.042 44.0203C175.498 43.527 175.745 42.8178 175.782 41.8928C175.794 41.7695 175.8 41.5351 175.8 41.1898C175.8 40.8445 175.794 40.6101 175.782 40.4868C175.745 39.5618 175.498 38.8526 175.042 38.3593C174.598 37.866 173.987 37.6193 173.21 37.6193C172.433 37.6193 171.817 37.866 171.36 38.3593C170.904 38.8526 170.664 39.5618 170.639 40.4868L170.62 41.1898L170.639 41.8928C170.664 42.8178 170.904 43.527 171.36 44.0203C171.817 44.5136 172.433 44.7603 173.21 44.7603ZM180.318 45.9998C180.195 45.9998 180.09 45.9628 180.004 45.8888C179.93 45.8025 179.893 45.6976 179.893 45.5743V36.8053C179.893 36.682 179.93 36.5833 180.004 36.5093C180.09 36.423 180.195 36.3798 180.318 36.3798H184.166C185.301 36.3798 186.164 36.6141 186.756 37.0828C187.361 37.5391 187.663 38.1681 187.663 38.9698C187.663 39.5001 187.564 39.9133 187.367 40.2093C187.17 40.493 186.867 40.7396 186.46 40.9493C186.904 41.1343 187.25 41.4426 187.496 41.8743C187.755 42.306 187.885 42.7685 187.885 43.2618C187.885 44.1498 187.57 44.8281 186.941 45.2968C186.325 45.7655 185.449 45.9998 184.314 45.9998H180.318ZM184.055 40.4683C184.66 40.4683 185.135 40.3388 185.48 40.0798C185.825 39.8208 185.998 39.457 185.998 38.9883C185.998 38.532 185.831 38.2113 185.498 38.0263C185.165 37.829 184.684 37.7303 184.055 37.7303H181.595V40.4683H184.055ZM184.166 44.6493C184.783 44.6493 185.264 44.5321 185.609 44.2978C185.967 44.0635 186.146 43.7181 186.146 43.2618C186.146 42.7685 185.986 42.4108 185.665 42.1888C185.344 41.9545 184.845 41.8373 184.166 41.8373H181.595V44.6493H184.166Z" fill="#363636"/>
<path d="M29 20.3281H25.7188V24.6641L29 27.9453L32.2812 24.6641V20.3281H29Z" fill="#FFD3B3"/>
<path d="M25.7188 21.9688C26.6953 22.4048 27.8628 22.6719 29 22.6719C30.1372 22.6719 31.3046 22.4048 32.2812 21.9688V20.2109H25.7188V21.9688Z" fill="#FCB98B"/>
<path d="M21.9688 9.89844H21.1544C20.4611 9.89844 19.9193 10.497 19.9884 11.1869L20.2227 13.5307C20.2826 14.1297 20.7868 14.5859 21.3887 14.5859H21.9688V9.89844Z" fill="#FFD3B3"/>
<path d="M36.0312 9.89844H36.8457C37.539 9.89844 38.0807 10.497 38.0117 11.1869L37.7774 13.5307C37.7176 14.1297 37.2134 14.5859 36.6114 14.5859H36.0312V9.89844Z" fill="#FFD3B3"/>
<path d="M29 6.85156H21.9688V14.7031C21.9688 18.5864 25.1168 21.7344 29 21.7344C32.8832 21.7344 36.0312 18.5864 36.0312 14.7031V6.85156H29Z" fill="#FFD3B3"/>
<path d="M26.9114 9.21652L26.2865 8.78398C26.0109 8.59309 25.6879 8.49219 25.3525 8.49219H23.0867C22.7009 8.49219 22.3205 8.57188 21.9688 8.72422V14.7031C21.9688 15.9766 22.3091 17.1699 22.9011 18.2001C23.0308 18.1002 23.1532 17.9893 23.266 17.8672H24.4883C25.1668 17.8672 25.7188 17.3152 25.7188 16.6367C25.7188 15.9582 25.1668 15.4062 24.4883 15.4062H22.7858L21.9955 13.8256L22.4816 11.7842L25.1938 10.8801L25.6583 11.1589C25.838 11.2667 26.0436 11.3237 26.2527 11.3237C26.6123 11.3237 26.9452 11.1609 27.1658 10.8772C27.3601 10.6275 27.4439 10.3048 27.396 9.99207C27.3481 9.6793 27.1715 9.39652 26.9114 9.21652Z" fill="#FCB98B"/>
<path d="M31.0887 9.21652L31.7136 8.78398C31.9892 8.59309 32.3121 8.49219 32.6475 8.49219H34.9135C35.2993 8.49219 35.6796 8.57188 36.0314 8.72422V14.7031C36.0314 15.9766 35.6911 17.1699 35.0991 18.2001C34.9694 18.1002 34.847 17.9893 34.7342 17.8672H33.5118C32.8333 17.8672 32.2813 17.3152 32.2813 16.6367C32.2813 15.9582 32.8333 15.4062 33.5118 15.4062H35.2143L36.0046 13.8256L35.5185 11.7842L32.8063 10.8801L32.3418 11.1589C32.162 11.2667 31.9565 11.3237 31.7474 11.3237C31.3878 11.3237 31.0548 11.1609 30.8343 10.8772C30.64 10.6275 30.5561 10.3048 30.604 9.99207C30.6518 9.6793 30.8286 9.39652 31.0887 9.21652Z" fill="#FCB98B"/>
<path d="M29.7604 16.5151H28.127L28.2977 14.4658L28.9984 14.5242L28.891 15.812H29.7604V16.5151Z" fill="#FCB98B"/>
<path d="M24.7812 6.85156C24.7812 6.85156 24.9766 8.70699 23.1406 9.89844L21.9687 12.2422V9.89844H21.1484V5.44531L24.7812 5.46043V6.85156Z" fill="#474747"/>
<path d="M26 0H31C33.0711 0 34.5078 1.26488 34.5078 3.33594C35.8023 3.33594 36.8516 4.38523 36.8516 5.67969V9.89844H36.0312V12.2422L34.8594 9.89844C33.0234 8.70699 33.2188 6.85156 33.2188 6.85156C33.2188 6.85156 31.1875 8.14062 27.3594 8.14062C22.9844 8.14062 18.5703 6.46098 18.5703 3.92188V2.39844C18.5703 0.845117 19.4467 0 21 0H26Z" fill="#242424"/>
<path d="M28.2692 19.0817C28.1632 19.0817 28.0962 19.0783 28.0815 19.0774L28.1209 18.3754C28.1392 18.3764 29.9793 18.4649 30.6048 17.5171L31.1917 17.9044C30.478 18.9859 28.8298 19.0817 28.2692 19.0817Z" fill="#FCB98B"/>
<path d="M21.9688 12.2422L23.1406 9.89844C23.7921 9.47574 24.1869 8.96961 24.4263 8.49219H23.0867C22.5771 8.49219 22.0767 8.63082 21.6397 8.89297L21.1484 9.1877V9.89844H21.9688V12.2422Z" fill="#474747"/>
<path d="M36.0313 12.2422L34.8594 9.89844C34.208 9.47574 33.8131 8.96961 33.5737 8.49219H34.9134C35.4231 8.49219 35.9235 8.63082 36.3605 8.89297L36.8516 9.1877V9.89844H36.0313V12.2422Z" fill="#474747"/>
<path d="M31.3554 9.60184L31.9803 9.1693C32.1762 9.03359 32.4089 8.96094 32.6473 8.96094H34.9133C35.3382 8.96094 35.7549 9.07637 36.1192 9.29492L37.5374 10.1459C37.7813 10.2923 37.9964 10.4818 38.1724 10.7052L40.9531 14.2344L38.3749 18.1016L37.3503 18.2968C36.4647 18.4654 35.5576 18.1377 34.9846 17.4418L34.6249 16.9297H33.0741C32.8975 16.9297 32.7446 16.788 32.7503 16.6115C32.7637 16.2025 33.0994 15.875 33.5115 15.875H35.5037L36.4998 13.8828L36.1246 12.3069C35.9936 11.7566 35.5874 11.313 35.0508 11.1342L33.4369 10.5962C33.0008 10.4509 32.523 10.5032 32.1289 10.7397C31.8317 10.918 31.4374 10.8726 31.2168 10.6053C30.9593 10.2935 31.0252 9.83047 31.3554 9.60184Z" fill="#FFD3B3"/>
<path d="M56.1182 23.8455L43.2509 14.4951L39.2343 20.123L48.3359 26.422H30.5234L29 27.9454L27.4766 26.422H9.66406L18.7657 20.1232L14.7491 14.4952L1.88176 23.8456C0.439414 24.8936 0 26.717 0 28.5C0 31.5764 2.0798 33.922 5.15621 33.922H14.3516C15.646 33.922 16.6953 34.9713 16.6953 36.2657V59H41.3047V36.2657C41.3047 34.9713 42.354 33.922 43.6484 33.922H52.8438C55.9202 33.922 58 31.5764 58 28.5C58 26.717 57.5606 24.8936 56.1182 23.8455Z" fill="#26ad50"/>
<path d="M48.3359 26.4219L49.7422 27.7109L47.5156 26.4219H48.3359Z" fill="#466089"/>
<path d="M37.833 18.658L39.5081 19.7398L43.0099 14.8332L41.263 13.6509L37.833 18.658Z" fill="#EDEFF1"/>
<path d="M41.8906 20.6958C42.4084 20.6958 42.8281 20.2761 42.8281 19.7583C42.8281 19.2405 42.4084 18.8208 41.8906 18.8208C41.3729 18.8208 40.9531 19.2405 40.9531 19.7583C40.9531 20.2761 41.3729 20.6958 41.8906 20.6958Z" fill="#FFE352"/>
<path d="M35.2109 26.4219H38.0177L35.7969 31.7901L36.8859 34.1407L29 45.6796L35.2109 26.4219Z" fill="#1C3827"/>
<path d="M31.793 52.7109H38.8242V53.6484H31.793V52.7109Z" fill="#1C3827"/>
<path d="M26.6445 9.60184L26.0197 9.1693C25.8237 9.03359 25.591 8.96094 25.3527 8.96094H23.0866C22.6618 8.96094 22.2451 9.07637 21.8807 9.29492L20.4625 10.1459C20.2187 10.2923 20.0035 10.4818 19.8275 10.7052L17.0469 14.2344L19.625 18.1016L20.6497 18.2968C21.5353 18.4654 22.4423 18.1377 23.0153 17.4418L23.375 16.9297H24.9259C25.1025 16.9297 25.2554 16.788 25.2496 16.6115C25.2363 16.2025 24.9005 15.875 24.4883 15.875H22.4961L21.5 13.8828L21.8752 12.3069C22.0062 11.7566 22.4124 11.313 22.949 11.1342L24.5629 10.5962C24.999 10.4509 25.4769 10.5032 25.871 10.7397C26.1682 10.918 26.5624 10.8726 26.783 10.6053C27.0406 10.2935 26.9748 9.83047 26.6445 9.60184Z" fill="#FFD3B3"/>
<path d="M9.66406 26.4219L8.25781 27.7109L10.4844 26.4219H9.66406Z" fill="#466089"/>
<path d="M20.1671 18.658L18.492 19.7398L14.9902 14.8332L16.7371 13.6509L20.1671 18.658Z" fill="#EDEFF1"/>
<path d="M16.1094 20.6958C16.6271 20.6958 17.0469 20.2761 17.0469 19.7583C17.0469 19.2405 16.6271 18.8208 16.1094 18.8208C15.5916 18.8208 15.1719 19.2405 15.1719 19.7583C15.1719 20.2761 15.5916 20.6958 16.1094 20.6958Z" fill="#FFE352"/>
<path d="M22.7892 26.4219H19.9824L22.2032 31.7901L21.1142 34.1407L29.0001 45.6796L22.7892 26.4219Z" fill="#1C3827"/>
<path d="M19.1758 52.7109H26.207V53.6484H19.1758V52.7109Z" fill="#1C3827"/>
<path d="M22.7891 26.4219L29 45.6796L35.2109 26.4219H30.5234L29 27.9453L27.4766 26.4219H22.7891Z" fill="#EDEFF1"/>
<path d="M32.2812 24.6641L29 27.9453L25.7188 24.6641L23.375 26.4219H22.7891L26.4143 31.7901L28.6123 28.6632L29 28.4694L29.3877 28.6632L31.5857 31.7901L35.2109 26.4219H34.625L32.2812 24.6641Z" fill="#D3D3D3"/>
<path d="M25.7188 24.6641L23.375 26.4219L26.4232 30.9624L28.2969 28.2969L29 27.9453L25.7188 24.6641Z" fill="#EDEFF1"/>
<path d="M32.2812 24.6641L34.625 26.4219L31.5768 30.9624L29.7031 28.2969L29 27.9453L32.2812 24.6641Z" fill="#EDEFF1"/>
<path d="M29.7032 28.2969L29.0001 27.9453L28.297 28.2969L26.6904 30.5823L27.8453 32.1641H29.0001H30.1548L31.3097 30.5823L29.7032 28.2969Z" fill="#FFB0AA"/>
<path d="M30.8358 30.4698C30.408 31.056 29.7258 31.4025 29.0001 31.4025C28.2743 31.4025 27.5923 31.056 27.1643 30.4698L26.9632 30.1943L26.6904 30.5825L27.8453 32.1643H29.0001H30.1549L31.3096 30.5825L31.0368 30.1943L30.8358 30.4698Z" fill="#FF7B7B"/>
<path d="M30.155 32.1641L31.1186 39.1113L29.0002 45.6796L26.8818 39.1113L27.8455 32.1641H30.155Z" fill="#FFB0AA"/>
<path d="M29.8274 33.2158H29.5931C29.5931 32.3481 29.3573 32.1298 29.2665 32.1189L29.0387 32.1191C28.9544 32.1298 28.7187 32.3481 28.7187 33.2158H28.4844C28.4844 31.9244 28.9816 31.885 29.0382 31.8848H29.273C29.3302 31.885 29.8274 31.9244 29.8274 33.2158Z" fill="#FF7B7B"/>
<path d="M29 10.9531H26.0703V13.8828H27.9453L29 13.1797L30.0547 13.8828H31.9297V10.9531H29Z" fill="#466089"/>
<path d="M33.2188 17.3984C35.1604 17.3984 36.7344 15.8244 36.7344 13.8828C36.7344 11.9412 35.1604 10.3672 33.2188 10.3672C31.2771 10.3672 29.7031 11.9412 29.7031 13.8828C29.7031 15.8244 31.2771 17.3984 33.2188 17.3984Z" fill="#6E83B7"/>
<path d="M33.2188 16.4609C34.6426 16.4609 35.7969 15.3067 35.7969 13.8828C35.7969 12.459 34.6426 11.3047 33.2188 11.3047C31.7949 11.3047 30.6406 12.459 30.6406 13.8828C30.6406 15.3067 31.7949 16.4609 33.2188 16.4609Z" fill="#80D6FB"/>
<path d="M29 12.3594C29.453 12.3594 29.8203 11.9921 29.8203 11.5391C29.8203 11.086 29.453 10.7188 29 10.7188C28.547 10.7188 28.1797 11.086 28.1797 11.5391C28.1797 11.9921 28.547 12.3594 29 12.3594Z" fill="#6E83B7"/>
<path d="M24.7812 17.3984C26.7229 17.3984 28.2969 15.8244 28.2969 13.8828C28.2969 11.9412 26.7229 10.3672 24.7812 10.3672C22.8396 10.3672 21.2656 11.9412 21.2656 13.8828C21.2656 15.8244 22.8396 17.3984 24.7812 17.3984Z" fill="#6E83B7"/>
<path d="M24.7812 16.4609C26.2051 16.4609 27.3594 15.3067 27.3594 13.8828C27.3594 12.459 26.2051 11.3047 24.7812 11.3047C23.3574 11.3047 22.2031 12.459 22.2031 13.8828C22.2031 15.3067 23.3574 16.4609 24.7812 16.4609Z" fill="#80D6FB"/>
</svg>
