<?xml version="1.0"?>
<svg xmlns="http://www.w3.org/2000/svg" xmlns:xlink="http://www.w3.org/1999/xlink" xmlns:svgjs="http://svgjs.com/svgjs" version="1.1" width="512" height="512" x="0" y="0" viewBox="0 0 512 512" style="enable-background:new 0 0 512 512" xml:space="preserve" class=""><g><g xmlns="http://www.w3.org/2000/svg"><g><path d="m157.1 138.66c14.279-5.473 21.417-21.485 15.944-35.764l-32.624-85.11c-5.473-14.279-21.485-21.417-35.764-15.944l-59.558 22.829c-19.121 7.329-33.171 23.921-37.25 43.989-29.139 143.363 38.731 337.581 165.42 431.552l.001.001c16.447 12.2 37.988 15.149 57.109 7.82l59.557-22.829c14.279-5.473 21.417-21.485 15.944-35.764l-32.624-85.11c-5.473-14.279-21.485-21.417-35.764-15.944l-35.157 13.476c-13.198 5.059-28.152 1.001-36.983-10.035-39.217-49.012-62.787-102.181-64.845-168.121-.431-13.816 7.93-26.392 20.837-31.339z" fill="#ffffff" data-original="#000000" style="" class=""/></g><g><g><g><path d="m474.563 261.094c-.044 0-.087 0-.131-.001-8.247-.071-14.874-6.814-14.803-15.06.088-10.175.178-21.559.263-33.394h-67.069c-11.346 0-18.562-12.201-13.075-22.146 9.224-16.719 55.71-100.703 65.093-112.215 17.299-21.224 43.024-10.01 45.012 13.847.494 5.933.35 50.362.108 90.649h5.958c8.247 0 14.933 6.686 14.933 14.933s-6.686 14.933-14.933 14.933h-6.159c-.111 15.187-.215 27.539-.267 33.65-.071 8.203-6.743 14.803-14.93 14.804zm-56.38-78.32h41.905c.173-29.059.279-57.116.215-73.635-9.481 15.743-25.708 44.208-42.12 73.635z" fill="#ffffff" data-original="#000000" style="" class=""/></g></g><g><g><path d="m271.019 262.321c-14.066 0-22.895-15.764-14.583-27.864 0 0 27.697-36.052 57.503-78.638 5.393-7.705 10.519-16.107 13.43-25.019 5.58-17.084-6.033-35.488-24.939-35.488-12.88 0-24.029 9.126-26.549 21.715-1.593 7.955-9.387 13.372-17.366 11.906-8.196-1.506-13.56-9.412-11.959-17.565 5.226-26.609 28.725-45.921 55.874-45.921 31.443 0 57.016 25.618 56.942 57.077-.038 16.243-11.627 37.079-20.964 50.42-20.137 28.772-34.104 47.63-43.363 59.888l56.166-.375c8.262-.069 15.016 6.498 15.119 14.744.104 8.246-6.498 15.015-14.744 15.119h-80.567z" fill="#ffffff" data-original="#000000" style="" class=""/></g></g></g></g></g></svg>
