<svg width="85" height="85" fill="none" xmlns="http://www.w3.org/2000/svg"><path d="M82.51 68.037V20.7a3.74 3.74 0 0 0-3.736-3.735H61.177V8.248a3.74 3.74 0 0 0-3.736-3.735H33.784v2.49h23.657c.687 0 1.245.558 1.245 1.245v29.883c0 .687-.558 1.245-1.245 1.245H27.56a1.246 1.246 0 0 1-1.245-1.245V8.248c0-.687.558-1.245 1.245-1.245h3.735v-2.49h-3.735a3.74 3.74 0 0 0-3.736 3.735v8.716H6.226a3.74 3.74 0 0 0-3.736 3.735v47.338H0v6.226a6.233 6.233 0 0 0 6.226 6.225h61.342v-2.49H6.226a3.74 3.74 0 0 1-3.736-3.735v-3.736h32.996l1.245 2.633H48.27l1.245-2.632H82.51v3.735a3.74 3.74 0 0 1-3.736 3.735H75.04v2.49h3.735A6.233 6.233 0 0 0 85 74.263v-6.226h-2.49Zm-3.736-48.583c.687 0 1.245.559 1.245 1.245v47.338h-2.49V21.944H61.177v-2.49h17.597ZM4.98 20.7c0-.686.559-1.245 1.246-1.245h17.597v2.49H7.471v46.093H4.98V20.7Zm42.957 47.338-1.245 2.633h-8.384l-1.245-2.633H9.96V24.435h13.862V38.13a3.74 3.74 0 0 0 3.736 3.735H57.44a3.74 3.74 0 0 0 3.736-3.735V24.435h13.862v43.602H47.937Z" fill="#3DB562"/><path d="M70.059 77.998h2.49v2.49h-2.49v-2.49ZM57.441 44.356H27.56a3.74 3.74 0 0 0-3.736 3.736 3.74 3.74 0 0 0 3.736 3.735H57.44a3.74 3.74 0 0 0 3.736-3.735 3.74 3.74 0 0 0-3.736-3.736Zm0 4.98H27.56a1.246 1.246 0 0 1-1.245-1.244c0-.687.558-1.245 1.245-1.245H57.44c.687 0 1.245.558 1.245 1.245 0 .686-.558 1.245-1.245 1.245ZM53.706 9.493h2.49v2.49h-2.49v-2.49ZM70.059 31.905h2.49v2.49h-2.49v-2.49ZM70.059 26.925h2.49v2.49h-2.49v-2.49ZM47.782 14.385l-7.043 7.043-3.522-3.521-5.282 5.282 8.804 8.804 12.326-12.326-5.283-5.282Zm-12.326 8.804 1.761-1.76 3.522 3.52 7.043-7.043 1.76 1.761-8.803 8.804-5.283-5.282Z" fill="#3DB562"/></svg>