<svg width="37" height="28" viewBox="0 0 37 28" fill="none" xmlns="http://www.w3.org/2000/svg">
<path d="M33.5929 2.48071C35.6718 4.68879 36.788 7.16531 36.788 11.1798C36.788 18.244 31.8289 24.5756 24.6173 27.7061L22.8149 24.9248C29.5461 21.2837 30.8621 16.5587 31.3869 13.5796C30.303 14.1407 28.8841 14.3365 27.4935 14.2073C23.8524 13.8703 20.9823 10.8811 20.9823 7.16531C20.9823 5.29175 21.7265 3.49494 23.0513 2.17014C24.3761 0.84534 26.173 0.101074 28.0465 0.101074C30.2122 0.101074 32.283 1.09007 33.5929 2.48071ZM13.4094 2.48071C15.4883 4.68879 16.6045 7.16531 16.6045 11.1798C16.6045 18.244 11.6454 24.5756 4.43381 27.7061L2.63143 24.9248C9.36263 21.2837 10.6786 16.5587 11.2034 13.5796C10.1195 14.1407 8.70061 14.3365 7.30997 14.2073C3.66886 13.8703 0.800781 10.8811 0.800781 7.16531C0.800781 5.29175 1.54505 3.49494 2.86985 2.17014C4.19465 0.84534 5.99146 0.101074 7.86501 0.101074C10.0307 0.101074 12.1015 1.09007 13.4114 2.48071H13.4094Z" fill="#FECB4B"/>
</svg>
