<svg width="86" height="85" fill="none" xmlns="http://www.w3.org/2000/svg"><path d="M62 51.412H34.374c-.303 0-.594.131-.808.366a1.314 1.314 0 0 0-.334.885c0 .332.12.65.334.885.214.234.505.366.808.366H62c.303 0 .593-.132.808-.366.214-.235.334-.553.334-.885 0-.332-.12-.65-.334-.885a1.094 1.094 0 0 0-.808-.366ZM62 61.572H34.374c-.303 0-.594.132-.808.367a1.314 1.314 0 0 0-.334.885c0 .331.12.65.334.884.214.235.505.367.808.367H62c.303 0 .593-.132.808-.367.214-.234.334-.553.334-.884 0-.332-.12-.65-.334-.885a1.094 1.094 0 0 0-.808-.367ZM62 71.733H48.184c-.303 0-.593.132-.808.367a1.314 1.314 0 0 0-.334.885c0 .332.12.65.334.884.215.235.505.367.808.367H62c.303 0 .594-.132.808-.367.214-.234.335-.552.335-.884 0-.332-.12-.65-.335-.885a1.094 1.094 0 0 0-.808-.367ZM62 41.25H34.374c-.303 0-.594.132-.808.367a1.314 1.314 0 0 0-.334.884c0 .332.12.65.334.885.214.235.505.366.808.366H62c.303 0 .593-.131.808-.366.214-.235.334-.553.334-.885 0-.332-.12-.65-.334-.884A1.094 1.094 0 0 0 62 41.25ZM27.764 51.412h-4.538c-.303 0-.593.131-.807.366a1.314 1.314 0 0 0-.335.885c0 .332.12.65.335.885.214.234.504.366.807.366h4.538c.303 0 .594-.132.808-.366.214-.235.335-.553.335-.885 0-.332-.12-.65-.335-.885a1.094 1.094 0 0 0-.808-.366ZM27.764 61.572h-4.538c-.303 0-.593.132-.807.367a1.314 1.314 0 0 0-.335.885c0 .331.12.65.335.884.214.235.504.367.807.367h4.538c.303 0 .594-.132.808-.367.214-.234.335-.553.335-.884 0-.332-.12-.65-.335-.885a1.094 1.094 0 0 0-.808-.367ZM27.764 41.25h-4.538c-.303 0-.593.132-.807.367a1.314 1.314 0 0 0-.335.884c0 .332.12.65.335.885.214.235.504.366.807.366h4.538c.303 0 .594-.131.808-.366.214-.235.335-.553.335-.885 0-.332-.12-.65-.335-.884a1.094 1.094 0 0 0-.808-.367Z" fill="#3DB562"/><path d="M71.828 0H25.495a.224.224 0 0 0-.06.015c-.28.011-.546.136-.747.351L12.59 13.616c-.196.22-.31.512-.32.82a.272.272 0 0 0-.014.065v69.248c0 .164.03.327.087.479.057.151.141.29.247.406.106.116.232.208.37.27.14.064.288.096.438.096h58.43c.15 0 .298-.032.437-.095a1.14 1.14 0 0 0 .37-.271c.107-.117.191-.255.248-.406.058-.152.087-.315.087-.48V1.252c0-.164-.03-.327-.087-.479a1.267 1.267 0 0 0-.247-.406 1.141 1.141 0 0 0-.37-.27A1.056 1.056 0 0 0 71.827 0ZM24.353 4.271v8.98h-8.198l8.198-8.98ZM70.686 82.5H14.54V15.754h10.956c.15 0 .298-.032.437-.095a1.14 1.14 0 0 0 .37-.271c.107-.116.19-.254.248-.406.057-.152.087-.315.087-.48v-12h44.047V82.5Z" fill="#3DB562"/><path d="M28.548 31.088h-5.322c-.303 0-.593.132-.807.366a1.314 1.314 0 0 0-.335.885c0 .332.12.65.335.885.214.234.504.366.807.366H62c.303 0 .594-.132.808-.366.214-.235.334-.553.334-.885 0-.332-.12-.65-.334-.885a1.095 1.095 0 0 0-.808-.366h-5.322V19.13c0-.164-.029-.327-.086-.479a1.263 1.263 0 0 0-.248-.406 1.14 1.14 0 0 0-.37-.271 1.057 1.057 0 0 0-.438-.095h-5.318v-5.863c0-.332-.12-.65-.335-.885a1.094 1.094 0 0 0-.808-.366h-6.461c-.303 0-.594.132-.808.366a1.314 1.314 0 0 0-.334.885v2.306h-5.32c-.303 0-.594.131-.808.366a1.314 1.314 0 0 0-.335.885v5.863h-5.32c-.15 0-.298.032-.437.095a1.14 1.14 0 0 0-.37.271c-.107.116-.19.254-.248.406a1.356 1.356 0 0 0-.087.48l.002 8.399Zm25.845-10.706v10.706h-4.178V20.382h4.178Zm-10.64-7.114h4.178v17.82h-4.178v-17.82Zm-6.462 3.557h4.178v14.263H37.29V16.825Zm-2.285 7.114v7.15H30.83v-7.15h4.177Z" fill="#3DB562"/></svg>