<svg width="86" height="85" viewBox="0 0 86 85" fill="none" xmlns="http://www.w3.org/2000/svg">
<path d="M12.0664 37.374C11.5482 37.5366 11.1953 38.0178 11.1953 38.5625V46.4373C11.1953 46.9819 11.5482 47.4633 12.0664 47.6258L19.5671 49.9769C19.9587 51.1879 20.4463 52.3684 21.0226 53.5006L17.376 60.4832C17.1241 60.9657 17.214 61.5564 17.5978 61.9414L23.1494 67.5097C23.5332 67.8947 24.1223 67.9848 24.6031 67.7322L31.5647 64.0745C32.6935 64.6526 33.8705 65.1416 35.0778 65.5344L37.4218 73.0578C37.5838 73.5776 38.0637 73.9315 38.6067 73.9315H46.4578C47.0007 73.9315 47.4807 73.5776 47.6427 73.0578L49.9868 65.5344C51.194 65.1416 52.371 64.6526 53.4998 64.0745L60.4614 67.7322C60.9424 67.9848 61.5312 67.8947 61.9152 67.5097L67.4667 61.9414C67.8507 61.5564 67.9406 60.9657 67.6885 60.4832L64.0419 53.5006C64.6182 52.3684 65.1058 51.1879 65.4974 49.9769L72.9981 47.6258C73.5163 47.4633 73.8692 46.982 73.8692 46.4373V38.5625C73.8692 38.018 73.5163 37.5366 72.9981 37.374L65.4974 35.0229C65.1058 33.812 64.6182 32.6315 64.0419 31.4992L67.6885 24.5166C67.9404 24.0342 67.8506 23.4435 67.4667 23.0585L61.9152 17.4902C61.5312 17.105 60.9423 17.0149 60.4614 17.2677L53.4998 20.9254C52.371 20.3473 51.194 19.8582 49.9868 19.4654L47.6427 11.9421C47.4807 11.4223 47.0009 11.0684 46.4578 11.0684H38.6067C38.0638 11.0684 37.5838 11.4223 37.4218 11.9421L35.0778 19.4654C33.8705 19.8582 32.6935 20.3473 31.5647 20.9254L24.6031 17.2677C24.1219 17.0149 23.5332 17.1052 23.1494 17.4902L17.5978 23.0585C17.2138 23.4435 17.1239 24.0342 17.376 24.5166L21.0226 31.4992C20.4463 32.6315 19.9587 33.812 19.5671 35.0229L12.0664 37.374ZM21.7513 36.367C22.1851 34.8861 22.7783 33.4501 23.5145 32.0987C23.7136 31.7335 23.7174 31.2927 23.5248 30.9238L19.9986 24.172L24.2595 19.8982L30.991 23.435C31.3585 23.6281 31.7982 23.6245 32.1624 23.4247C33.5097 22.6863 34.9414 22.0911 36.4178 21.6562C36.8157 21.539 37.129 21.23 37.2528 20.8331L39.5192 13.5588H45.5448L47.8112 20.8331C47.935 21.2302 48.2483 21.539 48.6462 21.6562C50.1226 22.0913 51.5544 22.6863 52.9017 23.4247C53.2658 23.6243 53.7052 23.6283 54.073 23.435L60.8045 19.8982L65.0654 24.172L61.5393 30.9238C61.3466 31.2925 61.3506 31.7333 61.5495 32.0987C62.2857 33.4501 62.8791 34.8861 63.3128 36.367C63.4296 36.7661 63.7377 37.0804 64.1334 37.2045L71.3858 39.4778V45.5216L64.1334 47.7948C63.7375 47.919 63.4296 48.2333 63.3128 48.6324C62.879 50.1132 62.2857 51.5493 61.5495 52.9006C61.3504 53.2659 61.3466 53.7066 61.5393 54.0755L65.0654 60.8274L60.8045 65.1011L54.073 61.5643C53.7056 61.3713 53.2658 61.3749 52.9017 61.5746C51.5544 62.3131 50.1226 62.9082 48.6462 63.3432C48.2483 63.4604 47.935 63.7694 47.8112 64.1663L45.5448 71.4406H39.5192L37.2528 64.1663C37.129 63.7692 36.8157 63.4604 36.4178 63.3432C34.9414 62.9081 33.5097 62.3131 32.1624 61.5746C31.7981 61.3749 31.3586 61.3709 30.991 61.5643L24.2595 65.1011L19.9986 60.8274L23.5248 54.0755C23.7174 53.7068 23.7134 53.266 23.5145 52.9006C22.7783 51.5493 22.1849 50.1132 21.7513 48.6324C21.6344 48.2333 21.3264 47.919 20.9306 47.7948L13.6782 45.5216V39.4778L20.9306 37.2045C21.3264 37.0804 21.6344 36.7661 21.7513 36.367Z" fill="#3DB562"/>
<path d="M35.7314 46.9611C36.3555 46.6767 36.6318 45.9386 36.3484 45.3126C35.9475 44.4272 35.7445 43.4811 35.7445 42.5005C35.7445 38.7482 38.788 35.6955 42.529 35.6955C46.27 35.6955 49.3135 38.7482 49.3135 42.5005C49.3135 46.2527 46.27 49.3054 42.529 49.3054C41.5668 49.3054 40.6371 49.1077 39.7658 48.7177C39.1394 48.4375 38.4056 48.7196 38.1264 49.3474C37.847 49.9755 38.1281 50.7116 38.7542 50.9918C39.9459 51.5251 41.2159 51.7955 42.529 51.7955C47.6389 51.7955 51.7962 47.6257 51.7962 42.5003C51.7962 37.3749 47.6389 33.2051 42.529 33.2051C37.419 33.2051 33.2617 37.3749 33.2617 42.5003C33.2617 43.8387 33.5396 45.1311 34.0878 46.3421C34.3713 46.9684 35.1074 47.2454 35.7314 46.9611V46.9611Z" fill="#3DB562"/>
<path d="M42.5314 58.839C51.5133 58.839 58.8207 51.5097 58.8207 42.5005C58.8207 33.4914 51.5133 26.1621 42.5314 26.1621C33.5495 26.1621 26.2422 33.4915 26.2422 42.5005C26.2422 51.5095 33.5495 58.839 42.5314 58.839ZM42.5314 28.6523C50.1443 28.6523 56.3379 34.8645 56.3379 42.5005C56.3379 50.1366 50.1443 56.3487 42.5314 56.3487C34.9185 56.3487 28.7249 50.1364 28.7249 42.5005C28.7249 34.8646 34.9185 28.6523 42.5314 28.6523V28.6523Z" fill="#3DB562"/>
<path d="M77.4763 18.4598C77.088 17.893 76.315 17.7491 75.7501 18.1384C75.185 18.5277 75.0415 19.303 75.4297 19.8697C79.738 26.1607 82.1468 33.5242 82.3955 41.1647C82.3959 41.1739 82.3967 41.1981 82.3715 41.224C82.3519 41.2444 82.3274 41.2547 82.2989 41.2547H79.6225C79.5704 41.2547 79.5295 41.2107 79.5273 41.1508C79.194 31.7535 75.3514 22.9082 68.7072 16.2441C65.2527 12.7784 61.2117 10.0698 56.6962 8.19354C52.1825 6.31806 47.4182 5.36729 42.5354 5.36729C42.5332 5.36729 42.5307 5.36729 42.5286 5.36729C32.639 5.36729 23.342 9.22947 16.3501 16.2425C16.2427 16.3502 16.1591 16.4727 16.0992 16.6036L10.3963 22.322C10.2196 22.4994 10.0267 22.4568 9.92742 22.4154C9.82844 22.3743 9.66209 22.2678 9.66209 22.017V12.3366C9.66209 12.0858 9.82827 11.9794 9.92742 11.9382C10.0267 11.8968 10.2196 11.8543 10.3963 12.0317L12.5662 14.2081C13.051 14.6944 13.8371 14.6944 14.3217 14.2081C21.856 6.65175 31.8733 2.49023 42.5289 2.49023C48.2185 2.49023 53.7131 3.66629 58.8599 5.98603C63.8331 8.2274 68.2317 11.4164 71.9331 15.4644C72.3967 15.971 73.1818 16.0049 73.6871 15.5404C74.1923 15.0755 74.2262 14.288 73.7629 13.7811C69.8319 9.48248 65.1602 6.09576 59.8774 3.71477C54.4085 1.24977 48.5717 0 42.5289 0C31.6246 0 21.3502 4.10208 13.4569 11.5794L12.1523 10.2709C11.3163 9.43234 10.0701 9.18365 8.97769 9.63754C7.88545 10.0913 7.17969 11.1508 7.17969 12.3366V22.017C7.17969 23.2028 7.88545 24.2624 8.97769 24.7161C10.0704 25.17 11.3164 24.9211 12.1523 24.0829L18.1605 18.0582C18.2638 17.9544 18.347 17.8346 18.4078 17.7042C24.8952 11.3508 33.4437 7.85752 42.5291 7.85752H42.5354C47.0905 7.85752 51.5355 8.74471 55.7462 10.4942C59.9589 12.2445 63.7288 14.7716 66.9518 18.0049C73.1503 24.2222 76.7352 32.4737 77.0462 41.2378C77.0944 42.6438 78.2259 43.7451 79.6225 43.7451H82.2989C82.9952 43.7451 83.672 43.4574 84.1558 42.9557C84.6439 42.4497 84.9 41.7845 84.877 41.0831C84.6128 32.9667 82.0536 25.1437 77.4763 18.4598V18.4598Z" fill="#3DB562"/>
<path d="M76.0806 60.2839C74.988 59.83 73.7418 60.0789 72.906 60.9171L66.8977 66.9418C66.7945 67.0456 66.7112 67.1654 66.6505 67.2958C60.1631 73.6493 51.6143 77.1425 42.529 77.1425C42.5269 77.1425 42.525 77.1425 42.5227 77.1425C37.9676 77.1425 33.5226 76.2553 29.3119 74.5058C25.0992 72.7555 21.3292 70.2284 18.1063 66.9951C11.9077 60.7778 8.32284 52.5263 8.01183 43.7622C7.96367 42.3562 6.8322 41.2549 5.43558 41.2549H2.75919C2.06286 41.2549 1.38607 41.5426 0.902266 42.0443C0.41416 42.5503 0.158107 43.2155 0.181113 43.9171C0.481194 53.1013 3.65463 61.7563 9.35847 68.9463C9.78534 69.4842 10.5661 69.5735 11.1028 69.1453C11.6393 68.7172 11.7282 67.9339 11.3013 67.3957C5.93229 60.6277 2.94506 52.4807 2.66269 43.8353C2.66236 43.8261 2.66153 43.8019 2.68669 43.776C2.70639 43.7556 2.73088 43.7453 2.75935 43.7453H5.43574C5.48788 43.7453 5.52876 43.7893 5.53092 43.8492C5.86427 53.2465 9.70688 62.0918 16.351 68.7559C19.8055 72.2216 23.8466 74.9302 28.362 76.8065C32.8758 78.6819 37.64 79.6329 42.5229 79.6327H42.5297C52.4192 79.6327 61.7163 75.7705 68.7081 68.7575C68.8156 68.6498 68.8992 68.5273 68.9591 68.3964L74.6619 62.678C74.8387 62.5006 75.0315 62.5432 75.1308 62.5846C75.2298 62.6257 75.3961 62.7322 75.3961 62.983V72.6634C75.3961 72.9142 75.23 73.0206 75.1308 73.0618C75.0315 73.1032 74.8387 73.1457 74.6619 72.9684L72.492 70.7919C72.0072 70.3056 71.2212 70.3056 70.7365 70.7919C63.2023 78.3483 53.1849 82.5098 42.5293 82.5098C32.2774 82.5098 22.5349 78.6159 15.0966 71.5454C14.5989 71.0725 13.8132 71.0935 13.3416 71.5927C12.8701 72.092 12.8911 72.88 13.3888 73.353C21.2903 80.8636 31.6392 85 42.5293 85C53.4337 85 63.7081 80.8979 71.6014 73.4206L72.906 74.7291C73.742 75.5677 74.9882 75.8165 76.0806 75.3625C77.1728 74.9087 77.8786 73.8492 77.8786 72.6634V62.983C77.8786 61.7972 77.1728 60.7376 76.0806 60.2839V60.2839Z" fill="#3DB562"/>
</svg>
