<svg width="524" height="372" fill="none" xmlns="http://www.w3.org/2000/svg"><rect x="387.293" y="132.678" width="135.727" height="90.484" rx="4.14" fill="#FCD056"/><rect x="399.394" y="161.979" width="19.884" height="51.705" rx="2.07" fill="#E9181E"/><rect x="426.195" y="177.49" width="19.884" height="36.194" rx="2.07" fill="#E9181E"/><g filter="url(#a)"><rect x="452.996" y="147.328" width="19.884" height="66.355" rx="2.07" fill="#3DB562"/></g><rect x="484.125" y="167.149" width="19.884" height="46.535" rx="2.07" fill="#E9181E"/><path d="M161.121 55.91c0 23.988-19.049 43.434-42.547 43.434-23.499 0-42.548-19.446-42.548-43.433 0-23.988 19.05-43.434 42.548-43.434s42.547 19.446 42.547 43.434Zm-70.012 0c0 15.485 12.296 28.037 27.465 28.037 15.168 0 27.464-12.552 27.464-28.036 0-15.485-12.296-28.037-27.464-28.037-15.169 0-27.465 12.552-27.465 28.037Z" fill="#3DB562"/><g filter="url(#b)"><path d="M162.891 55.91c0-5.703-1.1-11.351-3.238-16.62a43.498 43.498 0 0 0-9.223-14.091 42.506 42.506 0 0 0-13.804-9.416 41.792 41.792 0 0 0-16.282-3.306v17.779c3.3 0 6.568.663 9.617 1.953a25.102 25.102 0 0 1 8.154 5.561 25.707 25.707 0 0 1 5.447 8.323 26.119 26.119 0 0 1 1.913 9.818h17.416Z" fill="#FCD056"/></g><rect x=".02" y="135.393" width="135.727" height="90.484" rx="4.14" fill="#FCD056"/><path d="m3.052 218.552 13.71-14.094a.414.414 0 0 1 .297-.125h12.637c.1 0 .197-.036.272-.102l10.049-8.764a.414.414 0 0 1 .456-.059l17.513 8.729a.414.414 0 0 0 .566-.209l5.814-13.661a.419.419 0 0 1 .218-.219l31.414-13.541a.414.414 0 0 1 .559.254l11.174 35.066c.118.373.64.388.781.023l22.918-59.653" stroke="#E9181E" stroke-width="1.656"/><path d="m9.968 221.137 15.836-4.693c.1-.03.187-.097.24-.188l5.917-10.111a.408.408 0 0 1 .138-.142l13.668-8.516a.418.418 0 0 0 .127-.124l15.389-23.435a.413.413 0 0 1 .346-.187h13.418c.121 0 .236-.053.315-.145l17.474-20.393a.413.413 0 0 1 .314-.144h18.269a.413.413 0 0 0 .233-.072l20.21-13.716" stroke="#3DB562" stroke-width="1.656"/><circle cx="403.58" cy="49.432" r="43.432" fill="#FCD056"/><g filter="url(#c)"><path d="M446.66 43.91a43.43 43.43 0 0 0-46.406-37.782 43.431 43.431 0 0 0-34.093 65.354 43.437 43.437 0 0 0 15.4 15.388l22.019-37.438 43.08-5.521Z" fill="#3DB562"/></g><path d="M386.248 255.052s-23.945-31.987-23.96-32.005c-.006-.009-.528-.936-2.137-1.448l-99.781-28.174a4.121 4.121 0 0 0-2.241 0l-99.782 28.174s-1.362.394-2.18 1.499c-.328.442-23.915 31.954-23.915 31.954a4.13 4.13 0 0 0-.638 3.692 4.13 4.13 0 0 0 2.614 2.685l21.116 7.166V325.9a4.122 4.122 0 0 0 2.55 3.81l99.781 41.233c.297.122.673.313 1.574.313.902 0 1.575-.313 1.575-.313l99.782-41.233a4.12 4.12 0 0 0 2.548-3.81v-57.306l21.117-7.167a4.125 4.125 0 0 0 1.977-6.375Zm-243.989.393 18.825-25.155 7.614 2.097 42.851 11.804 40.525 11.164-23.767 29.294-86.048-29.204Zm109.667 107.047-91.536-37.824v-51.749l64.784 21.989a4.117 4.117 0 0 0 4.526-1.307l22.226-27.393v96.284Zm7.323-113.712-84.434-23.261 84.434-23.842 84.435 23.842-84.435 23.261Zm95.659 74.362-91.536 37.824v-96.283l22.226 27.393a4.122 4.122 0 0 0 4.526 1.308l64.784-21.99v51.748Zm-64.716-38.492-23.767-29.294 90.99-25.066 18.826 25.155-86.049 29.205Z" fill="#3DB562"/><path d="m142.259 255.445 18.825-25.155 7.614 2.097 42.851 11.804 40.525 11.164-23.767 29.294-86.048-29.204Z" fill="#3DB562"/><path d="m251.926 362.492-91.536-37.824v-51.749l64.784 21.989a4.117 4.117 0 0 0 4.526-1.307l22.226-27.393v96.284ZM354.908 323.142l-91.536 37.824v-96.283l22.226 27.393a4.122 4.122 0 0 0 4.526 1.308l64.784-21.99v51.748Z" fill="#3DB562"/><path d="m290.192 284.65-23.767-29.294 90.99-25.066 18.826 25.155-86.049 29.205Z" fill="#3DB562"/><path d="M386.248 255.052s-23.945-31.987-23.96-32.005c-.006-.009-.528-.936-2.137-1.448l-99.781-28.174a4.121 4.121 0 0 0-2.241 0l-99.782 28.174s-1.362.394-2.18 1.499c-.328.442-23.915 31.954-23.915 31.954a4.13 4.13 0 0 0-.638 3.692 4.13 4.13 0 0 0 2.614 2.685l21.116 7.166V325.9a4.122 4.122 0 0 0 2.55 3.81l99.781 41.233c.297.122.673.313 1.574.313.902 0 1.575-.313 1.575-.313l99.782-41.233a4.12 4.12 0 0 0 2.548-3.81v-57.306l21.117-7.167a4.125 4.125 0 0 0 1.977-6.375Zm-243.989.393 18.825-25.155 7.614 2.097 42.851 11.804 40.525 11.164-23.767 29.294-86.048-29.204Zm109.667 107.047-91.536-37.824v-51.749l64.784 21.989a4.117 4.117 0 0 0 4.526-1.307l22.226-27.393v96.284Zm7.323-113.712-84.434-23.261 84.434-23.842 84.435 23.842-84.435 23.261Zm95.659 74.362-91.536 37.824v-96.283l22.226 27.393a4.122 4.122 0 0 0 4.526 1.308l64.784-21.99v51.748Zm-64.716-38.492-23.767-29.294 90.99-25.066 18.826 25.155-86.049 29.205Z" stroke="#222" stroke-width=".3"/><path d="m142.259 255.445 18.825-25.155 7.614 2.097 42.851 11.804 40.525 11.164-23.767 29.294-86.048-29.204Z" stroke="#222" stroke-width=".3"/><path d="m251.926 362.492-91.536-37.824v-51.749l64.784 21.989a4.117 4.117 0 0 0 4.526-1.307l22.226-27.393v96.284ZM354.908 323.142l-91.536 37.824v-96.283l22.226 27.393a4.122 4.122 0 0 0 4.526 1.308l64.784-21.99v51.748Z" stroke="#222" stroke-width=".3"/><path d="m290.192 284.65-23.767-29.294 90.99-25.066 18.826 25.155-86.049 29.205Z" stroke="#222" stroke-width=".3"/><path d="M249.202 246.086c-3.546-23.031-28.175-73.69-98.329-92.074l15.066 16.935-43.136-7.447c35.453 12.818 110.366 47.28 126.399 82.586Z" fill="#FECB4B"/><path d="M259.252 245.794c3.062-32.691-11.922-110.08-96.352-158.106l13.826 28.097-53.192-24.25c41.497 29.101 126.736 100.693 135.718 154.259ZM337.32 73.345c-75.286 61.893-77.272 140.755-68.855 172.449.005-54.346 72.197-139.607 108.293-175.444l-48.425 33.072 8.987-30.077Z" fill="#FECB4B"/><path d="M370.452 154.304c-70.154 18.384-94.783 69.042-98.328 92.073 16.032-35.305 90.946-69.768 126.398-82.586l-43.136 7.447 15.066-16.934Z" fill="#FFD24D"/><defs><filter id="a" x="448.856" y="144.844" width="28.165" height="74.636" filterUnits="userSpaceOnUse" color-interpolation-filters="sRGB"><feFlood flood-opacity="0" result="BackgroundImageFix"/><feColorMatrix in="SourceAlpha" values="0 0 0 0 0 0 0 0 0 0 0 0 0 0 0 0 0 0 127 0" result="hardAlpha"/><feOffset dy="1.656"/><feGaussianBlur stdDeviation="2.07"/><feComposite in2="hardAlpha" operator="out"/><feColorMatrix values="0 0 0 0 0 0 0 0 0 0 0 0 0 0 0 0 0 0 0.25 0"/><feBlend in2="BackgroundImageFix" result="effect1_dropShadow_416:912"/><feBlend in="SourceGraphic" in2="effect1_dropShadow_416:912" result="shape"/></filter><filter id="b" x="105.344" y="2.477" width="72.548" height="73.434" filterUnits="userSpaceOnUse" color-interpolation-filters="sRGB"><feFlood flood-opacity="0" result="BackgroundImageFix"/><feColorMatrix in="SourceAlpha" values="0 0 0 0 0 0 0 0 0 0 0 0 0 0 0 0 0 0 127 0" result="hardAlpha"/><feOffset dy="5"/><feGaussianBlur stdDeviation="7.5"/><feComposite in2="hardAlpha" operator="out"/><feColorMatrix values="0 0 0 0 0 0 0 0 0 0 0 0 0 0 0 0 0 0 0.15 0"/><feBlend in2="BackgroundImageFix" result="effect1_dropShadow_416:912"/><feBlend in="SourceGraphic" in2="effect1_dropShadow_416:912" result="shape"/></filter><filter id="c" x="354.147" y="0" width="98.513" height="92.87" filterUnits="userSpaceOnUse" color-interpolation-filters="sRGB"><feFlood flood-opacity="0" result="BackgroundImageFix"/><feColorMatrix in="SourceAlpha" values="0 0 0 0 0 0 0 0 0 0 0 0 0 0 0 0 0 0 127 0" result="hardAlpha"/><feMorphology radius="1" operator="dilate" in="SourceAlpha" result="effect1_dropShadow_416:912"/><feOffset/><feGaussianBlur stdDeviation="2.5"/><feColorMatrix values="0 0 0 0 0.239216 0 0 0 0 0.709804 0 0 0 0 0.384314 0 0 0 0.15 0"/><feBlend in2="BackgroundImageFix" result="effect1_dropShadow_416:912"/><feBlend in="SourceGraphic" in2="effect1_dropShadow_416:912" result="shape"/></filter></defs></svg>