<svg width="86" height="85" viewBox="0 0 86 85" fill="none" xmlns="http://www.w3.org/2000/svg">
<g clip-path="url(#clip0_424:916)">
<path d="M5.55859 37.4703V78.7129C5.55859 79.4074 6.12149 79.9703 6.81603 79.9703H24.2516C24.9461 79.9703 25.509 79.4074 25.509 78.7129V37.4703C25.509 36.7758 24.9461 36.2129 24.2516 36.2129H6.81603C6.12149 36.2129 5.55859 36.7758 5.55859 37.4703V37.4703ZM8.07347 38.7278H22.9941V77.4555H8.07347V38.7278Z" fill="#3DB562"/>
<path d="M19.8906 42.9189H11.5074C10.8135 42.9189 10.25 43.4818 10.25 44.1764C10.25 44.8709 10.8135 45.4338 11.5074 45.4338H19.8906C20.5845 45.4338 21.148 44.8709 21.148 44.1764C21.148 43.4818 20.5845 42.9189 19.8906 42.9189Z" fill="#3DB562"/>
<path d="M19.8906 49.625H11.5074C10.8135 49.625 10.25 50.1879 10.25 50.8824C10.25 51.577 10.8135 52.1399 11.5074 52.1399H19.8906C20.5845 52.1399 21.148 51.577 21.148 50.8824C21.148 50.1879 20.5845 49.625 19.8906 49.625Z" fill="#3DB562"/>
<path d="M19.8906 56.3311H11.5074C10.8135 56.3311 10.25 56.894 10.25 57.5885C10.25 58.283 10.8135 58.8459 11.5074 58.8459H19.8906C20.5845 58.8459 21.148 58.283 21.148 57.5885C21.148 56.894 20.5845 56.3311 19.8906 56.3311Z" fill="#3DB562"/>
<path d="M19.8906 63.0371H11.5074C10.8135 63.0371 10.25 63.6 10.25 64.2945C10.25 64.9891 10.8135 65.552 11.5074 65.552H19.8906C20.5845 65.552 21.148 64.9891 21.148 64.2945C21.148 63.6 20.5845 63.0371 19.8906 63.0371Z" fill="#3DB562"/>
<path d="M19.8906 69.7432H11.5074C10.8135 69.7432 10.25 70.3061 10.25 71.0006C10.25 71.6951 10.8135 72.258 11.5074 72.258H19.8906C20.5845 72.258 21.148 71.6951 21.148 71.0006C21.148 70.3061 20.5845 69.7432 19.8906 69.7432Z" fill="#3DB562"/>
<path d="M20.8121 18.0229C20.8121 15.1112 18.4431 12.7422 15.5314 12.7422C12.619 12.7422 10.25 15.1112 10.25 18.0229C10.25 20.9353 12.6196 23.3043 15.5314 23.3043C18.4438 23.3043 20.8121 20.9353 20.8121 18.0229ZM12.7649 18.0229C12.7649 16.4976 14.0061 15.2571 15.5314 15.2571C17.0566 15.2571 18.2979 16.4976 18.2979 18.0229C18.2979 19.5482 17.0566 20.7894 15.5314 20.7894C14.0061 20.7894 12.7649 19.5482 12.7649 18.0229Z" fill="#3DB562"/>
<path d="M33.0508 37.4703V78.7129C33.0508 79.4074 33.6137 79.9703 34.3082 79.9703H51.7438C52.4383 79.9703 53.0012 79.4074 53.0012 78.7129V37.4703C53.0012 36.7758 52.4383 36.2129 51.7438 36.2129H34.3082C33.6137 36.2129 33.0508 36.7758 33.0508 37.4703V37.4703ZM35.5657 38.7278H50.4863V77.4555H35.5657V38.7278Z" fill="#3DB562"/>
<path d="M47.3867 42.9189H39.0035C38.309 42.9189 37.7461 43.4818 37.7461 44.1764C37.7461 44.8709 38.309 45.4338 39.0035 45.4338H47.3867C48.0806 45.4338 48.6435 44.8709 48.6435 44.1764C48.6435 43.4818 48.0806 42.9189 47.3867 42.9189Z" fill="#3DB562"/>
<path d="M47.3867 49.625H39.0035C38.309 49.625 37.7461 50.1879 37.7461 50.8824C37.7461 51.577 38.309 52.1399 39.0035 52.1399H47.3867C48.0806 52.1399 48.6435 51.577 48.6435 50.8824C48.6435 50.1879 48.0806 49.625 47.3867 49.625Z" fill="#3DB562"/>
<path d="M47.3867 56.3311H39.0035C38.309 56.3311 37.7461 56.894 37.7461 57.5885C37.7461 58.283 38.309 58.8459 39.0035 58.8459H47.3867C48.0806 58.8459 48.6435 58.283 48.6435 57.5885C48.6435 56.894 48.0806 56.3311 47.3867 56.3311Z" fill="#3DB562"/>
<path d="M47.3867 63.0371H39.0035C38.309 63.0371 37.7461 63.6 37.7461 64.2945C37.7461 64.9891 38.309 65.552 39.0035 65.552H47.3867C48.0806 65.552 48.6435 64.9891 48.6435 64.2945C48.6435 63.6 48.0806 63.0371 47.3867 63.0371Z" fill="#3DB562"/>
<path d="M47.3867 69.7432H39.0035C38.309 69.7432 37.7461 70.3061 37.7461 71.0006C37.7461 71.6951 38.309 72.258 39.0035 72.258H47.3867C48.0806 72.258 48.6435 71.6951 48.6435 71.0006C48.6435 70.3061 48.0806 69.7432 47.3867 69.7432Z" fill="#3DB562"/>
<path d="M48.3088 18.0229C48.3088 15.1112 45.9392 12.7422 43.0275 12.7422C40.1157 12.7422 37.7461 15.1112 37.7461 18.0229C37.7461 20.9353 40.1157 23.3043 43.0275 23.3043C45.9392 23.3043 48.3088 20.9353 48.3088 18.0229ZM40.261 18.0229C40.261 16.4976 41.5022 15.2571 43.0275 15.2571C44.5527 15.2571 45.794 16.4976 45.794 18.0229C45.794 19.5482 44.5527 20.7894 43.0275 20.7894C41.5022 20.7894 40.261 19.5482 40.261 18.0229Z" fill="#3DB562"/>
<path d="M60.5469 37.4703V78.7129C60.5469 79.4074 61.1098 79.9703 61.8043 79.9703H79.2398C79.9344 79.9703 80.4973 79.4074 80.4973 78.7129V37.4703C80.4973 36.7758 79.9344 36.2129 79.2398 36.2129H61.8043C61.1098 36.2129 60.5469 36.7758 60.5469 37.4703V37.4703ZM63.0618 38.7278H77.9824V77.4555H63.0618V38.7278Z" fill="#3DB562"/>
<path d="M74.8821 42.9189H66.4996C65.8051 42.9189 65.2422 43.4818 65.2422 44.1764C65.2422 44.8709 65.8051 45.4338 66.4996 45.4338H74.8821C75.5767 45.4338 76.1396 44.8709 76.1396 44.1764C76.1396 43.4818 75.5767 42.9189 74.8821 42.9189Z" fill="#3DB562"/>
<path d="M74.8821 49.625H66.4996C65.8051 49.625 65.2422 50.1879 65.2422 50.8824C65.2422 51.577 65.8051 52.1399 66.4996 52.1399H74.8821C75.5767 52.1399 76.1396 51.577 76.1396 50.8824C76.1396 50.1879 75.5767 49.625 74.8821 49.625Z" fill="#3DB562"/>
<path d="M74.8821 56.3311H66.4996C65.8051 56.3311 65.2422 56.894 65.2422 57.5885C65.2422 58.283 65.8051 58.8459 66.4996 58.8459H74.8821C75.5767 58.8459 76.1396 58.283 76.1396 57.5885C76.1396 56.894 75.5767 56.3311 74.8821 56.3311Z" fill="#3DB562"/>
<path d="M74.8821 63.0371H66.4996C65.8051 63.0371 65.2422 63.6 65.2422 64.2945C65.2422 64.9891 65.8051 65.552 66.4996 65.552H74.8821C75.5767 65.552 76.1396 64.9891 76.1396 64.2945C76.1396 63.6 75.5767 63.0371 74.8821 63.0371Z" fill="#3DB562"/>
<path d="M74.8821 69.7432H66.4996C65.8051 69.7432 65.2422 70.3061 65.2422 71.0006C65.2422 71.6951 65.8051 72.258 66.4996 72.258H74.8821C75.5767 72.258 76.1396 71.6951 76.1396 71.0006C76.1396 70.3061 75.5767 69.7432 74.8821 69.7432Z" fill="#3DB562"/>
<path d="M75.8049 18.0229C75.8049 15.1112 73.4353 12.7422 70.5236 12.7422C67.6118 12.7422 65.2422 15.1112 65.2422 18.0229C65.2422 20.9353 67.6112 23.3043 70.5236 23.3043C73.4353 23.3043 75.8049 20.9353 75.8049 18.0229ZM67.7571 18.0229C67.7571 16.4976 68.9983 15.2571 70.5236 15.2571C72.0488 15.2571 73.2901 16.4976 73.2901 18.0229C73.2901 19.5482 72.0488 20.7894 70.5236 20.7894C68.9983 20.7894 67.7571 19.5482 67.7571 18.0229Z" fill="#3DB562"/>
<path d="M84.2699 74.3646C84.9644 74.3646 85.5273 73.8017 85.5273 73.1072V1.25744C85.5273 0.562897 84.9644 0 84.2699 0H1.78478C1.09024 0 0.527344 0.562897 0.527344 1.25744V6.00769C0.527344 6.70158 1.09024 7.26513 1.78478 7.26513C2.47932 7.26513 3.04222 6.70158 3.04222 6.00769V2.51488H28.0224V82.4851H3.04222V11.9175C3.04222 11.2229 2.47932 10.66 1.78478 10.66C1.09024 10.66 0.527344 11.2229 0.527344 11.9175V83.7426C0.527344 84.4371 1.09024 85 1.78478 85H84.2699C84.9644 85 85.5273 84.4371 85.5273 83.7426V78.9644C85.5273 78.2699 84.9644 77.707 84.2699 77.707C83.5754 77.707 83.0125 78.2699 83.0125 78.9644V82.4851H58.0323V16.9122C58.0323 16.2177 57.4694 15.6548 56.7749 15.6548C56.0803 15.6548 55.5174 16.2177 55.5174 16.9122V82.4851H30.5373V2.51488H55.5174V11.0439C55.5174 11.7385 56.0803 12.3014 56.7749 12.3014C57.4694 12.3014 58.0323 11.7385 58.0323 11.0439V2.51488H83.0125V73.1072C83.0125 73.8017 83.5754 74.3646 84.2699 74.3646V74.3646Z" fill="#3DB562"/>
</g>
<defs>
<clipPath id="clip0_424:916">
<rect width="85" height="85" fill="white" transform="translate(0.527344)"/>
</clipPath>
</defs>
</svg>
