<svg width="85" height="85" fill="none" xmlns="http://www.w3.org/2000/svg"><path d="M83.629 0H30.161a1.37 1.37 0 0 0-1.37 1.371v4.113h-1.372a1.371 1.371 0 0 0-1.37 1.37v42.5H4.112A4.113 4.113 0 0 0 0 53.469v27.42A4.113 4.113 0 0 0 4.113 85H56.21a4.113 4.113 0 0 0 3.86-2.742h18.075a1.371 1.371 0 0 0 1.371-1.37v-1.372h4.113A1.371 1.371 0 0 0 85 78.146V1.37A1.37 1.37 0 0 0 83.629 0ZM2.742 80.887V57.581h49.355v24.677H4.113a1.371 1.371 0 0 1-1.371-1.37Zm54.839 0a1.37 1.37 0 0 1-1.371 1.371h-1.371V56.21a1.37 1.37 0 0 0-1.371-1.371H2.742v-1.371a1.37 1.37 0 0 1 1.37-1.371h27.42c.364 0 .713-.145.97-.402l5.082-5.082H56.21a1.37 1.37 0 0 1 1.37 1.37v32.904Zm2.742-1.37V47.983a4.113 4.113 0 0 0-4.113-4.113H37.016a1.37 1.37 0 0 0-.97.402l-5.081 5.082H28.79V8.225h34.275v12.34a1.371 1.371 0 0 0 1.37 1.37h12.34v57.581H60.322Zm5.483-69.353 9.03 9.03h-9.03v-9.03Zm16.452 66.61h-2.742v-56.21a1.37 1.37 0 0 0-.402-.969l-13.71-13.71a1.371 1.371 0 0 0-.968-.401H31.532V2.742h50.726v74.032Z" fill="#3DB562"/><path d="M5.483 76.774h2.742v2.742H5.483v-2.742ZM10.968 76.774h21.935v2.742H10.968v-2.742ZM5.483 71.29h2.742v2.742H5.483V71.29ZM10.968 71.29h21.935v2.742H10.968V71.29ZM54.839 13.71h-1.92a14.913 14.913 0 0 1-8.294-2.512 1.371 1.371 0 0 0-1.522 0 14.913 14.913 0 0 1-8.28 2.512h-1.92a1.371 1.371 0 0 0-1.37 1.37v9.598a15.157 15.157 0 0 0 6.032 12.064l5.483 4.113a1.37 1.37 0 0 0 1.645 0l5.484-4.113a15.158 15.158 0 0 0 6.033-12.064V15.08a1.37 1.37 0 0 0-1.371-1.371Zm-1.371 10.968a12.397 12.397 0 0 1-4.936 9.87l-4.661 3.497-4.661-3.496a12.397 12.397 0 0 1-4.936-9.871v-8.226h.548a17.64 17.64 0 0 0 9.049-2.493 17.641 17.641 0 0 0 9.048 2.493h.549v8.226Z" fill="#3DB562"/><path d="m43.566 27.47-2.711-3.615L38.66 25.5l4.113 5.484a1.37 1.37 0 0 0 2.347-.266l5.484-12.339-2.506-1.113-4.532 10.204Z" fill="#3DB562"/></svg>