<svg width="85" height="85" fill="none" xmlns="http://www.w3.org/2000/svg"><path d="m84.03 50.012-3.612-3.613V10.988c0-.572-.464-1.037-1.036-1.037H1.037C.465 9.951 0 10.416 0 10.988v51.544c0 .572.465 1.037 1.037 1.037h30.518l-1.444 5.99c-.727.22-1.4.62-1.94 1.16a4.622 4.622 0 0 0-1.365 3.293c0 .572.465 1.037 1.037 1.037h24.733c.572 0 1.036-.465 1.036-1.037a4.628 4.628 0 0 0-3.53-4.52l-2-5.923h31.3c.572 0 1.036-.465 1.036-1.037v-5.734a3.305 3.305 0 0 0 2.488-.968l1.123-1.12c.626-.626.971-1.459.971-2.349 0-.888-.344-1.724-.97-2.35ZM48.957 71.429a2.58 2.58 0 0 1 2.367 1.547h-22.23c.394-.921 1.362-1.559 2.367-1.547h17.496Zm-9.08-3.69h.663c2.263.007 4.07-1.916 3.961-4.17h1.391l1.956 5.787H32.293l1.394-5.787h2.229c-.109 2.254 1.698 4.177 3.961 4.17Zm-1.889-3.961v-.21h4.44v.21a1.89 1.89 0 0 1-1.888 1.888h-.664a1.89 1.89 0 0 1-1.888-1.888Zm40.356-7.106H68.07a1.037 1.037 0 0 0 0 2.073h10.276v2.75H2.073v-2.75H61.85a1.037 1.037 0 0 0 0-2.073H2.073V12.024h76.272v32.302l-1.513-1.512a3.324 3.324 0 0 0-3.069-.891l-3.234-3.234a14.231 14.231 0 0 0-1.653-18.158 14.147 14.147 0 0 0-10.072-4.174 14.144 14.144 0 0 0-10.072 4.174 14.149 14.149 0 0 0-3.126 4.71c-1.959 4.84-1.149 10.545 2.42 14.673l-3.313 3.313a3.328 3.328 0 0 0-2.942.041l-1.018-1.019a3.343 3.343 0 0 0-2.867-4.858c-1.766-.06-3.309 1.313-3.449 3.074-.05.63.078 1.244.352 1.784l-3.58 3.584a3.342 3.342 0 0 0-1.746-.355c-1.762.12-3.151 1.645-3.113 3.409a3.347 3.347 0 0 0 3.345 3.272c1.843 0 3.344-1.5 3.344-3.344 0-.536-.127-1.053-.364-1.516l3.583-3.583a3.322 3.322 0 0 0 3.03 0l1.018 1.018a3.349 3.349 0 0 0 2.982 4.86 3.35 3.35 0 0 0 3.345-3.345c0-.562-.146-1.11-.41-1.596l3.27-3.273a14.226 14.226 0 0 0 9.321 3.475c2.816 0 5.64-.836 8.077-2.524l3.232 3.232a3.322 3.322 0 0 0 .892 3.068l7.199 7.2c.043.043.088.086.133.126v.715h-.002ZM60.51 33.627c.574 0 1.036-.465 1.036-1.037v-3.628c0-.572-.462-1.036-1.036-1.036H56.88a1.037 1.037 0 0 0 0 2.073h1.06l-5.765 5.767c-2.569-3.295-2.342-8.075.686-11.104a8.375 8.375 0 0 1 5.942-2.457 8.38 8.38 0 0 1 5.941 2.457c3.276 3.277 3.276 8.607 0 11.883-3.028 3.028-7.809 3.255-11.103.686l5.83-5.831v1.19c0 .572.465 1.037 1.037 1.037Zm-8.343 5.08a10.448 10.448 0 0 0 6.638 2.368c2.681 0 5.364-1.021 7.406-3.064 4.084-4.084 4.084-10.73 0-14.814s-10.73-4.084-14.814 0c-3.836 3.837-4.069 9.934-.697 14.044l-1.202 1.204c-4.03-4.779-3.8-11.95.7-16.449a12.075 12.075 0 0 1 7.397-3.505c.4-.04.802-.06 1.21-.06 3.25 0 6.307 1.266 8.607 3.565a12.285 12.285 0 0 1 1.757 2.22c2.636 4.271 2.42 9.851-.814 13.935-.29.368-.608.724-.943 1.061-.34.34-.698.657-1.063.945-4.564 3.615-11.003 3.456-15.386-.245l1.204-1.204ZM68.543 41c.236-.218.462-.448.682-.683l2.704 2.704-.71.71-2.704-2.704c.01-.008.019-.019.028-.027Zm-23.985 5.25a1.273 1.273 0 1 1-2.546-.002 1.273 1.273 0 0 1 2.546.002Zm-5.515-5.515a1.27 1.27 0 0 1-2.172.9 1.273 1.273 0 1 1 2.172-.9Zm-8.078 8.08a1.273 1.273 0 0 1-2.544 0 1.273 1.273 0 0 1 2.544 0Zm51.599 4.427v.001l-1.123 1.123c-.465.472-1.287.482-1.764 0l-7.199-7.199c-.48-.466-.48-1.29 0-1.764l1.123-1.123c.465-.476 1.3-.478 1.766 0l7.197 7.198c.479.461.482 1.302 0 1.764Z" fill="#3DB562"/><path d="M29.443 24.116c0 .572-.463 1.037-1.036 1.037H8.017a1.037 1.037 0 0 1 0-2.073h20.39c.573 0 1.036.463 1.036 1.036ZM11.75 30.791c0 .572-.466 1.037-1.037 1.037H8.055c-.526 0-.996-.378-1.064-.9a1.038 1.038 0 0 1 1.028-1.173h2.694c.571 0 1.036.465 1.036 1.037ZM29.444 30.791c0 .572-.463 1.037-1.036 1.037H16.93a1.037 1.037 0 0 1 0-2.073h11.477c.573 0 1.036.465 1.036 1.037ZM29.443 37.468c0 .573-.463 1.036-1.036 1.036H8.017a1.036 1.036 0 1 1 0-2.073h20.39c.573 0 1.036.465 1.036 1.037ZM20.88 44.145c0 .572-.464 1.037-1.037 1.037H8.017a1.037 1.037 0 0 1 0-2.074h11.826c.573 0 1.036.465 1.036 1.037Z" fill="#3DB562"/></svg>