<svg width="86" height="85" viewBox="0 0 86 85" fill="none" xmlns="http://www.w3.org/2000/svg">
<g clip-path="url(#clip0_424:913)">
<path d="M34.7055 72.9077C34.7366 72.9395 34.7677 72.9712 34.7988 73.0024C34.8176 73.0212 34.8364 73.04 34.8559 73.0588C34.8604 73.064 34.8663 73.0692 34.8715 73.0737C34.8864 73.0893 34.9019 73.1042 34.9175 73.1191C34.9195 73.121 34.9214 73.123 34.9227 73.1243C37.1898 75.3259 40.134 76.4264 43.0782 76.4264C46.0769 76.4264 49.0749 75.2851 51.3576 73.0024C55.923 68.4369 55.923 61.0084 51.3576 56.4436C46.7922 51.8782 39.3643 51.8782 34.7988 56.4436C30.2658 60.9766 30.2341 68.3319 34.7029 72.9051C34.7042 72.9057 34.7048 72.907 34.7055 72.9077ZM37.4369 72.0128C37.1665 71.8039 36.9084 71.5809 36.6646 71.3442C36.6639 71.3435 36.6633 71.3429 36.6626 71.3422C36.6484 71.3286 36.6341 71.315 36.6198 71.3014C36.6153 71.2968 36.6107 71.2923 36.6062 71.2877C36.5906 71.2722 36.5751 71.2573 36.5595 71.2417C36.5401 71.2222 36.5206 71.2021 36.5011 71.1827C36.4998 71.1807 36.4979 71.1794 36.496 71.1775C36.3539 71.0322 36.2165 70.8818 36.0829 70.7261L37.2495 69.5595C38.2313 68.5783 38.8695 67.28 39.0478 65.9033L39.5938 61.6802C39.6068 61.6562 39.6295 61.6387 39.6574 61.6342L42.741 61.1018L41.2851 62.5576C40.7125 63.1303 40.3973 63.891 40.3973 64.7009C40.3973 65.5109 40.7125 66.2716 41.2851 66.8442C41.8577 67.4168 42.6191 67.7327 43.429 67.7327C44.2384 67.7327 44.9997 67.4175 45.5723 66.8442L47.0282 65.3883L46.4958 68.472C46.4913 68.4998 46.4737 68.5232 46.4498 68.5355L42.2267 69.0822C40.85 69.2599 39.5517 69.8987 38.5699 70.8798L37.4369 72.0128ZM33.8598 64.723C33.8598 62.2606 34.8183 59.9455 36.5595 58.2043C38.3571 56.4073 40.7177 55.5085 43.0782 55.5085C45.4394 55.5085 47.7999 56.4073 49.5969 58.2043C53.1909 61.7989 53.1909 67.6471 49.5969 71.2417C47.8557 72.9829 45.5406 73.9414 43.0782 73.9414C41.8941 73.9414 40.7443 73.7196 39.6755 73.2961L40.3312 72.6412C40.9258 72.0465 41.7125 71.66 42.5458 71.5517L46.8577 70.994C46.8946 70.9894 46.9316 70.9829 46.9679 70.9745C47.9932 70.7469 48.7714 69.9311 48.9497 68.8961L49.7778 64.1024C49.8719 63.5557 49.6942 62.9947 49.3012 62.6024L49.0068 62.3073C48.3401 61.6407 47.2552 61.6407 46.5879 62.3073L43.8117 65.0835C43.6735 65.2217 43.5127 65.2424 43.429 65.2424C43.3454 65.2424 43.1846 65.2217 43.0464 65.0835C42.835 64.8728 42.835 64.5291 43.0464 64.3183L45.8227 61.5421C46.4893 60.8748 46.4893 59.7899 45.8227 59.1232L45.5276 58.8288C45.1352 58.4358 44.5736 58.2581 44.0276 58.3528L39.2339 59.1803C38.1996 59.3593 37.3837 60.1368 37.1555 61.1621C37.1477 61.1984 37.1412 61.2354 37.136 61.2723L36.5783 65.5842C36.4707 66.4182 36.0835 67.2048 35.4888 67.7995L34.7029 68.5861C34.1503 67.3903 33.8598 66.079 33.8598 64.723V64.723Z" fill="#3DB562"/>
<path d="M81.5262 80.0072L78.571 62.7079C77.9958 59.3389 76.0607 56.4135 73.2163 54.5699L73.3344 52.6587C73.3999 51.6062 73.0231 50.5621 72.3007 49.7937C71.5782 49.0252 70.5588 48.5842 69.5043 48.5842H52.8483C52.4689 48.0868 52.1836 47.4189 52.0558 46.7399H54.7374C57.2036 46.7399 59.4915 45.7496 61.1796 43.9513C62.8676 42.1537 63.7113 39.8074 63.5557 37.3464L63.1043 30.2239C64.5226 29.4892 65.494 28.0067 65.494 26.3025V21.3693C65.494 19.6605 64.4901 18.1223 62.9993 17.3966V15.658C62.9993 15.1976 62.9791 14.7326 62.9389 14.2767C62.8793 13.5919 62.2762 13.0854 61.5901 13.1451C60.9052 13.2047 60.3988 13.8091 60.4584 14.4939C60.4922 14.8779 60.509 15.2695 60.509 15.658V18.2533V18.2974V22.2513C60.509 22.2578 60.509 22.272 60.4947 22.2863C60.4798 22.3012 60.4669 22.3019 60.4584 22.3006C59.1381 22.2869 58.6271 22.2707 58.4293 22.2604C58.4254 22.2604 58.4215 22.2604 58.4176 22.2597C58.4007 22.2591 58.3865 22.2578 58.3742 22.2571C44.7991 21.3803 39.1345 14.3766 38.1371 12.9816C37.7558 12.4479 37.095 12.1911 36.4549 12.3286C35.8135 12.4654 35.3155 12.97 35.1851 13.6133C34.0386 19.2863 30.2086 20.4932 27.8059 20.6709C27.8033 20.6709 27.8013 20.6709 27.7987 20.6709C27.741 20.6709 27.6846 20.6748 27.6295 20.6819C27.5763 20.6852 27.5238 20.6878 27.4726 20.6897C26.8111 20.715 26.1996 20.6073 25.6613 20.3719C25.6587 20.37 25.6483 20.3557 25.6483 20.333V18.2967C25.649 18.2818 25.649 18.2669 25.6483 18.2526V15.658C25.6483 8.39741 31.5555 2.49023 38.8161 2.49023H47.3419C52.2232 2.49023 56.6809 5.16983 58.9753 9.48364C59.2983 10.0913 60.0525 10.3215 60.6595 9.99855C61.2665 9.6756 61.4973 8.92139 61.1744 8.3144C58.4461 3.18607 53.146 0 47.3419 0H38.8161C30.182 0 23.1581 7.02389 23.1581 15.658V17.3966C21.6678 18.1216 20.664 19.6605 20.664 21.3693V26.3025C20.664 28.0067 21.6348 29.4885 23.053 30.2239L22.6023 37.3457C22.4467 39.8074 23.2904 42.1531 24.9784 43.9513C26.6658 45.7496 28.9537 46.7399 31.42 46.7399H34.1015C33.9738 47.4189 33.6891 48.0862 33.309 48.5842H16.6537C15.5985 48.5842 14.5798 49.0252 13.8573 49.793C13.1349 50.5615 12.7581 51.6062 12.823 52.6587L12.9416 54.5699C10.0973 56.4135 8.16221 59.3389 7.58635 62.7079L4.63179 80.0072C4.41908 81.251 4.76408 82.5175 5.57795 83.4825C6.39181 84.4468 7.58181 85 8.84379 85H77.3136C78.5755 85 79.7662 84.4468 80.58 83.4825C81.3939 82.5175 81.7383 81.251 81.5262 80.0072V80.0072ZM59.3638 42.2471C58.1517 43.5389 56.5084 44.2496 54.7374 44.2496H51.9826V42.1946C53.3224 41.1985 54.417 40.0766 55.2782 39.0292C55.3048 38.9968 55.3314 38.9644 55.3573 38.9326H58.9351C59.8171 38.9326 60.603 38.4962 61.0823 37.823C61.1063 39.4728 60.5025 41.0337 59.3638 42.2471V42.2471ZM59.6044 24.7811C59.8501 24.7843 60.1258 24.7882 60.4318 24.7915H60.4597C61.1329 24.7915 61.7665 24.5314 62.2463 24.0567C62.7321 23.5762 62.9993 22.9348 62.9993 22.2513V21.2442C63.0025 21.2857 63.0038 21.3272 63.0038 21.3693V26.3025C63.0038 27.1902 62.3987 27.9393 61.5797 28.1598C61.5382 28.1675 61.4973 28.1773 61.4571 28.1889C61.3346 28.2136 61.2087 28.2259 61.0797 28.2259H59.6044V24.7811ZM59.3884 31.0631L59.0791 36.3055C59.0745 36.3821 59.0116 36.4417 58.9351 36.4417H57.1012C58.2386 34.5507 58.9954 32.6513 59.3884 31.0631ZM29.0439 28.899V23.036C31.5944 22.6332 33.6716 21.4342 35.2325 19.4601C36.1942 18.2442 36.8038 16.9219 37.1903 15.7527C39.6099 18.4258 45.7025 23.6274 57.1141 24.6572V28.899C57.1141 29.0644 57.1362 29.2252 57.1783 29.3783C56.9669 31.1273 55.9579 33.8763 54.1252 36.4417H49.6934C49.1986 35.2128 47.9943 34.3425 46.5903 34.3425H44.1487C42.305 34.3425 40.805 35.8432 40.805 37.6868C40.805 39.5305 42.305 41.0305 44.1487 41.0305H46.5903C47.9943 41.0305 49.1986 40.1609 49.6934 38.932H51.9832C51.4164 39.4761 50.7789 40.0091 50.0682 40.4955C50.0474 40.5091 50.0273 40.5227 50.0079 40.537C48.1817 41.773 45.8802 42.6958 43.0787 42.6958C40.2772 42.6958 37.9756 41.773 36.1495 40.537C36.13 40.5227 36.1099 40.5091 36.0892 40.4955C34.7318 39.5662 33.6398 38.465 32.8032 37.4475C30.4803 34.6214 29.2183 31.3588 28.979 29.3783C29.0212 29.2259 29.0439 29.0651 29.0439 28.899V28.899ZM47.4437 37.6868C47.4437 38.1577 47.0605 38.5403 46.5903 38.5403H44.1487C43.6779 38.5403 43.2953 38.1577 43.2953 37.6868C43.2953 37.216 43.6779 36.8334 44.1487 36.8334H46.5903C47.0611 36.8334 47.4437 37.216 47.4437 37.6868ZM50.017 48.5842H36.1404C36.4763 47.76 36.6657 46.8566 36.6657 45.9779V43.7153C38.4808 44.6011 40.6131 45.1861 43.0787 45.1861C45.5449 45.1861 47.6765 44.6011 49.4923 43.7153V45.9779C49.4923 46.8566 49.681 47.76 50.017 48.5842V48.5842ZM24.7009 28.1889C24.6607 28.1773 24.6198 28.1675 24.5777 28.1598C23.7586 27.9393 23.1542 27.1902 23.1542 26.3018V21.3687C23.1542 21.202 23.1763 21.0386 23.2171 20.8823C23.3877 21.6618 23.9155 22.3252 24.6561 22.6501C25.2514 22.9115 25.887 23.0775 26.5536 23.1462V28.2259H25.0776C24.9486 28.2259 24.8228 28.2129 24.7009 28.1889ZM31.42 44.2496C29.6489 44.2496 28.0063 43.5382 26.7936 42.2471C25.5815 40.9559 24.9758 39.2711 25.0874 37.5033L25.5173 30.7161H26.6885C27.2093 33.0838 28.5867 36.24 30.8798 39.0292C31.7403 40.0759 32.835 41.1985 34.1754 42.1939V44.2496H31.42ZM10.17 82.5098H8.84379C8.3172 82.5098 7.82045 82.2789 7.48129 81.8762C7.14148 81.4741 6.99751 80.9456 7.08635 80.4261L10.0409 63.1268C10.4144 60.9414 11.5078 58.9913 13.1258 57.551L14.3696 77.6331H13.6556C11.6245 77.6331 9.97217 79.2854 9.97217 81.3165C9.97152 81.7342 10.0416 82.1356 10.17 82.5098V82.5098ZM72.5023 82.5098H13.6556C12.9974 82.5098 12.4618 81.9741 12.4618 81.3165C12.4618 80.6583 12.9974 80.1233 13.6556 80.1233H20.9629C21.651 80.1233 22.208 79.5656 22.208 78.8782C22.208 78.1901 21.651 77.6331 20.9629 77.6331H16.8644L15.3087 52.505C15.2853 52.1302 15.4144 51.7729 15.6718 51.4986C15.9286 51.2249 16.2775 51.0744 16.653 51.0744H69.5043C69.8798 51.0744 70.2287 51.2249 70.4855 51.4986C70.743 51.7729 70.872 52.1302 70.8487 52.505L69.2929 77.6331H26.6957C26.0076 77.6331 25.4505 78.1901 25.4505 78.8782C25.4505 79.5656 26.0076 80.1233 26.6957 80.1233H72.5023C73.1599 80.1233 73.6956 80.6583 73.6956 81.3165C73.6956 81.9748 73.1599 82.5098 72.5023 82.5098V82.5098ZM78.6767 81.8762C78.3369 82.2789 77.8401 82.5098 77.3136 82.5098H75.9874C76.1158 82.1356 76.1858 81.7342 76.1858 81.3165C76.1858 79.2854 74.5334 77.6331 72.5023 77.6331H71.7884L73.0315 57.551C74.6502 58.9907 75.7429 60.9414 76.1164 63.1268L79.0716 80.4261C79.1598 80.9456 79.0165 81.4741 78.6767 81.8762V81.8762Z" fill="#3DB562"/>
</g>
<defs>
<clipPath id="clip0_424:913">
<rect width="85" height="85" fill="white" transform="translate(0.585938)"/>
</clipPath>
</defs>
</svg>
