<svg width="87" height="85" fill="none" xmlns="http://www.w3.org/2000/svg"><path d="M19.891 18.091a1.245 1.245 0 0 0-1.743.245l-4.283 5.679-2.07-2.53a1.245 1.245 0 0 0-1.928 1.576l3.074 3.757c.237.29.59.457.964.457h.024c.382-.008.74-.19.97-.495l5.237-6.945a1.245 1.245 0 0 0-.245-1.744ZM19.891 33.142a1.245 1.245 0 0 0-1.743.245l-4.283 5.68-2.07-2.531a1.245 1.245 0 1 0-1.928 1.577l3.074 3.757c.237.289.59.456.964.456h.024c.382-.008.74-.19.97-.495l5.237-6.945a1.245 1.245 0 0 0-.245-1.744ZM19.891 48.194a1.245 1.245 0 0 0-1.743.244l-4.283 5.68-2.07-2.53a1.245 1.245 0 1 0-1.928 1.576l3.074 3.757c.237.29.59.457.964.457h.024c.382-.008.74-.19.97-.496l5.237-6.944a1.245 1.245 0 0 0-.245-1.744ZM57.145 24.074H30.197a1.245 1.245 0 0 0 0 2.49h26.948a1.245 1.245 0 0 0 0-2.49ZM57.145 34.09H30.197a1.245 1.245 0 1 0 0 2.49h26.948a1.245 1.245 0 0 0 0-2.49ZM57.145 39.028H30.197a1.245 1.245 0 0 0 0 2.49h26.948a1.245 1.245 0 0 0 0-2.49ZM57.145 49.044H30.197a1.245 1.245 0 1 0 0 2.49h26.948a1.245 1.245 0 0 0 0-2.49ZM57.145 63.997H30.197a1.245 1.245 0 1 0 0 2.49h26.948a1.245 1.245 0 0 0 0-2.49ZM57.145 68.936H30.197a1.245 1.245 0 0 0 0 2.49h26.948a1.245 1.245 0 0 0 0-2.49Z" fill="#3DB562"/><path d="M62.135 4.109h-4.432V1.245a1.245 1.245 0 1 0-2.49 0v2.863h-4.786V1.245a1.245 1.245 0 1 0-2.49 0v2.863h-4.786V1.245a1.245 1.245 0 1 0-2.49 0v2.863h-4.786V1.245a1.245 1.245 0 1 0-2.49 0v2.863h-4.787V1.245a1.245 1.245 0 1 0-2.49 0v2.863h-4.786V1.245a1.245 1.245 0 1 0-2.49 0v2.863h-4.787V1.245a1.245 1.245 0 1 0-2.49 0v2.863h-4.43a3.101 3.101 0 0 0-3.099 3.098v74.696A3.101 3.101 0 0 0 7.124 85h55.01a3.101 3.101 0 0 0 3.099-3.098V7.206a3.101 3.101 0 0 0-3.098-3.097Zm0 78.4H7.124a.608.608 0 0 1-.608-.607V7.206c0-.335.273-.608.608-.608h4.431v2.864a1.245 1.245 0 1 0 2.49 0V6.6h4.787v2.863a1.245 1.245 0 1 0 2.49 0V6.6h4.786v2.863a1.245 1.245 0 1 0 2.49 0V6.6h4.786v2.863a1.245 1.245 0 1 0 2.49 0V6.6h4.786v2.863a1.245 1.245 0 1 0 2.49 0V6.6h4.787v2.863a1.245 1.245 0 1 0 2.49 0V6.6h4.786v2.863a1.245 1.245 0 1 0 2.49 0V6.6h4.431c.335 0 .608.272.608.607v74.696a.608.608 0 0 1-.607.608ZM80.02 4.897h-5.726a2.957 2.957 0 0 0-2.953 2.953V71.685l4.257 11.448a1.65 1.65 0 0 0 1.56 1.084 1.65 1.65 0 0 0 1.56-1.084l4.256-11.448V7.85a2.957 2.957 0 0 0-2.954-2.953Zm-2.862 75.286-3.002-8.073a8.387 8.387 0 0 1 6.003 0l-3.002 8.073Zm3.326-10.598a10.866 10.866 0 0 0-6.653 0V18.524h6.653v51.061Zm0-53.551H73.83V7.85c0-.255.208-.463.463-.463h5.727c.255 0 .463.208.463.463v8.183Z" fill="#3DB562"/><path d="M57.147 19.08H39.293a1.245 1.245 0 0 0 0 2.49h17.854a1.245 1.245 0 0 0 0-2.49ZM33.499 19.08h-3.3a1.245 1.245 0 1 0 0 2.49h3.3a1.245 1.245 0 0 0 0-2.49ZM57.145 53.982h-3.301a1.245 1.245 0 1 0 0 2.49h3.3a1.245 1.245 0 1 0 0-2.49ZM48.052 53.982H30.198a1.245 1.245 0 1 0 0 2.49h17.854a1.245 1.245 0 1 0 0-2.49Z" fill="#3DB562"/></svg>