<svg width="522" height="426" viewBox="0 0 522 426" fill="none" xmlns="http://www.w3.org/2000/svg">
<g clip-path="url(#clip0)">
<path d="M98.0555 155.75C98.2336 157.93 95.9626 159.959 95.5885 162.012C95.2014 164.137 96.5896 166.836 95.6841 168.742C94.7656 170.676 91.7875 171.303 90.4106 172.924C89.0338 174.545 88.8937 177.585 87.1338 178.804C85.399 180.005 82.5129 179.069 80.4787 179.794C78.5129 180.494 76.8772 183.06 74.6988 183.239C72.5204 183.417 70.4916 181.145 68.4391 180.771C66.3148 180.384 63.6163 181.772 61.711 180.867C59.7778 179.948 59.1502 176.969 57.53 175.591C55.9097 174.214 52.8698 174.074 51.652 172.314C50.4515 170.578 51.3867 167.691 50.6623 165.657C49.9623 163.69 47.3968 162.054 47.2187 159.875C47.0406 157.696 49.3116 155.666 49.6856 153.613C50.0727 151.488 48.6846 148.79 49.59 146.883C50.5085 144.949 53.4867 144.322 54.8635 142.701C56.2404 141.081 56.3805 138.04 58.1403 136.822C59.8746 135.621 62.7613 136.556 64.7954 135.832C66.7612 135.131 68.397 132.565 70.5754 132.387C72.7537 132.209 74.7825 134.48 76.835 134.855C78.9594 135.242 81.6573 133.853 83.5632 134.759C85.4963 135.678 86.1239 138.657 87.7436 140.034C89.3633 141.411 92.4038 141.552 93.6215 143.312C94.822 145.047 93.8869 147.934 94.6113 149.969C95.3125 151.935 97.8785 153.571 98.0555 155.75Z" fill="#0F1011"/>
<path d="M63.019 181.374C63.019 181.374 67.6121 178.943 66.598 166.436L76.0852 164.686C76.0852 164.686 75.0094 175.896 79.8055 179.46L63.019 181.374Z" fill="#EDA59F"/>
<g opacity="0.15">
<path opacity="0.15" d="M77.864 177.115L69.9888 171.077L76.1784 171.018C76.3555 173.138 76.9271 175.206 77.864 177.115Z" fill="#363636"/>
</g>
<path d="M61.2206 161.583C61.8737 165.377 63.9404 168.972 67.2849 170.2C70.9307 171.652 74.8762 172.189 78.7771 171.764C89.162 170.922 87.1285 147.301 82.2029 142.709C77.2774 138.117 62.8052 141.01 61.0389 148.681C60.1245 152.649 60.5989 157.97 61.2206 161.583Z" fill="#EDA59F"/>
<path d="M76.0779 158.673C76.553 158.673 76.9382 158.288 76.9382 157.812C76.9382 157.337 76.553 156.952 76.0779 156.952C75.6027 156.952 75.2175 157.337 75.2175 157.812C75.2175 158.288 75.6027 158.673 76.0779 158.673Z" fill="#0F1011"/>
<path d="M82.8654 158.123C83.3406 158.123 83.7257 157.737 83.7257 157.262C83.7257 156.787 83.3406 156.401 82.8654 156.401C82.3903 156.401 82.0051 156.787 82.0051 157.262C82.0051 157.737 82.3903 158.123 82.8654 158.123Z" fill="#0F1011"/>
<path d="M84.3581 155.427H84.3528L82.0741 155.396C81.9669 155.395 81.8647 155.351 81.7899 155.274C81.7151 155.197 81.6738 155.094 81.6751 154.987C81.6751 154.933 81.6857 154.881 81.7064 154.831C81.7272 154.782 81.7575 154.738 81.7957 154.701C81.8339 154.664 81.8792 154.634 81.9288 154.615C81.9785 154.596 82.0315 154.587 82.0848 154.588L84.3635 154.618C84.468 154.623 84.5666 154.668 84.6386 154.744C84.7107 154.82 84.7506 154.92 84.7499 155.025C84.7492 155.13 84.708 155.23 84.6349 155.305C84.5619 155.38 84.4627 155.423 84.3581 155.427Z" fill="#0F1011"/>
<path d="M74.2231 156.252C74.1243 156.252 74.0289 156.215 73.9551 156.15C73.8813 156.084 73.8341 155.993 73.8226 155.895C73.811 155.797 73.8359 155.698 73.8924 155.617C73.9489 155.535 74.0332 155.478 74.1293 155.455L76.3772 154.915C76.4815 154.89 76.5914 154.908 76.6828 154.964C76.7741 155.02 76.8394 155.111 76.8643 155.215C76.8892 155.319 76.8716 155.429 76.8154 155.521C76.7593 155.612 76.6691 155.677 76.5648 155.702L74.3175 156.241C74.2866 156.248 74.2549 156.252 74.2231 156.252Z" fill="#0F1011"/>
<path d="M76.4722 164.59C76.4722 164.59 79.6474 164.928 81.8751 164.152C81.8751 164.152 81.8555 166.244 79.3423 166.448C76.829 166.652 76.4722 164.59 76.4722 164.59Z" fill="white"/>
<path d="M68.2194 151.758C68.8423 160.651 67.8635 169.584 65.3298 178.132C65.3298 178.132 58.0875 165.642 56.9683 155.248C55.9186 145.502 63.1027 139.754 67.9523 138.674C86.3887 134.567 87.7151 148.038 87.7151 148.038C84.3564 155.025 66.2221 154.994 66.2221 154.994" fill="#0F1011"/>
<path d="M71.7307 161.518C71.7974 162.476 71.4837 163.421 70.8578 164.15C70.2318 164.878 69.344 165.33 68.3871 165.407C67.4301 165.485 66.4812 165.182 65.7461 164.564C65.011 163.947 64.5491 163.064 64.4605 162.107C64.4135 161.628 64.4633 161.145 64.6071 160.685C64.7508 160.226 64.9855 159.8 65.2972 159.433C65.6088 159.066 65.9911 158.766 66.4212 158.55C66.8514 158.334 67.3205 158.207 67.8008 158.176C70.4002 158.094 71.5681 159.509 71.7307 161.518Z" fill="#EDA59F"/>
<g opacity="0.15">
<path opacity="0.15" d="M79.8932 162.589C79.8221 162.589 79.7534 162.563 79.6994 162.517C79.6455 162.471 79.6101 162.406 79.5995 162.336C79.5889 162.266 79.6039 162.194 79.6418 162.134C79.6797 162.073 79.738 162.029 79.806 162.008L81.5563 161.473L80.335 158.746C80.3176 158.71 80.3076 158.672 80.3055 158.632C80.3034 158.592 80.3093 158.552 80.3229 158.515C80.3364 158.478 80.3574 158.443 80.3845 158.414C80.4115 158.385 80.4442 158.362 80.4805 158.345C80.5167 158.329 80.5559 158.32 80.5957 158.319C80.6354 158.319 80.6749 158.326 80.7119 158.34C80.7488 158.355 80.7824 158.377 80.8107 158.405C80.839 158.433 80.8613 158.467 80.8765 158.503L82.2355 161.538C82.2528 161.576 82.2616 161.618 82.2616 161.66C82.2615 161.702 82.2524 161.744 82.235 161.782C82.2176 161.82 82.1922 161.855 82.1606 161.882C82.1289 161.91 82.0917 161.931 82.0515 161.943L79.9799 162.578C79.9517 162.586 79.9225 162.589 79.8932 162.589Z" fill="#363636"/>
</g>
<path d="M522 426H0C5.71998 411.41 16.2824 399.032 31.1707 395.36C52.9523 389.996 76.0038 404.744 97.7372 399.2C110.087 396.052 119.806 386.879 130.021 379.262C168.559 350.521 221.366 342.029 266.972 357.237C290.807 365.185 312.526 379.083 336.943 384.995C368.517 392.639 401.536 386.302 434.005 385.254C465.625 384.238 510.935 397.127 522 426Z" fill="#F3F5FD"/>
<path d="M493.407 0H124.65V267.133H493.407V0Z" fill="#DEE8F5"/>
<path d="M493.407 0H124.65V22.005H493.407V0Z" fill="#C1D8ED"/>
<path d="M481.056 16.5239C484.104 16.5239 486.575 14.0521 486.575 11.0029C486.575 7.95376 484.104 5.48193 481.056 5.48193C478.008 5.48193 475.537 7.95376 475.537 11.0029C475.537 14.0521 478.008 16.5239 481.056 16.5239Z" fill="white"/>
<path d="M470.873 154.039H316.971V246.483H470.873V154.039Z" fill="#C1D8ED"/>
<path d="M347.418 212.027H332.223V231.711H347.418V212.027Z" fill="#26ad50"/>
<path d="M428.135 194.311H412.941V231.711H428.135V194.311Z" fill="#26ad50"/>
<path d="M374.324 195.557H359.129V231.711H374.324V195.557Z" fill="#26ad50"/>
<path d="M401.229 213.011H386.035V231.712H401.229V213.011Z" fill="#26ad50"/>
<path d="M455.041 177.221H439.847V231.711H455.041V177.221Z" fill="#26ad50"/>
<path d="M298.709 154.039H144.807V246.483H298.709V154.039Z" fill="#C1D8ED"/>
<path d="M175.254 181.779H160.059V231.711H175.254V181.779Z" fill="#F2C94C"/>
<path d="M255.971 200.261H240.776V231.711H255.971V200.261Z" fill="#26ad50"/>
<path d="M202.16 213.011H186.965V231.711H202.16V213.011Z" fill="#26ad50"/>
<path d="M229.065 186.586H213.87V231.712H229.065V186.586Z" fill="#F2C94C"/>
<path d="M282.877 194.314H267.682V231.711H282.877V194.314Z" fill="#F2C94C"/>
<path d="M470.873 43.2168H316.971V135.661H470.873V43.2168Z" fill="#C1D8ED"/>
<path d="M347.418 78.187H332.223V120.89H347.418V78.187Z" fill="#26ad50"/>
<path d="M428.135 83.4888H412.941V120.89H428.135V83.4888Z" fill="#F2C94C"/>
<path d="M374.324 66.8887H359.129V120.89H374.324V66.8887Z" fill="#26ad50"/>
<path d="M401.229 90.8501H386.035V120.89H401.229V90.8501Z" fill="#26ad50"/>
<path d="M455.041 75.583H439.847V120.89H455.041V75.583Z" fill="#EB5757"/>
<path d="M298.709 43.2168H144.807V135.661H298.709V43.2168Z" fill="#C1D8ED"/>
<path d="M175.254 95.8521H160.059V120.89H175.254V95.8521Z" fill="#EB5757"/>
<path d="M255.971 66.8887H240.776V120.89H255.971V66.8887Z" fill="#26ad50"/>
<path d="M202.16 66.8887H186.965V120.89H202.16V66.8887Z" fill="#26ad50"/>
<path d="M229.065 78.187H213.87V120.89H229.065V78.187Z" fill="#F2C94C"/>
<path d="M282.877 102.189H267.682V120.89H282.877V102.189Z" fill="#EB5757"/>
<path d="M101.829 419.574L89.447 418.101C90.0045 413.414 90.6345 407.783 90.6778 406.86C90.6778 406.919 90.6778 406.967 90.6778 407.005H103.146C103.143 407.379 103.143 408.517 101.829 419.574Z" fill="#EDA59F"/>
<path d="M52.1477 421.066L39.6794 421.025C39.6794 421.025 39.721 408.146 39.721 407.005H52.1893C52.1887 408.149 52.1477 421.066 52.1477 421.066Z" fill="#EDA59F"/>
<path d="M84.4633 415.636L106.428 415.262C105.396 389.111 105.333 361.68 105.012 335.466C100.724 307.212 98.4664 276.184 93.1751 248.132L47.3838 245.879C47.3838 245.879 46.0776 264.366 45.6264 271.745C43.4254 307.546 39.1494 373.867 36.4663 414.928L58.3559 416.778C62.3 376.52 68.4035 317.859 72.1577 275.567C76.4688 296.157 79.4012 317.477 83.15 337.891C83.8993 363.445 84.534 390.159 84.4633 415.636Z" fill="#55AFFC"/>
<path d="M67.3046 425.89C67.6399 425.888 67.9712 425.817 68.278 425.682C68.5847 425.546 68.8602 425.349 69.0873 425.102C69.3144 424.856 69.4882 424.565 69.5979 424.248C69.7075 423.931 69.7507 423.595 69.7246 423.26C69.6886 422.797 69.521 422.353 69.2414 421.982C68.9618 421.61 68.5819 421.327 68.1465 421.164L53.634 416.302C53.3529 416.209 53.055 416.178 52.7607 416.21C52.4664 416.243 52.1826 416.339 51.9288 416.492C49.9339 417.877 47.5472 418.584 45.12 418.511C43.2296 418.376 41.4151 417.713 39.8833 416.597C39.7486 416.487 39.5853 416.417 39.4125 416.396C39.2396 416.375 39.0643 416.403 38.9069 416.478C38.7496 416.552 38.6168 416.67 38.5239 416.818C38.431 416.965 38.3819 417.136 38.3823 417.31V424.408C38.3823 424.618 38.4237 424.825 38.504 425.019C38.5843 425.212 38.702 425.388 38.8503 425.535C38.9987 425.683 39.1747 425.8 39.3684 425.88C39.562 425.959 39.7695 426 39.9789 425.999L67.3046 425.89Z" fill="#C1D8ED"/>
<path d="M117.02 425.89C117.355 425.888 117.686 425.817 117.993 425.682C118.3 425.547 118.575 425.349 118.802 425.103C119.029 424.856 119.203 424.565 119.313 424.248C119.423 423.931 119.466 423.595 119.44 423.261C119.404 422.797 119.236 422.353 118.956 421.982C118.677 421.61 118.297 421.327 117.861 421.164L103.349 416.302C103.068 416.209 102.77 416.178 102.476 416.21C102.181 416.243 101.898 416.339 101.644 416.492C99.6488 417.876 97.2622 418.584 94.835 418.511C92.9445 418.377 91.1298 417.713 89.5978 416.597C89.4632 416.487 89.2999 416.417 89.1271 416.396C88.9542 416.374 88.7789 416.403 88.6216 416.478C88.4643 416.552 88.3314 416.67 88.2386 416.818C88.1458 416.965 88.0968 417.136 88.0974 417.31V424.409C88.0973 424.618 88.1386 424.825 88.2189 425.019C88.2992 425.212 88.4169 425.388 88.5652 425.536C88.7136 425.683 88.8897 425.801 89.0834 425.88C89.2771 425.96 89.4846 426 89.694 425.999L117.02 425.89Z" fill="#C1D8ED"/>
<path d="M125.897 181.389C125.897 181.389 125.986 174.256 131.083 174.627C134.299 174.861 149.578 174.152 149.806 175.544C150.368 178.988 136.392 179.831 135.124 183.041L125.897 181.389Z" fill="#EDA59F"/>
<path d="M129.278 174.855C129.278 174.855 136.373 172.543 138.116 172.955C139.66 173.322 136.442 175.835 136.442 175.835L129.278 174.855Z" fill="#EDA59F"/>
<path d="M96.0357 246.72C93.5486 252.439 47.7496 254.815 47.0965 244.754C46.6809 238.352 52.2744 232.763 52.2744 220.285C52.2744 207.807 40.7721 194.884 50.1233 185.53C52.8367 182.816 54.511 178.052 60.2227 178.047C60.6501 181.379 80.8725 181.391 81.0269 178.124C81.7987 178.136 82.3984 178.148 82.7724 178.166C102.472 179.015 91.9598 201.441 91.7698 217.916C91.5383 237.194 98.6012 240.83 96.0357 246.72Z" fill="white"/>
<path d="M81.0269 178.124C80.8725 181.39 79.0973 186.195 73.6172 186.557C66.3143 187.038 60.6501 181.378 60.2227 178.046H60.2405C67.4305 178.046 76.8352 178.058 81.0269 178.124Z" fill="#EDA59F"/>
<path d="M125.298 177.223L112.588 200.961L93.0178 181.864C91.2515 179.621 88.4681 178.223 84.2122 178.036C83.8886 178.022 80.5501 177.918 80.353 178.115C79.1596 179.309 78.5011 200.342 79.0949 212.028C79.7432 224.678 79.0765 240.476 79.6797 249.558C79.7187 250.154 79.8809 250.736 80.1561 251.266C80.4313 251.796 80.8135 252.263 81.2786 252.638C81.7436 253.013 82.2814 253.287 82.8578 253.443C83.4342 253.599 84.0367 253.634 84.6272 253.545C91.0288 252.566 96.0209 250.898 96.7488 249.225C99.3131 243.334 93.3942 237.192 93.6258 217.913C93.6852 212.725 94.5657 206.926 95.1802 201.395L109.816 215.678C110.508 216.353 111.347 216.858 112.268 217.153C113.188 217.448 114.165 217.524 115.12 217.377C116.075 217.23 116.983 216.862 117.772 216.303C118.56 215.745 119.209 215.01 119.665 214.158L136.289 183.108L125.298 177.223Z" fill="#2F3235"/>
<path d="M106.515 222.293L73.4248 223.303L66.3315 208.463C65.1874 197.092 63.6722 187.402 62.977 182.319C62.0864 177.611 62.5613 177.944 60.3277 177.942C54.6161 177.948 49.8265 179.805 47.1131 182.519C37.7619 191.873 49.2387 207.814 49.2387 220.286C49.2387 232.758 43.5983 238.353 44.0139 244.755C44.2698 248.754 46.3134 253.813 61.7212 254.897C62.9688 254.984 64.2024 254.59 65.1674 253.794C66.1325 252.998 66.7553 251.862 66.9074 250.621C67.4574 245.819 67.7456 240.992 67.7707 236.159C68.302 236.301 68.8493 236.375 69.3993 236.378C69.4652 236.378 69.5317 236.378 69.5976 236.378L106.906 235.24L106.515 222.293Z" fill="#2F3235"/>
<path d="M58.7491 192.145L60.2216 187.316L57.3835 185.457L59.7169 177.956C61.1443 177.897 62.574 177.927 63.9977 178.045C65.3989 182.731 66.907 202.853 67.4532 210.71L58.7491 192.145Z" fill="#2F3235"/>
<path d="M83.3294 187.319L85.5262 194.523L79.1792 213.873C79.1792 213.873 77.9146 184.64 79.5948 178.09C80.187 178.01 80.7833 177.965 81.3808 177.955C82.6003 177.939 83.8536 178.021 83.8536 178.021L86.1692 185.46L83.3294 187.319Z" fill="#2F3235"/>
<g opacity="0.24">
<path opacity="0.24" d="M58.7491 192.145L60.2216 187.316L57.3835 185.457L59.7169 177.956C61.1443 177.897 62.574 177.927 63.9977 178.045C65.3989 182.731 66.907 202.853 67.4532 210.71L58.7491 192.145Z" fill="white"/>
</g>
<g opacity="0.24">
<path opacity="0.24" d="M83.3294 187.319L85.5262 194.523L79.1792 213.873C79.1792 213.873 77.9146 184.64 79.5948 178.09C80.187 178.01 80.7833 177.965 81.3808 177.955C82.6003 177.939 83.8536 178.021 83.8536 178.021L86.1692 185.46L83.3294 187.319Z" fill="white"/>
</g>
<path d="M103.85 191.417L96.6413 221.691C96.5292 222.162 96.5253 222.653 96.6297 223.125C96.7341 223.598 96.9441 224.041 97.2441 224.421C97.544 224.801 97.9261 225.108 98.3617 225.319C98.7972 225.531 99.2749 225.641 99.7589 225.641H142.26C142.963 225.641 143.645 225.41 144.204 224.984C144.762 224.558 145.165 223.96 145.351 223.283L153.657 193.011C153.787 192.535 153.806 192.035 153.712 191.551C153.618 191.067 153.414 190.611 153.115 190.218C152.816 189.826 152.43 189.508 151.988 189.289C151.546 189.07 151.059 188.956 150.566 188.956H106.969C106.248 188.956 105.548 189.199 104.982 189.645C104.417 190.092 104.018 190.716 103.85 191.417Z" fill="#9EBCEA"/>
<path d="M132.88 221.873H81.5107C80.4706 221.873 79.6274 222.716 79.6274 223.756C79.6274 224.797 80.4706 225.64 81.5107 225.64H132.88C133.92 225.64 134.763 224.797 134.763 223.756C134.763 222.716 133.92 221.873 132.88 221.873Z" fill="#9EBCEA"/>
<path d="M126.89 212.027C129.666 212.027 131.917 209.776 131.917 206.999C131.917 204.222 129.666 201.971 126.89 201.971C124.114 201.971 121.864 204.222 121.864 206.999C121.864 209.776 124.114 212.027 126.89 212.027Z" fill="#26ad50"/>
<path d="M117.21 229.614C114.544 231.259 110.418 232.037 106.82 232.322L106.617 225.765C108.31 225.718 110.91 225.54 113.457 225.641C114.608 224.702 115.271 224.422 116.452 223.241C117.71 221.983 121.01 221.228 121.633 223.241C122.257 225.255 119.549 228.165 117.21 229.614Z" fill="#EDA59F"/>
<path d="M481.056 334.375C497.798 334.375 511.37 320.798 511.37 304.051C511.37 287.304 497.798 273.728 481.056 273.728C464.314 273.728 450.742 287.304 450.742 304.051C450.742 320.798 464.314 334.375 481.056 334.375Z" fill="#FEC80A"/>
<path d="M509.647 410.569H451.453C448.662 410.569 446.399 412.833 446.399 415.625V420.944C446.399 423.737 448.662 426 451.453 426H509.647C512.439 426 514.702 423.737 514.702 420.944V415.625C514.702 412.833 512.439 410.569 509.647 410.569Z" fill="#FEC80A"/>
<path d="M500.588 395.138H442.394C439.602 395.138 437.339 397.402 437.339 400.194V405.513C437.339 408.305 439.602 410.569 442.394 410.569H500.588C503.379 410.569 505.642 408.305 505.642 405.513V400.194C505.642 397.402 503.379 395.138 500.588 395.138Z" fill="#FEC80A"/>
<path d="M509.647 379.707H451.453C448.662 379.707 446.399 381.97 446.399 384.762V390.082C446.399 392.874 448.662 395.137 451.453 395.137H509.647C512.439 395.137 514.702 392.874 514.702 390.082V384.762C514.702 381.97 512.439 379.707 509.647 379.707Z" fill="#FEC80A"/>
<path d="M505.118 364.556H446.924C444.132 364.556 441.869 366.82 441.869 369.612V374.931C441.869 377.724 444.132 379.987 446.924 379.987H505.118C507.909 379.987 510.172 377.724 510.172 374.931V369.612C510.172 366.82 507.909 364.556 505.118 364.556Z" fill="#FEC80A"/>
<path d="M496.057 349.125H437.863C435.072 349.125 432.809 351.388 432.809 354.18V359.5C432.809 362.292 435.072 364.555 437.863 364.555H496.057C498.849 364.555 501.112 362.292 501.112 359.5V354.18C501.112 351.388 498.849 349.125 496.057 349.125Z" fill="#FEC80A"/>
<path d="M505.118 333.693H446.924C444.132 333.693 441.869 335.957 441.869 338.749V344.068C441.869 346.861 444.132 349.124 446.924 349.124H505.118C507.909 349.124 510.172 346.861 510.172 344.068V338.749C510.172 335.957 507.909 333.693 505.118 333.693Z" fill="#FEC80A"/>
<path d="M170.945 56H168.555L166.105 52.3496C166.059 52.2793 165.984 52.125 165.883 51.8867H165.854V56H163.961V47.5977H165.854V51.5703H165.883C165.93 51.4609 166.008 51.3047 166.117 51.1016L168.438 47.5977H170.693L167.764 51.6055L170.945 56ZM173.447 55.3027H173.424V58.7598H171.572V50H173.424V50.9023H173.447C173.904 50.2031 174.547 49.8535 175.375 49.8535C176.152 49.8535 176.752 50.1211 177.174 50.6562C177.6 51.1875 177.812 51.9121 177.812 52.8301C177.812 53.8301 177.564 54.6328 177.068 55.2383C176.576 55.8438 175.92 56.1465 175.1 56.1465C174.377 56.1465 173.826 55.8652 173.447 55.3027ZM173.395 52.8418V53.3223C173.395 53.7363 173.504 54.0742 173.723 54.3359C173.941 54.5977 174.229 54.7285 174.584 54.7285C175.006 54.7285 175.332 54.5664 175.562 54.2422C175.797 53.9141 175.914 53.4512 175.914 52.8535C175.914 51.7988 175.504 51.2715 174.684 51.2715C174.305 51.2715 173.994 51.416 173.752 51.7051C173.514 51.9902 173.395 52.3691 173.395 52.8418ZM184.404 53.5273H180.49C180.553 54.3984 181.102 54.834 182.137 54.834C182.797 54.834 183.377 54.6777 183.877 54.3652V55.7012C183.322 55.998 182.602 56.1465 181.715 56.1465C180.746 56.1465 179.994 55.8789 179.459 55.3438C178.924 54.8047 178.656 54.0547 178.656 53.0938C178.656 52.0977 178.945 51.3086 179.523 50.7266C180.102 50.1445 180.812 49.8535 181.656 49.8535C182.531 49.8535 183.207 50.1133 183.684 50.6328C184.164 51.1523 184.404 51.8574 184.404 52.748V53.5273ZM182.688 52.3906C182.688 51.5312 182.34 51.1016 181.645 51.1016C181.348 51.1016 181.09 51.2246 180.871 51.4707C180.656 51.7168 180.525 52.0234 180.479 52.3906H182.688ZM191.869 58.1855H190.357V56H186.32V58.1855H184.832V54.6934H185.365C186.213 53.3652 186.66 51.8008 186.707 50H190.92V54.6934H191.869V58.1855ZM189.068 54.6934V51.2949H188.148C188.059 52.5605 187.73 53.6934 187.164 54.6934H189.068ZM198.912 56H197.23V52.0742C197.078 52.3828 196.914 52.668 196.738 52.9297L194.699 56H192.947V50H194.641V53.8027C194.766 53.541 194.902 53.2969 195.051 53.0703L197.09 50H198.912V56ZM204.971 51.4062H203.365V56H201.502V51.4062H199.885V50H204.971V51.4062ZM211.727 56H209.869V53.4922H207.795V56H205.943V50H207.795V52.2207H209.869V50H211.727V56ZM218.283 56H216.531V55.1387H216.508C216.105 55.8105 215.51 56.1465 214.721 56.1465C214.139 56.1465 213.68 55.9824 213.344 55.6543C213.012 55.3223 212.846 54.8809 212.846 54.3301C212.846 53.166 213.535 52.4941 214.914 52.3145L216.543 52.0977C216.543 51.4414 216.188 51.1133 215.477 51.1133C214.762 51.1133 214.082 51.3262 213.438 51.752V50.3574C213.695 50.2246 214.047 50.1074 214.492 50.0059C214.941 49.9043 215.35 49.8535 215.717 49.8535C217.428 49.8535 218.283 50.707 218.283 52.4141V56ZM216.543 53.5625V53.1582L215.453 53.2988C214.852 53.377 214.551 53.6484 214.551 54.1133C214.551 54.3242 214.623 54.498 214.768 54.6348C214.916 54.7676 215.115 54.834 215.365 54.834C215.713 54.834 215.996 54.7148 216.215 54.4766C216.434 54.2344 216.543 53.9297 216.543 53.5625ZM225.016 56H223.182V53.7559H222.76C222.436 53.7559 222.141 54.043 221.875 54.6172L221.236 56H219.174L220.047 54.2949C220.312 53.7793 220.686 53.4512 221.166 53.3105C220.166 53.1387 219.666 52.6191 219.666 51.752C219.666 50.584 220.521 50 222.232 50H225.016V56ZM223.182 52.6543V51.1777H222.484C221.844 51.1777 221.523 51.4219 221.523 51.9102C221.523 52.4062 221.844 52.6543 222.484 52.6543H223.182ZM235.85 56H234.168V52.0742C234.016 52.3828 233.852 52.668 233.676 52.9297L231.637 56H229.885V50H231.578V53.8027C231.703 53.541 231.84 53.2969 231.988 53.0703L234.027 50H235.85V56ZM241.967 55.7832C241.549 56.0254 240.945 56.1465 240.156 56.1465C239.234 56.1465 238.488 55.8672 237.918 55.3086C237.348 54.75 237.062 54.0293 237.062 53.1465C237.062 52.127 237.367 51.3242 237.977 50.7383C238.59 50.1484 239.408 49.8535 240.432 49.8535C241.139 49.8535 241.65 49.9473 241.967 50.1348V51.7051C241.58 51.416 241.148 51.2715 240.672 51.2715C240.141 51.2715 239.719 51.4277 239.406 51.7402C239.098 52.0488 238.943 52.4766 238.943 53.0234C238.943 53.5547 239.092 53.9727 239.389 54.2773C239.686 54.5781 240.094 54.7285 240.613 54.7285C241.074 54.7285 241.525 54.584 241.967 54.2949V55.7832ZM247.674 51.4062H246.068V56H244.205V51.4062H242.588V50H247.674V51.4062ZM251.33 56.1465C250.33 56.1465 249.543 55.8672 248.969 55.3086C248.398 54.7461 248.113 53.9844 248.113 53.0234C248.113 52.0312 248.41 51.2559 249.004 50.6973C249.598 50.1348 250.4 49.8535 251.412 49.8535C252.408 49.8535 253.189 50.1348 253.756 50.6973C254.322 51.2559 254.605 51.9961 254.605 52.918C254.605 53.9141 254.312 54.7012 253.727 55.2793C253.145 55.8574 252.346 56.1465 251.33 56.1465ZM251.377 51.2715C250.939 51.2715 250.6 51.4219 250.357 51.7227C250.115 52.0234 249.994 52.4492 249.994 53C249.994 54.1523 250.459 54.7285 251.389 54.7285C252.275 54.7285 252.719 54.1367 252.719 52.9531C252.719 51.832 252.271 51.2715 251.377 51.2715ZM257.682 55.3027H257.658V58.7598H255.807V50H257.658V50.9023H257.682C258.139 50.2031 258.781 49.8535 259.609 49.8535C260.387 49.8535 260.986 50.1211 261.408 50.6562C261.834 51.1875 262.047 51.9121 262.047 52.8301C262.047 53.8301 261.799 54.6328 261.303 55.2383C260.811 55.8438 260.154 56.1465 259.334 56.1465C258.611 56.1465 258.061 55.8652 257.682 55.3027ZM257.629 52.8418V53.3223C257.629 53.7363 257.738 54.0742 257.957 54.3359C258.176 54.5977 258.463 54.7285 258.818 54.7285C259.24 54.7285 259.566 54.5664 259.797 54.2422C260.031 53.9141 260.148 53.4512 260.148 52.8535C260.148 51.7988 259.738 51.2715 258.918 51.2715C258.539 51.2715 258.229 51.416 257.986 51.7051C257.748 51.9902 257.629 52.3691 257.629 52.8418ZM269.213 56H267.531V52.0742C267.379 52.3828 267.215 52.668 267.039 52.9297L265 56H263.248V50H264.941V53.8027C265.066 53.541 265.203 53.2969 265.352 53.0703L267.391 50H269.213V56ZM276.051 56H274.217V53.7559H273.795C273.471 53.7559 273.176 54.043 272.91 54.6172L272.271 56H270.209L271.082 54.2949C271.348 53.7793 271.721 53.4512 272.201 53.3105C271.201 53.1387 270.701 52.6191 270.701 51.752C270.701 50.584 271.557 50 273.268 50H276.051V56ZM274.217 52.6543V51.1777H273.52C272.879 51.1777 272.559 51.4219 272.559 51.9102C272.559 52.4062 272.879 52.6543 273.52 52.6543H274.217Z" fill="#26ad50"/>
<path d="M156.953 164.086V165.047H155.113V164.086H154.914C153.84 164.086 152.986 163.77 152.354 163.137C151.725 162.5 151.41 161.678 151.41 160.67C151.41 159.686 151.719 158.895 152.336 158.297C152.957 157.695 153.809 157.395 154.891 157.395H155.113V156.434H156.953V157.395H157.17C158.26 157.395 159.113 157.693 159.73 158.291C160.352 158.889 160.662 159.682 160.662 160.67C160.662 161.678 160.346 162.5 159.713 163.137C159.08 163.77 158.225 164.086 157.146 164.086H156.953ZM156.953 158.807V162.65H157.035C157.559 162.65 157.969 162.475 158.266 162.123C158.566 161.768 158.717 161.299 158.717 160.717C158.717 160.135 158.566 159.672 158.266 159.328C157.969 158.98 157.562 158.807 157.047 158.807H156.953ZM155.113 162.65V158.807H155.008C154.5 158.807 154.096 158.98 153.795 159.328C153.498 159.676 153.35 160.139 153.35 160.717C153.35 161.303 153.496 161.771 153.789 162.123C154.086 162.475 154.496 162.65 155.02 162.65H155.113ZM167.811 165H166.129V161.074C165.977 161.383 165.812 161.668 165.637 161.93L163.598 165H161.846V159H163.539V162.803C163.664 162.541 163.801 162.297 163.949 162.07L165.988 159H167.811V165ZM175.164 165H173.307V162.492H171.232V165H169.381V159H171.232V161.221H173.307V159H175.164V165ZM181.721 165H179.969V164.139H179.945C179.543 164.811 178.947 165.146 178.158 165.146C177.576 165.146 177.117 164.982 176.781 164.654C176.449 164.322 176.283 163.881 176.283 163.33C176.283 162.166 176.973 161.494 178.352 161.314L179.98 161.098C179.98 160.441 179.625 160.113 178.914 160.113C178.199 160.113 177.52 160.326 176.875 160.752V159.357C177.133 159.225 177.484 159.107 177.93 159.006C178.379 158.904 178.787 158.854 179.154 158.854C180.865 158.854 181.721 159.707 181.721 161.414V165ZM179.98 162.562V162.158L178.891 162.299C178.289 162.377 177.988 162.648 177.988 163.113C177.988 163.324 178.061 163.498 178.205 163.635C178.354 163.768 178.553 163.834 178.803 163.834C179.15 163.834 179.434 163.715 179.652 163.477C179.871 163.234 179.98 162.93 179.98 162.562ZM188.969 165H187.111V162.492H185.037V165H183.186V159H185.037V161.221H187.111V159H188.969V165ZM195.08 164.783C194.662 165.025 194.059 165.146 193.27 165.146C192.348 165.146 191.602 164.867 191.031 164.309C190.461 163.75 190.176 163.029 190.176 162.146C190.176 161.127 190.48 160.324 191.09 159.738C191.703 159.148 192.521 158.854 193.545 158.854C194.252 158.854 194.764 158.947 195.08 159.135V160.705C194.693 160.416 194.262 160.271 193.785 160.271C193.254 160.271 192.832 160.428 192.52 160.74C192.211 161.049 192.057 161.477 192.057 162.023C192.057 162.555 192.205 162.973 192.502 163.277C192.799 163.578 193.207 163.729 193.727 163.729C194.188 163.729 194.639 163.584 195.08 163.295V164.783ZM199.158 165.146C198.158 165.146 197.371 164.867 196.797 164.309C196.227 163.746 195.941 162.984 195.941 162.023C195.941 161.031 196.238 160.256 196.832 159.697C197.426 159.135 198.229 158.854 199.24 158.854C200.236 158.854 201.018 159.135 201.584 159.697C202.15 160.256 202.434 160.996 202.434 161.918C202.434 162.914 202.141 163.701 201.555 164.279C200.973 164.857 200.174 165.146 199.158 165.146ZM199.205 160.271C198.768 160.271 198.428 160.422 198.186 160.723C197.943 161.023 197.822 161.449 197.822 162C197.822 163.152 198.287 163.729 199.217 163.729C200.104 163.729 200.547 163.137 200.547 161.953C200.547 160.832 200.1 160.271 199.205 160.271ZM203.635 165V159H206.986C208.416 159 209.131 159.488 209.131 160.465C209.131 160.812 209.018 161.107 208.791 161.35C208.568 161.588 208.277 161.744 207.918 161.818C208.359 161.873 208.705 162.027 208.955 162.281C209.209 162.531 209.336 162.838 209.336 163.201C209.336 163.744 209.143 164.18 208.756 164.508C208.369 164.836 207.838 165 207.162 165H203.635ZM205.486 160.131V161.391H206.395C206.957 161.391 207.238 161.17 207.238 160.729C207.238 160.33 206.973 160.131 206.441 160.131H205.486ZM205.486 162.48V163.846H206.553C207.143 163.846 207.438 163.607 207.438 163.131C207.438 162.697 207.135 162.48 206.529 162.48H205.486ZM213.455 165.146C212.455 165.146 211.668 164.867 211.094 164.309C210.523 163.746 210.238 162.984 210.238 162.023C210.238 161.031 210.535 160.256 211.129 159.697C211.723 159.135 212.525 158.854 213.537 158.854C214.533 158.854 215.314 159.135 215.881 159.697C216.447 160.256 216.73 160.996 216.73 161.918C216.73 162.914 216.438 163.701 215.852 164.279C215.27 164.857 214.471 165.146 213.455 165.146ZM213.502 160.271C213.064 160.271 212.725 160.422 212.482 160.723C212.24 161.023 212.119 161.449 212.119 162C212.119 163.152 212.584 163.729 213.514 163.729C214.4 163.729 214.844 163.137 214.844 161.953C214.844 160.832 214.396 160.271 213.502 160.271ZM223.322 162.527H219.408C219.471 163.398 220.02 163.834 221.055 163.834C221.715 163.834 222.295 163.678 222.795 163.365V164.701C222.24 164.998 221.52 165.146 220.633 165.146C219.664 165.146 218.912 164.879 218.377 164.344C217.842 163.805 217.574 163.055 217.574 162.094C217.574 161.098 217.863 160.309 218.441 159.727C219.02 159.145 219.73 158.854 220.574 158.854C221.449 158.854 222.125 159.113 222.602 159.633C223.082 160.152 223.322 160.857 223.322 161.748V162.527ZM221.605 161.391C221.605 160.531 221.258 160.102 220.562 160.102C220.266 160.102 220.008 160.225 219.789 160.471C219.574 160.717 219.443 161.023 219.396 161.391H221.605ZM232.287 164.783C231.869 165.025 231.266 165.146 230.477 165.146C229.555 165.146 228.809 164.867 228.238 164.309C227.668 163.75 227.383 163.029 227.383 162.146C227.383 161.127 227.688 160.324 228.297 159.738C228.91 159.148 229.729 158.854 230.752 158.854C231.459 158.854 231.971 158.947 232.287 159.135V160.705C231.9 160.416 231.469 160.271 230.992 160.271C230.461 160.271 230.039 160.428 229.727 160.74C229.418 161.049 229.264 161.477 229.264 162.023C229.264 162.555 229.412 162.973 229.709 163.277C230.006 163.578 230.414 163.729 230.934 163.729C231.395 163.729 231.846 163.584 232.287 163.295V164.783ZM236.365 165.146C235.365 165.146 234.578 164.867 234.004 164.309C233.434 163.746 233.148 162.984 233.148 162.023C233.148 161.031 233.445 160.256 234.039 159.697C234.633 159.135 235.436 158.854 236.447 158.854C237.443 158.854 238.225 159.135 238.791 159.697C239.357 160.256 239.641 160.996 239.641 161.918C239.641 162.914 239.348 163.701 238.762 164.279C238.18 164.857 237.381 165.146 236.365 165.146ZM236.412 160.271C235.975 160.271 235.635 160.422 235.393 160.723C235.15 161.023 235.029 161.449 235.029 162C235.029 163.152 235.494 163.729 236.424 163.729C237.311 163.729 237.754 163.137 237.754 161.953C237.754 160.832 237.307 160.271 236.412 160.271ZM245.389 164.783C244.971 165.025 244.367 165.146 243.578 165.146C242.656 165.146 241.91 164.867 241.34 164.309C240.77 163.75 240.484 163.029 240.484 162.146C240.484 161.127 240.789 160.324 241.398 159.738C242.012 159.148 242.83 158.854 243.854 158.854C244.561 158.854 245.072 158.947 245.389 159.135V160.705C245.002 160.416 244.57 160.271 244.094 160.271C243.562 160.271 243.141 160.428 242.828 160.74C242.52 161.049 242.365 161.477 242.365 162.023C242.365 162.555 242.514 162.973 242.811 163.277C243.107 163.578 243.516 163.729 244.035 163.729C244.496 163.729 244.947 163.584 245.389 163.295V164.783ZM251.096 160.406H249.49V165H247.627V160.406H246.01V159H251.096V160.406ZM254.752 165.146C253.752 165.146 252.965 164.867 252.391 164.309C251.82 163.746 251.535 162.984 251.535 162.023C251.535 161.031 251.832 160.256 252.426 159.697C253.02 159.135 253.822 158.854 254.834 158.854C255.83 158.854 256.611 159.135 257.178 159.697C257.744 160.256 258.027 160.996 258.027 161.918C258.027 162.914 257.734 163.701 257.148 164.279C256.566 164.857 255.768 165.146 254.752 165.146ZM254.799 160.271C254.361 160.271 254.021 160.422 253.779 160.723C253.537 161.023 253.416 161.449 253.416 162C253.416 163.152 253.881 163.729 254.811 163.729C255.697 163.729 256.141 163.137 256.141 161.953C256.141 160.832 255.693 160.271 254.799 160.271ZM264.496 165H262.662V162.756H262.24C261.916 162.756 261.621 163.043 261.355 163.617L260.717 165H258.654L259.527 163.295C259.793 162.779 260.166 162.451 260.646 162.311C259.646 162.139 259.146 161.619 259.146 160.752C259.146 159.584 260.002 159 261.713 159H264.496V165ZM262.662 161.654V160.178H261.965C261.324 160.178 261.004 160.422 261.004 160.91C261.004 161.406 261.324 161.654 261.965 161.654H262.662ZM271.832 165H269.975V162.492H267.9V165H266.049V159H267.9V161.221H269.975V159H271.832V165ZM279.361 165H277.68V161.074C277.527 161.383 277.363 161.668 277.188 161.93L275.148 165H273.396V159H275.09V162.803C275.215 162.541 275.352 162.297 275.5 162.07L277.539 159H279.361V165ZM286.896 165H285.215V161.074C285.062 161.383 284.898 161.668 284.723 161.93L282.684 165H280.932V159H282.625V162.803C282.75 162.541 282.887 162.297 283.035 162.07L285.074 159H286.896V165Z" fill="#26ad50"/>
<path d="M332.35 168H330.287L329.689 166.131H326.701L326.109 168H324.059L327.117 159.598H329.361L332.35 168ZM329.256 164.678L328.354 161.854C328.287 161.643 328.24 161.391 328.213 161.098H328.166C328.146 161.344 328.098 161.588 328.02 161.83L327.105 164.678H329.256ZM339.205 168H336.984L335.092 165.07H335.068V168H333.217V162H335.068V164.818H335.092L336.938 162H339.135L336.926 164.854L339.205 168ZM344.42 163.406H342.814V168H340.951V163.406H339.334V162H344.42V163.406ZM351.305 162L348.867 168.48C348.281 170.039 347.398 170.818 346.219 170.818C345.77 170.818 345.4 170.768 345.111 170.666V169.189C345.357 169.334 345.625 169.406 345.914 169.406C346.391 169.406 346.723 169.182 346.91 168.732L347.227 167.988L344.789 162H346.84L347.959 165.65C348.029 165.877 348.084 166.145 348.123 166.453H348.146C348.182 166.227 348.246 165.963 348.34 165.662L349.471 162H351.305ZM357.041 168H355.289V167.139H355.266C354.863 167.811 354.268 168.146 353.479 168.146C352.896 168.146 352.438 167.982 352.102 167.654C351.77 167.322 351.604 166.881 351.604 166.33C351.604 165.166 352.293 164.494 353.672 164.314L355.301 164.098C355.301 163.441 354.945 163.113 354.234 163.113C353.52 163.113 352.84 163.326 352.195 163.752V162.357C352.453 162.225 352.805 162.107 353.25 162.006C353.699 161.904 354.107 161.854 354.475 161.854C356.186 161.854 357.041 162.707 357.041 164.414V168ZM355.301 165.562V165.158L354.211 165.299C353.609 165.377 353.309 165.648 353.309 166.113C353.309 166.324 353.381 166.498 353.525 166.635C353.674 166.768 353.873 166.834 354.123 166.834C354.471 166.834 354.754 166.715 354.973 166.477C355.191 166.234 355.301 165.93 355.301 165.562ZM364.184 168H362.32V163.307H361.301C361.086 165.123 360.764 166.371 360.334 167.051C359.908 167.73 359.311 168.07 358.541 168.07C358.275 168.07 358.035 168.031 357.82 167.953V166.693C357.957 166.756 358.102 166.787 358.254 166.787C358.621 166.787 358.926 166.445 359.168 165.762C359.41 165.078 359.629 163.824 359.824 162H364.184V168ZM365.748 168V162H367.6V164.098H369.182C369.861 164.098 370.391 164.264 370.77 164.596C371.148 164.924 371.338 165.387 371.338 165.984C371.338 166.598 371.15 167.088 370.775 167.455C370.4 167.818 369.881 168 369.217 168H365.748ZM367.6 165.264V166.822H368.496C369.121 166.822 369.434 166.555 369.434 166.02C369.434 165.516 369.129 165.264 368.52 165.264H367.6ZM378.246 168H376.389V165.492H374.314V168H372.463V162H374.314V164.221H376.389V162H378.246V168ZM388.031 168H386.174V162H388.031V168ZM379.811 168V162H381.662V164.098H383.244C383.924 164.098 384.453 164.264 384.832 164.596C385.211 164.924 385.4 165.387 385.4 165.984C385.4 166.598 385.213 167.088 384.838 167.455C384.463 167.818 383.943 168 383.279 168H379.811ZM381.662 165.264V166.822H382.559C383.184 166.822 383.496 166.555 383.496 166.02C383.496 165.516 383.191 165.264 382.582 165.264H381.662ZM394.986 165.527H391.072C391.135 166.398 391.684 166.834 392.719 166.834C393.379 166.834 393.959 166.678 394.459 166.365V167.701C393.904 167.998 393.184 168.146 392.297 168.146C391.328 168.146 390.576 167.879 390.041 167.344C389.506 166.805 389.238 166.055 389.238 165.094C389.238 164.098 389.527 163.309 390.105 162.727C390.684 162.145 391.395 161.854 392.238 161.854C393.113 161.854 393.789 162.113 394.266 162.633C394.746 163.152 394.986 163.857 394.986 164.748V165.527ZM393.27 164.391C393.27 163.531 392.922 163.102 392.227 163.102C391.93 163.102 391.672 163.225 391.453 163.471C391.238 163.717 391.107 164.023 391.061 164.391H393.27ZM401.279 167.303H401.256V170.76H399.404V162H401.256V162.902H401.279C401.736 162.203 402.379 161.854 403.207 161.854C403.984 161.854 404.584 162.121 405.006 162.656C405.432 163.188 405.645 163.912 405.645 164.83C405.645 165.83 405.396 166.633 404.9 167.238C404.408 167.844 403.752 168.146 402.932 168.146C402.209 168.146 401.658 167.865 401.279 167.303ZM401.227 164.842V165.322C401.227 165.736 401.336 166.074 401.555 166.336C401.773 166.598 402.061 166.729 402.416 166.729C402.838 166.729 403.164 166.566 403.395 166.242C403.629 165.914 403.746 165.451 403.746 164.854C403.746 163.799 403.336 163.271 402.516 163.271C402.137 163.271 401.826 163.416 401.584 163.705C401.346 163.99 401.227 164.369 401.227 164.842ZM412.236 165.527H408.322C408.385 166.398 408.934 166.834 409.969 166.834C410.629 166.834 411.209 166.678 411.709 166.365V167.701C411.154 167.998 410.434 168.146 409.547 168.146C408.578 168.146 407.826 167.879 407.291 167.344C406.756 166.805 406.488 166.055 406.488 165.094C406.488 164.098 406.777 163.309 407.355 162.727C407.934 162.145 408.645 161.854 409.488 161.854C410.363 161.854 411.039 162.113 411.516 162.633C411.996 163.152 412.236 163.857 412.236 164.748V165.527ZM410.52 164.391C410.52 163.531 410.172 163.102 409.477 163.102C409.18 163.102 408.922 163.225 408.703 163.471C408.488 163.717 408.357 164.023 408.311 164.391H410.52ZM419.326 168H417.105L415.213 165.07H415.189V168H413.338V162H415.189V164.818H415.213L417.059 162H419.256L417.047 164.854L419.326 168ZM420.053 168V162H423.404C424.834 162 425.549 162.488 425.549 163.465C425.549 163.812 425.436 164.107 425.209 164.35C424.986 164.588 424.695 164.744 424.336 164.818C424.777 164.873 425.123 165.027 425.373 165.281C425.627 165.531 425.754 165.838 425.754 166.201C425.754 166.744 425.561 167.18 425.174 167.508C424.787 167.836 424.256 168 423.58 168H420.053ZM421.904 163.131V164.391H422.812C423.375 164.391 423.656 164.17 423.656 163.729C423.656 163.33 423.391 163.131 422.859 163.131H421.904ZM421.904 165.48V166.846H422.971C423.561 166.846 423.855 166.607 423.855 166.131C423.855 165.697 423.553 165.48 422.947 165.48H421.904ZM432.979 168H431.297V164.074C431.145 164.383 430.98 164.668 430.805 164.93L428.766 168H427.014V162H428.707V165.803C428.832 165.541 428.969 165.297 429.117 165.07L431.156 162H432.979V168ZM434.238 167.842V166.5C434.816 166.766 435.393 166.898 435.967 166.898C436.799 166.898 437.215 166.67 437.215 166.213C437.215 165.74 436.762 165.504 435.855 165.504H435.018V164.361H435.867C436.645 164.361 437.033 164.135 437.033 163.682C437.033 163.279 436.686 163.078 435.99 163.078C435.467 163.078 434.943 163.195 434.42 163.43V162.158C435.123 161.955 435.758 161.854 436.324 161.854C438.07 161.854 438.943 162.395 438.943 163.477C438.943 164.227 438.479 164.689 437.549 164.865V164.895C438.041 164.938 438.426 165.086 438.703 165.34C438.98 165.594 439.119 165.916 439.119 166.307C439.119 167.514 438.141 168.117 436.184 168.117C435.438 168.117 434.789 168.025 434.238 167.842ZM446.279 168H444.598V164.074C444.445 164.383 444.281 164.668 444.105 164.93L442.066 168H440.314V162H442.008V165.803C442.133 165.541 442.27 165.297 442.418 165.07L444.457 162H446.279V168ZM452.338 163.406H450.732V168H448.869V163.406H447.252V162H452.338V163.406ZM461.531 168H459.674V162H461.531V168ZM453.311 168V162H455.162V164.098H456.744C457.424 164.098 457.953 164.264 458.332 164.596C458.711 164.924 458.9 165.387 458.9 165.984C458.9 166.598 458.713 167.088 458.338 167.455C457.963 167.818 457.443 168 456.779 168H453.311ZM455.162 165.264V166.822H456.059C456.684 166.822 456.996 166.555 456.996 166.02C456.996 165.516 456.691 165.264 456.082 165.264H455.162Z" fill="#26ad50"/>
<path d="M354.422 55.6895V54.0312C355.09 54.4805 355.85 54.7051 356.701 54.7051C357.756 54.7051 358.283 54.3242 358.283 53.5625C358.283 52.7891 357.703 52.4023 356.543 52.4023H355.465V50.9844H356.496C357.527 50.9844 358.043 50.6211 358.043 49.8945C358.043 49.2305 357.604 48.8984 356.725 48.8984C356.096 48.8984 355.424 49.0977 354.709 49.4961V47.9492C355.428 47.6211 356.223 47.457 357.094 47.457C358.012 47.457 358.723 47.6484 359.227 48.0312C359.734 48.4102 359.988 48.9258 359.988 49.5781C359.988 50.0898 359.844 50.5254 359.555 50.8848C359.27 51.2402 358.861 51.4805 358.33 51.6055V51.6348C358.928 51.7129 359.395 51.9297 359.73 52.2852C360.07 52.6367 360.24 53.0742 360.24 53.5977C360.24 54.4062 359.947 55.0332 359.361 55.4785C358.775 55.9238 357.932 56.1465 356.83 56.1465C355.783 56.1465 354.98 55.9941 354.422 55.6895ZM366.475 56H364.723V55.1387H364.699C364.297 55.8105 363.701 56.1465 362.912 56.1465C362.33 56.1465 361.871 55.9824 361.535 55.6543C361.203 55.3223 361.037 54.8809 361.037 54.3301C361.037 53.166 361.727 52.4941 363.105 52.3145L364.734 52.0977C364.734 51.4414 364.379 51.1133 363.668 51.1133C362.953 51.1133 362.273 51.3262 361.629 51.752V50.3574C361.887 50.2246 362.238 50.1074 362.684 50.0059C363.133 49.9043 363.541 49.8535 363.908 49.8535C365.619 49.8535 366.475 50.707 366.475 52.4141V56ZM364.734 53.5625V53.1582L363.645 53.2988C363.043 53.377 362.742 53.6484 362.742 54.1133C362.742 54.3242 362.814 54.498 362.959 54.6348C363.107 54.7676 363.307 54.834 363.557 54.834C363.904 54.834 364.188 54.7148 364.406 54.4766C364.625 54.2344 364.734 53.9297 364.734 53.5625ZM374.303 58.1855H372.791V56H368.754V58.1855H367.266V54.6934H367.799C368.646 53.3652 369.094 51.8008 369.141 50H373.354V54.6934H374.303V58.1855ZM371.502 54.6934V51.2949H370.582C370.492 52.5605 370.164 53.6934 369.598 54.6934H371.502ZM378.24 56.1465C377.24 56.1465 376.453 55.8672 375.879 55.3086C375.309 54.7461 375.023 53.9844 375.023 53.0234C375.023 52.0312 375.32 51.2559 375.914 50.6973C376.508 50.1348 377.311 49.8535 378.322 49.8535C379.318 49.8535 380.1 50.1348 380.666 50.6973C381.232 51.2559 381.516 51.9961 381.516 52.918C381.516 53.9141 381.223 54.7012 380.637 55.2793C380.055 55.8574 379.256 56.1465 378.24 56.1465ZM378.287 51.2715C377.85 51.2715 377.51 51.4219 377.268 51.7227C377.025 52.0234 376.904 52.4492 376.904 53C376.904 54.1523 377.369 54.7285 378.299 54.7285C379.186 54.7285 379.629 54.1367 379.629 52.9531C379.629 51.832 379.182 51.2715 378.287 51.2715ZM388.395 56H386.531V51.3066H385.512C385.297 53.123 384.975 54.3711 384.545 55.0508C384.119 55.7305 383.521 56.0703 382.752 56.0703C382.486 56.0703 382.246 56.0312 382.031 55.9531V54.6934C382.168 54.7559 382.312 54.7871 382.465 54.7871C382.832 54.7871 383.137 54.4453 383.379 53.7617C383.621 53.0781 383.84 51.8242 384.035 50H388.395V56ZM399.322 56H397.137L395.203 53H395.18V56H393.357V53H393.334L391.412 56H389.227L391.506 52.8535L389.285 50H391.459L393.334 52.8418H393.357V50H395.18V52.8418H395.203L397.078 50H399.246L397.025 52.8535L399.322 56ZM405.914 56H404.057V53.4922H401.982V56H400.131V50H401.982V52.2207H404.057V50H405.914V56ZM410.338 56.1465C409.338 56.1465 408.551 55.8672 407.977 55.3086C407.406 54.7461 407.121 53.9844 407.121 53.0234C407.121 52.0312 407.418 51.2559 408.012 50.6973C408.605 50.1348 409.408 49.8535 410.42 49.8535C411.416 49.8535 412.197 50.1348 412.764 50.6973C413.33 51.2559 413.613 51.9961 413.613 52.918C413.613 53.9141 413.32 54.7012 412.734 55.2793C412.152 55.8574 411.354 56.1465 410.338 56.1465ZM410.385 51.2715C409.947 51.2715 409.607 51.4219 409.365 51.7227C409.123 52.0234 409.002 52.4492 409.002 53C409.002 54.1523 409.467 54.7285 410.396 54.7285C411.283 54.7285 411.727 54.1367 411.727 52.9531C411.727 51.832 411.279 51.2715 410.385 51.2715ZM419.361 55.7832C418.943 56.0254 418.34 56.1465 417.551 56.1465C416.629 56.1465 415.883 55.8672 415.312 55.3086C414.742 54.75 414.457 54.0293 414.457 53.1465C414.457 52.127 414.762 51.3242 415.371 50.7383C415.984 50.1484 416.803 49.8535 417.826 49.8535C418.533 49.8535 419.045 49.9473 419.361 50.1348V51.7051C418.975 51.416 418.543 51.2715 418.066 51.2715C417.535 51.2715 417.113 51.4277 416.801 51.7402C416.492 52.0488 416.338 52.4766 416.338 53.0234C416.338 53.5547 416.486 53.9727 416.783 54.2773C417.08 54.5781 417.488 54.7285 418.008 54.7285C418.469 54.7285 418.92 54.584 419.361 54.2949V55.7832ZM425.068 51.4062H423.463V56H421.6V51.4062H419.982V50H425.068V51.4062ZM432.006 56H430.324V52.0742C430.172 52.3828 430.008 52.668 429.832 52.9297L427.793 56H426.041V50H427.734V53.8027C427.859 53.541 427.996 53.2969 428.145 53.0703L430.184 50H432.006V56Z" fill="#26ad50"/>
</g>
<defs>
<clipPath id="clip0">
<rect width="522" height="426" fill="white"/>
</clipPath>
</defs>
</svg>
