<svg width="64" height="64" viewBox="0 0 64 64" fill="none" xmlns="http://www.w3.org/2000/svg">
<path d="M31 18C30.9997 18.2651 30.8942 18.5193 30.7068 18.7068C30.5193 18.8942 30.2651 18.9997 30 19H29V21H30C30.7954 20.9991 31.5579 20.6827 32.1203 20.1203C32.6827 19.5579 32.9991 18.7954 33 18V16H31V18Z" fill="#26ad50"/>
<path d="M28 16C28.5523 16 29 15.5523 29 15C29 14.4477 28.5523 14 28 14C27.4477 14 27 14.4477 27 15C27 15.5523 27.4477 16 28 16Z" fill="#26ad50"/>
<path d="M34 16C34.5523 16 35 15.5523 35 15C35 14.4477 34.5523 14 34 14C33.4477 14 33 14.4477 33 15C33 15.5523 33.4477 16 34 16Z" fill="#26ad50"/>
<path d="M27.7072 21.293L26.293 22.7073C26.7019 23.1184 27.1883 23.4444 27.7241 23.6663C28.2599 23.8882 28.8343 24.0017 29.4142 24.0001H32.0001V22.0001H29.4142C29.0971 22.001 28.7829 21.9389 28.4899 21.8175C28.1968 21.6962 27.9308 21.5179 27.7072 21.293Z" fill="#26ad50"/>
<path d="M61 40H50.6021L45.9394 31.1926C45.4303 30.2279 44.6672 29.4205 43.7326 28.8579C42.7981 28.2952 41.7275 27.9986 40.6367 28H35V26.9731C35.9402 26.1768 36.6956 25.1852 37.2136 24.0673C37.7317 22.9494 38.0001 21.7321 38 20.5V9.87341C38.9427 9.62997 39.7642 9.0511 40.3106 8.24529C40.857 7.43948 41.0908 6.46206 40.9681 5.49622C40.8455 4.53038 40.3748 3.64244 39.6443 2.99881C38.9138 2.35518 37.9736 2.00006 37 2H27.8939C26.0662 2.00207 24.3139 2.72906 23.0215 4.02147C21.7291 5.31388 21.0021 7.06618 21 8.89392V28H15.297C14.1226 27.9991 12.9738 28.3433 11.9933 28.9898C11.0129 29.6363 10.2439 30.5567 9.78211 31.6365L2.79945 47.9294C2.27051 49.1597 1.99846 50.485 2.00001 51.8241C2.00306 54.522 3.07615 57.1085 4.98384 59.0162C6.89153 60.9239 9.47803 61.9969 12.1759 62H61C61.2652 62 61.5196 61.8946 61.7071 61.7071C61.8946 61.5196 62 61.2652 62 61V41C62 40.7348 61.8946 40.4804 61.7071 40.2929C61.5196 40.1054 61.2652 40 61 40ZM44.1718 32.1284L48.3391 40H36.9999C36.8686 40 36.7386 40.0259 36.6173 40.0761C36.4959 40.1264 36.3857 40.2 36.2928 40.2929C36.2 40.3857 36.1263 40.496 36.0761 40.6173C36.0258 40.7386 35.9999 40.8687 35.9999 41L36 50.1077C35.1313 49.2185 34.0416 48.5766 32.8428 48.2479L31.0599 41.1163L32.1379 38.9604L33.4453 39.832C33.5754 39.9187 33.724 39.9737 33.8791 39.9926C34.0343 40.0115 34.1917 39.9938 34.3388 39.9408C34.4859 39.8878 34.6185 39.8011 34.726 39.6877C34.8335 39.5742 34.9129 39.4371 34.9578 39.2874L37.744 30H40.6367C41.3639 29.999 42.0776 30.1968 42.7007 30.5719C43.3237 30.947 43.8324 31.4852 44.1718 32.1284ZM30.9285 55.6287L29.0715 56.3713L30.523 60H25V50H31C32.3255 50.0015 33.5963 50.5287 34.5336 51.4659C35.4709 52.4031 35.9983 53.6738 36 54.9993L36 58.4614L33.9191 53.6061L32.0809 54.3939L34.4835 60H32.677L30.9285 55.6287ZM28 36.2018L30.4608 37.8423L29.382 40H26.618L25.5392 37.8423L28 36.2018ZM34.4143 30H35.656L33.4304 37.4185L29.5697 34.8446L34.4143 30ZM26.7808 42H29.2192L30.7192 48H25.2808L26.7808 42ZM29.5 27C27.7767 26.998 26.1245 26.3126 24.906 25.094C23.6874 23.8755 23.002 22.2233 23 20.5V14.618L26.4472 12.8944C26.6133 12.8114 26.753 12.6837 26.8507 12.5257C26.9483 12.3678 27 12.1857 27 12V10H36V20.5C35.9981 22.2233 35.3126 23.8755 34.094 25.094C32.8755 26.3126 31.2233 26.998 29.5 27ZM23 8.89392C23.0015 7.59642 23.5176 6.35249 24.435 5.43502C25.3525 4.51755 26.5964 4.00147 27.8939 4H37C37.5304 4 38.0392 4.21071 38.4142 4.58579C38.7893 4.96086 39 5.46957 39 6C39 6.53043 38.7893 7.03914 38.4142 7.41421C38.0392 7.78929 37.5304 8 37 8H26C25.7348 8 25.4804 8.10536 25.2929 8.2929C25.1054 8.48043 25 8.73478 25 9V11.382L23 12.382V8.89392ZM29.5 29C30.7074 29.0007 31.9009 28.7425 33 28.2429V28.5858L28 33.5858L23 28.5858V25.969C23.7964 26.9182 24.791 27.6815 25.914 28.2051C27.0369 28.7288 28.261 29.0001 29.5 29ZM21.5858 30L26.4304 34.8446L22.5696 37.4185L20.344 30H21.5858ZM23 60H12.1759C10.0083 59.9975 7.93014 59.1354 6.39739 57.6026C4.86465 56.0699 4.00247 53.9917 4.00001 51.8241C3.99877 50.7559 4.21577 49.6987 4.6377 48.7173L11.6204 32.4243C11.9283 31.7045 12.4409 31.0909 13.0945 30.6599C13.7482 30.2289 14.5141 29.9994 15.297 30H18.256L21.0422 39.2874C21.0871 39.4371 21.1665 39.5742 21.274 39.6877C21.3815 39.8012 21.5141 39.8879 21.6612 39.9409C21.8083 39.9938 21.9657 40.0116 22.1209 39.9927C22.2761 39.9738 22.4246 39.9188 22.5547 39.832L23.8622 38.9604L24.9401 41.1163L23.2192 48H16.618L18.8944 43.4473L17.1056 42.5527L14.1056 48.5527C14.0294 48.7052 13.9934 48.8746 14.001 49.0449C14.0087 49.2152 14.0597 49.3807 14.1493 49.5257C14.2389 49.6707 14.3641 49.7904 14.513 49.8734C14.6619 49.9564 14.8295 50 15 50H23V60ZM60 60H38V55L38 54.9993L37.9999 42H60V60Z" fill="#26ad50"/>
<path d="M49 55C49.7911 55 50.5645 54.7654 51.2223 54.3259C51.8801 53.8864 52.3928 53.2616 52.6955 52.5307C52.9983 51.7998 53.0775 50.9956 52.9232 50.2196C52.7688 49.4437 52.3878 48.731 51.8284 48.1716C51.269 47.6122 50.5563 47.2312 49.7804 47.0769C49.0044 46.9225 48.2002 47.0017 47.4693 47.3045C46.7384 47.6072 46.1136 48.1199 45.6741 48.7777C45.2346 49.4355 45 50.2089 45 51C45.0012 52.0605 45.423 53.0772 46.1729 53.8271C46.9228 54.577 47.9395 54.9988 49 55ZM49 49C49.3956 49 49.7823 49.1173 50.1111 49.3371C50.44 49.5568 50.6964 49.8692 50.8478 50.2346C50.9991 50.6001 51.0388 51.0022 50.9616 51.3902C50.8844 51.7781 50.6939 52.1345 50.4142 52.4142C50.1345 52.6939 49.7782 52.8844 49.3902 52.9616C49.0022 53.0387 48.6001 52.9991 48.2346 52.8478C47.8692 52.6964 47.5568 52.44 47.3371 52.1111C47.1173 51.7822 47 51.3956 47 51C47.0006 50.4698 47.2115 49.9614 47.5865 49.5865C47.9614 49.2115 48.4698 49.0006 49 49Z" fill="#26ad50"/>
</svg>
