<svg width="65" height="64" viewBox="0 0 65 64" fill="none" xmlns="http://www.w3.org/2000/svg">
<path d="M48.75 35H50.7812V37H48.75V35Z" fill="#26ad50"/>
<path d="M21.3281 38C23.6062 38 25.3906 36.682 25.3906 35H23.3594C23.3594 35.408 22.5682 36 21.3281 36C20.088 36 19.2969 35.408 19.2969 35H17.2656C17.2656 36.682 19.0501 38 21.3281 38Z" fill="#26ad50"/>
<path d="M47.2002 53.851C47.3474 53.9406 47.5155 53.9917 47.6884 53.9994C47.8614 54.0071 48.0335 53.9712 48.1884 53.895L52.2509 51.895C52.4199 51.812 52.562 51.6844 52.6614 51.5263C52.7608 51.3682 52.8134 51.1859 52.8134 51C52.8134 50.814 52.7608 50.6318 52.6614 50.4737C52.562 50.3156 52.4199 50.1879 52.2509 50.105L48.1884 48.105C48.0335 48.0288 47.8614 47.9928 47.6884 48.0005C47.5155 48.0082 47.3474 48.0594 47.2001 48.149C47.0529 48.2387 46.9314 48.364 46.8471 48.5129C46.7629 48.6618 46.7187 48.8295 46.7188 49V53C46.7187 53.1705 46.7628 53.3382 46.8471 53.4871C46.9314 53.636 47.0529 53.7613 47.2002 53.851ZM48.75 50.618L49.5259 51L48.75 51.382V50.618Z" fill="#26ad50"/>
<path d="M44.6875 35H46.7188V37H44.6875V35Z" fill="#26ad50"/>
<path d="M52.8125 35H54.8438V37H52.8125V35Z" fill="#26ad50"/>
<path d="M18.2812 32C18.5506 32 18.8089 31.8946 18.9994 31.7071C19.1899 31.5196 19.2969 31.2652 19.2969 31V30C19.2969 29.7348 19.1899 29.4804 18.9994 29.2929C18.8089 29.1054 18.5506 29 18.2812 29C18.0119 29 17.7536 29.1054 17.5631 29.2929C17.3726 29.4804 17.2656 29.7348 17.2656 30V31C17.2656 31.2652 17.3726 31.5196 17.5631 31.7071C17.7536 31.8946 18.0119 32 18.2812 32Z" fill="#26ad50"/>
<path d="M24.375 32C24.6444 32 24.9027 31.8946 25.0932 31.7071C25.2836 31.5196 25.3906 31.2652 25.3906 31V30C25.3906 29.7348 25.2836 29.4804 25.0932 29.2929C24.9027 29.1054 24.6444 29 24.375 29C24.1056 29 23.8473 29.1054 23.6568 29.2929C23.4664 29.4804 23.3594 29.7348 23.3594 30V31C23.3594 31.2652 23.4664 31.5196 23.6568 31.7071C23.8473 31.8946 24.1056 32 24.375 32Z" fill="#26ad50"/>
<path d="M61.9531 2H3.04688C2.77751 2 2.51919 2.10536 2.32872 2.29289C2.13825 2.48043 2.03125 2.73478 2.03125 3V61C2.03125 61.2652 2.13825 61.5196 2.32872 61.7071C2.51919 61.8946 2.77751 62 3.04688 62H61.9531C62.2225 62 62.4808 61.8946 62.6713 61.7071C62.8617 61.5196 62.9688 61.2652 62.9688 61V3C62.9688 2.73478 62.8617 2.48043 62.6713 2.29289C62.4808 2.10536 62.2225 2 61.9531 2ZM34.5312 60H31.4844V57H29.4531V60H13.2031V57H11.1719V60H8.125V53.46C8.1207 52.3838 8.47212 51.3354 9.12619 50.4731C9.78026 49.6108 10.7015 48.9814 11.7508 48.68L13.5687 48.14C14.5844 50.4 17.6617 52 21.3281 52C24.9945 52 28.0719 50.4 29.0875 48.14L30.9055 48.68C31.9548 48.9814 32.876 49.6108 33.5301 50.4731C34.1841 51.3354 34.5355 52.3838 34.5312 53.46V60ZM14.2188 25.57C15.1003 25.856 16.0226 26.0011 16.9508 26H28.4375V34C28.4375 35.8565 27.6885 37.637 26.3552 38.9497C25.0219 40.2625 23.2136 41 21.3281 41C19.4426 41 17.6343 40.2625 16.301 38.9497C14.9678 37.637 14.2188 35.8565 14.2188 34V25.57ZM10.1562 17.31V17H23.3594C24.7062 17 25.9978 17.5268 26.9502 18.4645C27.9025 19.4021 28.4375 20.6739 28.4375 22V24H16.9508C15.1496 23.9974 13.4229 23.2917 12.1493 22.0376C10.8756 20.7836 10.1589 19.0835 10.1562 17.31ZM18.2609 42.47C20.2427 43.1767 22.4135 43.1767 24.3953 42.47C24.4208 43.4494 24.6931 44.4071 25.1877 45.2572C25.6824 46.1073 26.3838 46.823 27.2289 47.34C26.5484 48.85 24.1008 50 21.3281 50C18.5555 50 16.1078 48.85 15.4273 47.34C16.2725 46.823 16.9739 46.1073 17.4685 45.2572C17.9631 44.4071 18.2354 43.4494 18.2609 42.47ZM60.9375 60H36.5625V53.46C36.5669 51.9539 36.0755 50.4869 35.1618 49.279C34.2481 48.071 32.9614 47.1872 31.4945 46.76L29.3008 46.11C28.4624 45.8659 27.7271 45.3606 27.2051 44.6701C26.6832 43.9795 26.4029 43.1408 26.4062 42.28V41.48C27.655 40.6574 28.6789 39.5447 29.3874 38.2402C30.0959 36.9356 30.4673 35.4794 30.4688 34V32H31.4844C32.2917 31.9976 33.0653 31.6808 33.6362 31.1187C34.2071 30.5566 34.5288 29.7949 34.5312 29V28C34.5288 27.2051 34.2071 26.4434 33.6362 25.8813C33.0653 25.3192 32.2917 25.0024 31.4844 25H30.4688V22C30.4666 20.1441 29.7169 18.3649 28.3841 17.0526C27.0513 15.7403 25.2442 15.0021 23.3594 15H9.14062C8.87126 15 8.61294 15.1054 8.42247 15.2929C8.232 15.4804 8.125 15.7348 8.125 16V17.31C8.12758 18.7643 8.50087 20.1948 9.21065 21.4702C9.92042 22.7456 10.944 23.8252 12.1875 24.61V25H11.1719C10.3645 25.0024 9.59095 25.3192 9.02007 25.8813C8.44919 26.4434 8.12741 27.2051 8.125 28V29C8.12741 29.7949 8.44919 30.5566 9.02007 31.1187C9.59095 31.6808 10.3645 31.9976 11.1719 32H12.1875V34C12.1889 35.4794 12.5603 36.9356 13.2688 38.2402C13.9774 39.5447 15.0012 40.6574 16.25 41.48V42.28C16.2534 43.1408 15.973 43.9795 15.4511 44.6701C14.9292 45.3606 14.1938 45.8659 13.3555 46.11L11.1617 46.76C9.69488 47.1872 8.40819 48.071 7.49449 49.279C6.5808 50.4869 6.08933 51.9539 6.09375 53.46V60H4.0625V12H60.9375V60ZM30.4688 30V27H31.4844C31.7537 27 32.0121 27.1054 32.2025 27.2929C32.393 27.4804 32.5 27.7348 32.5 28V29C32.5 29.2652 32.393 29.5196 32.2025 29.7071C32.0121 29.8946 31.7537 30 31.4844 30H30.4688ZM12.1875 27V30H11.1719C10.9025 30 10.6442 29.8946 10.4537 29.7071C10.2633 29.5196 10.1562 29.2652 10.1562 29V28C10.1562 27.7348 10.2633 27.4804 10.4537 27.2929C10.6442 27.1054 10.9025 27 11.1719 27H12.1875ZM60.9375 10H4.0625V4H60.9375V10Z" fill="#26ad50"/>
<path d="M57.8906 44H41.6406C41.3713 44 41.1129 44.1054 40.9225 44.2929C40.732 44.4804 40.625 44.7348 40.625 45V57C40.625 57.2652 40.732 57.5196 40.9225 57.7071C41.1129 57.8946 41.3713 58 41.6406 58H57.8906C58.16 58 58.4183 57.8946 58.6088 57.7071C58.7992 57.5196 58.9062 57.2652 58.9062 57V45C58.9062 44.7348 58.7992 44.4804 58.6088 44.2929C58.4183 44.1054 58.16 44 57.8906 44ZM56.875 56H42.6562V46H56.875V56Z" fill="#26ad50"/>
<path d="M57.8906 30H41.6406C41.3713 30 41.1129 30.1054 40.9225 30.2929C40.732 30.4804 40.625 30.7348 40.625 31V41C40.625 41.2652 40.732 41.5196 40.9225 41.7071C41.1129 41.8946 41.3713 42 41.6406 42H57.8906C58.16 42 58.4183 41.8946 58.6088 41.7071C58.7992 41.5196 58.9062 41.2652 58.9062 41V31C58.9062 30.7348 58.7992 30.4804 58.6088 30.2929C58.4183 30.1054 58.16 30 57.8906 30ZM56.875 40H42.6562V32H56.875V40Z" fill="#26ad50"/>
<path d="M57.8906 15H41.6406C41.3713 15 41.1129 15.1054 40.9225 15.2929C40.732 15.4804 40.625 15.7348 40.625 16V27C40.625 27.2652 40.732 27.5196 40.9225 27.7071C41.1129 27.8946 41.3713 28 41.6406 28H57.8906C58.16 28 58.4183 27.8946 58.6088 27.7071C58.7992 27.5196 58.9062 27.2652 58.9062 27V16C58.9062 15.7348 58.7992 15.4804 58.6088 15.2929C58.4183 15.1054 58.16 15 57.8906 15ZM54.3461 17L50.3039 19.49C50.142 19.5881 49.9557 19.6401 49.7656 19.6401C49.5756 19.6401 49.3892 19.5881 49.2273 19.49L45.1852 17H54.3461ZM56.875 26H42.6562V17.8L48.1508 21.19C48.6364 21.4842 49.1954 21.64 49.7656 21.64C50.3358 21.64 50.8948 21.4842 51.3805 21.19L56.875 17.8V26Z" fill="#26ad50"/>
<path d="M6.09375 6H8.125V8H6.09375V6Z" fill="#26ad50"/>
<path d="M10.1562 6H12.1875V8H10.1562V6Z" fill="#26ad50"/>
<path d="M14.2188 6H16.25V8H14.2188V6Z" fill="#26ad50"/>
</svg>
