<svg width="64" height="64" viewBox="0 0 64 64" fill="none" xmlns="http://www.w3.org/2000/svg">
<path d="M55 3C50.928 3 47.564 6.06 47.069 10H45C43.346 10 42 11.346 42 13V29H33V16.931C36.94 16.436 40 13.072 40 9C40 4.589 36.411 1 32 1C27.589 1 24 4.589 24 9C24 13.072 27.06 16.436 31 16.931V29H24.586L22 31.586V13C22 11.346 20.654 10 19 10H16.931C16.436 6.06 13.072 3 9 3C4.589 3 1 6.589 1 11C1 15.411 4.589 19 9 19C13.072 19 16.436 15.94 16.931 12H19C19.552 12 20 12.449 20 13V33.586L18 35.586V47H16V27H18V25H16C14.897 25 14 25.897 14 27V47C14 48.103 14.897 49 16 49H36V51H15C13.346 51 12 49.654 12 48V26C12 24.346 13.346 23 15 23H18V21H15C12.243 21 10 23.243 10 26V48C10 50.757 12.243 53 15 53H24V55H21C19.346 55 18 56.346 18 58V60C18 61.654 19.346 63 21 63H43C44.654 63 46 61.654 46 60V58C46 56.346 44.654 55 43 55H40V53H49C51.757 53 54 50.757 54 48V26C54 23.243 51.757 21 49 21H46V23H49C50.654 23 52 24.346 52 26V43H50V27C50 25.897 49.103 25 48 25H46V27H48V43H46V29H44V13C44 12.449 44.448 12 45 12H47.069C47.564 15.94 50.928 19 55 19C59.411 19 63 15.411 63 11C63 6.589 59.411 3 55 3ZM26 9C26 8.298 26.128 7.627 26.35 7H28.225C28.088 7.633 28 8.299 28 9C28 9.701 28.088 10.367 28.225 11H26.35C26.128 10.373 26 9.702 26 9ZM30 9C30 8.297 30.11 7.626 30.282 7H33.722C33.891 7.625 34 8.295 34 9C34 9.703 33.89 10.374 33.719 11H30.279C30.109 10.375 30 9.705 30 9ZM31.086 5C31.395 4.421 31.722 3.936 32.002 3.559C32.283 3.935 32.61 4.421 32.919 5H31.086ZM38 9C38 9.702 37.872 10.373 37.65 11H35.762C35.9 10.365 36 9.703 36 9C36 8.299 35.912 7.633 35.775 7H37.65C37.872 7.627 38 8.298 38 9ZM32.914 13C32.605 13.579 32.278 14.064 31.998 14.441C31.717 14.065 31.39 13.579 31.081 13H32.914ZM34.353 14.518C34.622 14.071 34.885 13.557 35.125 13H36.459C35.879 13.647 35.164 14.171 34.353 14.518ZM36.46 5H35.132C34.892 4.442 34.626 3.932 34.357 3.483C35.166 3.83 35.879 4.354 36.46 5ZM29.644 3.483C29.374 3.932 29.108 4.442 28.868 5H27.54C28.121 4.354 28.834 3.83 29.644 3.483ZM27.54 13H28.868C29.108 13.558 29.374 14.068 29.643 14.517C28.834 14.17 28.121 13.646 27.54 13ZM13.46 7H12.132C11.892 6.442 11.626 5.932 11.357 5.483C12.166 5.83 12.879 6.354 13.46 7ZM15 11C15 11.702 14.872 12.373 14.65 13H12.775C12.912 12.367 13 11.701 13 11C13 10.299 12.912 9.633 12.775 9H14.65C14.872 9.627 15 10.298 15 11ZM7.279 13C7.109 12.375 7 11.705 7 11C7 10.297 7.11 9.626 7.282 9H10.722C10.891 9.625 11 10.295 11 11C11 11.703 10.89 12.374 10.719 13H7.279ZM9.914 15C9.605 15.579 9.278 16.064 8.998 16.441C8.717 16.065 8.39 15.579 8.081 15H9.914ZM3 11C3 10.298 3.128 9.627 3.35 9H5.225C5.088 9.633 5 10.299 5 11C5 11.701 5.088 12.367 5.225 13H3.35C3.128 12.373 3 11.702 3 11ZM8.086 7C8.395 6.421 8.722 5.936 9.002 5.559C9.283 5.935 9.61 6.421 9.919 7H8.086ZM6.644 5.483C6.374 5.932 6.108 6.442 5.868 7H4.54C5.121 6.354 5.834 5.83 6.644 5.483ZM4.54 15H5.868C6.108 15.558 6.374 16.068 6.643 16.517C5.834 16.17 5.121 15.646 4.54 15ZM11.356 16.517C11.625 16.069 11.891 15.559 12.131 15H13.459C12.879 15.646 12.166 16.17 11.356 16.517ZM24 32.414V35H21.414L24 32.414ZM43 57C43.552 57 44 57.448 44 58V60C44 60.552 43.552 61 43 61H21C20.448 61 20 60.552 20 60V58C20 57.448 20.448 57 21 57H24C24 58.103 24.972 59 26.167 59H37.833C39.028 59 40 58.103 40 57H43ZM38.016 56.94C38.007 56.952 37.946 57 37.833 57H26.167C26.065 57.001 26.008 56.963 26 56.988V53H38.003L38.016 56.94ZM52 48C52 49.654 50.654 51 49 51H38V45H52V48ZM38 43C36.897 43 36 43.897 36 45V47H20V37H26V31H44V43H38ZM59.46 7H58.132C57.892 6.442 57.626 5.932 57.357 5.483C58.166 5.83 58.879 6.354 59.46 7ZM61 11C61 11.702 60.872 12.373 60.65 13H58.775C58.912 12.367 59 11.701 59 11C59 10.299 58.912 9.633 58.775 9H60.65C60.872 9.627 61 10.298 61 11ZM53.279 13C53.109 12.375 53 11.705 53 11C53 10.297 53.11 9.626 53.282 9H56.722C56.891 9.625 57 10.295 57 11C57 11.703 56.89 12.374 56.719 13H53.279ZM55.914 15C55.605 15.579 55.278 16.064 54.998 16.441C54.717 16.065 54.39 15.579 54.081 15H55.914ZM49 11C49 10.298 49.128 9.627 49.35 9H51.225C51.088 9.633 51 10.299 51 11C51 11.701 51.088 12.367 51.225 13H49.35C49.128 12.373 49 11.702 49 11ZM54.086 7C54.395 6.421 54.722 5.936 55.002 5.559C55.283 5.935 55.61 6.421 55.919 7H54.086ZM52.644 5.483C52.374 5.932 52.108 6.442 51.868 7H50.54C51.121 6.354 51.834 5.83 52.644 5.483ZM50.54 15H51.868C52.108 15.558 52.374 16.068 52.643 16.517C51.834 16.17 51.121 15.646 50.54 15ZM57.356 16.517C57.625 16.069 57.891 15.559 58.131 15H59.459C58.879 15.646 58.166 16.17 57.356 16.517Z" fill="#26ad50"/>
<path d="M24 21H29V23H24V21Z" fill="#26ad50"/>
<path d="M35 21H40V23H35V21Z" fill="#26ad50"/>
<path d="M35 25H40V27H35V25Z" fill="#26ad50"/>
<path d="M24 25H29V27H24V25Z" fill="#26ad50"/>
<path d="M48 47H50V49H48V47Z" fill="#26ad50"/>
<path d="M44 47H46V49H44V47Z" fill="#26ad50"/>
<path d="M40 47H42V49H40V47Z" fill="#26ad50"/>
<path d="M28 35H42V37H28V35Z" fill="#26ad50"/>
<path d="M22 39H42V41H22V39Z" fill="#26ad50"/>
<path d="M22 43H24V45H22V43Z" fill="#26ad50"/>
<path d="M26 43H28V45H26V43Z" fill="#26ad50"/>
<path d="M30 43H32V45H30V43Z" fill="#26ad50"/>
</svg>
