<svg width="392" height="426" viewBox="0 0 392 426" fill="none" xmlns="http://www.w3.org/2000/svg">
<ellipse rx="27.009" ry="26.9497" transform="matrix(0.993978 0.109577 -0.110066 0.993924 342.63 118.464)" fill="white"/>
<path d="M368.98 121.369C367.372 135.887 354.273 146.357 339.719 144.753C325.166 143.148 314.673 130.077 316.281 115.559C317.889 101.041 330.988 90.5704 345.542 92.1748C360.095 93.7792 370.587 106.851 368.98 121.369Z" stroke="#26ad50" stroke-opacity="0.2"/>
<line y1="-0.5" x2="124.802" y2="-0.5" transform="matrix(0.875941 -0.482897 0.484052 0.874774 212.22 192.285)" stroke="#26ad50"/>
<path d="M324.929 106.899L327.232 105.183C327.198 105.529 327.212 105.899 327.272 106.292C327.337 106.692 327.436 107.091 327.568 107.489C327.706 107.883 327.867 108.26 328.049 108.621C328.231 108.982 328.423 109.297 328.625 109.566C329.327 110.503 330.005 111.084 330.66 111.307C331.32 111.536 331.948 111.429 332.543 110.985C332.862 110.747 333.079 110.463 333.194 110.134C333.32 109.807 333.377 109.433 333.365 109.013C333.353 108.593 333.295 108.13 333.189 107.624C333.095 107.12 332.986 106.583 332.861 106.013C332.764 105.374 332.693 104.765 332.649 104.184C332.605 103.603 332.623 103.054 332.703 102.536C332.795 102.02 332.969 101.535 333.225 101.081C333.485 100.633 333.872 100.218 334.386 99.8352C335.019 99.3635 335.672 99.0956 336.347 99.0313C337.032 98.9687 337.698 99.0566 338.345 99.2951C339.003 99.5351 339.627 99.8984 340.216 100.385C340.811 100.867 341.34 101.417 341.803 102.036C342.857 103.443 343.465 104.587 343.627 105.47L341.419 107.116C341.399 105.942 340.94 104.755 340.041 103.555C339.793 103.223 339.513 102.915 339.203 102.631C338.897 102.352 338.573 102.135 338.232 101.98C337.896 101.831 337.555 101.76 337.207 101.765C336.86 101.771 336.527 101.893 336.207 102.131C335.907 102.355 335.693 102.611 335.568 102.9C335.442 103.188 335.377 103.519 335.374 103.892C335.374 104.271 335.416 104.698 335.498 105.173C335.591 105.649 335.708 106.19 335.849 106.796C335.956 107.447 336.029 108.079 336.069 108.693C336.113 109.312 336.089 109.9 335.998 110.456C335.91 111.017 335.734 111.538 335.469 112.018C335.215 112.5 334.834 112.93 334.326 113.308C333.644 113.818 332.964 114.11 332.288 114.185C331.612 114.26 330.952 114.173 330.306 113.923C329.665 113.68 329.052 113.305 328.466 112.796C327.881 112.288 327.335 111.696 326.829 111.021C326.661 110.796 326.471 110.503 326.261 110.144C326.049 109.796 325.848 109.424 325.66 109.028C325.465 108.638 325.3 108.254 325.164 107.878C325.029 107.502 324.951 107.175 324.929 106.899ZM340.966 129.431L339.133 126.983L341.657 123.216L337.697 117.927L333.396 119.321L331.57 116.883L348.818 111.873L350.7 114.387L340.966 129.431ZM343.038 121.267L347.016 115.393C347.15 115.206 347.387 114.937 347.729 114.585L347.701 114.547C347.301 114.757 346.973 114.905 346.714 114.99L339.955 117.15L343.038 121.267ZM342.428 130.27L344.731 128.553C344.697 128.9 344.711 129.27 344.771 129.663C344.836 130.063 344.935 130.462 345.067 130.86C345.205 131.253 345.366 131.631 345.548 131.992C345.731 132.353 345.922 132.667 346.124 132.936C346.826 133.874 347.505 134.454 348.16 134.677C348.819 134.906 349.447 134.799 350.042 134.356C350.361 134.117 350.579 133.834 350.693 133.505C350.819 133.177 350.876 132.803 350.864 132.384C350.853 131.964 350.794 131.501 350.688 130.995C350.594 130.491 350.485 129.953 350.361 129.384C350.263 128.745 350.192 128.135 350.148 127.555C350.104 126.974 350.122 126.425 350.203 125.907C350.294 125.39 350.468 124.905 350.724 124.451C350.984 124.004 351.371 123.589 351.885 123.206C352.518 122.734 353.171 122.466 353.846 122.402C354.531 122.339 355.197 122.427 355.844 122.666C356.502 122.906 357.126 123.269 357.715 123.756C358.31 124.237 358.839 124.788 359.303 125.407C360.356 126.814 360.964 127.958 361.127 128.84L358.918 130.486C358.898 129.313 358.439 128.126 357.54 126.925C357.292 126.594 357.013 126.286 356.702 126.001C356.396 125.723 356.072 125.506 355.732 125.351C355.396 125.202 355.054 125.13 354.707 125.136C354.359 125.141 354.026 125.263 353.706 125.501C353.406 125.726 353.192 125.982 353.067 126.27C352.941 126.559 352.876 126.89 352.873 127.263C352.874 127.642 352.915 128.069 352.997 128.543C353.09 129.02 353.207 129.561 353.348 130.167C353.455 130.818 353.528 131.45 353.568 132.063C353.612 132.683 353.588 133.271 353.497 133.826C353.41 134.388 353.233 134.909 352.968 135.389C352.714 135.871 352.333 136.301 351.826 136.679C351.143 137.188 350.463 137.48 349.787 137.555C349.112 137.631 348.451 137.543 347.805 137.294C347.164 137.051 346.551 136.675 345.965 136.167C345.38 135.658 344.834 135.067 344.328 134.391C344.16 134.166 343.97 133.874 343.76 133.515C343.548 133.166 343.347 132.794 343.159 132.399C342.964 132.008 342.799 131.625 342.664 131.249C342.528 130.872 342.45 130.546 342.428 130.27Z" fill="#26ad50"/>
<ellipse rx="33.9461" ry="34.0019" transform="matrix(0.369378 0.929279 -0.929848 0.367943 346.97 332.397)" fill="white"/>
<path d="M359.324 363.478C342.119 370.286 322.641 361.888 315.818 344.724C308.995 327.559 317.41 308.124 334.615 301.316C351.821 294.508 371.299 302.905 378.121 320.07C384.944 337.235 376.529 356.67 359.324 363.478Z" stroke="#26ad50" stroke-opacity="0.2"/>
<line x1="217.057" y1="241.011" x2="321.556" y2="309.262" stroke="#26ad50"/>
<path d="M348.174 318.088C348.373 316.677 349.018 315.205 350.11 313.671C351.524 311.685 353.284 310.539 355.392 310.233C357.499 309.926 359.573 310.496 361.613 311.941C363.805 313.495 365.099 315.423 365.494 317.723C365.885 320.03 365.349 322.212 363.885 324.267C362.943 325.591 361.973 326.556 360.976 327.161L358.72 325.562C359.925 325.027 360.924 324.203 361.717 323.09C362.773 321.607 363.154 320.067 362.861 318.471C362.564 316.882 361.622 315.525 360.035 314.4C358.524 313.329 357.014 312.905 355.503 313.127C353.999 313.354 352.749 314.167 351.752 315.567C350.832 316.859 350.341 318.196 350.277 319.578L348.174 318.088ZM346.828 319.877L348.903 321.347C347.609 321.886 346.468 322.849 345.48 324.236C344.592 325.483 344.233 326.761 344.404 328.07C344.577 329.39 345.286 330.562 346.532 331.589L350.596 325.88L352.489 327.221L348.425 332.93C349.872 333.726 351.244 333.995 352.541 333.736C353.844 333.482 354.941 332.728 355.834 331.474C356.74 330.201 357.292 328.854 357.489 327.433L359.668 328.978C359.34 330.248 358.677 331.583 357.68 332.983C356.248 334.994 354.429 336.161 352.224 336.485C350.024 336.812 347.828 336.199 345.636 334.645C343.583 333.19 342.341 331.4 341.908 329.274C341.476 327.158 341.963 325.114 343.368 323.141C344.437 321.639 345.591 320.551 346.828 319.877ZM325.013 341.588L326.46 339.555L330.16 342.177L336.78 332.879L333.08 330.257L334.521 328.233L340.152 332.224L339.33 333.379C340.331 335.381 341.692 337.443 343.415 339.563C345.143 341.688 346.949 343.476 348.832 344.925L343.769 352.038L331.99 343.689L330.644 345.579L325.013 341.588ZM333.607 341.417L343.426 348.376L345.533 345.417C344.169 344.316 342.716 342.821 341.173 340.933C339.631 339.045 338.45 337.323 337.631 335.766L333.607 341.417Z" fill="#26ad50"/>
<ellipse rx="34.0015" ry="33.9465" transform="matrix(-0.955445 0.295571 -0.296718 -0.954841 70.274 357.753)" fill="white"/>
<path d="M38.2652 367.655C32.7845 350.018 42.6712 331.286 60.3499 325.817C78.0286 320.348 96.8022 330.214 102.283 347.851C107.764 365.488 97.8769 384.22 80.1982 389.689C62.5195 395.158 43.7459 385.292 38.2652 367.655Z" stroke="#26ad50" stroke-opacity="0.2"/>
<line y1="-0.5" x2="89.8909" y2="-0.5" transform="matrix(-0.609692 0.792838 -0.792672 -0.609389 145.083 258.316)" stroke="#26ad50"/>
<path d="M91.6756 362.541L99.0242 368.454L88.459 381.525L81.4025 375.848L82.8908 374.006L87.7746 377.936L90.7659 374.235L86.2654 370.614L87.7463 368.782L92.2468 372.403L95.3707 368.538L90.1947 364.373L91.6756 362.541ZM82.0996 354.836L89.3478 360.668L78.7826 373.739L76.6099 371.991L85.6943 360.752L80.6187 356.668L82.0996 354.836ZM66.1427 341.996L68.297 343.73L61.4599 352.189C60.8999 352.882 60.1721 353.695 59.2765 354.629L59.313 354.659C59.9086 354.195 60.3588 353.881 60.6636 353.715L72.4689 347.087L73.966 348.291L70.043 361.141C69.9217 361.515 69.6861 362.042 69.3363 362.724L69.3728 362.753C69.7465 362.191 70.4123 361.318 71.3701 360.133L78.1925 351.692L80.2008 353.308L69.6356 366.38L66.5775 363.919L70.1721 352.445C70.4507 351.565 70.6831 350.93 70.8692 350.538L70.8236 350.502C70.0434 351.007 69.4482 351.371 69.0381 351.592L58.526 357.44L55.5775 355.068L66.1427 341.996ZM52.1575 330.744L54.5401 332.661L53.0285 336.935L58.1771 341.078L61.9983 338.662L64.3717 340.571L48.9044 349.699L46.4579 347.73L52.1575 330.744ZM52.1743 339.166L49.7766 345.842C49.6939 346.056 49.5306 346.376 49.287 346.802L49.3235 346.831C49.6582 346.529 49.9401 346.305 50.1692 346.158L56.1818 342.391L52.1743 339.166Z" fill="#26ad50"/>
<ellipse rx="26.9946" ry="26.9641" transform="matrix(0.709485 -0.703928 0.706313 0.708689 204.745 62.7964)" fill="white"/>
<path d="M223.542 44.1461C233.865 54.5037 233.819 71.2505 223.437 81.5512C213.055 91.8518 196.27 91.8043 185.947 81.4467C175.624 71.089 175.671 54.3422 186.053 44.0415C196.435 33.7409 213.219 33.7884 223.542 44.1461Z" stroke="#26ad50" stroke-opacity="0.2"/>
<line y1="-0.5" x2="89.9031" y2="-0.5" transform="matrix(0.172218 -0.9843 0.985659 0.173122 184.812 176.679)" stroke="#26ad50"/>
<path d="M200.986 55.6134L200.986 72.783L198.266 72.783L198.266 58.9396C197.773 59.2909 197.242 59.5915 196.671 59.8414C196.108 60.0834 195.464 60.2982 194.737 60.4855L194.737 58.1666C195.19 58.0183 195.628 57.8621 196.05 57.6981C196.472 57.5342 196.886 57.3507 197.293 57.1477C197.707 56.9447 198.121 56.7182 198.536 56.4684C198.958 56.2185 199.392 55.9336 199.837 55.6134L200.986 55.6134ZM217.238 72.0802C215.972 72.7361 214.397 73.064 212.513 73.064C210.074 73.064 208.119 72.295 206.65 70.7568C205.18 69.2187 204.445 67.2003 204.445 64.7018C204.445 62.0159 205.27 59.8453 206.919 58.19C208.577 56.5348 210.668 55.7071 213.193 55.7071C214.819 55.7071 216.167 55.9375 217.238 56.3981L217.238 59.1621C216.105 58.4906 214.854 58.1549 213.486 58.1549C211.664 58.1549 210.187 58.7366 209.054 59.9C207.928 61.0633 207.365 62.6171 207.365 64.5613C207.365 66.4117 207.893 67.8874 208.948 68.9883C210.003 70.0814 211.391 70.628 213.111 70.628C214.698 70.628 216.073 70.2532 217.238 69.5036L217.238 72.0802Z" fill="#26ad50"/>
<ellipse rx="35.3635" ry="35.4204" transform="matrix(-0.274296 -0.961485 0.962106 -0.273239 55.3781 128.68)" fill="white"/>
<path d="M45.8152 95.1589C64.3711 89.889 83.694 100.626 88.9752 119.138C94.2564 137.65 83.4969 156.931 64.941 162.2C46.3851 167.47 27.0622 156.734 21.781 138.221C16.4998 119.709 27.2593 100.429 45.8152 95.1589Z" stroke="#26ad50" stroke-opacity="0.2"/>
<path d="M137.427 193.765L81.9999 149.5" stroke="#26ad50"/>
<path d="M49.5295 147.125C49.3217 148.112 48.7954 149.122 47.9504 150.154C46.8565 151.49 45.5575 152.217 44.0534 152.333C42.5494 152.45 41.1111 151.949 39.7387 150.831C38.2633 149.628 37.4409 148.205 37.2715 146.56C37.1056 144.911 37.5889 143.395 38.7213 142.011C39.4506 141.121 40.182 140.485 40.9153 140.104L42.4336 141.342C41.5564 141.662 40.8109 142.197 40.1974 142.947C39.3804 143.945 39.0373 145.014 39.1679 146.156C39.3021 147.294 39.9031 148.298 40.971 149.168C41.9875 149.996 43.0347 150.368 44.1128 150.283C45.1866 150.194 46.1091 149.678 46.8805 148.736C47.5922 147.866 48.0035 146.945 48.1141 145.971L49.5295 147.125ZM49.1673 137.833C48.8785 137.897 48.5956 138.099 48.3187 138.437C47.9575 138.878 47.8554 139.409 48.0124 140.03C48.1693 140.65 48.5909 141.24 49.2771 141.799L52.4294 144.368L51.2092 145.859L44.6216 140.49L45.8417 139L47.1991 140.106L47.2202 140.08C46.8762 139.557 46.6983 139.041 46.6864 138.531C46.6737 138.014 46.8198 137.569 47.1249 137.196C47.3458 136.927 47.5548 136.754 47.752 136.679L49.1673 137.833ZM56.7723 133.181L53.1014 137.665C53.7244 138.144 54.3465 138.341 54.9678 138.254C55.5925 138.164 56.1609 137.806 56.6728 137.18C57.2478 136.478 57.5653 135.662 57.6253 134.733L58.8284 135.713C58.7149 136.621 58.255 137.567 57.4486 138.552C56.6562 139.52 55.7358 140.037 54.6873 140.104C53.6381 140.162 52.5709 139.75 51.4859 138.865C50.4608 138.03 49.8738 137.048 49.7249 135.92C49.5751 134.784 49.8684 133.767 50.6047 132.867C51.341 131.968 52.2003 131.508 53.1825 131.487C54.1647 131.466 55.1704 131.875 56.1997 132.714L56.7723 133.181ZM54.5392 133.76C53.9996 133.328 53.4801 133.115 52.9808 133.122C52.4773 133.126 52.0467 133.346 51.689 133.783C51.3384 134.211 51.1969 134.703 51.2646 135.258C51.3357 135.808 51.5963 136.324 52.0463 136.805L54.5392 133.76ZM64.9569 129.066L63.7736 130.511L62.7442 129.672L62.7232 129.698C63.1407 130.795 62.9901 131.783 62.2713 132.661C61.7419 133.307 61.1505 133.672 60.4973 133.753C59.8476 133.831 59.2333 133.634 58.6543 133.162C57.4105 132.148 57.2712 130.842 58.2364 129.244L59.5586 127.065C58.6193 126.3 57.7851 126.363 57.0558 127.253C56.4142 128.037 56.1058 128.964 56.1308 130.034L54.8249 128.97C54.9812 127.94 55.4309 126.972 56.1743 126.064C57.5346 124.402 59.034 124.239 60.6723 125.574L64.9569 129.066ZM60.5429 127.868L59.6051 129.406C59.3103 129.88 59.1506 130.289 59.1262 130.633C59.101 130.97 59.2793 131.293 59.661 131.604C59.9398 131.832 60.2499 131.92 60.5913 131.87C60.9319 131.812 61.239 131.616 61.5124 131.282C61.8841 130.828 62.0322 130.324 61.9568 129.77C61.8805 129.208 61.6001 128.729 61.1154 128.334L60.5429 127.868ZM69.2197 123.714C69.1271 124.124 68.8862 124.567 68.4971 125.043C67.4522 126.319 66.3165 126.457 65.0899 125.458L61.365 122.422L60.4657 123.52L59.2949 122.566L60.1942 121.468L58.6695 120.225L59.4651 118.389L61.4143 119.977L62.7028 118.403L63.8737 119.358L62.5852 120.931L65.879 123.616C66.2693 123.934 66.6059 124.09 66.8889 124.085C67.1719 124.08 67.4483 123.913 67.7183 123.583C67.9252 123.331 68.0311 123.053 68.036 122.75L69.2197 123.714ZM62.9869 115.24C62.787 115.484 62.5359 115.629 62.2334 115.675C61.9345 115.717 61.6628 115.639 61.4183 115.439C61.1739 115.24 61.0403 114.988 61.0176 114.684C60.9983 114.376 61.0886 114.1 61.2885 113.855C61.4954 113.603 61.7522 113.455 62.0589 113.412C62.3656 113.369 62.6412 113.448 62.8857 113.647C63.1173 113.836 63.2448 114.086 63.2683 114.398C63.2876 114.706 63.1937 114.987 62.9869 115.24ZM71.5625 120.997L70.3423 122.487L63.7547 117.118L64.9748 115.628L71.5625 120.997ZM75.7034 116.253C74.8724 117.268 73.9014 117.83 72.7902 117.938C71.6782 118.039 70.614 117.675 69.5976 116.846C68.491 115.945 67.8845 114.925 67.7781 113.789C67.6751 112.648 68.0619 111.543 68.9384 110.472C69.7799 109.444 70.7379 108.89 71.8125 108.809C72.887 108.727 73.9604 109.124 75.0326 109.998C76.0834 110.854 76.6719 111.851 76.7983 112.99C76.9239 114.12 76.5589 115.208 75.7034 116.253ZM70.0549 111.532C69.5781 112.114 69.4049 112.741 69.5354 113.411C69.6658 114.082 70.0892 114.709 70.8054 115.292C71.4959 115.855 72.1808 116.128 72.8602 116.11C73.5353 116.089 74.1077 115.791 74.5775 115.218C75.0579 114.631 75.2309 114.022 75.0965 113.391C74.9657 112.756 74.54 112.145 73.8195 111.558C73.0947 110.967 72.4053 110.67 71.7512 110.665C71.1007 110.656 70.5353 110.945 70.0549 111.532Z" fill="#26ad50"/>
<ellipse rx="34.8778" ry="34.8989" transform="matrix(0.828227 0.561671 -0.562597 0.825864 318.521 218.412)" fill="white"/>
<path d="M346.993 237.721C336.305 253.411 314.893 257.484 299.168 246.82C283.443 236.157 279.36 214.793 290.048 199.103C300.737 183.413 322.149 179.339 337.874 190.003C353.598 200.667 357.682 222.031 346.993 237.721Z" stroke="#26ad50" stroke-opacity="0.2"/>
<path d="M222.776 218.136L285 218.136" stroke="#26ad50"/>
<path d="M313.307 192.718L325.213 192.281L325.34 195.712C325.501 200.093 323.647 202.355 319.778 202.497C317.94 202.564 316.44 202.011 315.277 200.836C314.12 199.661 313.503 198.052 313.428 196.008L313.307 192.718ZM323.609 194.307L315.048 194.62L315.106 196.195C315.157 197.582 315.579 198.645 316.371 199.385C317.163 200.131 318.257 200.478 319.652 200.427C322.436 200.325 323.775 198.834 323.669 195.956L323.609 194.307ZM324.071 205.277C324.059 204.962 324.151 204.688 324.348 204.454C324.545 204.225 324.801 204.105 325.116 204.094C325.432 204.082 325.699 204.183 325.917 204.396C326.136 204.615 326.251 204.882 326.263 205.197C326.275 205.523 326.18 205.803 325.978 206.037C325.776 206.271 325.517 206.394 325.201 206.406C324.902 206.417 324.641 206.313 324.417 206.094C324.198 205.875 324.083 205.603 324.071 205.277ZM313.818 206.607L313.747 204.684L322.25 204.373L322.321 206.296L313.818 206.607ZM314.151 215.64L314.082 213.776L315.411 213.727L315.409 213.694C314.369 213.146 313.828 212.305 313.787 211.172C313.756 210.338 313.959 209.675 314.395 209.183C314.832 208.697 315.424 208.44 316.171 208.413C317.776 208.354 318.746 209.243 319.079 211.078L319.529 213.584C320.741 213.54 321.326 212.943 321.284 211.794C321.247 210.783 320.865 209.884 320.137 209.097L321.823 209.036C322.387 209.911 322.691 210.935 322.734 212.106C322.813 214.25 321.795 215.36 319.681 215.438L314.151 215.64ZM318.259 213.631L317.944 211.858C317.852 211.308 317.701 210.896 317.491 210.622C317.287 210.353 316.939 210.227 316.446 210.245C316.087 210.258 315.795 210.396 315.572 210.659C315.355 210.927 315.254 211.276 315.27 211.707C315.291 212.293 315.514 212.769 315.938 213.135C316.367 213.507 316.894 213.681 317.52 213.658L318.259 213.631ZM314.484 217.454L316.269 217.388C315.747 218.127 315.502 218.93 315.534 219.797C315.577 220.957 315.942 221.525 316.628 221.5C316.822 221.493 316.983 221.437 317.112 221.332C317.247 221.228 317.364 221.088 317.463 220.913C317.562 220.743 317.649 220.541 317.723 220.306C317.798 220.076 317.883 219.819 317.977 219.533C318.103 219.18 318.238 218.86 318.383 218.572C318.527 218.29 318.693 218.052 318.88 217.857C319.073 217.667 319.292 217.521 319.537 217.418C319.783 217.315 320.072 217.257 320.404 217.245C320.814 217.23 321.177 217.314 321.494 217.496C321.817 217.677 322.089 217.928 322.312 218.246C322.539 218.564 322.714 218.928 322.834 219.339C322.96 219.749 323.031 220.175 323.047 220.617C323.076 221.402 322.983 222.108 322.768 222.735L321.082 222.797C321.47 222.185 321.649 221.493 321.621 220.719C321.612 220.476 321.579 220.256 321.522 220.059C321.465 219.867 321.39 219.704 321.296 219.569C321.202 219.434 321.09 219.331 320.96 219.258C320.836 219.185 320.699 219.151 320.549 219.157C320.367 219.163 320.213 219.208 320.088 219.29C319.964 219.372 319.855 219.489 319.761 219.642C319.672 219.8 319.59 219.986 319.515 220.199C319.445 220.417 319.369 220.666 319.285 220.946C319.149 221.316 319.009 221.647 318.864 221.94C318.72 222.239 318.552 222.494 318.36 222.706C318.174 222.917 317.953 223.083 317.697 223.203C317.446 223.323 317.144 223.389 316.789 223.402C316.358 223.418 315.978 223.333 315.649 223.145C315.321 222.958 315.045 222.703 314.823 222.379C314.6 222.055 314.431 221.677 314.316 221.244C314.194 220.817 314.125 220.363 314.107 219.882C314.073 218.954 314.199 218.145 314.484 217.454ZM314.446 229.09C314.398 227.78 314.755 226.719 315.518 225.905C316.286 225.097 317.327 224.669 318.639 224.621C320.067 224.569 321.197 224.934 322.029 225.716C322.862 226.505 323.304 227.589 323.355 228.971C323.404 230.297 323.051 231.344 322.298 232.113C321.545 232.882 320.476 233.292 319.093 233.343C317.736 233.392 316.634 233.032 315.785 232.26C314.942 231.495 314.496 230.438 314.446 229.09ZM321.815 228.911C321.787 228.16 321.502 227.575 320.96 227.158C320.418 226.741 319.685 226.549 318.761 226.583C317.869 226.616 317.175 226.863 316.676 227.323C316.183 227.784 315.95 228.385 315.977 229.125C316.005 229.882 316.279 230.453 316.797 230.838C317.316 231.228 318.04 231.406 318.97 231.372C319.906 231.338 320.62 231.107 321.115 230.679C321.609 230.257 321.842 229.668 321.815 228.911ZM326.065 239.576C326.205 239.311 326.269 239.013 326.256 238.682C326.222 237.748 325.676 237.3 324.619 237.339L323.465 237.381L323.538 239.354L322.026 239.409L321.954 237.445L314.963 237.701L314.892 235.779L321.883 235.522L321.83 234.072L323.341 234.017L323.394 235.467L324.773 235.416C325.669 235.384 326.386 235.651 326.922 236.217C327.464 236.784 327.751 237.506 327.784 238.385C327.801 238.86 327.762 239.238 327.667 239.518L326.065 239.576ZM315.353 245.82C315.151 245.451 315.039 244.96 315.016 244.346C314.956 242.7 315.717 241.848 317.3 241.79L322.108 241.614L322.055 240.196L323.567 240.141L323.619 241.558L325.586 241.486L326.205 243.389L323.689 243.481L323.764 245.511L322.253 245.567L322.178 243.536L317.927 243.692C317.423 243.711 317.067 243.815 316.858 244.005C316.649 244.195 316.552 244.503 316.568 244.929C316.58 245.255 316.684 245.533 316.881 245.764L315.353 245.82Z" fill="#26ad50"/>
<ellipse rx="29.469" ry="29.4917" transform="matrix(-0.796005 -0.606416 0.607316 -0.793603 53.3683 224.275)" fill="white"/>
<path d="M30.3089 206.708C40.0332 194.001 58.2403 191.565 70.9754 201.267C83.7105 210.969 86.1522 229.135 76.4278 241.842C66.7034 254.55 48.4963 256.985 35.7612 247.283C23.0261 237.581 20.5845 219.415 30.3089 206.708Z" stroke="#26ad50" stroke-opacity="0.2"/>
<path d="M128.481 219.094L82.5992 222.559" stroke="#26ad50"/>
<path d="M59.9397 236.427L59.931 243.103L48.0172 243.088L48.0256 236.677L49.7039 236.679L49.6981 241.116L53.0711 241.12L53.0765 237.032L54.7464 237.034L54.741 241.123L58.2637 241.127L58.2698 236.425L59.9397 236.427ZM51.4441 227.417L55.7439 230.251L59.9515 227.462L59.9486 229.693L57.313 231.182C57.1522 231.276 56.9471 231.386 56.6977 231.513L56.6977 231.546C56.7475 231.568 56.9523 231.685 57.312 231.895L59.9437 233.416L59.9408 235.639L55.7739 232.748L51.4335 235.479L51.4364 233.239L54.205 231.775C54.41 231.665 54.6206 231.557 54.8368 231.453L54.8368 231.428L51.4413 229.524L51.4441 227.417ZM59.5706 220.155C59.9629 220.835 60.1585 221.64 60.1573 222.569C60.1556 223.829 59.7611 224.846 58.9735 225.619C58.1805 226.392 57.1553 226.778 55.898 226.776C54.4968 226.775 53.3729 226.358 52.5266 225.528C51.6747 224.692 51.2497 223.577 51.2515 222.184C51.2525 221.41 51.3891 220.727 51.6613 220.136L53.4559 220.138C53.012 220.729 52.7896 221.359 52.7887 222.028C52.7877 222.841 53.0637 223.508 53.6169 224.028C54.1646 224.549 54.8843 224.81 55.776 224.811C56.6567 224.812 57.3521 224.569 57.8623 224.084C58.3725 223.592 58.6281 222.935 58.6292 222.111C58.6301 221.42 58.3845 220.767 57.8924 220.153L59.5706 220.155ZM56.2427 211.044L56.2351 216.833C57.0216 216.812 57.6284 216.572 58.0555 216.114C58.4826 215.65 58.6967 215.014 58.6977 214.207C58.6989 213.3 58.4286 212.468 57.8868 211.71L59.4404 211.712C59.9268 212.486 60.1692 213.51 60.1675 214.781C60.1659 216.031 59.7796 217.012 59.0088 217.724C58.2325 218.431 57.1436 218.783 55.7424 218.781C54.4186 218.78 53.3418 218.388 52.512 217.608C51.6767 216.821 51.2598 215.848 51.2614 214.687C51.2629 213.526 51.6379 212.628 52.3865 211.993C53.135 211.358 54.174 211.041 55.5032 211.043L56.2427 211.044ZM54.8777 212.9C54.1854 212.905 53.6479 213.067 53.2653 213.387C52.8772 213.707 52.6827 214.15 52.682 214.713C52.6813 215.266 52.8828 215.737 53.2866 216.124C53.6905 216.506 54.2191 216.742 54.8726 216.831L54.8777 212.9ZM59.9779 207.284L59.9754 209.216L47.3804 209.2L47.3829 207.267L59.9779 207.284Z" fill="#26ad50"/>
<ellipse rx="37.9685" ry="37.9571" transform="matrix(-0.480007 0.8764 -0.87864 -0.479071 216.424 374.46)" fill="white"/>
<path d="M198.439 407.297C180.263 397.387 173.58 374.651 183.513 356.515C193.446 338.379 216.233 331.712 234.41 341.622C252.586 351.533 259.269 374.269 249.336 392.404C239.403 410.54 216.615 417.207 198.439 407.297Z" stroke="#26ad50" stroke-opacity="0.2"/>
<path d="M187.264 266.29L203.5 345.5" stroke="#26ad50"/>
<path d="M249.691 362.455L251.479 374.211L248.078 374.726C243.735 375.384 241.273 373.803 240.692 369.983C240.416 368.168 240.796 366.618 241.833 365.331C242.871 364.05 244.403 363.256 246.429 362.949L249.691 362.455ZM249.28 372.85L247.994 364.398L246.433 364.634C245.059 364.842 244.048 365.381 243.402 366.251C242.75 367.121 242.528 368.245 242.738 369.622C243.156 372.372 244.792 373.53 247.646 373.098L249.28 372.85ZM238.412 374.555C238.725 374.508 239.008 374.568 239.264 374.737C239.513 374.906 239.662 375.146 239.709 375.457C239.757 375.769 239.687 376.045 239.499 376.286C239.306 376.528 239.054 376.672 238.742 376.72C238.419 376.768 238.129 376.706 237.873 376.532C237.617 376.359 237.465 376.116 237.417 375.805C237.372 375.509 237.446 375.238 237.638 374.991C237.831 374.749 238.089 374.604 238.412 374.555ZM235.922 364.541L237.828 364.252L239.105 372.647L237.199 372.936L235.922 364.541ZM229.546 372.241C229.804 372.387 230.149 372.427 230.582 372.361C231.146 372.276 231.578 371.95 231.879 371.385C232.179 370.819 232.263 370.099 232.13 369.225L231.519 365.208L233.424 364.919L234.702 373.314L232.796 373.603L232.533 371.873L232.5 371.878C232.404 372.496 232.189 372.999 231.855 373.385C231.517 373.777 231.11 374.009 230.633 374.081C230.288 374.134 230.017 374.121 229.821 374.045L229.546 372.241ZM220.783 370.6L226.517 369.731C226.377 368.958 226.048 368.396 225.529 368.044C225.005 367.693 224.343 367.578 223.544 367.699C222.645 367.835 221.862 368.228 221.193 368.877L220.96 367.344C221.653 366.747 222.63 366.353 223.89 366.162C225.127 365.975 226.157 366.207 226.979 366.86C227.797 367.519 228.311 368.54 228.521 369.922C228.72 371.229 228.496 372.35 227.848 373.287C227.196 374.23 226.295 374.789 225.145 374.963C223.995 375.137 223.049 374.903 222.306 374.261C221.564 373.618 221.093 372.641 220.894 371.329L220.783 370.6ZM222.828 371.666C222.937 372.348 223.179 372.854 223.554 373.183C223.93 373.517 224.397 373.642 224.956 373.557C225.504 373.474 225.939 373.204 226.262 372.747C226.579 372.291 226.732 371.734 226.722 371.076L222.828 371.666ZM212.444 368.491C213.059 368.001 213.826 367.687 214.746 367.547C215.995 367.358 217.062 367.593 217.946 368.253C218.832 368.919 219.369 369.872 219.558 371.112C219.769 372.495 219.527 373.667 218.832 374.628C218.133 375.595 217.094 376.183 215.714 376.392C214.947 376.508 214.25 376.476 213.623 376.297L213.354 374.527C214.007 374.875 214.664 374.999 215.327 374.899C216.132 374.777 216.75 374.403 217.182 373.779C217.614 373.16 217.764 372.41 217.63 371.53C217.498 370.661 217.152 370.012 216.594 369.582C216.03 369.153 215.34 369 214.524 369.124C213.839 369.228 213.23 369.569 212.696 370.147L212.444 368.491ZM206.065 369.156C206.409 368.913 206.885 368.746 207.493 368.654C209.125 368.407 210.06 369.065 210.298 370.628L211.021 375.375L212.425 375.162L212.652 376.654L211.248 376.867L211.543 378.81L209.72 379.64L209.342 377.156L207.329 377.461L207.102 375.968L209.115 375.664L208.476 371.466C208.4 370.969 208.256 370.627 208.043 370.441C207.829 370.256 207.512 370.195 207.09 370.259C206.767 370.307 206.502 370.443 206.295 370.664L206.065 369.156ZM197.072 370.426L198.978 370.137L199.18 371.465L199.213 371.46C199.612 370.36 200.394 369.721 201.561 369.545C203.549 369.243 204.724 370.284 205.087 372.667L205.85 377.685L203.944 377.973L203.211 373.153C202.981 371.644 202.283 370.978 201.117 371.155C200.553 371.24 200.121 371.518 199.823 371.988C199.519 372.459 199.419 373.031 199.521 373.703L200.256 378.532L198.35 378.821L197.072 370.426ZM182.006 372.708L183.912 372.419L184.608 376.994C184.742 377.874 184.964 378.492 185.276 378.847C185.583 379.203 186.032 379.336 186.623 379.247C187.121 379.171 187.508 378.858 187.783 378.308C188.052 377.758 188.134 377.136 188.028 376.442L187.337 371.9L189.251 371.61L189.971 376.341C190.209 377.904 190.881 378.602 191.988 378.434C192.502 378.356 192.891 378.057 193.154 377.536C193.411 377.016 193.482 376.382 193.368 375.633L192.677 371.092L194.583 370.803L195.861 379.198L193.955 379.487L193.753 378.158L193.72 378.163C193.266 379.272 192.459 379.914 191.298 380.09C190.718 380.178 190.187 380.094 189.705 379.837C189.218 379.586 188.856 379.213 188.619 378.718C188.17 379.971 187.328 380.692 186.09 380.879C184.239 381.16 183.14 380.16 182.793 377.881L182.006 372.708Z" fill="#26ad50"/>
<g opacity="0.48">
<ellipse rx="38.9219" ry="38.9501" transform="matrix(0.178118 -0.983305 0.984808 0.177588 108.291 45.189)" fill="white"/>
<path d="M115.135 7.40853C136.048 11.1798 149.937 31.152 146.157 52.0173C142.378 72.8825 122.361 86.7406 101.448 82.9694C80.5344 79.1982 66.6456 59.2259 70.4252 38.3607C74.2048 17.4954 94.2217 3.6373 115.135 7.40853Z" stroke="#26ad50" stroke-opacity="0.2"/>
</g>
<line y1="-0.5" x2="100.093" y2="-0.5" transform="matrix(-0.347072 -0.936852 0.938868 -0.346953 158.624 173.2)" stroke="#26ad50"/>
<path d="M86.9848 60.8032L81.7178 50.1406L85.11 48.4725C86.1439 47.9641 87.0729 47.7875 87.8972 47.9429C88.7264 48.0958 89.3198 48.5341 89.6773 49.2578C89.976 49.8626 90.0641 50.4723 89.9415 51.0871C89.8189 51.7019 89.501 52.2526 88.9876 52.7391L89.0023 52.7689C89.7796 52.4914 90.5007 52.4756 91.1659 52.7215C91.8335 52.9601 92.3485 53.4461 92.7109 54.1798C93.1615 55.0919 93.166 56.0077 92.7244 56.9272C92.2828 57.8467 91.5128 58.5765 90.4144 59.1167L86.9848 60.8032ZM84.1863 50.6919L85.6848 53.7256L86.833 53.161C87.4493 52.8579 87.8604 52.4771 88.0664 52.0185C88.2748 51.5525 88.248 51.0543 87.986 50.5239C87.5354 49.6118 86.6988 49.4564 85.4761 50.0576L84.1863 50.6919ZM86.3864 55.1458L88.0539 58.5215L89.5674 57.7773C90.2285 57.4522 90.6632 57.0505 90.8717 56.5721C91.0828 56.0864 91.056 55.5758 90.7916 55.0404C90.2455 53.935 89.2046 53.7599 87.6687 54.5152L86.3864 55.1458ZM92.3425 46.718C92.0592 46.8574 91.7703 46.8854 91.4759 46.8022C91.1865 46.7166 90.972 46.5325 90.8324 46.2499C90.6929 45.9674 90.676 45.683 90.7817 45.3969C90.8925 45.1083 91.0895 44.8944 91.3728 44.755C91.6661 44.6108 91.9611 44.5828 92.2579 44.671C92.5548 44.7591 92.773 44.9445 92.9126 45.227C93.0448 45.4947 93.0567 45.7753 92.9485 46.0688C92.8377 46.3574 92.6357 46.5738 92.3425 46.718ZM97.7507 55.5091L96.021 56.3596L92.2599 48.7456L93.9896 47.895L97.7507 55.5091ZM104.003 52.3329C103.748 52.6676 103.345 52.9707 102.793 53.242C101.312 53.9703 100.221 53.6257 99.5209 52.208L97.3942 47.9028L96.1193 48.5297L95.4509 47.1764L96.7258 46.5495L95.8553 44.7873L97.3425 43.4459L98.4555 45.6989L100.282 44.8007L100.951 46.1539L99.1239 47.0522L101.005 50.8592C101.227 51.3103 101.469 51.5922 101.728 51.7048C101.988 51.8175 102.309 51.7797 102.691 51.5915C102.985 51.4473 103.197 51.2384 103.327 50.9647L104.003 52.3329ZM107.014 43.5329C106.724 43.4719 106.383 43.538 105.99 43.7311C105.478 43.9829 105.165 44.4236 105.049 45.0532C104.934 45.6829 105.072 46.3943 105.464 47.1874L107.264 50.8308L105.534 51.6814L101.773 44.0674L103.503 43.2168L104.278 44.7857L104.308 44.7711C104.212 44.1526 104.265 43.6091 104.466 43.1406C104.67 42.6647 104.988 42.3204 105.42 42.1077C105.733 41.9538 105.995 41.8835 106.205 41.897L107.014 43.5329ZM107.507 39.2607C107.224 39.4001 106.935 39.4281 106.641 39.3449C106.351 39.2593 106.137 39.0752 105.997 38.7926C105.858 38.5101 105.841 38.2257 105.946 37.9396C106.057 37.651 106.254 37.4371 106.537 37.2977C106.831 37.1535 107.126 37.1255 107.423 37.2137C107.719 37.3018 107.938 37.4872 108.077 37.7697C108.209 38.0374 108.221 38.318 108.113 38.6115C108.002 38.9001 107.8 39.1165 107.507 39.2607ZM112.915 48.0518L111.186 48.9023L107.425 41.2883L109.154 40.4377L112.915 48.0518ZM117.803 36.1848L117.163 41.2866L121.534 43.8135L119.528 44.7997L117.022 43.1026C116.867 43.0004 116.677 42.8659 116.452 42.699L116.422 42.7137C116.424 42.7681 116.411 43.0028 116.381 43.4179L116.181 46.4459L114.183 47.4285L114.934 42.42L110.556 39.7485L112.569 38.7586L115.112 40.5857C115.302 40.7202 115.492 40.8609 115.682 41.0078L115.704 40.9968L115.909 37.1161L117.803 36.1848ZM129.146 40.0702L122.436 43.3699L122.028 42.5445C121.862 42.2074 121.754 41.8694 121.704 41.5305C121.651 41.1867 121.641 40.8468 121.673 40.5108C121.702 40.1698 121.767 39.8328 121.868 39.4997C121.967 39.1616 122.085 38.8261 122.223 38.4932C122.359 38.1553 122.505 37.8249 122.66 37.502C122.814 37.1741 122.962 36.8486 123.105 36.5256C123.238 36.2199 123.354 35.9288 123.452 35.6525C123.548 35.3713 123.614 35.0985 123.65 34.8343C123.686 34.57 123.688 34.3105 123.655 34.0557C123.619 33.796 123.538 33.5372 123.41 33.2794C123.271 32.9969 123.105 32.7735 122.912 32.6093C122.723 32.4377 122.514 32.3216 122.286 32.261C122.061 32.1931 121.825 32.1769 121.577 32.2126C121.326 32.2434 121.074 32.3211 120.821 32.4457C120.383 32.6608 119.989 32.9812 119.637 33.4069C119.285 33.8325 119.001 34.3512 118.784 34.963L117.965 33.3049C118.103 33.0338 118.254 32.7837 118.419 32.5548C118.581 32.3209 118.762 32.1056 118.962 31.9089C119.159 31.7074 119.379 31.522 119.623 31.3528C119.867 31.1836 120.138 31.0256 120.436 30.879C120.918 30.6419 121.387 30.4912 121.844 30.427C122.298 30.3579 122.725 30.3788 123.126 30.4897C123.524 30.5958 123.888 30.7955 124.219 31.089C124.554 31.3801 124.839 31.7635 125.074 32.2394C125.287 32.6707 125.425 33.0867 125.487 33.4874C125.551 33.8808 125.558 34.2751 125.506 34.6703C125.459 35.063 125.362 35.4617 125.216 35.8662C125.07 36.2708 124.895 36.6987 124.692 37.1499C124.519 37.5246 124.343 37.8944 124.165 38.2592C123.989 38.6167 123.84 38.9582 123.717 39.2838C123.591 39.6044 123.509 39.9067 123.47 40.1908C123.433 40.4674 123.468 40.7123 123.573 40.9254L123.592 40.9626L128.415 38.5905L129.146 40.0702ZM131.827 25.4993L135.228 32.3846L136.816 31.6037L137.525 33.0388L135.937 33.8197L137.094 36.1619L135.416 36.9868L134.259 34.6446L129.421 37.024L128.704 35.5741C128.899 34.8683 129.085 34.1179 129.26 33.323C129.439 32.5206 129.592 31.7182 129.721 30.9156C129.852 30.1056 129.951 29.3114 130.017 28.5332C130.084 27.755 130.106 27.0297 130.082 26.3572L131.827 25.4993ZM133.55 33.2095L131.339 28.7333C131.278 29.9713 131.159 31.083 130.985 32.0682C130.816 33.051 130.64 33.9386 130.456 34.7311L133.55 33.2095Z" fill="#26ad50"/>
<ellipse cx="174.579" cy="220.469" rx="48.0173" ry="47.9093" fill="#26ad50"/>
<path d="M170.931 234.509H166.853L164.838 228.806H156.025L154.088 234.509H150.025L158.416 212.103H162.603L170.931 234.509ZM163.853 225.775L160.744 216.837C160.65 216.546 160.551 216.077 160.447 215.431H160.385C160.291 216.025 160.187 216.494 160.072 216.837L156.994 225.775H163.853ZM177.728 226.384V234.509H174.025V212.103H180.822C183.395 212.103 185.39 212.702 186.806 213.9C188.223 215.098 188.931 216.785 188.931 218.962C188.931 221.139 188.192 222.921 186.713 224.306C185.233 225.692 183.233 226.384 180.713 226.384H177.728ZM177.728 215.166V223.353H180.135C181.728 223.353 182.942 222.983 183.775 222.244C184.608 221.504 185.025 220.462 185.025 219.119C185.025 216.483 183.494 215.166 180.431 215.166H177.728ZM196.556 234.509H192.728V212.103H196.556V234.509Z" fill="white"/>
</svg>
