<svg width="620" height="426" viewBox="0 0 620 426" fill="none" xmlns="http://www.w3.org/2000/svg">
<g clip-path="url(#clip0)">
<path d="M620.003 425.911H0C6.79332 408.616 19.3395 393.944 37.0251 389.591C62.8969 383.233 90.2757 400.718 116.089 394.143C130.755 390.411 142.301 379.539 154.433 370.508C200.207 336.443 262.927 326.374 317.089 344.406C345.399 353.826 371.196 370.301 400.197 377.302C437.699 386.362 476.917 378.848 515.482 377.61C553.042 376.409 606.857 391.687 620.003 425.911Z" fill="#F3F5FD"/>
<path d="M519.16 296.891C514.729 310.292 499.437 322.199 504.006 332.054C505.743 335.8 507.488 339.718 508.291 343.719C508.812 346.106 508.899 348.566 508.547 350.983C506.899 361.418 497.118 368.35 488.021 373.747C487.46 374.079 486.893 374.418 486.325 374.756C477.706 379.912 468.679 385.848 465.91 395.365C464.373 400.651 465.051 406.304 464.414 411.771C463.811 416.795 462.102 421.624 459.409 425.911H401.32C396.163 420.237 396.592 410.7 400.517 404.01C404.719 396.85 411.815 391.985 418.219 386.691C423.75 382.116 429.143 376.608 431.254 369.891C431.59 368.828 431.838 367.739 431.995 366.636C432.507 363.001 432.23 344.431 438.544 333.001C448.305 315.35 464.137 319.697 468.976 309.739C470.832 305.924 472.431 259.047 503.272 267.707C506.279 268.51 509.091 269.916 511.537 271.838C513.982 273.761 516.01 276.161 517.496 278.892C518.983 281.622 519.897 284.626 520.183 287.721C520.469 290.815 520.121 293.935 519.16 296.891Z" fill="#C1D8ED"/>
<path d="M575.573 370.188C574.688 370.796 573.735 371.302 572.735 371.694C564.414 374.811 541.271 374.466 537.886 382.669C536.293 386.525 535.913 390.782 534.549 394.728C531.454 403.678 523.285 410.388 514.147 412.911C510.859 413.816 507.453 414.238 504.199 415.247C497.914 417.202 492.708 421.135 488.132 425.91H413.11C413.076 420.944 414.3 416.049 416.667 411.68C419.034 407.312 422.468 403.611 426.65 400.92C434.992 395.668 445.529 394.687 453.719 389.2C459.118 385.578 463.002 380.347 466.083 374.562C468.042 370.778 469.774 366.88 471.268 362.89C473.559 356.953 475.954 350.582 481.16 346.905C483.713 345.249 486.544 344.064 489.516 343.408C497.034 341.445 502.815 342.599 508.291 343.719C514.937 345.074 521.139 346.366 529.468 341.95C544.241 334.113 565.84 295.032 587.425 332.164C596.078 347.057 584.137 364.465 575.573 370.188Z" fill="#8DDBE0"/>
<path d="M105.083 296.891C109.514 310.292 124.806 322.199 120.237 332.054C118.5 335.8 116.755 339.718 115.952 343.719C115.431 346.106 115.344 348.566 115.696 350.983C117.344 361.418 127.125 368.35 136.222 373.747C136.783 374.079 137.35 374.418 137.918 374.756C146.537 379.912 155.564 385.848 158.333 395.365C159.87 400.651 159.192 406.304 159.829 411.771C160.432 416.795 162.141 421.624 164.834 425.911H222.923C228.08 420.237 227.651 410.7 223.726 404.01C219.524 396.85 212.428 391.985 206.024 386.691C200.493 382.116 195.1 376.608 192.989 369.891C192.653 368.828 192.405 367.739 192.248 366.636C191.736 363.001 192.013 344.431 185.699 333.001C175.938 315.35 160.106 319.697 155.267 309.739C153.411 305.924 151.812 259.047 120.971 267.707C117.964 268.51 115.152 269.916 112.706 271.838C110.261 273.761 108.233 276.161 106.747 278.892C105.26 281.622 104.346 284.626 104.06 287.721C103.774 290.815 104.122 293.935 105.083 296.891Z" fill="#C1D8ED"/>
<path d="M48.6669 370.188C49.5525 370.796 50.5047 371.302 51.5053 371.694C59.8264 374.811 82.9692 374.466 86.3545 382.669C87.9467 386.525 88.3275 390.782 89.6913 394.728C92.7857 403.678 100.955 410.388 110.093 412.911C113.381 413.816 116.787 414.238 120.041 415.247C126.327 417.202 131.533 421.135 136.108 425.91H211.131C211.164 420.944 209.94 416.049 207.573 411.68C205.206 407.312 201.772 403.611 197.59 400.92C189.248 395.668 178.711 394.687 170.522 389.2C165.122 385.578 161.238 380.347 158.157 374.562C156.198 370.778 154.466 366.88 152.972 362.89C150.681 356.953 148.286 350.582 143.08 346.905C140.527 345.249 137.697 344.064 134.724 343.408C127.206 341.445 121.425 342.599 115.949 343.719C109.303 345.074 103.101 346.366 94.7726 341.95C79.9994 334.113 58.4003 295.032 36.8151 332.164C28.1644 347.057 40.1062 364.465 48.6669 370.188Z" fill="#8DDBE0"/>
<path d="M399.17 6.09717H229.286C216.277 6.09717 205.73 16.6252 205.73 29.6121V396.387C205.73 409.374 216.277 419.902 229.286 419.902H399.17C412.179 419.902 422.725 409.374 422.725 396.387V29.6121C422.725 16.6252 412.179 6.09717 399.17 6.09717Z" fill="white"/>
<path d="M399.171 426H229.286C221.421 425.991 213.882 422.867 208.321 417.316C202.76 411.764 199.632 404.238 199.623 396.387V29.6131C199.632 21.7623 202.76 14.2356 208.321 8.68408C213.882 3.13256 221.421 0.00951086 229.286 0L399.171 0C407.035 0.00951086 414.574 3.13256 420.135 8.68408C425.696 14.2356 428.824 21.7623 428.833 29.6131V396.387C428.824 404.238 425.696 411.764 420.135 417.316C414.574 422.867 407.035 425.991 399.171 426ZM229.286 12.1956C224.66 12.2004 220.225 14.0369 216.953 17.3023C213.682 20.5676 211.842 24.9951 211.837 29.6131V396.387C211.843 401.004 213.682 405.43 216.953 408.695C220.223 411.96 224.657 413.797 229.282 413.802H399.167C403.792 413.797 408.226 411.96 411.497 408.695C414.767 405.43 416.607 401.004 416.612 396.387V29.6131C416.607 24.996 414.767 20.5696 411.497 17.3048C408.226 14.04 403.792 12.2034 399.167 12.1977L229.286 12.1956Z" fill="#DEE8F5"/>
<path d="M277.031 6.09717H351.425V20.5071C351.425 21.9234 351.146 23.3259 350.603 24.6345C350.06 25.9431 349.264 27.132 348.261 28.1335C347.257 29.135 346.066 29.9294 344.755 30.4714C343.445 31.0134 342.04 31.2923 340.621 31.2922H287.835C284.969 31.2922 282.221 30.1558 280.195 28.1331C278.169 26.1103 277.03 23.3669 277.03 20.5064V6.09717H277.031Z" fill="#DEE8F5"/>
<path d="M349.856 95.176C349.856 102.211 347.765 109.087 343.85 114.935C339.934 120.784 334.37 125.342 327.859 128.033C321.349 130.725 314.185 131.428 307.274 130.055C300.363 128.682 294.015 125.294 289.033 120.32C284.051 115.345 280.658 109.007 279.284 102.108C277.91 95.2085 278.616 88.0573 281.313 81.5585C284.011 75.0598 288.578 69.5055 294.437 65.5979C300.297 61.6903 307.185 59.605 314.232 59.6057C318.915 59.588 323.556 60.496 327.887 62.2774C332.218 64.0588 336.152 66.6783 339.464 69.9849C342.776 73.2916 345.399 77.2199 347.183 81.5434C348.966 85.867 349.875 90.5002 349.856 95.176Z" fill="#C1D8ED"/>
<path d="M314.228 98.8409C322.019 98.8409 328.335 92.536 328.335 84.7586C328.335 76.9811 322.019 70.6763 314.228 70.6763C306.437 70.6763 300.122 76.9811 300.122 84.7586C300.122 92.536 306.437 98.8409 314.228 98.8409Z" fill="white"/>
<path d="M339.901 119.835C336.578 123.285 332.592 126.029 328.18 127.904C323.769 129.78 319.024 130.746 314.23 130.747C309.435 130.748 304.69 129.782 300.278 127.908C295.867 126.034 291.879 123.291 288.555 119.842C293.36 109.123 303.058 101.797 314.232 101.797C325.405 101.797 335.097 109.115 339.901 119.835Z" fill="white"/>
<path d="M389.29 156.386H239.165V189.08H389.29V156.386Z" fill="#F8F8F8"/>
<path d="M389.29 156.386H239.165V189.08H389.29V156.386Z" fill="#26ad50"/>
<path d="M389.29 212.893H239.165V245.587H389.29V212.893Z" fill="#C1D8ED"/>
<path d="M495.295 139.221C495.295 139.221 489.728 136.834 489.728 122.233L478.538 121.095C478.538 121.095 480.844 133.997 475.606 138.58L495.295 139.221Z" fill="#EDA59F"/>
<path d="M495.522 116.097C495.121 120.56 493.057 124.924 489.286 126.663C485.186 128.689 480.652 129.683 476.079 129.558C463.93 129.558 464.067 101.971 469.36 96.1784C474.652 90.3857 491.742 92.3823 494.518 101.113C495.952 105.633 495.903 111.85 495.522 116.097Z" fill="#EDA59F"/>
<path d="M477.898 114.124C478.452 114.124 478.901 113.676 478.901 113.123C478.901 112.57 478.452 112.122 477.898 112.122C477.344 112.122 476.895 112.57 476.895 113.123C476.895 113.676 477.344 114.124 477.898 114.124Z" fill="#2F3235"/>
<path d="M479.87 111.139C479.845 111.139 479.821 111.137 479.796 111.134L477.134 110.719C477.071 110.712 477.01 110.692 476.955 110.66C476.9 110.629 476.852 110.587 476.814 110.536C476.776 110.486 476.748 110.428 476.733 110.367C476.717 110.306 476.714 110.242 476.724 110.18C476.734 110.117 476.756 110.057 476.789 110.004C476.823 109.95 476.866 109.903 476.918 109.867C476.97 109.831 477.029 109.805 477.091 109.792C477.152 109.778 477.216 109.778 477.279 109.79L479.941 110.204C480.058 110.222 480.164 110.284 480.238 110.376C480.312 110.469 480.348 110.586 480.339 110.704C480.33 110.822 480.278 110.933 480.191 111.013C480.104 111.094 479.99 111.139 479.872 111.14L479.87 111.139Z" fill="#2F3235"/>
<path d="M470.033 117.373C470.033 118.499 470.481 119.579 471.278 120.375C472.076 121.171 473.158 121.618 474.285 121.618C475.413 121.618 476.495 121.171 477.292 120.375C478.09 119.579 478.538 118.499 478.538 117.373C478.557 116.266 478.135 115.197 477.364 114.4C476.593 113.604 475.537 113.146 474.428 113.127C474.38 113.127 474.333 113.127 474.285 113.127C471.257 113.276 470.033 115.028 470.033 117.373Z" fill="#EDA59F"/>
<path d="M469.997 107.387C467.64 107.369 465.287 107.171 462.959 106.795C462.959 106.795 463.671 88.88 482.73 89.9014C485.204 89.7886 487.684 89.9348 490.128 90.3375C495.857 91.2138 503.978 97.0604 505.289 111.692C505.89 118.405 508.208 124.732 509.976 128.739C510.185 129.209 510.273 129.724 510.232 130.237C510.192 130.75 510.023 131.244 509.742 131.676C509.461 132.107 509.077 132.462 508.624 132.707C508.172 132.953 507.665 133.082 507.149 133.083L466.318 132.758C465.835 132.758 465.359 132.646 464.928 132.429C464.496 132.213 464.122 131.899 463.834 131.512C463.546 131.125 463.352 130.677 463.269 130.202C463.186 129.728 463.215 129.24 463.354 128.779C465.575 121.436 469.641 116.935 469.997 107.387Z" fill="#0F1011"/>
<path d="M398.289 183C398.289 183 388.459 180.279 387.047 178.403C385.635 176.528 389.068 170.215 389.068 170.215C389.068 170.215 379.237 166.197 380.182 164.611C381.3 162.739 393.575 169.44 393.575 169.44C393.575 169.44 390.905 166.289 392.211 165.457C392.748 165.111 393.447 165.488 395.442 167.672C397.716 170.159 401.646 173.69 401.646 173.69L398.289 183Z" fill="#EDA59F"/>
<path d="M447.199 418.436C445.667 405.569 445.667 404.246 445.667 403.811H460.205C460.205 403.767 460.205 403.71 460.205 403.641C460.256 404.716 460.99 411.268 461.64 416.723L447.199 418.436Z" fill="#EDA59F"/>
<path d="M505.124 420.171C505.124 420.171 505.076 405.141 505.076 403.811H519.614C519.614 405.137 519.662 420.121 519.662 420.121L505.124 420.171Z" fill="#EDA59F"/>
<path d="M526.181 236.97C526.181 239.029 525.092 245.914 526.844 246.406C527.895 246.701 529.135 241.568 529.135 241.568" fill="#EDA59F"/>
<path d="M534.453 235.888C534.453 235.888 540.174 249.789 533.648 257.774C533.482 257.978 533.258 258.126 533.006 258.201C532.754 258.275 532.485 258.272 532.234 258.191C531.984 258.11 531.764 257.956 531.603 257.748C531.442 257.541 531.347 257.289 531.332 257.027C531.015 251.643 529.927 240.583 526.371 241.875V233.193" fill="#EDA59F"/>
<path d="M517.554 325.826C516.15 304.14 513.725 267.761 512.534 246.416H512.731L510.681 212.069L458.015 215.314L457.474 218.997L457.289 218.943C451.116 251.606 448.484 287.728 443.48 320.625C443.128 351.109 443.031 383.01 441.836 413.419L467.451 413.855C467.371 384.149 468.106 353.093 468.984 323.338C472.999 300.014 478.639 274.133 483.165 251.064C487.26 296.006 493.364 369.634 497.892 415.184L523.415 413.031L517.554 325.826Z" fill="#55AFFC"/>
<path d="M487.454 425.783C487.081 425.781 486.711 425.706 486.367 425.562C486.023 425.418 485.71 425.207 485.447 424.942C485.184 424.677 484.976 424.364 484.835 424.018C484.694 423.673 484.622 423.304 484.624 422.931C484.624 422.862 484.627 422.793 484.632 422.724C484.674 422.184 484.87 421.668 485.196 421.236C485.522 420.804 485.965 420.474 486.472 420.285L503.394 414.627C503.722 414.519 504.069 414.482 504.412 414.521C504.755 414.559 505.086 414.67 505.382 414.847C507.708 416.459 510.491 417.283 513.321 417.197C515.525 417.041 517.641 416.269 519.427 414.97C519.584 414.842 519.774 414.76 519.976 414.736C520.177 414.711 520.382 414.744 520.565 414.831C520.749 414.918 520.904 415.055 521.012 415.227C521.12 415.398 521.177 415.597 521.177 415.8V424.06C521.177 424.55 520.982 425.021 520.634 425.368C520.286 425.715 519.815 425.91 519.323 425.91H519.315L487.454 425.783Z" fill="#C1D8ED"/>
<path d="M429.489 425.783C429.115 425.781 428.746 425.706 428.402 425.562C428.057 425.417 427.745 425.207 427.482 424.942C427.219 424.677 427.011 424.363 426.87 424.018C426.729 423.673 426.657 423.303 426.659 422.931C426.659 422.861 426.661 422.792 426.667 422.723C426.709 422.184 426.905 421.668 427.231 421.236C427.557 420.804 428 420.473 428.508 420.284L445.428 414.626C445.756 414.518 446.104 414.482 446.447 414.52C446.79 414.558 447.121 414.67 447.417 414.847C449.743 416.458 452.526 417.282 455.356 417.197C457.56 417.041 459.676 416.269 461.462 414.97C461.619 414.841 461.81 414.76 462.011 414.735C462.213 414.711 462.417 414.744 462.601 414.831C462.784 414.918 462.939 415.055 463.047 415.226C463.155 415.398 463.212 415.597 463.212 415.799V424.059C463.212 424.55 463.016 425.021 462.669 425.368C462.321 425.715 461.849 425.91 461.358 425.91H461.35L429.489 425.783Z" fill="#C1D8ED"/>
<path d="M531.268 193.127C531.192 192.618 531.064 192.117 530.886 191.633L514.996 148.5L514.901 148.535C514.21 146.411 513.018 144.484 511.425 142.916C508.262 139.759 502.785 137.716 496.114 137.716C486.184 137.716 472.622 137.737 469.842 137.854C461.351 138.218 457.381 142.017 455.759 147.629L435.902 183.215L401.466 170.426L396.398 184.028L436.679 198.991C438.307 199.597 440.099 199.6 441.729 199C443.359 198.401 444.72 197.237 445.564 195.722L456.645 175.862C456.939 178.685 457.158 181.46 457.189 184.104C457.455 206.542 451.386 210.769 454.377 217.628C457.28 224.28 514.274 227.047 515.036 215.337C515.521 207.888 508.944 201.383 508.944 186.864C508.999 184.105 509.364 181.361 510.033 178.683L516.451 196.103L522.75 238.471L537.682 236.26L531.268 193.127Z" fill="#2F3235"/>
<path d="M314.228 380.05C340.551 380.05 361.89 358.748 361.89 332.47C361.89 306.192 340.551 284.89 314.228 284.89C287.905 284.89 266.566 306.192 266.566 332.47C266.566 358.748 287.905 380.05 314.228 380.05Z" fill="#C1D8ED"/>
<path d="M284.587 311.275C279.121 354.423 314.986 366.184 314.986 366.184C314.986 366.184 347.916 353.676 344.131 311.381C344.131 311.381 324.914 315.421 314.986 300.958C314.986 300.958 307.687 314.978 284.587 311.275Z" fill="#26ad50"/>
<path d="M324.34 328.249H322.9V325.037C322.88 322.754 321.957 320.572 320.333 318.965C318.709 317.359 316.515 316.457 314.229 316.457C311.942 316.457 309.748 317.359 308.124 318.965C306.5 320.572 305.577 322.754 305.557 325.037V328.249H304.118C303.459 328.249 302.828 328.51 302.363 328.975C301.897 329.439 301.636 330.07 301.636 330.727V346.878C301.636 347.535 301.897 348.165 302.363 348.63C302.828 349.095 303.459 349.356 304.118 349.356H324.342C325 349.356 325.631 349.095 326.097 348.63C326.562 348.165 326.824 347.535 326.824 346.878V330.727C326.824 330.401 326.759 330.079 326.635 329.778C326.51 329.478 326.327 329.204 326.096 328.974C325.866 328.744 325.592 328.562 325.291 328.437C324.989 328.313 324.666 328.249 324.34 328.249ZM308.376 325.037C308.393 323.498 309.017 322.028 310.112 320.946C311.208 319.864 312.687 319.257 314.229 319.257C315.77 319.257 317.249 319.864 318.345 320.946C319.441 322.028 320.065 323.498 320.081 325.037V328.249H308.376V325.037Z" fill="white"/>
<path d="M254.014 178.006C256.931 178.006 259.296 175.646 259.296 172.733C259.296 169.821 256.931 167.46 254.014 167.46C251.097 167.46 248.732 169.821 248.732 172.733C248.732 175.646 251.097 178.006 254.014 178.006Z" fill="white"/>
<path d="M269.872 178.006C272.79 178.006 275.155 175.646 275.155 172.733C275.155 169.821 272.79 167.46 269.872 167.46C266.955 167.46 264.59 169.821 264.59 172.733C264.59 175.646 266.955 178.006 269.872 178.006Z" fill="white"/>
<path d="M285.732 178.006C288.65 178.006 291.014 175.646 291.014 172.733C291.014 169.821 288.65 167.46 285.732 167.46C282.815 167.46 280.45 169.821 280.45 172.733C280.45 175.646 282.815 178.006 285.732 178.006Z" fill="white"/>
<path d="M301.592 178.006C304.509 178.006 306.874 175.646 306.874 172.733C306.874 169.821 304.509 167.46 301.592 167.46C298.674 167.46 296.31 169.821 296.31 172.733C296.31 175.646 298.674 178.006 301.592 178.006Z" fill="white"/>
<path d="M317.45 178.006C320.367 178.006 322.732 175.646 322.732 172.733C322.732 169.821 320.367 167.46 317.45 167.46C314.533 167.46 312.168 169.821 312.168 172.733C312.168 175.646 314.533 178.006 317.45 178.006Z" fill="white"/>
<path d="M333.309 178.006C336.227 178.006 338.592 175.646 338.592 172.733C338.592 169.821 336.227 167.46 333.309 167.46C330.392 167.46 328.027 169.821 328.027 172.733C328.027 175.646 330.392 178.006 333.309 178.006Z" fill="white"/>
<path d="M348.603 178.006C351.52 178.006 353.885 175.646 353.885 172.733C353.885 169.821 351.52 167.46 348.603 167.46C345.686 167.46 343.321 169.821 343.321 172.733C343.321 175.646 345.686 178.006 348.603 178.006Z" fill="white"/>
<path d="M254.014 234.512C256.931 234.512 259.296 232.152 259.296 229.239C259.296 226.327 256.931 223.966 254.014 223.966C251.097 223.966 248.732 226.327 248.732 229.239C248.732 232.152 251.097 234.512 254.014 234.512Z" fill="white"/>
<path d="M269.872 234.512C272.79 234.512 275.155 232.152 275.155 229.239C275.155 226.327 272.79 223.966 269.872 223.966C266.955 223.966 264.59 226.327 264.59 229.239C264.59 232.152 266.955 234.512 269.872 234.512Z" fill="white"/>
<path d="M285.732 234.512C288.65 234.512 291.014 232.152 291.014 229.239C291.014 226.327 288.65 223.966 285.732 223.966C282.815 223.966 280.45 226.327 280.45 229.239C280.45 232.152 282.815 234.512 285.732 234.512Z" fill="white"/>
<path d="M301.592 234.512C304.509 234.512 306.874 232.152 306.874 229.239C306.874 226.327 304.509 223.966 301.592 223.966C298.674 223.966 296.31 226.327 296.31 229.239C296.31 232.152 298.674 234.512 301.592 234.512Z" fill="white"/>
<path d="M317.45 234.512C320.367 234.512 322.732 232.152 322.732 229.239C322.732 226.327 320.367 223.966 317.45 223.966C314.533 223.966 312.168 226.327 312.168 229.239C312.168 232.152 314.533 234.512 317.45 234.512Z" fill="white"/>
<path d="M333.309 234.512C336.227 234.512 338.592 232.152 338.592 229.239C338.592 226.327 336.227 223.966 333.309 223.966C330.392 223.966 328.027 226.327 328.027 229.239C328.027 232.152 330.392 234.512 333.309 234.512Z" fill="white"/>
</g>
<defs>
<clipPath id="clip0">
<rect width="620" height="426" fill="white"/>
</clipPath>
</defs>
</svg>
