<svg width="65" height="64" viewBox="0 0 65 64" fill="none" xmlns="http://www.w3.org/2000/svg">
<path d="M7.08272 19.717C8.88799 19.717 10.3567 18.2709 10.3567 16.4933C10.3567 14.7157 8.88799 13.2695 7.08272 13.2695C5.27731 13.2695 3.80859 14.7157 3.80859 16.4933C3.80859 18.2709 5.27731 19.717 7.08272 19.717ZM7.08272 15.1447C7.83796 15.1447 8.45241 15.7497 8.45241 16.4934C8.45241 17.237 7.83796 17.8422 7.08272 17.8422C6.32747 17.8422 5.71289 17.237 5.71289 16.4934C5.71289 15.7497 6.32747 15.1447 7.08272 15.1447Z" fill="#26ad50"/>
<path d="M14.4647 19.717C16.2701 19.717 17.7388 18.2709 17.7388 16.4933C17.7388 14.7157 16.2701 13.2695 14.4647 13.2695C12.6593 13.2695 11.1906 14.7157 11.1906 16.4933C11.1904 18.2709 12.6593 19.717 14.4647 19.717ZM14.4647 15.1447C15.2199 15.1447 15.8345 15.7497 15.8345 16.4934C15.8345 17.237 15.2199 17.8422 14.4647 17.8422C13.7094 17.8422 13.0948 17.2372 13.0948 16.4934C13.0947 15.7497 13.7093 15.1447 14.4647 15.1447Z" fill="#26ad50"/>
<path d="M21.8466 19.717C23.6519 19.717 25.1206 18.2709 25.1206 16.4933C25.1206 14.7157 23.6519 13.2695 21.8466 13.2695C20.0412 13.2695 18.5725 14.7157 18.5725 16.4933C18.5725 18.2709 20.0412 19.717 21.8466 19.717ZM21.8466 15.1447C22.6019 15.1447 23.2163 15.7497 23.2163 16.4934C23.2163 17.237 22.6019 17.8422 21.8466 17.8422C21.0914 17.8422 20.4768 17.2372 20.4768 16.4934C20.4768 15.7497 21.0914 15.1447 21.8466 15.1447Z" fill="#26ad50"/>
<path d="M64.0479 9.81859C64.5738 9.81859 65 9.39884 65 8.88109V6.41859C65 3.80772 62.8427 1.68359 60.191 1.68359H32.9113C30.2597 1.68359 28.1023 3.80772 28.1023 6.41859V9.81997H8.04121C3.60725 9.82009 0 13.3718 0 17.7375V54.3975C0 58.7638 3.60725 62.3162 8.04121 62.3162H50.8485C55.2825 62.3162 58.8897 58.7638 58.8897 54.3975V32.21H60.191C62.8427 32.21 65 30.0858 65 27.475V12.6312C65 12.1135 64.5738 11.6937 64.0479 11.6937C63.5219 11.6937 63.0957 12.1135 63.0957 12.6312V27.475C63.0957 29.052 61.7927 30.335 60.191 30.335H47.9413C47.7538 30.335 47.5705 30.3895 47.4145 30.4916L39.0579 35.9582C38.6676 36.2137 38.3056 36.0726 38.1678 35.9998C38.0298 35.9271 37.709 35.7078 37.709 35.245V31.2725C37.709 30.7547 37.2828 30.335 36.7569 30.335H32.9115C31.3098 30.335 30.0068 29.052 30.0068 27.475V6.41872C30.0068 4.84172 31.3098 3.55872 32.9115 3.55872H60.1911C61.7928 3.55872 63.0958 4.84172 63.0958 6.41872V8.88122C63.0957 9.39884 63.5219 9.81859 64.0479 9.81859ZM56.9854 54.3975C56.9854 57.73 54.2323 60.4412 50.8485 60.4412H8.04121C4.6574 60.4412 1.9043 57.73 1.9043 54.3975V17.7375C1.9043 14.4056 4.6574 11.695 8.04121 11.695H28.1023V21.0425H8.77754C6.03764 21.0425 3.80859 23.2372 3.80859 25.935V54.3987C3.80859 56.6967 5.7073 58.5662 8.04121 58.5662H50.8485C53.1824 58.5662 55.0812 56.6967 55.0812 54.3987V32.21H56.9854V54.3975ZM32.9113 32.21H35.8046V35.245C35.8046 36.2537 36.3655 37.1762 37.2684 37.6526C37.6793 37.8693 38.1292 37.9768 38.5779 37.9768C39.1141 37.9768 39.6483 37.8233 40.112 37.5196L48.2287 32.21H53.1769V54.3987C53.1769 55.6628 52.1323 56.6912 50.8485 56.6912H8.04121C6.75746 56.6912 5.71289 55.6628 5.71289 54.3987V25.935C5.71289 24.2711 7.08767 22.9175 8.77754 22.9175H28.1023V27.4748C28.1023 30.0858 30.2598 32.21 32.9113 32.21Z" fill="#26ad50"/>
<path d="M49.5738 11.7622C49.5722 11.7622 49.5706 11.7622 49.569 11.7622C49.0454 11.7622 48.6195 12.1788 48.617 12.6951L48.6146 13.1673C47.9409 12.6567 47.1204 12.3676 46.2074 12.3676C43.9617 12.3676 41.6387 14.2806 41.6387 17.4817C41.6387 20.4014 43.647 22.7768 46.1156 22.7768C47.1887 22.7768 48.1603 22.3314 48.9147 21.5816C49.0646 21.8802 49.2611 22.1553 49.5003 22.3919C50.0312 22.9173 50.7153 23.2066 51.4264 23.2066C53.4852 23.2066 54.7885 21.7954 55.3219 20.4749C56.1501 18.4247 56.299 16.6971 55.8048 14.8733C55.8021 14.8636 55.7993 14.8538 55.7964 14.8442C55.048 12.4027 53.3738 10.4037 51.0818 9.21519C48.7901 8.02694 46.168 7.79882 43.698 8.57307C41.3577 9.30657 39.4107 10.8881 38.2154 13.0261C37.0199 15.1647 36.7055 17.6304 37.3302 19.9688C37.8713 21.9943 39.0394 23.7417 40.7083 25.0219C42.3154 26.2547 44.3171 26.9641 46.3445 27.0192C46.3534 27.0194 46.3624 27.0196 46.3713 27.0196C46.8849 27.0196 47.3083 26.6167 47.3226 26.1079C47.337 25.5904 46.9228 25.1592 46.3971 25.1449C43.0073 25.0527 40.0362 22.7281 39.1717 19.4919C38.6718 17.6208 38.9247 15.6456 39.8835 13.9302C40.8424 12.2149 42.4021 10.9469 44.2756 10.3598C46.2554 9.73919 48.3575 9.92194 50.1941 10.8743C52.0267 11.8246 53.3665 13.4213 53.9686 15.3716C54.3509 16.7941 54.226 18.1142 53.5521 19.7823C53.3641 20.2482 52.7804 21.3318 51.4263 21.3318C51.1554 21.3318 50.949 21.1676 50.8499 21.0696C50.6189 20.8409 50.482 20.5044 50.4836 20.1694L50.5211 12.7046C50.5239 12.1866 50.0998 11.7647 49.5738 11.7622ZM46.1156 20.9017C44.8785 20.9017 43.543 19.5941 43.543 17.4816C43.543 15.4541 44.8978 14.2424 46.2074 14.2424C47.5771 14.2424 48.5441 15.4958 48.5937 17.3087L48.5921 17.6483C48.5197 19.4592 47.4367 20.9017 46.1156 20.9017Z" fill="#26ad50"/>
<path d="M27.9862 31.4783C26.4457 29.9602 24.4613 29.0375 22.3201 28.8257V28.4185C22.3201 27.9007 21.8939 27.481 21.368 27.481C20.842 27.481 20.4158 27.9007 20.4158 28.4185V28.8253C18.2523 29.0387 16.2518 29.978 14.7046 31.5242C14.3355 31.8931 14.3401 32.4866 14.7146 32.85C15.0891 33.2133 15.6919 33.2091 16.0611 32.8401C17.4706 31.4315 19.3527 30.6552 21.3611 30.6536C21.3634 30.6536 21.3657 30.6538 21.368 30.6538C21.3701 30.6538 21.3723 30.6536 21.3744 30.6536C23.3643 30.6555 25.2337 31.4187 26.6397 32.8041C28.0479 34.1895 28.8234 36.0328 28.8234 37.9946V42.9908H13.9128V37.9946C13.9128 37.1937 14.0429 36.4065 14.2998 35.6548C14.4676 35.1641 14.1994 34.6325 13.701 34.4673C13.2027 34.3022 12.6625 34.5662 12.495 35.057C12.1721 36.0017 12.0085 36.9901 12.0085 37.9946V43.1022C10.2046 43.5261 8.85876 45.1257 8.85876 47.0298C8.85876 49.2567 10.6987 51.0685 12.9605 51.0685H17.0684C17.5049 53.0107 19.2661 54.4682 21.3676 54.4682C23.4695 54.4682 25.2313 53.0107 25.6679 51.0685H29.7757C32.0374 51.0685 33.8774 49.2567 33.8774 47.0297C33.8774 45.1256 32.5317 43.5261 30.7278 43.1022V37.9946C30.7277 35.5317 29.7539 33.2173 27.9862 31.4783ZM21.3676 52.5933C20.3263 52.5933 19.4324 51.9625 19.0573 51.0686H23.679C23.3035 51.9625 22.4092 52.5933 21.3676 52.5933ZM31.973 47.03C31.973 48.223 30.9872 49.1936 29.7756 49.1936H12.9605C11.7489 49.1936 10.7631 48.223 10.7631 47.0298C10.7631 45.8368 11.7489 44.8662 12.9605 44.8662H29.7756C30.9872 44.8663 31.973 45.8368 31.973 47.03Z" fill="#26ad50"/>
</svg>
