<svg width="64" height="66" viewBox="0 0 64 66" fill="none" xmlns="http://www.w3.org/2000/svg">
<g clip-path="url(#clip0)">
<path d="M32.0002 64.4023C45.3182 64.4023 56.1532 53.5673 56.1532 40.2495C56.1532 32.2343 52.2288 25.1186 46.2007 20.7227L47.4097 18.6287C47.5114 18.6281 47.6137 18.6145 47.7145 18.5873C48.0244 18.5043 48.2834 18.3056 48.4434 18.0281L50.9407 13.703C51.2714 13.1298 51.0742 12.3943 50.501 12.0636L47.1594 10.1342C46.5864 9.80347 45.851 10.0003 45.5198 10.5736L43.0225 14.899C42.8023 15.281 42.8165 15.735 43.02 16.0933L41.8145 18.1813C39.6385 17.2098 37.2934 16.5511 34.8368 16.2623V15.5093C37.803 14.3523 39.819 11.4513 39.819 8.22147C39.8192 3.90997 36.3115 0.402344 32.0002 0.402344C27.6888 0.402344 24.1812 3.90997 24.1812 8.22122C24.1812 11.4511 26.1973 14.3522 29.1634 15.5091V16.2625C26.7418 16.5472 24.3907 17.1948 22.1833 18.177L20.9802 16.0932C21.1838 15.7348 21.1979 15.2806 20.9775 14.8983L18.4803 10.5731C18.1493 10.0002 17.4138 9.80322 16.8408 10.1341L13.4994 12.0633C12.9262 12.3941 12.729 13.1296 13.0598 13.7031L15.5567 18.0276C15.7169 18.3056 15.9759 18.5042 16.2858 18.5873C16.3867 18.6143 16.4889 18.628 16.5907 18.6287L17.7945 20.714C17.093 21.2248 16.4162 21.7755 15.7673 22.3647C15.384 22.7128 15.3554 23.3057 15.7035 23.689C16.0514 24.0723 16.6444 24.1007 17.0278 23.7527C21.1329 20.0246 26.4502 17.9715 32 17.9715C44.284 17.9715 54.278 27.9653 54.278 40.2495C54.2782 52.5335 44.2842 62.5273 32.0002 62.5273C19.7162 62.5273 9.72217 52.5335 9.72217 40.2495C9.72217 35.399 11.2535 30.7883 14.1509 26.9162C14.461 26.5017 14.3765 25.9141 13.9619 25.604C13.5477 25.2938 12.9598 25.3783 12.6497 25.793C9.50779 29.9918 7.84717 34.9908 7.84717 40.2495C7.84717 53.5673 18.6822 64.4023 32.0002 64.4023ZM46.8062 12.0952L48.9793 13.35L47.157 16.5062L44.9838 15.2516L46.8062 12.0952ZM44.5617 17.173L45.7042 17.8326L44.6404 19.6751C44.2665 19.4446 43.886 19.224 43.499 19.0136L44.5617 17.173ZM29.6185 9.41734V7.02509H34.3817V9.41734H29.6185ZM26.0562 8.22122C26.0562 4.94384 28.7227 2.27734 32.0002 2.27734C35.2777 2.27734 37.9442 4.94384 37.9442 8.22122C37.9442 10.4213 36.7142 12.4206 34.8369 13.4452V11.2921C35.622 11.2797 36.2568 10.6373 36.2568 9.84934V6.59309C36.2568 5.79747 35.6094 5.15009 34.8138 5.15009H29.1865C28.3909 5.15009 27.7435 5.79747 27.7435 6.59309V9.84934C27.7435 10.6373 28.3784 11.2797 29.1634 11.2921V13.4453C27.2862 12.4206 26.0562 10.4213 26.0562 8.22122ZM15.021 13.3501L17.1942 12.0953L19.0165 15.2517L16.8433 16.5063L15.021 13.3501ZM18.2962 17.8326L19.4385 17.1731L20.4977 19.0075C20.1115 19.2168 19.7307 19.437 19.3555 19.6676L18.2962 17.8326ZM31.0385 16.1156C31.0385 11.2298 31.0385 15.5596 31.0385 11.2925H32.9619V16.1156C32.3142 16.09 31.6759 16.0903 31.0385 16.1156Z" fill="#26ad50"/>
<path d="M32.0003 43.1938C33.6239 43.1938 34.9449 41.873 34.9449 40.2493C34.9449 39.7096 34.7989 39.2035 34.5444 38.768V36.5259C34.5444 36.0081 34.1248 35.5884 33.6069 35.5884C33.089 35.5884 32.6694 36.0081 32.6694 36.5259V37.3815C32.2388 37.2811 31.7867 37.2792 31.3549 37.3761L31.3548 30.3819C31.3548 30.0195 31.6497 29.7246 32.0122 29.7246C32.3747 29.7246 32.6694 30.0195 32.6694 30.3819V32.1509C32.6694 32.6686 33.089 33.0884 33.6069 33.0884C34.1248 33.0884 34.5444 32.6686 34.5444 32.1509V30.3819C34.5444 28.9856 33.4084 27.8496 32.0122 27.8496C30.6158 27.8496 29.4798 28.9856 29.4798 30.3819L29.4799 38.7282C29.2108 39.1725 29.0557 39.6931 29.0557 40.2493C29.0557 41.873 30.3767 43.1938 32.0003 43.1938ZM32.813 39.5549C32.8392 39.5965 32.8685 39.6358 32.9008 39.6726C33.0078 39.8391 33.0699 40.0371 33.0699 40.2492C33.0699 40.839 32.59 41.3187 32.0003 41.3187C31.4105 41.3187 30.9307 40.839 30.9307 40.2492C30.9307 40.0637 30.9782 39.8891 31.0617 39.7368C31.1372 39.6653 31.2008 39.5815 31.2493 39.4885C31.6908 39.0527 32.4078 39.0814 32.813 39.5549Z" fill="#26ad50"/>
<path d="M24.5095 53.2231C24.0608 52.964 23.4876 53.1179 23.2289 53.5663L22.1703 55.3999C21.9798 55.276 21.7913 55.1483 21.6048 55.0166C21.1815 54.7183 20.5968 54.8193 20.2983 55.2424C19.9998 55.6655 20.1009 56.2504 20.524 56.5489C23.8939 58.9256 27.8621 60.1819 31.9999 60.1819C42.9688 60.1819 51.9321 51.2658 51.9321 40.2496C51.9321 29.2826 43.0183 20.3174 31.9999 20.3174C21.0346 20.3174 12.0669 29.2328 12.0669 40.242C12.0669 44.9673 13.7444 49.6599 17.0016 53.3781C17.343 53.7678 17.935 53.8068 18.3246 53.4656C18.714 53.1245 18.7533 52.5321 18.412 52.1428C17.8398 51.4895 17.3185 50.7994 16.8506 50.0785L18.6833 49.0204C19.1316 48.7615 19.2853 48.1881 19.0264 47.7398C18.7676 47.2913 18.1939 47.1378 17.7458 47.3966L15.9129 48.4549C14.767 46.2085 14.0989 43.734 13.9669 41.1871H16.0786C16.5965 41.1871 17.0161 40.7674 17.0161 40.2496C17.0161 39.7319 16.5965 39.3121 16.0786 39.3121H13.9666C14.1005 36.7074 14.7889 34.2466 15.9159 32.0461L17.7458 33.1026C18.1934 33.361 18.767 33.2089 19.0264 32.7595C19.2853 32.3111 19.1316 31.7378 18.6833 31.4789L16.856 30.424C18.2374 28.3023 20.0523 26.4874 22.174 25.106L23.2289 26.9331C23.4891 27.3838 24.0633 27.5341 24.5095 27.2763C24.9579 27.0174 25.1115 26.444 24.8526 25.9956L23.7961 24.1658C25.9966 23.0388 28.4574 22.3504 31.0623 22.2165V24.3285C31.0623 24.8463 31.4819 25.266 31.9998 25.266C32.5176 25.266 32.9373 24.8463 32.9373 24.3285V22.2165C35.542 22.3504 38.0028 23.0388 40.2034 24.1658L39.1469 25.9956C38.888 26.444 39.0416 27.0174 39.49 27.2763C39.9354 27.5336 40.5101 27.3844 40.7706 26.9331L41.8255 25.106C43.9473 26.4874 45.7621 28.3023 47.1435 30.424L45.3163 31.4789C44.8679 31.7378 44.7143 32.3111 44.9731 32.7595C45.2331 33.2101 45.8075 33.3604 46.2538 33.1026L48.0836 32.0461C49.2106 34.2466 49.899 36.7074 50.0329 39.3121H47.9209C47.403 39.3121 46.9834 39.7319 46.9834 40.2496C46.9834 40.7674 47.403 41.1871 47.9209 41.1871H50.0329C49.899 43.7919 49.2106 46.2526 48.0836 48.4531L46.2538 47.3966C45.805 47.1378 45.2319 47.2914 44.9731 47.7398C44.7143 48.1881 44.8679 48.7615 45.3163 49.0204L47.1435 50.0754C45.7621 52.1971 43.9473 54.012 41.8255 55.3934L40.7706 53.5661C40.5118 53.1176 39.9381 52.964 39.49 53.223C39.0416 53.4819 38.888 54.0553 39.1469 54.5036L40.2034 56.3335C38.0029 57.4605 35.5421 58.1489 32.9373 58.2828V56.1706C32.9373 55.6529 32.5176 55.2331 31.9998 55.2331C31.4819 55.2331 31.0623 55.6529 31.0623 56.1706V58.2829C28.5093 58.1528 26.0443 57.4918 23.7926 56.3395L24.8526 54.5035C25.1116 54.0554 24.9579 53.482 24.5095 53.2231Z" fill="#26ad50"/>
<path d="M27.5981 49.2949C27.5981 51.7222 29.5729 53.6969 32.0001 53.6969C34.4274 53.6969 36.4021 51.7222 36.4021 49.2949C36.4021 46.8677 34.4274 44.8931 32.0001 44.8931C29.5729 44.8931 27.5981 46.8677 27.5981 49.2949ZM32.0001 46.7681C33.3935 46.7681 34.5271 47.9016 34.5271 49.2949C34.5271 50.6883 33.3936 51.8219 32.0001 51.8219C30.6066 51.8219 29.4731 50.6883 29.4731 49.2949C29.4731 47.9016 30.6068 46.7681 32.0001 46.7681Z" fill="#26ad50"/>
</g>
<defs>
<clipPath id="clip0">
<rect width="64" height="65.2468" fill="white" transform="translate(0 0.402344)"/>
</clipPath>
</defs>
</svg>
