<svg width="65" height="65" viewBox="0 0 65 65" fill="none" xmlns="http://www.w3.org/2000/svg">
<path d="M58.0811 56.4297V25.5801H60.874V21.1635L33.4521 11.3881V8.06055H43.2275V0.0625H31.5056V11.4042L4.25293 21.1646V25.5801H7.0459V56.4297H0V58.334H65V56.4297H58.0811ZM33.4521 1.9668H41.3232V6.15625H33.4521V1.9668ZM6.15723 23.6758V22.5053L32.5008 13.0708L58.9697 22.5064V23.6758H6.15723ZM10.8545 56.4297H8.9502V32.8164H10.8545V56.4297ZM16.1104 56.4297H12.7588V32.8164H16.1104V56.4297ZM19.9189 56.4297H18.0146V32.8164H19.9189V56.4297ZM25.1748 56.4297H21.8232V32.8164H25.1748V56.4297ZM28.9834 56.4297H27.0791V32.8164H28.9834V56.4297ZM34.2393 56.4297H30.8877V32.8164H34.2393V56.4297ZM38.0479 56.4297H36.1436V32.8164H38.0479V56.4297ZM43.3037 56.4297H39.9521V32.8164H43.3037V56.4297ZM47.1123 56.4297H45.208V32.8164H47.1123V56.4297ZM52.3682 56.4297H49.0166V32.8164H52.3682V56.4297ZM56.1768 56.4297H54.2725V32.8164H56.1768V56.4297ZM56.1768 30.9121H8.9502V25.5801H56.1768V30.9121Z" fill="#26ad50"/>
<path d="M65 59.7314H0V61.6357H65V59.7314Z" fill="#26ad50"/>
<path d="M65 63.0322H0V64.9365H65V63.0322Z" fill="#26ad50"/>
<path d="M33.5156 15.6152H31.6113V17.5195H33.5156V15.6152Z" fill="#26ad50"/>
<path d="M33.5156 19.8047H31.6113V21.709H33.5156V19.8047Z" fill="#26ad50"/>
<path d="M40.5298 19.8047H38.6255V21.709H40.5298V19.8047Z" fill="#26ad50"/>
<path d="M47.5439 19.8047H45.6396V21.709H47.5439V19.8047Z" fill="#26ad50"/>
<path d="M26.5015 19.8047H24.5972V21.709H26.5015V19.8047Z" fill="#26ad50"/>
<path d="M19.4873 19.8047H17.583V21.709H19.4873V19.8047Z" fill="#26ad50"/>
<path d="M21.4551 27.2949H19.5508V29.1992H21.4551V27.2949Z" fill="#26ad50"/>
<path d="M13.2666 27.2949H11.3623V29.1992H13.2666V27.2949Z" fill="#26ad50"/>
<path d="M45.4492 27.2949H43.5449V29.1992H45.4492V27.2949Z" fill="#26ad50"/>
<path d="M17.6465 27.2949H15.7422V29.1992H17.6465V27.2949Z" fill="#26ad50"/>
<path d="M25.2637 27.2949H23.3594V29.1992H25.2637V27.2949Z" fill="#26ad50"/>
<path d="M29.6436 27.2949H27.7393V29.1992H29.6436V27.2949Z" fill="#26ad50"/>
<path d="M53.6377 27.2949H51.7334V29.1992H53.6377V27.2949Z" fill="#26ad50"/>
<path d="M49.2578 27.2949H47.3535V29.1992H49.2578V27.2949Z" fill="#26ad50"/>
<path d="M41.6406 27.2949H39.7363V29.1992H41.6406V27.2949Z" fill="#26ad50"/>
<path d="M37.2607 27.2949H35.3564V29.1992H37.2607V27.2949Z" fill="#26ad50"/>
<path d="M33.4522 27.2949H31.5479V29.1992H33.4522V27.2949Z" fill="#26ad50"/>
</svg>
