<svg width="65" height="64" viewBox="0 0 65 64" fill="none" xmlns="http://www.w3.org/2000/svg">
<g clip-path="url(#clip0)">
<path d="M5.28254 53.6371H27.4692V55.8568C25.4087 56.3787 24.0652 58.322 24.3334 60.3928C24.6015 62.4635 26.3976 64.0157 28.5257 64.0157C30.6538 64.0157 32.4499 62.4635 32.7181 60.3928C32.9862 58.322 31.6427 56.3787 29.5822 55.8568V53.6371H31.4755C36.8362 56.3632 43.2047 56.4017 48.5994 53.7407L55.8946 62.4809C57.3898 64.1899 60.0025 64.4153 61.7789 62.9885C63.5553 61.5618 63.8454 59.0049 62.4322 57.23L55.1423 48.4918C59.7052 42.7845 60.4514 34.9898 57.0514 28.5491V7.00331C57.0479 4.14305 54.6849 1.8252 51.7689 1.82178H5.28254C2.36652 1.8252 0.00349294 4.14305 0 7.00331V48.4556C0.00349294 51.3158 2.36652 53.6337 5.28254 53.6371ZM30.6387 59.8549C30.6387 60.9996 29.6927 61.9275 28.5257 61.9275C27.3587 61.9275 26.4127 60.9996 26.4127 59.8549C26.4127 58.7103 27.3587 57.7823 28.5257 57.7823C29.6927 57.7823 30.6387 58.7103 30.6387 59.8549ZM5.28254 51.5645C3.53206 51.5645 2.11302 50.1726 2.11302 48.4556V37.0562H21.1302C21.1368 38.0985 21.2326 39.1385 21.4165 40.1651H14.7911C14.2076 40.1651 13.7346 40.6291 13.7346 41.2014C13.7346 41.7737 14.2076 42.2377 14.7911 42.2377H21.8919C22.3213 43.6868 22.9298 45.0788 23.7038 46.3829H6.33905C5.75556 46.3829 5.28254 46.8469 5.28254 47.4192C5.28254 47.9916 5.75556 48.4556 6.33905 48.4556H25.128C26.0332 49.6053 27.0709 50.6486 28.2204 51.5645H5.28254ZM2.11302 20.4753H31.4755C29.8494 21.2974 28.3522 22.3444 27.0297 23.5842H14.7911C14.2076 23.5842 13.7346 24.0482 13.7346 24.6205C13.7346 25.1928 14.2076 25.6568 14.7911 25.6568H25.128C24.1151 26.9266 23.2745 28.32 22.6272 29.802H6.33905C5.75556 29.802 5.28254 30.266 5.28254 30.8383C5.28254 31.4107 5.75556 31.8747 6.33905 31.8747H21.8919C21.5902 32.8912 21.3781 33.9314 21.258 34.9836H2.11302V20.4753ZM60.7989 58.543C61.537 59.4285 61.4041 60.7332 60.502 61.4581C59.5917 62.1567 58.2821 62.0288 57.53 61.1679L50.4641 52.7044C51.6512 51.9514 52.7496 51.0718 53.7393 50.0815L60.7989 58.543ZM40.1473 53.6371C30.8114 53.6371 23.2432 46.2136 23.2432 37.0562C23.2432 27.8988 30.8114 20.4753 40.1473 20.4753C49.4832 20.4753 57.0514 27.8988 57.0514 37.0562C57.0404 46.2091 49.4786 53.6262 40.1473 53.6371ZM48.8191 20.4753H54.9384V25.3573C53.2667 23.3305 51.1826 21.6678 48.8191 20.4753ZM5.28254 3.89439H51.7689C53.5194 3.89439 54.9384 5.2863 54.9384 7.00331V18.4027H2.11302V7.00331C2.11302 5.2863 3.53206 3.89439 5.28254 3.89439Z" fill="#26ad50"/>
<path d="M6.33873 9.07603H10.5648C11.1483 9.07603 11.6213 8.61206 11.6213 8.03972C11.6213 7.46739 11.1483 7.00342 10.5648 7.00342H6.33873C5.75524 7.00342 5.28223 7.46739 5.28223 8.03972C5.28223 8.61206 5.75524 9.07603 6.33873 9.07603Z" fill="#26ad50"/>
<path d="M14.7909 9.07603H50.7121C51.2956 9.07603 51.7687 8.61206 51.7687 8.03972C51.7687 7.46739 51.2956 7.00342 50.7121 7.00342H14.7909C14.2074 7.00342 13.7344 7.46739 13.7344 8.03972C13.7344 8.61206 14.2074 9.07603 14.7909 9.07603Z" fill="#26ad50"/>
<path d="M6.33873 25.6571H10.5648C11.1483 25.6571 11.6213 25.1931 11.6213 24.6208C11.6213 24.0484 11.1483 23.5845 10.5648 23.5845H6.33873C5.75524 23.5845 5.28223 24.0484 5.28223 24.6208C5.28223 25.1931 5.75524 25.6571 6.33873 25.6571Z" fill="#26ad50"/>
<path d="M6.33873 42.2376H10.5648C11.1483 42.2376 11.6213 41.7737 11.6213 41.2013C11.6213 40.629 11.1483 40.165 10.5648 40.165H6.33873C5.75524 40.165 5.28223 40.629 5.28223 41.2013C5.28223 41.7737 5.75524 42.2376 6.33873 42.2376Z" fill="#26ad50"/>
<path d="M6.33873 15.2938H50.7121C51.2956 15.2938 51.7686 14.8298 51.7686 14.2575C51.7686 13.6852 51.2956 13.2212 50.7121 13.2212H6.33873C5.75524 13.2212 5.28223 13.6852 5.28223 14.2575C5.28223 14.8298 5.75524 15.2938 6.33873 15.2938Z" fill="#26ad50"/>
<path d="M40.1472 22.5479C34.6257 22.553 29.5669 25.5743 27.0275 30.3834C27.0127 30.4124 26.9968 30.4393 26.9841 30.4704C25.1828 33.8998 24.8626 37.8956 26.0956 41.5589C26.1041 41.5807 26.1104 41.6024 26.1199 41.6231C28.4998 48.662 35.9084 52.8074 43.2968 51.2342C50.6851 49.6611 55.6747 42.8759 54.8652 35.5027C54.0556 28.1294 47.7076 22.5419 40.1472 22.5479ZM40.1472 24.6205C46.327 24.631 51.6002 29.0073 52.634 34.9835H27.6603C27.8443 33.9095 28.1726 32.8641 28.6365 31.8746H47.5427C48.1262 31.8746 48.5992 31.4106 48.5992 30.8383C48.5992 30.266 48.1262 29.802 47.5427 29.802H29.8705C32.2457 26.5525 36.0709 24.6238 40.1472 24.6205ZM40.1472 49.4918C35.1959 49.4842 30.7015 46.6518 28.6365 42.2377H47.5427C48.1262 42.2377 48.5992 41.7737 48.5992 41.2014C48.5992 40.629 48.1262 40.1651 47.5427 40.1651H27.8917C27.6168 39.1506 27.4748 38.1058 27.4691 37.0561H52.8253C52.8177 43.9211 47.146 49.4844 40.1472 49.4918Z" fill="#26ad50"/>
</g>
<defs>
<clipPath id="clip0">
<rect width="65" height="64" fill="white"/>
</clipPath>
</defs>
</svg>
