<svg width="64" height="64" viewBox="0 0 64 64" fill="none" xmlns="http://www.w3.org/2000/svg">
<path d="M58 6H6C4.67441 6.00159 3.40356 6.52888 2.46622 7.46622C1.52888 8.40356 1.00159 9.67441 1 11V53C1.00159 54.3256 1.52888 55.5964 2.46622 56.5338C3.40356 57.4711 4.67441 57.9984 6 58H58C59.3256 57.9984 60.5964 57.4711 61.5338 56.5338C62.4711 55.5964 62.9984 54.3256 63 53V11C62.9984 9.67441 62.4711 8.40356 61.5338 7.46622C60.5964 6.52888 59.3256 6.00159 58 6ZM6 8H58C58.7957 8 59.5587 8.31607 60.1213 8.87868C60.6839 9.44129 61 10.2044 61 11V18H3V11C3 10.2044 3.31607 9.44129 3.87868 8.87868C4.44129 8.31607 5.20435 8 6 8ZM58 56H6C5.20435 56 4.44129 55.6839 3.87868 55.1213C3.31607 54.5587 3 53.7957 3 53V20H61V53C61 53.7957 60.6839 54.5587 60.1213 55.1213C59.5587 55.6839 58.7957 56 58 56Z" fill="#26ad50"/>
<path d="M8 16C8.59334 16 9.17336 15.8241 9.66671 15.4944C10.1601 15.1648 10.5446 14.6962 10.7716 14.1481C10.9987 13.5999 11.0581 12.9967 10.9424 12.4147C10.8266 11.8328 10.5409 11.2982 10.1213 10.8787C9.70176 10.4591 9.16721 10.1734 8.58527 10.0576C8.00333 9.94189 7.40013 10.0013 6.85195 10.2284C6.30377 10.4554 5.83524 10.8399 5.50559 11.3333C5.17595 11.8266 5 12.4067 5 13C5 13.7957 5.31607 14.5587 5.87868 15.1213C6.44129 15.6839 7.20435 16 8 16ZM8 12C8.19778 12 8.39112 12.0587 8.55557 12.1685C8.72002 12.2784 8.84819 12.4346 8.92388 12.6173C8.99957 12.8 9.01937 13.0011 8.98078 13.1951C8.9422 13.3891 8.84696 13.5673 8.7071 13.7071C8.56725 13.847 8.38907 13.9422 8.19509 13.9808C8.00111 14.0194 7.80004 13.9996 7.61732 13.9239C7.43459 13.8482 7.27841 13.72 7.16853 13.5556C7.05865 13.3911 7 13.1978 7 13C7 12.7348 7.10536 12.4804 7.29289 12.2929C7.48043 12.1054 7.73478 12 8 12Z" fill="#26ad50"/>
<path d="M15 16C15.5933 16 16.1734 15.8241 16.6667 15.4944C17.1601 15.1648 17.5446 14.6962 17.7716 14.1481C17.9987 13.5999 18.0581 12.9967 17.9424 12.4147C17.8266 11.8328 17.5409 11.2982 17.1213 10.8787C16.7018 10.4591 16.1672 10.1734 15.5853 10.0576C15.0033 9.94189 14.4001 10.0013 13.8519 10.2284C13.3038 10.4554 12.8352 10.8399 12.5056 11.3333C12.1759 11.8266 12 12.4067 12 13C12 13.7957 12.3161 14.5587 12.8787 15.1213C13.4413 15.6839 14.2043 16 15 16ZM15 12C15.1978 12 15.3911 12.0587 15.5556 12.1685C15.72 12.2784 15.8482 12.4346 15.9239 12.6173C15.9996 12.8 16.0194 13.0011 15.9808 13.1951C15.9422 13.3891 15.847 13.5673 15.7071 13.7071C15.5673 13.847 15.3891 13.9422 15.1951 13.9808C15.0011 14.0194 14.8 13.9996 14.6173 13.9239C14.4346 13.8482 14.2784 13.72 14.1685 13.5556C14.0586 13.3911 14 13.1978 14 13C14 12.7348 14.1054 12.4804 14.2929 12.2929C14.4804 12.1054 14.7348 12 15 12Z" fill="#26ad50"/>
<path d="M22 16C22.5933 16 23.1734 15.8241 23.6667 15.4944C24.1601 15.1648 24.5446 14.6962 24.7716 14.1481C24.9987 13.5999 25.0581 12.9967 24.9424 12.4147C24.8266 11.8328 24.5409 11.2982 24.1213 10.8787C23.7018 10.4591 23.1672 10.1734 22.5853 10.0576C22.0033 9.94189 21.4001 10.0013 20.8519 10.2284C20.3038 10.4554 19.8352 10.8399 19.5056 11.3333C19.1759 11.8266 19 12.4067 19 13C19 13.7957 19.3161 14.5587 19.8787 15.1213C20.4413 15.6839 21.2043 16 22 16ZM22 12C22.1978 12 22.3911 12.0587 22.5556 12.1685C22.72 12.2784 22.8482 12.4346 22.9239 12.6173C22.9996 12.8 23.0194 13.0011 22.9808 13.1951C22.9422 13.3891 22.847 13.5673 22.7071 13.7071C22.5673 13.847 22.3891 13.9422 22.1951 13.9808C22.0011 14.0194 21.8 13.9996 21.6173 13.9239C21.4346 13.8482 21.2784 13.72 21.1685 13.5556C21.0586 13.3911 21 13.1978 21 13C21 12.7348 21.1054 12.4804 21.2929 12.2929C21.4804 12.1054 21.7348 12 22 12Z" fill="#26ad50"/>
<path d="M56 16C56.4455 15.9983 56.8848 15.8957 57.285 15.7L58.293 16.708L59.707 15.294L58.7 14.285C58.8957 13.8848 58.9983 13.4455 59 13C59 12.4067 58.8241 11.8266 58.4944 11.3333C58.1648 10.8399 57.6962 10.4554 57.1481 10.2284C56.5999 10.0013 55.9967 9.94189 55.4147 10.0576C54.8328 10.1734 54.2982 10.4591 53.8787 10.8787C53.4591 11.2982 53.1734 11.8328 53.0576 12.4147C52.9419 12.9967 53.0013 13.5999 53.2284 14.1481C53.4554 14.6962 53.8399 15.1648 54.3333 15.4944C54.8266 15.8241 55.4067 16 56 16ZM56 12C56.1978 12 56.3911 12.0587 56.5556 12.1685C56.72 12.2784 56.8482 12.4346 56.9239 12.6173C56.9996 12.8 57.0194 13.0011 56.9808 13.1951C56.9422 13.3891 56.847 13.5673 56.7071 13.7071C56.5673 13.847 56.3891 13.9422 56.1951 13.9808C56.0011 14.0194 55.8001 13.9996 55.6173 13.9239C55.4346 13.8482 55.2784 13.72 55.1685 13.5556C55.0587 13.3911 55 13.1978 55 13C55 12.7348 55.1054 12.4804 55.2929 12.2929C55.4804 12.1054 55.7348 12 56 12Z" fill="#26ad50"/>
<path d="M30 16H48C48.7956 16 49.5587 15.6839 50.1213 15.1213C50.6839 14.5587 51 13.7956 51 13C51 12.2044 50.6839 11.4413 50.1213 10.8787C49.5587 10.3161 48.7956 10 48 10H30C29.2044 10 28.4413 10.3161 27.8787 10.8787C27.3161 11.4413 27 12.2044 27 13C27 13.7956 27.3161 14.5587 27.8787 15.1213C28.4413 15.6839 29.2044 16 30 16ZM30 12H48C48.2652 12 48.5196 12.1054 48.7071 12.2929C48.8946 12.4804 49 12.7348 49 13C49 13.2652 48.8946 13.5196 48.7071 13.7071C48.5196 13.8946 48.2652 14 48 14H30C29.7348 14 29.4804 13.8946 29.2929 13.7071C29.1054 13.5196 29 13.2652 29 13C29 12.7348 29.1054 12.4804 29.2929 12.2929C29.4804 12.1054 29.7348 12 30 12Z" fill="#26ad50"/>
<path d="M42.293 26.2928L41.154 27.4318C38.4837 25.1075 35.0309 23.883 31.4928 24.0054C27.9548 24.1279 24.5949 25.5881 22.0917 28.0914C19.5884 30.5947 18.1281 33.9546 18.0057 37.4926C17.8832 41.0307 19.1077 44.4834 21.432 47.1538L19.586 48.9998H7V50.9998H20C20.2652 50.9997 20.5195 50.8943 20.707 50.7068L22.846 48.5678C25.2044 50.6247 28.1867 51.8277 31.3122 51.9828C34.4378 52.1379 37.5245 51.2361 40.075 49.4228L41.03 53.2418C41.0794 53.4402 41.1885 53.6186 41.3424 53.7531C41.4964 53.8876 41.6879 53.9717 41.8911 53.9941C42.0943 54.0164 42.2995 53.9759 42.479 53.8781C42.6585 53.7802 42.8037 53.6297 42.895 53.4468L44.746 49.7468L48.446 47.8958C48.6289 47.8045 48.7794 47.6593 48.8773 47.4798C48.9751 47.3003 49.0156 47.0951 48.9933 46.8919C48.9709 46.6886 48.8868 46.4972 48.7523 46.3432C48.6178 46.1892 48.4394 46.0802 48.241 46.0308L44.118 44.9998C45.5784 42.4826 46.2143 39.5713 45.9363 36.6744C45.6583 33.7775 44.4805 31.0403 42.568 28.8468L43.414 27.9998H57V25.9998H43C42.7348 25.9998 42.4805 26.1052 42.293 26.2928ZM24.259 28.8448C26.1594 27.2329 28.5165 26.2559 31 26.0508V35.5858L24.259 28.8448ZM43.553 48.1048C43.3591 48.2016 43.2018 48.3588 43.105 48.5528L42.314 50.1348L41.375 46.3738L45.135 47.3128L43.553 48.1048ZM40.242 44.0298C40.0746 43.9881 39.8992 43.9904 39.733 44.0366C39.5667 44.0827 39.4153 44.1711 39.2933 44.293C39.1713 44.415 39.0829 44.5665 39.0368 44.7328C38.9907 44.899 38.9883 45.0744 39.03 45.2418L39.548 47.3128C37.3829 49.0776 34.668 50.0282 31.8749 49.9993C29.0818 49.9704 26.3871 48.964 24.259 47.1548L27.707 43.7068L26.293 42.2928L22.845 45.7408C21.0084 43.5796 20.0001 40.8359 20.0001 37.9998C20.0001 35.1637 21.0084 32.4199 22.845 30.2588L31.292 38.7058C31.3847 38.7992 31.495 38.8733 31.6165 38.9238C31.7381 38.9743 31.8684 39.0001 32 38.9998H43.957C43.7969 40.9566 43.154 42.8433 42.086 44.4908L40.242 44.0298ZM43.949 36.9998H33V26.0508C35.4832 26.2557 37.8401 27.2327 39.74 28.8448L37.292 31.2928L38.707 32.7068L41.155 30.2588C42.7669 32.1592 43.7439 34.5163 43.949 36.9998Z" fill="#26ad50"/>
<path d="M7 45H12V47H7V45Z" fill="#26ad50"/>
<path d="M44 22H53V24H44V22Z" fill="#26ad50"/>
<path d="M55 22H57V24H55V22Z" fill="#26ad50"/>
<path d="M14 45H16V47H14V45Z" fill="#26ad50"/>
</svg>
