<svg width="65" height="64" viewBox="0 0 65 64" fill="none" xmlns="http://www.w3.org/2000/svg">
<g clip-path="url(#clip0)">
<path d="M32.3731 18.375C31.1095 18.375 29.8524 18.5469 28.6364 18.8862C27.9619 19.0742 27.5702 19.7651 27.7611 20.4292C27.952 21.0938 28.6532 21.4795 29.3287 21.2915C30.319 21.0151 31.3436 20.875 32.3731 20.875C38.5333 20.875 43.545 25.8096 43.545 31.875C43.545 37.9405 38.5333 42.875 32.3731 42.875C26.2129 42.875 21.2012 37.9405 21.2012 31.875C21.2012 29.9468 21.7189 28.0449 22.6978 26.375C23.0484 25.7774 22.8407 25.0127 22.2332 24.6675C21.6262 24.3223 20.8496 24.5274 20.499 25.125C19.2974 27.1743 18.6621 29.5088 18.6621 31.875C18.6621 39.3189 24.8129 45.3751 32.3731 45.3751C39.9332 45.3751 46.084 39.3189 46.084 31.875C46.084 24.4312 39.9332 18.375 32.3731 18.375Z" fill="#26ad50"/>
<path d="M50.1466 33.1251H61.0646C61.7658 33.1251 62.3341 32.5655 62.3341 31.8751V25.4869C63.8114 24.9712 64.8732 23.5816 64.8732 21.9522C64.8732 19.8843 63.1648 18.2022 61.0646 18.2022C58.9644 18.2022 57.256 19.8843 57.256 21.9522C57.256 23.5816 58.3172 24.9712 59.795 25.4869V30.6251H50.1466V19.9419H53.4474C54.1486 19.9419 54.7169 19.3824 54.7169 18.6919V12.9873C56.1947 12.4712 57.256 11.0816 57.256 9.45217C57.256 7.38429 55.5476 5.70216 53.4474 5.70216C51.3472 5.70216 49.6388 7.38429 49.6388 9.45217C49.6388 11.0816 50.7005 12.4712 52.1778 12.9873V17.4419H49.6616C48.8185 15.6343 46.9633 14.375 44.8145 14.375H33.6426V11.8169H38.7208C39.422 11.8169 39.9903 11.2573 39.9903 10.5669V7.16017C41.4681 6.64406 42.5294 5.25441 42.5294 3.62501C42.5294 1.55713 40.821 -0.125 38.7208 -0.125C36.6206 -0.125 34.9122 1.55713 34.9122 3.62501C34.9122 5.25441 35.9734 6.64406 37.4512 7.16017V9.31691H32.3731C31.6719 9.31691 31.1036 9.87648 31.1036 10.5669V14.375H25.7978V6.41066C25.7978 5.72072 25.2295 5.16066 24.5283 5.16066H21.653C21.1293 3.70606 19.7179 2.66065 18.0631 2.66065C15.9629 2.66065 14.2545 4.34327 14.2545 6.41066C14.2545 8.47853 15.9629 10.1607 18.0631 10.1607C19.7179 10.1607 21.1293 9.11574 21.653 7.66066H23.2588V14.375H19.9317C16.9914 14.375 14.5996 16.73 14.5996 19.625V30.3155H9.39455V19.9458C10.8719 19.4297 11.9336 18.0401 11.9336 16.4107C11.9336 14.3428 10.2252 12.6607 8.12502 12.6607C6.02483 12.6607 4.31642 14.3428 4.31642 16.4107C4.31642 18.0406 5.37767 19.4297 6.85548 19.9458V31.5655C6.85548 32.2559 7.4238 32.8155 8.12502 32.8155H14.5996V35.6251H3.68165C2.98043 35.6251 2.41211 36.1846 2.41211 36.8751V43.2628C0.934298 43.7789 -0.126953 45.1681 -0.126953 46.7979C-0.126953 48.8658 1.58146 50.548 3.68165 50.548C5.78183 50.548 7.49025 48.8658 7.49025 46.7979C7.49025 45.1685 6.429 43.7789 4.95118 43.2628V38.1251H14.5996V41.8394H12.5684C11.8672 41.8394 11.2989 42.399 11.2989 43.0894V52.0128C9.82103 52.5289 8.75978 53.9186 8.75978 55.548C8.75978 57.6158 10.4682 59.298 12.5684 59.298C14.6686 59.298 16.377 57.6158 16.377 55.548C16.377 53.9186 15.3152 52.5289 13.8379 52.0128V44.3394H14.5996C14.6016 44.3394 14.6036 44.339 14.6051 44.339C14.7201 47.1349 17.0648 49.3751 19.9317 49.3751H31.1036V51.9332H26.0254C25.3242 51.9332 24.7559 52.4928 24.7559 53.1832V56.59C23.2781 57.1061 22.2168 58.4952 22.2168 60.1251C22.2168 62.193 23.9253 63.8751 26.0254 63.8751C28.1256 63.8751 29.834 62.193 29.834 60.1251C29.834 58.4957 28.7728 57.1061 27.295 56.59V54.4332H32.3731C33.0743 54.4332 33.6426 53.8736 33.6426 53.1832V49.3751H40.2819V52.525C40.2819 53.2154 40.8507 53.775 41.5514 53.775C42.2527 53.775 42.821 53.2154 42.821 52.525V49.3751H44.8145C47.7548 49.3751 50.1466 47.0201 50.1466 44.1251V42.5982H54.9708C55.495 44.0533 56.9059 45.0982 58.5607 45.0982C60.6609 45.0982 62.3693 43.4161 62.3693 41.3482C62.3693 39.2808 60.6609 37.5982 58.5607 37.5982C56.9059 37.5982 55.495 38.6436 54.9708 40.0982H50.1466V33.1251ZM61.0646 20.7022C61.7648 20.7022 62.3341 21.2627 62.3341 21.9522C62.3341 22.6412 61.7648 23.2017 61.0651 23.2022C61.0651 23.2022 61.0651 23.2022 61.0646 23.2022H61.0641C60.3643 23.2017 59.795 22.6412 59.795 21.9522C59.795 21.2627 60.3643 20.7022 61.0646 20.7022ZM53.4474 8.20217C54.1476 8.20217 54.7169 8.76271 54.7169 9.45217C54.7169 10.1411 54.1476 10.7017 53.4479 10.7022C53.4479 10.7022 53.4479 10.7022 53.4474 10.7022H53.4469C52.7471 10.7017 52.1778 10.1411 52.1778 9.45217C52.1778 8.76271 52.7476 8.20217 53.4474 8.20217ZM38.7208 2.37501C39.421 2.37501 39.9903 2.93555 39.9903 3.62501C39.9903 4.31397 39.421 4.87452 38.7213 4.87501C38.7208 4.87501 38.7208 4.87501 38.7208 4.87501C38.7203 4.87501 38.7203 4.87501 38.7198 4.87501C38.0201 4.87452 37.4512 4.31397 37.4512 3.62501C37.4512 2.93555 38.0206 2.37501 38.7208 2.37501ZM18.0631 7.66115C17.3629 7.66115 16.7936 7.10011 16.7936 6.41115C16.7936 5.72169 17.3629 5.16114 18.0631 5.16114C18.7628 5.16114 19.3326 5.72169 19.3326 6.41115C19.3326 7.10011 18.7633 7.66115 18.0631 7.66115ZM8.12502 15.1607C8.82524 15.1607 9.39455 15.7217 9.39455 16.4107C9.39455 17.0996 8.82524 17.6607 8.12551 17.6607C8.12502 17.6607 8.12502 17.6607 8.12502 17.6607C8.12452 17.6607 8.12452 17.6607 8.12402 17.6607C7.42429 17.6602 6.85548 17.0996 6.85548 16.4107C6.85548 15.7217 7.42479 15.1607 8.12502 15.1607ZM3.68165 48.048C2.98142 48.048 2.41211 47.4874 2.41211 46.7979C2.41211 46.109 2.98142 45.5484 3.68115 45.5479H3.68165H3.68214C4.38188 45.5484 4.95118 46.109 4.95118 46.7979C4.95118 47.4874 4.38188 48.048 3.68165 48.048ZM12.5684 56.798C11.8682 56.798 11.2989 56.2374 11.2989 55.548C11.2989 54.859 11.8682 54.2985 12.5679 54.298H12.5684H12.5689C13.2686 54.2985 13.8379 54.859 13.8379 55.548C13.8379 56.2374 13.2681 56.798 12.5684 56.798ZM26.0254 61.3751C25.3252 61.3751 24.7559 60.8146 24.7559 60.1251C24.7559 59.4362 25.3252 58.8756 26.0249 58.8751H26.0254H26.0259C26.7257 58.8756 27.295 59.4362 27.295 60.1251C27.295 60.8146 26.7257 61.3751 26.0254 61.3751ZM58.5607 40.0982C59.2609 40.0982 59.8302 40.6593 59.8302 41.3482C59.8302 42.0377 59.2609 42.5982 58.5607 42.5982C57.861 42.5982 57.2912 42.0377 57.2912 41.3482C57.2912 40.6593 57.861 40.0982 58.5607 40.0982ZM47.6075 44.1251C47.6075 45.6412 46.3543 46.8751 44.8145 46.8751H19.9317C18.3919 46.8751 17.1387 45.6412 17.1387 44.1251V19.625C17.1387 18.1084 18.3919 16.875 19.9317 16.875H44.8145C46.3543 16.875 47.6075 18.1084 47.6075 19.625V44.1251Z" fill="#26ad50"/>
<path d="M55.5169 55.1983V52.5249C55.5169 51.8345 54.9486 51.2749 54.2474 51.2749H50.3074C49.6062 51.2749 49.0378 51.8345 49.0378 52.5249C49.0378 53.2153 49.6062 53.7749 50.3074 53.7749H52.9779V55.1983C51.5 55.7144 50.4388 57.1035 50.4388 58.7334C50.4388 60.8008 52.1472 62.4834 54.2474 62.4834C56.3471 62.4834 58.056 60.8008 58.056 58.7334C58.056 57.1035 56.9942 55.7144 55.5169 55.1983ZM54.2474 59.9834C53.5472 59.9834 52.9779 59.4224 52.9779 58.7334C52.9779 58.044 53.5472 57.4834 54.2474 57.4834C54.9471 57.4834 55.5169 58.044 55.5169 58.7334C55.5169 59.4224 54.9471 59.9834 54.2474 59.9834Z" fill="#26ad50"/>
<path d="M46.6597 51.2749H46.625C45.9243 51.2749 45.3555 51.8345 45.3555 52.5249C45.3555 53.2153 45.9243 53.7749 46.625 53.7749H46.6597C47.3604 53.7749 47.9292 53.2153 47.9292 52.5249C47.9292 51.8345 47.3604 51.2749 46.6597 51.2749Z" fill="#26ad50"/>
<path d="M23.8894 24.1674C24.2003 24.1674 24.5112 24.0556 24.7557 23.8285C25.2745 23.3642 25.3126 22.5731 24.841 22.0624C24.3694 21.5517 23.5665 21.5141 23.0478 21.9784L23.0205 22.0033C22.5102 22.4769 22.4835 23.2714 22.9645 23.7733C23.2149 24.0351 23.5522 24.1674 23.8894 24.1674Z" fill="#26ad50"/>
</g>
<defs>
<clipPath id="clip0">
<rect width="65" height="64" fill="white"/>
</clipPath>
</defs>
</svg>
