<svg width="64" height="64" viewBox="0 0 64 64" fill="none" xmlns="http://www.w3.org/2000/svg">
<path d="M63.0625 1.26221H0.9375C0.419625 1.26221 0 1.68183 0 2.19971V45.1322C0 45.6501 0.419625 46.0697 0.9375 46.0697H23.3529L22.7419 50.6516C22.4424 52.8983 21.5569 55.0251 20.1795 56.821H16.595C15.5211 56.821 14.6475 57.6946 14.6475 58.7685V60.7897C14.6475 61.8636 15.5211 62.7372 16.595 62.7372H47.405C48.4789 62.7372 49.3525 61.8636 49.3525 60.7897V58.7685C49.3525 57.6946 48.4789 56.821 47.405 56.821H43.8204C42.4429 55.0247 41.5575 52.8981 41.258 50.6516L40.647 46.0697H50.0713C50.5891 46.0697 51.0088 45.6501 51.0088 45.1322C51.0088 44.6143 50.5891 44.1947 50.0713 44.1947H1.875V3.13721H62.125V44.1947H54.4463C53.9284 44.1947 53.5088 44.6143 53.5088 45.1322C53.5088 45.6501 53.9284 46.0697 54.4463 46.0697H63.0625C63.5804 46.0697 64 45.6501 64 45.1322V2.19971C64 1.68183 63.5804 1.26221 63.0625 1.26221ZM39.3994 50.8993C39.6808 53.01 40.4145 55.028 41.5397 56.821H30.1875C29.6696 56.821 29.25 57.2406 29.25 57.7585C29.25 58.2763 29.6696 58.696 30.1875 58.696H47.405C47.445 58.696 47.4775 58.7285 47.4775 58.7685V60.7897C47.4775 60.8297 47.445 60.8622 47.405 60.8622H16.595C16.555 60.8622 16.5225 60.8297 16.5225 60.7897V58.7685C16.5225 58.7285 16.555 58.696 16.595 58.696H25.8125C26.3304 58.696 26.75 58.2763 26.75 57.7585C26.75 57.2406 26.3304 56.821 25.8125 56.821H22.4603C23.5855 55.0281 24.3193 53.0101 24.6005 50.8993L25.2445 46.0696H38.7552L39.3994 50.8993Z" fill="#26ad50"/>
<path d="M55.9188 10.2812C55.9188 9.76337 55.4992 9.34375 54.9813 9.34375H50.9407C50.4228 9.34375 50.0032 9.76337 50.0032 10.2812V11.8691H46.9001C46.3822 11.8691 45.9626 12.2888 45.9626 12.8066V14.3945H42.8595C42.3416 14.3945 41.922 14.8141 41.922 15.332V16.9199H38.8188C38.301 16.9199 37.8813 17.3395 37.8813 17.8574V25.4336C37.8813 25.9515 38.301 26.3711 38.8188 26.3711H54.9813C55.4992 26.3711 55.9188 25.9515 55.9188 25.4336V10.2812ZM39.7562 18.7949H41.9218V24.4961H39.7562V18.7949ZM43.7968 17.8574V16.2695H45.9625V24.4961H43.7968V17.8574ZM47.8375 15.332V13.7441H50.0031V24.4963H47.8375V15.332ZM54.0438 24.4963H51.8782V12.8066V11.2188H54.0438V24.4963Z" fill="#26ad50"/>
<path d="M15.8123 5.30322H4.97852C4.46064 5.30322 4.04102 5.72285 4.04102 6.24072V38.5657C4.04102 39.0836 4.46064 39.5032 4.97852 39.5032H59.021C59.5389 39.5032 59.9585 39.0836 59.9585 38.5657V6.24072C59.9585 5.72285 59.5389 5.30322 59.021 5.30322H20.1873C19.6694 5.30322 19.2498 5.72285 19.2498 6.24072C19.2498 6.7586 19.6694 7.17822 20.1873 7.17822H58.0835V37.6282H5.91602V7.17822H15.8123C16.3301 7.17822 16.7498 6.7586 16.7498 6.24072C16.7498 5.72285 16.3301 5.30322 15.8123 5.30322Z" fill="#26ad50"/>
<path d="M25.1088 16.5205C25.1088 16.2403 24.9835 15.9748 24.7673 15.7968L17.191 9.55759C16.8448 9.27247 16.3453 9.27247 15.9992 9.55759L8.42304 15.7968C8.20679 15.9748 8.08154 16.2403 8.08154 16.5205V25.4337C8.08154 25.9516 8.50117 26.3712 9.01904 26.3712H24.1715C24.6894 26.3712 25.109 25.9516 25.109 25.4337V16.5205H25.1088ZM23.2338 24.4962H9.95629V16.9628L16.5949 11.4957L23.2337 16.9628V24.4962H23.2338Z" fill="#26ad50"/>
<path d="M22.1512 29.5469H11.0394C9.40842 29.5469 8.08154 30.8737 8.08154 32.5047C8.08154 34.1356 9.40842 35.4625 11.0394 35.4625H22.1512C23.7822 35.4625 25.109 34.1356 25.109 32.5047C25.109 30.8737 23.7822 29.5469 22.1512 29.5469ZM9.95654 32.5047C9.95654 31.9077 10.4424 31.4219 11.0394 31.4219H15.8639C15.7314 31.7575 15.6577 32.1226 15.6577 32.5047C15.6577 32.8869 15.7313 33.2519 15.8638 33.5875H11.0394C10.4424 33.5875 9.95654 33.1017 9.95654 32.5047ZM22.1512 33.5875H18.6157C18.0187 33.5875 17.5328 33.1017 17.5328 32.5047C17.5328 31.9077 18.0187 31.4219 18.6157 31.4219H22.1512C22.7482 31.4219 23.234 31.9077 23.234 32.5047C23.234 33.1017 22.7482 33.5875 22.1512 33.5875Z" fill="#26ad50"/>
<path d="M28.2119 26.3711H34.7779C35.2958 26.3711 35.7154 25.9515 35.7154 25.4336C35.7154 24.9157 35.2958 24.4961 34.7779 24.4961H28.2119C27.694 24.4961 27.2744 24.9157 27.2744 25.4336C27.2744 25.9515 27.6942 26.3711 28.2119 26.3711Z" fill="#26ad50"/>
<path d="M28.2119 22.3306H34.7779C35.2958 22.3306 35.7154 21.9109 35.7154 21.3931C35.7154 20.8752 35.2958 20.4556 34.7779 20.4556H28.2119C27.694 20.4556 27.2744 20.8752 27.2744 21.3931C27.2744 21.9109 27.6942 22.3306 28.2119 22.3306Z" fill="#26ad50"/>
<path d="M28.2119 18.2896H34.7779C35.2958 18.2896 35.7154 17.8699 35.7154 17.3521C35.7154 16.8342 35.2958 16.4146 34.7779 16.4146H28.2119C27.694 16.4146 27.2744 16.8342 27.2744 17.3521C27.2744 17.8699 27.6942 18.2896 28.2119 18.2896Z" fill="#26ad50"/>
<path d="M28.2119 14.249H34.7779C35.2958 14.249 35.7154 13.8294 35.7154 13.3115C35.7154 12.7936 35.2958 12.374 34.7779 12.374H28.2119C27.694 12.374 27.2744 12.7936 27.2744 13.3115C27.2744 13.8294 27.6942 14.249 28.2119 14.249Z" fill="#26ad50"/>
<path d="M54.9811 33.5874H44.627C44.1091 33.5874 43.6895 34.007 43.6895 34.5249C43.6895 35.0428 44.1091 35.4624 44.627 35.4624H54.9811C55.499 35.4624 55.9186 35.0428 55.9186 34.5249C55.9186 34.007 55.4988 33.5874 54.9811 33.5874Z" fill="#26ad50"/>
<path d="M54.9815 29.5469H48.4155C47.8977 29.5469 47.478 29.9665 47.478 30.4844C47.478 31.0022 47.8977 31.4219 48.4155 31.4219H54.9815C55.4994 31.4219 55.919 31.0022 55.919 30.4844C55.919 29.9665 55.4993 29.5469 54.9815 29.5469Z" fill="#26ad50"/>
</svg>
