<svg width="64" height="64" viewBox="0 0 64 64" fill="none" xmlns="http://www.w3.org/2000/svg">
<path d="M61.0585 56.1128H59.992V28.3C62.4002 26.7503 64 24.0482 64 20.9777C64 20.8146 63.9574 20.6542 63.8765 20.5126L56.4374 7.49409C55.9149 6.57996 54.9362 6.01196 53.8834 6.01196H10.1166C9.06375 6.01196 8.08512 6.57984 7.56262 7.49409L0.1235 20.5126C0.042625 20.6542 0 20.8147 0 20.9777C0 24.0482 1.59975 26.7503 4.008 28.3V56.1128H2.9415C2.42375 56.1128 2.004 56.5326 2.004 57.0503C2.004 57.5681 2.42375 57.9878 2.9415 57.9878H61.0585C61.5764 57.9878 61.996 57.5681 61.996 57.0503C61.996 56.5326 61.5762 56.1128 61.0585 56.1128ZM1.93963 21.9152H4.94513C5.46288 21.9152 5.88263 21.4955 5.88263 20.9777C5.88263 20.46 5.46288 20.0402 4.94513 20.0402H2.553L9.19063 8.42434C9.38013 8.09284 9.73487 7.88696 10.1166 7.88696H53.8834C54.2651 7.88696 54.62 8.09284 54.8094 8.42434L61.4469 20.0402H59.0542C58.5364 20.0402 58.1167 20.46 58.1167 20.9777C58.1167 21.4955 58.5364 21.9152 59.0542 21.9152H62.0602C61.6019 25.2382 58.7437 27.8058 55.2967 27.8058C51.8499 27.8058 48.9931 25.238 48.5346 21.9152H55.0466C55.5645 21.9152 55.9841 21.4955 55.9841 20.9777C55.9841 20.46 55.5645 20.0402 55.0466 20.0402H8.95387C8.43612 20.0402 8.01637 20.46 8.01637 20.9777C8.01637 21.4955 8.43612 21.9152 8.95387 21.9152H15.4653C15.0068 25.238 12.1499 27.8058 8.70312 27.8058C5.25612 27.8058 2.398 25.2382 1.93963 21.9152ZM46.5277 21.9152C46.0692 25.238 43.2124 27.8058 39.7656 27.8058C36.3187 27.8058 33.462 25.238 33.0035 21.9152H46.5277ZM30.9965 21.9152C30.538 25.238 27.6811 27.8058 24.2344 27.8058C20.7876 27.8058 17.9307 25.238 17.4722 21.9152H30.9965ZM53.1068 56.113H42.9576V52.9778H53.1068V56.113ZM53.1068 51.1028H42.9576V33.9395H53.1068V51.1028ZM58.117 56.113H54.9819V33.002C54.9819 32.4842 54.5623 32.0645 54.0444 32.0645H42.0202C41.5024 32.0645 41.0827 32.4842 41.0827 33.002V56.1128H5.883V29.2092C6.76813 29.5133 7.71613 29.6808 8.70312 29.6808C12.09 29.6808 15.0311 27.7363 16.4688 24.905C17.9064 27.7362 20.8475 29.6808 24.2344 29.6808C27.6213 29.6808 30.5624 27.7363 32 24.905C33.4376 27.7362 36.3787 29.6808 39.7656 29.6808C43.1525 29.6808 46.0936 27.7363 47.5312 24.905C48.9689 27.7362 51.91 29.6808 55.2969 29.6808C56.2839 29.6808 57.2319 29.5133 58.117 29.2093V56.113Z" fill="#26ad50"/>
<path d="M37.0101 32.0645H9.95557C9.43782 32.0645 9.01807 32.4842 9.01807 33.002V52.0403C9.01807 52.5581 9.43782 52.9778 9.95557 52.9778H37.0101C37.5279 52.9778 37.9476 52.5581 37.9476 52.0403V33.002C37.9476 32.4841 37.5279 32.0645 37.0101 32.0645ZM36.0726 51.1028H10.8931V33.9395H36.0726V51.1028Z" fill="#26ad50"/>
</svg>
