<svg width="64" height="64" viewBox="0 0 64 64" fill="none" xmlns="http://www.w3.org/2000/svg">
<path d="M23.4515 30.8226C24.8926 27.5313 27.4099 24.6389 30.8804 22.7185C33.5547 21.2373 36.6062 20.4531 39.6963 20.4531C42.2627 20.4531 44.7551 21.0164 47.0249 22.0072V14.1406C47.0253 9.52528 37.2578 5.7832 25.2138 5.7832C13.1661 5.7832 3.40023 9.52528 3.40023 14.1406V22.4995C3.3954 26.8916 12.225 30.4814 23.4515 30.8226ZM25.2089 7.8713C37.1918 7.8713 44.8388 11.5852 44.8388 14.1383C44.8388 16.696 37.1918 20.4064 25.2089 20.4064C13.2236 20.4064 5.57663 16.696 5.57663 14.1383C5.57663 11.5852 13.2236 7.8713 25.2089 7.8713ZM3.39258 35.0393V26.6804C3.39258 30.9109 11.6023 34.397 22.2468 34.9499C21.823 37.7296 22.1216 40.6169 23.2028 43.3543C12.0974 42.9668 3.3954 39.3963 3.39258 35.0393ZM38.4098 54.2193C34.7433 55.2876 30.1756 55.933 25.2089 55.933C13.1612 55.933 3.3954 52.1909 3.3954 47.5729V39.2132C3.3954 43.8331 13.1588 47.5733 25.2089 47.5733C25.3462 47.5733 25.4798 47.5663 25.6171 47.5663C28.6645 51.421 33.3389 53.8433 38.4098 54.2193ZM52.8485 30.1148C48.6672 23.18 39.3779 20.7947 32.135 24.8001C24.895 28.8051 22.405 37.7015 26.5835 44.6362C30.7649 51.5733 40.0589 53.9563 47.299 49.9559C54.5447 45.9532 57.0298 37.0514 52.8485 30.1148ZM28.7591 43.4341C25.2689 37.6521 27.3487 30.2243 33.3905 26.8801C39.4322 23.5405 47.1867 25.5291 50.6769 31.3173C54.1675 37.1054 52.0865 44.5333 46.0448 47.8736C40.0006 51.2193 32.2481 49.2284 28.7591 43.4341ZM56.133 57.3888L49.611 60.9948L44.5889 52.6678L51.1132 49.0595L56.133 57.3888ZM55.4294 63.4457C53.6229 64.4411 51.3242 63.8543 50.2796 62.1236L56.8068 58.5177C57.8485 60.248 57.2311 62.4498 55.4294 63.4457Z" fill="#26ad50"/>
</svg>
