<svg width="64" height="64" viewBox="0 0 64 64" fill="none" xmlns="http://www.w3.org/2000/svg">
<path d="M12.6464 21.6467L11.645 22.6481C11.4438 22.551 11.2234 22.5005 11 22.5002H9C8.60231 22.5007 8.22105 22.6589 7.93984 22.9401C7.65864 23.2213 7.50045 23.6025 7.5 24.0002V26.0002C7.50045 26.3979 7.65864 26.7792 7.93984 27.0604C8.22105 27.3416 8.60231 27.4998 9 27.5002H11C11.3977 27.4998 11.779 27.3416 12.0602 27.0604C12.3414 26.7792 12.4995 26.3979 12.5 26.0002V24.0002C12.4997 23.7769 12.4492 23.5564 12.3522 23.3552L13.3536 22.3538C13.4472 22.26 13.4998 22.1329 13.4997 22.0003C13.4997 21.8678 13.447 21.7407 13.3533 21.6469C13.2596 21.5532 13.1325 21.5005 12.9999 21.5005C12.8674 21.5004 12.7402 21.553 12.6464 21.6467ZM11.5 26.0002C11.4998 26.1328 11.4471 26.2599 11.3534 26.3536C11.2597 26.4473 11.1326 26.5001 11 26.5002H9C8.86744 26.5001 8.74035 26.4473 8.64661 26.3536C8.55288 26.2599 8.50015 26.1328 8.5 26.0002V24.0002C8.50015 23.8677 8.55288 23.7406 8.64661 23.6468C8.74035 23.5531 8.86744 23.5004 9 23.5002H10.7928L9.64642 24.6467C9.55278 24.7405 9.50021 24.8676 9.50026 25.0001C9.50032 25.1327 9.55299 25.2598 9.64672 25.3535C9.74044 25.4472 9.86754 25.4999 10.0001 25.5C10.1326 25.5 10.2598 25.4474 10.3536 25.3538L11.5 24.2074V26.0002Z" fill="#26ad50"/>
<path d="M12.6464 30.6467L11.645 31.6481C11.4438 31.551 11.2234 31.5005 11 31.5002H9C8.60231 31.5007 8.22105 31.6589 7.93984 31.9401C7.65864 32.2213 7.50045 32.6025 7.5 33.0002V35.0002C7.50045 35.3979 7.65864 35.7792 7.93984 36.0604C8.22105 36.3416 8.60231 36.4998 9 36.5002H11C11.3977 36.4998 11.779 36.3416 12.0602 36.0604C12.3414 35.7792 12.4995 35.3979 12.5 35.0002V33.0002C12.4997 32.7768 12.4492 32.5564 12.3522 32.3552L13.3536 31.3538C13.4472 31.26 13.4998 31.1329 13.4997 31.0003C13.4997 30.8678 13.447 30.7407 13.3533 30.6469C13.2596 30.5532 13.1325 30.5005 12.9999 30.5005C12.8674 30.5004 12.7402 30.553 12.6464 30.6467ZM11.5 35.0002C11.4998 35.1328 11.4471 35.2599 11.3534 35.3536C11.2597 35.4473 11.1326 35.5001 11 35.5002H9C8.86744 35.5001 8.74035 35.4473 8.64661 35.3536C8.55288 35.2599 8.50015 35.1328 8.5 35.0002V33.0002C8.50015 32.8677 8.55288 32.7406 8.64661 32.6468C8.74035 32.5531 8.86744 32.5004 9 32.5002H10.7928L9.64642 33.6466C9.55278 33.7404 9.50021 33.8676 9.50026 34.0001C9.50032 34.1327 9.55299 34.2598 9.64672 34.3535C9.74044 34.4472 9.86754 34.4999 10.0001 34.5C10.1326 34.5 10.2598 34.4474 10.3536 34.3538L11.5 33.2074V35.0002Z" fill="#26ad50"/>
<path d="M11 40.5H9C8.60231 40.5005 8.22105 40.6586 7.93984 40.9398C7.65864 41.221 7.50045 41.6023 7.5 42V44C7.50045 44.3977 7.65864 44.779 7.93984 45.0602C8.22105 45.3414 8.60231 45.4995 9 45.5H11C11.3977 45.4995 11.779 45.3414 12.0602 45.0602C12.3414 44.779 12.4995 44.3977 12.5 44V42C12.4995 41.6023 12.3414 41.221 12.0602 40.9398C11.779 40.6586 11.3977 40.5005 11 40.5ZM11.5 44C11.4998 44.1326 11.4471 44.2597 11.3534 44.3534C11.2597 44.4471 11.1326 44.4998 11 44.5H9C8.86744 44.4998 8.74035 44.4471 8.64661 44.3534C8.55288 44.2597 8.50015 44.1326 8.5 44V42C8.50015 41.8674 8.55288 41.7403 8.64661 41.6466C8.74035 41.5529 8.86744 41.5002 9 41.5H11C11.1326 41.5002 11.2597 41.5529 11.3534 41.6466C11.4471 41.7403 11.4998 41.8674 11.5 42V44Z" fill="#26ad50"/>
<path d="M11 49.5H9C8.60231 49.5005 8.22105 49.6586 7.93984 49.9398C7.65864 50.221 7.50045 50.6023 7.5 51V53C7.50045 53.3977 7.65864 53.779 7.93984 54.0602C8.22105 54.3414 8.60231 54.4995 9 54.5H11C11.3977 54.4995 11.779 54.3414 12.0602 54.0602C12.3414 53.779 12.4995 53.3977 12.5 53V51C12.4995 50.6023 12.3414 50.221 12.0602 49.9398C11.779 49.6586 11.3977 49.5005 11 49.5ZM11.5 53C11.4998 53.1326 11.4471 53.2597 11.3534 53.3534C11.2597 53.4471 11.1326 53.4998 11 53.5H9C8.86744 53.4998 8.74035 53.4471 8.64661 53.3534C8.55288 53.2597 8.50015 53.1326 8.5 53V51C8.50015 50.8674 8.55288 50.7403 8.64661 50.6466C8.74035 50.5529 8.86744 50.5002 9 50.5H11C11.1326 50.5002 11.2597 50.5529 11.3534 50.6466C11.4471 50.7403 11.4998 50.8674 11.5 51V53Z" fill="#26ad50"/>
<path d="M26 20.5H15C14.337 20.5 13.7011 20.2366 13.2322 19.7678C12.7634 19.2989 12.5 18.663 12.5 18C12.5 17.337 12.7634 16.7011 13.2322 16.2322C13.7011 15.7634 14.337 15.5 15 15.5H26C26.663 15.5 27.2989 15.7634 27.7678 16.2322C28.2366 16.7011 28.5 17.337 28.5 18C28.5 18.663 28.2366 19.2989 27.7678 19.7678C27.2989 20.2366 26.663 20.5 26 20.5ZM15 16.5C14.6022 16.5 14.2206 16.658 13.9393 16.9393C13.658 17.2206 13.5 17.6022 13.5 18C13.5 18.3978 13.658 18.7794 13.9393 19.0607C14.2206 19.342 14.6022 19.5 15 19.5H26C26.3978 19.5 26.7794 19.342 27.0607 19.0607C27.342 18.7794 27.5 18.3978 27.5 18C27.5 17.6022 27.342 17.2206 27.0607 16.9393C26.7794 16.658 26.3978 16.5 26 16.5H15Z" fill="#26ad50"/>
<path d="M18 18.5H15C14.8674 18.5 14.7402 18.4473 14.6464 18.3536C14.5527 18.2598 14.5 18.1326 14.5 18C14.5 17.8674 14.5527 17.7402 14.6464 17.6464C14.7402 17.5527 14.8674 17.5 15 17.5H18C18.1326 17.5 18.2598 17.5527 18.3536 17.6464C18.4473 17.7402 18.5 17.8674 18.5 18C18.5 18.1326 18.4473 18.2598 18.3536 18.3536C18.2598 18.4473 18.1326 18.5 18 18.5Z" fill="#26ad50"/>
<path d="M26 18.5H20C19.8674 18.5 19.7402 18.4473 19.6464 18.3536C19.5527 18.2598 19.5 18.1326 19.5 18C19.5 17.8674 19.5527 17.7402 19.6464 17.6464C19.7402 17.5527 19.8674 17.5 20 17.5H26C26.1326 17.5 26.2598 17.5527 26.3536 17.6464C26.4473 17.7402 26.5 17.8674 26.5 18C26.5 18.1326 26.4473 18.2598 26.3536 18.3536C26.2598 18.4473 26.1326 18.5 26 18.5Z" fill="#26ad50"/>
<path d="M23.5 24C23.5 23.8674 23.4473 23.7402 23.3535 23.6465C23.2598 23.5527 23.1326 23.5 23 23.5H17C16.8674 23.5 16.7402 23.5527 16.6464 23.6464C16.5527 23.7402 16.5 23.8674 16.5 24C16.5 24.1326 16.5527 24.2598 16.6464 24.3536C16.7402 24.4473 16.8674 24.5 17 24.5H23C23.1326 24.5 23.2598 24.4473 23.3535 24.3535C23.4473 24.2598 23.5 24.1326 23.5 24Z" fill="#26ad50"/>
<path d="M25.5 24C25.5 24.1326 25.5527 24.2598 25.6465 24.3535C25.7402 24.4473 25.8674 24.5 26 24.5H34C34.1326 24.5 34.2598 24.4473 34.3536 24.3536C34.4473 24.2598 34.5 24.1326 34.5 24C34.5 23.8674 34.4473 23.7402 34.3536 23.6464C34.2598 23.5527 34.1326 23.5 34 23.5H26C25.8674 23.5 25.7402 23.5527 25.6465 23.6465C25.5527 23.7402 25.5 23.8674 25.5 24Z" fill="#26ad50"/>
<path d="M14.5 26C14.5 26.1326 14.5527 26.2598 14.6465 26.3535C14.7402 26.4473 14.8674 26.5 15 26.5H20C20.1326 26.5 20.2598 26.4473 20.3536 26.3536C20.4473 26.2598 20.5 26.1326 20.5 26C20.5 25.8674 20.4473 25.7402 20.3536 25.6464C20.2598 25.5527 20.1326 25.5 20 25.5H15C14.8674 25.5 14.7402 25.5527 14.6465 25.6465C14.5527 25.7402 14.5 25.8674 14.5 26Z" fill="#26ad50"/>
<path d="M28 25.5H23C22.8674 25.5 22.7402 25.5527 22.6464 25.6464C22.5527 25.7402 22.5 25.8674 22.5 26C22.5 26.1326 22.5527 26.2598 22.6464 26.3536C22.7402 26.4473 22.8674 26.5 23 26.5H28C28.1326 26.5 28.2598 26.4473 28.3536 26.3536C28.4473 26.2598 28.5 26.1326 28.5 26C28.5 25.8674 28.4473 25.7402 28.3536 25.6464C28.2598 25.5527 28.1326 25.5 28 25.5Z" fill="#26ad50"/>
<path d="M17 32.5C16.8674 32.5 16.7402 32.5527 16.6464 32.6464C16.5527 32.7402 16.5 32.8674 16.5 33C16.5 33.1326 16.5527 33.2598 16.6464 33.3536C16.7402 33.4473 16.8674 33.5 17 33.5H21C21.1326 33.5 21.2598 33.4473 21.3536 33.3536C21.4473 33.2598 21.5 33.1326 21.5 33C21.5 32.8674 21.4473 32.7402 21.3536 32.6464C21.2598 32.5527 21.1326 32.5 21 32.5H17Z" fill="#26ad50"/>
<path d="M15 35.5H18C18.1326 35.5 18.2598 35.4473 18.3536 35.3536C18.4473 35.2598 18.5 35.1326 18.5 35C18.5 34.8674 18.4473 34.7402 18.3536 34.6464C18.2598 34.5527 18.1326 34.5 18 34.5H15C14.8674 34.5 14.7402 34.5527 14.6464 34.6464C14.5527 34.7402 14.5 34.8674 14.5 35C14.5 35.1326 14.5527 35.2598 14.6464 35.3536C14.7402 35.4473 14.8674 35.5 15 35.5Z" fill="#26ad50"/>
<path d="M20.5 35C20.5 35.1326 20.5527 35.2598 20.6465 35.3535C20.7402 35.4473 20.8674 35.5 21 35.5H28C28.1326 35.5 28.2598 35.4473 28.3536 35.3536C28.4473 35.2598 28.5 35.1326 28.5 35C28.5 34.8674 28.4473 34.7402 28.3536 34.6464C28.2598 34.5527 28.1326 34.5 28 34.5H21C20.8674 34.5 20.7402 34.5527 20.6465 34.6465C20.5527 34.7402 20.5 34.8674 20.5 35Z" fill="#26ad50"/>
<path d="M16.5 42C16.5 42.1326 16.5527 42.2598 16.6465 42.3535C16.7402 42.4473 16.8674 42.5 17 42.5H21C21.1326 42.5 21.2598 42.4473 21.3536 42.3536C21.4473 42.2598 21.5 42.1326 21.5 42C21.5 41.8674 21.4473 41.7402 21.3536 41.6464C21.2598 41.5527 21.1326 41.5 21 41.5H17C16.8674 41.5 16.7402 41.5527 16.6465 41.6465C16.5527 41.7402 16.5 41.8674 16.5 42Z" fill="#26ad50"/>
<path d="M15 44.5H18C18.1326 44.5 18.2598 44.4473 18.3536 44.3536C18.4473 44.2598 18.5 44.1326 18.5 44C18.5 43.8674 18.4473 43.7402 18.3536 43.6464C18.2598 43.5527 18.1326 43.5 18 43.5H15C14.8674 43.5 14.7402 43.5527 14.6464 43.6464C14.5527 43.7402 14.5 43.8674 14.5 44C14.5 44.1326 14.5527 44.2598 14.6464 44.3536C14.7402 44.4473 14.8674 44.5 15 44.5Z" fill="#26ad50"/>
<path d="M20.5 44C20.5 44.1326 20.5527 44.2598 20.6465 44.3535C20.7402 44.4473 20.8674 44.5 21 44.5H28C28.1326 44.5 28.2598 44.4473 28.3536 44.3536C28.4473 44.2598 28.5 44.1326 28.5 44C28.5 43.8674 28.4473 43.7402 28.3536 43.6464C28.2598 43.5527 28.1326 43.5 28 43.5H21C20.8674 43.5 20.7402 43.5527 20.6465 43.6465C20.5527 43.7402 20.5 43.8674 20.5 44Z" fill="#26ad50"/>
<path d="M17 51.5H21C21.1326 51.5 21.2598 51.4473 21.3536 51.3536C21.4473 51.2598 21.5 51.1326 21.5 51C21.5 50.8674 21.4473 50.7402 21.3536 50.6464C21.2598 50.5527 21.1326 50.5 21 50.5H17C16.8674 50.5 16.7402 50.5527 16.6464 50.6464C16.5527 50.7402 16.5 50.8674 16.5 51C16.5 51.1326 16.5527 51.2598 16.6464 51.3536C16.7402 51.4473 16.8674 51.5 17 51.5Z" fill="#26ad50"/>
<path d="M34 50.5H24C23.8674 50.5 23.7402 50.5527 23.6464 50.6464C23.5527 50.7402 23.5 50.8674 23.5 51C23.5 51.1326 23.5527 51.2598 23.6464 51.3536C23.7402 51.4473 23.8674 51.5 24 51.5H34C34.1326 51.5 34.2598 51.4473 34.3536 51.3536C34.4473 51.2598 34.5 51.1326 34.5 51C34.5 50.8674 34.4473 50.7402 34.3536 50.6464C34.2598 50.5527 34.1326 50.5 34 50.5Z" fill="#26ad50"/>
<path d="M18 52.5H15C14.8674 52.5 14.7402 52.5527 14.6464 52.6464C14.5527 52.7402 14.5 52.8674 14.5 53C14.5 53.1326 14.5527 53.2598 14.6464 53.3536C14.7402 53.4473 14.8674 53.5 15 53.5H18C18.1326 53.5 18.2598 53.4473 18.3536 53.3536C18.4473 53.2598 18.5 53.1326 18.5 53C18.5 52.8674 18.4473 52.7402 18.3536 52.6464C18.2598 52.5527 18.1326 52.5 18 52.5Z" fill="#26ad50"/>
<path d="M28 52.5H21C20.8674 52.5 20.7402 52.5527 20.6464 52.6464C20.5527 52.7402 20.5 52.8674 20.5 53C20.5 53.1326 20.5527 53.2598 20.6464 53.3536C20.7402 53.4473 20.8674 53.5 21 53.5H28C28.1326 53.5 28.2598 53.4473 28.3536 53.3536C28.4473 53.2598 28.5 53.1326 28.5 53C28.5 52.8674 28.4473 52.7402 28.3536 52.6464C28.2598 52.5527 28.1326 52.5 28 52.5Z" fill="#26ad50"/>
<path d="M17.5 10C17.5 10.1326 17.5527 10.2598 17.6465 10.3535C17.7402 10.4473 17.8674 10.5 18 10.5H24C24.1326 10.5 24.2598 10.4473 24.3536 10.3536C24.4473 10.2598 24.5 10.1326 24.5 10C24.5 9.86739 24.4473 9.74021 24.3536 9.64645C24.2598 9.55268 24.1326 9.5 24 9.5H18C17.8674 9.50001 17.7402 9.55269 17.6465 9.64645C17.5527 9.74022 17.5 9.86739 17.5 10Z" fill="#26ad50"/>
<path d="M24 11.5H18C17.8674 11.5 17.7402 11.5527 17.6464 11.6464C17.5527 11.7402 17.5 11.8674 17.5 12C17.5 12.1326 17.5527 12.2598 17.6464 12.3536C17.7402 12.4473 17.8674 12.5 18 12.5H24C24.1326 12.5 24.2598 12.4473 24.3536 12.3536C24.4473 12.2598 24.5 12.1326 24.5 12C24.5 11.8674 24.4473 11.7402 24.3536 11.6464C24.2598 11.5527 24.1326 11.5 24 11.5Z" fill="#26ad50"/>
<path d="M21 6C21.5523 6 22 5.55228 22 5C22 4.44772 21.5523 4 21 4C20.4477 4 20 4.44772 20 5C20 5.55228 20.4477 6 21 6Z" fill="#26ad50"/>
<path d="M59.63 45.4038C59.6238 45.3937 59.6175 45.3825 59.6113 45.3725L59.54 45.25C59.53 45.2325 59.52 45.215 59.5088 45.1987C59.215 44.7563 58.6175 44.23 57.4413 44.23C57.3775 44.23 57.3113 44.2325 57.245 44.235C56.1 40.6162 54.1625 35.6425 52.0388 31.5987L54.5525 30.3425C55.0265 30.1044 55.3869 29.6881 55.5546 29.1849C55.7224 28.6816 55.6839 28.1324 55.4475 27.6575L54.925 26.6137L57.3763 25.4538C57.4966 25.3967 57.6043 25.3163 57.6932 25.2171C57.782 25.118 57.8502 25.0021 57.8937 24.8763C57.9373 24.7505 57.9553 24.6172 57.9467 24.4844C57.9381 24.3515 57.9031 24.2217 57.8438 24.1025L56.7387 21.8913C56.6217 21.6574 56.4177 21.4787 56.1705 21.3934C55.9233 21.3081 55.6526 21.3231 55.4163 21.435L52.925 22.615L52.895 22.5525C52.7759 22.3155 52.5678 22.1353 52.3162 22.0514C52.0645 21.9676 51.7899 21.9868 51.5525 22.105L49.5625 23.1013L45.9362 24.8188C44.0688 23.7513 41.9388 23.0375 40 22.82V12C39.9986 10.9396 39.5767 9.92297 38.8269 9.17312C38.077 8.42328 37.0604 8.0014 36 8H26.3512C25.557 7.3508 24.5621 6.99736 23.5362 7C23.5202 6.99998 23.5043 6.99638 23.4899 6.98945C23.4754 6.98253 23.4626 6.97247 23.4525 6.95999L23.4112 6.9075C23.3988 6.89118 23.3915 6.87148 23.3904 6.85097C23.3893 6.83045 23.3944 6.81008 23.405 6.7925C23.7931 6.27568 24.002 5.64633 24 5C23.999 4.20487 23.6828 3.44257 23.1207 2.88021C22.5585 2.31785 21.7964 2.00132 21.0012 2C20.9562 2 20.9125 2.00125 20.8675 2.00375C20.3267 2.02753 19.8023 2.19724 19.3501 2.4949C18.898 2.79255 18.5348 3.20705 18.2991 3.69442C18.0634 4.1818 17.964 4.72387 18.0115 5.26315C18.059 5.80243 18.2515 6.3188 18.5688 6.7575C18.5868 6.77953 18.5976 6.80654 18.5999 6.83491C18.6021 6.86328 18.5956 6.89166 18.5812 6.91624L18.55 6.95499C18.5483 6.95818 18.5462 6.96113 18.5438 6.96374C18.5349 6.97469 18.5238 6.98363 18.5113 6.98999C18.4962 6.99641 18.4801 6.99982 18.4638 7C17.4379 6.99736 16.443 7.3508 15.6488 8H6C4.93957 8.0014 3.92297 8.42328 3.17312 9.17312C2.42328 9.92297 2.0014 10.9396 2 12V58C2.0014 59.0604 2.42328 60.077 3.17312 60.8269C3.92297 61.5767 4.93957 61.9986 6 62H36C37.0604 61.9986 38.077 61.5767 38.8269 60.8269C39.5767 60.077 39.9986 59.0604 40 58V48.3275C40.9163 48.76 41.8625 49.1287 42.7875 49.4912C43.8213 49.895 44.8813 50.3087 45.8737 50.8037C45.4879 51.2236 45.1581 51.6917 44.8925 52.1963C44.3612 53.255 44.5088 54.0375 44.7263 54.5075C44.7413 54.5406 44.7584 54.5728 44.7775 54.6037L44.9012 54.8087L49.23 62H50.9813L47.0537 55.4775C47.3575 55.5264 47.6648 55.5502 47.9725 55.5488C49.8088 55.5488 52.2038 54.7988 54.2775 53.4163C56.7225 51.785 58.605 49.48 59.19 47.635L62 52.4775V49.4875L59.63 45.4038ZM55.615 23L56.2725 24.3162L53.8025 25.4862L53.1437 24.17L55.615 23ZM51.7762 23.6712L54.105 28.3288C54.1645 28.4473 54.1745 28.5846 54.1328 28.7105C54.091 28.8363 54.001 28.9405 53.8825 29L49.8075 31.0375C49.7302 31.0759 49.6461 31.0987 49.5601 31.1044C49.474 31.1101 49.3876 31.0987 49.3059 31.0709C49.2242 31.0431 49.1489 30.9994 49.0842 30.9422C49.0195 30.8851 48.9668 30.8158 48.9291 30.7382C48.8914 30.6606 48.8694 30.5763 48.8644 30.4901C48.8595 30.404 48.8716 30.3177 48.9002 30.2363C48.9287 30.1549 48.9731 30.0799 49.0308 30.0158C49.0885 29.9516 49.1583 29.8995 49.2363 29.8625L52.2137 28.4513C52.274 28.4229 52.3279 28.3828 52.3724 28.3333C52.4169 28.2838 52.451 28.2259 52.4728 28.163C52.4946 28.1001 52.5035 28.0335 52.4992 27.9671C52.4949 27.9006 52.4773 27.8358 52.4475 27.7763L50.6712 24.2237L51.7762 23.6712ZM49.7712 24.6612L51.3238 27.7663L48.8075 28.9587L37.13 34.49C36.8873 34.0638 36.5225 33.7201 36.0827 33.5032C35.6429 33.2863 35.1481 33.2061 34.6623 33.2729C34.1764 33.3398 33.7218 33.5506 33.3569 33.8783C32.992 34.2059 32.7336 34.6354 32.615 35.1113L31.6762 33.2337L33.5125 32.3625C33.5612 32.3813 33.61 32.4 33.66 32.415C33.8538 32.4733 34.0551 32.5028 34.2575 32.5025C35.2262 32.5025 36.2625 31.84 37.1625 30.6338L49.7712 24.6612ZM41.5 37.5512C40.3462 37.5512 39.3513 38.025 38.4738 38.9975C38.1272 38.5694 37.8697 38.0764 37.7162 37.5475C38.7138 36.1712 39.79 35.5 41 35.5C42.2163 35.5 43.335 36.0713 44.1738 37.1125C44.115 37.4828 44.0328 37.8489 43.9275 38.2087C43.1911 37.7778 42.3532 37.5508 41.5 37.5512ZM42.8838 39.3525C42.6063 39.7675 42.2962 40 42 40C41.3196 40.0105 40.6456 39.8683 40.0275 39.5837C40.44 39.2378 40.9617 39.0492 41.5 39.0512C41.9777 39.0495 42.45 39.1524 42.8838 39.3525ZM41 34.5C39.6988 34.5 38.5475 35.065 37.505 36.2188C37.5025 36.1462 37.5 36.0737 37.5 36C37.4999 35.8133 37.4853 35.6269 37.4562 35.4425L43.8488 32.415C44.1985 33.506 44.3517 34.6504 44.3012 35.795C43.402 34.9649 42.2238 34.5028 41 34.5ZM32.675 31.6537L31.5462 32.1875C31.5437 32.1262 31.5425 32.0637 31.5425 32C31.5425 30.2913 32.21 28.6938 33.27 27.6675C32.695 29.205 32.5 30.6437 32.5 31C32.501 31.2294 32.5612 31.4546 32.675 31.6537ZM32.1912 36.5H29L30.915 33.9475L32.1912 36.5ZM32.665 38.0988C32.8345 39.1888 33.1424 40.2528 33.5812 41.265C33.2074 41.2976 32.8335 41.2043 32.5187 41C32.3548 40.8908 32.2212 40.7417 32.1305 40.5669C32.0398 40.392 31.9949 40.1969 32 40C32.0005 39.3093 32.2349 38.6392 32.665 38.0988H32.665ZM38.4512 28.9175C38.9688 28.37 39.385 28.1887 39.8288 28.265L38.4512 28.9175ZM44.805 25.9075L41.035 27.6938C39.1787 26.6087 37.9838 27.6225 36.5837 29.7225C35.5487 31.2762 34.5438 31.6375 33.95 31.4575C33.655 31.3687 33.5 31.16 33.5 31C33.5 30.5462 33.745 29.1112 34.3362 27.6925C34.8387 26.4862 35.7375 24.9475 37.1587 24.4737C38.715 23.955 41.8188 24.3112 44.805 25.9075ZM36 9.5C36.6628 9.50066 37.2983 9.76427 37.767 10.233C38.2357 10.7017 38.4993 11.3372 38.5 12V23.2525C38.1645 23.263 37.8302 23.2985 37.5 23.3587V12.5C37.4993 11.9698 37.2884 11.4615 36.9134 11.0866C36.5385 10.7116 36.0302 10.5007 35.5 10.5H27.3813C27.2933 10.1497 27.1574 9.81319 26.9775 9.5H36ZM15.5 11.4637C15.501 10.678 15.8136 9.9248 16.3692 9.36922C16.9248 8.81363 17.678 8.50105 18.4638 8.5C18.7063 8.50087 18.9459 8.44637 19.1643 8.34066C19.3826 8.23496 19.574 8.08082 19.7237 7.89L19.7588 7.84625C19.9783 7.5665 20.0997 7.2223 20.1042 6.86673C20.1087 6.51116 19.9961 6.16398 19.7838 5.87875C19.5806 5.59863 19.4812 5.25661 19.5025 4.91125C19.5271 4.54175 19.6863 4.19411 19.9501 3.93423C20.2139 3.67435 20.5639 3.52029 20.9338 3.50125C20.9563 3.5 20.9775 3.5 21 3.5C21.2781 3.50018 21.5507 3.57761 21.7874 3.72367C22.024 3.86973 22.2154 4.07867 22.3403 4.32718C22.4651 4.57569 22.5185 4.854 22.4944 5.13106C22.4702 5.40812 22.3696 5.67303 22.2038 5.89624C21.9947 6.17874 21.8846 6.52226 21.8905 6.87363C21.8964 7.225 22.0179 7.56464 22.2362 7.84L22.275 7.88875C22.4249 8.07988 22.6164 8.23428 22.8349 8.34021C23.0535 8.44613 23.2934 8.50078 23.5362 8.5C24.322 8.50105 25.0752 8.81363 25.6308 9.36922C26.1864 9.9248 26.499 10.678 26.5 11.4637V12.5C26.4996 12.7651 26.3942 13.0193 26.2067 13.2067C26.0193 13.3942 25.7651 13.4996 25.5 13.5H16.5C16.2349 13.4996 15.9807 13.3942 15.7933 13.2067C15.6058 13.0193 15.5004 12.7651 15.5 12.5V11.4637ZM16.5 14.5H25.5C26.0302 14.4993 26.5385 14.2884 26.9134 13.9134C27.2884 13.5385 27.4993 13.0302 27.5 12.5V11.5H35.5C35.7651 11.5004 36.0193 11.6058 36.2067 11.7933C36.3942 11.9807 36.4996 12.2349 36.5 12.5V23.6588C35.4775 24.105 34.6988 24.945 34.1137 25.9025C32.0025 26.8312 30.5425 29.3062 30.5425 32C30.5425 32.1725 30.55 32.3388 30.5625 32.5H24C23.8674 32.5 23.7402 32.5527 23.6464 32.6464C23.5527 32.7402 23.5 32.8674 23.5 33C23.5 33.1326 23.5527 33.2598 23.6464 33.3536C23.7402 33.4473 23.8674 33.5 24 33.5H30L27.6 36.7C27.5442 36.7743 27.5102 36.8626 27.5018 36.9551C27.4934 37.0476 27.511 37.1407 27.5525 37.2238C27.594 37.3068 27.6579 37.3767 27.737 37.4255C27.816 37.4743 27.9071 37.5001 28 37.5H31.8638C31.3275 38.2238 31 38.9963 31 40C30.9915 40.5556 31.1979 41.093 31.5763 41.5H24C23.8674 41.5 23.7402 41.5527 23.6464 41.6464C23.5527 41.7402 23.5 41.8674 23.5 42C23.5 42.1326 23.5527 42.2598 23.6464 42.3536C23.7402 42.4473 23.8674 42.5 24 42.5H32.8787C32.4837 43.8125 33.1112 44.7263 33.795 45.1175C34.1083 45.2979 34.4634 45.3931 34.825 45.3937C35.2765 45.3911 35.7151 45.2434 36.0762 44.9725C36.2125 45.1137 36.3525 45.2537 36.5 45.3913V57.5C36.4996 57.7651 36.3942 58.0193 36.2067 58.2067C36.0193 58.3942 35.7651 58.4996 35.5 58.5H6.5C6.23489 58.4996 5.98074 58.3942 5.79328 58.2067C5.60582 58.0193 5.50035 57.7651 5.5 57.5V12.5C5.50035 12.2349 5.60582 11.9807 5.79328 11.7933C5.98074 11.6058 6.23489 11.5004 6.5 11.5H14.5V12.5C14.5007 13.0302 14.7116 13.5385 15.0866 13.9134C15.4615 14.2884 15.9698 14.4993 16.5 14.5ZM33.8725 42.6688C33.8938 42.61 33.9138 42.555 33.9338 42.5H34C34.063 42.4996 34.1253 42.4873 34.1838 42.4637C34.539 43.0851 34.9476 43.6744 35.405 44.225C35.2389 44.3294 35.0476 44.3867 34.8514 44.3909C34.6553 44.395 34.4617 44.3459 34.2913 44.2488C33.8962 44.0225 33.5775 43.4887 33.8725 42.6688ZM38.5 58C38.4993 58.6628 38.2357 59.2983 37.767 59.767C37.2983 60.2357 36.6628 60.4993 36 60.5H6C5.33716 60.4993 4.70166 60.2357 4.23297 59.767C3.76427 59.2983 3.50066 58.6628 3.5 58V12C3.50066 11.3372 3.76427 10.7017 4.23297 10.233C4.70166 9.76427 5.33716 9.50066 6 9.5H15.0225C14.8426 9.81319 14.7067 10.1497 14.6187 10.5H6.5C5.96978 10.5007 5.46148 10.7116 5.08656 11.0866C4.71164 11.4615 4.5007 11.9698 4.5 12.5V57.5C4.5007 58.0302 4.71164 58.5385 5.08656 58.9134C5.46148 59.2884 5.96978 59.4993 6.5 59.5H35.5C36.0302 59.4993 36.5385 59.2884 36.9134 58.9134C37.2884 58.5385 37.4993 58.0302 37.5 57.5V46.2438C37.5662 46.2963 37.6313 46.3488 37.7 46.4C37.9587 46.5938 38.2263 46.775 38.5 46.9463V58ZM46.17 54.0075L46.0875 53.8725C45.845 53.32 46.3975 52.3288 47.5813 51.195C48.7543 51.9428 49.7465 52.9419 50.4863 54.12C48.415 54.7475 46.6663 54.6263 46.17 54.0075ZM53.7225 52.5837C52.9357 53.1089 52.0914 53.5425 51.2062 53.8763L51.4287 53.7425C49.4812 50.4962 46.355 49.275 43.3325 48.0938C41.4975 47.3763 39.765 46.6987 38.3 45.6C34.3325 42.625 33.5 38.7375 33.5 36C33.5 34.7912 34.2537 34.25 35 34.25C35.7463 34.25 36.5 34.7912 36.5 36C36.5 39.29 38.71 41.5 42 41.5C42.8238 41.5 43.5638 41.0413 44.14 40.1725C45.42 38.2425 45.6725 34.605 44.7562 31.985L47.8637 30.5125C47.8735 30.7891 47.9527 31.0588 48.0939 31.2969C48.2351 31.535 48.4338 31.7337 48.6719 31.875C48.9099 32.0162 49.1796 32.0954 49.4563 32.1052C49.7329 32.115 50.0075 32.0552 50.255 31.9312L50.4612 31.8275C53.04 36.6175 55.5887 43.415 56.515 47.1213L57.0887 49.415C56.1552 50.6551 55.0167 51.7268 53.7225 52.5837ZM57.8288 48.2563L57.485 46.8788C57.3975 46.5262 57.2938 46.1462 57.1787 45.7437C57.605 45.705 58.0612 45.7437 58.26 46.0312L58.2712 46.0512C58.2865 46.0747 58.2999 46.0994 58.3112 46.125C58.495 46.5575 58.3213 47.335 57.8288 48.2563Z" fill="#26ad50"/>
</svg>
