<svg width="64" height="64" viewBox="0 0 64 64" fill="none" xmlns="http://www.w3.org/2000/svg">
<path d="M32 21C30.4178 21 28.871 21.4692 27.5554 22.3482C26.2399 23.2273 25.2145 24.4767 24.609 25.9385C24.0035 27.4003 23.845 29.0089 24.1537 30.5607C24.4624 32.1126 25.2243 33.538 26.3431 34.6569C27.462 35.7757 28.8874 36.5376 30.4393 36.8463C31.9911 37.155 33.5997 36.9965 35.0615 36.391C36.5233 35.7855 37.7727 34.7602 38.6518 33.4446C39.5308 32.129 40 30.5823 40 29C39.9976 26.879 39.154 24.8456 37.6542 23.3458C36.1545 21.846 34.121 21.0024 32 21ZM32 35C30.8133 35 29.6533 34.6481 28.6666 33.9888C27.6799 33.3295 26.9109 32.3925 26.4567 31.2961C26.0026 30.1997 25.8838 28.9933 26.1153 27.8295C26.3468 26.6656 26.9182 25.5965 27.7574 24.7574C28.5965 23.9182 29.6656 23.3468 30.8295 23.1153C31.9933 22.8838 33.1997 23.0026 34.2961 23.4567C35.3925 23.9108 36.3295 24.6799 36.9888 25.6666C37.6481 26.6533 38 27.8133 38 29C37.9983 30.5908 37.3655 32.1159 36.2407 33.2407C35.1159 34.3655 33.5908 34.9982 32 35Z" fill="#26ad50"/>
<path d="M32 4C30.4178 4 28.871 4.46919 27.5554 5.34824C26.2399 6.22729 25.2145 7.47672 24.609 8.93853C24.0035 10.4003 23.845 12.0089 24.1537 13.5607C24.4624 15.1126 25.2243 16.538 26.3431 17.6569C27.462 18.7757 28.8874 19.5376 30.4393 19.8463C31.9911 20.155 33.5997 19.9965 35.0615 19.391C36.5233 18.7855 37.7727 17.7602 38.6518 16.4446C39.5308 15.129 40 13.5823 40 12C39.9976 9.879 39.154 7.84555 37.6542 6.34578C36.1545 4.846 34.121 4.00238 32 4ZM32 18C30.8133 18 29.6533 17.6481 28.6666 16.9888C27.6799 16.3295 26.9109 15.3925 26.4567 14.2961C26.0026 13.1997 25.8838 11.9933 26.1153 10.8295C26.3468 9.66557 26.9182 8.59647 27.7574 7.75736C28.5965 6.91824 29.6656 6.3468 30.8295 6.11529C31.9933 5.88378 33.1997 6.0026 34.2961 6.45672C35.3925 6.91085 36.3295 7.67988 36.9888 8.66658C37.6481 9.65327 38 10.8133 38 12C37.9982 13.5908 37.3655 15.1158 36.2407 16.2407C35.1158 17.3655 33.5908 17.9982 32 18Z" fill="#26ad50"/>
<path d="M32 7C30.6744 7.00149 29.4035 7.52875 28.4661 8.46611C27.5288 9.40347 27.0015 10.6744 27 12C27 12.2652 27.1054 12.5196 27.2929 12.7071C27.4804 12.8946 27.7348 13 28 13C28.2652 13 28.5196 12.8946 28.7071 12.7071C28.8946 12.5196 29 12.2652 29 12C29.0009 11.2046 29.3172 10.4421 29.8797 9.87967C30.4421 9.31725 31.2046 9.00089 32 9C32.2652 9 32.5196 8.89464 32.7071 8.70711C32.8946 8.51957 33 8.26522 33 8C33 7.73478 32.8946 7.48043 32.7071 7.29289C32.5196 7.10536 32.2652 7 32 7Z" fill="#26ad50"/>
<path d="M32 24C30.6744 24.0015 29.4035 24.5288 28.4661 25.4661C27.5288 26.4035 27.0015 27.6744 27 29C27 29.2652 27.1054 29.5196 27.2929 29.7071C27.4804 29.8946 27.7348 30 28 30C28.2652 30 28.5196 29.8946 28.7071 29.7071C28.8946 29.5196 29 29.2652 29 29C29.0009 28.2046 29.3173 27.4421 29.8797 26.8797C30.4421 26.3173 31.2046 26.0009 32 26C32.2652 26 32.5196 25.8946 32.7071 25.7071C32.8946 25.5196 33 25.2652 33 25C33 24.7348 32.8946 24.4804 32.7071 24.2929C32.5196 24.1054 32.2652 24 32 24Z" fill="#26ad50"/>
<path d="M32 41C30.6744 41.0015 29.4035 41.5288 28.4661 42.4661C27.5288 43.4035 27.0015 44.6744 27 46C27 46.2652 27.1054 46.5196 27.2929 46.7071C27.4804 46.8946 27.7348 47 28 47C28.2652 47 28.5196 46.8946 28.7071 46.7071C28.8946 46.5196 29 46.2652 29 46C29.0009 45.2046 29.3173 44.4421 29.8797 43.8797C30.4421 43.3173 31.2046 43.0009 32 43C32.2652 43 32.5196 42.8946 32.7071 42.7071C32.8946 42.5196 33 42.2652 33 42C33 41.7348 32.8946 41.4804 32.7071 41.2929C32.5196 41.1054 32.2652 41 32 41Z" fill="#26ad50"/>
<path d="M32 38C30.4178 38 28.871 38.4692 27.5554 39.3482C26.2399 40.2273 25.2145 41.4767 24.609 42.9385C24.0035 44.4003 23.845 46.0089 24.1537 47.5607C24.4624 49.1126 25.2243 50.538 26.3431 51.6569C27.462 52.7757 28.8874 53.5376 30.4393 53.8463C31.9911 54.155 33.5997 53.9965 35.0615 53.391C36.5233 52.7855 37.7727 51.7602 38.6518 50.4446C39.5308 49.129 40 47.5823 40 46C39.9976 43.879 39.154 41.8456 37.6542 40.3458C36.1545 38.846 34.121 38.0024 32 38ZM32 52C30.8133 52 29.6533 51.6481 28.6666 50.9888C27.6799 50.3295 26.9109 49.3925 26.4567 48.2961C26.0026 47.1997 25.8838 45.9933 26.1153 44.8295C26.3468 43.6656 26.9182 42.5965 27.7574 41.7574C28.5965 40.9182 29.6656 40.3468 30.8295 40.1153C31.9933 39.8838 33.1997 40.0026 34.2961 40.4567C35.3925 40.9108 36.3295 41.6799 36.9888 42.6666C37.6481 43.6533 38 44.8133 38 46C37.9983 47.5908 37.3655 49.1159 36.2407 50.2407C35.1159 51.3655 33.5908 51.9982 32 52Z" fill="#26ad50"/>
<path d="M44.9999 37C45.2528 37 45.4963 36.9042 45.6814 36.7319C45.8665 36.5595 45.9794 36.3235 45.9974 36.0713L46.9974 22.0713C47.007 21.9343 46.9883 21.7969 46.9426 21.6675C46.8968 21.5381 46.8249 21.4194 46.7313 21.319C46.6378 21.2185 46.5246 21.1384 46.3988 21.0835C46.2729 21.0286 46.1372 21.0002 45.9999 21H42.9999V20H44.9999C45.2528 20 45.4963 19.9042 45.6814 19.7319C45.8665 19.5595 45.9794 19.3235 45.9974 19.0713L46.9974 5.07125C47.007 4.93432 46.9883 4.79688 46.9426 4.66746C46.8968 4.53805 46.8249 4.41943 46.7313 4.31897C46.6378 4.21851 46.5246 4.13836 46.3988 4.08348C46.2729 4.02861 46.1372 4.0002 45.9999 4H42.9999V2C42.9999 1.73478 42.8946 1.48043 42.707 1.29289C42.5195 1.10536 42.2651 1 41.9999 1H21.9999C21.7347 1 21.4804 1.10536 21.2928 1.29289C21.1053 1.48043 20.9999 1.73478 20.9999 2V4H17.9999C17.8627 4.0002 17.7269 4.02861 17.6011 4.08348C17.4753 4.13836 17.3621 4.21851 17.2685 4.31897C17.175 4.41943 17.1031 4.53805 17.0573 4.66746C17.0115 4.79688 16.9929 4.93432 17.0024 5.07125L18.0024 19.0713C18.0205 19.3235 18.1334 19.5595 18.3185 19.7319C18.5035 19.9042 18.747 20 18.9999 20H20.9999V21H17.9999C17.8627 21.0002 17.7269 21.0286 17.6011 21.0835C17.4753 21.1384 17.3621 21.2185 17.2685 21.319C17.175 21.4194 17.1031 21.5381 17.0573 21.6675C17.0115 21.7969 16.9929 21.9343 17.0024 22.0713L18.0024 36.0713C18.0205 36.3235 18.1334 36.5595 18.3185 36.7319C18.5035 36.9042 18.747 37 18.9999 37H20.9999V38H17.9999C17.8627 38.0002 17.7269 38.0286 17.6011 38.0835C17.4753 38.1384 17.3621 38.2185 17.2685 38.319C17.175 38.4194 17.1031 38.538 17.0573 38.6675C17.0115 38.7969 16.9929 38.9343 17.0024 39.0713L18.0024 53.0713C18.0205 53.3235 18.1334 53.5595 18.3185 53.7319C18.5035 53.9042 18.747 54 18.9999 54H20.9999V56C20.9999 56.2652 21.1053 56.5196 21.2928 56.7071C21.4804 56.8946 21.7347 57 21.9999 57H28.9999V62C28.9999 62.2652 29.1053 62.5196 29.2928 62.7071C29.4804 62.8946 29.7347 63 29.9999 63H33.9999C34.2651 63 34.5195 62.8946 34.707 62.7071C34.8946 62.5196 34.9999 62.2652 34.9999 62V57H41.9999C42.2651 57 42.5195 56.8946 42.707 56.7071C42.8946 56.5196 42.9999 56.2652 42.9999 56V54H44.9999C45.2528 54 45.4963 53.9042 45.6814 53.7319C45.8665 53.5595 45.9794 53.3235 45.9974 53.0713L46.9974 39.0713C47.007 38.9343 46.9883 38.7969 46.9426 38.6675C46.8968 38.538 46.8249 38.4194 46.7313 38.319C46.6378 38.2185 46.5246 38.1384 46.3988 38.0835C46.2729 38.0286 46.1372 38.0002 45.9999 38H42.9999V37H44.9999ZM42.9999 6H44.9262L44.0687 18H42.9999V6ZM42.9999 23H44.9262L44.0687 35H42.9999V23ZM20.9999 52H19.9312L19.0737 40H20.9999V52ZM20.9999 35H19.9312L19.0737 23H20.9999V35ZM20.9999 18H19.9312L19.0737 6H20.9999V18ZM32.9999 61H30.9999V57H32.9999V61ZM40.9999 55H22.9999V3H40.9999V55ZM44.9262 40L44.0687 52H42.9999V40H44.9262Z" fill="#26ad50"/>
</svg>
