<svg width="64" height="64" viewBox="0 0 64 64" fill="none" xmlns="http://www.w3.org/2000/svg">
<g clip-path="url(#clip0)">
<path d="M15.02 32.0332C9.01025 32.0332 4.12109 36.9224 4.12109 42.9321C4.12109 48.9419 9.01025 53.8311 15.02 53.8311C21.0293 53.8311 25.9185 48.9419 25.9185 42.9321C25.9185 36.9224 21.0293 32.0332 15.02 32.0332ZM15.02 33.9336C19.2256 33.9336 22.7651 36.834 23.7471 40.7393C23.2764 42.6172 22.1938 44.3174 20.6782 45.5454C19.0845 46.8364 17.0752 47.5474 15.0205 47.5474C12.9653 47.5474 10.9561 46.8364 9.36182 45.5454C7.84619 44.3174 6.76318 42.6172 6.29248 40.7393C7.27441 36.834 10.814 33.9336 15.02 33.9336ZM15.02 51.9307C10.7871 51.9307 7.22998 48.9927 6.2749 45.0493C6.81787 45.7798 7.45264 46.4443 8.16602 47.022C10.0972 48.5864 12.5312 49.4478 15.0205 49.4478C17.5093 49.4478 19.9434 48.5864 21.8745 47.022C22.5874 46.4438 23.2217 45.7798 23.7646 45.0498C22.8091 48.9927 19.2524 51.9307 15.02 51.9307Z" fill="#26ad50"/>
<path d="M63.0234 37.6064C63.0225 37.6006 62.8403 37.145 62.7666 36.9741L54.6714 17.3491C53.6738 14.9312 51.877 13.0254 49.6582 11.8833L48.897 10.0371C48.4023 8.83887 47.5718 7.82373 46.4927 7.10107C45.4136 6.38086 44.1587 6 42.8638 6C39.2651 6 36.3374 8.92773 36.3374 12.5264V14.7173C34.8521 16.563 33.96 18.9053 33.96 21.4531V22.1782H30.0396V21.4531C30.0396 18.9053 29.1475 16.563 27.6621 14.7173V12.5264C27.6621 8.92773 24.7344 6 21.1357 6C19.8408 6 18.5859 6.38086 17.5059 7.10205C16.4282 7.82373 15.5972 8.83887 15.1025 10.0371L14.3413 11.8833C12.123 13.0254 10.3257 14.9312 9.32861 17.3491L7.25049 22.3867C7.05029 22.8721 7.28125 23.4272 7.7666 23.6274C8.25195 23.8276 8.80713 23.5967 9.00684 23.1113L11.085 18.0737C12.459 14.7432 15.6748 12.5913 19.2773 12.5913C24.1636 12.5913 28.1392 16.5664 28.1392 21.4531V35.6274C25.5684 31.0288 20.6514 27.9121 15.0195 27.9121C11.4922 27.9121 8.24561 29.1353 5.67969 31.1782L7.73047 26.2065C7.93066 25.7217 7.69922 25.166 7.21436 24.9658C6.72949 24.7656 6.17383 24.9971 5.97363 25.4819L1.2334 36.9736C1.15918 37.1445 0.956543 37.6504 0.947266 37.6826C0.335449 39.3174 0 41.0864 0 42.9321C0 51.2139 6.73779 57.9517 15.02 57.9517C23.3018 57.9517 30.0396 51.2139 30.0396 42.9321V42.3208H33.9604V42.9321C33.9604 51.2139 40.6982 57.9517 48.98 57.9517C57.2622 57.9517 64 51.2139 64 42.9321C64 41.0576 63.6538 39.2627 63.0234 37.6064ZM19.2773 10.6909C18.418 10.6909 17.5771 10.7935 16.7671 10.9858L16.8594 10.7617C17.21 9.91211 17.7993 9.19238 18.562 8.68164C19.3276 8.17041 20.2178 7.8999 21.1357 7.8999C23.6865 7.8999 25.7622 9.97559 25.7622 12.5264V12.8706C23.9575 11.5039 21.7109 10.6909 19.2773 10.6909ZM42.8643 7.8999C43.7822 7.8999 44.6719 8.17041 45.4365 8.68066C46.2007 9.19238 46.79 9.91211 47.1406 10.7617L47.2329 10.9858C46.4229 10.793 45.582 10.6909 44.7222 10.6909C42.2891 10.6909 40.0425 11.5039 38.2378 12.8706V12.5264C38.2378 9.97559 40.313 7.8999 42.8643 7.8999ZM35.8608 21.4531C35.8608 16.5664 39.8359 12.5913 44.7227 12.5913C48.3252 12.5913 51.541 14.7432 52.9146 18.0737L58.3203 31.1782C55.7544 29.1353 52.5073 27.9121 48.98 27.9121C43.3481 27.9121 38.4312 31.0288 35.8608 35.627V21.4531ZM33.9604 24.0786V33.1997H30.0396V24.0786H33.9604ZM15.02 56.0518C7.78564 56.0518 1.90039 50.1665 1.90039 42.9321C1.90039 35.6978 7.78564 29.8125 15.02 29.8125C22.2539 29.8125 28.1392 35.6978 28.1392 42.9321C28.1392 50.1665 22.2539 56.0518 15.02 56.0518ZM30.0396 40.4204V35.0996H33.9604V40.4204H30.0396ZM48.98 56.0518C41.7461 56.0518 35.8608 50.1665 35.8608 42.9321C35.8608 35.6978 41.7461 29.8125 48.98 29.8125C56.2144 29.8125 62.0996 35.6978 62.0996 42.9321C62.0996 50.1665 56.2144 56.0518 48.98 56.0518Z" fill="#26ad50"/>
<path d="M56.3604 36.1934C55.9409 36.5088 55.8574 37.1045 56.1729 37.5239C56.9033 38.4937 57.4199 39.5786 57.709 40.7314C57.2393 42.6123 56.1558 44.3159 54.6377 45.5454C53.0444 46.8364 51.0352 47.5474 48.98 47.5474C46.9253 47.5474 44.9155 46.8364 43.3218 45.5454C41.8062 44.3179 40.7231 42.6177 40.2524 40.7402C41.2339 36.8345 44.7739 33.9336 48.98 33.9336C50.7832 33.9336 52.5229 34.4648 54.0103 35.4697C54.4453 35.7637 55.0361 35.6494 55.3296 35.2144C55.6235 34.7793 55.5093 34.189 55.0742 33.895C53.2715 32.6772 51.1641 32.0332 48.98 32.0332C42.9702 32.0332 38.0811 36.9224 38.0811 42.9321C38.0811 48.9419 42.9702 53.8311 48.98 53.8311C54.9897 53.8311 59.8789 48.9419 59.8789 42.9321C59.8789 40.5469 59.1221 38.2812 57.6904 36.3809C57.3755 35.9614 56.7798 35.8774 56.3604 36.1934ZM48.98 51.9307C44.748 51.9307 41.1909 48.9932 40.2358 45.0503C40.7783 45.7798 41.4126 46.4443 42.126 47.022C44.0571 48.5864 46.4912 49.4478 48.9805 49.4478C51.4692 49.4478 53.9033 48.5864 55.8345 47.022C56.5479 46.4438 57.1826 45.7793 57.7251 45.0488C56.77 48.9927 53.2129 51.9307 48.98 51.9307Z" fill="#26ad50"/>
</g>
<defs>
<clipPath id="clip0">
<rect width="64" height="64" fill="white"/>
</clipPath>
</defs>
</svg>
