<svg width="65" height="64" viewBox="0 0 65 64" fill="none" xmlns="http://www.w3.org/2000/svg">
<path d="M5.07812 61C5.07812 61.2652 5.18513 61.5196 5.37559 61.7071C5.56606 61.8946 5.82439 62 6.09375 62H58.9062C59.1756 62 59.4339 61.8946 59.6244 61.7071C59.8149 61.5196 59.9219 61.2652 59.9219 61V5C59.9219 4.73478 59.8149 4.48043 59.6244 4.29289C59.4339 4.10536 59.1756 4 58.9062 4H55.8594V3C55.8594 2.73478 55.7524 2.48043 55.5619 2.29289C55.3714 2.10536 55.1131 2 54.8438 2H6.09375C5.82439 2 5.56606 2.10536 5.37559 2.29289C5.18513 2.48043 5.07812 2.73478 5.07812 3V61ZM57.8906 6V60H55.8594V6H57.8906ZM7.10938 4H53.8281V60H7.10938V4Z" fill="#26ad50"/>
<path d="M10.1562 9H38.5938C38.8631 9 39.1214 8.89464 39.3119 8.70711C39.5024 8.51957 39.6094 8.26522 39.6094 8C39.6094 7.73478 39.5024 7.48043 39.3119 7.29289C39.1214 7.10536 38.8631 7 38.5938 7H10.1562C9.88689 7 9.62856 7.10536 9.43809 7.29289C9.24763 7.48043 9.14062 7.73478 9.14062 8C9.14062 8.26522 9.24763 8.51957 9.43809 8.70711C9.62856 8.89464 9.88689 9 10.1562 9Z" fill="#26ad50"/>
<path d="M10.1562 13H28.4375C28.7069 13 28.9652 12.8946 29.1557 12.7071C29.3461 12.5196 29.4531 12.2652 29.4531 12C29.4531 11.7348 29.3461 11.4804 29.1557 11.2929C28.9652 11.1054 28.7069 11 28.4375 11H10.1562C9.88689 11 9.62856 11.1054 9.43809 11.2929C9.24763 11.4804 9.14062 11.7348 9.14062 12C9.14062 12.2652 9.24763 12.5196 9.43809 12.7071C9.62856 12.8946 9.88689 13 10.1562 13Z" fill="#26ad50"/>
<path d="M21.3281 15C19.1185 15 16.9586 15.6451 15.1214 16.8538C13.2842 18.0625 11.8522 19.7805 11.0067 21.7905C10.1611 23.8005 9.93985 26.0122 10.3709 28.146C10.802 30.2798 11.866 32.2398 13.4284 33.7782C14.9908 35.3166 16.9815 36.3642 19.1486 36.7886C21.3157 37.2131 23.562 36.9952 25.6034 36.1627C27.6448 35.3301 29.3896 33.9202 30.6172 32.1113C31.8448 30.3023 32.5 28.1756 32.5 26C32.4966 23.0836 31.3185 20.2877 29.2241 18.2255C27.1297 16.1633 24.2901 15.0033 21.3281 15ZM30.411 25H22.3437V17.0569C24.4029 17.2866 26.322 18.1973 27.7874 19.6401C29.2528 21.0829 30.1777 22.9725 30.411 25ZM12.1875 26C12.1906 23.7872 13.0203 21.6528 14.5187 20.0036C16.0171 18.3543 18.0793 17.3055 20.3125 17.0569V26C20.3125 26.1399 20.3425 26.2783 20.4005 26.406L24.0899 34.5793C22.7201 35.0067 21.2673 35.1102 19.8494 34.8813C18.4314 34.6524 17.0882 34.0976 15.9288 33.2619C14.7694 32.4262 13.8264 31.3331 13.1763 30.0714C12.5263 28.8096 12.1875 27.4148 12.1875 26ZM25.9439 33.7634L22.8909 27H30.411C30.2513 28.3916 29.7644 29.7273 28.989 30.9013C28.2136 32.0753 27.171 33.0553 25.9439 33.7634Z" fill="#26ad50"/>
<path d="M50.7812 17H36.5625C36.2931 17 36.0348 17.1054 35.8443 17.2929C35.6539 17.4804 35.5469 17.7348 35.5469 18C35.5469 18.2652 35.6539 18.5196 35.8443 18.7071C36.0348 18.8946 36.2931 19 36.5625 19H50.7812C51.0506 19 51.3089 18.8946 51.4994 18.7071C51.6899 18.5196 51.7969 18.2652 51.7969 18C51.7969 17.7348 51.6899 17.4804 51.4994 17.2929C51.3089 17.1054 51.0506 17 50.7812 17Z" fill="#26ad50"/>
<path d="M50.7812 21H36.5625C36.2931 21 36.0348 21.1054 35.8443 21.2929C35.6539 21.4804 35.5469 21.7348 35.5469 22C35.5469 22.2652 35.6539 22.5196 35.8443 22.7071C36.0348 22.8946 36.2931 23 36.5625 23H50.7812C51.0506 23 51.3089 22.8946 51.4994 22.7071C51.6899 22.5196 51.7969 22.2652 51.7969 22C51.7969 21.7348 51.6899 21.4804 51.4994 21.2929C51.3089 21.1054 51.0506 21 50.7812 21Z" fill="#26ad50"/>
<path d="M50.7812 25H36.5625C36.2931 25 36.0348 25.1054 35.8443 25.2929C35.6539 25.4804 35.5469 25.7348 35.5469 26C35.5469 26.2652 35.6539 26.5196 35.8443 26.7071C36.0348 26.8946 36.2931 27 36.5625 27H50.7812C51.0506 27 51.3089 26.8946 51.4994 26.7071C51.6899 26.5196 51.7969 26.2652 51.7969 26C51.7969 25.7348 51.6899 25.4804 51.4994 25.2929C51.3089 25.1054 51.0506 25 50.7812 25Z" fill="#26ad50"/>
<path d="M50.7812 29H36.5625C36.2931 29 36.0348 29.1054 35.8443 29.2929C35.6539 29.4804 35.5469 29.7348 35.5469 30C35.5469 30.2652 35.6539 30.5196 35.8443 30.7071C36.0348 30.8946 36.2931 31 36.5625 31H50.7812C51.0506 31 51.3089 30.8946 51.4994 30.7071C51.6899 30.5196 51.7969 30.2652 51.7969 30C51.7969 29.7348 51.6899 29.4804 51.4994 29.2929C51.3089 29.1054 51.0506 29 50.7812 29Z" fill="#26ad50"/>
<path d="M50.7812 33H36.5625C36.2931 33 36.0348 33.1054 35.8443 33.2929C35.6539 33.4804 35.5469 33.7348 35.5469 34C35.5469 34.2652 35.6539 34.5196 35.8443 34.7071C36.0348 34.8946 36.2931 35 36.5625 35H50.7812C51.0506 35 51.3089 34.8946 51.4994 34.7071C51.6899 34.5196 51.7969 34.2652 51.7969 34C51.7969 33.7348 51.6899 33.4804 51.4994 33.2929C51.3089 33.1054 51.0506 33 50.7812 33Z" fill="#26ad50"/>
<path d="M24.375 43H10.1562C9.88689 43 9.62856 43.1054 9.43809 43.2929C9.24763 43.4804 9.14062 43.7348 9.14062 44C9.14062 44.2652 9.24763 44.5196 9.43809 44.7071C9.62856 44.8946 9.88689 45 10.1562 45H24.375C24.6444 45 24.9027 44.8946 25.0932 44.7071C25.2836 44.5196 25.3906 44.2652 25.3906 44C25.3906 43.7348 25.2836 43.4804 25.0932 43.2929C24.9027 43.1054 24.6444 43 24.375 43Z" fill="#26ad50"/>
<path d="M24.375 39H10.1562C9.88689 39 9.62856 39.1054 9.43809 39.2929C9.24763 39.4804 9.14062 39.7348 9.14062 40C9.14062 40.2652 9.24763 40.5196 9.43809 40.7071C9.62856 40.8946 9.88689 41 10.1562 41H24.375C24.6444 41 24.9027 40.8946 25.0932 40.7071C25.2836 40.5196 25.3906 40.2652 25.3906 40C25.3906 39.7348 25.2836 39.4804 25.0932 39.2929C24.9027 39.1054 24.6444 39 24.375 39Z" fill="#26ad50"/>
<path d="M24.375 47H10.1562C9.88689 47 9.62856 47.1054 9.43809 47.2929C9.24763 47.4804 9.14062 47.7348 9.14062 48C9.14062 48.2652 9.24763 48.5196 9.43809 48.7071C9.62856 48.8946 9.88689 49 10.1562 49H24.375C24.6444 49 24.9027 48.8946 25.0932 48.7071C25.2836 48.5196 25.3906 48.2652 25.3906 48C25.3906 47.7348 25.2836 47.4804 25.0932 47.2929C24.9027 47.1054 24.6444 47 24.375 47Z" fill="#26ad50"/>
<path d="M24.375 51H10.1562C9.88689 51 9.62856 51.1054 9.43809 51.2929C9.24763 51.4804 9.14062 51.7348 9.14062 52C9.14062 52.2652 9.24763 52.5196 9.43809 52.7071C9.62856 52.8946 9.88689 53 10.1562 53H24.375C24.6444 53 24.9027 52.8946 25.0932 52.7071C25.2836 52.5196 25.3906 52.2652 25.3906 52C25.3906 51.7348 25.2836 51.4804 25.0932 51.2929C24.9027 51.1054 24.6444 51 24.375 51Z" fill="#26ad50"/>
<path d="M24.375 55H10.1562C9.88689 55 9.62856 55.1054 9.43809 55.2929C9.24763 55.4804 9.14062 55.7348 9.14062 56C9.14062 56.2652 9.24763 56.5196 9.43809 56.7071C9.62856 56.8946 9.88689 57 10.1562 57H24.375C24.6444 57 24.9027 56.8946 25.0932 56.7071C25.2836 56.5196 25.3906 56.2652 25.3906 56C25.3906 55.7348 25.2836 55.4804 25.0932 55.2929C24.9027 55.1054 24.6444 55 24.375 55Z" fill="#26ad50"/>
<path d="M50.7812 42H46.7188C46.4494 42 46.1911 42.1054 46.0006 42.2929C45.8101 42.4804 45.7031 42.7348 45.7031 43V44H43.6719V39C43.6719 38.7348 43.5649 38.4804 43.3744 38.2929C43.1839 38.1054 42.9256 38 42.6562 38H38.5938C38.3244 38 38.0661 38.1054 37.8756 38.2929C37.6851 38.4804 37.5781 38.7348 37.5781 39V44H35.5469V41C35.5469 40.7348 35.4399 40.4804 35.2494 40.2929C35.0589 40.1054 34.8006 40 34.5312 40H30.4688C30.1994 40 29.9411 40.1054 29.7506 40.2929C29.5601 40.4804 29.4531 40.7348 29.4531 41V57C29.4531 57.2652 29.5601 57.5196 29.7506 57.7071C29.9411 57.8946 30.1994 58 30.4688 58H50.7812C51.0506 58 51.3089 57.8946 51.4994 57.7071C51.6899 57.5196 51.7969 57.2652 51.7969 57V43C51.7969 42.7348 51.6899 42.4804 51.4994 42.2929C51.3089 42.1054 51.0506 42 50.7812 42ZM45.7031 46V56H43.6719V46H45.7031ZM39.6094 40H41.6406V56H39.6094V40ZM37.5781 46V56H35.5469V46H37.5781ZM31.4844 42H33.5156V56H31.4844V42ZM49.7656 56H47.7344V44H49.7656V56Z" fill="#26ad50"/>
</svg>
