<svg width="65" height="64" viewBox="0 0 65 64" fill="none" xmlns="http://www.w3.org/2000/svg">
<path d="M9.05855 24.5455C8.82559 24.5455 8.60218 24.4544 8.43745 24.2922C8.27272 24.13 8.18018 23.91 8.18018 23.6807V16.8309C8.18018 16.6016 8.27272 16.3816 8.43745 16.2194C8.60218 16.0572 8.82559 15.9661 9.05855 15.9661C9.29152 15.9661 9.51493 16.0572 9.67966 16.2194C9.84439 16.3816 9.93693 16.6016 9.93693 16.8309V23.6807C9.93693 23.91 9.84439 24.13 9.67966 24.2922C9.51493 24.4544 9.29152 24.5455 9.05855 24.5455Z" fill="#26ad50"/>
<path d="M9.05855 48.035C8.82559 48.035 8.60218 47.9439 8.43745 47.7817C8.27272 47.6195 8.18018 47.3995 8.18018 47.1702V40.3204C8.18018 40.0911 8.27272 39.8711 8.43745 39.7089C8.60218 39.5467 8.82559 39.4556 9.05855 39.4556C9.29152 39.4556 9.51493 39.5467 9.67966 39.7089C9.84439 39.8711 9.93693 40.0911 9.93693 40.3204V47.1702C9.93693 47.3995 9.84439 47.6195 9.67966 47.7817C9.51493 47.9439 9.29152 48.035 9.05855 48.035Z" fill="#26ad50"/>
<path d="M9.05855 36.2902C8.82559 36.2902 8.60218 36.1991 8.43745 36.0369C8.27272 35.8747 8.18018 35.6548 8.18018 35.4254V28.5758C8.18018 28.3464 8.27272 28.1264 8.43745 27.9642C8.60218 27.8021 8.82559 27.7109 9.05855 27.7109C9.29152 27.7109 9.51493 27.8021 9.67966 27.9642C9.84439 28.1264 9.93693 28.3464 9.93693 28.5758V35.4254C9.93693 35.6548 9.84439 35.8747 9.67966 36.0369C9.51493 36.1991 9.29152 36.2902 9.05855 36.2902Z" fill="#26ad50"/>
<path d="M51.9752 62.2698H11.6937C10.7618 62.2698 9.86817 61.9053 9.20926 61.2565C8.55035 60.6078 8.18018 59.7278 8.18018 58.8103V52.073C8.18018 51.8437 8.27272 51.6237 8.43745 51.4615C8.60217 51.2993 8.82559 51.2082 9.05855 51.2082C9.29151 51.2082 9.51493 51.2993 9.67966 51.4615C9.84439 51.6237 9.93693 51.8437 9.93693 52.073V58.8103C9.93693 59.2691 10.122 59.7091 10.4515 60.0334C10.7809 60.3578 11.2278 60.5401 11.6937 60.5401H51.9752C52.6741 60.5401 53.3444 60.2667 53.8386 59.7801C54.3327 59.2935 54.6104 58.6336 54.6104 57.9455V6.05357C54.6104 5.36544 54.3327 4.7055 53.8386 4.21892C53.3444 3.73234 52.6741 3.45898 51.9752 3.45898H11.6937C11.2278 3.45898 10.7809 3.64122 10.4515 3.9656C10.122 4.28999 9.93693 4.72995 9.93693 5.18871V11.926C9.93693 12.1554 9.84439 12.3754 9.67966 12.5376C9.51493 12.6998 9.29151 12.7909 9.05855 12.7909C8.82559 12.7909 8.60217 12.6998 8.43745 12.5376C8.27272 12.3754 8.18018 12.1554 8.18018 11.926V5.18871C8.18018 4.2712 8.55035 3.39127 9.20926 2.7425C9.86817 2.09373 10.7618 1.72925 11.6937 1.72925H51.9752C53.1396 1.73062 54.2559 2.18666 55.0792 2.99733C55.9026 3.808 56.3657 4.90711 56.3671 6.05357V57.9455C56.3657 59.0919 55.9026 60.191 55.0792 61.0017C54.2559 61.8124 53.1396 62.2684 51.9752 62.2698Z" fill="#26ad50"/>
<path d="M19.5964 37.5796C19.3634 37.5796 19.14 37.4885 18.9753 37.3263C18.8106 37.1641 18.718 36.9441 18.718 36.7148V34.1461C18.718 33.9167 18.8106 33.6968 18.9753 33.5346C19.14 33.3724 19.3634 33.2812 19.5964 33.2812C19.8294 33.2812 20.0528 33.3724 20.2175 33.5346C20.3822 33.6968 20.4748 33.9167 20.4748 34.1461V36.7148C20.4748 36.9441 20.3822 37.1641 20.2175 37.3263C20.0528 37.4885 19.8294 37.5796 19.5964 37.5796Z" fill="#26ad50"/>
<path d="M19.5964 62.2706C19.3634 62.2706 19.14 62.1795 18.9753 62.0173C18.8106 61.8551 18.718 61.6351 18.718 61.4058V51.3387C18.718 51.1094 18.8106 50.8894 18.9753 50.7272C19.14 50.565 19.3634 50.4739 19.5964 50.4739C19.8294 50.4739 20.0528 50.565 20.2175 50.7272C20.3822 50.8894 20.4748 51.1094 20.4748 51.3387V61.4058C20.4748 61.6351 20.3822 61.8551 20.2175 62.0173C20.0528 62.1795 19.8294 62.2706 19.5964 62.2706Z" fill="#26ad50"/>
<path d="M19.5964 46.1476C19.3634 46.1476 19.14 46.0565 18.9753 45.8943C18.8106 45.7321 18.718 45.5121 18.718 45.2827V42.766C18.718 42.5366 18.8106 42.3166 18.9753 42.1544C19.14 41.9922 19.3634 41.9011 19.5964 41.9011C19.8294 41.9011 20.0528 41.9922 20.2175 42.1544C20.3822 42.3166 20.4748 42.5366 20.4748 42.766V45.2827C20.4748 45.5121 20.3822 45.7321 20.2175 45.8943C20.0528 46.0565 19.8294 46.1476 19.5964 46.1476Z" fill="#26ad50"/>
<path d="M19.5964 28.9552C19.3634 28.9552 19.14 28.8641 18.9753 28.7019C18.8106 28.5397 18.718 28.3197 18.718 28.0903V2.59411C18.718 2.36474 18.8106 2.14475 18.9753 1.98256C19.14 1.82037 19.3634 1.72925 19.5964 1.72925C19.8294 1.72925 20.0528 1.82037 20.2175 1.98256C20.3822 2.14475 20.4748 2.36474 20.4748 2.59411V28.0903C20.4748 28.3197 20.3822 28.5397 20.2175 28.7019C20.0528 28.8641 19.8294 28.9552 19.5964 28.9552Z" fill="#26ad50"/>
<path d="M11.3646 17.6926H6.82605C5.93312 17.6926 5.07675 17.3433 4.44535 16.7216C3.81395 16.0999 3.45923 15.2567 3.45923 14.3775C3.45923 13.4983 3.81395 12.6551 4.44535 12.0334C5.07675 11.4118 5.93312 11.0625 6.82605 11.0625H11.3646C12.2576 11.0625 13.1139 11.4118 13.7453 12.0334C14.3767 12.6551 14.7315 13.4983 14.7315 14.3775C14.7315 15.2567 14.3767 16.0999 13.7453 16.7216C13.1139 17.3433 12.2576 17.6926 11.3646 17.6926ZM6.82605 12.7922C6.39904 12.7922 5.98951 12.9593 5.68756 13.2566C5.38562 13.5539 5.21599 13.9571 5.21599 14.3775C5.21599 14.798 5.38562 15.2012 5.68756 15.4985C5.98951 15.7958 6.39904 15.9628 6.82605 15.9628H11.3646C11.7917 15.9628 12.2012 15.7958 12.5031 15.4985C12.8051 15.2012 12.9747 14.798 12.9747 14.3775C12.9747 13.9571 12.8051 13.5539 12.5031 13.2566C12.2012 12.9593 11.7917 12.7922 11.3646 12.7922H6.82605Z" fill="#26ad50"/>
<path d="M11.3646 29.4407H6.82601C5.94238 29.4267 5.09976 29.0712 4.47992 28.451C3.86008 27.8307 3.5127 26.9954 3.5127 26.1253C3.5127 25.2551 3.86008 24.4198 4.47992 23.7996C5.09976 23.1794 5.94238 22.8239 6.82601 22.8098H11.3646C12.2482 22.8239 13.0908 23.1794 13.7107 23.7996C14.3305 24.4198 14.6779 25.2551 14.6779 26.1253C14.6779 26.9954 14.3305 27.8307 13.7107 28.451C13.0908 29.0712 12.2482 29.4267 11.3646 29.4407ZM6.82601 24.5395C6.40539 24.5492 6.0053 24.7205 5.71129 25.0169C5.41728 25.3132 5.25268 25.711 5.25268 26.1253C5.25268 26.5395 5.41728 26.9374 5.71129 27.2337C6.0053 27.53 6.40539 27.7013 6.82601 27.711H11.3646C11.7852 27.7013 12.1853 27.53 12.4793 27.2337C12.7733 26.9374 12.9379 26.5395 12.9379 26.1253C12.9379 25.711 12.7733 25.3132 12.4793 25.0169C12.1853 24.7205 11.7852 24.5492 11.3646 24.5395H6.82601Z" fill="#26ad50"/>
<path d="M11.3646 41.1907H6.82601C5.94238 41.1767 5.09976 40.8212 4.47992 40.201C3.86008 39.5807 3.5127 38.7454 3.5127 37.8753C3.5127 37.0051 3.86008 36.1698 4.47992 35.5496C5.09976 34.9294 5.94238 34.5739 6.82601 34.5598H11.3646C12.2482 34.5739 13.0908 34.9294 13.7107 35.5496C14.3305 36.1698 14.6779 37.0051 14.6779 37.8753C14.6779 38.7454 14.3305 39.5807 13.7107 40.201C13.0908 40.8212 12.2482 41.1767 11.3646 41.1907ZM6.82601 36.2895C6.40539 36.2992 6.0053 36.4705 5.71129 36.7669C5.41728 37.0632 5.25268 37.461 5.25268 37.8753C5.25268 38.2895 5.41728 38.6874 5.71129 38.9837C6.0053 39.28 6.40539 39.4513 6.82601 39.461H11.3646C11.7852 39.4513 12.1853 39.28 12.4793 38.9837C12.7733 38.6874 12.9379 38.2895 12.9379 37.8753C12.9379 37.461 12.7733 37.0632 12.4793 36.7669C12.1853 36.4705 11.7852 36.2992 11.3646 36.2895H6.82601Z" fill="#26ad50"/>
<path d="M11.3646 52.9374H6.82605C5.93312 52.9374 5.07675 52.5882 4.44535 51.9665C3.81395 51.3448 3.45923 50.5016 3.45923 49.6224C3.45923 48.7432 3.81395 47.9 4.44535 47.2783C5.07675 46.6566 5.93312 46.3074 6.82605 46.3074H11.3646C12.2576 46.3074 13.1139 46.6566 13.7453 47.2783C14.3767 47.9 14.7315 48.7432 14.7315 49.6224C14.7315 50.5016 14.3767 51.3448 13.7453 51.9665C13.1139 52.5882 12.2576 52.9374 11.3646 52.9374ZM6.82605 48.0371C6.39904 48.0371 5.98951 48.2041 5.68756 48.5014C5.38562 48.7987 5.21599 49.202 5.21599 49.6224C5.21599 50.0428 5.38562 50.4461 5.68756 50.7434C5.98951 51.0407 6.39904 51.2077 6.82605 51.2077H11.3646C11.5761 51.2077 11.7854 51.1667 11.9808 51.087C12.1761 51.0074 12.3536 50.8906 12.5031 50.7434C12.6526 50.5962 12.7712 50.4214 12.8521 50.2291C12.9331 50.0367 12.9747 49.8306 12.9747 49.6224C12.9747 49.4142 12.9331 49.2081 12.8521 49.0157C12.7712 48.8234 12.6526 48.6486 12.5031 48.5014C12.3536 48.3542 12.1761 48.2374 11.9808 48.1578C11.7854 48.0781 11.5761 48.0371 11.3646 48.0371H6.82605Z" fill="#26ad50"/>
<path d="M45.6134 32.0004H29.4758C29.2428 32.0004 29.0194 31.9092 28.8547 31.7471C28.69 31.5849 28.5974 31.3649 28.5974 31.1355V28.2192C28.5993 26.5772 29.2626 25.0029 30.4418 23.8419C31.621 22.6808 33.2198 22.0277 34.8875 22.0259H40.2017C41.8693 22.0277 43.4682 22.6808 44.6474 23.8419C45.8266 25.0029 46.4899 26.5772 46.4918 28.2192V31.1355C46.4918 31.3649 46.3992 31.5849 46.2345 31.7471C46.0698 31.9092 45.8463 32.0004 45.6134 32.0004ZM30.3542 30.2706H44.735V28.2192C44.7336 27.0358 44.2555 25.9013 43.4057 25.0645C42.5558 24.2277 41.4036 23.757 40.2017 23.7556H34.8875C33.6856 23.757 32.5333 24.2277 31.6835 25.0645C30.8336 25.9013 30.3556 27.0358 30.3542 28.2192V30.2706Z" fill="#26ad50"/>
<path d="M37.5437 23.7373C36.4624 23.7373 35.4054 23.4216 34.5064 22.8301C33.6073 22.2386 32.9066 21.3979 32.4928 20.4143C32.079 19.4307 31.9708 18.3484 32.1817 17.3042C32.3927 16.26 32.9133 15.3009 33.6779 14.5481C34.4425 13.7952 35.4166 13.2826 36.4771 13.0749C37.5376 12.8672 38.6369 12.9738 39.6358 13.3812C40.6348 13.7886 41.4886 14.4786 42.0894 15.3638C42.6901 16.249 43.0107 17.2897 43.0107 18.3544C43.0091 19.7815 42.4326 21.1497 41.4077 22.1589C40.3828 23.168 38.9931 23.7357 37.5437 23.7373ZM37.5437 14.702C36.8098 14.702 36.0925 14.9163 35.4823 15.3178C34.8721 15.7192 34.3966 16.2898 34.1158 16.9574C33.835 17.625 33.7615 18.3596 33.9048 19.0682C34.048 19.7769 34.4015 20.4278 34.9204 20.9387C35.4394 21.4496 36.1006 21.7975 36.8204 21.9383C37.5402 22.0792 38.2862 22.0067 38.9642 21.7301C39.6421 21.4534 40.2215 20.9851 40.6291 20.3842C41.0367 19.7833 41.2541 19.0769 41.254 18.3544C41.2528 17.3859 40.8615 16.4575 40.1659 15.7727C39.4703 15.088 38.5273 14.7029 37.5437 14.702Z" fill="#26ad50"/>
<path d="M59.7807 19.8957H55.489C55.256 19.8957 55.0326 19.8045 54.8679 19.6423C54.7031 19.4802 54.6106 19.2602 54.6106 19.0308V11.0421C54.6106 10.8127 54.7031 10.5927 54.8679 10.4306C55.0326 10.2684 55.256 10.1772 55.489 10.1772H59.7807C60.2461 10.1788 60.692 10.3616 61.0211 10.6856C61.3503 11.0097 61.5359 11.4487 61.5375 11.907V18.1599C61.5372 18.6191 61.3523 19.0596 61.0231 19.3849C60.6938 19.7102 60.2471 19.8938 59.7807 19.8957ZM56.3673 18.1659H59.7807V11.9104H56.3638L56.3673 18.1659Z" fill="#26ad50"/>
<path d="M59.7807 27.8877H55.489C55.256 27.8877 55.0326 27.7966 54.8679 27.6344C54.7031 27.4722 54.6106 27.2522 54.6106 27.0228V19.0341C54.6106 18.8047 54.7031 18.5847 54.8679 18.4225C55.0326 18.2603 55.256 18.1692 55.489 18.1692H59.7807C60.2461 18.1708 60.692 18.3535 61.0211 18.6776C61.3503 19.0016 61.5359 19.4407 61.5375 19.8989V26.1545C61.5368 26.6133 61.3516 27.0533 61.0224 27.3781C60.6932 27.7028 60.2467 27.8861 59.7807 27.8877ZM56.3673 26.1579H59.7807V19.9024H56.3638L56.3673 26.1579Z" fill="#26ad50"/>
<path d="M59.7807 35.874H55.489C55.256 35.874 55.0326 35.7829 54.8679 35.6207C54.7031 35.4585 54.6106 35.2385 54.6106 35.0092V27.0211C54.6106 26.7917 54.7031 26.5718 54.8679 26.4096C55.0326 26.2474 55.256 26.1562 55.489 26.1562H59.7807C60.2461 26.1578 60.692 26.3406 61.0211 26.6646C61.3503 26.9887 61.5359 27.4277 61.5375 27.886V34.1382C61.5377 34.5976 61.3529 35.0383 61.0236 35.3637C60.6942 35.6891 60.2473 35.8727 59.7807 35.874ZM56.3673 34.1443H59.7807V27.8895H56.3638L56.3673 34.1443Z" fill="#26ad50"/>
</svg>
