<svg width="64" height="64" viewBox="0 0 64 64" fill="none" xmlns="http://www.w3.org/2000/svg">
<g clip-path="url(#clip0)">
<path d="M63.3042 62.2635H0.695758C0.3117 62.2635 0 61.9518 0 61.5677V38.9597C0 38.6894 0.156546 38.4435 0.401452 38.329L16.0536 31.027C16.2693 30.9265 16.5211 30.9432 16.7215 31.0705C16.9222 31.1982 17.0436 31.4195 17.0436 31.6574V37.867L31.7057 31.027C31.9214 30.9265 32.1729 30.9432 32.3736 31.0705C32.5743 31.1982 32.6958 31.4195 32.6958 31.6574V37.867L38.2535 35.2743V23.7814C38.2535 23.3974 38.5652 23.0857 38.9492 23.0857C39.3333 23.0857 39.645 23.3974 39.645 23.7814V34.6255L41.6049 33.7113V20.7542C41.6049 20.3701 41.9166 20.0584 42.3007 20.0584H45.0698C45.4539 20.0584 45.7656 20.3701 45.7656 20.7542V31.7701L47.3582 31.027C47.5738 30.9265 47.8254 30.9432 48.0261 31.0705C48.2268 31.1982 48.3482 31.4195 48.3482 31.6574V37.867L51.2363 36.5197C51.2318 36.4825 51.2301 36.4446 51.2318 36.406L52.6856 2.40252C52.7016 2.03029 53.0081 1.73633 53.3806 1.73633H58.1184C58.4896 1.73633 58.7954 2.02785 58.8135 2.39869L60.2537 32.3132L63.0106 31.027C63.2263 30.9265 63.4778 30.9432 63.6786 31.0705C63.8793 31.1982 64.0007 31.4195 64.0007 31.6574V61.5673C64 61.9518 63.6883 62.2635 63.3042 62.2635ZM1.39152 60.8719H62.6085V32.7501L47.9464 39.5901C47.7307 39.6906 47.4789 39.6739 47.2785 39.5466C47.0778 39.4189 46.9564 39.1977 46.9564 38.9597V32.7501L42.7129 34.7295C42.6399 34.7834 42.5557 34.8235 42.4642 34.8454L39.2557 36.3419C39.2474 36.3461 39.2383 36.3503 39.2296 36.3541L32.294 39.5897C32.0783 39.6903 31.8264 39.6736 31.626 39.5463C31.4253 39.4186 31.3039 39.1973 31.3039 38.9594V32.7497L16.6422 39.5897C16.4265 39.6903 16.1746 39.6736 15.9743 39.5463C15.7735 39.4186 15.6521 39.1973 15.6521 38.9594V32.7497L1.39152 39.4026V60.8719ZM54.0465 3.12819L52.6473 35.8615L58.9018 32.9435C58.8924 32.9025 58.8862 32.8597 58.8837 32.8158L57.4547 3.12819H54.0465ZM42.9961 21.4499V33.0618L44.3737 32.4193V21.4499H42.9961ZM58.2019 52.6721H54.0044C53.6203 52.6721 53.3086 52.3604 53.3086 51.9763V46.0432C53.3086 45.6592 53.6203 45.3475 54.0044 45.3475H58.2019C58.586 45.3475 58.8977 45.6592 58.8977 46.0432V51.9763C58.8977 52.3607 58.586 52.6721 58.2019 52.6721ZM54.6998 51.2806H57.5058V46.739H54.6998V51.2806ZM48.607 52.6721H44.4092C44.0251 52.6721 43.7134 52.3604 43.7134 51.9763V46.0432C43.7134 45.6592 44.0251 45.3475 44.4092 45.3475H48.607C48.9911 45.3475 49.3028 45.6592 49.3028 46.0432V51.9763C49.3028 52.3607 48.9911 52.6721 48.607 52.6721ZM45.1046 51.2806H47.9109V46.739H45.1046V51.2806ZM39.0118 52.6721H34.8143C34.4303 52.6721 34.1186 52.3604 34.1186 51.9763V46.0432C34.1186 45.6592 34.4303 45.3475 34.8143 45.3475H39.0118C39.3959 45.3475 39.7076 45.6592 39.7076 46.0432V51.9763C39.7076 52.3607 39.3959 52.6721 39.0118 52.6721ZM35.5098 51.2806H38.3157V46.739H35.5098V51.2806ZM29.417 52.6721H25.2191C24.8351 52.6721 24.5234 52.3604 24.5234 51.9763V46.0432C24.5234 45.6592 24.8351 45.3475 25.2191 45.3475H29.4166C29.8007 45.3475 30.1124 45.6592 30.1124 46.0432V51.9763C30.1128 52.3607 29.8011 52.6721 29.417 52.6721ZM25.9149 51.2806H28.7209V46.739H25.9149V51.2806ZM19.8218 52.6721H15.6239C15.2399 52.6721 14.9282 52.3604 14.9282 51.9763V46.0432C14.9282 45.6592 15.2399 45.3475 15.6239 45.3475H19.8218C20.2059 45.3475 20.5176 45.6592 20.5176 46.0432V51.9763C20.5176 52.3607 20.2062 52.6721 19.8218 52.6721ZM16.3197 51.2806H19.126V46.739H16.3197V51.2806ZM10.2269 52.6721H6.02909C5.64503 52.6721 5.33333 52.3604 5.33333 51.9763V46.0432C5.33333 45.6592 5.64503 45.3475 6.02909 45.3475H10.2269C10.611 45.3475 10.9227 45.6592 10.9227 46.0432V51.9763C10.9227 52.3607 10.6114 52.6721 10.2269 52.6721ZM6.72485 51.2806H9.53119V46.739H6.72485V51.2806Z" fill="#26ad50"/>
</g>
<defs>
<clipPath id="clip0">
<rect width="64" height="64" fill="white"/>
</clipPath>
</defs>
</svg>
