<svg width="64" height="64" viewBox="0 0 64 64" fill="none" xmlns="http://www.w3.org/2000/svg">
<path d="M63.2623 16.2621L56.1298 14.1689C56.1298 14.1689 56.1298 14.1689 56.0523 14.1689C55.9748 14.1689 55.8197 14.1689 55.7422 14.1689H55.6646C55.5871 14.1689 55.4321 14.2464 55.3545 14.2464C55.3545 14.2464 55.277 14.2464 55.277 14.324C55.1995 14.4015 55.122 14.4015 55.0444 14.479L54.9669 14.5565C54.8894 14.6341 54.8118 14.7891 54.8118 14.8667L52.7961 21.3014C52.6411 21.8441 52.9512 22.4643 53.4939 22.6194C54.0366 22.7745 54.6568 22.4643 54.8118 21.9216L56.1298 17.7352C58.6107 22.0767 59.8511 26.9609 59.8511 32.0002C59.8511 47.9708 46.9041 60.9179 30.9334 60.9179C14.9628 60.9179 2.01571 47.9708 2.01571 32.0002C2.01571 16.0296 14.9628 3.0825 30.9334 3.0825C35.8176 3.0825 40.6243 4.32293 44.8108 6.64876C45.3535 6.95887 45.9737 6.72628 46.2838 6.26112C46.5939 5.71843 46.3614 5.09821 45.8962 4.7881C41.3996 2.30722 36.2828 0.989258 31.0109 0.989258C13.8774 0.989258 0 14.8667 0 32.0002C0 49.1338 13.8774 63.0112 31.0109 63.0112C48.1445 63.0112 62.0219 49.1338 62.0219 32.0002C62.0219 26.7283 60.7039 21.6115 58.1455 16.9599L62.6421 18.2779C62.7196 18.2779 62.8747 18.3554 62.9522 18.3554C63.4174 18.3554 63.805 18.0453 63.9601 17.5801C64.1151 17.0374 63.805 16.4172 63.2623 16.2621Z" fill="#26ad50"/>
<path d="M43.648 45.645H42.5626C42.7176 43.7844 42.485 40.2181 39.1514 36.962L37.9885 35.7991C35.275 33.0856 35.275 33.0081 35.275 32.0002C35.275 31.0699 35.4301 30.8373 37.8334 28.5115C38.221 28.1239 38.6862 27.6587 39.2289 27.116C42.485 23.7823 42.7176 20.2936 42.6401 18.4329H43.7255C44.8884 18.3554 46.0513 17.27 46.0513 15.9521C46.0513 14.5566 44.9659 13.4712 43.5704 13.4712H18.4516C17.0561 13.4712 15.9707 14.5566 15.9707 15.9521C15.9707 17.3476 17.0561 18.4329 18.4516 18.4329H19.7695C19.6145 20.2936 19.9246 23.7823 23.1807 27.116C23.7234 27.6587 24.1886 28.1239 24.5762 28.5115C26.9796 30.9148 27.1346 31.0699 27.1346 32.0002C27.1346 33.0081 27.1346 33.0081 24.4212 35.7991L23.2583 36.962C20.0021 40.2181 19.692 43.7844 19.8471 45.645H18.5291C17.1336 45.645 16.0482 46.7304 16.0482 48.1259C16.0482 49.5214 17.1336 50.6068 18.5291 50.6068H43.648C45.0434 50.6068 46.1288 49.5214 46.1288 48.1259C46.1288 46.7304 45.0434 45.645 43.648 45.645ZM18.5291 16.2622C18.2965 16.2622 18.1415 16.1071 18.1415 15.9521C18.1415 15.797 18.2965 15.642 18.4516 15.642H43.5704C43.7255 15.642 43.8805 15.797 43.8805 15.9521C43.8805 16.1071 43.7255 16.2622 43.5704 16.2622H42.0199H20.2347H18.5291ZM24.7313 38.435L25.8942 37.2721C28.6852 34.4811 29.2279 33.9384 29.2279 32.0002C29.2279 30.1396 28.5301 29.4418 26.0493 26.961C25.6616 26.5733 25.1965 26.1082 24.6538 25.5655C21.8628 22.6969 21.7077 19.7509 21.8628 18.3554H40.3143C40.4693 19.7509 40.3918 22.7745 37.6008 25.5655C37.0581 26.1082 36.593 26.5733 36.2053 26.961C33.802 29.3643 33.1042 30.1396 33.1042 32.0002C33.1042 33.9384 33.6469 34.4811 36.4379 37.2721L37.6008 38.435C40.4693 41.3035 40.5469 44.2496 40.3918 45.645H21.9403C21.7853 44.2496 21.8628 41.3035 24.7313 38.435ZM43.5704 48.3585H18.4516C18.2965 48.3585 18.1415 48.2034 18.1415 48.0484C18.1415 47.8933 18.2965 47.7383 18.4516 47.7383H20.2347H42.0199H43.5704C43.7255 47.7383 43.8805 47.8933 43.8805 48.0484C43.8805 48.2034 43.7255 48.3585 43.5704 48.3585Z" fill="#26ad50"/>
</svg>
