<svg width="543" height="415" viewBox="0 0 543 415" fill="none" xmlns="http://www.w3.org/2000/svg">
<g filter="url(#filter0_dd_344:49)">
<rect x="6" y="278.839" width="531" height="129.512" rx="4.31707" fill="white"/>
</g>
<rect x="131.195" y="300.424" width="65.6195" height="12.9512" fill="#C4C4C4"/>
<rect x="131.195" y="318.988" width="65.6195" height="6.47561" fill="#C4C4C4"/>
<rect x="131.195" y="370.793" width="90.6585" height="6.47561" fill="#C4C4C4"/>
<rect x="131.195" y="327.19" width="65.6195" height="6.47561" fill="#C4C4C4"/>
<rect x="131.195" y="361.727" width="90.6585" height="6.47561" fill="#C4C4C4"/>
<rect x="131.195" y="378.995" width="90.6585" height="6.47561" fill="#C4C4C4"/>
<rect x="27.584" y="300.424" width="86.3415" height="86.3415" rx="4.31707" fill="#E4E4E4"/>
<path d="M70.878 343C74.9916 343 78.5536 341.522 81.464 338.605C84.3744 335.689 85.8497 332.121 85.8497 328C85.8497 323.879 84.3744 320.311 81.4635 317.394C78.5526 314.478 74.9911 313 70.878 313C66.764 313 63.2029 314.478 60.2925 317.394C57.3821 320.31 55.9062 323.879 55.9062 328C55.9062 332.121 57.3821 335.69 60.293 338.606C63.2039 341.521 66.7654 343 70.878 343Z" fill="#F1A616"/>
<path d="M96.7021 360.698C96.6181 359.492 96.4482 358.176 96.198 356.787C95.9455 355.387 95.6204 354.064 95.2312 352.854C94.8292 351.604 94.2824 350.37 93.6066 349.187C92.9051 347.959 92.0811 346.889 91.1566 346.01C90.1898 345.089 89.006 344.349 87.6372 343.809C86.2732 343.272 84.7615 343 83.1444 343C82.5094 343 81.8952 343.26 80.7091 344.028C79.9792 344.502 79.1253 345.05 78.1723 345.655C77.3573 346.172 76.2534 346.656 74.8898 347.094C73.5594 347.523 72.2086 347.74 70.8754 347.74C69.5422 347.74 68.1919 347.523 66.8601 347.094C65.4979 346.657 64.3939 346.173 63.5799 345.656C62.6359 345.056 61.7816 344.508 61.0407 344.028C59.856 343.259 59.2414 343 58.6064 343C56.9888 343 55.4776 343.272 54.114 343.81C52.7462 344.349 51.562 345.089 50.5942 346.01C49.6701 346.89 48.8457 347.959 48.1452 349.187C47.4698 350.37 46.923 351.604 46.5205 352.855C46.1318 354.064 45.8067 355.387 45.5542 356.787C45.3041 358.174 45.1341 359.49 45.0501 360.699C44.9675 361.884 44.9258 363.113 44.9258 364.354C44.9258 367.586 45.9581 370.201 47.9938 372.131C50.0043 374.034 52.6645 375 55.8996 375H85.8541C89.0891 375 91.7484 374.035 93.7594 372.131C95.7955 370.203 96.8279 367.587 96.8279 364.354C96.8274 363.107 96.7851 361.877 96.7021 360.698Z" fill="#F1A616"/>
<rect x="429.072" y="299.129" width="86.3415" height="86.3415" rx="4.31707" fill="#C81926"/>
<path d="M496.924 317.185L447.869 366.425" stroke="white" stroke-width="5.18049" stroke-linecap="round"/>
<path d="M496.713 366.333L447.473 317.278" stroke="white" stroke-width="5.18049" stroke-linecap="round"/>
<path d="M360.718 371.498C361.044 371.647 361.187 372.031 361.039 372.356L358.624 377.66C358.476 377.986 358.092 378.129 357.766 377.981C357.441 377.833 357.297 377.449 357.445 377.123L359.592 372.409L354.877 370.262C354.552 370.114 354.408 369.73 354.556 369.404C354.705 369.079 355.089 368.935 355.414 369.083L360.718 371.498ZM327.371 383.776L360.223 371.481L360.677 372.694L327.825 384.989L327.371 383.776Z" fill="#9DACFF"/>
<circle r="1.94268" transform="matrix(-1 0 0 1 326.46 384.823)" fill="#C81926"/>
<path d="M369.684 386.144H412.684C411.084 346.144 387.705 323.937 376.684 316.644L351.684 351.644C365.284 360.444 369.35 378.31 369.684 386.144Z" fill="#C81926"/>
<path d="M301.388 351.644L276.381 316.643C319.981 286.243 361.193 303.973 376.693 316.639L351.697 351.647C331.297 337.247 309.721 345.644 301.388 351.644Z" fill="#FCD056"/>
<path d="M240.385 386.144H283.385C283.718 378.31 287.785 360.444 301.385 351.644L276.385 316.644C265.051 323.144 241.985 346.144 240.385 386.144Z" fill="#3DB562"/>
<g filter="url(#filter1_dd_344:49)">
<rect x="6" y="142.419" width="531" height="129.512" rx="4.31707" fill="white"/>
</g>
<g filter="url(#filter2_d_344:49)">
<rect x="429.074" y="164.005" width="86.3415" height="86.3415" rx="4.31707" fill="#FCD056"/>
</g>
<path d="M468.315 226.091C467.678 226.091 467.137 225.9 466.692 225.518C466.31 225.073 466.119 224.532 466.119 223.895V177.307C466.119 176.67 466.31 176.161 466.692 175.779C467.137 175.334 467.678 175.111 468.315 175.111H472.802C473.438 175.111 473.947 175.334 474.329 175.779C474.775 176.161 474.998 176.67 474.998 177.307V223.895C474.998 224.532 474.775 225.073 474.329 225.518C473.947 225.9 473.438 226.091 472.802 226.091H468.315ZM467.455 241.939C466.819 241.939 466.278 241.748 465.833 241.366C465.451 240.921 465.26 240.38 465.26 239.743V233.729C465.26 233.092 465.451 232.551 465.833 232.106C466.278 231.66 466.819 231.437 467.455 231.437H473.566C474.202 231.437 474.711 231.66 475.093 232.106C475.539 232.551 475.761 233.092 475.761 233.729V239.743C475.761 240.38 475.539 240.921 475.093 241.366C474.711 241.748 474.202 241.939 473.566 241.939H467.455Z" fill="white"/>
<rect x="131.195" y="164.005" width="65.6195" height="12.9512" fill="#C4C4C4"/>
<rect x="131.195" y="182.568" width="65.6195" height="6.47561" fill="#C4C4C4"/>
<rect x="131.195" y="234.373" width="90.6585" height="6.47561" fill="#C4C4C4"/>
<rect x="131.195" y="190.771" width="65.6195" height="6.47561" fill="#C4C4C4"/>
<rect x="131.195" y="225.307" width="90.6585" height="6.47561" fill="#C4C4C4"/>
<rect x="131.195" y="242.576" width="90.6585" height="6.47561" fill="#C4C4C4"/>
<rect x="27.584" y="164.005" width="86.3415" height="86.3415" rx="4.31707" fill="#E4E4E4"/>
<path d="M70.878 206C74.9916 206 78.5536 204.522 81.464 201.605C84.3744 198.689 85.8497 195.121 85.8497 191C85.8497 186.879 84.3744 183.311 81.4635 180.394C78.5526 177.478 74.9911 176 70.878 176C66.764 176 63.2029 177.478 60.2925 180.394C57.3821 183.31 55.9062 186.879 55.9062 191C55.9062 195.121 57.3821 198.69 60.293 201.606C63.2039 204.521 66.7654 206 70.878 206Z" fill="#F1A616"/>
<path d="M96.7021 223.698C96.6181 222.492 96.4482 221.176 96.198 219.787C95.9455 218.387 95.6204 217.064 95.2312 215.854C94.8292 214.604 94.2824 213.37 93.6066 212.187C92.9051 210.959 92.0811 209.889 91.1566 209.01C90.1898 208.089 89.006 207.349 87.6372 206.809C86.2732 206.272 84.7615 206 83.1444 206C82.5094 206 81.8952 206.26 80.7091 207.028C79.9792 207.502 79.1253 208.05 78.1723 208.655C77.3573 209.172 76.2534 209.656 74.8898 210.094C73.5594 210.523 72.2086 210.74 70.8754 210.74C69.5422 210.74 68.1919 210.523 66.8601 210.094C65.4979 209.657 64.3939 209.173 63.5799 208.656C62.6359 208.056 61.7816 207.508 61.0407 207.028C59.856 206.259 59.2414 206 58.6064 206C56.9888 206 55.4776 206.272 54.114 206.81C52.7462 207.349 51.562 208.089 50.5942 209.01C49.6701 209.89 48.8457 210.959 48.1452 212.187C47.4698 213.37 46.923 214.604 46.5205 215.855C46.1318 217.064 45.8067 218.387 45.5542 219.787C45.3041 221.174 45.1341 222.49 45.0501 223.699C44.9675 224.884 44.9258 226.113 44.9258 227.354C44.9258 230.586 45.9581 233.201 47.9938 235.131C50.0043 237.034 52.6645 238 55.8996 238H85.8541C89.0891 238 91.7484 237.035 93.7594 235.131C95.7955 233.203 96.8279 230.587 96.8279 227.354C96.8274 226.107 96.7851 224.877 96.7021 223.698Z" fill="#F1A616"/>
<path d="M324.653 210.577C324.386 210.339 323.977 210.363 323.739 210.631L319.866 214.985C319.628 215.253 319.652 215.662 319.919 215.9C320.186 216.137 320.596 216.113 320.833 215.846L324.276 211.975L328.147 215.418C328.414 215.656 328.824 215.632 329.061 215.365C329.299 215.097 329.275 214.688 329.008 214.45L324.653 210.577ZM326.918 246.041L324.869 211.023L323.576 211.099L325.625 246.116L326.918 246.041Z" fill="#9DACFF"/>
<circle cx="326.273" cy="247.109" r="1.94268" fill="#C81926"/>
<path d="M369.684 249.051H412.684C411.084 209.051 387.705 186.845 376.684 179.551L351.684 214.551C365.284 223.351 369.35 241.218 369.684 249.051Z" fill="#C81926"/>
<path d="M301.39 214.551L276.383 179.551C319.983 149.151 361.195 166.88 376.695 179.547L351.699 214.555C331.299 200.155 309.723 208.551 301.39 214.551Z" fill="#FCD056"/>
<path d="M240.387 249.051H283.387C283.72 241.218 287.787 223.351 301.387 214.551L276.387 179.551C265.053 186.051 241.987 209.051 240.387 249.051Z" fill="#3DB562"/>
<g filter="url(#filter3_dd_344:49)">
<rect x="6" y="6" width="531" height="129.512" rx="4.31707" fill="white"/>
</g>
<g filter="url(#filter4_d_344:49)">
<rect x="429.072" y="27.5853" width="86.3415" height="86.3415" rx="4.31707" fill="#3DB562"/>
</g>
<path d="M464.364 84.8013L498.503 44.8536L503.758 50.9981L464.364 97.0902L440.729 69.4358L445.98 63.2914L464.364 84.8013Z" fill="white"/>
<rect x="131.195" y="27.5853" width="65.6195" height="12.9512" fill="#C4C4C4"/>
<rect x="131.195" y="46.1488" width="65.6195" height="6.47561" fill="#C4C4C4"/>
<rect x="131.195" y="54.3512" width="65.6195" height="6.47561" fill="#C4C4C4"/>
<rect x="131.195" y="97.9536" width="90.6585" height="6.47561" fill="#C4C4C4"/>
<rect x="131.195" y="88.8878" width="90.6585" height="6.47561" fill="#C4C4C4"/>
<rect x="131.195" y="106.156" width="90.6585" height="6.47561" fill="#C4C4C4"/>
<rect x="27.584" y="27.5853" width="86.3415" height="86.3415" rx="4.31707" fill="#E4E4E4"/>
<path d="M70.878 70C74.9916 70 78.5536 68.5218 81.464 65.6053C84.3744 62.6893 85.8497 59.1214 85.8497 54.9995C85.8497 50.879 84.3744 47.3107 81.4635 44.3937C78.5526 41.4782 74.9911 40 70.878 40C66.764 40 63.2029 41.4782 60.2925 44.3942C57.3821 47.3102 55.9062 50.8786 55.9062 54.9995C55.9062 59.1214 57.3821 62.6898 60.293 65.6058C63.2039 68.5213 66.7654 70 70.878 70Z" fill="#F1A616"/>
<path d="M96.7021 87.6978C96.6181 86.4916 96.4482 85.1759 96.198 83.7865C95.9455 82.3868 95.6204 81.0635 95.2312 79.8541C94.8292 78.604 94.2824 77.3695 93.6066 76.1865C92.9051 74.9587 92.0811 73.8895 91.1566 73.0097C90.1898 72.0893 89.006 71.3492 87.6372 70.8094C86.2732 70.2725 84.7615 70.0005 83.1444 70.0005C82.5094 70.0005 81.8952 70.2597 80.7091 71.0281C79.9792 71.5018 79.1253 72.0496 78.1723 72.6555C77.3573 73.1721 76.2534 73.6562 74.8898 74.0945C73.5594 74.5228 72.2086 74.74 70.8754 74.74C69.5422 74.74 68.1919 74.5228 66.8601 74.0945C65.4979 73.6567 64.3939 73.1726 63.5799 72.656C62.6359 72.0557 61.7816 71.5079 61.0407 71.0276C59.856 70.2593 59.2414 70 58.6064 70C56.9888 70 55.4776 70.2725 54.114 70.8099C52.7462 71.3488 51.562 72.0888 50.5942 73.0102C49.6701 73.8904 48.8457 74.9592 48.1452 76.1865C47.4698 77.3695 46.923 78.6035 46.5205 79.8545C46.1318 81.064 45.8067 82.3868 45.5542 83.7865C45.3041 85.174 45.1341 86.4902 45.0501 87.6992C44.9675 88.8836 44.9258 90.1129 44.9258 91.3544C44.9258 94.5856 45.9581 97.2014 47.9938 99.1306C50.0043 101.034 52.6645 102 55.8996 102H85.8541C89.0891 102 91.7484 101.035 93.7594 99.1306C95.7955 97.2028 96.8279 94.5865 96.8279 91.354C96.8274 90.1067 96.7851 88.8765 96.7021 87.6978Z" fill="#F1A616"/>
<path d="M369.684 112.632H412.684C411.084 72.6316 387.705 50.4253 376.684 43.1316L351.684 78.1316C365.284 86.9316 369.35 104.798 369.684 112.632Z" fill="#C81926"/>
<path d="M301.39 78.1316L276.383 43.1313C319.983 12.7313 361.195 30.4607 376.695 43.1274L351.699 78.1352C331.299 63.7352 309.723 72.1316 301.39 78.1316Z" fill="#FCD056"/>
<path d="M240.387 112.632H283.387C283.72 104.798 287.787 86.9316 301.387 78.1316L276.387 43.1316C265.053 49.6316 241.987 72.6316 240.387 112.632Z" fill="#3DB562"/>
<path d="M292.268 97.3643C291.943 97.5125 291.799 97.8965 291.947 98.222L294.362 103.526C294.511 103.852 294.895 103.995 295.22 103.847C295.546 103.699 295.689 103.315 295.541 102.989L293.394 98.2746L298.109 96.1278C298.434 95.9796 298.578 95.5956 298.43 95.2701C298.282 94.9446 297.898 94.8009 297.572 94.9491L292.268 97.3643ZM325.616 109.642L292.763 97.3472L292.31 98.5601L325.162 110.855L325.616 109.642Z" fill="#9DACFF"/>
<circle cx="326.527" cy="110.689" r="1.94268" fill="#C81926"/>
<defs>
<filter id="filter0_dd_344:49" x="0.819512" y="273.659" width="541.361" height="140.737" filterUnits="userSpaceOnUse" color-interpolation-filters="sRGB">
<feFlood flood-opacity="0" result="BackgroundImageFix"/>
<feColorMatrix in="SourceAlpha" type="matrix" values="0 0 0 0 0 0 0 0 0 0 0 0 0 0 0 0 0 0 127 0" result="hardAlpha"/>
<feMorphology radius="0.863415" operator="dilate" in="SourceAlpha" result="effect1_dropShadow_344:49"/>
<feOffset dy="0.863415"/>
<feGaussianBlur stdDeviation="2.15854"/>
<feColorMatrix type="matrix" values="0 0 0 0 0 0 0 0 0 0 0 0 0 0 0 0 0 0 0.1 0"/>
<feBlend mode="normal" in2="BackgroundImageFix" result="effect1_dropShadow_344:49"/>
<feColorMatrix in="SourceAlpha" type="matrix" values="0 0 0 0 0 0 0 0 0 0 0 0 0 0 0 0 0 0 127 0" result="hardAlpha"/>
<feOffset dy="-0.863415"/>
<feGaussianBlur stdDeviation="2.15854"/>
<feColorMatrix type="matrix" values="0 0 0 0 0 0 0 0 0 0 0 0 0 0 0 0 0 0 0.1 0"/>
<feBlend mode="normal" in2="effect1_dropShadow_344:49" result="effect2_dropShadow_344:49"/>
<feBlend mode="normal" in="SourceGraphic" in2="effect2_dropShadow_344:49" result="shape"/>
</filter>
<filter id="filter1_dd_344:49" x="0.819512" y="137.239" width="541.361" height="140.737" filterUnits="userSpaceOnUse" color-interpolation-filters="sRGB">
<feFlood flood-opacity="0" result="BackgroundImageFix"/>
<feColorMatrix in="SourceAlpha" type="matrix" values="0 0 0 0 0 0 0 0 0 0 0 0 0 0 0 0 0 0 127 0" result="hardAlpha"/>
<feMorphology radius="0.863415" operator="dilate" in="SourceAlpha" result="effect1_dropShadow_344:49"/>
<feOffset dy="0.863415"/>
<feGaussianBlur stdDeviation="2.15854"/>
<feColorMatrix type="matrix" values="0 0 0 0 0 0 0 0 0 0 0 0 0 0 0 0 0 0 0.1 0"/>
<feBlend mode="normal" in2="BackgroundImageFix" result="effect1_dropShadow_344:49"/>
<feColorMatrix in="SourceAlpha" type="matrix" values="0 0 0 0 0 0 0 0 0 0 0 0 0 0 0 0 0 0 127 0" result="hardAlpha"/>
<feOffset dy="-0.863415"/>
<feGaussianBlur stdDeviation="2.15854"/>
<feColorMatrix type="matrix" values="0 0 0 0 0 0 0 0 0 0 0 0 0 0 0 0 0 0 0.1 0"/>
<feBlend mode="normal" in2="effect1_dropShadow_344:49" result="effect2_dropShadow_344:49"/>
<feBlend mode="normal" in="SourceGraphic" in2="effect2_dropShadow_344:49" result="shape"/>
</filter>
<filter id="filter2_d_344:49" x="423.074" y="158.005" width="98.3418" height="98.3414" filterUnits="userSpaceOnUse" color-interpolation-filters="sRGB">
<feFlood flood-opacity="0" result="BackgroundImageFix"/>
<feColorMatrix in="SourceAlpha" type="matrix" values="0 0 0 0 0 0 0 0 0 0 0 0 0 0 0 0 0 0 127 0" result="hardAlpha"/>
<feMorphology radius="1" operator="dilate" in="SourceAlpha" result="effect1_dropShadow_344:49"/>
<feOffset/>
<feGaussianBlur stdDeviation="2.5"/>
<feColorMatrix type="matrix" values="0 0 0 0 0.239216 0 0 0 0 0.709804 0 0 0 0 0.384314 0 0 0 0.15 0"/>
<feBlend mode="normal" in2="BackgroundImageFix" result="effect1_dropShadow_344:49"/>
<feBlend mode="normal" in="SourceGraphic" in2="effect1_dropShadow_344:49" result="shape"/>
</filter>
<filter id="filter3_dd_344:49" x="0.819512" y="0.819512" width="541.361" height="140.737" filterUnits="userSpaceOnUse" color-interpolation-filters="sRGB">
<feFlood flood-opacity="0" result="BackgroundImageFix"/>
<feColorMatrix in="SourceAlpha" type="matrix" values="0 0 0 0 0 0 0 0 0 0 0 0 0 0 0 0 0 0 127 0" result="hardAlpha"/>
<feMorphology radius="0.863415" operator="dilate" in="SourceAlpha" result="effect1_dropShadow_344:49"/>
<feOffset dy="0.863415"/>
<feGaussianBlur stdDeviation="2.15854"/>
<feColorMatrix type="matrix" values="0 0 0 0 0 0 0 0 0 0 0 0 0 0 0 0 0 0 0.1 0"/>
<feBlend mode="normal" in2="BackgroundImageFix" result="effect1_dropShadow_344:49"/>
<feColorMatrix in="SourceAlpha" type="matrix" values="0 0 0 0 0 0 0 0 0 0 0 0 0 0 0 0 0 0 127 0" result="hardAlpha"/>
<feOffset dy="-0.863415"/>
<feGaussianBlur stdDeviation="2.15854"/>
<feColorMatrix type="matrix" values="0 0 0 0 0 0 0 0 0 0 0 0 0 0 0 0 0 0 0.1 0"/>
<feBlend mode="normal" in2="effect1_dropShadow_344:49" result="effect2_dropShadow_344:49"/>
<feBlend mode="normal" in="SourceGraphic" in2="effect2_dropShadow_344:49" result="shape"/>
</filter>
<filter id="filter4_d_344:49" x="423.072" y="21.5853" width="98.3418" height="98.3414" filterUnits="userSpaceOnUse" color-interpolation-filters="sRGB">
<feFlood flood-opacity="0" result="BackgroundImageFix"/>
<feColorMatrix in="SourceAlpha" type="matrix" values="0 0 0 0 0 0 0 0 0 0 0 0 0 0 0 0 0 0 127 0" result="hardAlpha"/>
<feMorphology radius="1" operator="dilate" in="SourceAlpha" result="effect1_dropShadow_344:49"/>
<feOffset/>
<feGaussianBlur stdDeviation="2.5"/>
<feColorMatrix type="matrix" values="0 0 0 0 0.239216 0 0 0 0 0.709804 0 0 0 0 0.384314 0 0 0 0.15 0"/>
<feBlend mode="normal" in2="BackgroundImageFix" result="effect1_dropShadow_344:49"/>
<feBlend mode="normal" in="SourceGraphic" in2="effect1_dropShadow_344:49" result="shape"/>
</filter>
</defs>
</svg>
