<svg width="86" height="86" fill="none" xmlns="http://www.w3.org/2000/svg"><path d="M81.067 56.968V46.749a1.595 1.595 0 0 0-.993-1.48 1.612 1.612 0 0 0-.615-.121h-7.48a8.368 8.368 0 0 0-2.532-5.792 8.438 8.438 0 0 0-5.872-2.388h-.84c-.181-.491-.4-.968-.656-1.426h17.38a1.614 1.614 0 0 0 1.486-.988c.08-.194.122-.403.122-.613v-5.336a6.048 6.048 0 0 0 3.44-2.488 6.004 6.004 0 0 0-1.068-7.855 6.064 6.064 0 0 0-7.96 0 6.003 6.003 0 0 0-1.068 7.855 6.048 6.048 0 0 0 3.44 2.488v3.735H59.24a10.157 10.157 0 0 0-8.218-1.71 14.553 14.553 0 0 0-3.189-4.626v-14.56h9.82a6.026 6.026 0 0 0 2.498 3.425 6.07 6.07 0 0 0 7.888-1.064 6.01 6.01 0 0 0 0-7.927 6.07 6.07 0 0 0-7.888-1.063 6.026 6.026 0 0 0-2.499 3.425H46.226a1.613 1.613 0 0 0-1.486.989c-.08.194-.122.402-.122.613v13.783a14.695 14.695 0 0 0-13.673-.198V11.83a6.048 6.048 0 0 0 3.44-2.488 6.004 6.004 0 0 0-1.067-7.855 6.064 6.064 0 0 0-7.96 0 6.004 6.004 0 0 0-1.068 7.856 6.047 6.047 0 0 0 3.44 2.487V25.54c0 .03.007.06.009.091a14.6 14.6 0 0 0-4.244 6.71H8.168v-5.422a6.049 6.049 0 0 0 3.44-2.488 6.006 6.006 0 0 0-1.067-7.857 6.065 6.065 0 0 0-7.962 0 6.005 6.005 0 0 0-1.068 7.857 6.049 6.049 0 0 0 3.44 2.488v7.022a1.594 1.594 0 0 0 .993 1.48c.195.08.405.121.616.121h16.38c-.018.3-.046.599-.046.904 0 .172 0 .346.011.522h-.46a8.414 8.414 0 0 0-3.671.83 8.377 8.377 0 0 0-2.937 2.345 8.316 8.316 0 0 0-1.57 7.138H6.56a1.612 1.612 0 0 0-1.486.988c-.08.195-.122.403-.122.613v9.768a6.048 6.048 0 0 0-3.44 2.488 6.004 6.004 0 0 0 1.068 7.855 6.064 6.064 0 0 0 7.96 0 6.004 6.004 0 0 0 1.068-7.856 6.048 6.048 0 0 0-3.44-2.487v-8.166h7.642a8.393 8.393 0 0 0 2.94 2.386 8.43 8.43 0 0 0 3.694.856h5.285v20.011a6.049 6.049 0 0 0-3.44 2.489 6.006 6.006 0 0 0 1.068 7.856 6.065 6.065 0 0 0 7.961 0 6.005 6.005 0 0 0 1.068-7.857 6.048 6.048 0 0 0-3.44-2.487V53.725h17.616v22a1.592 1.592 0 0 0 .47 1.133 1.606 1.606 0 0 0 1.138.47h7.483a6.026 6.026 0 0 0 2.499 3.425 6.07 6.07 0 0 0 7.888-1.064 6.01 6.01 0 0 0 0-7.927 6.07 6.07 0 0 0-7.888-1.063 6.026 6.026 0 0 0-2.499 3.425h-5.875v-20.4h11.797a8.447 8.447 0 0 0 4.759-1.476 8.393 8.393 0 0 0 3.086-3.898h6.433v8.617a6.048 6.048 0 0 0-3.44 2.488 6.005 6.005 0 0 0 1.068 7.855 6.064 6.064 0 0 0 7.96 0 6.004 6.004 0 0 0 1.068-7.856 6.047 6.047 0 0 0-3.44-2.487h-.002Zm-4.441-34.159c0-.558.166-1.103.477-1.567a2.845 2.845 0 0 1 4.359-.428 2.818 2.818 0 0 1 .614 3.075 2.823 2.823 0 0 1-1.043 1.266 2.841 2.841 0 0 1-3.578-.354 2.82 2.82 0 0 1-.83-1.996v.004ZM63.479 7.021a2.842 2.842 0 0 1 1.553.453 2.81 2.81 0 0 1 .548 4.275 2.834 2.834 0 0 1-3.006.762 2.833 2.833 0 0 1-1.317-.937 2.814 2.814 0 0 1-.588-1.502 1.17 1.17 0 0 0 0-.457 2.81 2.81 0 0 1 .896-1.844 2.833 2.833 0 0 1 1.914-.75Zm-36.974-.992c0-.559.166-1.104.477-1.568a2.845 2.845 0 0 1 4.36-.427 2.818 2.818 0 0 1 .614 3.075 2.824 2.824 0 0 1-1.044 1.267 2.842 2.842 0 0 1-3.577-.353 2.818 2.818 0 0 1-.83-1.994ZM3.724 21.117a2.832 2.832 0 0 1 3.386-2.769c.55.11 1.056.378 1.452.773a2.818 2.818 0 0 1 .615 3.075 2.824 2.824 0 0 1-1.044 1.267 2.842 2.842 0 0 1-3.577-.352 2.82 2.82 0 0 1-.831-1.994Zm5.668 43.334a2.814 2.814 0 0 1-.475 1.57 2.845 2.845 0 0 1-4.361.433 2.819 2.819 0 0 1-.617-3.077 2.825 2.825 0 0 1 1.045-1.267 2.842 2.842 0 0 1 3.576.35c.53.528.83 1.244.832 1.991ZM32.17 79.54c0 .558-.166 1.104-.477 1.568a2.845 2.845 0 0 1-4.36.428 2.82 2.82 0 0 1-.615-3.076 2.825 2.825 0 0 1 1.044-1.266 2.842 2.842 0 0 1 3.577.351c.532.53.83 1.247.831 1.995Zm31.308-6.634a2.842 2.842 0 0 1 1.553.453 2.81 2.81 0 0 1 .548 4.275 2.836 2.836 0 0 1-3.006.762 2.833 2.833 0 0 1-1.317-.937 2.813 2.813 0 0 1-.588-1.502 1.17 1.17 0 0 0 0-.457 2.81 2.81 0 0 1 .896-1.844 2.833 2.833 0 0 1 1.914-.75Zm.092-22.383H22.444a5.212 5.212 0 0 1-2.524-.653 5.186 5.186 0 0 1-1.887-1.793c-.023-.04-.045-.08-.072-.117a5.149 5.149 0 0 1-.032-5.19 5.177 5.177 0 0 1 1.904-1.905 5.203 5.203 0 0 1 2.608-.694h2.247a1.616 1.616 0 0 0 1.226-.565 1.6 1.6 0 0 0 .36-1.296 11.488 11.488 0 0 1-.166-1.864 11.384 11.384 0 0 1 1.817-6.154 11.453 11.453 0 0 1 4.862-4.207 11.509 11.509 0 0 1 12.244 1.701c.069.075.144.144.226.205a11.371 11.371 0 0 1 3.246 5.088 1.601 1.601 0 0 0 .848.975 1.615 1.615 0 0 0 1.295.037 6.944 6.944 0 0 1 6.892.977c.012.013.027.023.04.036a6.865 6.865 0 0 1 2.398 3.823 1.602 1.602 0 0 0 1.562 1.243h2.037a5.218 5.218 0 0 1 3.72 1.491 5.177 5.177 0 0 1 1.547 3.685 5.157 5.157 0 0 1-1.547 3.685 5.201 5.201 0 0 1-3.72 1.491l-.004.001Zm15.884 15.063c-.56 0-1.108-.165-1.575-.475a2.811 2.811 0 0 1-.43-4.342 2.838 2.838 0 0 1 3.088-.612c.518.213.961.575 1.272 1.039a2.813 2.813 0 0 1-.351 3.561c-.53.529-1.25.827-2 .83h-.004Z" fill="#3DB562"/></svg>