<svg width="86" height="85" fill="none" xmlns="http://www.w3.org/2000/svg"><path d="M19.74 70.247a1.329 1.329 0 0 0 1.153-.664l.162-.281 1.86 1.374a3.595 3.595 0 0 0 .963 4.926 3.55 3.55 0 0 0 2.022.631c.104 0 .207-.018.312-.028a3.541 3.541 0 0 0 3.42 2.596 3.4 3.4 0 0 0 1.25-.23 3.53 3.53 0 0 0 1.094 1.23 3.563 3.563 0 0 0 2.031.633c.102 0 .202-.026.303-.036A3.54 3.54 0 0 0 37.73 83c.223 0 .445-.02.664-.061a3.566 3.566 0 0 0 2.308-1.494l.034-.048 2.922 1.762c.559.337 1.2.515 1.852.513a3.508 3.508 0 0 0 3.501-2.816 3.514 3.514 0 0 0 4.276-2.71c.254.064.515.1.778.106a3.527 3.527 0 0 0 3.453-2.622 3.578 3.578 0 0 0 4.25-5.703 11.29 11.29 0 0 1 2.627-2.865l.544 1.106a1.328 1.328 0 0 0 1.77.608l8.959-4.328-1.154-2.391-7.774 3.756-7.529-15.31 7.757-3.746-1.155-2.39-8.96 4.328a1.327 1.327 0 0 0-.615 1.782l.456.93c-1.644.091-4.373-.266-8.74-2.038a11.077 11.077 0 0 0-10.782 1.006 16.456 16.456 0 0 0-3.83 3.701 11.82 11.82 0 0 1-2.767-1.255l.18-.312a1.328 1.328 0 0 0-.492-1.817l-8.396-4.794-1.317 2.306 7.238 4.132-8.536 14.774-7.249-4.138-1.317 2.307 8.396 4.794c.2.115.427.174.657.174Zm8.235 1.052-1.289 1.874a.934.934 0 0 1-1.302.24.938.938 0 0 1-.24-1.302l1.286-1.86a.942.942 0 0 1 1.3-.24.94.94 0 0 1 .245 1.292V71.3Zm4.367 1.643-1.926 2.797a.938.938 0 0 1-1.3.24.948.948 0 0 1-.24-1.3l1.926-2.798a.94.94 0 0 1 .777-.398.916.916 0 0 1 .523.16.938.938 0 0 1 .244 1.3h-.004Zm3.729 2.567-1.283 1.86a.948.948 0 0 1-1.302.24.94.94 0 0 1-.239-1.301l1.283-1.86a.94.94 0 0 1 1.302-.24.948.948 0 0 1 .243 1.301h-.004Zm3.087 3.499-.64.93a.942.942 0 0 1-1.3.24.943.943 0 0 1-.241-1.3l.643-.937a.93.93 0 0 1 1.686.364.931.931 0 0 1-.148.703Zm-.399-26.5a8.416 8.416 0 0 1 8.199-.68c4.62 1.876 8.302 2.578 10.985 2.106l5.275 10.715a13.47 13.47 0 0 0-3.643 3.799l-7.949-4.985a9.008 9.008 0 0 0 2.85-2.805L52.17 59.34a7.01 7.01 0 0 1-3.145 2.493l-7.688-4.82a1.328 1.328 0 0 0-1.86.47c-2.135 3.78-4.879 4.345-5.67 4.429a2.231 2.231 0 0 1-1.347-.177 16.944 16.944 0 0 1 6.3-9.225Zm-9.513 2.61a14.28 14.28 0 0 0 2.575 1.252 13.92 13.92 0 0 0-2.03 5.457 2.76 2.76 0 0 0 2.293 2.602c2.576.676 6.314-.676 8.96-4.463l18.75 11.753a.949.949 0 0 1 .468.811.974.974 0 0 1-.133.483.939.939 0 0 1-1.29.314l-6.787-4.085-1.38 2.28 3.892 2.34a.936.936 0 0 1-.263 1.705.948.948 0 0 1-.71-.107l-4.848-2.922-1.37 2.277 2.913 1.754a.933.933 0 1 1-.97 1.594l-4.842-2.922-1.368 2.269 2.922 1.755a.946.946 0 0 1 .452.797.978.978 0 0 1-.133.478.943.943 0 0 1-1.291.32l-3.104-1.874c.062-.391.06-.79-.008-1.182a3.532 3.532 0 0 0-3.052-2.868 3.585 3.585 0 0 0-1.549-2.922 3.546 3.546 0 0 0-2.332-.6 3.546 3.546 0 0 0-4.675-2.37 3.554 3.554 0 0 0-5.885-.548l-2.056-1.516 6.85-11.863Z" fill="#3DB562"/><path d="m67.313 61.022 2.264-1.114 1.172 2.384-2.265 1.113-1.171-2.383ZM43.01 26.563a5.313 5.313 0 1 0 0-10.626 5.313 5.313 0 0 0 0 10.626Zm0-7.97a2.656 2.656 0 1 1 0 5.313 2.656 2.656 0 0 1 0-5.312Z" fill="#3DB562"/><path d="M27.773 33.046a1.328 1.328 0 0 0 1.364-.066l4.758-3.172a23.519 23.519 0 0 0 1.737 4.046 1.329 1.329 0 0 0 1.157.677H49.23a1.329 1.329 0 0 0 1.157-.677 23.519 23.519 0 0 0 1.737-4.046l4.757 3.172a1.328 1.328 0 0 0 2.065-1.105v-7.969a1.328 1.328 0 0 0-.477-1.02l-5.028-4.19c-1.28-9.499-9.18-16.704-9.546-17.03a1.328 1.328 0 0 0-1.772 0c-.367.327-8.266 7.531-9.547 17.03l-5.028 4.19a1.328 1.328 0 0 0-.477 1.02v7.969a1.328 1.328 0 0 0 .701 1.171Zm25.822-10.765 2.696 2.247v4.865l-3.41-2.273c.38-1.589.618-3.208.714-4.84ZM43.01 4.515c2.243 2.332 7.968 9.03 7.968 16.734-.098 3.68-.966 7.3-2.547 10.625H37.588a26.392 26.392 0 0 1-2.547-10.625c0-7.703 5.726-14.402 7.969-16.734ZM29.729 24.528l2.696-2.247c.095 1.63.334 3.25.714 4.84l-3.41 2.272v-4.865ZM37.697 35.86h2.656v5.312h-2.656v-5.313ZM45.666 35.86h2.656v5.312h-2.656v-5.313ZM41.682 38.516h2.656v5.312h-2.656v-5.312Z" fill="#3DB562"/></svg>