<svg width="86" height="85" fill="none" xmlns="http://www.w3.org/2000/svg"><path d="M61.272 65.742a1.66 1.66 0 1 0 0 3.322 1.66 1.66 0 0 0 0-3.322Z" fill="#3DB562"/><path d="m65.36 60.374-7.892-2.63-2.832-5.666c2.552-2.597 4.324-6.034 4.921-9.619l.353-2.117h3.022a4.986 4.986 0 0 0 4.98-4.98v-10.46C67.912 11.172 56.741 0 43.01 0 29.243 0 18.107 11.14 18.107 24.902v10.46a4.988 4.988 0 0 0 3.32 4.694v1.946a4.986 4.986 0 0 0 4.981 4.98h1.458a18.005 18.005 0 0 0 2.785 4.313c.235.27.48.532.731.787l-2.83 5.662-7.892 2.63C11.485 63.434 4.826 73.092 4.826 83.34c0 .917.743 1.66 1.66 1.66h73.047a1.66 1.66 0 0 0 1.66-1.66c0-10.248-6.659-19.907-15.834-22.966Zm-.768-25.013c0 .916-.745 1.66-1.66 1.66h-2.534c.422-3.268.703-6.747.816-10.173l.01-.285h3.368v8.798Zm-41.504 1.66c-.916 0-1.66-.744-1.66-1.66v-8.798h3.37c.005.173.01.347.017.522V27.104c.117 3.332.395 6.72.807 9.917h-2.534Zm3.32 6.641c-.915 0-1.66-.745-1.66-1.66v-1.66h1.361l.353 2.118c.068.403.15.804.246 1.202h-.3Zm-1.657-20.42h-3.26C22.33 12.116 31.617 3.32 43.01 3.32c11.342 0 20.668 8.794 21.518 19.922h-3.26c-.119-9.168-7.585-16.601-16.772-16.601h-2.972c-9.187 0-16.654 7.433-16.773 16.601ZM41.524 9.961h2.972c7.439 0 13.46 6.085 13.455 13.515 0 .523-.004.978-.013 1.392v.016l-2.077-.297a26.677 26.677 0 0 1-14.998-7.5 1.66 1.66 0 0 0-1.173-.485 15.02 15.02 0 0 0-11.548 5.463c.695-6.76 6.41-12.104 13.382-12.104ZM30.15 43.662c-.83-2.764-1.782-10.9-1.992-16.112l2.234-2.98a11.686 11.686 0 0 1 8.641-4.63 30.028 30.028 0 0 0 16.359 7.934l2.444.35a102.161 102.161 0 0 1-.975 10.146v.003c-.153 1.029-.273 1.69-.579 3.54-.88 5.274-4.814 10.042-10.008 11.341-2.138.534-4.39.534-6.527 0-3.244-.81-6.218-3.055-8.137-6.272h3.385a4.988 4.988 0 0 0 4.695 3.32h3.32a4.979 4.979 0 0 0 4.98-4.98 4.986 4.986 0 0 0-4.98-4.98h-3.32a4.983 4.983 0 0 0-4.698 3.32H30.15Zm9.4 12.952c1.139.24 2.3.363 3.46.363.908 0 1.817-.076 2.715-.224l-2.934 3.102-3.241-3.241Zm.959 5.655-5.266 5.569a63.255 63.255 0 0 1-3.717-8.62l1.978-3.954 7.005 7.005Zm11.726-7.568 2.258 4.517a63.243 63.243 0 0 1-3.717 8.622l-5.636-5.636 7.095-7.503Zm-14.206-9.379c0-.916.744-1.66 1.66-1.66h3.32a1.66 1.66 0 0 1 0 3.32h-3.32c-.915 0-1.66-.744-1.66-1.66ZM8.213 81.68c.658-8.225 6.131-15.7 13.497-18.156l6.989-2.33a66.554 66.554 0 0 0 4.725 10.25l.01.017a66.572 66.572 0 0 0 4.544 6.94l2.042 3.279H8.213ZM43.01 80.2l-2.252-3.615a1.732 1.732 0 0 0-.08-.118 63.306 63.306 0 0 1-3.741-5.588l5.92-6.261 6.24 6.238a63.257 63.257 0 0 1-3.755 5.61c-.081.11.034-.062-2.332 3.734ZM46 81.68l2.042-3.279a66.546 66.546 0 0 0 4.576-6.994l.024-.044.003-.006a66.505 66.505 0 0 0 4.676-10.162l6.988 2.329c7.366 2.456 12.84 9.931 13.498 18.156H46Z" fill="#3DB562"/><path d="M72.816 74.961a16.598 16.598 0 0 0-4.7-5.705 1.66 1.66 0 1 0-2.025 2.631 13.259 13.259 0 0 1 3.754 4.558 1.66 1.66 0 0 0 2.97-1.484Z" fill="#3DB562"/></svg>