<svg width="417" height="338" viewBox="0 0 417 338" fill="none" xmlns="http://www.w3.org/2000/svg">
<rect x="8.62305" width="229.407" height="78.4815" rx="10.9764" fill="#3DB562"/>
<g filter="url(#filter0_d_350:49)">
<rect x="25.0879" y="15.9158" width="45.9014" height="45.9014" rx="10.9764" fill="white"/>
<path d="M47.5 38C50.1102 38 52.3704 37.0638 54.2171 35.2167C56.0638 33.3699 57 31.1103 57 28.4997C57 25.8901 56.0638 23.6301 54.2168 21.7827C52.3698 19.9362 50.1099 19 47.5 19C44.8895 19 42.6299 19.9362 40.7832 21.783C38.9365 23.6298 38 25.8897 38 28.4997C38 31.1103 38.9365 33.3702 40.7835 35.217C42.6305 37.0635 44.8904 38 47.5 38Z" fill="#F1A616"/>
<path d="M64.9176 49.6142C64.8626 48.8226 64.7513 47.9592 64.5874 47.0474C64.422 46.1288 64.209 45.2604 63.9541 44.4667C63.6907 43.6464 63.3326 42.8363 62.8898 42.0599C62.4303 41.2541 61.8905 40.5525 61.2849 39.9751C60.6515 39.3711 59.8761 38.8854 58.9794 38.5312C58.0858 38.1788 57.0956 38.0003 56.0363 38.0003C55.6203 38.0003 55.2179 38.1705 54.441 38.6747C53.9628 38.9855 53.4034 39.345 52.7791 39.7427C52.2453 40.0817 51.5221 40.3994 50.6288 40.687C49.7573 40.9681 48.8724 41.1106 47.9991 41.1106C47.1257 41.1106 46.2411 40.9681 45.3687 40.687C44.4764 40.3997 43.7532 40.082 43.22 39.743C42.6016 39.3491 42.0419 38.9896 41.5566 38.6744C40.7805 38.1701 40.3779 38 39.9619 38C38.9023 38 37.9123 38.1788 37.019 38.5315C36.123 38.8851 35.3472 39.3708 34.7133 39.9754C34.1079 40.5531 33.5679 41.2544 33.1089 42.0599C32.6665 42.8363 32.3083 43.6461 32.0447 44.467C31.79 45.2607 31.5771 46.1288 31.4117 47.0474C31.2478 47.958 31.1365 48.8217 31.0815 49.6151C31.0274 50.3924 31 51.1991 31 52.0138C31 54.1343 31.6762 55.8509 33.0098 57.1169C34.3268 58.3662 36.0695 59 38.1887 59H57.8113C59.9305 59 61.6726 58.3665 62.9899 57.1169C64.3238 55.8519 65 54.1349 65 52.0135C64.9997 51.195 64.972 50.3877 64.9176 49.6142Z" fill="#F1A616"/>
</g>
<rect x="107.711" y="15.9158" width="113.836" height="10.0983" rx="5.04916" fill="white"/>
<rect x="107.711" y="33.8173" width="113.836" height="10.0983" rx="5.04916" fill="white"/>
<rect x="107.711" y="51.7189" width="113.836" height="10.0983" rx="5.04916" fill="white"/>
<rect x="245.164" y="89.4579" width="170.916" height="141.344" rx="10.9764" fill="#0BA1A9"/>
<rect x="250.176" y="93.4677" width="161.393" height="133.324" rx="10.9764" fill="white"/>
<path d="M323.267 252.245V230.864C323.267 229.955 324.004 229.219 324.913 229.219H336.332C337.241 229.219 337.978 229.957 337.978 230.866V252.237C337.978 253.146 338.716 253.883 339.625 253.883H354.505C355.415 253.883 356.152 254.62 356.152 255.53V259.593C356.152 260.502 355.415 261.239 354.505 261.239H306.523C305.614 261.239 304.877 260.502 304.877 259.593V255.53C304.877 254.62 305.614 253.883 306.523 253.883H321.62C322.529 253.883 323.267 253.154 323.267 252.245Z" fill="#0BA1A9" stroke="#0BA1A9" stroke-width="2.19529"/>
<rect x="263.338" y="172.536" width="67.9336" height="45.4333" rx="5.48822" fill="#FCD056"/>
<rect x="269.395" y="187.248" width="9.95206" height="25.9619" rx="2.74411" fill="#E9181E"/>
<rect x="282.811" y="195.036" width="9.95206" height="18.1733" rx="2.74411" fill="#E9181E"/>
<g filter="url(#filter1_d_350:49)">
<rect x="296.223" y="179.892" width="9.95206" height="33.3178" rx="2.74411" fill="#3DB562"/>
</g>
<rect x="311.801" y="189.844" width="9.95206" height="23.3657" rx="2.74411" fill="#E9181E"/>
<rect x="337.33" y="102.439" width="67.9336" height="45.4333" rx="5.48822" fill="#FCD056"/>
<path d="M338.844 144.194L345.605 137.221C345.709 137.115 345.851 137.055 345.999 137.055H352.051C352.184 137.055 352.313 137.006 352.413 136.919L357.172 132.754C357.34 132.607 357.58 132.576 357.779 132.676L366.014 136.793C366.297 136.935 366.641 136.808 366.765 136.517L369.48 130.117C369.535 129.988 369.638 129.884 369.767 129.828L385.018 123.233C385.316 123.104 385.661 123.261 385.759 123.57L390.942 139.887C391.099 140.382 391.792 140.402 391.977 139.917L403.099 110.876" stroke="#E9181E" stroke-width="2.19529"/>
<path d="M342.307 145.492L350.103 143.174C350.237 143.135 350.351 143.045 350.421 142.925L353.272 138.037C353.317 137.96 353.38 137.895 353.455 137.848L360.161 133.657C360.229 133.615 360.286 133.559 360.33 133.492L367.89 121.942C367.991 121.787 368.164 121.694 368.349 121.694H374.722C374.883 121.694 375.035 121.624 375.14 121.501L383.681 111.501C383.786 111.379 383.938 111.309 384.099 111.309H392.98C393.09 111.309 393.197 111.276 393.288 111.214L403.317 104.386" stroke="#3DB562" stroke-width="2.19529"/>
<circle cx="293.627" cy="133.593" r="31.1543" fill="#FCD056"/>
<g filter="url(#filter2_d_350:49)">
<path d="M324.528 129.632C323.856 124.385 321.858 119.396 318.724 115.135C315.59 110.873 311.423 107.48 306.614 105.275C301.806 103.07 296.515 102.125 291.241 102.53C285.967 102.935 280.883 104.677 276.468 107.59C272.052 110.504 268.452 114.494 266.005 119.184C263.559 123.874 262.346 129.11 262.483 134.398C262.62 139.686 264.1 144.852 266.786 149.409C269.471 153.967 273.273 157.765 277.833 160.447L293.627 133.593L324.528 129.632Z" fill="#3DB562"/>
</g>
<path d="M405.695 186.815C405.695 204.021 391.747 217.969 374.541 217.969C357.335 217.969 343.387 204.021 343.387 186.815C343.387 169.609 357.335 155.661 374.541 155.661C391.747 155.661 405.695 169.609 405.695 186.815ZM354.431 186.815C354.431 197.922 363.434 206.925 374.541 206.925C385.648 206.925 394.651 197.922 394.651 186.815C394.651 175.708 385.648 166.705 374.541 166.705C363.434 166.705 354.431 175.708 354.431 186.815Z" fill="#3DB562"/>
<g filter="url(#filter3_d_350:49)">
<path d="M406.994 186.815C406.994 182.724 406.188 178.672 404.623 174.893C403.057 171.113 400.762 167.678 397.869 164.786C394.976 161.893 391.542 159.598 387.762 158.032C383.982 156.466 379.931 155.661 375.84 155.661L375.84 168.413C378.256 168.413 380.649 168.889 382.882 169.814C385.114 170.739 387.143 172.094 388.852 173.803C390.561 175.512 391.916 177.54 392.841 179.773C393.766 182.005 394.242 184.398 394.242 186.815H406.994Z" fill="#FCD056"/>
</g>
<path d="M246.262 30.7359C271.7 30.7359 320.082 29.6684 320.9 77.0185M320.9 77.0185H323.067C323.525 77.0185 323.782 77.5455 323.5 77.9057L321.332 80.6737C321.112 80.9543 320.687 80.9543 320.468 80.6737L318.3 77.9057C318.018 77.5455 318.274 77.0185 318.732 77.0185H320.9Z" stroke="#3DB562" stroke-width="1.09764"/>
<path d="M241.873 99.8874C216.435 99.8874 168.053 98.8199 167.235 146.17M167.235 146.17H165.067C164.61 146.17 164.353 146.697 164.635 147.057L166.803 149.825C167.023 150.106 167.447 150.106 167.667 149.825L169.835 147.057C170.117 146.697 169.86 146.17 169.403 146.17H167.235Z" stroke="#3DB562" stroke-width="1.09764"/>
<g filter="url(#filter4_d_350:49)">
<rect x="8.62305" y="251.509" width="98.6326" height="74.2947" rx="10.9764" fill="white"/>
</g>
<rect x="17.1621" y="260.049" width="56.3615" height="37.694" rx="5.48822" fill="#FCD056"/>
<rect x="22.1875" y="272.254" width="8.25678" height="21.5394" rx="2.74411" fill="#E9181E"/>
<rect x="33.3164" y="278.716" width="8.25678" height="15.0776" rx="2.74411" fill="#E9181E"/>
<g filter="url(#filter5_d_350:49)">
<rect x="44.4453" y="266.152" width="8.25678" height="27.6423" rx="2.74411" fill="#3DB562"/>
</g>
<rect x="57.3691" y="274.408" width="8.25678" height="19.3855" rx="2.74411" fill="#E9181E"/>
<rect x="17.1602" y="302.32" width="80.2724" height="5.55075" rx="2.74411" fill="#3DB562"/>
<rect x="17.1602" y="310.005" width="80.2724" height="5.55075" rx="2.74411" fill="#3DB562"/>
<g filter="url(#filter6_d_350:49)">
<rect x="8.62305" y="155.865" width="98.6326" height="74.2947" rx="10.9764" fill="white"/>
</g>
<circle cx="37.0167" cy="184.259" r="19.8546" fill="#FCD056"/>
<g filter="url(#filter7_d_350:49)">
<path d="M56.7102 181.735C56.2816 178.391 55.0086 175.212 53.0113 172.496C51.0139 169.78 48.3579 167.618 45.2936 166.212C42.2293 164.807 38.8576 164.205 35.4963 164.463C32.135 164.721 28.8948 165.831 26.081 167.688C23.2673 169.545 20.9726 172.087 19.4134 175.076C17.8542 178.065 17.0817 181.402 17.1687 184.772C17.2558 188.142 18.1995 191.435 19.911 194.339C21.6224 197.244 24.0453 199.664 26.9511 201.373L37.0167 184.259L56.7102 181.735Z" fill="#3DB562"/>
</g>
<rect x="17.1602" y="210.092" width="80.2724" height="5.55075" rx="2.74411" fill="#3DB562"/>
<rect x="17.1602" y="217.778" width="80.2724" height="5.55075" rx="2.74411" fill="#3DB562"/>
<g filter="url(#filter8_d_350:49)">
<rect x="127.324" y="155.865" width="98.6326" height="74.2947" rx="10.9764" fill="white"/>
</g>
<rect x="135.863" y="164.405" width="56.3615" height="37.694" rx="5.48822" fill="#FCD056"/>
<path d="M137.121 199.047L142.703 193.291C142.807 193.184 142.949 193.124 143.097 193.124H148.044C148.177 193.124 148.305 193.076 148.405 192.988L152.28 189.597C152.448 189.45 152.688 189.42 152.887 189.519L159.574 192.863C159.857 193.004 160.201 192.878 160.325 192.586L162.524 187.403C162.579 187.273 162.682 187.169 162.811 187.113L175.335 181.698C175.633 181.569 175.977 181.726 176.076 182.035L180.264 195.219C180.421 195.714 181.114 195.734 181.299 195.249L190.431 171.405" stroke="#E9181E" stroke-width="2.19529"/>
<path d="M139.992 200.124L146.425 198.212C146.559 198.172 146.673 198.083 146.743 197.962L149.078 193.959C149.123 193.882 149.186 193.817 149.261 193.77L154.788 190.316C154.855 190.274 154.913 190.218 154.956 190.151L161.19 180.628C161.291 180.473 161.464 180.38 161.649 180.38H166.843C167.004 180.38 167.156 180.31 167.26 180.188L174.291 171.956C174.395 171.834 174.548 171.764 174.708 171.764H182.004C182.115 171.764 182.222 171.731 182.313 171.669L190.61 166.02" stroke="#3DB562" stroke-width="2.19529"/>
<rect x="135.861" y="210.092" width="80.2724" height="5.55075" rx="2.74411" fill="#3DB562"/>
<rect x="135.861" y="217.778" width="80.2724" height="5.55075" rx="2.74411" fill="#3DB562"/>
<g filter="url(#filter9_d_350:49)">
<rect x="127.324" y="251.509" width="98.6326" height="74.2947" rx="10.9764" fill="white"/>
</g>
<path d="M174.719 279.476C174.719 290.206 166.021 298.904 155.291 298.904C144.561 298.904 135.863 290.206 135.863 279.476C135.863 268.747 144.561 260.049 155.291 260.049C166.021 260.049 174.719 268.747 174.719 279.476ZM142.75 279.476C142.75 286.402 148.365 292.017 155.291 292.017C162.217 292.017 167.832 286.402 167.832 279.476C167.832 272.55 162.217 266.936 155.291 266.936C148.365 266.936 142.75 272.55 142.75 279.476Z" fill="#3DB562"/>
<g filter="url(#filter10_d_350:49)">
<path d="M175.529 279.476C175.529 276.925 175.027 274.399 174.05 272.042C173.074 269.685 171.643 267.543 169.839 265.739C168.035 263.935 165.893 262.504 163.536 261.528C161.179 260.551 158.653 260.049 156.101 260.049V268.001C157.608 268.001 159.101 268.298 160.493 268.875C161.885 269.451 163.15 270.297 164.216 271.362C165.281 272.428 166.127 273.693 166.703 275.085C167.28 276.477 167.577 277.969 167.577 279.476H175.529Z" fill="#FCD056"/>
</g>
<rect x="135.861" y="303.601" width="80.2724" height="5.55075" rx="2.74411" fill="#3DB562"/>
<rect x="135.861" y="311.286" width="80.2724" height="5.55075" rx="2.74411" fill="#3DB562"/>
<rect x="95.8867" y="70.2491" width="54.8822" height="54.8822" rx="10.9764" fill="#FCD056"/>
<path d="M117.263 105.631C117.08 105.192 116.879 104.689 116.66 104.122C116.458 103.536 116.239 102.923 116.001 102.283C115.452 102.301 114.876 102.32 114.272 102.338C113.669 102.338 113.056 102.338 112.434 102.338C111.647 102.338 110.934 102.338 110.293 102.338C109.653 102.338 109.068 102.329 108.537 102.31C108.318 102.951 108.107 103.554 107.906 104.122C107.705 104.689 107.513 105.192 107.33 105.631C106.964 106.564 106.433 107.03 105.738 107.03C105.482 107.03 105.235 106.948 104.997 106.783C104.778 106.619 104.668 106.381 104.668 106.07C104.668 105.759 104.723 105.356 104.833 104.862C104.942 104.35 105.08 103.811 105.244 103.243C105.427 102.658 105.619 102.063 105.82 101.46C106.022 100.838 106.214 100.262 106.397 99.731C106.58 99.1456 106.836 98.4047 107.165 97.5083C107.513 96.5936 107.879 95.6423 108.263 94.6544C108.647 93.6665 109.031 92.6969 109.415 91.7457C109.799 90.7761 110.147 89.9345 110.458 89.2211C110.531 89.0381 110.623 88.8369 110.732 88.6174C110.842 88.3795 110.97 88.16 111.117 87.9588C111.281 87.7576 111.455 87.5838 111.638 87.4374C111.839 87.2911 112.059 87.2179 112.297 87.2179C112.534 87.2179 112.754 87.3002 112.955 87.4648C113.156 87.6112 113.33 87.7941 113.477 88.0137C113.641 88.2332 113.778 88.4619 113.888 88.6997C114.016 88.9375 114.117 89.1479 114.19 89.3308C114.483 90.0626 114.812 90.9041 115.178 91.8554C115.562 92.8067 115.937 93.7671 116.303 94.7367C116.687 95.7063 117.044 96.6302 117.373 97.5083C117.702 98.3864 117.968 99.1273 118.169 99.731C118.334 100.262 118.517 100.829 118.718 101.432C118.937 102.036 119.139 102.631 119.321 103.216C119.504 103.801 119.651 104.35 119.761 104.862C119.889 105.356 119.953 105.759 119.953 106.07C119.953 106.381 119.834 106.619 119.596 106.783C119.376 106.948 119.139 107.03 118.882 107.03C118.553 107.03 118.251 106.921 117.977 106.701C117.702 106.463 117.465 106.106 117.263 105.631ZM112.406 99.5938C112.845 99.5938 113.284 99.6029 113.724 99.6212C114.163 99.6212 114.602 99.6304 115.041 99.6487C114.821 99.0084 114.602 98.3681 114.382 97.7278C114.163 97.0875 113.952 96.4747 113.751 95.8893C113.568 95.3038 113.394 94.7642 113.23 94.2702C113.083 93.758 112.955 93.3098 112.845 92.9256C112.772 92.6878 112.69 92.4957 112.598 92.3494C112.507 92.203 112.388 92.1298 112.242 92.1298C112.095 92.1298 111.976 92.2122 111.885 92.3768C111.793 92.5232 111.711 92.7152 111.638 92.9531C111.418 93.7031 111.107 94.6818 110.705 95.8893C110.321 97.0784 109.909 98.3315 109.47 99.6487C109.964 99.6304 110.458 99.6212 110.952 99.6212C111.446 99.6029 111.931 99.5938 112.406 99.5938ZM124.615 105.302C124.615 105.741 124.57 106.079 124.478 106.317C124.405 106.555 124.304 106.738 124.176 106.866C124.066 106.994 123.929 107.067 123.765 107.085C123.618 107.122 123.472 107.14 123.326 107.14C122.832 107.14 122.502 107.03 122.338 106.811C122.191 106.591 122.091 106.097 122.036 105.329C121.999 104.927 121.972 104.341 121.953 103.573C121.935 102.804 121.917 101.89 121.899 100.829C121.899 99.7676 121.889 98.5968 121.871 97.3162C121.871 96.0356 121.871 94.6818 121.871 93.2549C121.871 92.578 121.953 91.892 122.118 91.1968C122.283 90.5017 122.594 89.8705 123.051 89.3034C123.527 88.7363 124.176 88.2789 124.999 87.9313C125.841 87.5838 126.929 87.41 128.265 87.41C129.198 87.41 130.085 87.5106 130.927 87.7118C131.768 87.9131 132.509 88.2606 133.149 88.7546C133.79 89.2485 134.302 89.9071 134.686 90.7303C135.07 91.5536 135.262 92.578 135.262 93.8037C135.262 95.0843 135.052 96.1454 134.631 96.9869C134.21 97.8284 133.616 98.4962 132.848 98.9901C132.079 99.484 131.165 99.8316 130.103 100.033C129.042 100.234 127.881 100.335 126.618 100.335C126.307 100.335 125.996 100.335 125.685 100.335C125.374 100.335 125.027 100.316 124.643 100.28L124.615 105.302ZM132.518 93.7489C132.518 92.5232 132.171 91.5993 131.476 90.9773C130.799 90.3553 129.664 90.0443 128.073 90.0443C127.469 90.0443 126.948 90.0992 126.509 90.209C126.088 90.3004 125.74 90.4742 125.466 90.7303C125.192 90.9682 124.981 91.2974 124.835 91.7182C124.707 92.139 124.643 92.6695 124.643 93.3098C124.643 93.9318 124.643 94.6453 124.643 95.4502C124.643 96.2368 124.652 96.9778 124.67 97.6729C125.091 97.6912 125.557 97.7004 126.07 97.7004C126.6 97.7004 127.094 97.7004 127.551 97.7004C128.1 97.7004 128.667 97.6638 129.253 97.5906C129.857 97.5174 130.396 97.3528 130.872 97.0967C131.347 96.8223 131.741 96.4289 132.052 95.9167C132.363 95.3862 132.518 94.6636 132.518 93.7489ZM137.879 105.329C137.843 104.67 137.815 103.984 137.797 103.271C137.797 102.557 137.788 101.789 137.769 100.966C137.751 100.143 137.742 99.2554 137.742 98.3041C137.742 97.3345 137.742 96.2551 137.742 95.066C137.742 93.7671 137.751 92.6604 137.769 91.7457C137.788 90.8127 137.843 90.0535 137.934 89.468C138.026 88.8826 138.163 88.4527 138.346 88.1783C138.547 87.9039 138.812 87.7667 139.141 87.7667C139.306 87.7667 139.462 87.785 139.608 87.8216C139.754 87.8582 139.882 87.9405 139.992 88.0685C140.102 88.1783 140.193 88.3521 140.267 88.5899C140.358 88.8095 140.413 89.1022 140.431 89.468C140.468 90.1266 140.495 90.712 140.514 91.2243C140.532 91.7365 140.55 92.2487 140.568 92.761C140.587 93.2549 140.596 93.7763 140.596 94.3251C140.596 94.8556 140.596 95.4593 140.596 96.1362C140.596 96.9595 140.596 97.7461 140.596 98.4962C140.596 99.2462 140.587 99.9871 140.568 100.719C140.55 101.451 140.532 102.192 140.514 102.942C140.495 103.692 140.468 104.478 140.431 105.302C140.413 105.741 140.367 106.079 140.294 106.317C140.221 106.555 140.129 106.738 140.02 106.866C139.91 106.994 139.782 107.067 139.635 107.085C139.489 107.122 139.324 107.14 139.141 107.14C138.812 107.14 138.529 107.03 138.291 106.811C138.053 106.573 137.916 106.079 137.879 105.329Z" fill="white"/>
<defs>
<filter id="filter0_d_350:49" x="19.5997" y="12.6229" width="56.8788" height="56.8779" filterUnits="userSpaceOnUse" color-interpolation-filters="sRGB">
<feFlood flood-opacity="0" result="BackgroundImageFix"/>
<feColorMatrix in="SourceAlpha" type="matrix" values="0 0 0 0 0 0 0 0 0 0 0 0 0 0 0 0 0 0 127 0" result="hardAlpha"/>
<feOffset dy="2.19529"/>
<feGaussianBlur stdDeviation="2.74411"/>
<feComposite in2="hardAlpha" operator="out"/>
<feColorMatrix type="matrix" values="0 0 0 0 0 0 0 0 0 0 0 0 0 0 0 0 0 0 0.25 0"/>
<feBlend mode="normal" in2="BackgroundImageFix" result="effect1_dropShadow_350:49"/>
<feBlend mode="normal" in="SourceGraphic" in2="effect1_dropShadow_350:49" result="shape"/>
</filter>
<filter id="filter1_d_350:49" x="290.734" y="176.599" width="20.9276" height="44.2942" filterUnits="userSpaceOnUse" color-interpolation-filters="sRGB">
<feFlood flood-opacity="0" result="BackgroundImageFix"/>
<feColorMatrix in="SourceAlpha" type="matrix" values="0 0 0 0 0 0 0 0 0 0 0 0 0 0 0 0 0 0 127 0" result="hardAlpha"/>
<feOffset dy="2.19529"/>
<feGaussianBlur stdDeviation="2.74411"/>
<feComposite in2="hardAlpha" operator="out"/>
<feColorMatrix type="matrix" values="0 0 0 0 0 0 0 0 0 0 0 0 0 0 0 0 0 0 0.25 0"/>
<feBlend mode="normal" in2="BackgroundImageFix" result="effect1_dropShadow_350:49"/>
<feBlend mode="normal" in="SourceGraphic" in2="effect1_dropShadow_350:49" result="shape"/>
</filter>
<filter id="filter2_d_350:49" x="256.984" y="99.1459" width="73.0331" height="68.9846" filterUnits="userSpaceOnUse" color-interpolation-filters="sRGB">
<feFlood flood-opacity="0" result="BackgroundImageFix"/>
<feColorMatrix in="SourceAlpha" type="matrix" values="0 0 0 0 0 0 0 0 0 0 0 0 0 0 0 0 0 0 127 0" result="hardAlpha"/>
<feOffset dy="2.19529"/>
<feGaussianBlur stdDeviation="2.74411"/>
<feComposite in2="hardAlpha" operator="out"/>
<feColorMatrix type="matrix" values="0 0 0 0 0 0 0 0 0 0 0 0 0 0 0 0 0 0 0.25 0"/>
<feBlend mode="normal" in2="BackgroundImageFix" result="effect1_dropShadow_350:49"/>
<feBlend mode="normal" in="SourceGraphic" in2="effect1_dropShadow_350:49" result="shape"/>
</filter>
<filter id="filter3_d_350:49" x="370.352" y="152.368" width="42.1307" height="42.1307" filterUnits="userSpaceOnUse" color-interpolation-filters="sRGB">
<feFlood flood-opacity="0" result="BackgroundImageFix"/>
<feColorMatrix in="SourceAlpha" type="matrix" values="0 0 0 0 0 0 0 0 0 0 0 0 0 0 0 0 0 0 127 0" result="hardAlpha"/>
<feOffset dy="2.19529"/>
<feGaussianBlur stdDeviation="2.74411"/>
<feComposite in2="hardAlpha" operator="out"/>
<feColorMatrix type="matrix" values="0 0 0 0 0 0 0 0 0 0 0 0 0 0 0 0 0 0 0.25 0"/>
<feBlend mode="normal" in2="BackgroundImageFix" result="effect1_dropShadow_350:49"/>
<feBlend mode="normal" in="SourceGraphic" in2="effect1_dropShadow_350:49" result="shape"/>
</filter>
<filter id="filter4_d_350:49" x="0.0440998" y="246.362" width="115.791" height="91.4526" filterUnits="userSpaceOnUse" color-interpolation-filters="sRGB">
<feFlood flood-opacity="0" result="BackgroundImageFix"/>
<feColorMatrix in="SourceAlpha" type="matrix" values="0 0 0 0 0 0 0 0 0 0 0 0 0 0 0 0 0 0 127 0" result="hardAlpha"/>
<feOffset dy="3.43158"/>
<feGaussianBlur stdDeviation="4.28947"/>
<feComposite in2="hardAlpha" operator="out"/>
<feColorMatrix type="matrix" values="0 0 0 0 0 0 0 0 0 0 0 0 0 0 0 0 0 0 0.25 0"/>
<feBlend mode="normal" in2="BackgroundImageFix" result="effect1_dropShadow_350:49"/>
<feBlend mode="normal" in="SourceGraphic" in2="effect1_dropShadow_350:49" result="shape"/>
</filter>
<filter id="filter5_d_350:49" x="38.9571" y="262.859" width="19.2323" height="38.6187" filterUnits="userSpaceOnUse" color-interpolation-filters="sRGB">
<feFlood flood-opacity="0" result="BackgroundImageFix"/>
<feColorMatrix in="SourceAlpha" type="matrix" values="0 0 0 0 0 0 0 0 0 0 0 0 0 0 0 0 0 0 127 0" result="hardAlpha"/>
<feOffset dy="2.19529"/>
<feGaussianBlur stdDeviation="2.74411"/>
<feComposite in2="hardAlpha" operator="out"/>
<feColorMatrix type="matrix" values="0 0 0 0 0 0 0 0 0 0 0 0 0 0 0 0 0 0 0.25 0"/>
<feBlend mode="normal" in2="BackgroundImageFix" result="effect1_dropShadow_350:49"/>
<feBlend mode="normal" in="SourceGraphic" in2="effect1_dropShadow_350:49" result="shape"/>
</filter>
<filter id="filter6_d_350:49" x="0.0440998" y="150.718" width="115.791" height="91.4526" filterUnits="userSpaceOnUse" color-interpolation-filters="sRGB">
<feFlood flood-opacity="0" result="BackgroundImageFix"/>
<feColorMatrix in="SourceAlpha" type="matrix" values="0 0 0 0 0 0 0 0 0 0 0 0 0 0 0 0 0 0 127 0" result="hardAlpha"/>
<feOffset dy="3.43158"/>
<feGaussianBlur stdDeviation="4.28947"/>
<feComposite in2="hardAlpha" operator="out"/>
<feColorMatrix type="matrix" values="0 0 0 0 0 0 0 0 0 0 0 0 0 0 0 0 0 0 0.25 0"/>
<feBlend mode="normal" in2="BackgroundImageFix" result="effect1_dropShadow_350:49"/>
<feBlend mode="normal" in="SourceGraphic" in2="effect1_dropShadow_350:49" result="shape"/>
</filter>
<filter id="filter7_d_350:49" x="11.6739" y="161.112" width="50.5253" height="47.9451" filterUnits="userSpaceOnUse" color-interpolation-filters="sRGB">
<feFlood flood-opacity="0" result="BackgroundImageFix"/>
<feColorMatrix in="SourceAlpha" type="matrix" values="0 0 0 0 0 0 0 0 0 0 0 0 0 0 0 0 0 0 127 0" result="hardAlpha"/>
<feOffset dy="2.19529"/>
<feGaussianBlur stdDeviation="2.74411"/>
<feComposite in2="hardAlpha" operator="out"/>
<feColorMatrix type="matrix" values="0 0 0 0 0 0 0 0 0 0 0 0 0 0 0 0 0 0 0.25 0"/>
<feBlend mode="normal" in2="BackgroundImageFix" result="effect1_dropShadow_350:49"/>
<feBlend mode="normal" in="SourceGraphic" in2="effect1_dropShadow_350:49" result="shape"/>
</filter>
<filter id="filter8_d_350:49" x="118.745" y="150.718" width="115.791" height="91.4526" filterUnits="userSpaceOnUse" color-interpolation-filters="sRGB">
<feFlood flood-opacity="0" result="BackgroundImageFix"/>
<feColorMatrix in="SourceAlpha" type="matrix" values="0 0 0 0 0 0 0 0 0 0 0 0 0 0 0 0 0 0 127 0" result="hardAlpha"/>
<feOffset dy="3.43158"/>
<feGaussianBlur stdDeviation="4.28947"/>
<feComposite in2="hardAlpha" operator="out"/>
<feColorMatrix type="matrix" values="0 0 0 0 0 0 0 0 0 0 0 0 0 0 0 0 0 0 0.25 0"/>
<feBlend mode="normal" in2="BackgroundImageFix" result="effect1_dropShadow_350:49"/>
<feBlend mode="normal" in="SourceGraphic" in2="effect1_dropShadow_350:49" result="shape"/>
</filter>
<filter id="filter9_d_350:49" x="118.745" y="246.362" width="115.791" height="91.4526" filterUnits="userSpaceOnUse" color-interpolation-filters="sRGB">
<feFlood flood-opacity="0" result="BackgroundImageFix"/>
<feColorMatrix in="SourceAlpha" type="matrix" values="0 0 0 0 0 0 0 0 0 0 0 0 0 0 0 0 0 0 127 0" result="hardAlpha"/>
<feOffset dy="3.43158"/>
<feGaussianBlur stdDeviation="4.28947"/>
<feComposite in2="hardAlpha" operator="out"/>
<feColorMatrix type="matrix" values="0 0 0 0 0 0 0 0 0 0 0 0 0 0 0 0 0 0 0.25 0"/>
<feBlend mode="normal" in2="BackgroundImageFix" result="effect1_dropShadow_350:49"/>
<feBlend mode="normal" in="SourceGraphic" in2="effect1_dropShadow_350:49" result="shape"/>
</filter>
<filter id="filter10_d_350:49" x="150.613" y="256.756" width="30.4042" height="30.404" filterUnits="userSpaceOnUse" color-interpolation-filters="sRGB">
<feFlood flood-opacity="0" result="BackgroundImageFix"/>
<feColorMatrix in="SourceAlpha" type="matrix" values="0 0 0 0 0 0 0 0 0 0 0 0 0 0 0 0 0 0 127 0" result="hardAlpha"/>
<feOffset dy="2.19529"/>
<feGaussianBlur stdDeviation="2.74411"/>
<feComposite in2="hardAlpha" operator="out"/>
<feColorMatrix type="matrix" values="0 0 0 0 0 0 0 0 0 0 0 0 0 0 0 0 0 0 0.25 0"/>
<feBlend mode="normal" in2="BackgroundImageFix" result="effect1_dropShadow_350:49"/>
<feBlend mode="normal" in="SourceGraphic" in2="effect1_dropShadow_350:49" result="shape"/>
</filter>
</defs>
</svg>
