<svg width="32" height="32" viewBox="0 0 32 32" fill="none" xmlns="http://www.w3.org/2000/svg">
<path d="M16 27.8669L22.6 21.2669C23.9052 19.9616 24.794 18.2985 25.1541 16.4881C25.5141 14.6776 25.3292 12.801 24.6228 11.0956C23.9163 9.39024 22.7201 7.93263 21.1852 6.90711C19.6504 5.88159 17.8459 5.33423 16 5.33423C14.1541 5.33423 12.3496 5.88159 10.8148 6.90711C9.27994 7.93263 8.08367 9.39024 7.37722 11.0956C6.67077 12.801 6.48589 14.6776 6.84594 16.4881C7.20599 18.2985 8.09481 19.9616 9.4 21.2669L16 27.8669ZM16 31.6376L7.51467 23.1522C5.83646 21.474 4.69358 19.3358 4.23057 17.008C3.76756 14.6803 4.00521 12.2675 4.91346 10.0748C5.82172 7.88205 7.35979 6.00792 9.33318 4.68935C11.3066 3.37078 13.6266 2.66699 16 2.66699C18.3734 2.66699 20.6934 3.37078 22.6668 4.68935C24.6402 6.00792 26.1783 7.88205 27.0865 10.0748C27.9948 12.2675 28.2324 14.6803 27.7694 17.008C27.3064 19.3358 26.1636 21.474 24.4853 23.1522L16 31.6376ZM16 17.3336C16.7072 17.3336 17.3855 17.0526 17.8856 16.5525C18.3857 16.0524 18.6667 15.3741 18.6667 14.6669C18.6667 13.9596 18.3857 13.2814 17.8856 12.7813C17.3855 12.2812 16.7072 12.0002 16 12.0002C15.2928 12.0002 14.6145 12.2812 14.1144 12.7813C13.6143 13.2814 13.3333 13.9596 13.3333 14.6669C13.3333 15.3741 13.6143 16.0524 14.1144 16.5525C14.6145 17.0526 15.2928 17.3336 16 17.3336ZM16 20.0002C14.5855 20.0002 13.229 19.4383 12.2288 18.4381C11.2286 17.4379 10.6667 16.0814 10.6667 14.6669C10.6667 13.2524 11.2286 11.8958 12.2288 10.8957C13.229 9.89546 14.5855 9.33355 16 9.33355C17.4145 9.33355 18.771 9.89546 19.7712 10.8957C20.7714 11.8958 21.3333 13.2524 21.3333 14.6669C21.3333 16.0814 20.7714 17.4379 19.7712 18.4381C18.771 19.4383 17.4145 20.0002 16 20.0002Z" fill="black"/>
</svg>
